<?xml version="1.0" encoding="UTF-8"?>
<svg id="Ebene_2" data-name="Ebene 2" xmlns="http://www.w3.org/2000/svg" width="120" height="80" viewBox="0 0 120 80">
  <rect width="120" height="80" rx="4" ry="4" style="fill: #fcd202;"/>
  <g>
    <path d="M41.7,50.46l1.75-7.89h6.76l.81-3.87h-6.72l1.03-4.84h7.1l.87-3.87h-11.73l-4.44,20.47h4.57Z"/>
    <path d="M26.09,44.22h1.97c6.29,0,9.79-3.02,9.79-8.04,0-3.75-2.72-6.18-7.38-6.18h-5.82l-4.44,20.47h4.5l1.38-6.24Zm.78-3.75l1.47-6.73h1.88c2.06,0,3.06,.82,3.06,2.74,0,2.47-1.59,3.99-4.53,3.99h-1.88Z"/>
    <g>
      <path d="M59.89,50.49h-3.35l4.13-20.49h3.77c.97,0,1.91,.08,2.83,.23,.92,.16,1.73,.44,2.43,.85,.7,.41,1.26,.96,1.69,1.64,.43,.69,.64,1.56,.64,2.61,0,1.23-.21,2.3-.64,3.2-.43,.9-1.03,1.64-1.81,2.22-.78,.58-1.72,1-2.82,1.28-1.1,.27-2.32,.41-3.65,.41h-.74c-.25,0-.53-.02-.85-.06l-1.62,8.1Zm2.12-10.86c.24,.04,.47,.06,.68,.06h.63c1.64,0,2.93-.3,3.89-.91,.96-.61,1.44-1.66,1.44-3.17,0-.55-.11-1.01-.33-1.38-.22-.37-.54-.67-.95-.9-.41-.22-.91-.38-1.49-.47-.59-.09-1.23-.13-1.94-.13h-.59l-1.34,6.9Z"/>
      <path d="M78.99,49.97c-.82,.43-1.73,.65-2.71,.65-1.34,0-2.43-.38-3.27-1.15-.84-.77-1.26-1.81-1.26-3.12,0-1,.22-1.84,.66-2.52,.44-.68,1.02-1.23,1.76-1.65,.74-.42,1.59-.73,2.56-.91,.97-.19,1.99-.28,3.05-.28,.3,0,.65,0,1.06,.01,.41,.01,.77,.04,1.09,.07,.08-.33,.11-.69,.11-1.06,0-.82-.28-1.46-.83-1.9s-1.32-.66-2.31-.66c-.65,0-1.34,.08-2.07,.24-.73,.16-1.73,.57-2.44,.9l.59-2.91c.65-.24,1.36-.42,2.11-.54s1.49-.19,2.2-.19c1.81,0,3.21,.4,4.2,1.21,.99,.81,1.48,1.99,1.48,3.56,0,.63-.08,1.42-.25,2.38-.17,.96-.35,1.92-.56,2.86-.15,.69-.27,1.28-.36,1.77s-.17,.94-.22,1.34c-.06,.4-.09,.78-.11,1.13-.02,.35-.03,.75-.03,1.18h-2.66c.02-.41,.06-.84,.11-1.28,.06-.44,.11-.86,.17-1.25h-.06c-.52,.98-1.19,1.69-2.01,2.12Zm2.6-6.68c-.56-.06-1.1-.09-1.64-.09-1.05,0-1.95,.08-2.68,.25-.73,.17-1.33,.39-1.78,.67-.45,.28-.78,.61-.98,1-.2,.38-.29,.8-.29,1.23,0,.69,.22,1.22,.67,1.59,.44,.38,1.02,.56,1.72,.56,.64,0,1.24-.13,1.8-.41,.56-.27,1.05-.64,1.49-1.11,.43-.47,.8-1.02,1.1-1.66s.5-1.32,.6-2.05Z"/>
      <path d="M91.25,35.53c.23,1.91,.45,3.71,.62,5.18,.18,1.48,.32,2.66,.42,3.54,.1,.88,.17,1.52,.21,1.92,.04,.4,.06,.72,.08,.95h.06c.07-.16,.16-.35,.25-.57,.09-.22,.23-.52,.42-.9,.19-.37,.42-.85,.71-1.42,.29-.58,.65-1.29,1.07-2.14,.43-.85,.94-1.86,1.53-3.04,.59-1.17,1-1.96,1.81-3.52h3.35l-8.51,15.53c-.5,.94-.99,1.75-1.48,2.42-.48,.68-.98,1.24-1.49,1.69-.51,.45-1.06,.78-1.65,1-.59,.22-1.24,.32-1.97,.32-.35,0-.72-.03-1.09-.07-.37-.05-.75-.16-1.07-.25l.54-2.67c.24,.1,.49,.16,.74,.19,.25,.03,.48,.04,.68,.04,.84,0,1.54-.26,2.12-.79,.58-.53,1.13-1.35,1.67-2.47l-2.34-14.95h3.29Z"/>
    </g>
  </g>
</svg>