<?xml version="1.0" encoding="UTF-8"?>
<!DOCTYPE svg PUBLIC "-//W3C//DTD SVG 1.0//EN" "http://www.w3.org/TR/2001/REC-SVG-20010904/DTD/svg10.dtd">
<!-- Creator: CorelDRAW 2017 -->
<svg xmlns="http://www.w3.org/2000/svg" xml:space="preserve" width="375px" height="250px" version="1.0"
     shape-rendering="geometricPrecision" text-rendering="geometricPrecision" image-rendering="optimizeQuality"
     fill-rule="evenodd" clip-rule="evenodd"
     viewBox="0 0 375 250"
     xmlns:xlink="http://www.w3.org/1999/xlink">
 <g id="Layer_x0020_1">
  <metadata id="CorelCorpID_0Corel-Layer"/>
     <path fill="white"
           d="M12.5 0l350 0c6.9,0 12.5,5.6 12.5,12.5l0 225c0,6.9 -5.6,12.5 -12.5,12.5l-350 0c-6.9,0 -12.5,-5.6 -12.5,-12.5l0 -225c0,-6.9 5.6,-12.5 12.5,-12.5z"/>
     <path fill="black" fill-rule="nonzero"
           d="M43.48 188.58c-1.46,0 -2.66,-1.19 -2.66,-2.66 0,-1.47 1.2,-2.66 2.66,-2.66l91.42 0c1.46,0 2.65,1.19 2.65,2.66 0,1.47 -1.19,2.66 -2.65,2.66l-91.42 0zm0 -20.91c-1.46,0 -2.66,-1.19 -2.66,-2.66 0,-1.47 1.2,-2.66 2.66,-2.66l91.42 0c1.46,0 2.65,1.19 2.65,2.66 0,1.47 -1.19,2.66 -2.65,2.66l-91.42 0zm0 -20.93c-1.46,0 -2.66,-1.19 -2.66,-2.65 0,-1.47 1.2,-2.66 2.66,-2.66l91.42 0c1.46,0 2.65,1.19 2.65,2.66 0,1.46 -1.19,2.65 -2.65,2.65l-91.42 0zm-22.19 -107.18l312.27 0c1.72,0 3.13,1.4 3.13,3.13l0 187.92c0,1.73 -1.41,3.13 -3.13,3.13l-312.27 0c-1.73,0 -3.13,-1.4 -3.13,-3.13l0 -187.92c0,-1.73 1.4,-3.13 3.13,-3.13zm309.14 6.26l-306.01 0 0 181.67 306.01 0 0 -181.67zm-288.05 -21.27c-1.86,0 -3.37,-1.5 -3.37,-3.36 0,-1.86 1.51,-3.37 3.37,-3.37l313.44 0c1.86,0 3.37,1.51 3.37,3.37l0 187.92c0,1.86 -1.51,3.37 -3.37,3.37 -1.86,0 -3.36,-1.51 -3.36,-3.37l0 -184.56 -310.08 0z"/>
     <path fill="#00AFF0" fill-rule="nonzero"
           d="M44.46 104.37c-0.82,0 -1.48,-0.66 -1.48,-1.47 0,-0.82 0.66,-1.48 1.48,-1.48l17.65 0 0 -17.65c0,-0.82 0.66,-1.48 1.48,-1.48 0.81,0 1.47,0.66 1.47,1.48l0 17.65 17.65 0c0.82,0 1.48,0.66 1.48,1.48 0,0.81 -0.66,1.47 -1.48,1.47l-17.65 0 0 17.65c0,0.82 -0.66,1.48 -1.47,1.48 -0.82,0 -1.48,-0.66 -1.48,-1.48l0 -17.65 -17.65 0z"/>
     <g id="_2268862161040">
   <path fill="black" fill-rule="nonzero"
         d="M243.43 171.91l17.36 0c0.57,0 1.04,0.46 1.04,1.03l0 16.61c0,0.57 -0.47,1.04 -1.04,1.04l-17.36 0c-0.57,0 -1.03,-0.47 -1.03,-1.04l0 -16.61c0,-0.57 0.46,-1.03 1.03,-1.03zm16.33 2.07l-15.29 0 0 14.54 15.29 0 0 -14.54zm-51.95 -2.07l17.36 0c0.57,0 1.03,0.46 1.03,1.03l0 16.61c0,0.57 -0.46,1.04 -1.03,1.04l-17.36 0c-0.57,0 -1.04,-0.47 -1.04,-1.04l0 -16.61c0,-0.57 0.47,-1.03 1.04,-1.03zm16.32 2.07l-15.29 0 0 14.54 15.29 0 0 -14.54zm-16.32 -36.08l17.36 0c0.57,0 1.03,0.46 1.03,1.04l0 16.61c0,0.57 -0.46,1.03 -1.03,1.03l-17.36 0c-0.57,0 -1.04,-0.46 -1.04,-1.03l0 -16.61c0,-0.58 0.47,-1.04 1.04,-1.04zm16.32 2.07l-15.29 0 0 14.54 15.29 0 0 -14.54zm19.3 -2.07l17.36 0c0.57,0 1.04,0.46 1.04,1.04l0 16.61c0,0.57 -0.47,1.03 -1.04,1.03l-17.36 0c-0.57,0 -1.03,-0.46 -1.03,-1.03l0 -16.61c0,-0.58 0.46,-1.04 1.03,-1.04zm16.33 2.07l-15.29 0 0 14.54 15.29 0 0 -14.54z"/>
         <path fill="#00AFF0" fill-rule="nonzero"
               d="M189.55 117.17l33.48 0 0 3.42 -31.77 0 0 32.94 -3.42 0 0 -34.65c0,-0.94 0.77,-1.71 1.71,-1.71zm55.97 0l35.17 0c0.94,0 1.71,0.77 1.71,1.71l0 34.65 -3.42 0 0 -32.94 -33.46 0 0 -3.42zm36.88 57.78l0 35.44c0,0.94 -0.77,1.7 -1.71,1.7l-35.17 0 0 -3.41 33.46 0 0 -33.73 3.42 0zm-59.37 37.14l-33.48 0c-0.94,0 -1.71,-0.76 -1.71,-1.7l0 -35.44 3.42 0 0 33.73 31.77 0 0 3.41z"/>
         <rect fill="#00AFF0" x="244.47" y="173.98" width="15.29" height="14.54"/>
         <path fill="#00AFF0"
               d="M234.54 167.39c-1.59,0 -2.89,-1.42 -2.89,-3.18 0,-1.79 1.3,-3.24 2.89,-3.24 1.59,0 2.91,1.45 2.91,3.24 0,1.75 -1.31,3.18 -2.91,3.18zm7.1 -3.12c0,3.98 -3.23,7.2 -7.2,7.2 -1.01,0 -1.96,-0.2 -2.83,-0.57l0 -3.37c0.79,0.74 1.83,1.16 2.92,1.16 0,0 0.01,0 0.01,0 2.46,0 4.33,-2.01 4.33,-4.48 0,-2.51 -1.87,-4.55 -4.33,-4.55l0 0c0,0 -0.01,0 -0.01,0 -1.09,0 -2.13,0.43 -2.92,1.18l0 -0.9 -1.4 0 0 10.16c-1.8,-1.31 -2.97,-3.43 -2.97,-5.83 0,-3.97 3.22,-7.19 7.19,-7.2 0,0 0.01,0 0.01,0 3.97,0 7.2,3.23 7.2,7.2 0,0 0,0 0,0z"/>
  </g>
     <path fill="black" fill-rule="nonzero"
           d="M150.69 99.12l-5.22 0 0 -38.34 5.22 0 0 38.34zm13.43 -28.49l0.37 4.24c0.94,-1.51 2.13,-2.69 3.57,-3.51 1.42,-0.84 3.05,-1.26 4.88,-1.26 3.07,0 5.44,0.91 7.13,2.7 1.69,1.8 2.53,4.58 2.53,8.34l0 17.98 -5.19 0 0 -17.88c0,-2.51 -0.49,-4.29 -1.48,-5.34 -1,-1.06 -2.51,-1.59 -4.55,-1.59 -1.6,0 -2.95,0.33 -4.06,0.97 -1.13,0.63 -2.01,1.54 -2.65,2.69l0 21.15 -5.19 0 0 -28.49 4.64 0zm35.52 20.09l0.44 2 0.17 0 0.5 -2 6.55 -20.09 5.3 0 -10.49 28.49 -3.92 0 -10.61 -28.49 5.32 0 6.74 20.09zm16.01 -6.1c0,-4.22 1.14,-7.69 3.43,-10.42 2.28,-2.74 5.38,-4.1 9.29,-4.1 3.96,0 7.08,1.36 9.37,4.09 2.29,2.71 3.43,6.19 3.43,10.43l0 0.57c0,4.25 -1.14,7.73 -3.42,10.43 -2.29,2.7 -5.39,4.05 -9.32,4.06 -3.93,-0.01 -7.05,-1.36 -9.34,-4.07 -2.29,-2.72 -3.44,-6.19 -3.44,-10.42l0 -0.57zm5.19 0.57c0,3.02 0.64,5.51 1.91,7.48 1.27,1.97 3.17,2.95 5.68,2.95 2.48,0 4.35,-0.98 5.63,-2.95 1.29,-1.97 1.93,-4.46 1.93,-7.48l0 -0.57c0,-2.99 -0.65,-5.48 -1.94,-7.46 -1.29,-1.98 -3.18,-2.97 -5.68,-2.97 -2.47,0 -4.35,0.99 -5.62,2.97 -1.27,1.98 -1.91,4.47 -1.91,7.46l0 0.57zm32.29 13.93l-5.19 0 0 -28.49 5.19 0 0 28.49zm0 -35.78l-5.19 0 0 -5.3 5.19 0 0 5.3zm19.31 32.28c1.59,0 2.99,-0.53 4.19,-1.59 1.18,-1.06 1.79,-2.37 1.79,-3.91l4.68 0 0.08 0.16c0.07,2.45 -0.98,4.64 -3.16,6.54 -2.18,1.91 -4.71,2.85 -7.58,2.86 -4.01,-0.01 -7.09,-1.37 -9.28,-4.09 -2.18,-2.71 -3.26,-6.1 -3.26,-10.16l0 -1.11c0,-4.02 1.09,-7.39 3.28,-10.12 2.18,-2.74 5.27,-4.1 9.26,-4.1 3.17,0 5.78,0.99 7.8,2.96 2.03,1.96 3.01,4.37 2.94,7.23l-0.05 0.16 -4.71 0c0,-1.74 -0.57,-3.21 -1.7,-4.44 -1.14,-1.22 -2.57,-1.82 -4.28,-1.82 -2.55,0 -4.41,0.98 -5.58,2.96 -1.17,1.97 -1.75,4.36 -1.75,7.17l0 1.11c0,2.86 0.58,5.27 1.73,7.24 1.15,1.97 3.02,2.95 5.6,2.95zm28.7 4.06c-4.09,-0.01 -7.28,-1.31 -9.56,-3.93 -2.3,-2.61 -3.45,-6.06 -3.45,-10.32l0 -1.16c0,-4.09 1.19,-7.47 3.54,-10.15 2.37,-2.68 5.25,-4.02 8.66,-4.02 3.8,0 6.66,1.18 8.57,3.56 1.9,2.37 2.86,5.52 2.86,9.45l0 2.74 -18.22 0 -0.09 0.13c0,2.86 0.63,5.19 1.9,6.97 1.27,1.78 3.19,2.67 5.79,2.67 1.76,0 3.3,-0.24 4.63,-0.75 1.32,-0.5 2.46,-1.19 3.41,-2.06l2.03 3.37c-1.03,0.98 -2.37,1.81 -4.04,2.49 -1.66,0.67 -3.68,1 -6.03,1.01zm-0.81 -25.49c-1.81,0 -3.31,0.69 -4.49,2.08 -1.19,1.41 -1.91,3.19 -2.18,5.37l0.06 0.13 12.85 0 0 -0.43c0,-2.06 -0.51,-3.77 -1.53,-5.13 -1.01,-1.35 -2.59,-2.02 -4.71,-2.02z"/>
 </g>
</svg>
