<?xml version="1.0" standalone="no"?>
<!DOCTYPE svg PUBLIC "-//W3C//DTD SVG 20010904//EN"
 "http://www.w3.org/TR/2001/REC-SVG-20010904/DTD/svg10.dtd">
<svg version="1.0" xmlns="http://www.w3.org/2000/svg"
 width="2028.000000pt" height="543.000000pt" viewBox="0 0 2028.000000 543.000000"
 preserveAspectRatio="xMidYMid meet">

<g transform="translate(0.000000,543.000000) scale(0.100000,-0.100000)"
fill="#ffffff" stroke="none">
<path fill="#007acc" d="M2280 5350 c-425 -25 -911 -85 -1062 -131 -379 -115 -705 -395 -879
-754 -88 -183 -112 -286 -158 -680 -47 -398 -55 -558 -55 -1070 0 -576 22
-896 93 -1364 79 -514 456 -956 963 -1131 154 -53 640 -112 1158 -141 636 -35
1699 40 2005 142 122 41 303 136 407 214 171 128 332 322 428 514 94 189 118
287 164 681 85 728 87 1404 5 2130 -47 420 -76 537 -180 740 -77 149 -137 230
-273 366 -210 209 -470 346 -738 388 -181 28 -516 66 -723 82 -245 18 -943 26
-1155 14z m1025 -1470 c162 -51 298 -142 398 -265 60 -74 131 -217 154 -310
24 -98 22 -276 -4 -372 l-19 -73 50 0 c148 -1 301 -65 411 -173 79 -79 116
-136 153 -236 33 -90 41 -240 18 -331 -52 -206 -196 -366 -393 -435 l-68 -25
-1310 0 -1310 0 -68 25 c-197 69 -341 229 -393 435 -34 135 -6 314 71 446 47
81 162 187 248 228 72 35 182 65 237 66 24 0 27 5 42 86 22 116 67 202 148
284 70 70 157 120 245 140 117 27 265 9 363 -45 30 -17 44 -20 47 -12 2 7 9
30 16 52 33 110 119 245 212 331 106 100 231 165 382 200 89 20 281 12 370
-16z"/>
<path d="M14730 4704 c-177 -16 -201 -20 -226 -38 -18 -13 -19 -33 -24 -303
-6 -344 -7 -349 -115 -426 -75 -54 -85 -73 -85 -161 0 -87 11 -99 98 -104 l71
-4 3 -832 c3 -827 3 -831 25 -896 43 -126 109 -198 223 -241 70 -28 260 -37
364 -19 148 26 374 118 397 162 8 15 4 37 -21 98 -17 43 -38 81 -47 84 -8 3
-66 3 -128 0 -105 -6 -115 -5 -148 15 -21 13 -45 41 -59 69 l-23 47 -3 757 -3
757 181 3 c218 4 210 -1 210 127 0 47 -5 93 -10 101 -7 12 -44 16 -192 20
l-183 5 -5 395 -5 395 -75 1 c-41 1 -140 -4 -220 -12z"/>
<path d="M7675 3953 c-199 -42 -389 -154 -491 -289 -102 -136 -130 -320 -75
-496 46 -144 193 -294 458 -467 71 -45 190 -123 265 -172 222 -144 311 -242
325 -358 11 -94 -57 -187 -177 -245 -61 -29 -72 -31 -180 -31 -127 0 -170 14
-200 68 -13 24 -13 34 8 114 33 126 16 201 -58 254 -69 50 -245 62 -354 23
-62 -21 -127 -85 -151 -147 -25 -66 -17 -168 19 -241 30 -62 109 -139 189
-185 72 -41 215 -87 315 -102 124 -17 396 -7 494 19 238 64 429 196 508 352
43 84 60 165 60 277 0 179 -46 282 -189 424 -101 100 -218 184 -431 309 -368
216 -457 307 -448 461 5 93 38 141 132 189 60 30 77 35 144 35 86 0 133 -15
152 -50 10 -19 8 -33 -15 -90 -30 -76 -28 -123 9 -177 44 -66 191 -118 294
-104 93 14 144 37 198 91 43 43 54 61 65 108 11 50 10 65 -5 119 -42 152 -196
264 -429 312 -98 21 -335 20 -432 -1z"/>
<path d="M9400 3963 c-117 -20 -248 -69 -337 -125 -110 -69 -163 -149 -171
-259 -12 -173 116 -277 327 -267 71 3 95 9 140 33 105 58 136 156 87 272 -14
35 -26 69 -26 77 0 30 42 46 115 46 123 -1 200 -45 243 -139 26 -54 26 -62 27
-266 l0 -209 -110 -28 c-554 -141 -839 -373 -895 -731 -25 -154 8 -333 84
-450 70 -110 193 -198 322 -232 75 -19 223 -19 299 0 93 24 214 89 309 165 48
39 88 70 90 70 2 0 16 -20 29 -43 52 -89 150 -154 274 -183 88 -21 250 -15
311 11 57 23 72 55 72 149 0 85 -10 98 -81 110 -41 7 -82 36 -102 69 -9 17
-13 191 -18 722 -6 766 -5 745 -67 875 -34 70 -134 175 -207 219 -74 45 -196
88 -302 106 -80 14 -349 19 -413 8z m408 -1425 c-3 -323 -4 -346 -24 -388 -85
-183 -318 -165 -374 29 -6 20 -13 79 -16 131 -15 247 84 424 291 526 50 24 98
44 108 44 18 0 18 -17 15 -342z"/>
<path d="M11260 3954 c-214 -45 -381 -145 -440 -260 -37 -73 -40 -183 -7 -244
30 -57 93 -105 164 -126 77 -22 213 -16 269 13 53 28 101 78 115 121 15 45 6
120 -20 171 -42 82 -20 111 86 111 89 0 156 -23 203 -70 61 -61 70 -103 70
-341 l0 -207 -77 -17 c-107 -24 -323 -95 -416 -138 -326 -151 -500 -379 -514
-677 -9 -199 39 -334 166 -461 122 -122 236 -164 420 -157 164 7 290 61 460
198 53 44 65 50 73 37 24 -43 79 -106 121 -137 74 -56 154 -81 282 -87 136 -7
209 10 249 58 23 27 26 40 26 105 0 81 -18 114 -62 114 -42 0 -104 38 -124 77
-18 36 -19 71 -24 748 -5 690 -6 712 -27 765 -34 91 -59 134 -113 193 -97 106
-246 181 -425 212 -110 19 -365 19 -455 -1z m440 -1416 c0 -338 -1 -344 -24
-393 -45 -98 -129 -141 -224 -115 -103 27 -152 115 -159 285 -11 251 80 415
287 519 51 25 98 46 106 46 12 0 14 -56 14 -342z"/>
<path d="M13215 3953 c-199 -42 -389 -154 -491 -289 -102 -136 -130 -320 -75
-496 46 -144 193 -294 458 -467 71 -45 190 -123 265 -172 222 -144 311 -242
325 -358 11 -94 -57 -187 -177 -245 -61 -29 -72 -31 -180 -31 -127 0 -170 14
-200 68 -13 24 -13 34 8 114 33 126 16 201 -58 254 -69 50 -245 62 -354 23
-62 -21 -127 -85 -151 -147 -25 -66 -17 -168 19 -241 30 -62 109 -139 189
-185 72 -41 215 -87 315 -102 124 -17 396 -7 494 19 238 64 429 196 508 352
43 84 61 168 61 278 0 176 -48 281 -190 423 -101 100 -218 184 -431 309 -368
216 -457 307 -448 461 5 93 38 141 132 189 60 30 77 35 144 35 86 0 133 -15
152 -50 10 -19 8 -33 -15 -90 -30 -76 -28 -123 9 -177 44 -66 191 -118 294
-104 93 14 144 37 198 91 43 43 54 61 65 108 11 50 10 65 -5 119 -42 152 -196
264 -429 312 -98 21 -335 20 -432 -1z"/>
<path d="M16211 3950 c-324 -85 -536 -352 -624 -785 -19 -97 -22 -140 -22
-365 0 -268 8 -339 57 -505 88 -305 292 -513 583 -597 70 -20 102 -23 260 -23
194 0 253 10 364 61 155 70 263 210 311 399 9 39 20 88 23 110 l7 41 -148 18
c-81 10 -151 19 -155 20 -5 1 -16 -24 -26 -54 -41 -127 -108 -222 -185 -259
-58 -29 -173 -29 -236 0 -147 66 -204 230 -217 627 l-6 192 469 0 c358 0 475
3 494 13 25 12 25 14 28 167 4 178 -10 301 -45 415 -87 275 -272 461 -527 525
-108 27 -300 27 -405 0z m276 -211 c45 -17 91 -69 115 -128 19 -50 22 -80 26
-288 l4 -233 -216 0 -216 0 0 128 c1 307 36 446 129 509 37 25 109 31 158 12z"/>
<path d="M18435 3937 c-152 -51 -276 -179 -375 -389 l-39 -83 0 228 -1 227
-269 0 c-169 0 -280 -4 -300 -11 l-31 -11 0 -82 0 -82 44 -43 c25 -24 54 -66
66 -92 20 -48 20 -58 18 -828 l-3 -779 -25 -27 c-14 -15 -41 -34 -60 -44 l-35
-16 -3 -93 -3 -92 430 0 c487 0 441 -10 441 94 l0 62 -59 51 c-108 96 -103 63
-99 650 l4 508 26 96 c31 114 79 223 138 309 l42 62 26 -26 c15 -13 54 -37 87
-53 77 -35 185 -38 255 -7 95 43 150 127 150 229 0 99 -50 179 -144 227 -51
27 -217 36 -281 15z"/>
</g>
</svg>
