<svg xmlns="http://www.w3.org/2000/svg" width="300" height="130" viewBox="0 0 300 130">
  <g id="eed4b2e8-d2c9-4cb9-b552-c7d92603faca" data-name="logos">
    <g>
      <path d="M55.3585,82.1633a11.9413,11.9413,0,0,1-4.3045,4.9119,13.7968,13.7968,0,0,1-7.379,1.7q-6.2973,0-9.82-3.6376T30.31,74.7511l0-21.7219h6.012l0,20.7068q0,4.7452,2.404,7.216t6.9492,2.4708q5.1415,0,7.9124-3.1079t2.7747-9.2607l0-18.025h6.0121l-.0005,34.7461H56.3622v-5.612Z"/>
      <path d="M147.5385,82.1633a11.94,11.94,0,0,1-4.3081,4.9119,13.7858,13.7858,0,0,1-7.379,1.7q-6.2973,0-9.82-3.6376T122.49,74.7659l0-21.7367h6.012l0,20.7068q0,4.7452,2.4039,7.216t6.9492,2.4707q5.1415,0,7.9124-3.1078t2.7747-9.2607l0-18.025h6.0121l-.0005,34.7461h-6.0121v-5.612Z"/>
      <path d="M105.5928,58.3809q1.7336-5.475,8.6162-5.4748H117.15v6.012H113.342q-4.4783,0-6.6676,2.1374t-2.2227,7.0121l0,19.7067H98.4431l.0005-34.7461h6.012v5.3527Z"/>
      <path d="M185.7158,53.5076a12.8282,12.8282,0,0,1,5.4452,4.2081,11.2033,11.2033,0,0,1,2.1367,6.3454h-6.3449q-.54-6.6676-9.3531-6.6677a10.2282,10.2282,0,0,0-5.9269,1.4817,4.31,4.31,0,0,0-2.0817,3.7191,3.0287,3.0287,0,0,0,1.437,2.8041,17.0939,17.0939,0,0,0,4.9083,1.6039l6.3453,1.3336a20.89,20.89,0,0,1,7.9159,3.0745q2.77,2,2.7741,6.3454a9.3138,9.3138,0,0,1-1.87,5.7119,12.2235,12.2235,0,0,1-5.2453,3.908,20.16,20.16,0,0,1-7.779,1.4q-7.953,0-12.2908-3.5709a14.5437,14.5437,0,0,1-5.208-9.4533h6.3454q1.2668,7.6827,11.1535,7.6828,4.345,0,6.6158-1.5707a4.5329,4.5329,0,0,0,2.2706-3.7746,3.0324,3.0324,0,0,0-.77-2.2226,4.96,4.96,0,0,0-2.1044-1.1705q-1.3409-.4-4.4747-1.0668l-6.3566-1.3373a15.392,15.392,0,0,1-7.1491-3.1375,8.0333,8.0333,0,0,1-2.5374-6.412,9.1158,9.1158,0,0,1,4.0082-7.816q4.0043-2.8746,10.3534-2.8746a19.6587,19.6587,0,0,1,7.779,1.4817"/>
      <path d="M82.0805,82.4272H92.082v5.3453h-4.66q-5.7453,0-8.5494-2.8041t-2.8078-8.5531l0-18.0361H68.049V53.0265h8.016l0-9.3421h6.012v9.3421h9.02v5.3527h-9.02l0,24.048Z"/>
      <path d="M210.8,82.4271h10.0027v5.3453h-4.66q-5.7464,0-8.55-2.8041t-2.8115-8.553l0-18.0362h-8.0124V53.0265h8.0124V43.6843h6.0129v9.3422h9.0192v5.3526H210.797l0,24.048Z"/>
      <path d="M262.5251,40.47l0,27.3338H237.4681l0-27.3338h25.0566l0-7.816H247.1518L229.668,46.212l0,8.7014c0,11.372,9.3073,20.9253,20.68,20.7438a20.3512,20.3512,0,0,0,19.9776-20.3253l0-14.8615Z" style="fill: #6932d4"/>
    </g>
  </g>
</svg>
