<?xml version="1.0" encoding="utf-8"?>
<!-- Generator: Adobe Illustrator 19.2.0, SVG Export Plug-In . SVG Version: 6.00 Build 0)  -->
<svg version="1.1" id="Ebene_1" xmlns:sketch="http://www.bohemiancoding.com/sketch/ns"
	 xmlns="http://www.w3.org/2000/svg" xmlns:xlink="http://www.w3.org/1999/xlink" x="0px" y="0px" viewBox="0 0 120 80"
	 style="enable-background:new 0 0 120 80;" xml:space="preserve">
<style type="text/css">
	.st0{display:none;}
	.st1{display:inline;}
	.st2{fill:#FFFFFF;}
	.st3{fill:#DC2A49;}
	.st4{fill:#097ABD;}
	.st5{fill:#121E6A;}
	.st6{fill:#121D6A;}
	.st7{fill:#FFFFFF;stroke:#3E3E3E;}
	.st8{fill:#3E3E3E;}
	.st9{fill:#D8D8D8;stroke:#3E3E3E;}
	.st10{fill:none;stroke:#0A7ABD;stroke-width:1.2;stroke-linecap:round;}
	.st11{fill:#10298E;}
	.st12{fill:#FFBE00;}
</style>
<title>card_elv v02</title>
<desc>Created with Sketch.</desc>
<g id="assets-various" sketch:type="MSPage" class="st0">
	<g id="Artboard-2" transform="translate(-210.000000, -965.000000)" sketch:type="MSArtboardGroup" class="st1">
		<g id="card_elv-v02" transform="translate(210.000000, 965.000000)" sketch:type="MSLayerGroup">
			<path id="Rectangle-11" sketch:type="MSShapeGroup" class="st2" d="M4,0h112c2.2,0,4,1.8,4,4v72c0,2.2-1.8,4-4,4H4
				c-2.2,0-4-1.8-4-4V4C0,1.8,1.8,0,4,0z"/>
			<g id="Group-Copy-5" transform="translate(24.000000, 9.000000)" sketch:type="MSShapeGroup">
				<g id="Imported-Layers" transform="translate(0.000000, 1.895197)">
					<path id="Fill-1" class="st3" d="M42.3,40.1h-22c-1.8,0-3-1.8-3-3.1c0-1.2,0-32.6,0-33.9c0-1.2,2.1-3.1,3.5-3.1
						c1.4,0,21.5,0,21.5,0v15.9H30.6V8.4c0,0-0.8,0-1.7,0c-0.5,0-1.3,0.5-1.3,1.3c0,1.6,0,20.6,0,21.1c0,0.5,0.3,1.1,1.3,1.1
						c1,0.1,1.8,0,1.8,0v-8.1h11.7V40.1"/>
					<path id="Fill-2" class="st4" d="M3.6,0.1c2.4,0,20,0,20,0v23.8l-13.3,0v7c0,0.1,0.3,1.2,1.5,1.2h1.7v-5.9h10.2l0,14H3.5
						c0,0-3-0.5-3.3-3.4c0-1.1,0-33,0-33.6C0.2,2.6,1.4,0.1,3.6,0.1L3.6,0.1z M13.5,8.3c0,0-0.9-0.1-1.7,0c-0.8,0-1.5,0.8-1.5,1.3
						v6.3h3.2V8.3L13.5,8.3z"/>
				</g>
				<g id="Imported-Layers_1_" transform="translate(17.116981, 1.895197)">
					<path id="Fill-1_1_" class="st5" d="M6.5,26.1H0.1V37c0,1.2,1.2,3,3,3.1h3.4L6.5,26.1"/>
					<path id="Fill-2_1_" class="st6" d="M6.5,23.8V0.1H3.7c-1.4,0-3.6,1.9-3.5,3.1v20.6H6.5"/>
				</g>
				<g id="Rectangle-33-_x2B_-Rectangle-34" transform="translate(45.916981, 24.096070)">
					<path id="Rectangle-33" class="st7" d="M2,0h22.1c1.1,0,2,0.9,2,2v14.1c0,1.1-0.9,2-2,2H2c-1.1,0-2-0.9-2-2V2C0,0.9,0.9,0,2,0z
						"/>
					<rect id="Rectangle-34" x="0.3" y="3.8" class="st8" width="25.5" height="3.4"/>
				</g>
				<rect id="Rectangle-35" x="0" y="60.9" class="st8" width="72" height="1.1"/>
				
					<g id="Group-Copy-2" transform="translate(54.413457, 29.864883) rotate(26.000000) translate(-54.413457, -29.864883) translate(50.913457, -1.635117)">
					<g id="Group-Copy" transform="translate(0.000000, 0.270742)">
						<path id="Rectangle-36-Copy" class="st9" d="M5.4,52.3c0,0.4-0.1,1.2-0.2,1.6c0,0-2.2,7.7-2.5,7.7s-2.2-7.7-2.2-7.7
							c-0.1-0.4-0.2-1.1-0.2-1.6l0-49.7C0.3,1.2,1.4,0,2.9,0l0,0c1.4,0,2.6,1.2,2.6,2.6L5.4,52.3L5.4,52.3z"/>
						<path id="Rectangle-36-Copy-3" class="st2" d="M4.5,52.1c0,0.4-0.1,1.2-0.2,1.6c0,0-1.2,4.1-1.5,4.1S2.8,1.6,2.9,1.6l0.7,0
							c0.5,0,0.9,0.4,0.9,0.9L4.5,52.1L4.5,52.1z"/>
						
							<rect id="Rectangle-39" x="2.6" y="43.4" transform="matrix(2.422951e-006 1 -1 2.422951e-006 49.1498 43.444)" class="st8" width="0.5" height="5.7"/>
						
							<rect id="Rectangle-39-Copy" x="2.6" y="41.3" transform="matrix(2.422951e-006 1 -1 2.422951e-006 46.9838 41.2781)" class="st8" width="0.5" height="5.7"/>
						
							<rect id="Rectangle-39-Copy-2" x="2.6" y="38.6" transform="matrix(2.422951e-006 1 -1 2.422951e-006 44.2764 38.5707)" class="st8" width="0.5" height="5.7"/>
						
							<rect id="Rectangle-39-Copy-3" x="2.6" y="14.5" transform="matrix(2.422951e-006 1 -1 2.422951e-006 20.2703 14.4942)" class="st8" width="0.5" height="5.7"/>
						<path id="Rectangle-36-Copy-2" class="st8" d="M4.1,58.7c0,0-1.1,3.2-1.4,3.2s-1.4-3.2-1.4-3.2H4.1L4.1,58.7z"/>
					</g>
				</g>
				<path id="Path-875" class="st10" d="M2.4,46.9c0,0-0.4,1.9-0.9,5.3S0.3,58.5,3,58.9c2.6,0.5,5.3-6.6,5.9-8.3
					c0.5-1.6,1.6-4.5,3.8-4c2.1,0.5,0.8,2.9,0.2,6.4c-0.6,3.5-1.2,5.3,1.7,6c2.9,0.7,4.5-3.3,5-5.2c0.5-1.9,1.4-4.6,3.5-4.4
					c1.8,0.2,1.6,2.7,1.3,5c-0.3,2.3-0.3,3.7,2.1,3.8c2.4,0.1,3.4-4.5,3.8-6.3c0.3-1.1,1-2.3,2.3-2.2c1.3,0.1,1.8,1.1,1.8,2.5
					c0,2.1-0.8,4.3,0.2,5.5c1,1.3,4,1.2,4,1.2"/>
			</g>
		</g>
	</g>
</g>
<path id="path5457" class="st11" d="M6.3,62v-3.8h2.8v0.6h-2v0.8H9v0.6H7.1v1h2.1V62H6.3z"/>
<path id="path5459" class="st11" d="M9.9,58.2h0.7v0.7H9.9V58.2z M9.9,59.3h0.7V62H9.9V59.3z"/>
<path id="path5471" class="st11" d="M13.9,62h-0.7v-1.4c0-0.3,0-0.5,0-0.6c0-0.1-0.1-0.2-0.2-0.2c-0.1,0-0.2-0.1-0.3-0.1
	c-0.1,0-0.2,0-0.3,0.1c-0.1,0.1-0.2,0.2-0.2,0.3c0,0.1-0.1,0.3-0.1,0.6V62h-0.7v-2.8h0.7v0.4c0.2-0.3,0.5-0.5,0.9-0.5
	c0.2,0,0.3,0,0.4,0.1c0.1,0.1,0.2,0.1,0.3,0.2c0.1,0.1,0.1,0.2,0.1,0.3c0,0.1,0,0.3,0,0.5V62z"/>
<path id="path5475" class="st11" d="M15.4,58.2v1.4c0.2-0.3,0.5-0.4,0.8-0.4c0.2,0,0.3,0,0.5,0.1c0.1,0.1,0.2,0.1,0.3,0.2
	c0.1,0.1,0.1,0.2,0.1,0.3c0,0.1,0,0.3,0,0.5V62h-0.7v-1.5c0-0.3,0-0.5,0-0.5c0-0.1-0.1-0.1-0.1-0.2c-0.1,0-0.2-0.1-0.3-0.1
	c-0.1,0-0.2,0-0.3,0.1c-0.1,0.1-0.2,0.1-0.2,0.3c0,0.1-0.1,0.3-0.1,0.5V62h-0.7v-3.8H15.4z"/>
<path id="path5479" class="st11" d="M19.5,61.1l0.7,0.1c-0.1,0.3-0.2,0.5-0.4,0.6c-0.2,0.1-0.5,0.2-0.8,0.2c-0.5,0-0.8-0.2-1.1-0.5
	c-0.2-0.2-0.3-0.6-0.3-0.9c0-0.5,0.1-0.8,0.4-1.1c0.2-0.3,0.5-0.4,0.9-0.4c0.4,0,0.7,0.1,1,0.4c0.2,0.3,0.3,0.7,0.3,1.2h-1.8
	c0,0.2,0.1,0.4,0.2,0.5c0.1,0.1,0.3,0.2,0.4,0.2c0.1,0,0.2,0,0.3-0.1C19.4,61.4,19.5,61.3,19.5,61.1 M19.6,60.4
	c0-0.2-0.1-0.4-0.2-0.5c-0.1-0.1-0.2-0.2-0.4-0.2c-0.2,0-0.3,0.1-0.4,0.2c-0.1,0.1-0.2,0.3-0.2,0.5H19.6z"/>
<path id="path5481" class="st11" d="M20.9,58.2h0.7v0.7h-0.7V58.2z M20.9,59.3h0.7V62h-0.7V59.3z"/>
<path id="path5485" class="st11" d="M23.7,59.3v0.6h-0.5V61c0,0.2,0,0.4,0,0.4l0.1,0.1l0.1,0c0.1,0,0.2,0,0.3-0.1l0.1,0.6
	c-0.2,0.1-0.4,0.1-0.6,0.1c-0.1,0-0.2,0-0.4-0.1c-0.1,0-0.2-0.1-0.2-0.2c0-0.1-0.1-0.2-0.1-0.3c0-0.1,0-0.3,0-0.5v-1.2h-0.3v-0.6
	h0.3v-0.5l0.7-0.4v1H23.7z"/>
<path id="path5487" class="st11" d="M24.2,58.2H25V62h-0.7V58.2z"/>
<path id="path5489" class="st11" d="M25.7,58.2h0.7v0.7h-0.7V58.2z M25.7,59.3h0.7V62h-0.7V59.3z"/>
<path id="path5493" class="st11" d="M29.7,60.1l-0.7,0.1c0-0.1-0.1-0.3-0.2-0.3c-0.1-0.1-0.2-0.1-0.3-0.1c-0.2,0-0.3,0.1-0.4,0.2
	c-0.1,0.1-0.2,0.3-0.2,0.6c0,0.3,0.1,0.6,0.2,0.7c0.1,0.1,0.3,0.2,0.4,0.2c0.1,0,0.3,0,0.3-0.1s0.2-0.2,0.2-0.4l0.7,0.1
	c-0.1,0.3-0.2,0.6-0.4,0.7c-0.2,0.2-0.5,0.3-0.8,0.3c-0.4,0-0.7-0.1-1-0.4c-0.2-0.3-0.4-0.6-0.4-1.1c0-0.5,0.1-0.8,0.4-1.1
	c0.2-0.3,0.6-0.4,1-0.4c0.3,0,0.6,0.1,0.8,0.2C29.4,59.6,29.6,59.8,29.7,60.1"/>
<path id="path5497" class="st11" d="M31,58.2v1.4c0.2-0.3,0.5-0.4,0.8-0.4c0.2,0,0.3,0,0.5,0.1c0.1,0.1,0.2,0.1,0.3,0.2
	c0.1,0.1,0.1,0.2,0.1,0.3c0,0.1,0,0.3,0,0.5V62H32v-1.5c0-0.3,0-0.5,0-0.5c0-0.1-0.1-0.1-0.1-0.2s-0.2-0.1-0.3-0.1
	c-0.1,0-0.2,0-0.3,0.1c-0.1,0.1-0.2,0.1-0.2,0.3c0,0.1-0.1,0.3-0.1,0.5V62h-0.7v-3.8H31z"/>
<path id="path5501" class="st11" d="M35.1,61.1l0.7,0.1c-0.1,0.3-0.2,0.5-0.4,0.6c-0.2,0.1-0.5,0.2-0.8,0.2c-0.5,0-0.8-0.2-1.1-0.5
	c-0.2-0.2-0.3-0.6-0.3-0.9c0-0.5,0.1-0.8,0.4-1.1c0.2-0.3,0.5-0.4,0.9-0.4c0.4,0,0.7,0.1,1,0.4c0.2,0.3,0.3,0.7,0.3,1.2h-1.8
	c0,0.2,0.1,0.4,0.2,0.5c0.1,0.1,0.3,0.2,0.4,0.2c0.1,0,0.2,0,0.3-0.1C35,61.4,35.1,61.3,35.1,61.1 M35.2,60.4c0-0.2-0.1-0.4-0.2-0.5
	c-0.1-0.1-0.2-0.2-0.4-0.2c-0.2,0-0.3,0.1-0.4,0.2c-0.1,0.1-0.2,0.3-0.2,0.5H35.2z"/>
<path id="path5505" class="st11" d="M37.2,62h-0.7v-2.8h0.7v0.4c0.1-0.2,0.2-0.3,0.3-0.4c0.1-0.1,0.2-0.1,0.3-0.1
	c0.2,0,0.3,0,0.5,0.1L38,60c-0.1-0.1-0.2-0.1-0.3-0.1c-0.1,0-0.2,0-0.3,0.1c-0.1,0.1-0.1,0.2-0.2,0.3c0,0.1-0.1,0.5-0.1,0.9V62z"/>
<path id="path5509" class="st11" d="M40.1,62v-3.8h2.8v0.6h-2v0.8h1.9v0.6h-1.9v1H43V62H40.1z"/>
<path id="path5513" class="st11" d="M45.5,62v-0.4c-0.1,0.1-0.2,0.3-0.4,0.3c-0.2,0.1-0.3,0.1-0.5,0.1c-0.2,0-0.4,0-0.5-0.1
	c-0.1-0.1-0.3-0.2-0.3-0.3c-0.1-0.1-0.1-0.3-0.1-0.6v-1.7h0.7v1.3c0,0.4,0,0.6,0,0.7c0,0.1,0.1,0.2,0.1,0.2c0.1,0.1,0.2,0.1,0.3,0.1
	c0.1,0,0.2,0,0.3-0.1c0.1-0.1,0.2-0.2,0.2-0.3c0-0.1,0.1-0.3,0.1-0.7v-1.2h0.7V62H45.5z"/>
<path id="path5517" class="st11" d="M47.7,62h-0.7v-2.8h0.7v0.4c0.1-0.2,0.2-0.3,0.3-0.4c0.1-0.1,0.2-0.1,0.3-0.1
	c0.2,0,0.3,0,0.5,0.1L48.5,60c-0.1-0.1-0.2-0.1-0.3-0.1c-0.1,0-0.2,0-0.3,0.1c-0.1,0.1-0.1,0.2-0.2,0.3c0,0.1-0.1,0.5-0.1,0.9V62z"
	/>
<path id="path5521" class="st11" d="M48.9,60.6c0-0.2,0.1-0.5,0.2-0.7c0.1-0.2,0.3-0.4,0.5-0.5c0.2-0.1,0.5-0.2,0.7-0.2
	c0.4,0,0.8,0.1,1,0.4c0.3,0.3,0.4,0.6,0.4,1c0,0.4-0.1,0.8-0.4,1c-0.3,0.3-0.6,0.4-1,0.4c-0.3,0-0.5-0.1-0.7-0.2
	c-0.2-0.1-0.4-0.3-0.5-0.5C49,61.2,48.9,60.9,48.9,60.6 M49.7,60.6c0,0.3,0.1,0.5,0.2,0.6c0.1,0.1,0.3,0.2,0.5,0.2
	c0.2,0,0.3-0.1,0.5-0.2c0.1-0.1,0.2-0.4,0.2-0.6c0-0.3-0.1-0.5-0.2-0.6c-0.1-0.1-0.3-0.2-0.5-0.2c-0.2,0-0.3,0.1-0.5,0.2
	C49.7,60.2,49.7,60.4,49.7,60.6"/>
<path id="path5523" class="st11" d="M52.3,60.3h1.4V61h-1.4V60.3z"/>
<path id="path5527" class="st11" d="M53.8,62v-0.7l2-2.5h-1.8v-0.6h2.8v0.6l-2.1,2.6h2.2V62H53.8z"/>
<path id="path5531" class="st11" d="M58,60.1L57.3,60c0.1-0.3,0.2-0.5,0.4-0.6c0.2-0.1,0.5-0.2,0.8-0.2c0.3,0,0.6,0,0.7,0.1
	c0.2,0.1,0.3,0.2,0.3,0.3c0.1,0.1,0.1,0.3,0.1,0.7l0,0.9c0,0.2,0,0.4,0,0.5c0,0.1,0.1,0.2,0.1,0.4h-0.7c0,0,0-0.1-0.1-0.2l0-0.1
	c-0.1,0.1-0.3,0.2-0.4,0.3c-0.1,0.1-0.3,0.1-0.5,0.1c-0.3,0-0.5-0.1-0.7-0.2c-0.2-0.2-0.2-0.3-0.2-0.6c0-0.2,0-0.3,0.1-0.4
	c0.1-0.1,0.2-0.2,0.3-0.3c0.1-0.1,0.3-0.1,0.6-0.2c0.3-0.1,0.6-0.1,0.7-0.2v-0.1c0-0.1,0-0.2-0.1-0.3c-0.1-0.1-0.2-0.1-0.4-0.1
	c-0.1,0-0.2,0-0.3,0.1C58.1,59.9,58,60,58,60.1 M59,60.7c-0.1,0-0.2,0.1-0.4,0.1c-0.2,0-0.3,0.1-0.4,0.1C58,61,58,61.1,58,61.2
	c0,0.1,0,0.2,0.1,0.3c0.1,0.1,0.2,0.1,0.3,0.1c0.1,0,0.3,0,0.4-0.1c0.1-0.1,0.1-0.1,0.2-0.2c0-0.1,0-0.2,0-0.4V60.7z"/>
<path id="path5535" class="st11" d="M61.1,58.2v1.4c0.2-0.3,0.5-0.4,0.8-0.4c0.2,0,0.3,0,0.5,0.1c0.1,0.1,0.2,0.1,0.3,0.2
	c0.1,0.1,0.1,0.2,0.1,0.3c0,0.1,0,0.3,0,0.5V62h-0.7v-1.5c0-0.3,0-0.5,0-0.5c0-0.1-0.1-0.1-0.1-0.2c-0.1,0-0.2-0.1-0.3-0.1
	c-0.1,0-0.2,0-0.3,0.1c-0.1,0.1-0.2,0.1-0.2,0.3c0,0.1-0.1,0.3-0.1,0.5V62h-0.7v-3.8H61.1z"/>
<path id="path5537" class="st11" d="M63.7,58.2h0.7V62h-0.7V58.2z"/>
<path id="path5541" class="st11" d="M67,62v-0.4c-0.1,0.1-0.2,0.3-0.4,0.3c-0.2,0.1-0.3,0.1-0.5,0.1c-0.2,0-0.4,0-0.5-0.1
	c-0.1-0.1-0.3-0.2-0.3-0.3c-0.1-0.1-0.1-0.3-0.1-0.6v-1.7h0.7v1.3c0,0.4,0,0.6,0,0.7c0,0.1,0.1,0.2,0.1,0.2c0.1,0.1,0.2,0.1,0.3,0.1
	c0.1,0,0.2,0,0.3-0.1c0.1-0.1,0.2-0.2,0.2-0.3c0-0.1,0.1-0.3,0.1-0.7v-1.2h0.7V62H67z"/>
<path id="path5545" class="st11" d="M71,62h-0.7v-1.4c0-0.3,0-0.5,0-0.6c0-0.1-0.1-0.2-0.2-0.2c-0.1,0-0.2-0.1-0.3-0.1
	c-0.1,0-0.2,0-0.3,0.1c-0.1,0.1-0.2,0.2-0.2,0.3c0,0.1-0.1,0.3-0.1,0.6V62h-0.7v-2.8h0.7v0.4c0.2-0.3,0.5-0.5,0.9-0.5
	c0.2,0,0.3,0,0.4,0.1c0.1,0.1,0.2,0.1,0.3,0.2c0.1,0.1,0.1,0.2,0.1,0.3c0,0.1,0,0.3,0,0.5V62z"/>
<path id="path5549" class="st11" d="M71.7,62.2l0.8,0.1c0,0.1,0,0.2,0.1,0.2c0.1,0.1,0.2,0.1,0.3,0.1c0.2,0,0.3,0,0.4-0.1
	c0.1,0,0.1-0.1,0.1-0.2c0-0.1,0-0.2,0-0.3v-0.4c-0.2,0.3-0.5,0.4-0.8,0.4c-0.4,0-0.7-0.2-0.9-0.5c-0.2-0.2-0.3-0.6-0.3-0.9
	c0-0.5,0.1-0.8,0.3-1.1c0.2-0.2,0.5-0.4,0.8-0.4c0.3,0,0.6,0.1,0.8,0.4v-0.4h0.7v2.5c0,0.3,0,0.6-0.1,0.7c-0.1,0.2-0.1,0.3-0.2,0.4
	c-0.1,0.1-0.2,0.2-0.4,0.2c-0.2,0.1-0.4,0.1-0.6,0.1c-0.5,0-0.8-0.1-1-0.2C71.8,62.7,71.7,62.5,71.7,62.2L71.7,62.2z M72.3,60.6
	c0,0.3,0.1,0.5,0.2,0.6c0.1,0.1,0.3,0.2,0.4,0.2c0.2,0,0.3-0.1,0.5-0.2c0.1-0.1,0.2-0.3,0.2-0.6c0-0.3-0.1-0.5-0.2-0.6
	c-0.1-0.1-0.3-0.2-0.4-0.2c-0.2,0-0.3,0.1-0.4,0.2C72.4,60.1,72.3,60.3,72.3,60.6"/>
<path id="path5553" class="st11" d="M74.8,61.2l0.7-0.1c0,0.1,0.1,0.2,0.2,0.3c0.1,0.1,0.2,0.1,0.4,0.1c0.2,0,0.3,0,0.4-0.1
	c0.1,0,0.1-0.1,0.1-0.2l-0.1-0.1c0,0-0.1-0.1-0.2-0.1c-0.6-0.1-1-0.2-1.1-0.4c-0.2-0.1-0.3-0.4-0.3-0.6c0-0.2,0.1-0.4,0.3-0.6
	c0.2-0.2,0.5-0.2,0.9-0.2c0.4,0,0.7,0.1,0.8,0.2c0.2,0.1,0.3,0.3,0.4,0.5l-0.7,0.1c0-0.1-0.1-0.2-0.2-0.2c-0.1-0.1-0.2-0.1-0.4-0.1
	c-0.2,0-0.3,0-0.4,0.1L75.6,60l0.1,0.1c0.1,0,0.3,0.1,0.7,0.2c0.4,0.1,0.7,0.2,0.8,0.3c0.2,0.1,0.2,0.3,0.2,0.5
	c0,0.3-0.1,0.5-0.3,0.7c-0.2,0.2-0.5,0.3-0.9,0.3c-0.4,0-0.7-0.1-0.9-0.2C75,61.7,74.9,61.5,74.8,61.2"/>
<path id="path5557" class="st11" d="M78.8,62l-1.1-2.8h0.8l0.5,1.4l0.2,0.5c0-0.1,0.1-0.2,0.1-0.2c0-0.1,0-0.2,0.1-0.2l0.5-1.4h0.7
	L79.4,62H78.8z"/>
<path id="path5561" class="st11" d="M82.6,61.1l0.7,0.1c-0.1,0.3-0.2,0.5-0.4,0.6c-0.2,0.1-0.5,0.2-0.8,0.2c-0.5,0-0.8-0.2-1.1-0.5
	c-0.2-0.2-0.3-0.6-0.3-0.9c0-0.5,0.1-0.8,0.4-1.1c0.2-0.3,0.5-0.4,0.9-0.4c0.4,0,0.7,0.1,1,0.4c0.2,0.3,0.3,0.7,0.3,1.2h-1.8
	c0,0.2,0.1,0.4,0.2,0.5s0.3,0.2,0.4,0.2c0.1,0,0.2,0,0.3-0.1C82.5,61.4,82.6,61.3,82.6,61.1 M82.6,60.4c0-0.2-0.1-0.4-0.2-0.5
	c-0.1-0.1-0.2-0.2-0.4-0.2c-0.2,0-0.3,0.1-0.4,0.2c-0.1,0.1-0.2,0.3-0.2,0.5H82.6z"/>
<path id="path5565" class="st11" d="M84.7,62H84v-2.8h0.7v0.4c0.1-0.2,0.2-0.3,0.3-0.4c0.1-0.1,0.2-0.1,0.3-0.1c0.2,0,0.3,0,0.5,0.1
	L85.5,60c-0.1-0.1-0.2-0.1-0.3-0.1c-0.1,0-0.2,0-0.3,0.1c-0.1,0.1-0.1,0.2-0.2,0.3c0,0.1-0.1,0.5-0.1,0.9V62z"/>
<path id="path5569" class="st11" d="M86.1,62v-3.8h0.7v2l0.9-1h0.9l-0.9,1l1,1.7h-0.8l-0.7-1.2l-0.3,0.4V62H86.1z"/>
<path id="path5573" class="st11" d="M90.7,61.1l0.7,0.1c-0.1,0.3-0.2,0.5-0.4,0.6c-0.2,0.1-0.5,0.2-0.8,0.2c-0.5,0-0.8-0.2-1.1-0.5
	c-0.2-0.2-0.3-0.6-0.3-0.9c0-0.5,0.1-0.8,0.4-1.1c0.2-0.3,0.5-0.4,0.9-0.4c0.4,0,0.7,0.1,1,0.4c0.2,0.3,0.3,0.7,0.3,1.2h-1.8
	c0,0.2,0.1,0.4,0.2,0.5c0.1,0.1,0.3,0.2,0.4,0.2c0.1,0,0.2,0,0.3-0.1C90.6,61.4,90.6,61.3,90.7,61.1 M90.7,60.4
	c0-0.2-0.1-0.4-0.2-0.5c-0.1-0.1-0.2-0.2-0.4-0.2c-0.2,0-0.3,0.1-0.4,0.2c-0.1,0.1-0.2,0.3-0.2,0.5H90.7z"/>
<path id="path5577" class="st11" d="M92.8,58.2v1.4c0.2-0.3,0.5-0.4,0.8-0.4c0.2,0,0.3,0,0.5,0.1c0.1,0.1,0.2,0.1,0.3,0.2
	c0.1,0.1,0.1,0.2,0.1,0.3c0,0.1,0,0.3,0,0.5V62h-0.7v-1.5c0-0.3,0-0.5,0-0.5c0-0.1-0.1-0.1-0.1-0.2s-0.2-0.1-0.3-0.1
	c-0.1,0-0.2,0-0.3,0.1c-0.1,0.1-0.2,0.1-0.2,0.3c0,0.1-0.1,0.3-0.1,0.5V62h-0.7v-3.8H92.8z"/>
<path id="path5581" class="st11" d="M96.1,62h-0.7v-2.8H96v0.4c0.1-0.2,0.2-0.3,0.3-0.4c0.1-0.1,0.2-0.1,0.3-0.1
	c0.2,0,0.3,0,0.5,0.1L96.9,60c-0.1-0.1-0.2-0.1-0.3-0.1c-0.1,0-0.2,0-0.3,0.1c-0.1,0.1-0.1,0.2-0.2,0.3c0,0.1-0.1,0.5-0.1,0.9V62z"
	/>
<path id="path5585" class="st11" d="M97.2,61.2l0.7-0.1c0,0.1,0.1,0.2,0.2,0.3c0.1,0.1,0.2,0.1,0.4,0.1c0.2,0,0.3,0,0.4-0.1
	c0.1,0,0.1-0.1,0.1-0.2L99,61.1c0,0-0.1-0.1-0.2-0.1c-0.6-0.1-1-0.2-1.1-0.4c-0.2-0.1-0.3-0.4-0.3-0.6c0-0.2,0.1-0.4,0.3-0.6
	c0.2-0.2,0.5-0.2,0.9-0.2c0.4,0,0.7,0.1,0.8,0.2c0.2,0.1,0.3,0.3,0.4,0.5L99,60.1c0-0.1-0.1-0.2-0.2-0.2c-0.1-0.1-0.2-0.1-0.4-0.1
	c-0.2,0-0.3,0-0.4,0.1L98,60l0.1,0.1c0.1,0,0.3,0.1,0.7,0.2c0.4,0.1,0.7,0.2,0.8,0.3c0.2,0.1,0.2,0.3,0.2,0.5c0,0.3-0.1,0.5-0.3,0.7
	c-0.2,0.2-0.5,0.3-0.9,0.3c-0.4,0-0.7-0.1-0.9-0.2S97.3,61.5,97.2,61.2"/>
<path id="path5589" class="st11" d="M101.1,62h-0.7v-2.8h0.7v0.4c0.1-0.2,0.2-0.3,0.3-0.4c0.1-0.1,0.2-0.1,0.3-0.1
	c0.2,0,0.3,0,0.5,0.1L102,60c-0.1-0.1-0.2-0.1-0.3-0.1c-0.1,0-0.2,0-0.3,0.1c-0.1,0.1-0.1,0.2-0.2,0.3c0,0.1-0.1,0.5-0.1,0.9V62z"/>
<path id="path5593" class="st11" d="M103.1,60.1l-0.7-0.1c0.1-0.3,0.2-0.5,0.4-0.6c0.2-0.1,0.5-0.2,0.8-0.2c0.3,0,0.6,0,0.7,0.1
	c0.2,0.1,0.3,0.2,0.3,0.3c0.1,0.1,0.1,0.3,0.1,0.7l0,0.9c0,0.2,0,0.4,0,0.5c0,0.1,0.1,0.2,0.1,0.4h-0.7c0,0,0-0.1-0.1-0.2l0-0.1
	c-0.1,0.1-0.3,0.2-0.4,0.3c-0.1,0.1-0.3,0.1-0.5,0.1c-0.3,0-0.5-0.1-0.7-0.2c-0.2-0.2-0.2-0.3-0.2-0.6c0-0.2,0-0.3,0.1-0.4
	c0.1-0.1,0.2-0.2,0.3-0.3c0.1-0.1,0.3-0.1,0.6-0.2c0.3-0.1,0.6-0.1,0.7-0.2v-0.1c0-0.1,0-0.2-0.1-0.3c-0.1-0.1-0.2-0.1-0.4-0.1
	c-0.1,0-0.2,0-0.3,0.1C103.2,59.9,103.1,60,103.1,60.1 M104.1,60.7c-0.1,0-0.2,0.1-0.4,0.1s-0.3,0.1-0.4,0.1
	c-0.1,0.1-0.1,0.2-0.1,0.3c0,0.1,0,0.2,0.1,0.3c0.1,0.1,0.2,0.1,0.3,0.1c0.1,0,0.3,0,0.4-0.1c0.1-0.1,0.1-0.1,0.2-0.2
	c0-0.1,0-0.2,0-0.4V60.7z"/>
<path id="path5597" class="st11" d="M107.3,62v-0.4c-0.1,0.1-0.2,0.3-0.4,0.3c-0.2,0.1-0.3,0.1-0.5,0.1c-0.2,0-0.4,0-0.5-0.1
	c-0.1-0.1-0.3-0.2-0.3-0.3c-0.1-0.1-0.1-0.3-0.1-0.6v-1.7h0.7v1.3c0,0.4,0,0.6,0,0.7c0,0.1,0.1,0.2,0.1,0.2c0.1,0.1,0.2,0.1,0.3,0.1
	c0.1,0,0.2,0,0.3-0.1c0.1-0.1,0.2-0.2,0.2-0.3c0-0.1,0.1-0.3,0.1-0.7v-1.2h0.7V62H107.3z"/>
<path id="path5601" class="st11" d="M108.8,59.3h0.7v0.4c0.2-0.3,0.5-0.4,0.9-0.4c0.2,0,0.3,0,0.5,0.1c0.1,0.1,0.2,0.2,0.3,0.3
	c0.1-0.1,0.3-0.3,0.4-0.3c0.1-0.1,0.3-0.1,0.4-0.1c0.2,0,0.4,0,0.5,0.1c0.1,0.1,0.2,0.2,0.3,0.4c0,0.1,0.1,0.3,0.1,0.6V62h-0.7v-1.6
	c0-0.3,0-0.4-0.1-0.5c-0.1-0.1-0.2-0.2-0.3-0.2c-0.1,0-0.2,0-0.3,0.1c-0.1,0.1-0.2,0.2-0.2,0.3c0,0.1-0.1,0.3-0.1,0.6V62h-0.7v-1.5
	c0-0.3,0-0.4,0-0.5c0-0.1-0.1-0.1-0.1-0.2c-0.1,0-0.1-0.1-0.2-0.1c-0.1,0-0.2,0-0.3,0.1c-0.1,0.1-0.2,0.1-0.2,0.3s-0.1,0.3-0.1,0.6
	V62h-0.7V59.3z"/>
<path id="path5605" class="st11" d="M6.2,53.5l1.1-0.1c0.1,0.4,0.2,0.6,0.4,0.8c0.2,0.2,0.5,0.3,0.8,0.3c0.4,0,0.6-0.1,0.8-0.2
	c0.2-0.2,0.3-0.3,0.3-0.5c0-0.1,0-0.2-0.1-0.3c-0.1-0.1-0.2-0.2-0.4-0.2c-0.1,0-0.4-0.1-0.9-0.2c-0.6-0.1-1-0.3-1.3-0.6
	c-0.3-0.3-0.5-0.7-0.5-1.1c0-0.3,0.1-0.5,0.2-0.8C6.8,50.2,7,50,7.3,49.9c0.3-0.1,0.7-0.2,1.1-0.2c0.7,0,1.2,0.2,1.6,0.5
	c0.4,0.3,0.5,0.7,0.6,1.2l-1.1,0c0-0.3-0.2-0.5-0.3-0.6c-0.2-0.1-0.4-0.2-0.7-0.2c-0.3,0-0.6,0.1-0.8,0.2c-0.1,0.1-0.2,0.2-0.2,0.3
	c0,0.1,0.1,0.2,0.2,0.3c0.1,0.1,0.5,0.2,1,0.4c0.5,0.1,1,0.3,1.2,0.4c0.3,0.1,0.5,0.3,0.6,0.6c0.1,0.2,0.2,0.5,0.2,0.9
	c0,0.3-0.1,0.6-0.3,0.9c-0.2,0.3-0.4,0.5-0.8,0.6c-0.3,0.1-0.7,0.2-1.2,0.2c-0.7,0-1.2-0.2-1.6-0.5C6.5,54.6,6.3,54.1,6.2,53.5"/>
<path id="path5607" class="st11" d="M11.9,49.8H13v1h-1.1V49.8z M11.9,51.3H13v4h-1.1V51.3z"/>
<path id="path5611" class="st11" d="M18,55.3h-1.1v-2.1c0-0.4,0-0.7-0.1-0.8c0-0.1-0.1-0.2-0.2-0.3c-0.1-0.1-0.2-0.1-0.4-0.1
	c-0.2,0-0.4,0.1-0.5,0.2s-0.2,0.2-0.3,0.4c-0.1,0.2-0.1,0.5-0.1,0.9v1.8h-1.1v-4h1v0.6c0.4-0.5,0.8-0.7,1.3-0.7c0.2,0,0.5,0,0.6,0.1
	c0.2,0.1,0.3,0.2,0.4,0.3c0.1,0.1,0.2,0.3,0.2,0.4c0,0.2,0.1,0.4,0.1,0.7V55.3z"/>
<path id="path5615" class="st11" d="M19.2,55.6l1.2,0.1c0,0.1,0.1,0.2,0.1,0.3c0.1,0.1,0.3,0.1,0.5,0.1c0.3,0,0.5,0,0.6-0.1
	c0.1-0.1,0.2-0.1,0.2-0.3c0-0.1,0-0.3,0-0.5v-0.6c-0.3,0.4-0.7,0.7-1.2,0.7c-0.5,0-1-0.2-1.3-0.7c-0.2-0.4-0.4-0.8-0.4-1.4
	c0-0.7,0.2-1.2,0.5-1.5c0.3-0.4,0.7-0.5,1.2-0.5c0.5,0,0.9,0.2,1.2,0.7v-0.6h1v3.6c0,0.5,0,0.8-0.1,1.1c-0.1,0.2-0.2,0.4-0.3,0.6
	c-0.1,0.1-0.3,0.2-0.6,0.3c-0.2,0.1-0.5,0.1-0.9,0.1c-0.7,0-1.2-0.1-1.5-0.4c-0.3-0.2-0.4-0.5-0.4-0.9L19.2,55.6z M20.1,53.2
	c0,0.4,0.1,0.7,0.2,0.9c0.2,0.2,0.4,0.3,0.6,0.3c0.3,0,0.5-0.1,0.7-0.3c0.2-0.2,0.3-0.5,0.3-0.9c0-0.4-0.1-0.7-0.3-0.9
	C21.5,52.1,21.3,52,21,52c-0.3,0-0.5,0.1-0.6,0.3C20.2,52.5,20.1,52.8,20.1,53.2"/>
<path id="path5617" class="st11" d="M24.3,49.8h1.1v5.6h-1.1V49.8z"/>
<path id="path5621" class="st11" d="M29,54l1.1,0.2c-0.1,0.4-0.4,0.7-0.6,0.9c-0.3,0.2-0.7,0.3-1.1,0.3c-0.7,0-1.2-0.2-1.6-0.7
	c-0.3-0.4-0.4-0.8-0.4-1.4c0-0.7,0.2-1.2,0.5-1.6c0.3-0.4,0.8-0.6,1.3-0.6c0.6,0,1.1,0.2,1.4,0.6c0.3,0.4,0.5,1,0.5,1.8h-2.7
	c0,0.3,0.1,0.6,0.3,0.7c0.2,0.2,0.4,0.3,0.6,0.3c0.2,0,0.3,0,0.4-0.1C28.9,54.4,28.9,54.2,29,54 M29.1,53c0-0.3-0.1-0.5-0.2-0.7
	c-0.2-0.2-0.3-0.2-0.6-0.2c-0.2,0-0.4,0.1-0.6,0.3c-0.2,0.2-0.2,0.4-0.2,0.7H29.1z"/>
<path id="path5625" class="st11" d="M33.6,55.3v-5.6h4.1v0.9h-3v1.2h2.8v0.9h-2.8v1.5h3.1v0.9H33.6z"/>
<path id="path5629" class="st11" d="M41.7,55.3v-0.6c-0.1,0.2-0.3,0.4-0.6,0.5s-0.5,0.2-0.8,0.2c-0.3,0-0.5-0.1-0.7-0.2
	c-0.2-0.1-0.4-0.3-0.5-0.5c-0.1-0.2-0.1-0.5-0.1-0.9v-2.6h1.1v1.9c0,0.6,0,0.9,0.1,1c0,0.1,0.1,0.2,0.2,0.3c0.1,0.1,0.2,0.1,0.4,0.1
	c0.2,0,0.3,0,0.5-0.1s0.2-0.2,0.3-0.4c0.1-0.1,0.1-0.5,0.1-1.1v-1.7h1.1v4H41.7z"/>
<path id="path5633" class="st11" d="M45.1,55.3H44v-4h1v0.6c0.2-0.3,0.3-0.4,0.5-0.5c0.1-0.1,0.3-0.1,0.5-0.1c0.2,0,0.5,0.1,0.7,0.2
	l-0.3,0.9c-0.2-0.1-0.3-0.2-0.5-0.2c-0.1,0-0.3,0-0.4,0.1c-0.1,0.1-0.2,0.2-0.2,0.4c-0.1,0.2-0.1,0.7-0.1,1.4V55.3z"/>
<path id="path5637" class="st11" d="M47,53.3c0-0.4,0.1-0.7,0.3-1c0.2-0.3,0.4-0.6,0.7-0.8c0.3-0.2,0.7-0.3,1.1-0.3
	c0.6,0,1.1,0.2,1.5,0.6c0.4,0.4,0.6,0.9,0.6,1.5c0,0.6-0.2,1.1-0.6,1.5c-0.4,0.4-0.9,0.6-1.5,0.6c-0.4,0-0.7-0.1-1.1-0.3
	c-0.3-0.2-0.6-0.4-0.8-0.7C47.1,54.1,47,53.7,47,53.3 M48.1,53.3c0,0.4,0.1,0.7,0.3,0.9c0.2,0.2,0.4,0.3,0.7,0.3
	c0.3,0,0.5-0.1,0.7-0.3c0.2-0.2,0.3-0.5,0.3-0.9c0-0.4-0.1-0.7-0.3-0.9c-0.2-0.2-0.4-0.3-0.7-0.3c-0.3,0-0.5,0.1-0.7,0.3
	C48.2,52.6,48.1,52.9,48.1,53.3"/>
<path id="path5641" class="st11" d="M54.7,55.3v-5.6h1.8c0.7,0,1.1,0,1.3,0.1c0.3,0.1,0.6,0.3,0.8,0.5c0.2,0.3,0.3,0.6,0.3,1.1
	c0,0.3-0.1,0.6-0.2,0.9c-0.1,0.2-0.3,0.4-0.5,0.5c-0.2,0.1-0.4,0.2-0.6,0.3c-0.3,0.1-0.7,0.1-1.2,0.1h-0.7v2.1H54.7z M55.8,50.7v1.6
	h0.6c0.4,0,0.7,0,0.9-0.1s0.3-0.1,0.4-0.3c0.1-0.1,0.1-0.3,0.1-0.4c0-0.2-0.1-0.4-0.2-0.5c-0.1-0.1-0.3-0.2-0.5-0.2
	c-0.1,0-0.4,0-0.8,0H55.8z"/>
<path id="path5645" class="st11" d="M60.9,52.5l-1-0.2c0.1-0.4,0.3-0.7,0.6-0.9s0.7-0.3,1.2-0.3c0.5,0,0.8,0.1,1.1,0.2
	c0.2,0.1,0.4,0.3,0.5,0.4c0.1,0.2,0.1,0.5,0.1,1l0,1.2c0,0.4,0,0.6,0.1,0.8c0,0.2,0.1,0.3,0.2,0.5h-1.1c0-0.1-0.1-0.2-0.1-0.3
	c0-0.1,0-0.1,0-0.1c-0.2,0.2-0.4,0.3-0.6,0.4c-0.2,0.1-0.4,0.1-0.7,0.1c-0.4,0-0.7-0.1-1-0.3c-0.2-0.2-0.4-0.5-0.4-0.9
	c0-0.2,0.1-0.4,0.2-0.6c0.1-0.2,0.3-0.3,0.5-0.4c0.2-0.1,0.5-0.2,0.8-0.2c0.5-0.1,0.8-0.2,1-0.3v-0.1c0-0.2,0-0.4-0.2-0.4
	c-0.1-0.1-0.3-0.1-0.6-0.1c-0.2,0-0.3,0-0.4,0.1C61,52.2,61,52.3,60.9,52.5 M62.3,53.4c-0.1,0-0.4,0.1-0.6,0.2
	c-0.3,0.1-0.5,0.1-0.6,0.2c-0.1,0.1-0.2,0.2-0.2,0.4c0,0.1,0.1,0.3,0.2,0.4c0.1,0.1,0.3,0.2,0.4,0.2c0.2,0,0.4-0.1,0.6-0.2
	c0.1-0.1,0.2-0.2,0.3-0.4c0-0.1,0-0.3,0-0.5V53.4z"/>
<path id="path5649" class="st11" d="M64.2,51.3h1.1l1,2.9l0.9-2.9h1.1l-1.4,3.9l-0.3,0.7c-0.1,0.2-0.2,0.4-0.3,0.5
	c-0.1,0.1-0.2,0.2-0.3,0.3c-0.1,0.1-0.2,0.1-0.4,0.2c-0.2,0-0.3,0.1-0.5,0.1c-0.2,0-0.4,0-0.6-0.1l-0.1-0.8c0.2,0,0.3,0,0.5,0
	c0.2,0,0.4-0.1,0.6-0.2c0.1-0.1,0.2-0.3,0.3-0.6L64.2,51.3z"/>
<path id="path5653" class="st11" d="M69.1,51.3h1v0.6c0.4-0.4,0.8-0.6,1.3-0.6c0.3,0,0.5,0.1,0.7,0.2c0.2,0.1,0.3,0.3,0.5,0.5
	c0.2-0.2,0.4-0.4,0.6-0.5c0.2-0.1,0.4-0.2,0.7-0.2c0.3,0,0.5,0.1,0.8,0.2c0.2,0.1,0.4,0.3,0.5,0.5c0.1,0.2,0.1,0.5,0.1,0.8v2.6H74
	V53c0-0.4,0-0.7-0.1-0.8c-0.1-0.2-0.3-0.2-0.5-0.2c-0.1,0-0.3,0-0.4,0.1c-0.1,0.1-0.2,0.2-0.3,0.4c-0.1,0.2-0.1,0.5-0.1,0.8v1.9
	h-1.1v-2.2c0-0.4,0-0.6-0.1-0.8c0-0.1-0.1-0.2-0.2-0.3C71.3,52,71.2,52,71,52c-0.2,0-0.3,0-0.4,0.1c-0.1,0.1-0.2,0.2-0.3,0.4
	c-0.1,0.2-0.1,0.4-0.1,0.8v2h-1.1V51.3z"/>
<path id="path5657" class="st11" d="M78.7,54l1.1,0.2c-0.1,0.4-0.4,0.7-0.6,0.9c-0.3,0.2-0.7,0.3-1.1,0.3c-0.7,0-1.2-0.2-1.6-0.7
	c-0.3-0.4-0.4-0.8-0.4-1.4c0-0.7,0.2-1.2,0.5-1.6c0.3-0.4,0.8-0.6,1.3-0.6c0.6,0,1.1,0.2,1.4,0.6c0.3,0.4,0.5,1,0.5,1.8h-2.7
	c0,0.3,0.1,0.6,0.3,0.7c0.2,0.2,0.4,0.3,0.6,0.3c0.2,0,0.3,0,0.4-0.1C78.6,54.4,78.6,54.2,78.7,54 M78.8,53c0-0.3-0.1-0.5-0.2-0.7
	C78.4,52.1,78.2,52,78,52c-0.2,0-0.4,0.1-0.6,0.3c-0.2,0.2-0.2,0.4-0.2,0.7H78.8z"/>
<path id="path5661" class="st11" d="M84.6,55.3h-1.1v-2.1c0-0.4,0-0.7-0.1-0.8c0-0.1-0.1-0.2-0.2-0.3C83.1,52.1,83,52,82.9,52
	c-0.2,0-0.4,0.1-0.5,0.2s-0.2,0.2-0.3,0.4C82,52.7,82,53,82,53.5v1.8h-1.1v-4h1v0.6c0.4-0.5,0.8-0.7,1.3-0.7c0.2,0,0.5,0,0.6,0.1
	c0.2,0.1,0.3,0.2,0.4,0.3c0.1,0.1,0.2,0.3,0.2,0.4c0,0.2,0.1,0.4,0.1,0.7V55.3z"/>
<path id="path5665" class="st11" d="M87.8,51.3v0.9H87v1.6c0,0.3,0,0.5,0,0.6l0.1,0.1c0,0,0.1,0.1,0.2,0.1c0.1,0,0.2,0,0.4-0.1
	l0.1,0.8c-0.2,0.1-0.5,0.2-0.8,0.2c-0.2,0-0.4,0-0.5-0.1c-0.2-0.1-0.3-0.1-0.3-0.3C86.1,55,86,54.8,86,54.7c0-0.1,0-0.4,0-0.8v-1.8
	h-0.5v-0.9H86v-0.8l1.1-0.6v1.4H87.8z"/>
<path id="path5669" class="st11" d="M88.4,54.2l1.1-0.2c0,0.2,0.1,0.4,0.3,0.5c0.1,0.1,0.3,0.2,0.6,0.2c0.3,0,0.5-0.1,0.6-0.2
	c0.1-0.1,0.1-0.2,0.1-0.3c0-0.1,0-0.1-0.1-0.2c-0.1-0.1-0.2-0.1-0.4-0.1c-0.9-0.2-1.4-0.4-1.6-0.5c-0.3-0.2-0.5-0.5-0.5-0.9
	c0-0.3,0.1-0.6,0.4-0.9c0.3-0.2,0.7-0.4,1.3-0.4c0.6,0,1,0.1,1.2,0.3c0.3,0.2,0.5,0.4,0.6,0.8l-1,0.2c0-0.2-0.1-0.3-0.2-0.4
	C90.6,52,90.4,52,90.2,52c-0.3,0-0.5,0-0.6,0.1c-0.1,0.1-0.1,0.1-0.1,0.2c0,0.1,0,0.1,0.1,0.2c0.1,0.1,0.4,0.2,1,0.3
	c0.6,0.1,1,0.3,1.2,0.5c0.2,0.2,0.3,0.5,0.3,0.8c0,0.4-0.2,0.7-0.5,1c-0.3,0.3-0.8,0.4-1.4,0.4c-0.5,0-1-0.1-1.3-0.3
	C88.7,54.9,88.5,54.6,88.4,54.2"/>
<path id="path5673" class="st11" d="M100.4,55.3h-1.2l-0.5-1.3h-2.2L96,55.3h-1.2l2.2-5.6h1.2L100.4,55.3z M98.4,53.1l-0.8-2.1
	l-0.8,2.1H98.4z"/>
<path id="path5677" class="st11" d="M102.3,55.3h-1.1v-4h1v0.6c0.2-0.3,0.3-0.4,0.5-0.5c0.1-0.1,0.3-0.1,0.5-0.1
	c0.2,0,0.5,0.1,0.7,0.2l-0.3,0.9c-0.2-0.1-0.3-0.2-0.5-0.2c-0.1,0-0.3,0-0.4,0.1c-0.1,0.1-0.2,0.2-0.2,0.4c-0.1,0.2-0.1,0.7-0.1,1.4
	V55.3z"/>
<path id="path5681" class="st11" d="M106.9,54l1.1,0.2c-0.1,0.4-0.4,0.7-0.6,0.9c-0.3,0.2-0.7,0.3-1.1,0.3c-0.7,0-1.2-0.2-1.6-0.7
	c-0.3-0.4-0.4-0.8-0.4-1.4c0-0.7,0.2-1.2,0.5-1.6c0.3-0.4,0.8-0.6,1.3-0.6c0.6,0,1.1,0.2,1.4,0.6s0.5,1,0.5,1.8h-2.7
	c0,0.3,0.1,0.6,0.3,0.7c0.2,0.2,0.4,0.3,0.6,0.3c0.2,0,0.3,0,0.4-0.1C106.7,54.4,106.8,54.2,106.9,54 M106.9,53
	c0-0.3-0.1-0.5-0.2-0.7c-0.2-0.2-0.3-0.2-0.6-0.2c-0.2,0-0.4,0.1-0.6,0.3c-0.2,0.2-0.2,0.4-0.2,0.7H106.9z"/>
<path id="path5685" class="st11" d="M109.9,52.5l-1-0.2c0.1-0.4,0.3-0.7,0.6-0.9c0.3-0.2,0.7-0.3,1.2-0.3c0.5,0,0.8,0.1,1.1,0.2
	c0.2,0.1,0.4,0.3,0.5,0.4c0.1,0.2,0.1,0.5,0.1,1l0,1.2c0,0.4,0,0.6,0.1,0.8c0,0.2,0.1,0.3,0.2,0.5h-1.1c0-0.1-0.1-0.2-0.1-0.3
	c0-0.1,0-0.1,0-0.1c-0.2,0.2-0.4,0.3-0.6,0.4c-0.2,0.1-0.4,0.1-0.7,0.1c-0.4,0-0.7-0.1-1-0.3c-0.2-0.2-0.4-0.5-0.4-0.9
	c0-0.2,0.1-0.4,0.2-0.6c0.1-0.2,0.3-0.3,0.5-0.4c0.2-0.1,0.5-0.2,0.8-0.2c0.5-0.1,0.8-0.2,1-0.3v-0.1c0-0.2,0-0.4-0.2-0.4
	c-0.1-0.1-0.3-0.1-0.6-0.1c-0.2,0-0.3,0-0.4,0.1C110,52.2,109.9,52.3,109.9,52.5 M111.3,53.4c-0.1,0-0.4,0.1-0.6,0.2
	c-0.3,0.1-0.5,0.1-0.6,0.2c-0.1,0.1-0.2,0.2-0.2,0.4c0,0.1,0.1,0.3,0.2,0.4c0.1,0.1,0.3,0.2,0.4,0.2c0.2,0,0.4-0.1,0.6-0.2
	c0.1-0.1,0.2-0.2,0.3-0.4c0-0.1,0-0.3,0-0.5V53.4z"/>
<path id="path5689" class="st11" d="M29.9,27.9h-7.3c0-1.2-0.1-2-0.4-2.4c-0.4-0.6-1.6-0.9-3.6-0.9c-1.9,0-3.2,0.2-3.8,0.5
	c-0.6,0.4-0.9,1.1-0.9,2.3c0,1.1,0.3,1.8,0.8,2.1c0.4,0.2,0.9,0.4,1.6,0.4l1.5,0.1c3.2,0.2,5.1,0.4,5.9,0.4c2.5,0.3,4.3,0.9,5.4,2
	c0.9,0.8,1.4,1.9,1.6,3.3c0.1,0.8,0.1,1.7,0.1,2.7c0,2.3-0.2,4.1-0.7,5.2c-0.8,2-2.6,3.3-5.5,3.8c-1.2,0.2-3,0.3-5.5,0.3
	c-4.1,0-6.9-0.2-8.5-0.7c-2-0.6-3.3-1.8-3.9-3.6c-0.4-1-0.5-2.7-0.5-5.1h7.3c0,0.3,0,0.5,0,0.6c0,1.3,0.4,2.1,1.1,2.4
	c0.5,0.2,1.1,0.4,1.8,0.4h2.7c1.4,0,2.2-0.1,2.6-0.2c0.7-0.3,1.1-0.7,1.3-1.3c0.1-0.4,0.2-0.8,0.2-1.4c0-1.3-0.5-2.1-1.4-2.3
	c-0.4-0.1-2-0.3-4.9-0.5c-2.3-0.2-4-0.3-4.9-0.5c-2.4-0.4-4-1.4-4.8-2.8c-0.7-1.2-1-3-1-5.4c0-1.8,0.2-3.3,0.6-4.4
	c0.4-1.1,1-1.9,1.8-2.5c1.2-0.9,2.8-1.4,4.7-1.5c1.6-0.1,3.4-0.2,5.3-0.2c3.1,0,5.2,0.2,6.5,0.5c3.2,0.9,4.8,3.2,4.8,7.2
	C29.9,26.7,29.9,27.2,29.9,27.9"/>
<path id="path5693" class="st11" d="M62,47.7V18.6h11.4h1.8h1.4c2,0,3.5,0.2,4.6,0.5c2.4,0.8,4,2.3,4.8,4.6c0.4,1.2,0.6,3.1,0.6,5.5
	c0,3-0.2,5.1-0.7,6.4c-0.9,2.6-2.9,4-5.8,4.4c-0.3,0.1-1.8,0.1-4.4,0.1l-1.3,0h-4.7v7.5H62z M69.8,33.4h4.9c1.6-0.1,2.5-0.2,2.8-0.4
	c0.5-0.3,0.8-0.8,0.9-1.5c0.1-0.5,0.1-1.3,0.1-2.3c0-1.2-0.1-2.1-0.3-2.7c-0.3-0.8-1-1.3-2-1.5c-0.2,0-0.7,0-1.5,0h-5V33.4z"/>
<path id="path5697" class="st11" d="M103.4,42.7H92.9l-1.4,5h-8.1l8.8-29.1H104l8.9,29.1h-7.9L103.4,42.7z M101.8,37l-3.7-12.6
	L94.6,37H101.8z"/>
<path id="path5701" class="st12" d="M51.1,22.7c3.2,0,6.1,1.5,8,3.8l1.7-3.6c-2.6-2.5-6.2-4-10.2-4c-6.2,0-11.5,3.7-13.6,9h-3.3
	L31.8,32H36c0,0.4-0.1,0.8-0.1,1.2c0,0.5,0,1,0.1,1.4h-2.1l-1.9,4.2h5.2c2.2,5.2,7.5,8.8,13.5,8.8c3.1,0,5.9-0.9,8.3-2.5v-5.1
	c-1.9,2.2-4.7,3.5-7.8,3.5c-3.6,0-6.8-1.9-8.6-4.7h10.8l1.9-4.2H40.9c-0.1-0.5-0.1-1-0.1-1.5c0-0.4,0-0.7,0.1-1h15.6l1.9-4.2H42.2
	C44,24.8,47.3,22.7,51.1,22.7"/>
<path id="path5705" class="st11" d="M51.1,22.8c3.1,0,6,1.4,7.9,3.8l0.1,0.2l0.1-0.2l1.7-3.6l0-0.1l-0.1-0.1
	c-2.8-2.6-6.4-4.1-10.3-4.1c-3,0-5.9,0.9-8.4,2.5c-2.4,1.6-4.3,3.9-5.4,6.5l0.1-0.1h-3.3h-0.1l0,0.1L31.6,32l-0.1,0.2h0.2H36
	L35.9,32c0,0.4-0.1,0.8-0.1,1.2c0,0.5,0,1,0.1,1.4l0.1-0.1h-2.1h-0.1l0,0.1l-1.9,4.2l-0.1,0.2h0.2h5.2L37,38.8
	c2.3,5.4,7.7,8.8,13.7,8.8c3,0,5.9-0.9,8.3-2.5l0.1,0v-0.1v-5.1v-0.3l-0.2,0.2c-1.9,2.2-4.7,3.5-7.7,3.5c-3.4,0-6.6-1.7-8.5-4.6
	l-0.1,0.2h10.8h0.1l0-0.1l1.9-4.2l0.1-0.2h-0.2H40.9l0.1,0.1c-0.1-0.5-0.1-1-0.1-1.5c0-0.3,0-0.7,0.1-1l-0.1,0.1h15.6h0.1l0-0.1
	l1.9-4.2l0.1-0.2h-0.2H42.2l0.1,0.2C44.1,24.8,47.5,22.8,51.1,22.8 M42.2,28h16.2l-0.1-0.2L56.3,32l0.1-0.1H40.8h-0.1l0,0.1
	c0,0.4-0.1,0.7-0.1,1.1c0,0.5,0,1,0.1,1.6l0,0.1h0.1h14.3l-0.1-0.2l-1.9,4.2l0.1-0.1H42.5h-0.2l0.1,0.2c1.9,3,5.2,4.7,8.8,4.7
	c3,0,5.9-1.3,7.9-3.6l-0.2-0.1v5.1l0.1-0.1c-2.4,1.6-5.3,2.5-8.2,2.5c-5.9,0-11.1-3.4-13.4-8.7l0-0.1h-0.1h-5.2l0.1,0.2l1.9-4.2
	l-0.1,0.1H36h0.1l0-0.1c0-0.5-0.1-0.9-0.1-1.4c0-0.4,0-0.7,0.1-1.2l0-0.1H36h-4.2l0.1,0.2l1.9-4.2L33.7,28H37h0.1l0-0.1
	c1.1-2.6,2.9-4.8,5.3-6.4c2.4-1.6,5.3-2.5,8.3-2.5c3.8,0,7.4,1.4,10.1,4l0-0.1L59,26.4l0.2,0c-2-2.5-5-3.9-8.1-3.9
	c-3.7,0-7.2,2-9.1,5.2L42,28H42.2z"/>
</svg>
