<?xml version="1.0" encoding="UTF-8"?>
<!DOCTYPE svg PUBLIC "-//W3C//DTD SVG 1.1//EN" "http://www.w3.org/Graphics/SVG/1.1/DTD/svg11.dtd">
<!-- Creator: CorelDRAW -->
<svg xmlns="http://www.w3.org/2000/svg" xml:space="preserve" width="31.75mm" height="21.167mm" style="shape-rendering:geometricPrecision; text-rendering:geometricPrecision; image-rendering:optimizeQuality; fill-rule:evenodd; clip-rule:evenodd"
viewBox="0 0 31.75 21.167"
 xmlns:xlink="http://www.w3.org/1999/xlink">
 <defs>
  <style type="text/css">
   <![CDATA[
    .str0 {stroke:#C5C6C6;stroke-width:0.0762}
    .fil0 {fill:none}
    .fil1 {fill:white}
    .fil2 {fill:#00A0E3;fill-rule:nonzero}
    .fil6 {fill:#F39313;fill-rule:nonzero}
    .fil4 {fill:url(#id0);fill-rule:nonzero}
    .fil3 {fill:url(#id1);fill-rule:nonzero}
    .fil5 {fill:url(#id2);fill-rule:nonzero}
   ]]>
  </style>
  <linearGradient id="id0" gradientUnits="userSpaceOnUse" x1="15.6291" y1="7.4544" x2="24.9953" y2="7.4544">
   <stop offset="0" style="stop-color:#3FAB3C"/>
   <stop offset="0.831373" style="stop-color:#3FAB3C"/>
   <stop offset="1" style="stop-color:#F39313"/>
  </linearGradient>
  <linearGradient id="id1" gradientUnits="userSpaceOnUse" x1="14.8593" y1="4.889" x2="24.9953" y2="4.889">
   <stop offset="0" style="stop-color:#96C22B"/>
   <stop offset="0.831373" style="stop-color:#96C22B"/>
   <stop offset="1" style="stop-color:#F39313"/>
  </linearGradient>
  <linearGradient id="id2" gradientUnits="userSpaceOnUse" x1="20.0618" y1="8.1729" x2="24.9455" y2="8.1729">
   <stop offset="0" style="stop-color:#0EA186"/>
   <stop offset="0.831373" style="stop-color:#0EA186"/>
   <stop offset="1" style="stop-color:#F39313"/>
  </linearGradient>
 </defs>
 <g id="Layer_x0020_1">
  <metadata id="CorelCorpID_0Corel-Layer"/>
  <g>
   <path class="fil0 str0" d="M1.0583 0.0002l29.6334 0c0.5843,0 1.0582,0.4739 1.0582,1.0583l0.0001 19.05c-0.0001,0.5842 -0.474,1.0581 -1.0584,1.0581l-29.6333 0.0002c-0.5843,-0.0002 -1.0582,-0.4741 -1.0582,-1.0585l-0.0001 -19.0498c0.0001,-0.5844 0.474,-1.0583 1.0584,-1.0583z"/>
   <path id="1" class="fil1" d="M1.0583 0.0002l29.6334 0c0.5843,0 1.0582,0.4739 1.0582,1.0583l0.0001 19.05c-0.0001,0.5842 -0.474,1.0581 -1.0584,1.0581l-29.6333 0.0002c-0.5843,-0.0002 -1.0582,-0.4741 -1.0582,-1.0585l-0.0001 -19.0498c0.0001,-0.5844 0.474,-1.0583 1.0584,-1.0583z"/>
  </g>
  <g>
   <path class="fil2" d="M9.3495 13.3915l-0.0527 0 -0.0065 0 -0.8137 0 -0.5225 0 -0.298 0 0 -0.0003c-0.649,-0.0031 -1.1943,-0.4755 -1.3295,-1.1015l1.3295 0 1.3424 0 0.9 0c0,-0.0046 0.0003,-0.0092 0.0003,-0.0137l0 -0.8428c0,-1.1493 -0.9403,-2.0896 -2.0896,-2.0896l-0.2933 0c-1.1493,0 -2.0896,0.9403 -2.0896,2.0896l0 0.8428c0,1.1492 0.9403,2.0895 2.0896,2.0895l0.2933 0c0.0497,0 0.0977,0.0035 0.1449,0l0.5225 0 0.8137 0 0.0592 0c0.2873,0 0.5224,-0.2191 0.5224,-0.487 0,-0.2679 -0.2351,-0.487 -0.5224,-0.487zm-1.6869 -3.074l0 0c0.6196,0 1.1457,0.4282 1.3128,1.0099l-2.6256 0c0.1671,-0.5817 0.6931,-1.0099 1.3128,-1.0099z"/>
   <path class="fil2" d="M19.9808 13.3915l-0.0528 0 -0.0064 0 -0.8138 0 -0.5223 0 -0.2981 0 0 -0.0003c-0.6491,-0.0031 -1.1944,-0.4755 -1.3295,-1.1015l1.3295 0 1.3424 0 0.8999 0c0.0001,-0.0046 0.0003,-0.0092 0.0003,-0.0137l0 -0.8428c0,-1.1493 -0.9402,-2.0896 -2.0895,-2.0896l-0.2933 0c-1.1493,0 -2.0896,0.9403 -2.0896,2.0896l0 0.8428c0,1.1492 0.9403,2.0895 2.0896,2.0895l0.2933 0c0.0496,0 0.0976,0.0035 0.145,0l0.5223 0 0.8138 0 0.0592 0c0.2873,0 0.5224,-0.2191 0.5224,-0.487 0,-0.2679 -0.2351,-0.487 -0.5224,-0.487zm-1.6869 -3.074l0 0c0.6196,0 1.1457,0.4282 1.3127,1.0099l-2.6256 0c0.1671,-0.5817 0.6932,-1.0099 1.3129,-1.0099z"/>
   <path class="fil2" d="M14.7747 4.1604l-0.1072 0c-0.2112,0 -0.3841,0.1729 -0.3841,0.3841l0 4.7991 -1.2142 0 -0.1104 0 -0.1104 0c-1.1492,0 -2.0896,0.9403 -2.0896,2.0896l0 0.7045c0,1.1492 0.9404,2.0896 2.0896,2.0896l0.2208 0c1.1493,0 2.0896,-0.9404 2.0896,-2.0896l0 -0.2583 0 -0.094 0 -0.3522 0 -2.0896 0 -4.7991c0,-0.2112 -0.1729,-0.3841 -0.3841,-0.3841zm-0.4913 7.9773l0 0c0,0.6695 -0.5447,1.2142 -1.2142,1.2142l-0.2208 0c-0.6695,0 -1.2142,-0.5447 -1.2142,-1.2142l0 -0.7045c0,-0.6696 0.5447,-1.2142 1.2142,-1.2142l1.435 0 0 1.9187z"/>
   <path class="fil2" d="M25.8016 17.1736l0 -2.9562 0 -2.0897 0 -0.3522 0 -0.0939 0 -0.2584c0,-1.1492 -0.9403,-2.0896 -2.0896,-2.0896l-0.2207 0c-1.1493,0 -2.0897,0.9404 -2.0897,2.0896l0 0.7045c0,1.1493 0.9404,2.0897 2.0897,2.0897l0.1103 0 0.1104 0 1.2142 0 0 2.9562c0,0.2111 0.1729,0.3841 0.3841,0.3841l0.1072 0c0.2112,0 0.3841,-0.173 0.3841,-0.3841zm-0.8754 -3.8316l0 0 -1.4349 0c-0.6696,0 -1.2143,-0.5448 -1.2143,-1.2143l0 -0.7045c0,-0.6695 0.5447,-1.2142 1.2143,-1.2142l0.2207 0c0.6695,0 1.2142,0.5447 1.2142,1.2142l0 1.9188z"/>
   <path class="fil3" d="M24.9953 6.0417c-3.0812,0.0307 -9.0732,-3.0964 -9.6753,-2.3037 -0.4607,0.6067 0.7762,1.561 1.8919,2.1683 1.7018,0.9263 6.63,0.0333 7.7834,0.3043 0,-0.0633 0,-0.1689 0,-0.1689z"/>
   <path class="fil4" d="M24.9953 6.3386c-1.9522,0 -4.3999,2.3595 -6.6688,2.3139 -1.3937,-0.028 -2.6974,-0.6391 -0.5545,-1.2329 2.1428,-0.5938 6.2788,-1.1644 7.2233,-1.209 0,0.0533 0,0.128 0,0.128z"/>
   <path class="fil5" d="M20.8264 8.5887c0.8523,-0.691 2.7048,-2.0607 4.1689,-2.2501 0,0.0431 0,0.1311 0,0.1311 0,0 -0.4305,0.1716 -1.0903,0.6931 -0.4546,0.3593 -0.9446,1.9965 -2.3804,2.4726 -1.1214,0.3718 -1.5126,-0.3864 -0.6982,-1.0467z"/>
   <path class="fil6" d="M24.9953 6.0417c0,0 0,0.1823 0,0.428 0.8217,0.2227 -1.8122,1.4072 -0.453,2.1834 0.8254,0.4714 1.7814,-0.1619 1.7814,-1.3134 0,-0.4495 -0.4454,-1.3364 -1.3284,-1.298z"/>
  </g>
 </g>
</svg>
