<?xml version="1.0" encoding="UTF-8"?>
<!DOCTYPE svg PUBLIC "-//W3C//DTD SVG 1.1//EN" "http://www.w3.org/Graphics/SVG/1.1/DTD/svg11.dtd">
<!-- Creator: CorelDRAW -->
<svg xmlns="http://www.w3.org/2000/svg" xml:space="preserve" width="31.75mm" height="21.167mm" style="shape-rendering:geometricPrecision; text-rendering:geometricPrecision; image-rendering:optimizeQuality; fill-rule:evenodd; clip-rule:evenodd"
viewBox="0 0 31.75 21.167"
 xmlns:xlink="http://www.w3.org/1999/xlink">
 <defs>
  <style type="text/css">
   <![CDATA[
    .str0 {stroke:#C5C6C6;stroke-width:0.0762}
    .fil0 {fill:none}
    .fil2 {fill:#EEA725}
    .fil1 {fill:white}
    .fil4 {fill:#E31E24}
    .fil3 {fill:#FEFEFE}
   ]]>
  </style>
 </defs>
 <g id="Layer_x0020_1">
  <metadata id="CorelCorpID_0Corel-Layer"/>
  <g>
   <path class="fil0 str0" d="M1.0583 0.0002l29.6334 0c0.5843,0 1.0582,0.4739 1.0582,1.0583l0.0001 19.05c-0.0001,0.5842 -0.474,1.0581 -1.0584,1.0581l-29.6333 0.0002c-0.5843,-0.0002 -1.0582,-0.4741 -1.0582,-1.0585l-0.0001 -19.0498c0.0001,-0.5844 0.474,-1.0583 1.0584,-1.0583z"/>
   <path id="1" class="fil1" d="M1.0583 0.0002l29.6334 0c0.5843,0 1.0582,0.4739 1.0582,1.0583l0.0001 19.05c-0.0001,0.5842 -0.474,1.0581 -1.0584,1.0581l-29.6333 0.0002c-0.5843,-0.0002 -1.0582,-0.4741 -1.0582,-1.0585l-0.0001 -19.0498c0.0001,-0.5844 0.474,-1.0583 1.0584,-1.0583z"/>
  </g>
  <g>
   <path class="fil2" d="M3.9894 5.8457c0,-0.4072 0.3331,-0.7402 0.7402,-0.7402l22.2908 0c0.4071,0 0.7402,0.333 0.7402,0.7402l0 9.4756c0,0.4072 -0.3331,0.7402 -0.7402,0.7402l-22.2908 0c-0.4071,0 -0.7402,-0.333 -0.7402,-0.7402l0 -9.4756z"/>
   <polygon class="fil3" points="3.9894,6.1812 27.7606,6.1812 27.7606,14.9857 3.9894,14.9857 "/>
   <path class="fil4" d="M24.1348 8.4678c-1.0875,0 -1.9741,0.8867 -1.9741,1.9743 0,1.0872 0.8866,1.974 1.9741,1.974 1.0874,0 1.974,-0.8868 1.974,-1.974 0,-1.0876 -0.8866,-1.9743 -1.974,-1.9743z"/>
   <path class="fil4" d="M7.8632 8.4678c-1.0877,0 -1.9744,0.8867 -1.9744,1.9743 0,1.0872 0.8867,1.974 1.9744,1.974 1.0872,0 1.9739,-0.8868 1.9739,-1.974 0,-1.0876 -0.8867,-1.9743 -1.9739,-1.9743z"/>
   <path class="fil4" d="M23.9799 6.7304c-1.8275,-0.042 -2.6867,1.1298 -3.9336,2.5752l-1.1763 1.3632 1.8627 2.2299c0.4437,0.6852 -0.4032,1.3652 -0.9287,0.7382l-1.7222 -2.0543 -1.6781 1.9454c-0.5344,0.6192 -1.3718,-0.0726 -0.9185,-0.7513l1.8217 -2.1185 -1.1935 -1.4238 0.7678 -0.9508 1.2138 1.4581 1.0463 -1.2171c0.5134,-0.5968 1.037,-1.3876 1.7156,-1.7942l-16.8675 0 0 7.7063 3.9437 0c1.8277,0 2.6574,-1.0928 3.8706,-2.5664l1.1447 -1.3904 -1.914 -2.1861c-0.459,-0.6748 0.3718,-1.3739 0.9117,-0.7593l1.7689 2.0141 1.6333 -1.9837c0.5198,-0.6317 1.3728,0.041 0.9354,0.73l-1.7726 2.1602 1.2262 1.3959 -0.7726 0.9148 -1.2204 -1.3764 -1.0178 1.2406c-0.4996,0.6084 -1.0053,1.3845 -1.6745,1.8067l16.7086 0 0 -7.7063 -3.7807 0zm-12.998 3.7117c0,1.718 -1.4009,3.1189 -3.1187,3.1189 -1.7183,0 -3.1191,-1.4009 -3.1191,-3.1189 0,-1.7182 1.4008,-3.1191 3.1191,-3.1191 1.7178,0 3.1187,1.4009 3.1187,3.1191zm13.1529 3.1189c-1.7179,0 -3.119,-1.4009 -3.119,-3.1189 0,-1.7182 1.4011,-3.1191 3.119,-3.1191 1.7181,0 3.1189,1.4009 3.1189,3.1191 0,1.718 -1.4008,3.1189 -3.1189,3.1189z"/>
  </g>
 </g>
</svg>
