<?xml version="1.0" encoding="UTF-8"?>
<!DOCTYPE svg PUBLIC "-//W3C//DTD SVG 1.1//EN" "http://www.w3.org/Graphics/SVG/1.1/DTD/svg11.dtd">
<!-- Creator: CorelDRAW X5 -->
<svg xmlns="http://www.w3.org/2000/svg" xml:space="preserve" width="31.75mm" height="21.167mm" style="shape-rendering:geometricPrecision; text-rendering:geometricPrecision; image-rendering:optimizeQuality; fill-rule:evenodd; clip-rule:evenodd"
viewBox="0 0 3175 2117"
 xmlns:xlink="http://www.w3.org/1999/xlink">
 <defs>
  <style type="text/css">
   <![CDATA[
    .fil1 {fill:white}
    .fil0 {fill:url(#id0)}
   ]]>
  </style>
  <linearGradient id="id0" gradientUnits="userSpaceOnUse" x1="1587.5" y1="2116.68" x2="1587.5" y2="0.02">
   <stop offset="0" style="stop-color:#007028"/>
   <stop offset="0.2" style="stop-color:#00702A"/>
   <stop offset="0.34902" style="stop-color:#00A8C9"/>
   <stop offset="0.501961" style="stop-color:#00B0E0"/>
   <stop offset="0.65098" style="stop-color:#00A4D3"/>
   <stop offset="0.8" style="stop-color:#003C65"/>
   <stop offset="1" style="stop-color:#003860"/>
  </linearGradient>
 </defs>
 <g id="Layer_x0020_1">
  <metadata id="CorelCorpID_0Corel-Layer"/>
  <path class="fil0" d="M106 0l2963 0c58,0 106,47 106,106l0 1905c0,58 -47,106 -106,106l-2963 0c-58,0 -106,-47 -106,-106l0 -1905c0,-58 47,-106 106,-106z"/>
  <path class="fil1" d="M1675 591l843 0c117,0 213,96 213,213l0 0c0,117 -96,213 -213,213l-843 0 0 -426zm0 472l826 0c126,0 230,103 230,230l0 0c0,126 -103,230 -230,230l-826 0 0 -459zm-832 -488l383 0c220,0 400,180 400,400l0 42 -573 0 0 46 573 0 0 78c0,220 -180,400 -400,400l-383 0c-220,0 -400,-180 -400,-400l0 -166c0,-220 180,-400 400,-400z"/>
 </g>
</svg>
