<?xml version="1.0" encoding="UTF-8"?>
<!DOCTYPE svg PUBLIC "-//W3C//DTD SVG 1.1//EN" "http://www.w3.org/Graphics/SVG/1.1/DTD/svg11.dtd">
<!-- Creator: CorelDRAW -->
<svg xmlns="http://www.w3.org/2000/svg" xml:space="preserve" width="31.75mm" height="21.167mm" style="shape-rendering:geometricPrecision; text-rendering:geometricPrecision; image-rendering:optimizeQuality; fill-rule:evenodd; clip-rule:evenodd"
viewBox="0 0 31.75 21.167"
 xmlns:xlink="http://www.w3.org/1999/xlink">
 <defs>
  <style type="text/css">
   <![CDATA[
    .str0 {stroke:#C5C6C6;stroke-width:0.0762}
    .fil0 {fill:none}
    .fil6 {fill:#5F6D8C}
    .fil3 {fill:#DD325D}
    .fil4 {fill:#FEFEFE}
    .fil2 {fill:#FFED00}
    .fil1 {fill:white}
    .fil7 {fill:#5F6D8C;fill-rule:nonzero}
    .fil5 {fill:#FEFEFE;fill-rule:nonzero}
   ]]>
  </style>
 </defs>
 <g id="Layer_x0020_1">
  <metadata id="CorelCorpID_0Corel-Layer"/>
  <g>
   <path class="fil0 str0" d="M1.0583 0.0002l29.6334 0c0.5843,0 1.0582,0.4739 1.0582,1.0583l0.0001 19.05c-0.0001,0.5842 -0.474,1.0581 -1.0584,1.0581l-29.6333 0.0002c-0.5843,-0.0002 -1.0582,-0.4741 -1.0582,-1.0585l-0.0001 -19.0498c0.0001,-0.5844 0.474,-1.0583 1.0584,-1.0583z"/>
   <path id="1" class="fil1" d="M1.0583 0.0002l29.6334 0c0.5843,0 1.0582,0.4739 1.0582,1.0583l0.0001 19.05c-0.0001,0.5842 -0.474,1.0581 -1.0584,1.0581l-29.6333 0.0002c-0.5843,-0.0002 -1.0582,-0.4741 -1.0582,-1.0585l-0.0001 -19.0498c0.0001,-0.5844 0.474,-1.0583 1.0584,-1.0583z"/>
  </g>
  <g>
   <circle class="fil2" cx="15.875" cy="10.5835" r="7.7055"/>
   <g id="_391870336">
    <path id="_613843088" class="fil3" d="M11.3883 7.1369l7.2789 -1.9041 1.2774 4.724 2.7958 -0.723 -2.6822 3.5172 -0.0278 0.0073c0,0 -0.2441,0.0665 -0.3218,0.0222 -0.0777,-0.0444 0.0888,-0.3551 0.1776,-0.566 0.0887,-0.2108 0.2552,-0.7213 0.3994,-1.0098 0.1443,-0.2885 0.3552,-0.5216 0.4106,-0.5438 0.0555,-0.0221 0.0888,-0.2219 0.0666,-0.3107 -0.0222,-0.0887 0,-0.1886 -0.0888,-0.1886 -0.0887,0 -0.1553,0.2663 -0.2774,0.4217 -0.1221,0.1553 -0.3995,0.6809 -0.6325,1.1621 -0.2331,0.4811 -0.6906,1.0339 -0.9182,1.2601 -0.2441,0.1931 -0.0472,-0.1807 -0.025,-0.2916 0.0221,-0.111 0.1664,-0.4217 0.1664,-0.4217 0,0 0.1997,-0.2219 -0.0555,-0.1443 -0.2552,0.0777 -0.4882,0.455 -0.4882,0.455 0,0 -0.6326,0.7879 -0.8545,0.9432 -0.222,0.1554 -0.1665,-0.0887 -0.1221,-0.3329 0.0444,-0.2441 0.3218,-0.5326 0.3218,-0.5326l0.111 -0.0444c0,0 -0.0666,0.2441 -0.0111,0.233 0.0555,-0.0111 0.1221,-0.1109 0.1332,-0.1997 0.0111,-0.0888 0,-0.455 -0.0666,-0.4106 -0.0666,0.0444 -0.4217,0.3662 -0.5327,0.4994 -0.1109,0.1331 -0.5104,0.6325 -0.6547,0.8655 -0.1442,0.2331 -0.0444,-0.122 -0.0444,-0.122 0,0 0.0555,-0.1998 0.0666,-0.2886 0.0111,-0.0887 -0.111,-0.0443 -0.111,-0.0443l-0.1664 0.1664c0,0 -0.0333,0.0333 -0.0333,0.1665 0,0.1331 -0.1665,0.3218 -0.3329,0.4216 -0.1665,0.0999 -0.0999,-0.0887 -0.0999,-0.0887 0,0 0.0555,-0.2331 0.2219,-0.5105 0.1665,-0.2774 0.344,-0.2996 0.4439,-0.344 0.0999,-0.0444 0.0555,-0.111 0.0222,-0.1665 -0.0333,-0.0554 -0.1431,-0.0154 -0.1775,0.0111 -0.0762,0.0601 -1.3115,1.0923 -1.365,1.2762 -0.0535,0.1839 0.1221,0.0444 0.1221,0.0444l0.4884 -0.5308 0.0221 -0.0241 -0.0111 0.1221c0,0 -0.1443,0.2552 -0.111,0.4328 0.0364,0.1433 0.1444,0.112 0.2221,0.1071 0.0777,-0.0111 0.2329,-0.2292 0.3328,-0.3069 0.0998,-0.0776 0.1109,0.0111 0.1442,0.0777 0.0333,0.0666 0.1776,-0.0222 0.1776,-0.0222 0,0 0.3329,-0.455 0.4105,-0.5548 0.0777,-0.0999 0.1776,-0.0999 0.1776,-0.0999 0,0 -0.0444,0.1332 0.0666,0.3107 0.111,0.1776 0.3107,0.0444 0.4328,-0.0333 0.122,-0.0777 0.5104,-0.5659 0.5992,-0.688 0.0888,-0.1221 0.2108,-0.1442 0.2108,-0.1442 0,0 -0.0665,0.3884 -0.0444,0.4882 0.0222,0.0999 0.1887,0.1221 0.3885,-0.0666 0.1997,-0.1886 0.6185,-0.8041 0.6185,-0.8041 0,0 -0.1081,0.3048 -0.0748,0.5378 0.0333,0.233 0.2321,0.1659 0.3181,0.1392 0.0697,-0.0461 0.1477,-0.088 0.2128,-0.1218l-2.2647 2.9698 -3.0924 -1.3541c0.0994,-0.2963 0.4424,-1.3183 0.4549,-1.356 0.3403,-0.1068 0.6703,-0.2108 0.6703,-0.2108 0.0327,-0.0793 0.0689,-0.1919 0.1424,-0.3243 0.0735,-0.1323 -0.103,-0.1029 -0.103,-0.1029 0,0 -0.3006,0.2215 -0.433,0.2657 -0.1829,0.0947 -0.1112,-0.1039 -0.1112,-0.1039 0,0 0.2648,-0.5443 0.353,-0.7649 0.0883,-0.2207 0.3383,-0.2207 0.5443,-0.3089 0.2059,-0.0883 1.6033,-0.5296 1.8387,-0.6178 0.2353,-0.0883 0.1912,-0.4413 0.1912,-0.4413 0,0 -0.2501,0.1324 -0.4413,0.1912 -0.1912,0.0588 -1.4857,0.559 -1.6328,0.6325 -0.147,0.0736 -0.0735,-0.0588 -0.0735,-0.1618 0,-0.103 -0.0735,-0.0588 -0.0735,-0.0588 0,0 -0.1766,0.0882 -0.2942,0.1177 -0.1177,0.0294 -0.1913,0.2353 -0.1913,0.2353 0,0 -1.162,0.5295 -1.4121,0.8237 -0.25,0.2942 0.1471,0.1618 0.1471,0.1618 0,0 1.1179,-0.6619 1.0297,-0.5001 -0.0883,0.1618 -0.4707,1.0591 -0.4707,1.0591 0,0 -0.3678,0.2501 -0.5001,0.353 -0.1324,0.103 -0.0736,0.3089 -0.0736,0.3089 0,0 0.5296,-0.4266 0.4707,-0.2942 -0.049,0.1104 -0.2206,0.7722 -0.2765,0.9898l-4.424 -1.9373 2.6994 -0.723 -1.181 -4.6758zm5.5874 5.3209c0,0 0.2973,-0.3539 0.3397,-0.4671 0.0425,-0.1132 0.2265,-0.1274 0.2123,0 -0.0141,0.1274 -0.3114,0.3821 -0.3114,0.3821 0,0 -0.1415,0.1699 -0.2123,0.1699 -0.0707,0 -0.0283,-0.0849 -0.0283,-0.0849zm2.0605 -0.5885c0,0 -0.0932,0.0133 -0.0799,-0.1465 0.0133,-0.1599 0.0533,-0.1332 0.1332,-0.1998 0.0799,-0.0666 0.1465,-0.1599 0.1465,-0.0267 0,0.1332 -0.0133,0.1998 -0.0799,0.2798 -0.0666,0.0799 -0.1199,0.0932 -0.1199,0.0932z"/>
    <path id="_613842920" class="fil4" d="M9.2917 9.6079l1.6272 -0.422c0.2956,-0.0766 0.544,-0.1129 0.7451,-0.1088 0.2116,-0.0035 0.3877,0.0286 0.5284,0.0961 0.1407,0.0676 0.2465,0.1717 0.3173,0.3124 0.0295,0.0584 0.0527,0.1258 0.0698,0.2022 0.113,0.563 -0.2896,0.9635 -1.2078,1.2017l-0.5707 0.148 0.1841 0.7783 -1.1132 0.2887 -0.5802 -2.4966zm6.4923 -1.608l0.0096 0c0.0359,-0.025 0.0733,-0.0491 0.1121,-0.0724 0.2047,-0.1229 0.4502,-0.2214 0.7363,-0.2956 0.1541,-0.04 0.2897,-0.0672 0.4069,-0.0816 0.1171,-0.0145 0.2452,-0.0178 0.3843,-0.0098 0.2403,0.0111 0.4495,0.0664 0.6275,0.1659 0.1781,0.0994 0.3124,0.239 0.4029,0.4187l0.0065 0.013 -0.6016 0.156 0 0.2827 0.704 -0.1826 0.3161 1.3792 -0.7075 0.1835 -0.1051 -0.2297c-0.059,0.079 -0.1282,0.1512 -0.2075,0.2166l0 0.0046 -0.0056 0c-0.188,0.1535 -0.4321,0.2692 -0.7325,0.3471 -0.4339,0.1125 -0.8158,0.1149 -1.1456,0.007 -0.3298,-0.1078 -0.5634,-0.2981 -0.7008,-0.5708l-0.0689 -0.1474 -0.0308 -0.1352c-0.091,-0.3925 -0.0152,-0.7536 0.2276,-1.0833 0.0988,-0.1344 0.2228,-0.2541 0.3721,-0.3592l0 -0.0067zm-5.2412 1.9003l0.1202 0.5563 0.4811 -0.1248c0.1384,-0.0359 0.2421,-0.0964 0.3111,-0.1816 0.0691,-0.0853 0.0807,-0.1733 0.0349,-0.2642 -0.0687,-0.1364 -0.2744,-0.1602 -0.6171,-0.0713l-0.3302 0.0856zm2.3429 -1.2244l1.1367 -0.2948 1.7972 2.181 -1.1084 0.2875 -0.2137 -0.2971 -1.1131 0.2887 -0.0458 0.3643 -1.0848 0.2814 0.6319 -2.811zm0.593 1.5901l0.7027 -0.1822 -0.5587 -0.8023 -0.144 0.9845zm6.7526 -3.5649c0.5,-0.1296 0.9184,-0.1353 1.2553,-0.0171 0.1599,0.0564 0.305,0.1363 0.4353,0.2396 0.0609,0.0503 0.1152,0.1053 0.1631,0.1651 0.0479,0.0598 0.0915,0.1286 0.1307,0.2066l0.0622 0.1234 0.0319 0.1055c0.0629,0.2309 0.0515,0.4676 -0.0343,0.7101 -0.0858,0.2426 -0.2534,0.4622 -0.5027,0.659 -0.2492,0.1969 -0.561,0.3438 -0.9351,0.4408 -0.5063,0.1313 -0.9295,0.1364 -1.2695,0.0154 -0.3401,-0.1211 -0.5788,-0.318 -0.7162,-0.5908l-0.0316 -0.0946 -0.0399 -0.1108 -0.0333 -0.0978c-0.0484,-0.2445 -0.0316,-0.4758 0.0504,-0.6941 0.082,-0.2183 0.2471,-0.4251 0.4954,-0.6205 0.2482,-0.1953 0.561,-0.3419 0.9383,-0.4398zm0.1322 0.6119c-0.4842,0.1256 -0.6237,0.491 -0.4184,1.0961 0.1516,0.3009 0.4019,0.4061 0.7509,0.3156 0.2767,-0.0718 0.4445,-0.2187 0.5033,-0.4407 0.0588,-0.2221 0.0342,-0.4403 -0.0738,-0.6546 -0.0709,-0.1407 -0.17,-0.2405 -0.2973,-0.2992 -0.1274,-0.0588 -0.2823,-0.0645 -0.4647,-0.0172z"/>
    <path id="_391861696" class="fil5" d="M9.2364 9.3058l1.6042 -0.4161c0.1625,-0.0421 0.3074,-0.0725 0.4346,-0.0911 0.1365,-0.0199 0.263,-0.0287 0.3793,-0.0263l0.0008 0 0 -0.0006c0.0036,0.0001 0.0072,0.0002 0.0108,0.0005 0.1158,-0.0009 0.2231,0.0077 0.3217,0.0257 0.1111,0.0202 0.2138,0.0529 0.308,0.0981 0.0798,0.0383 0.1519,0.085 0.2163,0.14l0.1001 -0.4453 0.2735 0.0851 -0.2742 -0.0861c0.0265,-0.1181 0.1149,-0.1994 0.2195,-0.2162l1.1131 -0.2887 0.0783 0.2962 -0.0785 -0.2972c0.1093,-0.0284 0.2224,0.0183 0.2922,0.1096l0.637 0.7731c0.0055,-0.055 0.0138,-0.1096 0.0252,-0.1636 0.0468,-0.2228 0.1436,-0.434 0.2903,-0.6336l-0.0005 -0.0004 0.0003 -0.0004 -0.0004 -0.0003c0.0037,-0.0052 0.0077,-0.0101 0.0117,-0.0149 0.0555,-0.0737 0.1176,-0.1438 0.1864,-0.2101 0.0594,-0.0574 0.1233,-0.1115 0.1915,-0.1623 0.0277,-0.0307 0.0619,-0.0546 0.1002,-0.0694l0.0187 -0.0122c0.0246,-0.0158 0.046,-0.0292 0.0639,-0.04 0.1134,-0.068 0.2382,-0.1294 0.3745,-0.1841 0.1326,-0.0532 0.2756,-0.0997 0.4288,-0.1395 0.0904,-0.0234 0.1674,-0.0415 0.2309,-0.0543l0 0.0001 0.0001 0 -0.0001 -0.0004c0.005,-0.001 0.0101,-0.0019 0.0152,-0.0026 0.0679,-0.0133 0.1323,-0.0237 0.1929,-0.0312 0.0681,-0.0084 0.1376,-0.0135 0.2085,-0.0153l0.0216 0.305 -0.0207 -0.3054c0.0027,-0.0001 0.0055,-0.0001 0.0081,-0.0001 0.0594,-0.0012 0.1297,0.0005 0.2109,0.0051l0 -0.0004 0.0029 0.0001 0 -0.0008c0.0067,0.0004 0.0134,0.001 0.0199,0.0019 0.1298,0.0074 0.2533,0.0266 0.3702,0.0575 0.1263,0.0333 0.2446,0.0809 0.355,0.1425 0.1163,0.065 0.2182,0.1429 0.3056,0.2337 0.0096,0.01 0.019,0.0201 0.0283,0.0304 0.0072,-0.0222 0.0149,-0.0443 0.0232,-0.0663 0.0523,-0.1393 0.1292,-0.2725 0.2305,-0.3993 0.0964,-0.1207 0.2141,-0.2358 0.3532,-0.3453l0.1731 0.2502 -0.1732 -0.2502c0.0044,-0.0034 0.0087,-0.0066 0.0132,-0.0097 0.136,-0.1055 0.2891,-0.1981 0.459,-0.2777 0.1682,-0.0789 0.3553,-0.145 0.561,-0.1984 0.2709,-0.0702 0.5205,-0.1069 0.7489,-0.11 0.241,-0.0033 0.4604,0.0298 0.6583,0.0992l-0.0736 0.2899 0.0746 -0.2902c0.0081,0.0029 0.016,0.0061 0.0237,0.0096 0.0848,0.0312 0.1673,0.0689 0.2474,0.113 0.0902,0.0497 0.173,0.1044 0.2483,0.1641l-0.1587 0.2431 0.159 -0.2433c0.0093,0.0073 0.0181,0.0152 0.0264,0.0234 0.031,0.0266 0.0602,0.0538 0.0876,0.0815 0.0341,0.0346 0.0671,0.0716 0.0987,0.1111 0.0319,0.0398 0.0617,0.0817 0.0894,0.1255 0.0281,0.0443 0.0541,0.0903 0.0781,0.138l0.0622 0.1234 -0.2454 0.1355 0.246 -0.1358c0.0133,0.0263 0.0228,0.0536 0.0287,0.0811l0.0238 0.0789 0.001 -0.0003c0.0039,0.0131 0.007,0.0261 0.0093,0.0392 0.0351,0.14 0.0492,0.2813 0.0423,0.4237 -0.0072,0.1499 -0.0374,0.2997 -0.0903,0.4494 -0.1045,0.2953 -0.3022,0.5578 -0.5931,0.7875 -0.142,0.1121 -0.2989,0.2087 -0.4707,0.2897 -0.1677,0.079 -0.354,0.1451 -0.559,0.1982 -0.2741,0.0711 -0.5265,0.1081 -0.7571,0.1108l-0.0182 -0.3047 0.0173 0.3055c-0.0053,0.0001 -0.0106,0 -0.0159,-0.0003 -0.2358,0.0013 -0.4522,-0.0331 -0.6489,-0.1031 -0.1459,-0.052 -0.277,-0.1163 -0.3931,-0.1929l0.0615 0.2683 -0.2729 0.0596 0.2735 -0.0594c0.038,0.1654 -0.0538,0.3262 -0.2048,0.359 -0.0045,0.001 -0.0089,0.0018 -0.0134,0.0026l-0.6845 0.1775 -0.0562 -0.2125 0 0 0.0564 0.2136c-0.0805,0.0209 -0.1631,0.001 -0.2289,-0.0474 -0.0087,0.0062 -0.0178,0.0118 -0.0272,0.0168 -0.102,0.0787 -0.216,0.1479 -0.342,0.2076 -0.1337,0.0634 -0.2847,0.1169 -0.4528,0.1605 -0.2399,0.0622 -0.4646,0.094 -0.674,0.0953 -0.1522,0.0009 -0.2987,-0.0141 -0.4396,-0.0448 -0.0118,0.0579 -0.0396,0.1117 -0.0831,0.1533 -0.0399,0.0381 -0.0876,0.0608 -0.1374,0.0687l-1.0851 0.2815 -0.0783 -0.2962 0.0785 0.2972c-0.1185,0.0308 -0.2412,-0.0266 -0.3087,-0.1334l-0.085 -0.1181 -0.7572 0.1964 -0.0213 0.1697 0.0006 0.0001c-0.0166,0.1319 -0.1098,0.228 -0.2249,0.2464l-1.0611 0.2751 -0.0783 -0.2961 0.0785 0.2972c-0.1496,0.0388 -0.306,-0.0628 -0.3494,-0.227 -0.0164,-0.0621 -0.0142,-0.1242 0.0028,-0.1796l0.093 -0.4137c-0.179,0.0857 -0.3886,0.1597 -0.6287,0.222l-0.3082 0.0799 0.1155 0.4882 -0.2722 0.062 0.273 -0.0617c0.039,0.1652 -0.0515,0.3268 -0.2023,0.3609 -0.0051,0.0011 -0.0103,0.0021 -0.0155,0.003l-1.0901 0.2827 -0.0783 -0.2962 0.0786 0.2973c-0.1496,0.0388 -0.3061,-0.0629 -0.3494,-0.2271 -0.0027,-0.0103 -0.005,-0.0206 -0.0067,-0.0309l-0.5752 -2.4751 0.2725 -0.0608 -0.2733 0.0605c-0.0384,-0.1654 0.0528,-0.3265 0.2037,-0.3599 0.0048,-0.001 0.0096,-0.002 0.0143,-0.0027zm1.1437 0.3364l-0.7487 0.1941 0.4415 1.8996 0.5714 -0.1482 -0.1106 -0.4674c-0.0012,-0.0041 -0.0024,-0.0083 -0.0036,-0.0126 -0.0376,-0.1425 0.0224,-0.2854 0.1367,-0.3459 -0.1293,-0.005 -0.2472,-0.1064 -0.2782,-0.25l0.0004 0 -0.1168 -0.5403 -0.0003 -0.001c-0.0343,-0.1302 0.0127,-0.2606 0.1082,-0.3283zm0.9985 -0.2384c-0.1024,0.0149 -0.2092,0.036 -0.3201,0.0629 0.09,-0.0108 0.1704,-0.0122 0.2411,-0.004 0.206,0.0237 0.3513,0.1197 0.4359,0.2877 0.0537,0.1065 0.0731,0.2156 0.0584,0.3273 -0.0135,0.1023 -0.0546,0.1958 -0.1231,0.2804 -0.0546,0.0673 -0.1221,0.1245 -0.2027,0.1715 -0.02,0.0117 -0.0409,0.0227 -0.0627,0.033 0.3555,-0.1025 0.6093,-0.2295 0.7615,-0.3809 0.1211,-0.1205 0.1685,-0.261 0.1423,-0.4217 -0.0013,-0.0047 -0.0025,-0.0095 -0.0035,-0.0144l0.0005 -0.0001c-0.0061,-0.0268 -0.0128,-0.051 -0.0202,-0.0724 -0.0065,-0.019 -0.0138,-0.0364 -0.0217,-0.052 -0.0382,-0.0761 -0.0967,-0.133 -0.1754,-0.1707 -0.0464,-0.0223 -0.1021,-0.0394 -0.1671,-0.0512 -0.0667,-0.0121 -0.1405,-0.018 -0.2213,-0.0176 -0.0091,0.0008 -0.0183,0.0011 -0.0277,0.0009l0 -0.0006c-0.0846,-0.0017 -0.1827,0.0056 -0.2942,0.0219zm1.4866 0.6653c-0.0059,0.0341 -0.0134,0.0677 -0.0227,0.1007l-0.2024 0.9003 0.4441 -0.1152 0.0187 -0.1487c0.0075,-0.1242 0.0857,-0.2319 0.203,-0.2624l0.0003 0.0011 0.0473 -0.0123c-0.1075,-0.0634 -0.173,-0.1951 -0.1534,-0.3291l0.2786 0.0624 -0.2784 -0.0624 0.1423 -0.9731c0.0085,-0.0775 0.0446,-0.1498 0.1062,-0.1987 0.1226,-0.0972 0.2999,-0.0642 0.3959,0.0736l-0.222 0.1761 0.2215 -0.1749 0.5429 0.7794c0.0296,0.0357 0.0524,0.0789 0.0652,0.1275 0.0228,0.0862 0.0098,0.1725 -0.0292,0.2407 0.1046,-0.0253 0.221,0.0172 0.2936,0.1182l-0.2192 0.1801 0.2192 -0.1792 0.096 0.1334 0.4886 -0.1267 -1.3674 -1.6594 -0.813 0.2108 -0.2557 1.1378zm3.1054 -1.8222c-0.0068,0.0056 -0.0138,0.0109 -0.0212,0.0158l-0.0035 0.0025 -0.0001 -0.0002 -0.0051 0.0032c-0.0621,0.044 -0.1184,0.0903 -0.1688,0.139 -0.0466,0.045 -0.0889,0.0927 -0.127,0.143 -0.0029,0.0044 -0.0059,0.0089 -0.0091,0.0132l-0.2239 -0.1976 0.2227 0.1972c-0.0957,0.13 -0.1581,0.264 -0.1871,0.402 -0.027,0.1288 -0.0252,0.2641 0.0054,0.4058 0.0019,0.0064 0.0036,0.0128 0.0051,0.0194l-0.0006 0.0001 0.0223 0.0981 0.0497 0.1063 0.0006 0.0012 0 0 0.0041 0.0089 -0.0003 0.0002c0.0474,0.0911 0.1108,0.169 0.1902,0.2337 0.0891,0.0725 0.1989,0.1302 0.3296,0.1729 0.1351,0.0442 0.2848,0.0658 0.4489,0.0647 0.1724,-0.001 0.3557,-0.0267 0.5497,-0.077 0.1321,-0.0343 0.2534,-0.0776 0.3637,-0.1299 0.0979,-0.0464 0.1841,-0.0991 0.2585,-0.1582 0.0048,-0.0044 0.0097,-0.0085 0.0147,-0.0125l0.0015 -0.0013 0 0.0001 0.0013 -0.001c0.0335,-0.0277 0.0629,-0.0547 0.088,-0.0809 0.0225,-0.0235 0.0432,-0.0472 0.0619,-0.0712 0.026,-0.0405 0.062,-0.0742 0.1067,-0.0962 0.1388,-0.0687 0.3084,0.0004 0.3789,0.1543l0.2223 -0.0577 -0.1792 -0.7817 -0.4001 0.1037c-0.0316,0.0116 -0.066,0.017 -0.1019,0.0151 -0.1558,-0.0085 -0.282,-0.1519 -0.282,-0.3204l0.0001 0 0 -0.2715c-0.0047,-0.1369 0.0765,-0.2603 0.2034,-0.2932l0.0002 0.0011 0.1311 -0.034c-0.0621,-0.0324 -0.1304,-0.0585 -0.2049,-0.0782 -0.0797,-0.021 -0.1668,-0.0343 -0.2611,-0.0398 -0.0075,0.0002 -0.0151,0.0001 -0.0228,-0.0003l0 -0.0013c-0.051,-0.0029 -0.1082,-0.0037 -0.1715,-0.0022l-0.0075 0.0002 0 -0.0001 -0.0001 0 0 -0.0002c-0.0568,0.0014 -0.1097,0.0052 -0.1584,0.0112 -0.048,0.0059 -0.1003,0.0144 -0.1569,0.0255 -0.0047,0.0012 -0.0094,0.0023 -0.0142,0.0033l0 -0.0004c-0.072,0.0145 -0.1399,0.03 -0.2036,0.0465 -0.1328,0.0344 -0.2557,0.0743 -0.3685,0.1196 -0.1092,0.0439 -0.2095,0.0932 -0.3008,0.148 -0.0209,0.0125 -0.0377,0.0229 -0.0505,0.0312 -0.007,0.0045 -0.017,0.0112 -0.0299,0.02zm4.9677 -1.3427c-0.19,0.0026 -0.3996,0.0336 -0.6287,0.093 -0.1715,0.0445 -0.3295,0.1006 -0.4741,0.1684 -0.1328,0.0622 -0.2523,0.1344 -0.3585,0.2164 -0.0036,0.0031 -0.0072,0.0061 -0.0109,0.0091l0 -0.0001c-0.1092,0.0859 -0.1981,0.1719 -0.2669,0.258 -0.0638,0.0799 -0.1105,0.1594 -0.1402,0.2384 -0.0305,0.0812 -0.0489,0.1643 -0.055,0.2492 -0.0059,0.0804 -0.0013,0.1627 0.0136,0.2466l0.0192 0.0565c0.0021,0.005 0.004,0.0101 0.0059,0.0153l-0.0006 0.0002 0.0001 0.0003 0.0002 -0.0001 0.0342 0.095c0.003,0.0073 0.0058,0.0148 0.0084,0.0225l-0.0143 0.0049 0 0.0001 0.0136 -0.0047 0.0231 0.069c0.047,0.0872 0.1104,0.1637 0.1899,0.2293 0.0934,0.0771 0.2088,0.14 0.3459,0.1889 0.1354,0.0482 0.2908,0.0719 0.4662,0.071 0.0046,-0.0003 0.0093,-0.0004 0.0139,-0.0005l0.0001 0.0004 0.0001 0 0 0.0003c0.1922,-0.0024 0.4042,-0.0337 0.6359,-0.0938 0.1692,-0.0439 0.3259,-0.0997 0.4699,-0.1676 0.1399,-0.066 0.2635,-0.1413 0.3708,-0.226 0.2076,-0.1639 0.345,-0.3408 0.4121,-0.5305 0.0329,-0.0929 0.0514,-0.1827 0.0556,-0.2695 0.0037,-0.0765 -0.0035,-0.1517 -0.0215,-0.2255 -0.0015,-0.0043 -0.0029,-0.0086 -0.0042,-0.013l0.0009 -0.0003 -0.0013 -0.0047 -0.0214 -0.0708 -0.0499 -0.0992c-0.0153,-0.0303 -0.0306,-0.0577 -0.0462,-0.0822 -0.0158,-0.025 -0.0317,-0.0475 -0.0477,-0.0675 -0.0163,-0.0203 -0.0345,-0.0407 -0.0548,-0.0612 -0.0151,-0.0153 -0.0304,-0.0297 -0.0461,-0.0434 -0.0043,-0.0031 -0.0086,-0.0063 -0.0128,-0.0096l0.0002 -0.0003c-0.0549,-0.0435 -0.1098,-0.0804 -0.1646,-0.1106 -0.0518,-0.0285 -0.1074,-0.0538 -0.1668,-0.0757 -0.0065,-0.0018 -0.0131,-0.0038 -0.0196,-0.0061l0.0001 -0.0006c-0.1387,-0.0486 -0.2967,-0.0717 -0.4738,-0.0693zm-0.4965 0.7049c-0.019,0.0049 -0.0387,0.0109 -0.0589,0.0177 -0.1168,0.0396 -0.1913,0.0979 -0.2236,0.1748 -0.037,0.0881 -0.0334,0.2177 0.0109,0.3886 0.0081,0.0313 0.0183,0.0655 0.0303,0.1024 0.0385,0.0697 0.0839,0.1156 0.1363,0.1376 0.0697,0.0293 0.1634,0.0287 0.2809,-0.0018 0.0987,-0.0256 0.175,-0.0619 0.2286,-0.1089 0.0413,-0.0361 0.0689,-0.0804 0.0828,-0.133 0.0189,-0.0716 0.0246,-0.1417 0.0169,-0.2102 -0.0078,-0.0694 -0.0298,-0.1399 -0.0659,-0.2115 -0.0194,-0.0385 -0.0422,-0.071 -0.0684,-0.0973 -0.0237,-0.0239 -0.0513,-0.0431 -0.0828,-0.0577 -0.0302,-0.0139 -0.0662,-0.0217 -0.1078,-0.0232 -0.054,-0.002 -0.1137,0.0055 -0.1793,0.0225zm-0.249 -0.565c0.0282,-0.0096 0.059,-0.0187 0.0925,-0.0274 0.1168,-0.0303 0.2257,-0.0436 0.3266,-0.0398 0.1132,0.0041 0.2184,0.0287 0.3156,0.0735 0.0958,0.0442 0.1814,0.1042 0.2568,0.1801 0.0729,0.0733 0.1351,0.1612 0.1866,0.2633 0.0719,0.1427 0.1162,0.2885 0.133,0.4372 0.0168,0.1498 0.0054,0.2999 -0.0344,0.4502 -0.0449,0.1695 -0.1306,0.3097 -0.2571,0.4205 -0.1141,0.0999 -0.2602,0.1729 -0.4381,0.2191 -0.2314,0.06 -0.4375,0.0521 -0.6181,-0.0238 -0.1864,-0.0784 -0.3346,-0.2215 -0.4445,-0.4293 -0.0123,-0.0204 -0.0227,-0.0425 -0.0308,-0.0661l0.2642 -0.0926 -0.2636 0.092c-0.0193,-0.0571 -0.0366,-0.1148 -0.0517,-0.1731 -0.0815,-0.3144 -0.0762,-0.5815 0.0161,-0.8012 0.0969,-0.2309 0.2793,-0.3918 0.5469,-0.4826z"/>
    <path id="_613843232" class="fil6" d="M9.3294 9.6079l1.6273 -0.422c0.2955,-0.0766 0.5439,-0.1129 0.7451,-0.1088 0.2115,-0.0035 0.3877,0.0286 0.5283,0.0961 0.1407,0.0676 0.2465,0.1717 0.3174,0.3124 0.0294,0.0584 0.0527,0.1258 0.0698,0.2022 0.113,0.563 -0.2897,0.9635 -1.2078,1.2017l-0.5707 0.148 0.184 0.7783 -1.1131 0.2887 -0.5803 -2.4966zm1.2512 0.2923l0.1202 0.5563 0.4811 -0.1248c0.1383,-0.0359 0.242,-0.0964 0.3111,-0.1816 0.069,-0.0853 0.0807,-0.1733 0.0349,-0.2642 -0.0687,-0.1364 -0.2744,-0.1602 -0.6172,-0.0713l-0.3301 0.0856zm2.3429 -1.2244l1.1367 -0.2948 1.7971 2.181 -1.1084 0.2875 -0.2136 -0.2971 -1.1131 0.2887 -0.0458 0.3643 -1.0848 0.2814 0.6319 -2.811zm0.5929 1.5901l0.7028 -0.1822 -0.5588 -0.8023 -0.144 0.9845zm3.6982 -0.937l-0.1278 -0.5396 1.5235 -0.3951 0.3161 1.3792 -0.7075 0.1835 -0.1051 -0.2297c-0.1996,0.2671 -0.5148,0.4566 -0.9456,0.5683 -0.4339,0.1125 -0.8158,0.1149 -1.1456,0.007 -0.3299,-0.1078 -0.5635,-0.2981 -0.7009,-0.5708l-0.0689 -0.1474 -0.0307 -0.1352c-0.0911,-0.3925 -0.0152,-0.7536 0.2275,-1.0833 0.1245,-0.1693 0.2891,-0.3154 0.4938,-0.4383 0.2048,-0.1229 0.4502,-0.2214 0.7364,-0.2956 0.1541,-0.04 0.2897,-0.0672 0.4068,-0.0816 0.1172,-0.0145 0.2453,-0.0178 0.3844,-0.0098 0.2403,0.0111 0.4494,0.0664 0.6275,0.1659 0.1781,0.0994 0.3124,0.239 0.4029,0.4187l0.0065 0.013 -1.0565 0.274c-0.1338,-0.1881 -0.3501,-0.2434 -0.6488,-0.1659 -0.4905,0.1272 -0.6252,0.4987 -0.4039,1.1144 0.145,0.2879 0.4109,0.3817 0.7976,0.2814 0.1195,-0.031 0.2317,-0.0888 0.3366,-0.1735 0.1049,-0.0847 0.1607,-0.1733 0.1675,-0.2656l-0.4858 0.126zm3.0545 -2.6279c0.5,-0.1296 0.9184,-0.1353 1.2552,-0.0171 0.16,0.0564 0.3051,0.1363 0.4353,0.2396 0.0609,0.0503 0.1153,0.1053 0.1632,0.1651 0.0479,0.0598 0.0914,0.1286 0.1307,0.2066l0.0621 0.1234 0.0319 0.1055c0.063,0.2309 0.0515,0.4676 -0.0343,0.7101 -0.0858,0.2426 -0.2533,0.4622 -0.5026,0.659 -0.2493,0.1969 -0.561,0.3438 -0.9352,0.4408 -0.5062,0.1313 -0.9294,0.1364 -1.2695,0.0154 -0.34,-0.1211 -0.5788,-0.318 -0.7162,-0.5908l-0.0316 -0.0946 -0.0398 -0.1108 -0.0333 -0.0978c-0.0485,-0.2445 -0.0317,-0.4758 0.0503,-0.6941 0.0821,-0.2183 0.2472,-0.4251 0.4954,-0.6205 0.2483,-0.1953 0.5611,-0.3419 0.9384,-0.4398zm0.1322 0.6119c-0.4842,0.1256 -0.6237,0.491 -0.4184,1.0961 0.1515,0.3009 0.4018,0.4061 0.7509,0.3156 0.2767,-0.0718 0.4444,-0.2187 0.5032,-0.4407 0.0588,-0.2221 0.0342,-0.4403 -0.0737,-0.6546 -0.0709,-0.1407 -0.17,-0.2405 -0.2974,-0.2992 -0.1273,-0.0588 -0.2822,-0.0645 -0.4646,-0.0172z"/>
    <path id="_613967120" class="fil7" d="M9.3171 9.5602l1.6272 -0.422c0.15,-0.0389 0.2878,-0.0676 0.4134,-0.0859 0.126,-0.0184 0.2409,-0.0265 0.3444,-0.0245 0.1085,-0.0017 0.2083,0.0057 0.2992,0.0222 0.0924,0.0168 0.1758,0.0431 0.2501,0.0788 0.1509,0.0724 0.2643,0.1839 0.3401,0.3346 0.0156,0.0307 0.0296,0.0643 0.0421,0.1005l0.0002 0c0.0081,0.0236 0.0156,0.0487 0.0225,0.0753l0.219 -0.9742 0.0066 -0.0293 0.0292 -0.0076 1.1367 -0.2948 0.0304 -0.0079 0.02 0.0243 1.2258 1.4876c-0.0164,-0.0269 -0.0319,-0.0547 -0.0463,-0.0834l-0.0006 -0.0014 -0.0689 -0.1473 -0.0035 -0.0101 -0.0307 -0.135 -0.0001 0c-0.0471,-0.2031 -0.051,-0.3986 -0.0115,-0.5862 0.0394,-0.1876 0.1219,-0.3667 0.2474,-0.5373 0.0642,-0.0873 0.1388,-0.1688 0.224,-0.2443 0.0846,-0.0751 0.1794,-0.1442 0.2843,-0.2071 0.1047,-0.0628 0.2196,-0.1193 0.3446,-0.1695 0.1245,-0.05 0.2595,-0.0939 0.4047,-0.1315 0.0774,-0.0201 0.1507,-0.0371 0.22,-0.051 0.0705,-0.0141 0.135,-0.0248 0.1932,-0.032 0.0591,-0.0073 0.1221,-0.0118 0.1888,-0.0135 0.0659,-0.0017 0.134,-0.0005 0.2043,0.0035l0 0.0001c0.1236,0.0057 0.2393,0.0228 0.3469,0.0513 0.1085,0.0286 0.2092,0.0689 0.3019,0.1207 0.0934,0.0521 0.1754,0.1149 0.2458,0.1881 0.0706,0.0734 0.1297,0.1572 0.1771,0.2514l0 0.0002 0.0066 0.013 0.0273 0.0545 -0.059 0.0153 -1.0565 0.274 -0.0329 0.0085 -0.0197 -0.0276c-0.0599,-0.0841 -0.1381,-0.1385 -0.2346,-0.1632 -0.1001,-0.0256 -0.2207,-0.0201 -0.3616,0.0165 -0.0312,0.008 -0.0606,0.0171 -0.0882,0.027 -0.17,0.0611 -0.2831,0.1599 -0.3391,0.2963 -0.0574,0.1398 -0.0572,0.3214 0.0007,0.5446 0.0148,0.0571 0.0333,0.1166 0.0554,0.1785 0.0665,0.131 0.1596,0.2176 0.2795,0.2599 0.1235,0.0436 0.2771,0.0416 0.4607,-0.006 0.0561,-0.0146 0.1106,-0.0355 0.1635,-0.0628 0.0531,-0.0274 0.1046,-0.0612 0.1545,-0.1015 0.0481,-0.0389 0.0847,-0.0782 0.1097,-0.1177 0.0086,-0.0137 0.0157,-0.0273 0.0216,-0.0411l-0.4063 0.1054 -0.0489 0.0127 -0.0116 -0.049 -0.1278 -0.5396 -0.0112 -0.047 0.0469 -0.0121 1.5235 -0.3951 0.0492 -0.0128 0.0113 0.0495 0.3161 1.3792 0.0107 0.0467 -0.0465 0.0121 -0.7075 0.1834 -0.04 0.0104 -0.0172 -0.0376 -0.0717 -0.1568c-0.0952,0.1115 -0.2116,0.2086 -0.3493,0.2913 -0.1616,0.0971 -0.3524,0.1743 -0.5724,0.2313 -0.2209,0.0573 -0.4289,0.0865 -0.6241,0.0877 -0.1964,0.0012 -0.3795,-0.0259 -0.5492,-0.0814 -0.1707,-0.0558 -0.3168,-0.1332 -0.4385,-0.2323 -0.0167,-0.0136 -0.0331,-0.0277 -0.0489,-0.0422l0.3755 0.4557 0.0492 0.0596 -0.0749 0.0195 -1.1084 0.2874 -0.0327 0.0085 -0.0197 -0.0274 -0.1939 -0.2697 -1.0479 0.2718 -0.0416 0.331 -0.0042 0.0333 -0.0326 0.0085 -1.0848 0.2813 -0.0782 0.0203 0.0177 -0.0789 0.2445 -1.0874c-0.0167,0.0193 -0.0343,0.0383 -0.053,0.0569 -0.2076,0.2066 -0.5453,0.3705 -1.013,0.4918l-0.5239 0.1359 0.173 0.7315 0.011 0.0468 -0.0468 0.0121 -1.1131 0.2887 -0.049 0.0127 -0.0115 -0.0494 -0.5803 -2.4966 -0.0108 -0.0466 0.0466 -0.0121zm1.6519 -0.3265l-1.5806 0.4099 0.5579 2.4004 1.0173 -0.2638 -0.173 -0.7315 -0.0111 -0.0468 0.0469 -0.0122 0.5707 -0.148c0.4504,-0.1168 0.7732,-0.2722 0.9682,-0.4662 0.1885,-0.1876 0.2565,-0.4134 0.2039,-0.6771 -0.008,-0.0354 -0.0176,-0.0695 -0.0289,-0.1024l0.0001 -0.0001c-0.0107,-0.0311 -0.0231,-0.0605 -0.037,-0.0881 -0.0659,-0.1308 -0.1641,-0.2275 -0.2945,-0.2901 -0.0664,-0.0319 -0.1414,-0.0554 -0.225,-0.0706 -0.085,-0.0155 -0.1788,-0.0224 -0.2813,-0.0207l-0.0018 0c-0.0974,-0.002 -0.2072,0.0059 -0.3292,0.0237 -0.1228,0.0179 -0.257,0.0458 -0.4026,0.0836zm-0.3301 0.7024l0.0993 0.4597 0.4313 -0.1118c0.0644,-0.0167 0.1208,-0.0392 0.169,-0.0673 0.0468,-0.0274 0.0856,-0.06 0.1162,-0.0978 0.0287,-0.0353 0.0453,-0.0704 0.0499,-0.1052 0.0045,-0.034 -0.0024,-0.0692 -0.0208,-0.1056 -0.0263,-0.0523 -0.0821,-0.0834 -0.1673,-0.0933 -0.097,-0.0111 -0.2281,0.0047 -0.3934,0.0476l-0.2842 0.0737zm0.0136 0.5308l-0.1203 -0.5562 -0.01 -0.0463 0.046 -0.0119 0.3302 -0.0856c0.1774,-0.046 0.3205,-0.0628 0.4293,-0.0502 0.1205,0.0139 0.2019,0.0629 0.2442,0.1469 0.0275,0.0545 0.0376,0.1088 0.0305,0.1629 -0.007,0.0533 -0.0308,0.1048 -0.0711,0.1547 -0.0385,0.0474 -0.0861,0.0877 -0.143,0.1209 -0.0554,0.0324 -0.1201,0.0582 -0.1941,0.0773l-0.4811 0.1248 -0.0498 0.013 -0.0108 -0.0503zm3.3896 -2.0302l-1.0771 0.2793 -0.6076 2.7027 0.9741 -0.2526 0.0416 -0.331 0.0042 -0.0333 0.0325 -0.0084 1.1131 -0.2887 0.0327 -0.0085 0.0197 0.0274 0.1939 0.2697 1.0009 -0.2596 -1.728 -2.097zm-0.466 1.7628l0.562 -0.1457 -0.4468 -0.6417 -0.1152 0.7874zm0.6555 -0.0681l-0.7028 0.1823 -0.072 0.0187 0.0107 -0.0736 0.144 -0.9846 0.0895 -0.021 0.5588 0.8023 0.0405 0.0581 -0.0687 0.0178zm2.9145 -1.3065l0.105 0.4436 0.4369 -0.1134 0.0668 -0.0173 -0.0051 0.0686c-0.004,0.0543 -0.0222,0.1072 -0.0545,0.1584 -0.0309,0.0489 -0.0747,0.0963 -0.1314,0.1421 -0.055,0.0444 -0.112,0.0819 -0.1711,0.1124 -0.0592,0.0305 -0.1206,0.054 -0.184,0.0704 -0.2031,0.0527 -0.3759,0.054 -0.5183,0.0038 -0.1454,-0.0513 -0.2573,-0.1549 -0.3358,-0.3107l-0.0023 -0.0056c-0.0239,-0.0664 -0.0437,-0.13 -0.0594,-0.1906 -0.0634,-0.2444 -0.0622,-0.4467 0.0036,-0.6068 0.0671,-0.1634 0.1995,-0.2806 0.3971,-0.3516 0.0309,-0.0111 0.0631,-0.021 0.0966,-0.0297 0.1577,-0.0409 0.2947,-0.0465 0.4108,-0.0169 0.1089,0.0279 0.1989,0.086 0.2699,0.1745l0.9644 -0.2501c-0.0388,-0.0688 -0.0849,-0.1309 -0.1381,-0.1862 -0.0638,-0.0662 -0.138,-0.1231 -0.2227,-0.1703 -0.0853,-0.0477 -0.1784,-0.0848 -0.279,-0.1114 -0.1013,-0.0268 -0.2102,-0.0429 -0.3266,-0.0483l-0.0006 0c-0.0687,-0.0039 -0.1343,-0.0051 -0.1966,-0.0036 -0.0613,0.0016 -0.121,0.006 -0.1791,0.0131 -0.0589,0.0073 -0.1208,0.0175 -0.1859,0.0306 -0.0664,0.0133 -0.1379,0.0299 -0.2145,0.0497 -0.1409,0.0366 -0.2718,0.0791 -0.3927,0.1277 -0.1204,0.0483 -0.2307,0.1025 -0.3307,0.1625 -0.0998,0.0599 -0.1897,0.1254 -0.2697,0.1963 -0.0795,0.0706 -0.1494,0.1469 -0.2097,0.2289 -0.1171,0.1592 -0.194,0.3255 -0.2304,0.499 -0.0364,0.1734 -0.0327,0.3548 0.0112,0.5441l0 0.0002 0.0296 0.1302 0.0659 0.141 0.0001 0c0.0655,0.1301 0.154,0.2405 0.2653,0.3312 0.112,0.0912 0.2476,0.1629 0.4067,0.2149 0.1601,0.0523 0.3329,0.0779 0.5183,0.0768 0.1867,-0.0012 0.3867,-0.0294 0.5997,-0.0847 0.2108,-0.0546 0.393,-0.1281 0.5466,-0.2204 0.1518,-0.0912 0.2757,-0.2012 0.3718,-0.3297l0.0498 -0.0667 0.0346 0.0758 0.0879 0.1921 0.621 -0.1611 -0.294 -1.283 -1.4274 0.3702zm3.1106 -2.1716c0.2537,-0.0658 0.4873,-0.1002 0.7006,-0.1031 0.215,-0.0029 0.4095,0.0261 0.5833,0.0871l0.0002 0c0.0825,0.0291 0.1612,0.0643 0.2361,0.1055 0.0749,0.0413 0.1461,0.0886 0.2135,0.142l0.0007 0.0006c0.0313,0.0259 0.0614,0.0533 0.0901,0.0825 0.0284,0.0287 0.0551,0.0586 0.08,0.0898 0.0251,0.0313 0.0491,0.065 0.0719,0.1011 0.0227,0.0358 0.0442,0.0739 0.0645,0.1141l0.0621 0.1234 0.0033 0.0081 0.0319 0.1056 0.0002 0.0012c0.0328,0.1205 0.0463,0.2425 0.0403,0.3659 -0.0059,0.1233 -0.0311,0.2479 -0.0756,0.3736 -0.0889,0.2513 -0.2618,0.4784 -0.5187,0.6812 -0.1278,0.1009 -0.2712,0.1889 -0.4302,0.2638 -0.1585,0.0747 -0.3329,0.1367 -0.5231,0.1861 -0.2569,0.0666 -0.4932,0.1012 -0.7089,0.1038 -0.2176,0.0027 -0.4141,-0.0273 -0.5894,-0.0897 -0.1754,-0.0624 -0.3251,-0.1448 -0.449,-0.247 -0.1248,-0.1029 -0.2231,-0.2256 -0.2948,-0.3681l-0.0027 -0.0065 -0.0317 -0.0946 0.0001 0 -0.0395 -0.1099 -0.0004 -0.0008 -0.0333 -0.0978 -0.0017 -0.0064c-0.0251,-0.1264 -0.0332,-0.2497 -0.0246,-0.3698 0.0088,-0.1203 0.0345,-0.2374 0.0772,-0.3511 0.0429,-0.1141 0.1072,-0.2248 0.193,-0.3322 0.085,-0.1065 0.1911,-0.2098 0.3181,-0.3097 0.1268,-0.0998 0.2703,-0.1872 0.4304,-0.2623 0.1593,-0.0746 0.3347,-0.1368 0.5261,-0.1864zm0.7017 -0.0045c-0.205,0.0028 -0.4307,0.0361 -0.6769,0.1 -0.1859,0.0482 -0.3556,0.1083 -0.5091,0.1802 -0.1526,0.0715 -0.2897,0.1551 -0.4111,0.2507 -0.1212,0.0953 -0.2219,0.1932 -0.3019,0.2935 -0.0794,0.0993 -0.1387,0.2012 -0.1779,0.3055 -0.0392,0.1045 -0.0629,0.2123 -0.071,0.3233 -0.008,0.1103 -0.0005,0.224 0.0224,0.3409l0.0322 0.0944 -0.0001 0.0001 0.0395 0.11 0.0004 0.001 0.0304 0.0909c0.0655,0.129 0.1548,0.2402 0.2678,0.3335 0.1149,0.0947 0.2546,0.1714 0.4193,0.23 0.1647,0.0586 0.3499,0.0867 0.5554,0.0843 0.2075,-0.0025 0.4359,-0.0361 0.6852,-0.1008 0.184,-0.0477 0.3526,-0.1077 0.5058,-0.1799 0.1527,-0.072 0.2898,-0.1559 0.4113,-0.2518 0.2417,-0.1908 0.4039,-0.4031 0.4865,-0.6368 0.0414,-0.1168 0.0648,-0.232 0.0703,-0.3453 0.0054,-0.1129 -0.0068,-0.2244 -0.0366,-0.3343l-0.0001 0 -0.0307 -0.1015 -0.0601 -0.1193c-0.0189,-0.0377 -0.0389,-0.073 -0.0598,-0.106 -0.0207,-0.0328 -0.0425,-0.0634 -0.0653,-0.0919 -0.0229,-0.0286 -0.0474,-0.0561 -0.0734,-0.0824 -0.0256,-0.0259 -0.0532,-0.0511 -0.0828,-0.0755l0.0001 -0.0001c-0.0627,-0.0496 -0.129,-0.0936 -0.1989,-0.1321 -0.0702,-0.0386 -0.144,-0.0716 -0.2214,-0.0989l0 -0.0001c-0.163,-0.0572 -0.3462,-0.0844 -0.5495,-0.0816zm-0.5447 0.7119c-0.0245,0.0063 -0.0486,0.0135 -0.0722,0.0215 -0.1781,0.0604 -0.2967,0.1608 -0.3556,0.3011 -0.0604,0.1438 -0.0605,0.3316 -0.0004,0.5634 0.0118,0.0455 0.0262,0.0933 0.0431,0.1433 0.07,0.1378 0.1616,0.2304 0.2748,0.278 0.115,0.0483 0.2544,0.0513 0.418,0.0089 0.1308,-0.034 0.2352,-0.0851 0.3132,-0.1534 0.0763,-0.0668 0.1279,-0.1509 0.1547,-0.2522 0.0278,-0.1051 0.0359,-0.2092 0.0243,-0.3122 -0.0116,-0.1032 -0.0431,-0.2058 -0.0944,-0.3076 -0.0331,-0.0657 -0.0726,-0.1216 -0.1184,-0.1677 -0.0453,-0.0456 -0.0972,-0.0819 -0.1556,-0.1089 -0.0577,-0.0266 -0.122,-0.0413 -0.1927,-0.0439 -0.0727,-0.0027 -0.1523,0.0072 -0.2388,0.0297zm-0.1039 -0.072c0.0247,-0.0084 0.0511,-0.0163 0.0791,-0.0235 0.0959,-0.0249 0.1849,-0.0358 0.2671,-0.0327 0.0842,0.0031 0.1611,0.0207 0.2306,0.0528 0.069,0.0318 0.1304,0.0748 0.1842,0.1289 0.0532,0.0536 0.0988,0.1179 0.1365,0.1929 0.0567,0.1124 0.0915,0.2262 0.1045,0.3412 0.0129,0.1151 0.0039,0.2312 -0.027,0.3481 -0.032,0.1207 -0.0937,0.2212 -0.1852,0.3013 -0.0897,0.0786 -0.2076,0.1368 -0.3535,0.1746 -0.1853,0.0481 -0.3457,0.0437 -0.481,-0.0131 -0.1362,-0.0573 -0.245,-0.1666 -0.3263,-0.3279l-0.0027 -0.0064c-0.0178,-0.0523 -0.0331,-0.1035 -0.0461,-0.1535 -0.0657,-0.2535 -0.0642,-0.4624 0.0047,-0.6264 0.0704,-0.1675 0.2088,-0.2863 0.4151,-0.3563z"/>
   </g>
  </g>
 </g>
</svg>
