<?xml version="1.0" encoding="UTF-8"?>
<!DOCTYPE svg PUBLIC "-//W3C//DTD SVG 1.1//EN" "http://www.w3.org/Graphics/SVG/1.1/DTD/svg11.dtd">
<!-- Creator: CorelDRAW -->
<svg xmlns="http://www.w3.org/2000/svg" xml:space="preserve" width="31.75mm" height="21.167mm" style="shape-rendering:geometricPrecision; text-rendering:geometricPrecision; image-rendering:optimizeQuality; fill-rule:evenodd; clip-rule:evenodd"
viewBox="0 0 31.75 21.167"
 xmlns:xlink="http://www.w3.org/1999/xlink">
 <defs>
  <style type="text/css">
   <![CDATA[
    .str0 {stroke:#C5C6C6;stroke-width:0.0762}
    .fil0 {fill:none}
    .fil1 {fill:white}
    .fil2 {fill:#144F98}
    .fil3 {fill:#FEFEFE}
   ]]>
  </style>
 </defs>
 <g id="Layer_x0020_1">
  <metadata id="CorelCorpID_0Corel-Layer"/>
  <g>
   <path class="fil0 str0" d="M1.0583 0.0002l29.6334 0c0.5843,0 1.0582,0.4739 1.0582,1.0583l0.0001 19.05c-0.0001,0.5842 -0.474,1.0581 -1.0584,1.0581l-29.6333 0.0002c-0.5843,-0.0002 -1.0582,-0.4741 -1.0582,-1.0585l-0.0001 -19.0498c0.0001,-0.5844 0.474,-1.0583 1.0584,-1.0583z"/>
   <path id="1" class="fil1" d="M1.0583 0.0002l29.6334 0c0.5843,0 1.0582,0.4739 1.0582,1.0583l0.0001 19.05c-0.0001,0.5842 -0.474,1.0581 -1.0584,1.0581l-29.6333 0.0002c-0.5843,-0.0002 -1.0582,-0.4741 -1.0582,-1.0585l-0.0001 -19.0498c0.0001,-0.5844 0.474,-1.0583 1.0584,-1.0583z"/>
  </g>
  <g>
   <g id="_382845616">
    <path id="_382845544" class="fil2" d="M15.1145 12.0671l0.5735 0 0 -0.9226c0,-0.2743 0.1497,-1.0223 0.6981,-1.0223 0.2744,0 0.3242,0.2743 0.3242,0.5485l0 1.3964 0.5486 0 0 -1.6208c0,-0.3241 -0.1995,-0.6732 -0.6484,-0.6732 -0.5735,0 -0.8227,0.4239 -0.9225,0.5984l0 -0.5485 -0.5735 0 0 2.2441z"/>
    <path id="_382845472" class="fil2" d="M10.1274 12.0671l0.798 0c0.4737,0 1.3964,0 1.3964,-0.798 0,-0.5235 -0.399,-0.6982 -0.7731,-0.748l0 -0.025c0.2743,-0.0498 0.6234,-0.2492 0.6234,-0.6731 0,-0.6234 -0.6732,-0.6982 -1.2467,-0.6982l-0.798 0 0 2.9423zm0.5735 -2.6681l0 0 0.2245 0c0.4238,0 0.6732,0.0749 0.6732,0.4738 0,0.399 -0.2742,0.4987 -0.6732,0.4987l-0.2245 0 0 -0.9725zm0 1.2717l0 0 0.2245 0c0.4488,0 0.8477,0.0998 0.8477,0.5486 0,0.5485 -0.4737,0.5736 -0.8477,0.5736l-0.2245 0 0 -1.1222z"/>
    <path id="_382845400" class="fil2" d="M29.0284 12.0671l0.5486 0 0 -1.0224c0,-0.5984 0.3242,-0.7479 0.8478,-0.7729l0 -0.4738c-0.4738,0.025 -0.6733,0.2993 -0.8478,0.5985l0 -0.5486 -0.5486 0 0 2.2192z"/>
    <path id="_382845328" class="fil2" d="M21.1239 12.1169c0.7729,0 1.172,-0.3989 1.172,-1.172 0,-0.7479 -0.3991,-1.1718 -1.172,-1.1718 -0.773,0 -1.147,0.4239 -1.147,1.1718 0,0.7731 0.374,1.172 1.147,1.172zm-0.5486 -1.172l0 0c0,-0.3989 0.0749,-0.9724 0.5486,-0.9724 0.4987,0 0.5735,0.5735 0.5735,0.9724 0,0.424 -0.0748,0.9726 -0.5735,0.9726 -0.4737,0 -0.5486,-0.5486 -0.5486,-0.9726z"/>
    <path id="_382845976" class="fil2" d="M14.0922 11.294c0,0.3742 -0.2743,0.5237 -0.4738,0.5237 -0.1746,0 -0.2992,-0.1246 -0.2992,-0.3241 0,-0.424 0.5486,-0.4489 0.773,-0.4738l0 0.2742zm0 0.7731l0 0 0.5485 0 0 -1.4464c0,-0.4237 -0.0748,-0.8476 -0.9225,-0.8476 -0.798,0 -0.9227,0.3491 -0.9726,0.6982l0.5985 0c0.025,-0.2743 0.0499,-0.4988 0.3741,-0.4988 0.374,0 0.374,0.399 0.374,0.6482l0 0.1996c-0.3491,0.025 -1.4463,0.0499 -1.4463,0.7481 0,0.2992 0.2992,0.5485 0.6982,0.5485 0.4239,0 0.6483,-0.2242 0.7481,-0.3491l0 0.2993z"/>
    <path id="_382846048" class="fil2" d="M19.6527 11.7929c-0.1496,0.0498 -0.2743,0.0747 -0.4489,0.0747 -0.6732,0 -0.9475,-0.6234 -0.9475,-1.172 0,-0.3988 0.1497,-0.7231 0.4737,-0.7231 0.3742,0 0.3742,0.3243 0.3742,0.5735l0.5984 0c0,-0.4487 -0.2244,-0.7729 -0.9477,-0.7729 -0.7729,0 -1.122,0.4239 -1.122,1.0971 0,0.8229 0.4987,1.2218 1.3466,1.2467 0.2743,0.0251 0.5236,-0.0747 0.748,-0.1745l-0.0748 -0.1495z"/>
    <path id="_382846120" class="fil2" d="M28.5795 11.7929c-0.1745,0.0747 -0.2991,0.0747 -0.4738,0.0747 -0.7979,0 -1.0221,-0.7231 -1.0221,-1.172l1.5708 0c0,-0.4238 -0.1746,-0.9225 -1.0224,-0.9225 -0.8229,0 -1.0971,0.4488 -1.0971,1.0722 0,0.8976 0.5735,1.2716 1.2966,1.2716 0.3242,0 0.5985,-0.0747 0.8229,-0.1496l-0.0749 -0.1744zm-1.4711 -1.3216l0 0c0,-0.1247 0.0747,-0.4988 0.5236,-0.4988 0.3991,0 0.4737,0.3243 0.4737,0.4988l-0.9973 0z"/>
    <path id="_382846192" class="fil2" d="M22.6699 12.0671l0.5237 0 0 -0.9226c0,-0.2245 0.0748,-0.9974 0.5734,-0.9974 0.2993,0 0.3242,0.2494 0.3242,0.5236l0 1.3964 0.5486 0 0 -0.9226c0,-0.2743 0.0749,-0.9974 0.5485,-0.9974 0.2744,0 0.3242,0.2244 0.3242,0.4736l0 1.4464 0.5486 0 0 -1.5211c0,-0.374 -0.0998,-0.748 -0.6484,-0.748 -0.4987,0 -0.698,0.374 -0.7729,0.5486l-0.0249 0c0,-0.2493 -0.1746,-0.5486 -0.6235,-0.5486 -0.4987,0 -0.723,0.399 -0.7729,0.5735l-0.0249 0 0 -0.5236 -0.5237 0 0 2.2192z"/>
    <polygon id="_382846264" class="fil2" points="1.3252,7.6286 8.6562,7.6286 8.6562,13.5384 1.3252,13.5384 "/>
    <path id="_382846336" class="fil3" d="M7.5092 9.5487c0.1496,0 0.1746,0.0499 0.2494,0.1995l0.6233 1.87 -0.5734 0 -0.1247 -0.4488 -0.7481 0 -0.1496 0.4488 -0.3242 0 0.6484 -2.0695 0.3989 0zm0.0748 1.3215l0 0 -0.5735 0 0.2992 -0.9475 0.2743 0.9475z"/>
    <path id="_382846408" class="fil3" d="M4.3424 11.6182l-0.8727 0 0 -2.0695 0.8976 0c0.4239,0 0.5736,0.3491 0.3491,0.6732l-0.0997 0.1496c0.7231,0.3491 0.4737,1.2467 -0.2743,1.2467zm-0.0997 -1.1469l0 0 0.1745 -0.2743c0.025,-0.0499 0.0499,-0.0997 0.0499,-0.1496 0,-0.1247 -0.1247,-0.2244 -0.2494,-0.2244l-0.2494 0 0 1.521 0.1248 0c0.2493,0 0.4488,-0.1247 0.4488,-0.4489 0,-0.2493 -0.1247,-0.399 -0.2992,-0.4238z"/>
    <path id="_382846480" class="fil3" d="M2.5969 11.6182l-0.8727 0 0 -2.0695 0.8976 0c0.4239,0 0.5736,0.3491 0.3491,0.6732l-0.0998 0.1496c0.7233,0.3491 0.4738,1.2467 -0.2742,1.2467zm-0.0997 -1.1469l0 0 0.1745 -0.2743c0.0249,-0.0499 0.0499,-0.0997 0.0499,-0.1496 0,-0.1247 -0.1247,-0.2244 -0.2494,-0.2244l-0.2493 0 0 1.521 0.1246 0c0.2494,0 0.4489,-0.1247 0.4489,-0.4489 0,-0.2493 -0.1247,-0.399 -0.2992,-0.4238z"/>
    <path id="_382846552" class="fil3" d="M6.3871 9.5487l0.3242 0 -0.6234 2.0695 -0.4987 0 -0.6733 -2.0695 0.3741 0c0.1246,0 0.1745,0.0249 0.2493,0.2743l0.374 1.2966 0.4738 -1.5709z"/>
    <polygon id="_382846624" class="fil2" points="7.584,10.8702 7.0105,10.8702 7.3097,9.9227 "/>
   </g>
  </g>
 </g>
</svg>
