<svg id="a10014e4-58af-4f20-8ff5-0d746cf13d43" data-name="Ebene 1" xmlns="http://www.w3.org/2000/svg" xmlns:xlink="http://www.w3.org/1999/xlink" width="120" height="80" viewBox="0 0 120 80">
  <defs>
    <linearGradient id="a41ba758-0c68-449e-ac36-ee588c66791c" data-name="Unbenannter Verlauf 2" x1="15.794" y1="51.0754" x2="32.8937" y2="33.9757" gradientTransform="matrix(1, 0, 0, -1, 0, 82)" gradientUnits="userSpaceOnUse">
      <stop offset="0" stop-color="#11aae2"/>
      <stop offset="1" stop-color="#016197"/>
    </linearGradient>
  </defs>
  <rect width="120" height="80" rx="4" style="fill: #fff"/>
  <g>
    <g>
      <path d="M46.2694,36.4472a5.232,5.232,0,0,0-1.4022-.1418c-1.7015,0-3.5134,1.3707-3.5134,3.0723V47.46h-3.86V33.0283h3.734v1.45a5.4027,5.4027,0,0,1,4.1909-1.7488,7.3513,7.3513,0,0,1,1.3076.126Z" style="fill: #444d55"/>
      <path d="M50.6494,25.45a2.474,2.474,0,1,1-2.5208,2.4736A2.4685,2.4685,0,0,1,50.6494,25.45Zm1.9221,21.9784h-3.86v-14.4h3.86Z" style="fill: #444d55"/>
      <path d="M63.9782,32.729a6.6492,6.6492,0,0,0-4.2223,1.45V33.0126H56.0376V54.55h3.86V46.4044a6.0564,6.0564,0,0,0,3.86,1.3077,7.2676,7.2676,0,0,0,5.4671-2.442,7.6857,7.6857,0,0,0,1.8118-5.0574A7.1988,7.1988,0,0,0,63.9782,32.729ZM63.5213,44.23a3.97,3.97,0,1,1,0-7.94,3.98,3.98,0,0,1,0,7.9405Z" style="fill: #444d55"/>
      <path d="M94.4959,47.4285h-3.86V26.3324h3.86Z" style="fill: #444d55"/>
      <path d="M110.2511,45.144a7.8066,7.8066,0,0,1-5.9082,2.5839,7.2131,7.2131,0,0,1-7.5467-7.4837c0-4.0176,2.7414-7.5152,7.011-7.5152,3.9861,0,6.8063,3.3558,6.8062,7.3734a5.9971,5.9971,0,0,1-.0945,1.1029H100.53a3.7864,3.7864,0,0,0,3.8916,3.4188,5.0278,5.0278,0,0,0,3.6236-1.67Zm-3.5922-6.7747a2.8751,2.8751,0,0,0-2.8517-2.5208,3.1132,3.1132,0,0,0-3.088,2.5208Z" style="fill: #444d55"/>
      <path d="M81.2774,32.729a6.65,6.65,0,0,0-4.2224,1.45V33.0126H73.3368V54.55h3.86V46.4045a6.0567,6.0567,0,0,0,3.86,1.3076,7.2674,7.2674,0,0,0,5.467-2.442,7.6853,7.6853,0,0,0,1.8119-5.0574A7.1989,7.1989,0,0,0,81.2774,32.729ZM80.8047,44.23a3.97,3.97,0,1,1,0-7.94,3.98,3.98,0,0,1,0,7.9405Z" style="fill: #444d55"/>
    </g>
    <path d="M29.5532,42.1821a5.9114,5.9114,0,0,0-2.82-.6775,2.0011,2.0011,0,0,1-2.0324-2.0324A2.0579,2.0579,0,0,1,26.733,37.44a5.8679,5.8679,0,0,0,2.82-.6775,5.1493,5.1493,0,1,0-5.1519-8.9174,5.0724,5.0724,0,0,0-2.5838,4.4429,6.0838,6.0838,0,0,0,.8035,2.7729,2.0185,2.0185,0,0,1-.74,2.8045,2.0632,2.0632,0,0,1-2.7887-.7563,5.7519,5.7519,0,0,0-2.0009-2.08,5.1836,5.1836,0,0,0-5.1519,0,5.141,5.141,0,0,0,.0315,8.9017,5.1836,5.1836,0,0,0,5.1519,0,6.0169,6.0169,0,0,0,2.0009-2.08,2.0066,2.0066,0,0,1,2.7887-.772,2.0569,2.0569,0,0,1,.7247,2.8044,5.846,5.846,0,0,0-.8035,2.7729,5.1441,5.1441,0,1,0,7.72-4.4744Z" style="fill: url(#a41ba758-0c68-449e-ac36-ee588c66791c)"/>
  </g>
</svg>
