<?xml version="1.0" encoding="UTF-8"?>
<!DOCTYPE svg PUBLIC "-//W3C//DTD SVG 1.1//EN" "http://www.w3.org/Graphics/SVG/1.1/DTD/svg11.dtd">
<!-- Creator: CorelDRAW -->
<svg xmlns="http://www.w3.org/2000/svg" xml:space="preserve" width="31.75mm" height="21.167mm" style="shape-rendering:geometricPrecision; text-rendering:geometricPrecision; image-rendering:optimizeQuality; fill-rule:evenodd; clip-rule:evenodd"
viewBox="0 0 31.75 21.167"
 xmlns:xlink="http://www.w3.org/1999/xlink">
 <defs>
  <style type="text/css">
   <![CDATA[
    .str0 {stroke:#C5C6C6;stroke-width:0.0762}
    .fil0 {fill:none}
    .fil1 {fill:#E41D2D}
    .fil3 {fill:#263551}
    .fil4 {fill:#DBCAA4}
    .fil5 {fill:#FAB633}
    .fil2 {fill:#263551;fill-rule:nonzero}
   ]]>
  </style>
 </defs>
 <g id="Layer_x0020_1">
  <metadata id="CorelCorpID_0Corel-Layer"/>
  <g>
   <path class="fil0 str0" d="M1.0583 0.0002l29.6334 0c0.5843,0 1.0582,0.4739 1.0582,1.0583l0.0001 19.05c-0.0001,0.5842 -0.474,1.0581 -1.0584,1.0581l-29.6333 0.0002c-0.5843,-0.0002 -1.0582,-0.4741 -1.0582,-1.0585l-0.0001 -19.0498c0.0001,-0.5844 0.474,-1.0583 1.0584,-1.0583z"/>
  </g>
  <g>
   <path class="fil1" d="M29.3506 14.0231l-0.0008 -0.0328 -0.0027 -0.0306 -0.0038 -0.0277 -0.0059 -0.0262 -0.0066 -0.0233 -0.0093 -0.0219 -0.0012 -0.0022 -0.009 -0.0167 -0.0117 -0.0175 -0.0132 -0.0146 -0.0151 -0.0138 -0.0163 -0.0109 -0.0181 -0.0088 -0.0189 -0.0065 -0.0205 -0.0051 -0.0225 -0.003 -0.0232 -0.0007 -0.024 0 -0.0242 0.0029 -0.0225 0.0044 -0.0226 0.0058 -0.022 0.008 -0.0211 0.0095 -0.0211 0.0117 -0.0203 0.0138 -0.0197 0.0153 -0.019 0.0175 -0.0086 0.0087 -0.0103 0.0102 -0.0182 0.0219 -0.0175 0.0233 -0.0168 0.0255 -0.0166 0.0284 -0.0162 0.0299 -0.0167 -0.0022 0.0059 -0.0182 0.0051 -0.0175 0.0051 -0.016 0.0044 -0.0153 0.0042 -0.0146 0.0045 -0.0138 0.0037 -0.0132 0.0036 -0.0123 0.0028 -0.0124 0.001 -0.0037 0.0048 -0.0204 0.0052 -0.0226 0.0029 -0.0123 0.0043 -0.0241 -0.2098 0 -0.0035 0.0204 -0.0031 0.0219 -0.0035 0.0226 -0.0028 0.0145 -0.0016 0.008 -0.0044 0.0241 -0.0043 0.0247 -0.0044 0.0248 -0.0044 0.0255 -0.0051 0.0263 -0.0051 0.0269 -0.005 0.0262 -0.0051 0.027 -0.0051 0.0276 -0.0053 0.027 -0.0051 0.0277 -0.0049 0.0277 -0.0408 0.2107 -0.1043 0.5411 0.2134 0 0.0475 -0.2521 0.0022 -0.0153 0.0007 -0.0153 0.0007 -0.0138 0 -0.0131 0.0124 0 0.013 0.0022 0.0132 0.0021 0.0124 0.003 0.0124 0.0007 0.0174 0.0015 0.0124 0.0007 0.0729 -0.0029 0.0628 -0.0103 0.0574 -0.0159 0.0539 -0.0219 0.0488 -0.027 0.0445 -0.032 0.04 -0.0365 0.0357 -0.04 0.0313 -0.0445 0.006 -0.0107 0.0211 -0.0373 0.0232 -0.0496 0.0182 -0.0539 0.0146 -0.0546 0.0095 -0.0576 0.0065 -0.0575 0.0022 -0.059zm-0.2193 0.0408l-0.0014 0.0328 -0.0029 0.0342 -0.0059 0.0349 -0.0073 0.0343 -0.0102 0.0342 -0.0117 0.0336 -0.0139 0.032 -0.0166 0.0306 -0.019 0.0284 -0.0212 0.0255 -0.008 0.0082 -0.0152 0.0152 -0.0256 0.0188 -0.0276 0.0168 -0.0306 0.0116 -0.0326 0.0081 -0.0352 0.0022 -0.0174 -0.0008 -0.0124 -0.0014 -0.0131 -0.0007 -0.0123 -0.003 -0.0175 -0.0029 -0.0174 -0.0044 0.0057 -0.056 0.0006 -0.0035 0.0065 -0.0308 0.0104 -0.0349 0.0124 -0.0372 0.0146 -0.0379 0.0167 -0.0372 0.0175 -0.0371 0.0196 -0.0364 0.0213 -0.035 0.0216 -0.0328 0.0221 -0.0306 0.0232 -0.027 0.0239 -0.0233 0.0236 -0.0196 0.0239 -0.0139 0.0232 -0.0087 0.0234 -0.0029 0.0139 0.0007 0.0131 0.0051 0.0161 0.0146 0.0079 0.0138 0.0065 0.0183 0.0044 0.0218 0.0015 0.0131 0.0007 0.0139 0.0007 0.0153zm-0.6681 -0.2055l0.0154 -0.0794 -0.3373 0 -0.0145 0.0794 -0.016 0.0889 0.0902 0 0.0153 -0.0014 0.0132 -0.0037 0.0123 -0.0036 -0.0043 0.0123 -0.0058 0.0161 -0.0051 0.0145 -0.0103 0.0481 -0.0109 0.0386 -0.0132 0.0387 -0.0153 0.04 -0.0166 0.0386 -0.0183 0.0379 -0.0204 0.0364 -0.0205 0.0357 -0.0217 0.0328 -0.0225 0.0291 -0.0234 0.027 -0.0082 0.0082 -0.0152 0.0152 -0.0232 0.0181 -0.0226 0.0139 -0.0225 0.0087 -0.0219 0.0036 -0.0183 -0.0029 -0.0152 -0.0058 -0.016 -0.0175 -0.0073 -0.0175 -0.0015 -0.0158 -0.0007 -0.0068 0 -0.0138 0 -0.0138 0.0022 -0.0161 0.0021 -0.0174 0.0036 -0.0182 0.0867 -0.4481 0.0153 -0.0794 -0.3351 0 -0.0145 0.0794 -0.0161 0.0889 0.0904 0 0.0146 -0.0014 0.0132 -0.0037 0.0123 -0.0036 -0.006 0.0123 -0.0057 0.0154 -0.0044 0.0138 -0.0735 0.3788 -0.0051 0.0299 -0.0004 0.0038 -0.0025 0.0253 -0.0009 0.0277 0.0016 0.0255 0.0028 0.0248 0.0053 0.0233 0.0073 0.0211 0.01 0.0189 0.0117 0.0182 0.0146 0.0153 0.016 0.0131 0.0197 0.0117 0.0211 0.0088 0.0241 0.0066 0.0269 0.0036 0.0299 0.0014 0.0291 -0.0014 0.0292 -0.0044 0.0269 -0.0073 0.0261 -0.0095 0.0256 -0.0123 0.0241 -0.0139 0.0234 -0.0168 0.0217 -0.0181 0.0212 -0.0204 0.0204 -0.0219 0.019 -0.0226 0.0181 -0.0248 0.0174 -0.0255 0.0168 -0.0269 0.0111 -0.0195 -0.0001 0 0.0043 -0.0075 0.0145 -0.0277 0.0177 0.0015 -0.0097 0.0233 -0.0039 0.0104 -0.0047 0.0122 -0.008 0.0211 -0.0073 0.0205 -0.0073 0.0196 -0.0058 0.0182 -0.0059 0.0175 -0.0051 0.0168 -0.0042 0.0153 -0.0046 0.0145 -0.0035 0.0138 -0.003 0.0132 -0.0028 0.0123 -0.0053 0.0219 0.207 0.0102 0.0029 -0.0204 0.0038 -0.0219 0.0035 -0.0232 0.0051 -0.0241 0.0044 -0.0255 0.0051 -0.027 0.0044 -0.0262 0.005 -0.0277 0.0051 -0.0276 0.0007 -0.0035 0.0045 -0.0235 0.0051 -0.027 0.005 -0.0262 0.0044 -0.0262 0.0052 -0.0248 0.0043 -0.024 0.0044 -0.0219 0.0698 -0.3606zm-0.9521 0.2732l0.0038 -0.0634 -0.0015 -0.032 -0.0038 -0.0313 -0.0058 -0.0299 -0.0079 -0.0277 -0.011 -0.0269 -0.0131 -0.0256 -0.0161 -0.0232 -0.0117 -0.0132 -0.0071 -0.008 -0.0212 -0.0197 -0.0239 -0.0174 -0.0276 -0.0146 -0.0301 -0.0131 -0.0333 -0.0102 -0.0367 -0.0073 -0.0391 -0.0044 -0.0424 -0.0014 -0.0511 0.0022 -0.0495 0.0079 -0.0479 0.0125 -0.0467 0.0174 -0.0437 0.0219 -0.0422 0.0262 -0.0099 0.008 -0.0296 0.0233 -0.0363 0.035 -0.0336 0.0394 -0.0298 0.043 -0.0263 0.0473 -0.0217 0.051 -0.0176 0.0546 -0.0131 0.0576 -0.0079 0.0612 -0.0024 0.0648 0.0008 0.0335 0.0029 0.0235 0.0007 0.0078 0.0059 0.0306 0.0087 0.0284 0.0103 0.027 0.0137 0.0248 0.0161 0.0226 0.0189 0.0211 0.0211 0.0182 0.0242 0.016 0.0276 0.0146 0.0298 0.0116 0.0329 0.0088 0.0358 0.0065 0.0384 0.0037 0.0423 0.0022 0.0488 -0.0029 0.0488 -0.0073 0.0482 -0.0132 0.0457 -0.0174 0.0445 -0.0212 0.0424 -0.0269 0.0391 -0.0306 0.0373 -0.035 0.0336 -0.0393 0.0305 -0.0423 0.0045 -0.0078 0.0225 -0.0395 0.0225 -0.0503 0.0181 -0.0532 0.0131 -0.0576 0.0081 -0.0604zm-0.2214 -0.0357l-0.0013 0.0342 -0.0038 0.0343 -0.0066 0.0335 -0.008 0.0321 -0.0101 0.0306 -0.0117 0.0291 -0.0146 0.0277 -0.0159 0.0254 -0.0183 0.0234 -0.0197 0.0211 -0.0061 0.0053 -0.0151 0.0129 -0.0225 0.0154 -0.0239 0.0131 -0.025 0.0087 -0.0269 0.0058 -0.0277 0.0022 -0.0181 -0.0015 -0.0168 -0.0014 -0.0146 -0.0037 -0.0139 -0.0043 -0.0123 -0.0058 -0.0213 -0.0153 -0.0159 -0.019 -0.0037 -0.0071 -0.0086 -0.0162 -0.0036 -0.0131 -0.0029 -0.0139 -0.0031 -0.0153 -0.0013 -0.016 0 -0.016 0.0007 -0.0321 0.0037 -0.0313 0.0049 -0.0321 0.0073 -0.0313 0.0102 -0.0299 0.0117 -0.0291 0.013 -0.0284 0.0154 -0.0262 0.0175 -0.0248 0.0197 -0.0219 0.0204 -0.0196 0.0225 -0.0168 0.0241 -0.0138 0.0263 -0.0102 0.0269 -0.0058 0.0291 -0.0015 0.0175 0 0.0168 0.0022 0.0153 0.0029 0.0137 0.0037 0.0132 0.0058 0.0212 0.0138 0.0166 0.0189 0.0132 0.0234 0.0045 0.0131 0.0035 0.0146 0.0023 0.016 0.0008 0.016 0.0013 0.0182zm-0.5952 -0.2375l0.0211 -0.0961 -0.0225 -0.003 -0.0219 -0.0007 -0.0218 0.0022 -0.0204 0.0044 -0.0205 0.0065 -0.0197 0.0088 -0.0189 0.0117 -0.0188 0.0138 -0.0191 0.016 -0.0174 0.0182 -0.0162 0.0182 -0.002 0.0022 -0.0174 0.0233 -0.0176 0.0255 -0.0168 0.0269 -0.0175 0.03 -0.0166 0.0328 -0.017 0 0.0053 -0.0176 0.0058 -0.0167 0.0051 -0.0153 0.0052 -0.0153 0.0042 -0.0146 0.0045 -0.0138 0.0043 -0.0138 0.0043 -0.0139 0.0038 -0.0131 0.0019 -0.0066 0.0016 -0.0058 0.0038 -0.0124 0.0028 -0.0124 0.0029 -0.0124 0.003 -0.0123 0.0049 -0.0241 -0.2061 0 -0.0035 0.0211 -0.0038 0.0226 -0.0043 0.0233 -0.0022 0.0124 -0.0021 0.0124 -0.0038 0.0255 -0.0049 0.0262 -0.0052 0.027 -0.0043 0.0262 -0.0051 0.0269 -0.0052 0.027 -0.0051 0.027 -0.0051 0.0262 -0.0049 0.0255 -0.0051 0.0248 -0.0046 0.024 -0.0042 0.0226 -0.0414 0.2129 -0.0439 0.2271 0.2135 0 0.0356 -0.1829 0.0091 -0.0442 0.0019 -0.0089 0.0137 -0.0503 0.0154 -0.0488 0.0168 -0.0459 0.0189 -0.0445 0.0198 -0.04 0.021 -0.0379 0.0219 -0.0342 0.0225 -0.0299 0.0234 -0.0262 0.0241 -0.0226 0.0239 -0.0168 0.0241 -0.0123 0.024 -0.0066 0.0239 -0.0014 0.0242 0.0043 0.0247 -0.1122zm-0.6478 0l0.0133 -0.0692 -0.0189 -0.0036 -0.0175 -0.0029 -0.0183 -0.0022 -0.0189 -0.0029 -0.0182 -0.0022 -0.0182 -0.0022 -0.019 -0.0022 -0.0181 -0.0014 -0.0197 -0.0015 -0.0189 -0.0015 -0.019 -0.0007 -0.0189 -0.0007 -0.0189 -0.0007 -0.0197 0 -0.019 0 -0.019 0 -0.0669 0.0029 -0.0626 0.0095 -0.0583 0.0159 -0.0533 0.0219 -0.0495 0.027 -0.0231 0.0167 -0.0213 0.0153 -0.04 0.0365 -0.0358 0.0407 -0.0314 0.0445 -0.0267 0.0473 -0.0236 0.0503 -0.0181 0.0532 -0.0138 0.0554 -0.011 0.0568 -0.0058 0.0582 -0.0022 0.0591 0.0004 0.0169 0.0003 0.0158 0.0031 0.0299 0.0035 0.0284 0.0058 0.0255 0.0073 0.0241 0.0088 0.0211 0.0102 0.0197 0.0115 0.0174 0.0139 0.0146 0.0146 0.0131 0.0168 0.0109 0.0174 0.0088 0.0197 0.0073 0.0205 0.0051 0.0225 0.0022 0.0233 0.0014 0.0284 -0.0014 0.0285 -0.0044 0.0262 -0.0073 0.0262 -0.0095 0.0241 -0.0116 0.0233 -0.0139 0.0225 -0.0153 0.0212 -0.0174 0.0197 -0.019 0.0196 -0.0196 0.0175 -0.0212 0.0167 -0.0218 0.0162 -0.0219 0.0152 -0.0226 0.0138 -0.0226 0.0092 -0.0158 0.004 -0.0068 0.0181 0.0022 -0.0019 0.0046 -0.0075 0.018 -0.0052 0.0131 -0.0051 0.0124 -0.0059 0.0131 -0.0042 0.0132 -0.0051 0.0131 -0.0053 0.0138 -0.0042 0.0138 -0.0044 0.0124 -0.0042 0.0131 -0.0046 0.0131 -0.0034 0.0125 -0.0059 0.0225 -0.0104 0.0394 -0.0086 0.0262 -0.0102 0.024 -0.0109 0.0211 -0.0125 0.0197 -0.0138 0.0175 -0.0152 0.0153 -0.0168 0.0131 -0.0176 0.0109 -0.0197 0.0102 -0.0208 0.0081 -0.0228 0.0058 -0.024 0.0051 -0.0255 0.0029 -0.0271 0.0015 -0.029 0.0014 -0.0291 -0.0007 -0.0263 -0.0015 -0.0247 -0.0014 -0.0226 -0.0022 -0.021 -0.0029 -0.0197 -0.003 -0.0177 -0.0029 -0.0159 -0.0036 -0.0139 -0.0037 -0.0124 -0.0029 -0.0189 -0.0058 -0.0138 -0.0051 -0.0466 0.1836 0.0124 0.0043 0.013 0.003 0.0131 0.0036 0.0138 0.0037 0.0138 0.0029 0.0146 0.0036 0.0154 0.0022 0.0153 0.0022 0.0153 0.0022 0.016 0.0021 0.0162 0.0015 0.0166 0.0015 0.0167 0.0007 0.0176 0.0015 0.0174 0 0.0175 0.0007 0.0596 -0.0022 0.0563 -0.0044 0.0509 -0.008 0.0481 -0.0109 0.0438 -0.0139 0.04 -0.0174 0.0373 -0.019 0.0333 -0.0226 0.0292 -0.0247 0.0268 -0.0284 0.0235 -0.0299 0.0204 -0.0335 0.0175 -0.0349 0.0144 -0.038 0.0126 -0.04 0.0093 -0.0416 0.043 -0.2205 0.104 -0.5342zm-0.2292 0.0867l-0.0103 0.054 -0.0079 0.0342 -0.0101 0.0364 -0.0124 0.0372 -0.0146 0.0371 -0.0162 0.0386 -0.0189 0.0379 -0.0196 0.0364 -0.0204 0.0349 -0.0226 0.0329 -0.0225 0.0306 -0.0235 0.0269 -0.0104 0.0104 -0.0129 0.0129 -0.0239 0.0197 -0.0234 0.0138 -0.0239 0.0095 -0.0227 0.0036 -0.0153 -0.0022 -0.0131 -0.005 -0.0161 -0.0139 -0.0079 -0.0146 -0.006 -0.0175 -0.0012 -0.0063 -0.003 -0.0155 -0.0008 -0.0131 -0.0016 -0.0139 0 -0.0145 0.0016 -0.0335 0.003 -0.0342 0.0051 -0.035 0.008 -0.0342 0.0093 -0.0343 0.0117 -0.0335 0.0146 -0.0321 0.0167 -0.0306 0.0184 -0.0284 0.021 -0.0262 0.0232 -0.0226 0.0263 -0.0196 0.0278 -0.0168 0.0305 -0.0117 0.0336 -0.0073 0.0356 -0.0021 0.0132 0 0.0131 0.0007 0.0132 0.0007 0.0173 0.0022 0.0167 0.0029 0.0162 0.0037 0.0051 0.0014zm-0.9442 0.1865l0.0029 -0.0634 -0.0014 -0.032 -0.0037 -0.0313 -0.0058 -0.0299 -0.008 -0.0277 -0.0103 -0.0269 -0.0138 -0.0256 -0.016 -0.0232 -0.0118 -0.0132 -0.0071 -0.008 -0.0212 -0.0197 -0.024 -0.0174 -0.0277 -0.0146 -0.0298 -0.0131 -0.0336 -0.0102 -0.0364 -0.0073 -0.0394 -0.0044 -0.0429 -0.0014 -0.051 0.0022 -0.0488 0.0079 -0.048 0.0125 -0.0466 0.0174 -0.0439 0.0219 -0.0422 0.0262 -0.0099 0.008 -0.0293 0.0233 -0.0364 0.035 -0.0336 0.0394 -0.0298 0.043 -0.0263 0.0473 -0.0219 0.051 -0.0175 0.0546 -0.0132 0.0576 -0.0071 0.0612 -0.0029 0.0648 0.0007 0.0335 0.0026 0.0235 0.001 0.0078 0.0057 0.0306 0.0089 0.0284 0.0109 0.027 0.0131 0.0248 0.0159 0.0226 0.0192 0.0211 0.0217 0.0182 0.0241 0.016 0.0269 0.0146 0.0299 0.0116 0.0327 0.0088 0.0357 0.0065 0.0394 0.0037 0.0422 0.0022 0.0489 -0.0029 0.0488 -0.0073 0.0481 -0.0132 0.0458 -0.0174 0.0446 -0.0212 0.0415 -0.0269 0.04 -0.0306 0.0371 -0.035 0.0336 -0.0393 0.0306 -0.0423 0.0044 -0.0078 0.0225 -0.0395 0.0218 -0.0503 0.0182 -0.0532 0.0139 -0.0576 0.008 -0.0604zm-0.2221 -0.0357l-0.0007 0.0342 -0.0037 0.0343 -0.0066 0.0335 -0.008 0.0321 -0.0101 0.0306 -0.0124 0.0291 -0.0139 0.0277 -0.016 0.0254 -0.0183 0.0234 -0.0196 0.0211 -0.0062 0.0053 -0.0149 0.0129 -0.0227 0.0154 -0.0241 0.0131 -0.0254 0.0087 -0.027 0.0058 -0.0276 0.0022 -0.0181 -0.0015 -0.0162 -0.0014 -0.0152 -0.0037 -0.0139 -0.0043 -0.0124 -0.0058 -0.0212 -0.0153 -0.0159 -0.019 -0.0036 -0.0071 -0.0081 -0.0162 -0.0044 -0.0131 -0.0029 -0.0139 -0.0022 -0.0153 -0.002 -0.016 0 -0.016 0.0006 -0.0321 0.0036 -0.0313 0.0051 -0.0321 0.0081 -0.0313 0.0095 -0.0299 0.0109 -0.0291 0.0137 -0.0284 0.0154 -0.0262 0.0175 -0.0248 0.0188 -0.0219 0.0212 -0.0196 0.0225 -0.0168 0.0241 -0.0138 0.0256 -0.0102 0.0277 -0.0058 0.0291 -0.0015 0.0181 0 0.0168 0.0022 0.0146 0.0029 0.0138 0.0037 0.0132 0.0058 0.0219 0.0138 0.0167 0.0189 0.0124 0.0234 0.0044 0.0131 0.0036 0.0146 0.0022 0.016 0.0015 0.016 0.0007 0.0182zm-0.7621 -0.314l-0.0124 0.0037 0.0051 -0.0132 0.0045 -0.0138 0.0035 -0.0146 0.0344 -0.1843 -0.2266 0.0511 -0.047 0.2476 -0.0929 0.4903 -0.0065 0.0364 -0.0009 0.0075 -0.0028 0.0261 -0.0016 0.0312 0.0007 0.0285 0.0031 0.0262 0.0058 0.0233 0.0081 0.0211 0.01 0.019 0.0132 0.0167 0.0153 0.0132 0.0183 0.0123 0.0217 0.0095 0.0234 0.0073 0.0269 0.0051 0.0299 0.0029 0.0327 0.0015 0.0205 -0.0008 0.0212 -0.0014 0.0217 -0.0014 0.0219 -0.003 0.0225 -0.0029 0.0228 -0.0037 0.0218 -0.0044 0.0219 -0.0051 0.0204 -0.1719 -0.0177 0.003 -0.0122 0.0022 -0.0124 0.0021 -0.0132 0.0015 -0.0131 0.0014 -0.0145 0.0008 -0.0153 0 -0.0197 0 -0.0211 -0.003 -0.0168 -0.0058 -0.016 -0.0167 -0.005 -0.0175 -0.0013 -0.0173 -0.0003 -0.0046 0.0009 -0.0131 0.0014 -0.0153 0.0021 -0.0168 0.0036 -0.0174 0.0649 -0.3402 0.0014 -0.0138 0 -0.0139 0 -0.0138 0.0132 0.0007 0.0146 0.0029 0.0137 0.0007 0.1545 0 0.0181 -0.0896 0.0161 -0.0794 -0.1602 0 -0.0124 0.0007 -0.0139 0.0022zm-0.5201 0.0008l-0.0131 0.0029 0.0044 -0.0139 0.0043 -0.0145 0.0379 -0.1923 -0.2207 0.0459 -0.0276 0.1413 -0.0016 0.0131 0 0.0124 -0.0139 0.0036 -0.0145 -0.0022 -0.0961 0 -0.0161 0.0794 -0.0181 0.0889 0.0903 0 0.0146 -0.0014 0.0131 -0.0022 0.0123 -0.0037 -0.0064 0.0139 -0.0052 0.016 -0.0044 0.0139 -0.0685 0.3649 -0.0066 0.0364 -0.001 0.0075 -0.0033 0.0261 -0.0014 0.0312 0 0.0285 0.0036 0.0262 0.0044 0.0233 0.008 0.0211 0.0101 0.019 0.0132 0.0167 0.0152 0.0132 0.0183 0.0123 0.0211 0.0095 0.0233 0.0073 0.027 0.0051 0.0298 0.0029 0.0328 0.0015 0.0204 -0.0008 0.0205 -0.0014 0.0218 -0.0014 0.0225 -0.003 0.0219 -0.0029 0.0228 -0.0037 0.0217 -0.0044 0.0219 -0.0051 0.0202 -0.1719 -0.0174 0.003 -0.0181 0.0036 -0.0124 0.0014 -0.0139 0.0015 -0.0139 0.0015 -0.0144 0 -0.0153 0.0007 -0.0125 -0.0007 -0.0212 -0.003 -0.0159 -0.0058 -0.016 -0.0167 -0.006 -0.0175 -0.0011 -0.0173 -0.0003 -0.0046 0.0014 -0.0131 0.0016 -0.0153 0.0021 -0.0168 0.0036 -0.0174 0.0643 -0.3402 0.0014 -0.0131 0 -0.0146 -0.0007 -0.0138 0.0131 0 0.0145 0.0022 0.0133 0.0007 0.1476 0.0007 0.0178 -0.0889 0.0158 -0.0794 -0.1472 0 -0.0153 0.0015 -0.0138 0.0022zm-0.4554 0.3489l0.0038 -0.0634 -0.0015 -0.032 -0.0037 -0.0313 -0.0059 -0.0299 -0.0079 -0.0277 -0.0109 -0.0269 -0.0131 -0.0256 -0.016 -0.0232 -0.0114 -0.0132 -0.0069 -0.008 -0.0218 -0.0197 -0.0241 -0.0174 -0.0276 -0.0146 -0.03 -0.0131 -0.0335 -0.0102 -0.0357 -0.0073 -0.04 -0.0044 -0.0422 -0.0014 -0.0509 0.0022 -0.0497 0.0079 -0.0482 0.0125 -0.0458 0.0174 -0.0451 0.0219 -0.0422 0.0262 -0.01 0.008 -0.0294 0.0233 -0.0357 0.035 -0.0335 0.0394 -0.0299 0.043 -0.0262 0.0473 -0.0219 0.051 -0.0182 0.0546 -0.0123 0.0576 -0.008 0.0612 -0.003 0.0648 0.0014 0.0335 0.0027 0.0235 0.0011 0.0078 0.0058 0.0306 0.008 0.0284 0.0116 0.027 0.0131 0.0248 0.0161 0.0226 0.0188 0.0211 0.0212 0.0182 0.0241 0.016 0.0277 0.0146 0.0298 0.0116 0.0328 0.0088 0.0357 0.0065 0.0386 0.0037 0.0422 0.0022 0.0496 -0.0029 0.0488 -0.0073 0.0474 -0.0132 0.0459 -0.0174 0.0444 -0.0212 0.043 -0.0269 0.0394 -0.0306 0.0364 -0.035 0.0342 -0.0393 0.0306 -0.0423 0.0043 -0.0078 0.0219 -0.0395 0.0226 -0.0503 0.0181 -0.0532 0.0132 -0.0576 0.0079 -0.0604zm-0.2206 -0.0357l-0.0015 0.0342 -0.0037 0.0343 -0.0065 0.0335 -0.008 0.0321 -0.0102 0.0306 -0.0124 0.0291 -0.0138 0.0277 -0.016 0.0254 -0.0183 0.0234 -0.0197 0.0211 -0.006 0.0053 -0.0151 0.0129 -0.0225 0.0154 -0.024 0.0131 -0.0256 0.0087 -0.0269 0.0058 -0.0278 0.0022 -0.0181 -0.0015 -0.016 -0.0014 -0.0154 -0.0037 -0.0138 -0.0043 -0.0123 -0.0058 -0.0211 -0.0153 -0.0162 -0.019 -0.0034 -0.0071 -0.0081 -0.0162 -0.0045 -0.0131 -0.0037 -0.0139 -0.0021 -0.0153 -0.0014 -0.016 0 -0.016 0.0007 -0.0321 0.0028 -0.0313 0.0059 -0.0321 0.0073 -0.0313 0.0102 -0.0299 0.0116 -0.0291 0.0131 -0.0284 0.0153 -0.0262 0.0176 -0.0248 0.0189 -0.0219 0.0204 -0.0196 0.0233 -0.0168 0.024 -0.0138 0.0256 -0.0102 0.0284 -0.0058 0.0284 -0.0015 0.0175 0 0.0167 0.0022 0.0153 0.0029 0.0138 0.0037 0.0132 0.0058 0.0211 0.0138 0.0174 0.0189 0.0124 0.0234 0.0052 0.0131 0.0028 0.0146 0.003 0.016 0.0007 0.016 0.0015 0.0182zm-1.2259 -0.1358c0,-0.0362 -0.0088,-0.0714 -0.0285,-0.1015l-0.476 -0.0002c-0.133,0.1065 -0.2114,0.2983 -0.2114,0.5135 0,0.0075 0.0001,0.0149 0.0003,0.0222l0.0017 -0.0001c0.0079,0.175 0.0973,0.2529 0.2833,0.2529 0.1128,0 0.2119,-0.0188 0.2939,-0.0512l0 -0.1231c-0.0735,0.0308 -0.1589,0.0496 -0.241,0.0496 -0.1223,0 -0.173,-0.0281 -0.1814,-0.1312l0 0c-0.0008,-0.0117 -0.0013,-0.0227 -0.0013,-0.0346 0,-0.0307 0.0034,-0.0734 0.0085,-0.099 0.3639,-0.0137 0.5519,-0.1145 0.5519,-0.2973zm-0.1555 0.0188c0,0.0991 -0.1128,0.1555 -0.3776,0.1657 0.0394,-0.1435 0.1299,-0.2614 0.2648,-0.2614 0.0683,0 0.1128,0.0341 0.1128,0.0957zm-0.349 -0.1214l0.476 0.0009c-0.0351,-0.0535 -0.1049,-0.0914 -0.221,-0.0914 -0.0979,0 -0.1842,0.0333 -0.255,0.0905zm-0.3697 0.67c-0.0479,-0.0035 -0.1008,-0.0102 -0.1401,-0.0171l0.0229 -0.1178 0.0659 -0.3389c0.0153,-0.0794 0.0128,-0.1454 -0.0087,-0.1941l-0.2803 -0.0009 0.2803 -0.0003c-0.0265,-0.0592 -0.0821,-0.0931 -0.169,-0.0931 -0.0814,0 -0.1534,0.0366 -0.2154,0.0931l-0.001 0c-0.0728,0.0671 -0.1315,0.1618 -0.1748,0.2583 0.0385,-0.1234 0.0604,-0.2006 0.0749,-0.2583l0.0003 0c0.0071,-0.0298 0.0125,-0.0537 0.017,-0.076l0.0752 -0.3981c-0.0956,-0.0051 -0.2135,0.0017 -0.2989,0.0119l-0.0171 0.0906c0.0478,0.0035 0.1042,0.0102 0.1417,0.0171l-0.0672 0.3545 -0.1014 0.5342 0.1516 0c0.0536,-0.2085 0.216,-0.4957 0.3605,-0.4957 0.0768,0 0.1007,0.0579 0.0752,0.1909l-0.0587 0.3048 -0.0456 0.2372c0.0974,0.0052 0.2102,-0.0017 0.2955,-0.0119l0.0172 -0.0904zm-0.6441 -0.1345l-0.1516 -0.0004 -0.0449 0.2372 0.1502 0 0.036 -0.191c0.0028,-0.0147 0.0062,-0.03 0.0103,-0.0458zm-0.2578 -0.6106l-0.2323 0 0.0615 -0.3109 -0.1589 0.0358 -0.053 0.2751 -0.1708 0 -0.0153 0.076 -0.0087 0.0436 0.171 0 -0.0889 0.4681c-0.0014,0.0077 -0.0027,0.0151 -0.0039,0.0224l0.0091 0 -0.009 0.0001c-0.0285,0.177 0.0192,0.2526 0.1866,0.2526 0.0496,0 0.1077,-0.0068 0.1589,-0.0171l0.0103 -0.1281c-0.0343,0.0085 -0.0701,0.0136 -0.1179,0.0136 -0.0731,0 -0.0964,-0.0277 -0.0842,-0.1222 0.0017,-0.0146 0.0042,-0.0292 0.0072,-0.0452l0.0838 -0.4442 0.2307 0 0.0087 -0.0436 0.0151 -0.076zm-0.8378 -0.2666l0.0358 -0.1263c-0.0479,-0.0103 -0.0922,-0.0154 -0.1419,-0.0154 -0.2204,0 -0.3415,0.1162 -0.3844,0.3485l-0.0101 0.0598 -0.1709 0 -0.0163 0.076 -0.0094 0.0436 0.1726 0 -0.0941 0.4906 -0.0545 0.285c-0.0377,0.1982 -0.106,0.2597 -0.2255,0.2597 -0.036,0 -0.0821,-0.0051 -0.1214,-0.017l-0.0376 0.1298c0.0479,0.0103 0.0992,0.0154 0.147,0.0154 0.2067,0 0.3366,-0.1128 0.3895,-0.3912l0.0536 -0.2817 0.0933 -0.4906 0.2307 0 0.0087 -0.0436 0.0153 -0.076 -0.2307 0 0.0102 -0.0581c0.0273,-0.1589 0.0957,-0.2255 0.2187,-0.2255 0.0376,0 0.082,0.0068 0.1214,0.017zm-1.3168 1.1311c0.1656,0 0.3249,-0.0935 0.4168,-0.2543l-0.1704 0c-0.0573,0.0766 -0.1363,0.1228 -0.2208,0.1228 -0.1001,0 -0.1534,-0.0428 -0.1718,-0.1218l-0.1628 -0.001c0.0148,0.1637 0.113,0.2543 0.309,0.2543zm0.4168 -0.2543c0.0503,-0.0879 0.0804,-0.1959 0.0804,-0.3197 0,-0.0858 -0.0212,-0.1594 -0.0676,-0.2129l-0.521 -0.0016c-0.1334,0.0977 -0.2197,0.2721 -0.2197,0.4861 0,0.0161 0.0008,0.0315 0.0021,0.0464l0.1628 0.0017c-0.0051,-0.0211 -0.0077,-0.0461 -0.0077,-0.0737 0,-0.2136 0.1248,-0.422 0.3111,-0.422 0.123,0 0.1794,0.0683 0.1794,0.193 0,0.1216 -0.035,0.2262 -0.0902,0.3014l0.1704 0.0013zm-0.5082 -0.5358l0.521 0.0016c-0.0506,-0.0569 -0.1317,-0.0914 -0.2486,-0.0914 -0.1015,0 -0.1949,0.0322 -0.2724,0.0898zm-0.6387 0.0623l0.0124 -0.0607 -0.2181 0c-0.0524,0.06 -0.0968,0.1442 -0.1412,0.2384 0.0317,-0.1032 0.0528,-0.1778 0.0679,-0.2384l0.0004 0c0.0068,-0.0287 0.0125,-0.0532 0.0172,-0.076 -0.0922,-0.0051 -0.2101,0.0017 -0.2956,0.012l-0.0119 0.064 -0.005 0.0265c0.0495,0.0034 0.1059,0.0103 0.1434,0.0171l-0.0942 0.4906 -0.0458 0.2389 0.1503 0 0.0358 -0.1913c0.003,-0.0154 0.0065,-0.0313 0.0106,-0.0476l0.0004 0c0.0564,-0.23 0.2113,-0.5324 0.3734,-0.4735zm0.0124 -0.0607l0.0184 -0.0897c-0.0996,-0.0204 -0.1737,0.0174 -0.2365,0.0894l0.2181 0.0003zm-0.7342 0.1017c0,-0.0362 -0.0089,-0.0714 -0.0286,-0.1015l-0.476 -0.0002c-0.1328,0.1065 -0.2113,0.2983 -0.2113,0.5135 0,0.0075 0.0001,0.0149 0.0003,0.0222l0.0016 -0.0001c0.008,0.175 0.0974,0.2529 0.2835,0.2529 0.1126,0 0.2118,-0.0188 0.2937,-0.0512l0 -0.1231c-0.0733,0.0308 -0.1589,0.0496 -0.2409,0.0496 -0.1222,0 -0.173,-0.0281 -0.1815,-0.1312l0 0c-0.0008,-0.0117 -0.0012,-0.0227 -0.0012,-0.0346 0,-0.0307 0.0034,-0.0734 0.0085,-0.099 0.3639,-0.0137 0.5519,-0.1145 0.5519,-0.2973zm-0.1555 0.0188c0,0.0991 -0.1127,0.1555 -0.3777,0.1657 0.0394,-0.1435 0.1299,-0.2614 0.265,-0.2614 0.0682,0 0.1127,0.0341 0.1127,0.0957zm-0.3491 -0.1214l0.476 0.0009c-0.0351,-0.0535 -0.1049,-0.0914 -0.2209,-0.0914 -0.098,0 -0.1843,0.0333 -0.2551,0.0905zm-0.4175 0.5351c0.0602,-0.1086 0.0886,-0.2386 0.0886,-0.3693 0,-0.0708 -0.0107,-0.1259 -0.0311,-0.1666l-0.0029 0c-0.0315,-0.0619 -0.0843,-0.0914 -0.1574,-0.0914 -0.0808,0 -0.1531,0.0352 -0.2161,0.0931l-0.0006 0c-0.0709,0.0658 -0.13,0.1606 -0.1763,0.2674 0.0384,-0.1303 0.0613,-0.205 0.0771,-0.2674l0.0002 0c0.0051,-0.0215 0.0095,-0.041 0.0134,-0.0606l0.0785 -0.4135c-0.0956,-0.0051 -0.2135,0.0017 -0.2989,0.0119l-0.0171 0.0906c0.0495,0.0035 0.1042,0.0102 0.1436,0.0171l-0.0677 0.3545 -0.1016 0.5342 0.1521 0c0.0533,-0.2019 0.2128,-0.4957 0.3621,-0.4957 0.053,0 0.0873,0.0444 0.0873,0.1554 0,0.115 -0.0301,0.2452 -0.0987,0.3396l0.0528 0.0002 -0.0528 0.0005c-0.0566,0.0776 -0.1396,0.1313 -0.2533,0.1313 -0.0496,0 -0.0855,-0.0051 -0.1213,-0.0154l0.0136 -0.0717c0.0028,-0.0141 0.0062,-0.0288 0.0103,-0.0441l-0.1521 -0.0001 -0.0427 0.2236c0.0769,0.0171 0.164,0.029 0.2648,0.029 0.2156,0 0.3598,-0.1047 0.4438,-0.2526l0.0024 0zm-0.8832 0.1349c-0.0461,-0.0035 -0.099,-0.0102 -0.1384,-0.0171l0.023 -0.1178 0.0659 -0.3389c0.0153,-0.0794 0.0127,-0.1454 -0.0082,-0.1941l-0.2297 -0.0007 0.2297 -0.0005c-0.026,-0.0592 -0.0803,-0.0931 -0.1643,-0.0931 -0.0805,0 -0.1517,0.0366 -0.213,0.0931l-0.0017 0c-0.0726,0.0678 -0.1308,0.1633 -0.1732,0.2617 0.0239,-0.0869 0.0376,-0.1363 0.0376,-0.1892 0,-0.0264 -0.0038,-0.05 -0.011,-0.0705l-0.2493 -0.0013 0.2493 -0.0007c-0.022,-0.0594 -0.0761,-0.0931 -0.1582,-0.0931 -0.0802,0 -0.1508,0.0369 -0.2117,0.0931l-0.0022 0c-0.072,0.068 -0.1298,0.1627 -0.1722,0.2583 0.0263,-0.0863 0.0524,-0.1716 0.0732,-0.2567l-0.292 -0.0016 -0.005 0.0265c0.0495,0.0034 0.1059,0.0103 0.1436,0.017l-0.0945 0.4907 0.1522 0c0.0595,-0.2381 0.2288,-0.4974 0.3556,-0.4974 0.0718,0 0.094,0.0596 0.0684,0.1926l-0.0576 0.3048 0.1515 0c0.0607,-0.2425 0.2285,-0.4974 0.3555,-0.4974 0.0718,0 0.0956,0.0596 0.0701,0.1926l-0.0587 0.3048 -0.0457 0.2372c0.0958,0.0052 0.2103,-0.0017 0.2939,-0.0119l0.0171 -0.0904zm-0.6322 -0.1344l-0.1515 -0.0005 -0.0449 0.2372 0.1486 0 0.0376 -0.191c0.003,-0.0151 0.0064,-0.0304 0.0102,-0.0457zm-0.5179 0.0008l-0.1522 -0.0013 -0.0457 0.2372 0.1503 0 0.0377 -0.191c0.0029,-0.0148 0.0062,-0.0298 0.0099,-0.0449zm-0.1842 -0.5995l-0.0121 0.064 0.292 0c0.0065,-0.0243 0.0122,-0.0501 0.0175,-0.076 -0.0924,-0.0051 -0.212,0.0017 -0.2974,0.012zm-0.165 0.1657c0,-0.0362 -0.0088,-0.0714 -0.0285,-0.1015l-0.4759 -0.0002c-0.1329,0.1065 -0.2114,0.2983 -0.2114,0.5135 0,0.0075 0.0001,0.0149 0.0004,0.0222l0.0016 -0.0001c0.0078,0.175 0.0972,0.2529 0.2833,0.2529 0.1128,0 0.2119,-0.0188 0.2939,-0.0512l0 -0.1231c-0.0735,0.0308 -0.1588,0.0496 -0.2409,0.0496 -0.1224,0 -0.1732,-0.0281 -0.1816,-0.1312l-0.0001 0c-0.0008,-0.0117 -0.0012,-0.0227 -0.0012,-0.0346 0,-0.0307 0.0034,-0.0734 0.0086,-0.099 0.364,-0.0137 0.5518,-0.1145 0.5518,-0.2973zm-0.1554 0.0188c0,0.0991 -0.1128,0.1555 -0.3776,0.1657 0.0393,-0.1435 0.1298,-0.2614 0.2648,-0.2614 0.0684,0 0.1128,0.0341 0.1128,0.0957zm-0.349 -0.1214l0.4759 0.0009c-0.0351,-0.0535 -0.1048,-0.0914 -0.2208,-0.0914 -0.0981,0 -0.1843,0.0333 -0.2551,0.0905zm-0.3647 0.67c-0.0462,-0.0035 -0.0992,-0.0102 -0.1385,-0.0171l0.023 -0.1178 0.0658 -0.3389c0.0154,-0.0794 0.0129,-0.1454 -0.0081,-0.1941l-0.2298 -0.0007 0.2298 -0.0005c-0.026,-0.0592 -0.0804,-0.0931 -0.1645,-0.0931 -0.0802,0 -0.1514,0.0366 -0.2129,0.0931l-0.0017 0c-0.0724,0.0678 -0.1306,0.1633 -0.1732,0.2617 0.024,-0.0869 0.0377,-0.1363 0.0377,-0.1892 0,-0.0264 -0.0037,-0.05 -0.0111,-0.0705l-0.2493 -0.0013 0.2493 -0.0007c-0.0219,-0.0594 -0.0761,-0.0931 -0.158,-0.0931 -0.0803,0 -0.151,0.0369 -0.2119,0.0931l-0.0023 0c-0.0717,0.068 -0.1295,0.1627 -0.172,0.2583 0.0262,-0.0863 0.0524,-0.1716 0.0733,-0.2567l-0.2921 -0.0016 -0.005 0.0265c0.0496,0.0034 0.1059,0.0103 0.1435,0.017l-0.0944 0.4907 0.152 0c0.0596,-0.2381 0.2289,-0.4974 0.3559,-0.4974 0.0717,0 0.0939,0.0596 0.0684,0.1926l-0.0577 0.3048 0.1515 0c0.0608,-0.2425 0.2285,-0.4974 0.3555,-0.4974 0.0717,0 0.0956,0.0596 0.07,0.1926l-0.0585 0.3048 -0.0457 0.2372c0.0956,0.0052 0.2101,-0.0017 0.2939,-0.0119l0.0171 -0.0904zm-0.6323 -0.1344l-0.1515 -0.0005 -0.045 0.2372 0.1488 0 0.0375 -0.191c0.003,-0.0151 0.0063,-0.0304 0.0102,-0.0457zm-0.5181 0.0008l-0.152 -0.0013 -0.0457 0.2372 0.1504 0 0.0375 -0.191c0.0029,-0.0148 0.0061,-0.0298 0.0098,-0.0449zm-0.1841 -0.5995l-0.012 0.064 0.2921 0c0.0063,-0.0243 0.0121,-0.0501 0.0172,-0.076 -0.0922,-0.0051 -0.2118,0.0017 -0.2973,0.012zm-0.5985 0.8371l0.017 -0.0922c-0.0273,-0.0069 -0.0665,-0.0171 -0.0991,-0.0188l-0.0216 -0.1279 -0.0913 -0.5342 -0.0648 -0.3801 -0.1792 0 -0.2094 0.3801 -0.2944 0.5342 -0.0703 0.1279c-0.0309,0.0017 -0.0753,0.0119 -0.1042,0.0188l-0.0189 0.0922 0.393 0 0.0188 -0.0905c-0.0377,-0.0103 -0.0855,-0.0188 -0.1247,-0.0222l0.0689 -0.1262 0.0318 -0.0583 0.4751 0 0.0091 0.0583 0.0198 0.1262c-0.046,0.0034 -0.0956,0.0119 -0.1367,0.0222l-0.017 0.0905 0.3981 0zm-0.2922 -0.4219l-0.3929 0 0.1921 -0.3512 0.0266 -0.0487c0.0325,-0.0581 0.0615,-0.1195 0.0837,-0.1691 0.0052,0.0529 0.0119,0.1127 0.0222,0.1674l0.0085 0.0504 0.0598 0.3512z"/>
   <path class="fil2" d="M29.583 6.6388l-0.7415 0 -0.9481 1.9968 -0.0121 0 -0.9542 -1.9968 -0.7415 0 1.3553 2.7016 0 1.7742 0.6868 0 0 -1.7742 1.3553 -2.7016zm-3.8781 2.7758l-1.3492 0 0.5409 -1.6692c0.0203,-0.0628 0.0375,-0.1247 0.0537,-0.1875 0.0152,-0.0618 0.0283,-0.1195 0.0395,-0.171 0.0111,-0.0516 0.0202,-0.0938 0.0253,-0.1247 0.0061,-0.032 0.0091,-0.0474 0.0091,-0.0484l0.0122 0c0,0.001 0.003,0.0164 0.0091,0.0484 0.005,0.0309 0.0142,0.0731 0.0253,0.1247 0.0112,0.0515 0.0243,0.1092 0.0395,0.171 0.0162,0.0628 0.0335,0.1247 0.0537,0.1875l0.5409 1.6692zm1.2459 1.7l-1.5194 -4.4758 -0.8022 0 -1.5195 4.4758 0.7172 0 0.389 -1.1807 1.6288 0 0.3889 1.1807 0.7172 0zm-4.0995 -3.1528c0,0.1741 -0.0405,0.3235 -0.1215,0.4492 -0.081,0.1247 -0.1995,0.2215 -0.3565,0.2885 -0.1571,0.068 -0.3505,0.102 -0.5795,0.103 -0.0536,0 -0.1063,-0.001 -0.161,-0.0041 -0.0537,-0.002 -0.1043,-0.0061 -0.1519,-0.0103 -0.0487,-0.0051 -0.0892,-0.0103 -0.1246,-0.0165l0 -1.5702c0.0415,-0.0165 0.0901,-0.0319 0.1489,-0.0464 0.0577,-0.0134 0.1205,-0.0247 0.1884,-0.034 0.0689,-0.0082 0.1378,-0.0124 0.2096,-0.0124 0.308,0 0.543,0.0722 0.7041,0.2154 0.162,0.1432 0.243,0.3565 0.244,0.6378zm0.6747 0.0061c-0.001,-0.2864 -0.0638,-0.5326 -0.1884,-0.7418 -0.1256,-0.2081 -0.309,-0.3689 -0.5511,-0.4832 -0.2421,-0.1134 -0.5378,-0.171 -0.8893,-0.1721 -0.2381,0 -0.4609,0.0206 -0.6665,0.0618 -0.2067,0.0402 -0.39,0.0979 -0.5491,0.1731l0 4.3089 0.6747 0 0 -1.8051c0.0375,0.0062 0.081,0.0124 0.1316,0.0175 0.0507,0.0062 0.1054,0.0103 0.1621,0.0144 0.0567,0.0031 0.1125,0.0052 0.1682,0.0052 0.2785,-0.0011 0.5237,-0.0351 0.7364,-0.1031 0.2117,-0.068 0.39,-0.1638 0.5348,-0.2874 0.1438,-0.1237 0.2533,-0.269 0.3262,-0.4359 0.0729,-0.1679 0.1104,-0.3523 0.1104,-0.5523zm-3.9874 1.0399l-1.6783 0.2296c0.0054,-0.2392 0.045,-0.4412 0.1211,-0.6091 0.075,-0.1669 0.1789,-0.2934 0.3129,-0.3817 0.134,-0.0871 0.2915,-0.1318 0.4727,-0.1318 0.1554,0 0.2904,0.033 0.404,0.0978 0.1147,0.0659 0.2036,0.1648 0.2679,0.2966 0.0633,0.1329 0.0965,0.2987 0.0997,0.4986zm0.6752 0.1083c-0.0011,-0.3103 -0.0579,-0.5772 -0.1715,-0.8025 -0.1136,-0.2264 -0.2776,-0.3997 -0.4909,-0.523 -0.2132,-0.1222 -0.4704,-0.185 -0.7716,-0.186 -0.2432,0.001 -0.4608,0.0446 -0.6537,0.1307 -0.1929,0.0861 -0.3569,0.2094 -0.4919,0.3678 -0.1351,0.1584 -0.2379,0.3466 -0.3098,0.5645 -0.0707,0.2179 -0.1061,0.4582 -0.1071,0.7228 0,0.2754 0.0375,0.523 0.1125,0.7431 0.0751,0.22 0.1843,0.4081 0.3301,0.5644 0.1447,0.1563 0.3226,0.2753 0.5337,0.3593 0.2111,0.0829 0.4544,0.1244 0.7277,0.1254 0.1597,0 0.3151,-0.0106 0.4651,-0.0318 0.15,-0.0202 0.2883,-0.0489 0.4158,-0.0851 0.1275,-0.0361 0.2369,-0.0786 0.328,-0.1254l-0.2058 -0.523c-0.0804,0.0425 -0.1725,0.0797 -0.2765,0.1116 -0.105,0.0308 -0.2154,0.0553 -0.3312,0.0723 -0.1168,0.0181 -0.2336,0.0266 -0.3504,0.0266 -0.1961,0 -0.3687,-0.0351 -0.5198,-0.1042 -0.15,-0.0691 -0.2711,-0.1722 -0.3644,-0.3104 -0.0932,-0.1382 -0.1521,-0.3104 -0.1768,-0.5166l2.3021 -0.3189c0.0031,-0.0447 0.0053,-0.0893 0.0053,-0.1329 0.0011,-0.0447 0.0011,-0.0872 0.0011,-0.1287zm-3.1919 1.9648l0 -0.5841c-0.0296,0.0128 -0.0655,0.0235 -0.1077,0.032 -0.0423,0.0086 -0.0845,0.0129 -0.1267,0.0129 -0.0856,0 -0.1627,-0.0139 -0.2313,-0.0439 -0.0687,-0.0289 -0.1225,-0.0759 -0.1626,-0.1401 -0.0412,-0.0642 -0.0613,-0.1477 -0.0623,-0.2525l0 -1.9257 0.6906 0 0 -0.5264 -0.6906 0 0 -1.0141 -0.6781 0.2118 0 0.8023 -0.4625 0 0 0.5264 0.4625 0 0 1.9642c0.0012,0.337 0.0825,0.5906 0.243,0.7596 0.1605,0.1701 0.3928,0.2546 0.6948,0.2546 0.0909,-0.001 0.1743,-0.0086 0.2514,-0.0246 0.0771,-0.015 0.1362,-0.0321 0.1795,-0.0524zm-2.8453 -0.4608c-0.0364,0.0172 -0.0865,0.0333 -0.149,0.0462 -0.0635,0.0139 -0.1322,0.0247 -0.2083,0.0322 -0.0749,0.0075 -0.15,0.0118 -0.2239,0.0118 -0.2604,-0.0022 -0.4572,-0.0547 -0.5916,-0.1589 -0.1344,-0.1041 -0.2011,-0.248 -0.2021,-0.4337 0.001,-0.1234 0.026,-0.2254 0.077,-0.3081 0.0501,-0.0826 0.1199,-0.1492 0.2095,-0.1997 0.0885,-0.0504 0.1916,-0.0891 0.3072,-0.117 0.1167,-0.0279 0.2417,-0.0472 0.374,-0.0601 0.1333,-0.0129 0.2686,-0.0236 0.4072,-0.03l0 1.2173zm0.6499 0.3543l0 -2.19c-0.001,-0.2845 -0.053,-0.5131 -0.1562,-0.686 -0.1031,-0.1739 -0.251,-0.2995 -0.4437,-0.3779 -0.1927,-0.0773 -0.4239,-0.1159 -0.6937,-0.1148 -0.151,0.001 -0.2989,0.0128 -0.4447,0.0364 -0.1459,0.0237 -0.2813,0.0537 -0.4063,0.0902 -0.125,0.0376 -0.2333,0.0763 -0.3239,0.1181l0.175 0.4831c0.076,-0.0375 0.1666,-0.0719 0.2708,-0.1041 0.1042,-0.0322 0.2125,-0.058 0.327,-0.0773 0.1146,-0.0204 0.2261,-0.0311 0.3333,-0.0311 0.1448,-0.0011 0.2699,0.0182 0.3761,0.0558 0.1072,0.0386 0.1895,0.1009 0.2479,0.1878 0.0583,0.0881 0.0875,0.204 0.0885,0.349l0 0.2189c-0.2052,0.0108 -0.4052,0.029 -0.601,0.0537 -0.1958,0.0258 -0.3791,0.0644 -0.5499,0.1149 -0.1698,0.0504 -0.3208,0.1202 -0.45,0.2072 -0.1302,0.0869 -0.2323,0.1975 -0.3052,0.3317 -0.074,0.1352 -0.1115,0.2984 -0.1125,0.4906 0,0.2287 0.0541,0.424 0.1625,0.5862 0.1083,0.1621 0.2698,0.2855 0.4854,0.3714 0.2156,0.0869 0.4853,0.1299 0.8083,0.1309 0.1604,-0.001 0.3166,-0.0117 0.4718,-0.0332 0.1542,-0.0215 0.2948,-0.0515 0.4239,-0.088 0.1281,-0.0366 0.2333,-0.0784 0.3166,-0.1235zm-3.7466 -3.0683c0,0.1907 -0.0395,0.3452 -0.1175,0.4637 -0.078,0.1185 -0.1904,0.205 -0.3383,0.2596 -0.1469,0.0547 -0.3252,0.0814 -0.5348,0.0804l-0.5166 0 0 -1.5084c0.0476,-0.0186 0.1023,-0.035 0.1661,-0.0495 0.0638,-0.0134 0.1317,-0.0236 0.2046,-0.0319 0.0719,-0.0072 0.1449,-0.0114 0.2188,-0.0114 0.2087,0 0.3809,0.033 0.5166,0.0969 0.1357,0.0639 0.236,0.1556 0.3029,0.2741 0.0658,0.1185 0.0982,0.2607 0.0982,0.4265zm0.9056 3.2085l-0.6564 -1.4651c-0.0628,-0.1432 -0.1367,-0.2689 -0.2218,-0.3781 -0.0841,-0.1082 -0.1824,-0.1927 -0.2948,-0.2525l0 -0.0124c0.1317,-0.0288 0.2543,-0.0731 0.3677,-0.1308 0.1134,-0.0577 0.2137,-0.1329 0.2998,-0.2236 0.0851,-0.0917 0.153,-0.2009 0.2006,-0.3297 0.0486,-0.1288 0.0729,-0.2772 0.074,-0.4472 0,-0.2658 -0.0608,-0.4956 -0.1814,-0.6903 -0.1195,-0.1947 -0.2988,-0.3452 -0.5368,-0.4523 -0.2381,-0.1062 -0.5338,-0.1607 -0.8864,-0.1618 -0.1529,0 -0.3038,0.0103 -0.4538,0.0299 -0.1499,0.0185 -0.2927,0.0464 -0.4294,0.0824 -0.1357,0.0361 -0.2583,0.0794 -0.3687,0.1288l0 4.3027 0.6746 0 0 -1.8979 0.3889 0c0.1661,0.0011 0.3039,0.0433 0.4123,0.1278 0.1094,0.0835 0.1965,0.202 0.2624,0.3544l0.6199 1.4157 0.7293 0z"/>
   <path class="fil3" d="M7.5397 6.6559l0.0035 0.0055 -2.4759 2.5633 2.4724 -2.5688zm0.1959 1.3545l0 2.429c0,0.6674 -0.546,1.2134 -1.2133,1.2134l-3.1419 0c-0.1903,0 -0.3706,-0.0444 -0.5313,-0.1233l1.3635 -1.4168 0.9413 0.5101 2.5817 -2.6124z"/>
   <path class="fil4" d="M3.3804 6.1015l2.1348 0 -3.3482 3.2034 0 -1.99c0,-0.6674 0.546,-1.2134 1.2134,-1.2134z"/>
   <path class="fil5" d="M5.5152 6.1015l1.0071 0c0.4248,0 0.8005,0.2213 1.0174,0.5544l-2.4724 2.5688 -0.0033 0.0034 -0.7323 -0.3968 -0.7561 -0.3688c-0.0311,-0.0152 -0.0681,0.0044 -0.1004,0.0133l0 1.2374 0.7374 0.3995 -1.3635 1.4168c-0.403,-0.1979 -0.6821,-0.613 -0.6821,-1.0901l0 -1.1345 3.3482 -3.2034z"/>
  </g>
 </g>
</svg>
