<svg version="1.1" id="Ebene_1" xmlns="http://www.w3.org/2000/svg" x="0px" y="0px" viewBox="0 0 120 80" xml:space="preserve"><style>.st0{fill:#fff}.st1{fill:#212f66}</style><g id="Layer_x0020_1"><path class="st0" d="M115.6,0.7H4.3c-1,0-1.9,0.4-2.5,1C1.1,2.4,0.8,3.3,0.8,4.3v71.3c0,1,0.4,1.9,1.1,2.5c0.7,0.7,1.5,1.1,2.5,1.1 h111.3c1,0,1.9-0.4,2.5-1.1c0.7-0.7,1.1-1.5,1.1-2.5V4.3c0-1-0.4-1.9-1.1-2.5C117.5,1.1,116.6,0.7,115.6,0.7z"/><path class="st1" d="M44.9-157.9c6.3,0,11.5,4.6,11.5,11.1s-5.2,11.2-11.5,11.2c-6.1,0.2-11.2-4.7-11.4-10.8c0-0.1,0-0.3,0-0.4 C33.5-153.3,38.6-157.9,44.9-157.9z M44.9-139.3L44.9-139.3c4,0,7.3-3.3,7.3-7.3c0-0.1,0-0.2,0-0.3c0.2-4-2.9-7.4-6.9-7.6 c-4-0.2-7.4,2.9-7.6,6.9c0,0.2,0,0.5,0,0.7c-0.2,4,3,7.4,7,7.6C44.7-139.3,44.8-139.3,44.9-139.3z"/><path class="st1" d="M60.8-163.1v-1.4c-0.1-0.6,0.3-1.2,1-1.3c0.1,0,0.3,0,0.4,0h1.4c0.7-0.1,1.3,0.4,1.4,1.1c0,0.1,0,0.2,0,0.3 v1.4c0.1,0.7-0.4,1.3-1.1,1.4c-0.1,0-0.2,0-0.2,0h-1.4c-0.7,0.1-1.3-0.4-1.3-1.1C60.8-162.9,60.8-163,60.8-163.1z M60.8-156.1 L60.8-156.1c-0.1-0.7,0.4-1.3,1-1.4c0.1,0,0.2,0,0.3,0h1.3c0.6-0.1,1.2,0.3,1.4,1c0,0.1,0,0.3,0,0.4v18.4c0.1,0.6-0.3,1.3-1,1.4 c-0.1,0-0.3,0-0.4,0h-1.3c-0.7,0.1-1.3-0.4-1.3-1c0-0.1,0-0.2,0-0.3V-156.1z"/><path class="st1" d="M70.8-156.1c-0.1-0.7,0.4-1.3,1-1.4c0.1,0,0.2,0,0.3,0h1.2c0.6-0.1,1.3,0.3,1.3,1c0,0.1,0,0.3,0,0.4v1.8 c0,0.4,0,0.8-0.1,1.2h0.1c1.5-3.1,4.6-5,8-5c5,0,7.3,2.7,7.3,8.1v12.2c0.1,0.6-0.3,1.2-1,1.4c-0.1,0-0.3,0-0.4,0h-1.3 c-0.7,0.1-1.3-0.4-1.3-1c0-0.1,0-0.2,0-0.3v-11.1c0-3-0.6-5.3-4-5.3c-4.1,0-7.1,3.5-7.1,7.9v8.8c0.1,0.6-0.3,1.2-1,1.3 c-0.1,0-0.3,0-0.4,0h-1.3c-0.7,0.1-1.3-0.4-1.3-1.1c0-0.1,0-0.2,0-0.3v-18.5H70.8z"/><path class="st1" d="M96.4-153.9h-1.4c-0.7,0.1-1.3-0.4-1.3-1.1c0-0.1,0-0.2,0-0.2v-0.5c-0.1-0.7,0.4-1.3,1-1.4c0.1,0,0.2,0,0.3,0 h1.5v-4.6c-0.1-0.7,0.4-1.3,1-1.4c0.1,0,0.2,0,0.3,0H99c0.6-0.1,1.2,0.3,1.4,1c0,0.1,0,0.3,0,0.4v4.6h3.7c0.7-0.1,1.3,0.4,1.4,1.1 c0,0.1,0,0.2,0,0.3v0.5c0.1,0.7-0.4,1.3-1.1,1.3c-0.1,0-0.2,0-0.3,0h-3.6v9.5c0,4.1,2.5,4.6,4.1,4.8c1.1,0.1,1.4,0.4,1.4,1.4v0.9 c0,0.9-0.5,1.3-1.7,1.3c-4.2,0-7.8-2.4-7.8-7.8V-153.9z"/><path class="st1" d="M108.5-139.9l0.4-0.6c0.5-0.7,1.1-0.8,1.9-0.3c1.5,1.1,3.4,1.7,5.2,1.7c2.1,0,3.6-1,3.6-2.8 c0-4.1-11-2.8-11-10c0-4.1,3.5-6.1,7.7-6.1c2.1,0,4.1,0.5,5.9,1.6c0.8,0.3,0.8,1.1,0.4,1.9l-0.4,0.6c-0.4,0.8-1,0.9-1.9,0.4 c-1.3-0.8-2.8-1.2-4.3-1.2c-2,0-3.6,0.9-3.6,2.7c0,4.2,11,2.7,11,10c0,3.6-3.1,6.3-7.6,6.3c-2.6,0-5-0.8-7.1-2.3 c-0.6-0.3-0.9-1.1-0.6-1.7C108.4-139.8,108.5-139.9,108.5-139.9z"/><path class="st1" d="M11.6-138.2v8.4c-0.1,1.1-1,1.9-2,1.9c-1.1,0-2-0.8-2-1.9v-16.8L11.6-138.2z"/><path class="st1" d="M18.9-157.9c6.3,0,11.5,4.6,11.5,11.1s-5.2,11.2-11.5,11.2c-6.1,0.2-11.2-4.7-11.4-10.8c0-0.1,0-0.3,0-0.4 C7.5-153.3,12.6-157.9,18.9-157.9z M18.9-139.3L18.9-139.3c4,0,7.3-3.3,7.3-7.3c0-0.1,0-0.2,0-0.3c0.2-4-2.9-7.4-6.9-7.6 c-4-0.2-7.4,2.9-7.6,6.9c0,0.2,0,0.5,0,0.7c-0.1,4.1,3,7.5,7.1,7.6C18.8-139.3,18.9-139.3,18.9-139.3z"/><path class="st1" d="M132.2-146.7v16.7c-0.1,1.1-1,1.9-2,1.9c-1.1,0-2-0.8-2-1.9v-16.7H132.2z"/><path class="st1" d="M139.6-157.9c6.3,0,11.5,4.6,11.5,11.1s-5.2,11.2-11.5,11.2c-6.1,0.2-11.2-4.7-11.4-10.8c0-0.1,0-0.3,0-0.4 C128.1-153.3,133.2-157.9,139.6-157.9z M139.6-139.3L139.6-139.3c4,0,7.3-3.3,7.3-7.3c0-0.1,0-0.2,0-0.3c0.2-4-2.9-7.4-6.9-7.6 c-4-0.2-7.4,2.9-7.6,6.9c0,0.2,0,0.5,0,0.7c-0.1,4.1,3,7.5,7.1,7.6C139.4-139.3,139.5-139.3,139.6-139.3z"/><path class="st1" d="M165.1-157.9c6.3,0,11.5,4.6,11.5,11.1s-5.1,11.2-11.5,11.2c-6.1,0.2-11.2-4.7-11.4-10.8c0-0.1,0-0.3,0-0.4 C153.7-153.3,158.7-157.9,165.1-157.9z M165.1-139.3L165.1-139.3c4,0,7.3-3.3,7.3-7.3c0-0.1,0-0.2,0-0.3c0.2-4-2.9-7.4-6.9-7.6 s-7.4,2.9-7.6,6.9c0,0.2,0,0.5,0,0.7c-0.2,4,2.9,7.4,6.9,7.6C164.8-139.3,164.9-139.3,165.1-139.3z"/><path class="st1" d="M175.5-135.7h-2.1c-0.5,0-1-0.4-1-1c0,0,0,0,0-0.1v-10.1c0-0.5,0.4-1,0.9-1c0,0,0.1,0,0.1,0h2.1 c0.5,0,1,0.4,1,1c0,0,0,0,0,0.1v10.1C176.5-136.2,176-135.7,175.5-135.7z"/><path class="st1" d="M195.7-157.6h-1.5c-0.7-0.1-1.4,0.5-1.5,1.2l-4.8,12.8c-0.3,1.1-0.7,2.5-0.7,2.5h-0.1 c-0.2-0.9-0.5-1.7-0.8-2.5l-5-12.8c-0.2-0.7-0.8-1.1-1.5-1.1h-1.7c-1,0-1.4,0.7-1,1.7l8.2,19.4c-1,3.8-2.8,4.5-4.3,4.6 c-1.1,0.1-1.3,0.4-1.3,1.4v0.8c0,0.9,0.4,1.4,1.5,1.4c2.8,0.1,5.4-1.7,6.3-4.3l9.3-23.4C197.3-156.9,196.8-157.6,195.7-157.6z"/><g id="_2852381750976"><path class="st1" d="M36.8,59.3H7c-2.4,0-4.3-1.9-4.3-4.3V25.1c0-2.4,1.9-4.4,4.3-4.4h29.8c2.4,0,4.3,2,4.3,4.4v29.8 C41.1,57.3,39.2,59.3,36.8,59.3z"/><path class="st0" d="M11.7,44.5v5.4c0,0.7-0.6,1.2-1.3,1.2c-0.7,0-1.3-0.5-1.3-1.2V39.1L11.7,44.5z"/><path class="st0" d="M16.4,31.9c4.1,0,7.4,3,7.4,7.1c0,4.1-3.3,7.2-7.4,7.2c-3.9,0.1-7.2-3-7.3-6.9c0-0.1,0-0.2,0-0.2 C9.1,34.9,12.4,31.9,16.4,31.9z M16.4,43.9L16.4,43.9c2.6,0,4.7-2.1,4.7-4.7c0-0.1,0-0.1,0-0.2c0.1-2.6-1.9-4.8-4.4-4.9 c-2.6-0.1-4.8,1.9-4.9,4.5c0,0.2,0,0.3,0,0.5c-0.1,2.6,1.8,4.8,4.4,4.9C16.3,43.9,16.4,43.9,16.4,43.9z"/><path class="st0" d="M23.7,44.5v5.4c0,0.7-0.6,1.2-1.3,1.2c-0.7,0-1.3-0.5-1.3-1.2V39.1L23.7,44.5z"/><path class="st0" d="M28.4,31.9c4.1,0,7.4,3,7.4,7.1c0,4.1-3.3,7.2-7.4,7.2c-3.9,0.1-7.2-3-7.3-6.9c0-0.1,0-0.2,0-0.2 C21.1,34.9,24.4,31.9,28.4,31.9z M28.4,43.9L28.4,43.9c2.6,0,4.7-2.1,4.7-4.7c0-0.1,0-0.1,0-0.2c0.1-2.6-1.9-4.8-4.4-4.9 c-2.6-0.1-4.8,1.9-4.9,4.5c0,0.2,0,0.3,0,0.5c-0.1,2.6,1.9,4.8,4.6,4.9C28.4,43.9,28.4,43.9,28.4,43.9z"/><path class="st1" d="M63.3,28.2l1.1,0.3c-0.2,0.9-0.6,1.6-1.3,2.1c-0.6,0.5-1.3,0.7-2.2,0.7c-0.9,0-1.7-0.2-2.2-0.6 c-0.6-0.4-1-0.9-1.3-1.6c-0.3-0.7-0.4-1.4-0.4-2.3c0-0.9,0.2-1.6,0.5-2.3c0.3-0.7,0.8-1.1,1.4-1.5c0.6-0.3,1.3-0.5,2-0.5 c0.8,0,1.5,0.2,2.1,0.6c0.6,0.4,1,1,1.2,1.8l-1.1,0.3c-0.2-0.6-0.5-1.1-0.8-1.3c-0.4-0.3-0.8-0.4-1.4-0.4c-0.7,0-1.2,0.2-1.6,0.5 c-0.4,0.3-0.7,0.7-0.9,1.3c-0.2,0.5-0.3,1.1-0.3,1.6c0,0.7,0.1,1.3,0.3,1.9s0.5,0.9,1,1.2c0.4,0.3,0.9,0.4,1.4,0.4 c0.6,0,1.1-0.2,1.6-0.5C62.8,29.5,63.1,28.9,63.3,28.2z M65.6,31.2v-8.4h1v3c0.5-0.6,1.1-0.8,1.8-0.8c0.4,0,0.8,0.1,1.2,0.3 c0.3,0.2,0.6,0.4,0.7,0.7c0.1,0.3,0.2,0.8,0.2,1.4v3.9h-1v-3.9c0-0.5-0.1-0.9-0.3-1.1c-0.2-0.2-0.5-0.4-0.9-0.4 c-0.3,0-0.6,0.1-0.9,0.2c-0.3,0.2-0.5,0.4-0.6,0.7c-0.1,0.3-0.2,0.6-0.2,1.1v3.3H65.6z M76.3,29.2l1.1,0.1 c-0.2,0.6-0.5,1.1-0.9,1.5c-0.5,0.3-1,0.5-1.7,0.5c-0.9,0-1.6-0.3-2.1-0.8c-0.5-0.5-0.8-1.3-0.8-2.3c0-1,0.3-1.8,0.8-2.4 c0.5-0.6,1.2-0.9,2-0.9c0.8,0,1.5,0.3,2,0.8c0.5,0.6,0.8,1.3,0.8,2.3c0,0.1,0,0.2,0,0.3h-4.6c0,0.7,0.2,1.2,0.6,1.5 c0.3,0.4,0.8,0.5,1.3,0.5c0.4,0,0.7-0.1,1-0.3C76,30,76.2,29.6,76.3,29.2z M72.9,27.5h3.4c0-0.5-0.2-0.9-0.4-1.2 c-0.3-0.4-0.8-0.6-1.3-0.6c-0.5,0-0.9,0.2-1.2,0.5C73.2,26.6,73,27,72.9,27.5z M82.7,28.9l1,0.1c-0.1,0.7-0.4,1.2-0.8,1.6 c-0.4,0.4-1,0.6-1.7,0.6c-0.8,0-1.5-0.3-2-0.8c-0.5-0.5-0.8-1.3-0.8-2.3c0-0.7,0.1-1.2,0.3-1.7c0.2-0.5,0.5-0.9,1-1.1 c0.4-0.3,0.9-0.4,1.5-0.4c0.7,0,1.2,0.2,1.6,0.5c0.4,0.3,0.7,0.8,0.8,1.4l-1,0.1c-0.1-0.4-0.3-0.7-0.5-0.9 c-0.2-0.2-0.5-0.3-0.9-0.3c-0.5,0-1,0.2-1.3,0.6c-0.3,0.4-0.5,1-0.5,1.8c0,0.8,0.2,1.4,0.5,1.8c0.3,0.4,0.7,0.6,1.2,0.6 c0.4,0,0.7-0.1,1-0.4C82.4,29.8,82.6,29.5,82.7,28.9z M84.6,31.2v-8.4h1v4.8l2.5-2.5h1.3l-2.3,2.3l2.6,3.8h-1.3l-2-3.1l-0.7,0.7 v2.4H84.6z M90.1,28.1c0-1.1,0.3-2,0.9-2.5c0.5-0.5,1.2-0.7,1.9-0.7c0.8,0,1.5,0.3,2.1,0.8c0.5,0.5,0.8,1.3,0.8,2.3 c0,0.8-0.1,1.4-0.4,1.8c-0.2,0.4-0.6,0.8-1,1c-0.4,0.3-0.9,0.4-1.5,0.4c-0.8,0-1.5-0.3-2.1-0.8C90.3,29.9,90.1,29.1,90.1,28.1z M91.1,28.1c0,0.8,0.2,1.4,0.5,1.8c0.3,0.4,0.8,0.6,1.3,0.6c0.5,0,0.9-0.2,1.3-0.6c0.3-0.4,0.5-1,0.5-1.8c0-0.8-0.2-1.3-0.5-1.7 c-0.3-0.4-0.8-0.6-1.3-0.6c-0.5,0-0.9,0.2-1.3,0.6C91.3,26.8,91.1,27.3,91.1,28.1z M101,31.2v-0.9c-0.5,0.7-1.1,1-1.9,1 c-0.4,0-0.7-0.1-1-0.2s-0.5-0.3-0.7-0.5c-0.1-0.2-0.3-0.5-0.3-0.8c0-0.2-0.1-0.5-0.1-1v-3.8h1v3.4c0,0.5,0,0.9,0.1,1.1 c0.1,0.3,0.2,0.5,0.4,0.6c0.2,0.1,0.5,0.2,0.8,0.2s0.6-0.1,0.9-0.2c0.3-0.2,0.5-0.4,0.6-0.6c0.1-0.3,0.2-0.7,0.2-1.2v-3.3h1v6.1 H101z M105.8,30.2l0.1,0.9c-0.3,0.1-0.5,0.1-0.8,0.1c-0.4,0-0.7-0.1-0.9-0.2c-0.2-0.1-0.4-0.3-0.4-0.5c-0.1-0.2-0.1-0.6-0.1-1.2 v-3.5H103v-0.8h0.8v-1.5l1-0.6v2.1h1v0.8h-1v3.6c0,0.3,0,0.5,0.1,0.6c0,0.1,0.1,0.1,0.2,0.2c0.1,0.1,0.2,0.1,0.4,0.1 C105.5,30.3,105.6,30.3,105.8,30.2z M72.6,43.1L70.8,37h1.1l1,3.5l0.3,1.3c0-0.1,0.1-0.5,0.3-1.3l1-3.6h1.1l0.9,3.5l0.3,1.2 l0.4-1.2l1-3.5h1l-1.9,6.1h-1.1l-1-3.7l-0.3-1l-1.2,4.7H72.6z M80,35.9v-1.2h1v1.2H80z M80,43.1V37h1v6.1H80z M84.9,42.2l0.1,0.9 c-0.3,0.1-0.5,0.1-0.8,0.1c-0.4,0-0.7,0-0.9-0.2s-0.4-0.3-0.4-0.5c-0.1-0.2-0.1-0.6-0.1-1.2v-3.5H82V37h0.8v-1.5l1-0.6V37h1v0.8 h-1v3.6c0,0.3,0,0.5,0.1,0.6c0,0.1,0.1,0.1,0.2,0.2c0.1,0,0.2,0.1,0.4,0.1C84.5,42.2,84.7,42.2,84.9,42.2z M85.9,43.1v-8.4h1v3 c0.5-0.6,1.1-0.8,1.8-0.8c0.4,0,0.8,0.1,1.2,0.3c0.3,0.2,0.6,0.4,0.7,0.7c0.1,0.3,0.2,0.8,0.2,1.4v3.9h-1v-3.9 c0-0.5-0.1-0.9-0.3-1.1c-0.2-0.2-0.5-0.3-0.9-0.3c-0.3,0-0.6,0.1-0.9,0.2s-0.5,0.4-0.6,0.7c-0.1,0.3-0.2,0.6-0.2,1.1v3.3H85.9z M45.4,57.4v-8.5h0.9v0.8c0.2-0.3,0.5-0.5,0.8-0.7c0.3-0.2,0.6-0.2,1-0.2c0.5,0,1,0.1,1.4,0.4c0.4,0.3,0.7,0.6,0.9,1.1 c0.2,0.5,0.3,1,0.3,1.6c0,0.6-0.1,1.2-0.3,1.7c-0.2,0.5-0.5,0.9-1,1.1c-0.4,0.3-0.9,0.4-1.3,0.4c-0.4,0-0.7-0.1-0.9-0.2 c-0.3-0.1-0.5-0.3-0.7-0.5v3H45.4z M46.3,52c0,0.8,0.2,1.4,0.5,1.7c0.3,0.4,0.7,0.6,1.2,0.6c0.5,0,0.8-0.2,1.2-0.6 c0.3-0.4,0.5-1,0.5-1.8c0-0.8-0.2-1.4-0.5-1.8c-0.3-0.4-0.7-0.6-1.2-0.6c-0.4,0-0.8,0.2-1.2,0.6C46.5,50.6,46.3,51.2,46.3,52z M51.5,52c0-1.1,0.3-2,1-2.5c0.5-0.5,1.2-0.7,1.9-0.7c0.8,0,1.5,0.3,2.1,0.8c0.5,0.5,0.8,1.3,0.8,2.3c0,0.8-0.1,1.4-0.4,1.8 c-0.2,0.5-0.6,0.8-1,1.1c-0.5,0.2-0.9,0.4-1.5,0.4c-0.9,0-1.5-0.3-2.1-0.8C51.8,53.8,51.5,53,51.5,52z M52.6,52 c0,0.8,0.2,1.4,0.5,1.8c0.4,0.4,0.8,0.6,1.3,0.6c0.5,0,0.9-0.2,1.3-0.6s0.5-1,0.5-1.8c0-0.8-0.2-1.3-0.5-1.7 c-0.4-0.4-0.8-0.6-1.3-0.6c-0.5,0-0.9,0.2-1.3,0.6C52.7,50.6,52.6,51.2,52.6,52z M58.4,47.8v-1.2h1v1.2H58.4z M58.4,55v-6.1h1V55 H58.4z M61.1,55v-6.1H62v0.9c0.4-0.7,1.1-1,1.9-1c0.4,0,0.7,0.1,1,0.2c0.3,0.1,0.5,0.3,0.7,0.5c0.2,0.2,0.3,0.5,0.3,0.8 c0,0.2,0.1,0.5,0.1,1V55h-1v-3.7c0-0.4,0-0.7-0.1-1c-0.1-0.2-0.2-0.4-0.4-0.5c-0.2-0.1-0.5-0.2-0.7-0.2c-0.4,0-0.8,0.1-1.1,0.4 c-0.3,0.3-0.5,0.8-0.5,1.6V55H61.1z M69.8,54.1L70,55c-0.3,0.1-0.6,0.1-0.8,0.1c-0.4,0-0.7-0.1-0.9-0.2c-0.2-0.1-0.3-0.3-0.4-0.5 c-0.1-0.2-0.1-0.6-0.1-1.2v-3.5H67v-0.8h0.8v-1.5l1-0.6v2.1h1v0.8h-1v3.6c0,0.3,0,0.5,0.1,0.6c0,0.1,0.1,0.2,0.2,0.2 c0.1,0,0.2,0.1,0.4,0.1C69.5,54.2,69.7,54.1,69.8,54.1z M70.5,53.2l1-0.2c0.1,0.4,0.2,0.7,0.5,0.9s0.6,0.3,1.1,0.3 c0.5,0,0.8-0.1,1.1-0.3c0.2-0.2,0.4-0.4,0.4-0.7c0-0.2-0.1-0.4-0.3-0.5c-0.1-0.1-0.5-0.2-1.1-0.4c-0.8-0.2-1.3-0.4-1.6-0.5 c-0.3-0.1-0.5-0.3-0.7-0.6c-0.2-0.2-0.2-0.5-0.2-0.8c0-0.3,0.1-0.5,0.2-0.8c0.1-0.2,0.3-0.4,0.5-0.6c0.2-0.1,0.4-0.2,0.6-0.3 c0.3-0.1,0.6-0.1,0.9-0.1c0.5,0,0.9,0.1,1.3,0.2c0.4,0.1,0.6,0.3,0.8,0.6c0.2,0.2,0.3,0.6,0.4,1l-1,0.1c0-0.3-0.2-0.6-0.4-0.7 s-0.5-0.3-0.9-0.3c-0.5,0-0.8,0.1-1,0.2c-0.2,0.1-0.3,0.3-0.3,0.5c0,0.1,0,0.3,0.1,0.4c0.1,0.1,0.2,0.2,0.4,0.3 c0.1,0,0.4,0.1,0.9,0.3c0.7,0.2,1.2,0.4,1.5,0.5c0.3,0.1,0.5,0.3,0.7,0.5c0.2,0.2,0.3,0.5,0.3,0.9s-0.1,0.7-0.3,1 c-0.2,0.3-0.5,0.5-0.9,0.7c-0.4,0.2-0.8,0.3-1.3,0.3c-0.8,0-1.4-0.2-1.8-0.5C70.8,54.4,70.6,53.9,70.5,53.2z M84.8,54 c-0.3,0.4-0.7,0.7-1.1,0.9c-0.4,0.2-0.8,0.3-1.3,0.3c-0.9,0-1.6-0.3-2.1-0.9c-0.4-0.5-0.6-1-0.6-1.6c0-0.5,0.2-1,0.5-1.4 c0.3-0.4,0.8-0.8,1.5-1.1c-0.4-0.4-0.6-0.8-0.8-1.1c-0.1-0.3-0.2-0.5-0.2-0.8c0-0.5,0.2-0.9,0.6-1.3c0.4-0.4,0.9-0.6,1.5-0.6 c0.6,0,1,0.2,1.4,0.5c0.4,0.4,0.6,0.8,0.6,1.3c0,0.8-0.5,1.5-1.6,2l1.5,1.9c0.2-0.3,0.3-0.7,0.4-1.2l1.1,0.2 c-0.2,0.7-0.4,1.3-0.8,1.8c0.4,0.5,0.8,0.9,1.3,1.3l-0.7,0.8C85.7,55,85.3,54.6,84.8,54z M82.7,49.7c0.4-0.3,0.7-0.5,0.9-0.7 c0.1-0.2,0.2-0.4,0.2-0.7c0-0.3-0.1-0.5-0.3-0.7c-0.2-0.2-0.4-0.3-0.7-0.3c-0.3,0-0.5,0.1-0.7,0.3c-0.2,0.2-0.3,0.4-0.3,0.7 c0,0.1,0,0.3,0.1,0.4c0.1,0.1,0.2,0.3,0.3,0.5L82.7,49.7z M84.2,53.2l-1.9-2.3c-0.6,0.3-0.9,0.6-1.1,0.9c-0.2,0.3-0.3,0.6-0.3,0.8 c0,0.3,0.1,0.7,0.4,1.1c0.3,0.4,0.7,0.5,1.2,0.5c0.3,0,0.6-0.1,1-0.3S84,53.5,84.2,53.2z M91.1,55v-6.1h0.9v0.9 c0.2-0.3,0.4-0.5,0.8-0.7c0.3-0.2,0.7-0.3,1.1-0.3c0.5,0,0.8,0.1,1.1,0.3c0.3,0.2,0.5,0.5,0.6,0.8c0.5-0.7,1.1-1.1,1.9-1.1 c0.6,0,1.1,0.2,1.4,0.5c0.3,0.3,0.5,0.8,0.5,1.5V55h-1v-3.8c0-0.4,0-0.7-0.1-0.9c-0.1-0.2-0.2-0.3-0.4-0.4 c-0.2-0.1-0.4-0.2-0.6-0.2c-0.4,0-0.8,0.1-1.1,0.4c-0.3,0.3-0.4,0.7-0.4,1.4V55h-1v-4c0-0.5-0.1-0.8-0.3-1 c-0.2-0.2-0.4-0.3-0.8-0.3c-0.3,0-0.6,0.1-0.8,0.2c-0.3,0.2-0.4,0.4-0.5,0.7c-0.1,0.3-0.2,0.7-0.2,1.3V55H91.1z M100.9,47.8v-1.2 h1v1.2H100.9z M100.9,55v-6.1h1V55H100.9z M103.5,55v-8.4h1V55H103.5z M110.3,53.1l1.1,0.1c-0.2,0.6-0.5,1.1-0.9,1.5 c-0.5,0.3-1,0.5-1.7,0.5c-0.9,0-1.6-0.3-2.1-0.8c-0.5-0.5-0.8-1.3-0.8-2.3c0-1,0.3-1.8,0.8-2.4c0.5-0.6,1.2-0.8,2-0.8 c0.8,0,1.5,0.3,2,0.8c0.5,0.5,0.8,1.3,0.8,2.3c0,0.1,0,0.2,0,0.3h-4.5c0,0.7,0.2,1.2,0.6,1.5c0.3,0.4,0.8,0.5,1.3,0.5 c0.4,0,0.7-0.1,1-0.3C109.9,53.8,110.2,53.5,110.3,53.1z M106.9,51.4h3.4c0-0.5-0.2-0.9-0.4-1.2c-0.3-0.4-0.8-0.6-1.3-0.6 c-0.5,0-0.9,0.2-1.2,0.5C107.1,50.4,107,50.9,106.9,51.4z M112.3,53.2l1-0.2c0.1,0.4,0.2,0.7,0.5,0.9c0.3,0.2,0.6,0.3,1.1,0.3 c0.5,0,0.8-0.1,1.1-0.3c0.2-0.2,0.3-0.4,0.3-0.7c0-0.2-0.1-0.4-0.3-0.5c-0.1-0.1-0.5-0.2-1.1-0.4c-0.8-0.2-1.3-0.4-1.6-0.5 c-0.3-0.1-0.5-0.3-0.7-0.6c-0.1-0.2-0.2-0.5-0.2-0.8c0-0.3,0.1-0.5,0.2-0.8c0.1-0.2,0.3-0.4,0.5-0.6c0.2-0.1,0.4-0.2,0.7-0.3 c0.3-0.1,0.6-0.1,0.9-0.1c0.5,0,0.9,0.1,1.3,0.2c0.4,0.1,0.6,0.3,0.8,0.6c0.2,0.2,0.3,0.6,0.3,1l-1,0.1c0-0.3-0.2-0.6-0.4-0.7 c-0.2-0.2-0.5-0.3-0.9-0.3c-0.5,0-0.8,0.1-1,0.2c-0.2,0.1-0.3,0.3-0.3,0.5c0,0.1,0,0.3,0.1,0.4c0.1,0.1,0.2,0.2,0.4,0.3 c0.1,0,0.4,0.1,0.9,0.3c0.7,0.2,1.2,0.4,1.5,0.5c0.3,0.1,0.5,0.3,0.7,0.5c0.2,0.2,0.3,0.5,0.3,0.9s-0.1,0.7-0.3,1 c-0.2,0.3-0.5,0.5-0.9,0.7c-0.4,0.2-0.8,0.3-1.3,0.3c-0.8,0-1.4-0.2-1.8-0.5C112.7,54.4,112.4,53.9,112.3,53.2z"/></g></g></svg>