<?xml version="1.0" encoding="UTF-8"?>
<!DOCTYPE svg PUBLIC "-//W3C//DTD SVG 1.1//EN" "http://www.w3.org/Graphics/SVG/1.1/DTD/svg11.dtd">
<!-- Creator: CorelDRAW -->
<svg xmlns="http://www.w3.org/2000/svg" xml:space="preserve" width="31.75mm" height="21.167mm" style="shape-rendering:geometricPrecision; text-rendering:geometricPrecision; image-rendering:optimizeQuality; fill-rule:evenodd; clip-rule:evenodd"
viewBox="0 0 31.75 21.167"
 xmlns:xlink="http://www.w3.org/1999/xlink">
 <defs>
  <style type="text/css">
   <![CDATA[
    .str0 {stroke:#C5C6C6;stroke-width:0.0762}
    .fil0 {fill:none}
    .fil3 {fill:#E74B23}
    .fil2 {fill:#033875}
    .fil1 {fill:white}
   ]]>
  </style>
 </defs>
 <g id="Layer_x0020_1">
  <metadata id="CorelCorpID_0Corel-Layer"/>
  <g>
   <path class="fil0 str0" d="M1.0583 0.0002l29.6334 0c0.5843,0 1.0582,0.4739 1.0582,1.0583l0.0001 19.05c-0.0001,0.5842 -0.474,1.0581 -1.0584,1.0581l-29.6333 0.0002c-0.5843,-0.0002 -1.0582,-0.4741 -1.0582,-1.0585l-0.0001 -19.0498c0.0001,-0.5844 0.474,-1.0583 1.0584,-1.0583z"/>
   <path id="1" class="fil1" d="M1.0583 0.0002l29.6334 0c0.5843,0 1.0582,0.4739 1.0582,1.0583l0.0001 19.05c-0.0001,0.5842 -0.474,1.0581 -1.0584,1.0581l-29.6333 0.0002c-0.5843,-0.0002 -1.0582,-0.4741 -1.0582,-1.0585l-0.0001 -19.0498c0.0001,-0.5844 0.474,-1.0583 1.0584,-1.0583z"/>
  </g>
  <g>
   <path class="fil2" d="M11.206 5.3283c-0.2719,-0.0025 -0.51,0.0943 -0.6895,0.2733 -0.196,0.1947 -0.3083,0.4724 -0.3083,0.7621 0,0.4344 0.3119,0.7407 0.7581,0.7458l-0.0021 0c0.1988,0.0016 0.3827,-0.0539 0.5002,-0.1156l0.1161 -0.4029c-0.1001,0.0801 -0.274,0.1768 -0.5253,0.1768 -0.1745,0 -0.3873,-0.1338 -0.3848,-0.4382l0 0.0012c0.0017,-0.2648 0.1879,-0.6708 0.5466,-0.6694 0.1666,0.0017 0.3076,0.0566 0.4264,0.1892l0.1119 -0.3542c-0.1475,-0.1124 -0.3238,-0.1665 -0.5493,-0.1681zm16.1157 1.7826c-0.2312,0 -0.4089,-0.0618 -0.5303,-0.1804 -0.1183,-0.1179 -0.1777,-0.2872 -0.1777,-0.5075 0,-0.2527 0.0862,-0.6094 0.3283,-0.8492 0.1636,-0.165 0.3727,-0.248 0.6225,-0.248 0.2241,0 0.4089,0.0656 0.5341,0.1901 0.1203,0.1191 0.1814,0.2885 0.1814,0.4905 0,0.3816 -0.1991,1.1045 -0.9583,1.1045zm0.2428 -1.4674c-0.3865,-0.0028 -0.4984,0.5671 -0.4984,0.7795 0.0016,0.224 0.0851,0.3698 0.2556,0.3689 0.1156,0 0.2042,-0.0503 0.2733,-0.1191 0.1674,-0.1712 0.2315,-0.5423 0.2325,-0.6664 0.0027,-0.2632 -0.1081,-0.3604 -0.263,-0.3629zm-0.8492 -0.3062c-0.1092,0.0115 -0.2951,0.0193 -0.3657,0.0193l0.144 -0.6382c-0.1825,0.0119 -0.3301,0.0135 -0.4586,0.0135l-0.4069 1.8067 0.0004 0c-0.0152,0.0698 -0.0222,0.1332 -0.0208,0.1995 0.0025,0.1034 0.0338,0.3728 0.4307,0.3714 0.191,0 0.2988,-0.0611 0.3648,-0.1004l0.0775 -0.3515c-0.0941,0.0563 -0.2113,0.1343 -0.3437,0.1319 -0.078,-0.0011 -0.0931,-0.0733 -0.0754,-0.1533l0 -0.0022 0.2184 -0.9625c0.091,-0.0013 0.2598,-0.0084 0.3682,-0.0151l0.0671 -0.3191zm-1.4716 -0.6047c0.1309,0 0.2686,-0.0023 0.4617,-0.0149l-0.0879 0.3826c-0.1913,0.0136 -0.3254,0.0136 -0.4592,0.0136l0.0854 -0.3813zm-0.1383 0.621c0.1577,0.0016 0.2752,-0.0031 0.4588,-0.0158l-0.39 1.7318c-0.1283,0 -0.272,0.0013 -0.4597,0.0138l0.3909 -1.7298zm-19.5133 0.3002l-0.3985 0 0.1427 -0.6204c0.0885,-0.0073 0.3464,-0.0133 0.4498,-0.0119 0.288,0.0007 0.3536,0.12 0.3527,0.2452 0.0001,0.232 -0.2124,0.3871 -0.5467,0.3871zm-0.2291 1.1082c-0.079,-0.0012 -0.3281,-0.0016 -0.4166,-0.008l0.1708 -0.7559 0.438 -0.0006c0.3084,0 0.4242,0.1375 0.4215,0.3183 -0.0024,0.3538 -0.3407,0.4462 -0.6137,0.4462zm1.2497 -1.4994c0,-0.3432 -0.2673,-0.5678 -0.8082,-0.5705 -0.2472,-0.0003 -0.6535,0.0144 -0.8571,0.0453l-0.5253 2.3301c0.1814,0.0282 0.6923,0.0434 0.8883,0.0434 0.84,0 1.1372,-0.4135 1.1382,-0.7673 0,-0.2047 -0.1331,-0.4116 -0.3604,-0.493 0.2625,-0.0795 0.5245,-0.311 0.5245,-0.588zm3.3497 0.2338c-0.0885,-0.1092 -0.2273,-0.1706 -0.4171,-0.1706 -0.2181,0.0025 -0.3522,0.0803 -0.4519,0.1552l0.0328 -0.1405c-0.1897,0.0131 -0.3199,0.0147 -0.4604,0.0131l-0.3944 1.7298c0.184,-0.0113 0.3206,-0.0138 0.4595,-0.0138l0.2884 -1.2588c0.0857,-0.0701 0.1857,-0.1287 0.3581,-0.1287 0.1565,0 0.2549,0.1156 0.2147,0.2972l-0.2523 1.1041c0.184,-0.0113 0.317,-0.012 0.4602,-0.0125l0.2365 -1.0452c0.0517,-0.2213 0.0266,-0.4042 -0.0741,-0.5293zm2.4832 1.6145c-0.2315,0 -0.4103,-0.0618 -0.5303,-0.1804 -0.1179,-0.1179 -0.1774,-0.2872 -0.1774,-0.5075 0,-0.2527 0.0864,-0.6094 0.3278,-0.8492 0.164,-0.165 0.3744,-0.248 0.6229,-0.248 0.2255,0 0.4098,0.0656 0.536,0.1901 0.1182,0.1191 0.1811,0.2885 0.1811,0.4905 0,0.3816 -0.2006,1.1045 -0.9601,1.1045zm0.243 -1.4674c-0.3853,-0.0028 -0.4974,0.5671 -0.496,0.7795 0.0001,0.224 0.0841,0.3698 0.253,0.3689 0.1163,0 0.2049,-0.0503 0.2724,-0.1191 0.1708,-0.1712 0.2333,-0.5423 0.2342,-0.6664 0.0031,-0.2632 -0.1092,-0.3604 -0.2636,-0.3629zm1.6837 0.7427c0,-0.072 0.0416,-0.7535 0.7482,-0.7535 0.0329,0 0.0798,0.0064 0.1175,0.0133 0,0 -0.2301,1.0183 -0.2305,1.0181 -0.0833,0.0899 -0.1959,0.1243 -0.3143,0.1246 -0.1929,0.0011 -0.3195,-0.1679 -0.3209,-0.4025zm1.5292 -1.669c-0.1846,0.0121 -0.321,0.0154 -0.4604,0.0154l-0.1332 0.5994c-0.0674,-0.0123 -0.1276,-0.0186 -0.1839,-0.0186 -0.331,0 -0.6204,0.0979 -0.8385,0.2829 -0.2966,0.2506 -0.3773,0.6361 -0.3773,0.8218 0,0.4062 0.2686,0.6914 0.6533,0.6914 0.1871,0.0014 0.3131,-0.0751 0.3765,-0.1475l-0.028 0.1248c0.1942,-0.0118 0.3031,-0.0146 0.4594,-0.0146l0.5321 -2.355zm5.3756 0.7114c-0.0343,-0.0582 -0.1241,-0.1028 -0.2414,-0.1003 -0.1589,0 -0.271,0.1003 -0.3293,0.177l0.0406 -0.1675c-0.1958,0.0135 -0.3087,0.0146 -0.4617,0.0135l-0.3939 1.7321c0.1828,-0.0113 0.3194,-0.0112 0.4605,-0.0138l0.2824 -1.2516c0.0722,-0.0706 0.1493,-0.1129 0.2566,-0.1129 0.1412,0 0.1978,0.0423 0.245,0.1014l0.1412 -0.3779zm2.1131 0.9576c0,-0.072 0.0416,-0.7535 0.7482,-0.7535 0.0328,0 0.0791,0.0064 0.1165,0.0133 0,0 -0.2289,1.0183 -0.2305,1.0181 -0.0826,0.0899 -0.1947,0.1243 -0.3124,0.1246 -0.1948,0.0011 -0.3209,-0.1679 -0.3218,-0.4025zm1.5302 -1.669c-0.1867,0.0121 -0.3223,0.0154 -0.4608,0.0154l-0.1348 0.5994c-0.0653,-0.0123 -0.1283,-0.0186 -0.1823,-0.0186 -0.3317,0 -0.6226,0.0979 -0.8397,0.2829 -0.2972,0.2506 -0.3751,0.6361 -0.3751,0.8218 0,0.4062 0.2676,0.6914 0.6508,0.6914 0.1878,0.0014 0.3137,-0.0751 0.3786,-0.1475l-0.0279 0.1248c0.1915,-0.0118 0.3023,-0.0146 0.4586,-0.0146l0.5326 -2.355zm-2.0424 -0.0254l-0.4786 0.5053c-0.0997,-0.0039 -0.2799,-0.0073 -0.3654,-0.0028 0.109,-0.1728 0.2404,-0.4133 0.2897,-0.5025 0.1813,0.0074 0.4626,0.003 0.5543,0zm-0.8045 0.9409c0.2164,0.0014 0.2949,0.1126 0.2949,0.2724 0,0.0257 -0.0026,0.0575 -0.008,0.0793l-0.6893 0c0.0641,-0.1827 0.2228,-0.3543 0.4024,-0.3517zm0.0352 -0.3069c-0.2559,-0.0012 -0.4715,0.0855 -0.639,0.2534 -0.2478,0.247 -0.3154,0.5865 -0.3154,0.8223 -0.0012,0.3904 0.2193,0.7096 0.7667,0.7094 0.2541,-0.0014 0.428,-0.04 0.6536,-0.1517l0.106 -0.3755c-0.2165,0.1171 -0.4581,0.1921 -0.6891,0.1888 -0.3204,-0.0034 -0.3933,-0.1418 -0.3924,-0.379 0,-0.0275 0.0023,-0.0553 0.006,-0.0829l1.1438 0c0.0224,-0.0838 0.0464,-0.2609 0.0464,-0.3538 -0.0051,-0.4007 -0.2772,-0.6285 -0.6866,-0.631zm-5.4102 0.3069c0.216,0.0014 0.2947,0.1126 0.2947,0.2724 0,0.0257 -0.0025,0.0575 -0.008,0.0793l-0.6899 0c0.0648,-0.1827 0.223,-0.3543 0.4032,-0.3517zm0.0354 -0.3069c-0.2579,-0.0012 -0.4735,0.0855 -0.6397,0.2534 -0.2478,0.247 -0.3142,0.5865 -0.3153,0.8223 0.0001,0.3904 0.219,0.7096 0.7656,0.7094 0.2547,-0.0014 0.4314,-0.04 0.6537,-0.1517l0.1062 -0.3755c-0.2162,0.1171 -0.4567,0.1921 -0.6877,0.1888 -0.3214,-0.0034 -0.3952,-0.1418 -0.393,-0.379 0.0001,-0.0275 0.0025,-0.0553 0.0056,-0.0829l1.1436 0c0.0227,-0.0838 0.0462,-0.2609 0.0462,-0.3538 -0.005,-0.4007 -0.2783,-0.6285 -0.6852,-0.631zm-9.0393 0.9765c-0.0496,-0.0035 -0.0979,-0.0092 -0.139,-0.009 -0.2248,0.0019 -0.3313,0.0331 -0.4,0.0855 -0.0476,0.0349 -0.0931,0.0966 -0.0931,0.1984 0.0018,0.1512 0.1318,0.1965 0.2589,0.1985 0.0891,-0.0001 0.1975,-0.0222 0.2935,-0.124l0.0797 -0.3494zm0.5452 -0.4568c0,0.0596 -0.0084,0.0998 -0.0174,0.1486l-0.2455 1.078c-0.1268,-0.0025 -0.2754,0.0001 -0.4615,0.0113l0.0305 -0.1242c-0.0529,0.059 -0.1712,0.1517 -0.3659,0.1503 -0.2324,-0.0025 -0.5569,-0.1305 -0.5569,-0.482 -0.0013,-0.1597 0.0539,-0.3407 0.2234,-0.459 0.1496,-0.1053 0.3312,-0.1841 0.7121,-0.1841 0.0747,0 0.136,0.0046 0.2071,0.0137l0.0185 -0.0753c0.0139,-0.0826 0.0047,-0.132 -0.0217,-0.1651 -0.057,-0.0687 -0.1572,-0.0946 -0.3058,-0.096 -0.1657,-0.0016 -0.3257,0.0452 -0.5541,0.1884l0.0213 -0.3854c0.2158,-0.1051 0.3743,-0.1435 0.5938,-0.1435 0.4399,-0.0015 0.7251,0.1781 0.7221,0.5243zm10.2421 0.2708c0.0003,-0.5062 0.3644,-1.0451 0.8582,-1.0408 0.3088,0.0044 0.5135,0.1482 0.6436,0.2676l0.1519 -0.3789c-0.1616,-0.1194 -0.4278,-0.2694 -0.8077,-0.2724 -0.9875,-0.0073 -1.3373,0.9089 -1.3387,1.43 -0.0014,0.4609 0.2666,0.9983 1.0167,1.0004 0.2516,0 0.4937,-0.057 0.7066,-0.1789 0.0001,0.0039 0.1075,-0.4755 0.1075,-0.4755 -0.1469,0.1085 -0.4193,0.2703 -0.7508,0.2694 -0.3679,-0.0005 -0.5895,-0.2676 -0.5873,-0.6209z"/>
   <path class="fil2" d="M19.7432 15.0259l0.4163 -1.8615c0.1307,0.0087 0.3161,0.032 0.529,0.032 2.0779,0.0006 2.8011,-1.3349 2.8011,-2.2468 0.0001,-0.994 -0.6893,-1.5616 -2.1933,-1.5689 -0.6152,-0.0014 -1.1486,0.0186 -1.6532,0.1377l-1.2225 5.5075 1.3226 0zm1.0357 -4.6708c0.106,-0.0162 0.2934,-0.0291 0.5385,-0.0291 0.4836,-0.0008 0.8849,0.1428 0.8849,0.7233 0,0.5917 -0.4539,1.1648 -1.3248,1.167 -0.2205,0.0038 -0.3614,-0.0162 -0.5002,-0.0397l0.4016 -1.8215zm-5.0866 2.3357c0,-0.8896 0.5793,-2.2158 1.8987,-2.2158 0.3446,0 0.8295,0.1042 1.167,0.3225l0.3972 -0.9813c-0.4361,-0.2381 -1.1046,-0.424 -1.7283,-0.424 -2.0691,0 -3.1375,1.6993 -3.1375,3.3695 0,1.7858 1.1974,2.3863 2.4189,2.3863 0.5961,0 1.0514,-0.1325 1.3371,-0.2919l0.265 -1.1958c-0.5194,0.3826 -0.9044,0.4429 -1.2583,0.4429 -0.8583,0 -1.3598,-0.5539 -1.3598,-1.4124zm-4.8963 -0.1373l0.4216 0c0.6005,0 1.0958,0.1661 1.0827,0.7312 -0.0123,0.6309 -0.6531,0.8917 -1.3509,0.8917 -0.1882,0 -0.3592,0 -0.5093,-0.0171l0.3559 -1.6058zm2.8625 0.7641c0,-0.8378 -0.5816,-1.2021 -1.0493,-1.2353 0.5891,-0.1043 1.3755,-0.5454 1.3755,-1.3615 0,-0.8725 -0.8601,-1.3401 -2.1592,-1.3401 -0.5884,0 -1.1632,0.0529 -1.6763,0.1377l-1.2221 5.5075c0.3762,0.057 0.9191,0.1011 1.5994,0.1011 2.4331,-0.0001 3.132,-0.9701 3.132,-1.8094zm-2.3773 -2.9604c0.1008,-0.0175 0.335,-0.0319 0.5591,-0.0319 0.4912,-0.0001 0.8353,0.1736 0.827,0.5799 -0.0104,0.4868 -0.4994,0.766 -1.2051,0.766l-0.464 -0.0001 0.283 -1.3139z"/>
   <path class="fil3" d="M24.3495 10.9769l1.4451 1.4481 -2.603 2.6034 0.5782 0.5793 3.1825 -3.1827 -2.0239 -2.0253 -0.5789 0.5772zm-19.1458 -0.8678l2.3149 2.3159 -3.4718 3.4712 0.5786 0.5791 4.052 -4.0503 -2.896 -2.8956 -0.5777 0.5797z"/>
   <path class="fil2" d="M4.3331 10.9769l1.4505 1.4481 -2.6066 2.6034 0.5792 0.5793 3.1835 -3.1827 -2.0272 -2.0253 -0.5794 0.5772zm20.7697 -0.8793l2.3127 2.314 -3.4719 3.4734 0.5799 0.5772 4.0494 -4.0506 -2.8939 -2.8932 -0.5762 0.5792z"/>
  </g>
 </g>
</svg>
