<?xml version="1.0" encoding="UTF-8"?>
<!DOCTYPE svg PUBLIC "-//W3C//DTD SVG 1.1//EN" "http://www.w3.org/Graphics/SVG/1.1/DTD/svg11.dtd">
<!-- Creator: CorelDRAW -->
<svg xmlns="http://www.w3.org/2000/svg" xml:space="preserve" width="50mm" height="35mm" style="shape-rendering:geometricPrecision; text-rendering:geometricPrecision; image-rendering:optimizeQuality; fill-rule:evenodd; clip-rule:evenodd"
viewBox="0 0 50 35"
 xmlns:xlink="http://www.w3.org/1999/xlink">
 <defs>
  <style type="text/css">
   <![CDATA[
    .str0 {stroke:black;stroke-width:0.0762}
    .str1 {stroke:#826794;stroke-width:0.5}
    .fil3 {fill:none}
    .fil2 {fill:#1F3E96}
    .fil1 {fill:#CE202B}
    .fil0 {fill:#FEFEFE;fill-rule:nonzero}
    .fil6 {fill:#1F3E96;fill-rule:nonzero}
    .fil7 {fill:#826794;fill-rule:nonzero}
    .fil4 {fill:#CE202B;fill-rule:nonzero}
    .fil5 {fill:white;fill-rule:nonzero}
   ]]>
  </style>
 </defs>
 <g id="Layer_x0020_1">
  <metadata id="CorelCorpID_0Corel-Layer"/>
  <path class="fil0 str0" d="M5.2445 3.3889l39.5111 0c0.7793,0 1.4111,0.6318 1.4111,1.4111l0 25.4c0,0.7793 -0.6318,1.4111 -1.4111,1.4111l-39.5111 0c-0.7793,0 -1.4112,-0.6318 -1.4112,-1.4111l0 -25.4c0,-0.7793 0.6319,-1.4111 1.4112,-1.4111z"/>
  <path class="fil1" d="M4.6657 25.9234l7.7382 0c-0.5828,1.5713 -2.0954,2.6909 -3.869,2.6909 -1.7736,0 -3.2865,-1.1196 -3.8692,-2.6909z"/>
  <path class="fil2" d="M4.4092 24.4886c0,-0.5281 0.0994,-1.0331 0.2803,-1.4971l7.6906 0c0.1808,0.464 0.2803,0.969 0.2803,1.4971 0,0.5045 -0.0906,0.988 -0.2565,1.4348l-7.7382 0c-0.166,-0.4468 -0.2565,-0.9303 -0.2565,-1.4348z"/>
  <g id="_300398472">
   <path id="_300398592" class="fil3 str1" d="M8.5605 10.1859l35.4303 0 0 14.3466 -31.3307 0 0.0004 -0.0438c0,-2.2696 -1.8332,-4.1116 -4.1,-4.1255l0 -10.1773z"/>
   <path id="_300399192" class="fil3 str1" d="M8.5348 20.3632c2.2786,0 4.1257,1.8471 4.1257,4.1255 0,2.2783 -1.8471,4.1255 -4.1257,4.1255 -2.2786,0 -4.1257,-1.8472 -4.1257,-4.1255 0,-2.2784 1.8471,-4.1255 4.1257,-4.1255z"/>
  </g>
  <path class="fil4" d="M5.3726 22.6942c-0.029,0.5895 -0.0796,1.4937 -0.0579,1.9422 0.0158,0.3251 0.2315,1.5118 1.6276,2.076 1.3961,-0.5642 1.6118,-1.7509 1.6275,-2.076 0.0217,-0.4485 -0.0289,-1.3527 -0.0578,-1.9422l-3.1394 0z"/>
  <path class="fil5" d="M6.9423 22.8641c-0.0542,0 -0.1808,0.0019 -0.2278,-0.0108 0.0433,0.1411 0.0795,0.4087 0.0795,0.6076 -0.1628,0.0434 -0.557,-0.0361 -0.6763,-0.0904 0.0144,0.1374 0.0253,0.3906 -0.0217,0.5027 0.1555,-0.0578 0.376,-0.094 0.698,-0.094 0,0.0723 0,0.3544 0,0.4123 -0.2676,0.0326 -0.7343,-0.047 -0.8645,-0.0904 0.0326,0.1447 0.0326,0.3798 0.0109,0.4919 0.1953,-0.0832 0.5823,-0.1121 0.8536,-0.1121 0,0.0868 0,0.6582 0,0.6582 0.038,-0.0163 0.0941,-0.0344 0.1483,-0.0344 0.0542,0 0.1103,0.0181 0.1483,0.0344 0,0 0,-0.5714 0,-0.6582 0.2712,0 0.6582,0.0289 0.8535,0.1121 -0.0217,-0.1121 -0.0217,-0.3472 0.0109,-0.4919 -0.1302,0.0434 -0.5968,0.123 -0.8644,0.0904 0,-0.0579 0,-0.34 0,-0.4123 0.3219,0 0.5425,0.0362 0.698,0.094 -0.047,-0.1121 -0.0361,-0.3653 -0.0217,-0.5027 -0.1194,0.0543 -0.5136,0.1338 -0.6763,0.0904 0,-0.1989 0.0361,-0.4665 0.0795,-0.6076 -0.047,0.0127 -0.1736,0.0108 -0.2278,0.0108z"/>
  <path class="fil6" d="M6.9423 26.7124c-0.6502,-0.2627 -1.0442,-0.6603 -1.2814,-1.0431 0.0696,-0.1741 0.2126,-0.315 0.4061,-0.315 0.1935,0 0.3056,0.1429 0.3725,0.2279 0.0923,-0.2767 0.2894,-0.4756 0.5028,-0.4756 0.2134,0 0.4105,0.1989 0.5027,0.4756 0.0669,-0.085 0.179,-0.2279 0.3725,-0.2279 0.1935,0 0.3365,0.1409 0.4061,0.315 -0.2371,0.3828 -0.6312,0.7804 -1.2813,1.0431z"/>
  <path class="fil7" d="M20.9852 13.3291l0 1.473 1.8425 -1.842 -1.8425 -1.8422 0 1.4733 -8.5017 0c-0.8152,0 -1.511,0.2872 -2.0854,0.8636 -0.574,0.5757 -0.8615,1.271 -0.8615,2.0835 0,0.814 0.2875,1.5093 0.8632,2.0852 0.5759,0.5759 1.2712,0.8634 2.0837,0.8634l3.4712 0 0 -0.7381 -3.4697 0c-0.6097,0 -1.1318,-0.2153 -1.5631,-0.6472 -0.4318,-0.4315 -0.6476,-0.9517 -0.6476,-1.5633 0,-0.6102 0.2158,-1.1303 0.6476,-1.5619 0.4313,-0.4318 0.9517,-0.6473 1.5631,-0.6473l8.5002 0zm1.925 2.026l0 -3.707 0.6845 0 0 1.3353c0.2111,-0.2496 0.4607,-0.3748 0.7504,-0.3748 0.3151,0 0.5754,0.1191 0.7824,0.3557 0.2062,0.2366 0.3095,0.5764 0.3095,1.0202 0,0.4582 -0.1057,0.812 -0.3161,1.0599 -0.2107,0.2475 -0.4659,0.3711 -0.7661,0.3711 -0.148,0 -0.2933,-0.0379 -0.4374,-0.1148 -0.1439,-0.0768 -0.2679,-0.1898 -0.3719,-0.34l0 0.3944 -0.6353 0zm0.6794 -1.4009c0,0.2779 0.0425,0.4834 0.1265,0.6172 0.1191,0.1889 0.2762,0.2831 0.4734,0.2831 0.1502,0 0.2794,-0.0673 0.3858,-0.2011 0.1064,-0.1338 0.1595,-0.3452 0.1595,-0.6337 0,-0.3063 -0.0538,-0.5282 -0.1612,-0.6635 -0.1065,-0.1355 -0.2437,-0.2038 -0.4118,-0.2038 -0.1639,0 -0.3002,0.0666 -0.409,0.1985 -0.1089,0.133 -0.1632,0.3332 -0.1632,0.6033zm2.9094 -0.4651l-0.6212 -0.1165c0.0697,-0.2598 0.1894,-0.4514 0.3599,-0.5766 0.1715,-0.1243 0.4242,-0.1874 0.7604,-0.1874 0.3058,0 0.5328,0.0381 0.6826,0.1133 0.149,0.0751 0.2547,0.17 0.3151,0.2855 0.0609,0.1157 0.0915,0.3271 0.0915,0.6361l-0.0074 0.8296c0,0.2356 0.0108,0.4098 0.0333,0.5221 0.0216,0.1113 0.0631,0.2322 0.1231,0.3599l-0.6777 0c-0.0176,-0.0475 -0.0401,-0.1175 -0.0658,-0.2097 -0.0108,-0.0423 -0.0191,-0.07 -0.024,-0.0837 -0.1174,0.1182 -0.2422,0.2063 -0.3751,0.2657 -0.1333,0.0587 -0.2754,0.0881 -0.4266,0.0881 -0.2662,0 -0.4769,-0.0751 -0.6298,-0.2244 -0.1536,-0.1502 -0.2302,-0.34 -0.2302,-0.5698 0,-0.1509 0.0348,-0.2864 0.1045,-0.4056 0.0702,-0.1191 0.1681,-0.2097 0.2938,-0.2728 0.1255,-0.0629 0.3078,-0.1181 0.5449,-0.1656 0.3192,-0.0622 0.5411,-0.1209 0.6642,-0.1744l0 -0.0708c0,-0.1372 -0.0323,-0.2338 -0.0971,-0.2926 -0.0651,-0.0577 -0.1872,-0.0871 -0.3678,-0.0871 -0.122,0 -0.217,0.025 -0.2852,0.0752 -0.068,0.0491 -0.1231,0.1362 -0.1654,0.2615zm0.9155 0.5764c-0.0871,0.0303 -0.2261,0.0665 -0.4164,0.1089 -0.1899,0.0423 -0.3137,0.0836 -0.3729,0.1233 -0.0888,0.0665 -0.1338,0.1495 -0.1338,0.2502 0,0.1004 0.0357,0.1857 0.1072,0.2582 0.0717,0.0726 0.1622,0.1088 0.273,0.1088 0.1238,0 0.2412,-0.0423 0.3533,-0.126 0.0834,-0.0638 0.1372,-0.1424 0.1629,-0.2356 0.0184,-0.0604 0.0267,-0.1761 0.0267,-0.3462l0 -0.1416zm3.7016 1.2896l-0.6843 0 0 -1.3706c0,-0.2901 -0.0152,-0.4773 -0.044,-0.5627 -0.0294,-0.0846 -0.0776,-0.1512 -0.1432,-0.1987 -0.0658,-0.0464 -0.1448,-0.0707 -0.237,-0.0707 -0.1189,0 -0.2253,0.0338 -0.3193,0.1011 -0.0942,0.068 -0.159,0.1571 -0.1938,0.2684 -0.0349,0.1113 -0.0523,0.3168 -0.0523,0.617l0 1.2162 -0.6846 0 0 -2.6851 0.6354 0 0 0.3944c0.2261,-0.3039 0.5106,-0.4558 0.8531,-0.4558 0.1507,0 0.2897,0.0286 0.4142,0.0846 0.1248,0.057 0.2195,0.1287 0.2838,0.2168 0.0641,0.0878 0.1089,0.1872 0.1338,0.2985 0.0257,0.1113 0.0382,0.2701 0.0382,0.4773l0 1.6693zm0.6696 0l0 -3.707 0.6853 0 0 1.967 0.801 -0.9451 0.8431 0 -0.884 0.9806 0.9473 1.7045 -0.7376 0 -0.6513 -1.2057 -0.3185 0.3459 0 0.8598 -0.6853 0zm2.6413 -1.3811c0,-0.2356 0.0565,-0.4644 0.1678,-0.6853 0.1126,-0.2199 0.2711,-0.3892 0.4766,-0.5047 0.2055,-0.1167 0.435,-0.1754 0.6887,-0.1754 0.391,0 0.712,0.1321 0.962,0.3963 0.2505,0.264 0.3753,0.5972 0.3753,1.0002 0,0.4058 -0.1265,0.7422 -0.3785,1.0099 -0.2527,0.2676 -0.5705,0.4005 -0.9539,0.4005 -0.2378,0 -0.4631,-0.0553 -0.6786,-0.1666 -0.2153,-0.1113 -0.379,-0.2745 -0.4916,-0.4893 -0.1113,-0.2151 -0.1678,-0.4766 -0.1678,-0.7856zm0.7019 0.0382c0,0.2666 0.0607,0.4702 0.1828,0.6118 0.1216,0.1414 0.272,0.2124 0.4509,0.2124 0.1788,0 0.3285,-0.071 0.4489,-0.2124 0.1214,-0.1416 0.1823,-0.3469 0.1823,-0.617 0,-0.2625 -0.0609,-0.4653 -0.1823,-0.607 -0.1204,-0.1414 -0.2701,-0.2121 -0.4489,-0.2121 -0.1789,0 -0.3293,0.0707 -0.4509,0.2121 -0.1221,0.1417 -0.1828,0.3462 -0.1828,0.6122zm3.216 1.3429l-1.0427 -2.6851 0.7185 0 0.4871 1.3705 0.1414 0.4575c0.0377,-0.1164 0.0617,-0.1932 0.0708,-0.2304 0.0234,-0.0761 0.0474,-0.152 0.0731,-0.2271l0.4925 -1.3705 0.7044 0 -1.0288 2.6851 -0.6163 0zm1.7397 -2.6851l0.7286 0 0.6187 1.9066 0.6046 -1.9066 0.7085 0 -0.913 2.584 -0.1637 0.4678c-0.06,0.1563 -0.1175,0.2762 -0.1715,0.3592 -0.0548,0.0829 -0.1175,0.1492 -0.1879,0.2011 -0.0707,0.0508 -0.1571,0.0915 -0.2606,0.1198 -0.103,0.0287 -0.2194,0.0433 -0.3498,0.0433 -0.1314,0 -0.2603,-0.0146 -0.3878,-0.0433l-0.0604 -0.5566c0.1071,0.0226 0.2035,0.0328 0.2901,0.0328 0.1588,0 0.277,-0.0484 0.3533,-0.145 0.0758,-0.0967 0.1351,-0.22 0.1757,-0.3702l-0.9848 -2.6929zm0.9848 -0.3288l0.3359 -0.7563 0.7677 0 -0.6704 0.7563 -0.4332 0zm-25.0834 5.111l1.0517 0 0 0.6496c0.1356,-0.2231 0.3205,-0.4037 0.5534,-0.5417 0.2327,-0.1392 0.4916,-0.2089 0.7751,-0.2089 0.4945,0 0.915,0.2018 1.2585,0.604 0.3452,0.4023 0.5177,0.9637 0.5177,1.683 0,0.7377 -0.1737,1.3121 -0.5201,1.7214 -0.3479,0.4093 -0.7697,0.6141 -1.2644,0.6141 -0.2354,0 -0.449,-0.0485 -0.641,-0.1451 -0.1901,-0.0981 -0.3915,-0.2645 -0.6038,-0.5003l0 2.2288 -1.1271 0 0 -6.1049zm1.1161 2.1364c0,0.4959 0.0944,0.8641 0.2848,1.1002 0.1891,0.2373 0.4205,0.3567 0.6945,0.3567 0.2616,0 0.4793,-0.1094 0.6533,-0.3269 0.1739,-0.2175 0.2617,-0.5757 0.2617,-1.0718 0,-0.4649 -0.0905,-0.8088 -0.2701,-1.0334 -0.1793,-0.2246 -0.4012,-0.3369 -0.6654,-0.3369 -0.2753,0 -0.5043,0.1096 -0.6863,0.3312 -0.1822,0.2205 -0.2725,0.5473 -0.2725,0.9809zm5.0154 2.2855l-1.1271 0 0 -4.4219 1.0463 0 0 0.6283c0.1794,-0.2972 0.3411,-0.4932 0.4835,-0.5872 0.1438,-0.0937 0.3056,-0.1421 0.4876,-0.1421 0.2576,0 0.504,0.0739 0.7425,0.2217l-0.3494 1.0192c-0.1891,-0.1265 -0.3657,-0.1904 -0.5289,-0.1904 -0.1588,0 -0.2916,0.0441 -0.4012,0.1351 -0.1106,0.0895 -0.1958,0.253 -0.2589,0.4888 -0.0629,0.2361 -0.0944,0.7305 -0.0944,1.4826l0 1.3659zm4.5855 -1.4072l1.1242 0.1947c-0.1448,0.4279 -0.3723,0.7533 -0.6845,0.9767 -0.311,0.2246 -0.7012,0.3354 -1.1697,0.3354 -0.7408,0 -1.2888,-0.2503 -1.6451,-0.7535 -0.2806,-0.4023 -0.4215,-0.9111 -0.4215,-1.5238 0,-0.7334 0.1847,-1.3076 0.5546,-1.7226 0.3685,-0.4151 0.8355,-0.6226 1.3997,-0.6226 0.6339,0 1.134,0.2175 1.5009,0.6525 0.3658,0.435 0.5412,1.1002 0.5261,1.9971l-2.8256 0c0.0084,0.3467 0.0989,0.6168 0.2728,0.8086 0.1737,0.1935 0.3915,0.2901 0.6503,0.2901 0.1769,0 0.3247,-0.0499 0.445,-0.1492 0.1209,-0.101 0.2124,-0.2615 0.2728,-0.4834zm0.0644 -1.1827c-0.0083,-0.3396 -0.092,-0.5969 -0.252,-0.7731 -0.1603,-0.1762 -0.3562,-0.2645 -0.5862,-0.2645 -0.2466,0 -0.4494,0.094 -0.6094,0.2802 -0.1603,0.1847 -0.2398,0.4376 -0.2369,0.7574l1.6845 0zm3.2101 2.5899l-1.7175 -4.4219 1.1834 0 0.8025 2.2572 0.2329 0.7533c0.0616,-0.1918 0.1015,-0.3185 0.1164,-0.3795 0.0384,-0.1252 0.0781,-0.2502 0.1207,-0.3738l0.8105 -2.2572 1.1601 0 -1.6939 4.4219 -1.0151 0zm3.1377 -2.2743c0,-0.388 0.0929,-0.7645 0.2767,-1.1286 0.1849,-0.3623 0.4465,-0.641 0.7848,-0.8313 0.3381,-0.1921 0.7164,-0.2887 1.134,-0.2887 0.6437,0 1.1724,0.2175 1.5846,0.6525 0.4123,0.435 0.6178,0.9835 0.6178,1.6472 0,0.6682 -0.2082,1.2226 -0.6234,1.6632 -0.4162,0.4406 -0.9392,0.6596 -1.5709,0.6596 -0.3915,0 -0.7629,-0.091 -1.1174,-0.2745 -0.3547,-0.1833 -0.6246,-0.4519 -0.8095,-0.8059 -0.1838,-0.3538 -0.2767,-0.7846 -0.2767,-1.2935zm1.156 0.0626c0,0.4392 0.1,0.7746 0.3014,1.0078 0.1999,0.2331 0.4477,0.3496 0.7423,0.3496 0.2943,0 0.5409,-0.1165 0.7395,-0.3496 0.1999,-0.2332 0.3,-0.5713 0.3,-1.0163 0,-0.4321 -0.1001,-0.766 -0.3,-0.9992 -0.1986,-0.2331 -0.4452,-0.3496 -0.7395,-0.3496 -0.2946,0 -0.5424,0.1165 -0.7423,0.3496 -0.2014,0.2332 -0.3014,0.5698 -0.3014,1.0077zm8.0324 2.2117l-1.0461 0 0 -0.6495c-0.1739,0.2529 -0.3795,0.4406 -0.6165,0.5641 -0.2368,0.1238 -0.4751,0.185 -0.7161,0.185 -0.4903,0 -0.9094,-0.2048 -1.2585,-0.6141 -0.3479,-0.4093 -0.5233,-0.9808 -0.5233,-1.7128 0,-0.7506 0.1697,-1.3204 0.5093,-1.7099 0.3396,-0.3895 0.77,-0.5857 1.2891,-0.5857 0.4751,0 0.8871,0.2062 1.2353,0.617l0 -2.1989 1.1268 0 0 6.1048zm-3.0087 -2.3068c0,0.4719 0.0631,0.813 0.1889,1.0248 0.1808,0.3041 0.4357,0.4575 0.7616,0.4575 0.26,0 0.4807,-0.115 0.6627,-0.344 0.1808,-0.2287 0.2726,-0.5712 0.2726,-1.026 0,-0.5074 -0.0888,-0.8742 -0.2642,-1.0976 -0.1767,-0.2231 -0.4027,-0.3354 -0.6794,-0.3354 -0.267,0 -0.4901,0.1109 -0.6709,0.3313 -0.1808,0.2204 -0.2713,0.55 -0.2713,0.9894z"/>
 </g>
</svg>
