<svg xmlns="http://www.w3.org/2000/svg" viewBox="0 0 120 80">
    <defs>
        <style>.cls-1{fill:#fff;}.cls-2{fill:#8cbc06;}</style>
    </defs>
    <g id="Ebene_1" data-name="Ebene 1">
        <path class="cls-1" d="M4,80a4,4,0,0,1-4-4V4A4,4,0,0,1,4,0H116a4,4,0,0,1,4,4V76a4,4,0,0,1-4,4"/>
        <path class="cls-1"
              d="M60,19.53,86.42,30.1v3.52H82.9a1.65,1.65,0,0,1-.56,1.24,1.91,1.91,0,0,1-1.34.52H39a1.87,1.87,0,0,1-1.33-.52,1.63,1.63,0,0,1-.57-1.24H33.58V30.1Z"/>
        <path class="cls-1"
              d="M84.52,63.57a1.9,1.9,0,0,1,1.34.52,1.65,1.65,0,0,1,.56,1.24v3.52H33.58V65.33a1.65,1.65,0,0,1,.56-1.24,1.91,1.91,0,0,1,1.34-.52Z"/>
        <path class="cls-1"
              d="M40.63,37.15h7V58.28h3.52V37.15h7.05V58.28h3.52V37.15h7.05V58.28h3.52V37.15h7V58.28H81a1.92,1.92,0,0,1,1.34.53A1.65,1.65,0,0,1,82.9,60v1.77H37.1V60a1.62,1.62,0,0,1,.57-1.23A1.88,1.88,0,0,1,39,58.28h1.63Z"/>
        <path d="M60.46,13.73,87.58,24.58v3.61H84a1.69,1.69,0,0,1-.58,1.28A2,2,0,0,1,82,30H38.91a2,2,0,0,1-1.37-.53A1.72,1.72,0,0,1,37,28.19H33.35V24.58ZM85.63,58.92a1.94,1.94,0,0,1,1.37.54,1.7,1.7,0,0,1,.58,1.27v3.62H33.35V60.73a1.67,1.67,0,0,1,.58-1.27,1.93,1.93,0,0,1,1.37-.54Zm-45-27.11h7.23V53.5h3.61V31.81h7.23V53.5h3.62V31.81H69.5V53.5h3.62V31.81h7.23V53.5H82a1.93,1.93,0,0,1,1.37.54A1.67,1.67,0,0,1,84,55.31v1.81H37V55.31A1.7,1.7,0,0,1,37.54,54a2,2,0,0,1,1.37-.54h1.67Z"/>
        <circle class="cls-1" cx="33.5" cy="43.3" r="12.32" transform="translate(-15.61 19.11) rotate(-26.05)"/>
        <path class="cls-2"
              d="M28.46,34.61a10.16,10.16,0,0,1,10.12,0,10.09,10.09,0,0,1,3.67,3.67,10.16,10.16,0,0,1,0,10.12,10.06,10.06,0,0,1-3.67,3.66,10.09,10.09,0,0,1-10.12,0A10,10,0,0,1,24.8,48.4a10.16,10.16,0,0,1,0-10.12A10.06,10.06,0,0,1,28.46,34.61Zm5.08,2a.81.81,0,0,0-.59.23L31.75,38a.79.79,0,0,0-.24.59.81.81,0,0,0,.24.59l2.48,2.48H27.64a.85.85,0,0,0-.84.84v1.68a.83.83,0,0,0,.25.59.85.85,0,0,0,.59.25h6.59L31.75,47.5a.78.78,0,0,0-.25.59.79.79,0,0,0,.25.59L33,49.87a.78.78,0,0,0,.59.24.81.81,0,0,0,.59-.24l4.75-4.75,1.19-1.19a.81.81,0,0,0,.24-.59.79.79,0,0,0-.24-.59l-1.19-1.2L34.13,36.8A.84.84,0,0,0,33.54,36.57Z"/>
    </g>
</svg>