<?xml version="1.0" encoding="UTF-8"?>
<!DOCTYPE svg PUBLIC "-//W3C//DTD SVG 1.1//EN" "http://www.w3.org/Graphics/SVG/1.1/DTD/svg11.dtd">
<!-- Creator: CorelDRAW -->
<svg xmlns="http://www.w3.org/2000/svg" xml:space="preserve" width="50mm" height="35mm" style="shape-rendering:geometricPrecision; text-rendering:geometricPrecision; image-rendering:optimizeQuality; fill-rule:evenodd; clip-rule:evenodd"
viewBox="0 0 50 35"
 xmlns:xlink="http://www.w3.org/1999/xlink">
 <defs>
  <style type="text/css">
   <![CDATA[
    .str0 {stroke:black;stroke-width:0.0762}
    .fil0 {fill:#FEFEFE;fill-rule:nonzero}
    .fil1 {fill:#826794;fill-rule:nonzero}
   ]]>
  </style>
 </defs>
 <g id="Layer_x0020_1">
  <metadata id="CorelCorpID_0Corel-Layer"/>
  <path class="fil0 str0" d="M5.2445 3.3889l39.5111 0c0.7793,0 1.4111,0.6318 1.4111,1.4111l0 25.4c0,0.7793 -0.6318,1.4111 -1.4111,1.4111l-39.5111 0c-0.7793,0 -1.4112,-0.6318 -1.4112,-1.4111l0 -25.4c0,-0.7793 0.6319,-1.4111 1.4112,-1.4111z"/>
  <path class="fil1" d="M19.5999 14.937l0 1.8665 2.3343 -2.3338 -2.3343 -2.3341 0 1.8667 -10.7715 0c-1.0328,0 -1.9144,0.3639 -2.6422,1.094 -0.7273,0.7295 -1.0915,1.6104 -1.0915,2.6399 0,1.0311 0.3642,1.912 1.0937,2.642 0.7298,0.7295 1.6107,1.0937 2.64,1.0937l1.8148 0 0 -0.935 -1.8129 0c-0.7742,0 -1.434,-0.273 -1.9807,-0.8199 -0.547,-0.547 -0.8204,-1.2058 -0.8204,-1.9808 0,-0.773 0.2734,-1.4322 0.8204,-1.979 0.5467,-0.5469 1.2058,-0.8202 1.9807,-0.8202l10.7696 0zm3.7379 2.3407l0 -4.964 0.7639 0 0 1.7879c0.2356,-0.3339 0.514,-0.5015 0.8369,-0.5015 0.3519,0 0.6423,0.1594 0.8735,0.4762 0.2303,0.3167 0.3453,0.772 0.3453,1.3662 0,0.6135 -0.1177,1.0875 -0.3526,1.4192 -0.2349,0.3317 -0.5197,0.4969 -0.8549,0.4969 -0.1651,0 -0.3275,-0.0509 -0.4882,-0.1536 -0.1607,-0.103 -0.2991,-0.2543 -0.4151,-0.4556l0 0.5283 -0.7088 0zm0.7582 -1.8758c0,0.3723 0.0472,0.6472 0.1411,0.8264 0.1327,0.2531 0.3081,0.3791 0.528,0.3791 0.1681,0 0.3118,-0.0902 0.4308,-0.2693 0.1187,-0.1791 0.1781,-0.4624 0.1781,-0.8485 0,-0.4101 -0.0602,-0.7071 -0.1801,-0.8887 -0.1187,-0.1814 -0.2718,-0.2728 -0.4592,-0.2728 -0.1831,0 -0.3352,0.089 -0.4568,0.2659 -0.1217,0.1779 -0.1819,0.4462 -0.1819,0.8079zm2.4987 0.0266c0,-0.3155 0.0632,-0.6217 0.1875,-0.9178 0.1253,-0.2946 0.3025,-0.5212 0.5318,-0.676 0.2292,-0.156 0.4852,-0.2346 0.7686,-0.2346 0.4361,0 0.7944,0.1769 1.0737,0.5305 0.2794,0.3536 0.4187,0.7998 0.4187,1.3394 0,0.5433 -0.1412,0.9942 -0.4223,1.3524 -0.2821,0.3583 -0.6369,0.5362 -1.0647,0.5362 -0.2654,0 -0.517,-0.074 -0.7573,-0.2231 -0.2403,-0.1489 -0.4232,-0.3674 -0.5485,-0.6554 -0.1243,-0.2877 -0.1875,-0.6379 -0.1875,-1.0516zm0.7834 0.0508c0,0.3573 0.0676,0.63 0.2042,0.8195 0.1354,0.1894 0.3034,0.2843 0.503,0.2843 0.1995,0 0.3666,-0.0949 0.5012,-0.2843 0.1357,-0.1895 0.2032,-0.4647 0.2032,-0.8264 0,-0.3513 -0.0675,-0.6229 -0.2032,-0.8125 -0.1346,-0.1895 -0.3017,-0.2843 -0.5012,-0.2843 -0.1996,0 -0.3676,0.0948 -0.503,0.2843 -0.1366,0.1896 -0.2042,0.4634 -0.2042,0.8194zm5.4225 1.7984l-0.764 0 0 -1.8352c0,-0.3885 -0.0167,-0.6394 -0.0493,-0.7536 -0.0322,-0.1133 -0.0863,-0.2023 -0.1595,-0.2659 -0.0732,-0.0624 -0.1614,-0.0949 -0.2647,-0.0949 -0.1326,0 -0.2516,0.0452 -0.3565,0.1354 -0.1047,0.0912 -0.1771,0.2104 -0.216,0.3593 -0.039,0.1491 -0.0587,0.4243 -0.0587,0.8266l0 1.6283 -0.7637 0 0 -3.5956 0.7092 0 0 0.5281c0.2523,-0.4067 0.5698,-0.6101 0.9524,-0.6101 0.1678,0 0.3226,0.0381 0.4619,0.1133 0.1393,0.0761 0.2452,0.1722 0.3167,0.2901 0.0713,0.1177 0.1214,0.2507 0.1492,0.3998 0.029,0.1492 0.043,0.3617 0.043,0.6391l0 2.2353zm0.7747 -4.0833l0 -0.8807 0.764 0 0 0.8807 -0.764 0zm0 4.0833l0 -3.5956 0.764 0 0 3.5956 -0.764 0zm1.2124 -3.5956l0.4241 0 0 -0.2715c0,-0.3017 0.0261,-0.5283 0.0781,-0.6774 0.0519,-0.1492 0.1465,-0.2703 0.2848,-0.3639 0.1394,-0.0936 0.3148,-0.1401 0.5264,-0.1401 0.2179,0 0.4305,0.0406 0.6396,0.1214l-0.103 0.6647c-0.1219,-0.0371 -0.2386,-0.0543 -0.3509,-0.0543 -0.1115,0 -0.1904,0.0312 -0.2386,0.0958 -0.0484,0.0649 -0.0715,0.1885 -0.0715,0.371l0 0.2543 0.5708 0 0 0.7478 -0.5708 0 0 2.8478 -0.7649 0 0 -2.8478 -0.4241 0 0 -0.7478zm2.1896 -0.4877l0 -0.8807 0.7637 0 0 0.8807 -0.7637 0zm0 4.0833l0 -3.5956 0.7637 0 0 3.5956 -0.7637 0zm4.0654 -2.5323l-0.7536 0.1688c-0.0251,-0.1873 -0.0828,-0.3283 -0.1728,-0.4232 -0.0899,-0.0946 -0.2059,-0.142 -0.3491,-0.142 -0.191,0 -0.3423,0.0821 -0.4556,0.245 -0.1133,0.1641 -0.1698,0.4381 -0.1698,0.8217 0,0.4265 0.0575,0.7283 0.1725,0.904 0.1153,0.1757 0.2693,0.2634 0.4632,0.2634 0.1459,0 0.2636,-0.0509 0.3565,-0.1536 0.0929,-0.1029 0.1578,-0.2799 0.1959,-0.5295l0.7509 0.1585c-0.0779,0.4288 -0.2283,0.7534 -0.4492,0.9718 -0.2209,0.2197 -0.517,0.3283 -0.8895,0.3283 -0.4221,0 -0.759,-0.1652 -1.0097,-0.4969 -0.2516,-0.3317 -0.3769,-0.7917 -0.3769,-1.3789 0,-0.593 0.1263,-1.0551 0.3779,-1.3856 0.2524,-0.3318 0.5929,-0.4971 1.023,-0.4971 0.3516,0 0.6312,0.0948 0.8388,0.283 0.2072,0.1885 0.3566,0.4762 0.4475,0.8623zm0.402 0.6831c0,-0.3155 0.0631,-0.6217 0.1875,-0.9178 0.1253,-0.2946 0.3024,-0.5212 0.5317,-0.676 0.2292,-0.156 0.4853,-0.2346 0.7686,-0.2346 0.4364,0 0.7944,0.1769 1.0738,0.5305 0.2794,0.3536 0.4187,0.7998 0.4187,1.3394 0,0.5433 -0.1413,0.9942 -0.4224,1.3524 -0.2821,0.3583 -0.6369,0.5362 -1.0647,0.5362 -0.2654,0 -0.517,-0.074 -0.7573,-0.2231 -0.2403,-0.1489 -0.4231,-0.3674 -0.5484,-0.6554 -0.1244,-0.2877 -0.1875,-0.6379 -0.1875,-1.0516zm0.7833 0.0508c0,0.3573 0.0676,0.63 0.2042,0.8195 0.1354,0.1894 0.3035,0.2843 0.503,0.2843 0.1995,0 0.3666,-0.0949 0.5013,-0.2843 0.1356,-0.1895 0.2032,-0.4647 0.2032,-0.8264 0,-0.3513 -0.0676,-0.6229 -0.2032,-0.8125 -0.1347,-0.1895 -0.3018,-0.2843 -0.5013,-0.2843 -0.1995,0 -0.3676,0.0948 -0.503,0.2843 -0.1366,0.1896 -0.2042,0.4634 -0.2042,0.8194zm-31.2275 9.0483l0 -7.3061 1.1242 0 0 2.6316c0.3472,-0.4917 0.7568,-0.7384 1.2325,-0.7384 0.5177,0 0.945,0.2347 1.2853,0.7008 0.3389,0.4661 0.5084,1.1364 0.5084,2.0107 0,0.9033 -0.1737,1.6009 -0.5192,2.0891 -0.3457,0.4882 -0.7651,0.7315 -1.2583,0.7315 -0.2432,0 -0.4823,-0.0749 -0.7187,-0.2263 -0.2361,-0.1514 -0.4398,-0.3742 -0.6104,-0.6703l0 0.7774 -1.0438 0zm1.1161 -2.7609c0,0.5477 0.0698,0.9527 0.2076,1.2163 0.1953,0.3726 0.4536,0.5581 0.7775,0.5581 0.2471,0 0.459,-0.1327 0.6337,-0.3964 0.1749,-0.2636 0.2624,-0.6806 0.2624,-1.2487 0,-0.604 -0.0887,-1.0411 -0.2649,-1.3082 -0.1752,-0.2671 -0.4005,-0.4013 -0.6765,-0.4013 -0.269,0 -0.4931,0.131 -0.672,0.3912 -0.1789,0.262 -0.2678,0.6566 -0.2678,1.189zm4.7787 -0.917l-1.0205 -0.2295c0.1148,-0.512 0.3113,-0.8897 0.5917,-1.1364 0.2814,-0.245 0.6966,-0.3691 1.2485,-0.3691 0.5027,0 0.8757,0.075 1.1217,0.2229 0.2445,0.1479 0.4177,0.3351 0.5177,0.5629 0.0995,0.228 0.1502,0.6448 0.1502,1.2539l-0.0123 1.6348c0,0.4644 0.0177,0.8079 0.0548,1.029 0.0354,0.2195 0.1037,0.4576 0.2022,0.7094l-1.1136 0c-0.0285,-0.0936 -0.0656,-0.2314 -0.1079,-0.4133 -0.0179,-0.0835 -0.0314,-0.1378 -0.0395,-0.1651 -0.1927,0.2332 -0.3976,0.4067 -0.6163,0.5239 -0.2184,0.1157 -0.4521,0.1737 -0.7008,0.1737 -0.4371,0 -0.7828,-0.1482 -1.0342,-0.4423 -0.2526,-0.2961 -0.3782,-0.6703 -0.3782,-1.1229 0,-0.2976 0.0573,-0.5647 0.172,-0.7993 0.1148,-0.2349 0.276,-0.4136 0.4824,-0.5377 0.2061,-0.1241 0.5054,-0.2329 0.8946,-0.3265 0.5247,-0.1226 0.8895,-0.2381 1.0918,-0.3438l0 -0.1393c0,-0.2705 -0.0534,-0.4612 -0.16,-0.5767 -0.1064,-0.114 -0.3074,-0.1718 -0.6037,-0.1718 -0.201,0 -0.3566,0.0492 -0.4689,0.148 -0.112,0.0968 -0.2019,0.2688 -0.2717,0.5152zm1.5043 1.1365c-0.1435,0.0594 -0.3718,0.1309 -0.6846,0.2142 -0.3113,0.0836 -0.515,0.1652 -0.6121,0.2433 -0.1462,0.131 -0.2199,0.2944 -0.2199,0.4934 0,0.1973 0.0587,0.3656 0.1762,0.5086 0.1177,0.143 0.2663,0.2143 0.4482,0.2143 0.2034,0 0.3963,-0.0833 0.5806,-0.2482 0.1366,-0.126 0.2256,-0.2808 0.2676,-0.4644 0.03,-0.1192 0.044,-0.3472 0.044,-0.6823l0 -0.2789zm6.0805 2.5414l-1.1244 0 0 -2.7014c0,-0.5715 -0.0246,-0.9406 -0.0725,-1.1092 -0.0477,-0.1666 -0.1268,-0.2975 -0.2349,-0.3911 -0.1079,-0.0919 -0.2376,-0.1394 -0.3892,-0.1394 -0.1954,0 -0.3703,0.0664 -0.5246,0.1988 -0.1543,0.1344 -0.261,0.3096 -0.3185,0.5293 -0.0572,0.2194 -0.086,0.6241 -0.086,1.2161l0 2.3969 -1.1244 0 0 -5.292 1.0438 0 0 0.7772c0.3718,-0.5988 0.8389,-0.8981 1.4016,-0.8981 0.2474,0 0.4755,0.056 0.6804,0.1666 0.2049,0.1123 0.3607,0.2536 0.4659,0.4271 0.1051,0.1734 0.1789,0.369 0.2199,0.5885 0.0423,0.2196 0.0629,0.5324 0.0629,0.9408l0 3.2899zm4.847 -3.727l-1.1094 0.2482c-0.0366,-0.2755 -0.1216,-0.4831 -0.2541,-0.6224 -0.1324,-0.1396 -0.3032,-0.2094 -0.5135,-0.2094 -0.2814,0 -0.5042,0.1209 -0.6708,0.3607 -0.1666,0.2416 -0.2499,0.6448 -0.2499,1.2094 0,0.6278 0.0845,1.0719 0.2538,1.3304 0.1696,0.2584 0.3963,0.3877 0.6819,0.3877 0.2145,0 0.388,-0.0747 0.5246,-0.2261 0.1366,-0.1516 0.2322,-0.4118 0.2882,-0.7791l1.1052 0.2329c-0.1147,0.6313 -0.3361,1.1092 -0.6612,1.4306 -0.3253,0.3233 -0.761,0.4833 -1.3087,0.4833 -0.6216,0 -1.1175,-0.2433 -1.4863,-0.7315 -0.3703,-0.4882 -0.5546,-1.1654 -0.5546,-2.0294 0,-0.8728 0.1855,-1.5532 0.5558,-2.0397 0.3718,-0.4882 0.873,-0.7315 1.5055,-0.7315 0.5177,0 0.9288,0.1396 1.235,0.4168 0.3047,0.2774 0.5246,0.7007 0.6585,1.2691zm1.6925 0.0491l-1.0204 -0.2295c0.115,-0.512 0.3113,-0.8897 0.5916,-1.1364 0.2814,-0.245 0.6967,-0.3691 1.2485,-0.3691 0.5028,0 0.8758,0.075 1.1217,0.2229 0.2445,0.1479 0.418,0.3351 0.5178,0.5629 0.0995,0.228 0.1501,0.6448 0.1501,1.2539l-0.0123 1.6348c0,0.4644 0.0179,0.8079 0.0548,1.029 0.0354,0.2195 0.1037,0.4576 0.2022,0.7094l-1.1136 0c-0.0285,-0.0936 -0.0656,-0.2314 -0.1078,-0.4133 -0.0177,-0.0835 -0.0315,-0.1378 -0.0396,-0.1651 -0.1926,0.2332 -0.3976,0.4067 -0.6163,0.5239 -0.2184,0.1157 -0.4521,0.1737 -0.7007,0.1737 -0.4369,0 -0.7826,-0.1482 -1.0343,-0.4423 -0.2526,-0.2961 -0.3781,-0.6703 -0.3781,-1.1229 0,-0.2976 0.0572,-0.5647 0.172,-0.7993 0.1147,-0.2349 0.2759,-0.4136 0.4823,-0.5377 0.2062,-0.1241 0.5055,-0.2329 0.8947,-0.3265 0.5248,-0.1226 0.8895,-0.2381 1.0917,-0.3438l0 -0.1393c0,-0.2705 -0.0533,-0.4612 -0.16,-0.5767 -0.1064,-0.114 -0.3074,-0.1718 -0.6037,-0.1718 -0.201,0 -0.3565,0.0492 -0.4686,0.148 -0.1123,0.0968 -0.2022,0.2688 -0.272,0.5152zm1.5043 1.1365c-0.1435,0.0594 -0.3715,0.1309 -0.6846,0.2142 -0.3113,0.0836 -0.515,0.1652 -0.6118,0.2433 -0.1464,0.131 -0.2202,0.2944 -0.2202,0.4934 0,0.1973 0.0588,0.3656 0.1762,0.5086 0.1177,0.143 0.2664,0.2143 0.4482,0.2143 0.2035,0 0.3963,-0.0833 0.5806,-0.2482 0.1367,-0.126 0.2256,-0.2808 0.2679,-0.4644 0.0299,-0.1192 0.0437,-0.3472 0.0437,-0.6823l0 -0.2789zm3.2909 2.5414l-1.1242 0 0 -5.292 1.0436 0 0 0.7519c0.1791,-0.3555 0.3403,-0.5905 0.4821,-0.7027 0.1435,-0.1123 0.3047,-0.1701 0.4865,-0.1701 0.2568,0 0.5028,0.0885 0.7404,0.2654l-0.3485 1.2197c-0.1884,-0.1513 -0.3646,-0.228 -0.527,-0.228 -0.1585,0 -0.2912,0.0528 -0.4005,0.1617 -0.1106,0.1071 -0.1954,0.3027 -0.258,0.585 -0.0632,0.2826 -0.0944,0.8746 -0.0944,1.7744l0 1.6347zm2.1134 -6.01l0 -1.2961 1.1242 0 0 1.2961 -1.1242 0zm0 6.01l0 -5.292 1.1242 0 0 5.292 -1.1242 0zm2.0164 -2.7218c0,-0.4644 0.0929,-0.915 0.2759,-1.3507 0.1845,-0.4337 0.4455,-0.7671 0.7829,-0.9952 0.3373,-0.2295 0.7145,-0.3452 1.131,-0.3452 0.6421,0 1.1694,0.2602 1.5807,0.7809 0.4113,0.5204 0.616,1.177 0.616,1.9714 0,0.7996 -0.2076,1.463 -0.6216,1.9903 -0.4151,0.5273 -0.937,0.7895 -1.5667,0.7895 -0.3907,0 -0.761,-0.1089 -1.1149,-0.3285 -0.3538,-0.2195 -0.6229,-0.5408 -0.8074,-0.9645 -0.183,-0.4236 -0.2759,-0.9389 -0.2759,-1.548zm1.1531 0.075c0,0.5255 0.0995,0.927 0.3005,1.2059 0.1993,0.2792 0.4465,0.4185 0.7404,0.4185 0.2936,0 0.5396,-0.1393 0.7376,-0.4185 0.1996,-0.2789 0.2991,-0.6838 0.2991,-1.2163 0,-0.517 -0.0995,-0.9167 -0.2991,-1.1959 -0.198,-0.2789 -0.444,-0.4184 -0.7376,-0.4184 -0.2939,0 -0.5411,0.1395 -0.7404,0.4184 -0.201,0.2792 -0.3005,0.6824 -0.3005,1.2063z"/>
 </g>
</svg>
