<svg id="Ebene_1" data-name="Ebene 1" xmlns="http://www.w3.org/2000/svg" viewBox="0 0 120 80"><defs><style>.cls-1{fill:#ffb3c7;}.cls-2{fill:#0a0b09;}</style></defs><rect class="cls-1" width="120" height="80" rx="4"/><rect class="cls-1" x="10" y="12.22" width="100" height="55.56" rx="9.6"/><path class="cls-2" d="M100.65,44.77A2.39,2.39,0,1,0,103,47.16,2.38,2.38,0,0,0,100.65,44.77Zm-7.79-1.85a3.42,3.42,0,1,0-3.42,3.27A3.34,3.34,0,0,0,92.86,42.92Zm0-6.36h3.78V49.28H92.87v-.81a6.6,6.6,0,0,1-3.74,1.16,6.71,6.71,0,0,1,0-13.42,6.6,6.6,0,0,1,3.74,1.16v-.81Zm-30.2,1.66V36.56H58.8V49.28h3.88V43.34c0-2,2.15-3.08,3.64-3.08h.05v-3.7a4.65,4.65,0,0,0-3.7,1.66ZM53,42.92a3.42,3.42,0,1,0-3.42,3.27A3.34,3.34,0,0,0,53,42.92Zm0-6.36h3.78V49.28H53.05v-.81a6.58,6.58,0,0,1-3.74,1.16,6.71,6.71,0,0,1,0-13.42,6.58,6.58,0,0,1,3.74,1.16v-.81Zm22.72-.34A4.58,4.58,0,0,0,71.88,38V36.56H68.12V49.28h3.81V42.6a2.66,2.66,0,0,1,2.83-2.88c1.66,0,2.61,1,2.61,2.85v6.71h3.77V41.19c0-3-2.33-5-5.37-5ZM37.16,49.28h4V30.89h-4Zm-17.35,0H24V30.89H19.81Zm14.63-18.4a14.7,14.7,0,0,1-4.28,10.44l5.78,8H30.78l-6.29-8.65,1.62-1.23a10.59,10.59,0,0,0,4.24-8.52Z"/></svg>