<?xml version="1.0" encoding="UTF-8"?>
<!DOCTYPE svg PUBLIC "-//W3C//DTD SVG 1.1//EN" "http://www.w3.org/Graphics/SVG/1.1/DTD/svg11.dtd">
<!-- Creator: CorelDRAW -->
<svg xmlns="http://www.w3.org/2000/svg" xml:space="preserve" width="31.75mm" height="21.167mm" style="shape-rendering:geometricPrecision; text-rendering:geometricPrecision; image-rendering:optimizeQuality; fill-rule:evenodd; clip-rule:evenodd"
viewBox="0 0 31.75 21.167"
 xmlns:xlink="http://www.w3.org/1999/xlink">
 <defs>
  <style type="text/css">
   <![CDATA[
    .str0 {stroke:#C5C6C6;stroke-width:0.0762}
    .fil0 {fill:none}
    .fil1 {fill:white}
    .fil4 {fill:#2B2A29;fill-rule:nonzero}
    .fil3 {fill:#E53124;fill-rule:nonzero}
    .fil2 {fill:#FEFEFE;fill-rule:nonzero}
   ]]>
  </style>
 </defs>
 <g id="Layer_x0020_1">
  <metadata id="CorelCorpID_0Corel-Layer"/>
  <g>
   <path class="fil0 str0" d="M1.0583 0.0002l29.6334 0c0.5843,0 1.0582,0.4739 1.0582,1.0583l0.0001 19.05c-0.0001,0.5842 -0.474,1.0581 -1.0584,1.0581l-29.6333 0.0002c-0.5843,-0.0002 -1.0582,-0.4741 -1.0582,-1.0585l-0.0001 -19.0498c0.0001,-0.5844 0.474,-1.0583 1.0584,-1.0583z"/>
   <path id="1" class="fil1" d="M1.0583 0.0002l29.6334 0c0.5843,0 1.0582,0.4739 1.0582,1.0583l0.0001 19.05c-0.0001,0.5842 -0.474,1.0581 -1.0584,1.0581l-29.6333 0.0002c-0.5843,-0.0002 -1.0582,-0.4741 -1.0582,-1.0585l-0.0001 -19.0498c0.0001,-0.5844 0.474,-1.0583 1.0584,-1.0583z"/>
  </g>
  <g>
   <g id="_433804256">
    <polygon id="_433414448" class="fil2" points="11.4768,3.0673 20.2733,3.0673 20.2733,11.8638 11.4768,11.8638 "/>
    <polygon id="_433414256" class="fil3" points="11.4768,3.0604 20.2733,3.0604 15.8752,7.4586 "/>
    <polygon id="_433413656" class="fil3" points="11.4768,11.8567 20.2733,11.8567 15.8752,7.4586 "/>
    <polygon id="_433410008" class="fil3" points="11.4768,3.0604 11.4768,11.8567 7.0783,7.4586 "/>
    <polygon id="_433416080" class="fil3" points="20.2733,3.0604 20.2733,11.8567 24.6717,7.4586 "/>
   </g>
   <path class="fil4" d="M11.267 15.6651l0 -1.4594c0,-0.1898 -0.0985,-0.3996 -0.5765,-0.3996l0 -0.1243 1.8194 0 0 0.1243c-0.4776,0 -0.5756,0.2098 -0.5756,0.3996l0 3.2855c0,0.1896 0.098,0.3992 0.5756,0.3992l0 0.1243 -1.8194 0 0 -0.1243c0.478,0 0.5765,-0.2096 0.5765,-0.3992l0 -1.5579 -1.9834 0 0 1.5579c0,0.1896 0.0979,0.3992 0.576,0.3992l0 0.1243 -1.8196 0 0 -0.1243c0.4778,0 0.576,-0.2096 0.576,-0.3992l0 -3.2855c0,-0.1898 -0.0982,-0.3996 -0.576,-0.3996l0 -0.1243 1.8196 0 0 0.1243c-0.4781,0 -0.576,0.2098 -0.576,0.3996l0 1.4594 1.9834 0zm1.3965 1.0342l0.1505 0c0.2031,0.6087 0.6612,1.1589 1.355,1.1589 0.5301,0 0.8898,-0.4584 0.7397,-0.9691 -0.2687,-0.9164 -2.0551,-0.9558 -2.0551,-2.2056 0,-0.6481 0.5168,-1.0933 1.1583,-1.0933 0.6937,0 1.0077,0.4844 1.165,0l0.1371 0 0.144 1.3945 -0.1632 0c-0.1507,-0.6088 -0.5828,-1.1258 -1.1914,-1.1258 -0.3928,0 -0.6871,0.2157 -0.6871,0.6285 0,0.3793 0.4122,0.6475 0.6936,0.8177 0.89,0.5369 1.4921,0.8183 1.4921,1.6035 0,0.5893 -0.491,1.1978 -1.3805,1.1978 -0.6807,0 -1.1522,-0.4773 -1.2179,0l-0.1438 0 -0.1963 -1.4071zm5.1023 -1.0798c0.6609,0 1.0471,-0.2817 1.0471,-0.8115 0,-0.4979 -0.314,-0.7663 -0.7721,-0.851 -0.6024,-0.0395 -0.812,-0.0522 -0.812,0.1766l0 1.4859 0.537 0zm-0.537 1.8062l0 0c0,0.2294 0.0592,0.347 0.537,0.347 0.6806,0 1.1847,-0.2029 1.1847,-0.9686 0,-0.779 -0.7791,-0.9232 -1.3943,-0.9232l-0.3274 0 0 1.5448zm-0.6674 -3.22l0 0c0,-0.1898 -0.0982,-0.3996 -0.6282,-0.3996l0 -0.1243 1.7537 0c1.0083,0 1.7937,0.2685 1.7937,1.1065 0,0.5495 -0.3669,0.8312 -0.8703,0.9424l0 0.0133c0.5624,0.1043 1.0925,0.4511 1.0925,1.0799 0,0.7854 -0.6803,1.1908 -1.7079,1.1908l-2.0617 0 0 -0.1243c0.53,0 0.6282,-0.2096 0.6282,-0.3992l0 -3.2855zm7.0697 0.824l-0.1569 0c-0.1896,-0.7201 -0.6674,-1.2109 -1.4138,-1.2109 -1.0796,0 -1.5443,0.8703 -1.5443,2.0483 0,0.9165 0.4775,1.9044 1.5512,1.9044 0.6414,0 1.0799,-0.2093 1.5315,-0.6542l0.1112 0.131c-0.3992,0.4908 -1.0735,0.8183 -1.7018,0.8183 -1.2761,0 -2.2513,-0.8183 -2.2513,-2.2518 0,-1.3024 0.9227,-2.2649 2.2385,-2.2649 0.8965,0 1.2239,0.5373 1.4402,0.007l0.137 0 0.0585 1.4728z"/>
  </g>
 </g>
</svg>
