<svg id="Ebene_1" data-name="Ebene 1" xmlns="http://www.w3.org/2000/svg" viewBox="0 0 119.94 79.67"><title>paymill_new_wout_border</title><g id="Layer_1"><path d="M4,0.18H116a4,4,0,0,1,4,4v71.7a4,4,0,0,1-4,4H4a4,4,0,0,1-4-4V4.17A4,4,0,0,1,4,.18Z" transform="translate(-0.03 -0.18)" style="fill:#fff"/><path d="M35.31,32H33.55v5.68h1.68c2.43,0,3.46-1,3.46-2.9C38.7,33.06,37.74,32,35.31,32Zm-0.1,7.81H33.55v6H30.83v-16h4.69c3.37,0,5.92,1.58,5.92,4.84S39.08,39.82,35.21,39.82ZM49,35.65c-0.48-1.34-.91-2.76-0.91-2.76h0s-0.41,1.44-.91,2.76c0,0-1.64,4.55-1.66,4.55h5.2ZM43.49,45.83H40.77l6.11-16H49.5l6.23,16h-3L51.53,42.4H44.74Zm17.44-6v6H58.22v-6l-5.34-9.92h3l3.78,7.41h0l3.78-7.41h2.65Zm13.14,6.07-3.25-9.25c-0.36-1.08-.72-2.25-0.72-2.25h0s-0.1,1.25-.22,2.32l-1.13,9.18H66.23l2.19-16H71L74.61,40.2C75.06,41.47,75.5,43,75.5,43h0s0.46-1.56.91-2.83L80.07,29.9h2.62l2.19,16H82.11l-1.18-9.23c-0.14-1.1-.26-2.28-0.26-2.28h0s-0.34,1.17-.7,2.25l-3.2,9.25H74.08Zm13.28,0v-16h2.72v16H87.36Zm5.64,0v-16h2.72V43.65h6.11v2.21H93Zm11.68,0v-16h2.72V43.65h6.11v2.21h-8.83ZM17.16,33.49a0.63,0.63,0,0,0-.63-0.62h-3.2a1.22,1.22,0,0,0-1.09.62L5.81,47a0.62,0.62,0,0,0-.05.25,0.63,0.63,0,0,0,.63.62h3.2A1.45,1.45,0,0,0,10.76,47l6.35-13.27h0a0.62,0.62,0,0,0,.05-0.25h0Zm7.65,1.87a0.61,0.61,0,0,0-.05-0.25h0l-3-6.41h0a1.32,1.32,0,0,0-1.18-.84H17.4a0.63,0.63,0,0,0-.63.62,0.62,0.62,0,0,0,.05.25h0l3,6.32a1.13,1.13,0,0,1,.08.3,0.62,0.62,0,0,1-.08.29h0l-3,6.32a0.62,0.62,0,0,0-.05.25,0.63,0.63,0,0,0,.63.62h3.2A1.35,1.35,0,0,0,21.78,42h0l3-6.41h0A0.61,0.61,0,0,0,24.81,35.37Z" transform="translate(-0.03 -0.18)" style="fill:#ff5a00"/></g></svg>