<?xml version="1.0" encoding="UTF-8"?>
<!DOCTYPE svg PUBLIC "-//W3C//DTD SVG 1.1//EN" "http://www.w3.org/Graphics/SVG/1.1/DTD/svg11.dtd">
<!-- Creator: CorelDRAW -->
<svg xmlns="http://www.w3.org/2000/svg" xml:space="preserve" width="31.75mm" height="21.167mm" style="shape-rendering:geometricPrecision; text-rendering:geometricPrecision; image-rendering:optimizeQuality; fill-rule:evenodd; clip-rule:evenodd"
viewBox="0 0 31.75 21.167"
 xmlns:xlink="http://www.w3.org/1999/xlink">
 <defs>
  <style type="text/css">
   <![CDATA[
    .str0 {stroke:#C5C6C6;stroke-width:0.0762}
    .fil0 {fill:none}
    .fil2 {fill:#FD0100}
    .fil1 {fill:white}
    .fil3 {fill:white;fill-rule:nonzero}
   ]]>
  </style>
 </defs>
 <g id="Layer_x0020_1">
  <metadata id="CorelCorpID_0Corel-Layer"/>
  <g>
   <path class="fil0 str0" d="M1.0583 0.0002l29.6334 0c0.5843,0 1.0582,0.4739 1.0582,1.0583l0.0001 19.05c-0.0001,0.5842 -0.474,1.0581 -1.0584,1.0581l-29.6333 0.0002c-0.5843,-0.0002 -1.0582,-0.4741 -1.0582,-1.0585l-0.0001 -19.0498c0.0001,-0.5844 0.474,-1.0583 1.0584,-1.0583z"/>
   <path id="1" class="fil1" d="M1.0583 0.0002l29.6334 0c0.5843,0 1.0582,0.4739 1.0582,1.0583l0.0001 19.05c-0.0001,0.5842 -0.474,1.0581 -1.0584,1.0581l-29.6333 0.0002c-0.5843,-0.0002 -1.0582,-0.4741 -1.0582,-1.0585l-0.0001 -19.0498c0.0001,-0.5844 0.474,-1.0583 1.0584,-1.0583z"/>
  </g>
  <g>
   <rect class="fil2" x="5.33971" y="2.68208" width="21.0705" height="15.8028"/>
   <path class="fil3" d="M15.9659 5.4424c0,0.6887 1.155,1.4537 1.155,2.2401 0,0 0,0.0761 -0.032,0.1571 1.08,0.2279 1.8449,0.7651 1.8449,1.3945 0,0.8462 -1.3638,1.5462 -3.0537,1.5462 -1.7261,0 -3.0639,-0.6885 -3.0639,-1.5138 0,-0.6289 0.8289,-1.1395 1.8291,-1.4103 0,0.3471 1.1381,1.4486 1.1654,1.8931 0.0033,0.051 0.0132,0.0941 0,0.1465 0.2462,-0.1301 0.2462,-0.5372 0.2462,-0.5372 0,-0.9654 -1.1069,-1.3939 -1.1069,-2.3433 0,-0.3691 0.1713,-0.64 0.326,-0.7158l0 0.2656c0,0.6889 1.1977,1.4592 1.1977,2.0885l0 0.2063c0.2784,-0.1084 0.2784,-0.624 0.2784,-0.624 0,-0.868 -1.1123,-1.3508 -1.1123,-2.3435 0,-0.3686 0.1709,-0.6398 0.3261,-0.7161l0 0.2661z"/>
   <path class="fil3" d="M7.6616 15.0003c-0.4524,0 -0.7802,-0.1303 -0.7802,-0.1303l0 -0.7959 0.1121 0c0.0579,0.4208 0.3734,0.7407 0.7344,0.7407 0.3611,0 0.6143,-0.2019 0.6143,-0.5218 0,-0.3411 -0.3363,-0.4967 -0.5603,-0.6102l-0.3237 -0.1643c-0.3071,-0.1557 -0.5559,-0.4086 -0.5559,-0.762 0,-0.442 0.3237,-0.8208 0.9417,-0.8208 0.4233,0 0.7719,0.1432 0.7719,0.1432l0 0.7111 -0.112 0c-0.0664,-0.3788 -0.2738,-0.6776 -0.6971,-0.6776 -0.3155,0 -0.5021,0.219 -0.5021,0.442 0,0.2906 0.1991,0.4209 0.4314,0.5389l0.3239 0.1639c0.2944,0.1519 0.6597,0.4044 0.6597,0.8338 0,0.5471 -0.3736,0.9093 -1.0581,0.9093zm2.0913 -0.8675c-0.0872,0.0382 -0.2408,0.1097 -0.2408,0.3116 0,0.1095 0.0624,0.2865 0.2783,0.2865 0.1038,0 0.2489,-0.0591 0.3527,-0.1432l0 -0.6232 -0.3902 0.1683zm-0.1701 0.8505l0 0c-0.2822,0 -0.4648,-0.1895 -0.4648,-0.4712 0,-0.2022 0.1453,-0.358 0.4648,-0.476l0.5603 -0.206 0 -0.1772c0,-0.2649 -0.1204,-0.4291 -0.303,-0.4291 -0.1246,0 -0.249,0.0632 -0.3114,0.1642 -0.0246,0.0376 -0.0288,0.0927 -0.0288,0.1345 0,0.0716 0.0454,0.1557 0.0454,0.1557l-0.2737 0.1264c-0.0332,-0.0587 -0.0746,-0.1471 -0.0746,-0.2357 0,-0.0166 0.004,-0.0336 0.004,-0.0464 0.0208,-0.1514 0.1495,-0.2525 0.3237,-0.3575 0.1702,-0.1052 0.3154,-0.135 0.419,-0.135 0.5231,0 0.6142,0.4209 0.6142,0.5599l0 0.8715c0,0.1387 0.0126,0.2274 0.1245,0.2274 0.0332,0 0.0539,0 0.0997,-0.017l0.0997 -0.0337 0 0.1263 -0.5812 0.2189c-0.0871,-0.0629 -0.1287,-0.1767 -0.1451,-0.2735 -0.1369,0.118 -0.3734,0.2735 -0.5727,0.2735zm1.4275 -0.0422l0 -0.1005 0.137 -0.0258c0.0829,-0.0169 0.1409,-0.0798 0.1409,-0.1643l0 -1.1238c0,-0.0966 -0.0454,-0.1473 -0.1287,-0.1473 -0.0288,0 -0.0622,0.0044 -0.0954,0.0169l-0.0538 0.021 0 -0.1262 0.5974 -0.2611 0.0873 0 0 0.3117c0.1823,-0.2067 0.3982,-0.3117 0.5892,-0.3117 0.4232,0 0.6264,0.3076 0.6264,0.6652l0 0.9553c0,0.0845 0.0624,0.1519 0.1455,0.1643l0.1409 0.0258 0 0.1005 -0.9876 0 0 -0.1005 0.137 -0.0258c0.0829,-0.0169 0.1494,-0.0798 0.1494,-0.1643l0 -0.9509c0,-0.1266 -0.0334,-0.4085 -0.3653,-0.4085 -0.1826,0 -0.3361,0.1138 -0.4273,0.1979l0 1.1615c0,0.0845 0.0663,0.1474 0.1493,0.1643l0.1369 0.0258 0 0.1005 -0.9791 0zm3.6183 -1.6541l-0.5811 0 0 1.0442c0,0.2313 0.1206,0.3576 0.2946,0.3576 0.0707,0 0.1827,-0.0211 0.2865,-0.08l0.0456 0.101 -0.3736 0.2399c0,0 -0.0746,0.0125 -0.1117,0.0125 -0.3611,0 -0.5563,-0.2144 -0.5563,-0.6692l0 -1.006 -0.3028 0 0 -0.105c0,0 0.4564,-0.1771 0.6348,-0.6109l0.0829 0 0 0.5346 0.6558 0 -0.0747 0.1813zm0.8703 0.8458c-0.087,0.0382 -0.2406,0.1097 -0.2406,0.3116 0,0.1095 0.0619,0.2865 0.278,0.2865 0.1037,0 0.2491,-0.0591 0.3526,-0.1432l0 -0.6232 -0.39 0.1683zm-0.1702 0.8505l0 0c-0.2823,0 -0.4646,-0.1895 -0.4646,-0.4712 0,-0.2022 0.1451,-0.358 0.4646,-0.476l0.5602 -0.206 0 -0.1772c0,-0.2649 -0.1202,-0.4291 -0.3028,-0.4291 -0.1245,0 -0.2493,0.0632 -0.3112,0.1642 -0.0249,0.0376 -0.0293,0.0927 -0.0293,0.1345 0,0.0716 0.0461,0.1557 0.0461,0.1557l-0.2741 0.1264c-0.0333,-0.0587 -0.0746,-0.1471 -0.0746,-0.2357 0,-0.0166 0.0042,-0.0336 0.0042,-0.0464 0.0205,-0.1514 0.1492,-0.2525 0.3234,-0.3575 0.1704,-0.1052 0.3155,-0.135 0.4189,-0.135 0.5233,0 0.6146,0.4209 0.6146,0.5599l0 0.8715c0,0.1387 0.0124,0.2274 0.1243,0.2274 0.0331,0 0.0542,0 0.0996,-0.017l0.0997 -0.0337 0 0.1263 -0.5808 0.2189c-0.0872,-0.0629 -0.1286,-0.1767 -0.1453,-0.2735 -0.1369,0.118 -0.3735,0.2735 -0.5729,0.2735zm1.4273 -0.0422l0 -0.1005 0.1372 -0.0258c0.0828,-0.0169 0.1411,-0.0798 0.1411,-0.1643l0 -1.1238c0,-0.0966 -0.0459,-0.1473 -0.1288,-0.1473 -0.0289,0 -0.0621,0.0044 -0.0954,0.0169l-0.0541 0.021 0 -0.1262 0.5978 -0.2611 0.0873 0 0 0.3117c0.1825,-0.2067 0.3981,-0.3117 0.5889,-0.3117 0.4232,0 0.6267,0.3076 0.6267,0.6652l0 0.9553c0,0.0845 0.0623,0.1519 0.1452,0.1643l0.1409 0.0258 0 0.1005 -0.9873 0 0 -0.1005 0.137 -0.0258c0.0829,-0.0169 0.1491,-0.0798 0.1491,-0.1643l0 -0.9509c0,-0.1266 -0.0331,-0.4085 -0.365,-0.4085 -0.1828,0 -0.3361,0.1138 -0.4275,0.1979l0 1.1615c0,0.0845 0.0667,0.1474 0.1493,0.1643l0.1371 0.0258 0 0.1005 -0.9795 0zm3.4276 -1.734c-0.2986,0 -0.6058,0.1934 -0.6058,0.7574 0,0.4717 0.2326,0.7578 0.5976,0.7578 0.22,0 0.3571,-0.1305 0.3902,-0.1978l0 -1.0944c-0.0539,-0.139 -0.2074,-0.223 -0.382,-0.223zm-0.1866 1.7762l0 0c-0.39,0 -0.8591,-0.2945 -0.8591,-0.9343 0,-0.56 0.4273,-1.019 1.0003,-1.019 0.1908,0 0.328,0.0381 0.4274,0.0802l0 -0.964c0,-0.1012 -0.0539,-0.1305 -0.1204,-0.1305 -0.0374,0 -0.0788,0.0084 -0.1162,0.0208l-0.0831 0.0296 0 -0.1265 0.6477 -0.2775 0.087 0 0 2.7741c0,0.1601 0.0247,0.2526 0.1369,0.2526 0.0332,0 0.0538,0 0.0994,-0.017l0.0997 -0.0337 0 0.1263 -0.5809 0.2189c-0.0912,-0.0629 -0.137,-0.1809 -0.1576,-0.2776 -0.108,0.1177 -0.3031,0.2776 -0.5811,0.2776zm2.776 -1.3005l0 -0.0084c0,-0.3157 -0.174,-0.4676 -0.3818,-0.4676 -0.2324,0 -0.4067,0.156 -0.4564,0.476l0.8382 0zm-0.8506 0.1725l0 0 0 0.021c-0.0042,0.5599 0.3113,0.8418 0.7054,0.8418 0.1991,0 0.3818,-0.0759 0.5271,-0.1891l0 0.1681c-0.1661,0.1559 -0.4191,0.2862 -0.7303,0.2862 -0.6473,0 -0.9337,-0.4923 -0.9337,-0.9596 0,-0.5476 0.4109,-0.9937 0.9417,-0.9937 0.4359,0 0.7762,0.3117 0.7762,0.7705l0 0.0548 -1.2864 0zm1.5312 1.0858l0 -0.1005 0.1367 -0.0258c0.0792,-0.0169 0.1413,-0.0798 0.1413,-0.1643l0 -1.1238c0,-0.0966 -0.0457,-0.1473 -0.1286,-0.1473 -0.029,0 -0.0623,0.0044 -0.0953,0.0169l-0.0541 0.021 0 -0.1262 0.589 -0.2611 0.0875 0 0 0.4084c0.1493,-0.2946 0.3278,-0.4166 0.5311,-0.4166 0.166,0 0.2074,0.0421 0.2074,0.0421l0 0.4463 -0.0827 0c-0.0209,-0.118 -0.0999,-0.1768 -0.2242,-0.1768 -0.1328,0 -0.2988,0.0377 -0.415,0.2817l0 1.0354c0,0.0845 0.0829,0.1519 0.1619,0.1643l0.1992 0.0258 0 0.1005 -1.0542 0z"/>
  </g>
 </g>
</svg>
