<?xml version="1.0" encoding="UTF-8"?>
<!DOCTYPE svg PUBLIC "-//W3C//DTD SVG 1.1//EN" "http://www.w3.org/Graphics/SVG/1.1/DTD/svg11.dtd">
<!-- Creator: CorelDRAW -->
<svg xmlns="http://www.w3.org/2000/svg" xml:space="preserve" width="31.75mm" height="21.167mm" style="shape-rendering:geometricPrecision; text-rendering:geometricPrecision; image-rendering:optimizeQuality; fill-rule:evenodd; clip-rule:evenodd"
viewBox="0 0 31.75 21.167"
 xmlns:xlink="http://www.w3.org/1999/xlink">
 <defs>
  <style type="text/css">
   <![CDATA[
    .str0 {stroke:#C5C6C6;stroke-width:0.0762}
    .fil0 {fill:none}
    .fil1 {fill:white}
    .fil2 {fill:#005493;fill-rule:nonzero}
    .fil3 {fill:#FFDD00;fill-rule:nonzero}
   ]]>
  </style>
 </defs>
 <g id="Layer_x0020_1">
  <metadata id="CorelCorpID_0Corel-Layer"/>
  <g>
   <path class="fil0 str0" d="M1.0583 0.0002l29.6334 0c0.5843,0 1.0582,0.4739 1.0582,1.0583l0.0001 19.05c-0.0001,0.5842 -0.474,1.0581 -1.0584,1.0581l-29.6333 0.0002c-0.5843,-0.0002 -1.0582,-0.4741 -1.0582,-1.0585l-0.0001 -19.0498c0.0001,-0.5844 0.474,-1.0583 1.0584,-1.0583z"/>
   <path id="1" class="fil1" d="M1.0583 0.0002l29.6334 0c0.5843,0 1.0582,0.4739 1.0582,1.0583l0.0001 19.05c-0.0001,0.5842 -0.474,1.0581 -1.0584,1.0581l-29.6333 0.0002c-0.5843,-0.0002 -1.0582,-0.4741 -1.0582,-1.0585l-0.0001 -19.0498c0.0001,-0.5844 0.474,-1.0583 1.0584,-1.0583z"/>
  </g>
  <g>
   <path class="fil2" d="M22.7492 7.0364l-0.8219 0 -3.7981 0 -0.822 0 -0.5535 0.6232 -1.796 2.0221 0 0 -0.5534 0.6231 -0.822 0 -3.7263 0 -0.8219 0 0.5451 -0.631 0.2577 -0.2987 0.5451 -0.631 -0.822 0 -1.0592 0 -0.5934 0c-0.4519,0 -0.8219,0.3792 -0.8219,0.8428l0 0 0 1.6277 0 0.1507c0,0.4635 0.37,0.8428 0.8219,0.8428l0.231 0 8.624 0 0.6182 0c0.4519,0 1.0695,-0.2817 1.3722,-0.6261l1.433 -1.6297 2.5634 -2.9159z"/>
   <path class="fil3" d="M23.8426 5.1353c0.4523,0 0.822,0.3793 0.822,0.8428l0 1.7785c0,0.4635 -0.3697,0.8427 -0.822,0.8427l-0.4459 0 -1.1985 0 -0.822 0 0.5502 -0.6261 0 0 0.2728 -0.3106 0.55 -0.6261 -5.442 0 -2.9029 3.2705 -5.4035 0 3.8752 -4.3815 0.1466 -0.1659c0.3039,-0.3433 0.9222,-0.6243 1.3741,-0.6243l0.191 0 9.2549 0z"/>
   <path class="fil2" d="M8.9379 15.2311c0,-0.1161 -0.0273,-0.2166 -0.0821,-0.3014 -0.0548,-0.0849 -0.1267,-0.1496 -0.2161,-0.1943 0.0894,-0.0448 0.1585,-0.1107 0.2077,-0.1977 0.0492,-0.087 0.0737,-0.1853 0.0737,-0.2947l0 -0.0602c0,-0.1343 -0.0256,-0.2458 -0.0769,-0.3352 -0.0513,-0.0892 -0.1235,-0.1607 -0.2161,-0.2142 -0.0926,-0.0538 -0.204,-0.0921 -0.3333,-0.1156 -0.1297,-0.0236 -0.2737,-0.0351 -0.4322,-0.0351 -0.0535,0 -0.1094,0.0011 -0.1675,0.0032 -0.0581,0.0021 -0.1142,0.0051 -0.1691,0.0083 -0.0548,0.0033 -0.1051,0.0074 -0.1507,0.012 -0.046,0.0043 -0.0832,0.0089 -0.1121,0.0132 -0.0649,0.0114 -0.1107,0.0314 -0.1375,0.0602 -0.0267,0.0292 -0.0402,0.0816 -0.0402,0.1575l0 2.0367c0,0.0759 0.014,0.1283 0.0418,0.1575 0.0281,0.0288 0.0754,0.0491 0.1426,0.0602 0.0333,0.0068 0.0735,0.0121 0.1205,0.0167 0.0468,0.0046 0.0975,0.0084 0.1523,0.0117 0.0549,0.0035 0.1111,0.0062 0.1692,0.0086 0.058,0.0022 0.115,0.0032 0.171,0.0032 0.145,0 0.2817,-0.0113 0.4102,-0.0334 0.1283,-0.0225 0.2399,-0.0622 0.335,-0.1192 0.0948,-0.0567 0.1701,-0.134 0.2261,-0.2309 0.0556,-0.0972 0.0837,-0.2194 0.0837,-0.3668l0 -0.0503zm-0.5694 -0.9613c0,0.0356 -0.0056,0.0699 -0.0167,0.1021 -0.0114,0.0324 -0.0297,0.0602 -0.0554,0.0837 -0.0256,0.0236 -0.0603,0.0425 -0.1037,0.057 -0.0435,0.0146 -0.0989,0.0219 -0.1659,0.0219l-0.3752 0 0 -0.5797c0.0111,0 0.0287,-0.0005 0.0519,-0.0016 0.0235,-0.0011 0.048,-0.0016 0.0737,-0.0016l0.0737 0 0.0552 0c0.172,0 0.292,0.0219 0.3603,0.0654 0.0681,0.0435 0.1021,0.1109 0.1021,0.2025l0 0.0503zm0.0135 0.9981c0,0.0939 -0.0332,0.1664 -0.0988,0.2177 -0.066,0.0516 -0.1851,0.0772 -0.3568,0.0772l-0.0555 0c-0.0256,0 -0.0524,-0.0005 -0.0802,-0.0016 -0.0281,-0.0014 -0.0548,-0.0019 -0.0805,-0.0019l-0.0586 0 0 -0.6264 0.3752 0c0.134,0 0.2267,0.0297 0.278,0.0889 0.0513,0.0591 0.0772,0.1289 0.0772,0.2093l0 0.0368zm2.3916 -0.5292c0,-0.1226 -0.0186,-0.2272 -0.0553,-0.3131 -0.0368,-0.0859 -0.0889,-0.1563 -0.1559,-0.2112 -0.067,-0.0545 -0.1491,-0.0948 -0.2461,-0.1205 -0.0973,-0.0256 -0.2061,-0.0386 -0.3266,-0.0386 -0.1118,0 -0.2207,0.0079 -0.3265,0.0235 -0.1062,0.0157 -0.1905,0.0314 -0.2531,0.047 -0.0424,0.0111 -0.0635,0.0357 -0.0635,0.0735l0 0.2714c0,0.0225 0.0054,0.0382 0.0167,0.047 0.0111,0.0089 0.0257,0.0133 0.0435,0.0133l0.0168 0c0.0267,-0.0022 0.0602,-0.0049 0.1004,-0.0084 0.0403,-0.0033 0.0854,-0.0059 0.1356,-0.0084 0.0503,-0.0021 0.1027,-0.0037 0.1575,-0.0048 0.0549,-0.0014 0.1089,-0.0019 0.1627,-0.0019 0.078,0 0.1393,0.0146 0.1842,0.0438 0.0446,0.0288 0.067,0.0915 0.067,0.1874l0 0.1208 -0.181 0c-0.2882,0 -0.4976,0.0451 -0.628,0.1356 -0.1308,0.0904 -0.1961,0.2339 -0.1961,0.4302l0 0.0303c0,0.1094 0.0161,0.2009 0.0486,0.2747 0.0324,0.0737 0.0753,0.1329 0.1289,0.1775 0.0537,0.0445 0.1144,0.0764 0.1825,0.0953 0.0684,0.0192 0.1391,0.0286 0.2129,0.0286 0.1005,0 0.1869,-0.0134 0.2595,-0.0402 0.0725,-0.0268 0.1413,-0.0638 0.2061,-0.1105l0 0.0535c0,0.0178 0.0066,0.0335 0.02,0.047 0.0136,0.0132 0.029,0.02 0.047,0.02l0.3752 0c0.0179,0 0.0333,-0.0068 0.0467,-0.02 0.0136,-0.0135 0.0203,-0.0292 0.0203,-0.047l0 -1.1958zm-0.5327 0.8106c-0.0402,0.0203 -0.0831,0.0376 -0.1291,0.0519 -0.0456,0.0145 -0.0942,0.0219 -0.1456,0.0219 -0.0715,0 -0.1245,-0.01 -0.159,-0.0303 -0.0346,-0.0199 -0.0519,-0.0659 -0.0519,-0.1372l0 -0.0303c0,-0.0402 0.0043,-0.0759 0.0132,-0.1072 0.0089,-0.0311 0.0246,-0.057 0.047,-0.077 0.0222,-0.02 0.0524,-0.0351 0.0905,-0.0451 0.0379,-0.01 0.0859,-0.0151 0.144,-0.0151l0.1909 0 0 0.3684zm2.5826 0.382l0 -1.1156c0,-0.1049 -0.0083,-0.2037 -0.0251,-0.2964 -0.0168,-0.0926 -0.047,-0.1731 -0.0905,-0.2411 -0.0435,-0.0681 -0.1037,-0.1224 -0.1809,-0.1624 -0.0771,-0.0402 -0.1759,-0.0605 -0.2964,-0.0605 -0.1072,0 -0.2023,0.013 -0.2847,0.0389 -0.0826,0.0259 -0.1698,0.0716 -0.2612,0.1367l0 -0.0811c0,-0.018 -0.0067,-0.0337 -0.0202,-0.0472 -0.0136,-0.0136 -0.0292,-0.0203 -0.047,-0.0203l-0.375 0c-0.018,0 -0.0334,0.0065 -0.047,0.02 -0.0135,0.0135 -0.02,0.0292 -0.02,0.0468l0 1.7822c0,0.0178 0.0071,0.034 0.0216,0.0486 0.0147,0.0143 0.0309,0.0216 0.0486,0.0216l0.4052 0c0.0182,0 0.0338,-0.0073 0.0471,-0.0216 0.0134,-0.0146 0.0199,-0.0308 0.0199,-0.0486l0 -1.3169c0.0582,-0.031 0.113,-0.0567 0.1643,-0.0767 0.0513,-0.02 0.1015,-0.0302 0.1507,-0.0302 0.0513,0 0.0932,0.0051 0.1256,0.0151 0.0324,0.01 0.0575,0.0273 0.0754,0.0519 0.0178,0.0246 0.0302,0.0567 0.0369,0.0969 0.0066,0.04 0.0101,0.0892 0.0101,0.1469l0 1.113c0,0.0178 0.0067,0.034 0.02,0.0486 0.0134,0.0143 0.0288,0.0216 0.047,0.0216l0.4051 0c0.0178,0 0.0341,-0.0073 0.0486,-0.0216 0.0146,-0.0146 0.0219,-0.0308 0.0219,-0.0486zm1.648 -0.0268l0 -0.2982c0,-0.0178 -0.0062,-0.0318 -0.0184,-0.0419 -0.0124,-0.0099 -0.0275,-0.0151 -0.0453,-0.0151l-0.0068 0c-0.0623,0.0068 -0.1221,0.0125 -0.179,0.0167 -0.0571,0.0046 -0.1335,0.0069 -0.2294,0.0069 -0.0381,0 -0.0738,-0.0063 -0.1072,-0.0184 -0.0336,-0.0125 -0.0627,-0.0336 -0.0873,-0.0638 -0.0246,-0.0299 -0.044,-0.0702 -0.0586,-0.1204 -0.0146,-0.0503 -0.0216,-0.1124 -0.0216,-0.1862l0 -0.2811c0,-0.0738 0.007,-0.136 0.0216,-0.1859 0.0146,-0.0505 0.034,-0.0905 0.0586,-0.1207 0.0246,-0.0303 0.0537,-0.0514 0.0873,-0.0638 0.0334,-0.0122 0.0691,-0.0184 0.1072,-0.0184 0.0959,0 0.1723,0.0025 0.2294,0.0068 0.0569,0.0046 0.1167,0.01 0.179,0.0167l0.0068 0c0.0178,0 0.0329,-0.0051 0.0453,-0.0151 0.0122,-0.01 0.0184,-0.024 0.0184,-0.0418l0 -0.298c0,-0.0245 -0.0057,-0.0419 -0.0168,-0.0521 -0.011,-0.01 -0.0291,-0.0184 -0.0537,-0.0251 -0.0467,-0.0111 -0.1075,-0.0222 -0.1823,-0.0336 -0.0748,-0.011 -0.1627,-0.0167 -0.2631,-0.0167 -0.2366,0 -0.426,0.0726 -0.5678,0.2177 -0.1418,0.1454 -0.2126,0.3552 -0.2126,0.63l0 0.2811c0,0.2747 0.0708,0.4846 0.2126,0.6299 0.1418,0.1451 0.3312,0.2177 0.5678,0.2177 0.1004,0 0.1883,-0.0056 0.2631,-0.0167 0.0748,-0.0114 0.1356,-0.0224 0.1823,-0.0335 0.0246,-0.0067 0.0427,-0.0151 0.0537,-0.0251 0.0111,-0.01 0.0168,-0.0273 0.0168,-0.0519zm1.8592 -0.978c0,-0.1343 -0.0186,-0.2548 -0.0556,-0.3621 -0.0368,-0.1071 -0.0905,-0.1979 -0.161,-0.2728 -0.0705,-0.0748 -0.1578,-0.1328 -0.2618,-0.1742 -0.1039,-0.0413 -0.2244,-0.0621 -0.3608,-0.0621 -0.1364,0 -0.2566,0.0208 -0.3609,0.0621 -0.104,0.0414 -0.1918,0.0994 -0.2634,0.1742 -0.0715,0.0749 -0.1259,0.1657 -0.1629,0.2728 -0.0369,0.1073 -0.0553,0.2278 -0.0553,0.3621l0 0.2344c0,0.1339 0.0184,0.2545 0.0553,0.3616 0.037,0.1073 0.0914,0.1984 0.1629,0.2732 0.0716,0.0748 0.1594,0.1326 0.2634,0.1739 0.1043,0.0414 0.2245,0.0621 0.3609,0.0621 0.1364,0 0.2569,-0.0207 0.3608,-0.0621 0.104,-0.0413 0.1913,-0.0991 0.2618,-0.1739 0.0705,-0.0748 0.1242,-0.1659 0.161,-0.2732 0.037,-0.1071 0.0556,-0.2277 0.0556,-0.3616l0 -0.2344zm-0.5426 0.2344c0,0.2747 -0.0989,0.412 -0.2966,0.412 -0.0978,0 -0.1721,-0.0347 -0.2232,-0.1041 -0.051,-0.0691 -0.0767,-0.1717 -0.0767,-0.3079l0 -0.2344c0,-0.1365 0.0257,-0.2385 0.0767,-0.3066 0.0511,-0.0681 0.1254,-0.1022 0.2232,-0.1022 0.1977,0 0.2966,0.1362 0.2966,0.4088l0 0.2344zm2.5356 0.7704l0 -1.1156c0,-0.1049 -0.0085,-0.2037 -0.0252,-0.2964 -0.0167,-0.0926 -0.047,-0.1731 -0.0905,-0.2411 -0.0434,-0.0681 -0.1039,-0.1224 -0.181,-0.1624 -0.0769,-0.0402 -0.1758,-0.0605 -0.2963,-0.0605 -0.1072,0 -0.202,0.013 -0.2847,0.0389 -0.0826,0.0259 -0.1699,0.0716 -0.2611,0.1367l0 -0.0811c0,-0.018 -0.0068,-0.0337 -0.0203,-0.0472 -0.0133,-0.0136 -0.0289,-0.0203 -0.0467,-0.0203l-0.3752 0c-0.0182,0 -0.0336,0.0065 -0.047,0.02 -0.0133,0.0135 -0.02,0.0292 -0.02,0.0468l0 1.7822c0,0.0178 0.007,0.034 0.0216,0.0486 0.0146,0.0143 0.0307,0.0216 0.0486,0.0216l0.4054 0c0.0179,0 0.0336,-0.0073 0.0468,-0.0216 0.0135,-0.0146 0.0202,-0.0308 0.0202,-0.0486l0 -1.3169c0.0578,-0.031 0.1126,-0.0567 0.164,-0.0767 0.0513,-0.02 0.1016,-0.0302 0.1507,-0.0302 0.0513,0 0.0932,0.0051 0.1256,0.0151 0.0325,0.01 0.0576,0.0273 0.0754,0.0519 0.0178,0.0246 0.0303,0.0567 0.037,0.0969 0.0067,0.04 0.01,0.0892 0.01,0.1469l0 1.113c0,0.0178 0.0068,0.034 0.02,0.0486 0.0135,0.0143 0.0292,0.0216 0.0469,0.0216l0.4052 0c0.0181,0 0.0343,-0.0073 0.0487,-0.0216 0.0146,-0.0146 0.0219,-0.0308 0.0219,-0.0486zm1.4605 0.0076l0 -0.2594c0,-0.0375 -0.0235,-0.0564 -0.0705,-0.0564l-0.164 0c-0.0516,0 -0.0826,-0.0095 -0.0937,-0.0287 -0.0114,-0.0189 -0.0167,-0.0618 -0.0167,-0.1288l0 -0.9749 0.2744 0c0.0178,0 0.0334,-0.0067 0.047,-0.0202 0.0135,-0.0136 0.02,-0.0292 0.02,-0.0473l0 -0.2734c0,-0.018 -0.0065,-0.034 -0.02,-0.0475 -0.0136,-0.0135 -0.0292,-0.02 -0.047,-0.02l-0.2744 0 0 -0.3552c0,-0.0178 -0.0058,-0.0319 -0.0168,-0.0419 -0.0111,-0.0099 -0.0257,-0.0151 -0.0433,-0.0151l-0.0099 0 -0.4063 0.0705c-0.0178,0.0043 -0.0332,0.0121 -0.0467,0.0232 -0.0132,0.0114 -0.02,0.0257 -0.02,0.0438l0 0.2747 -0.2677 0c-0.0181,0 -0.0343,0.0073 -0.0486,0.0217 -0.0146,0.0145 -0.0219,0.0307 -0.0219,0.0486l0 0.2209c0,0.0181 0.0073,0.0332 0.0219,0.0454 0.0143,0.0122 0.0305,0.0205 0.0486,0.0251l0.2677 0.0435 0 0.9713c0,0.1186 0.0124,0.215 0.0368,0.2899 0.0242,0.0748 0.0599,0.1334 0.1063,0.1758 0.0468,0.0425 0.1051,0.0708 0.1751,0.0854 0.0697,0.0146 0.1502,0.0218 0.2415,0.0218 0.0489,0 0.0926,-0.0023 0.1304,-0.0067 0.0382,-0.0043 0.0827,-0.0111 0.134,-0.02 0.0424,-0.0065 0.0638,-0.0286 0.0638,-0.0661zm1.7886 -1.2002c0,-0.1226 -0.0183,-0.2272 -0.0553,-0.3131 -0.0367,-0.0859 -0.0888,-0.1563 -0.1558,-0.2112 -0.0668,-0.0545 -0.1489,-0.0948 -0.2461,-0.1205 -0.0973,-0.0256 -0.2061,-0.0386 -0.3266,-0.0386 -0.1119,0 -0.2207,0.0079 -0.3266,0.0235 -0.1062,0.0157 -0.1904,0.0314 -0.2528,0.047 -0.0427,0.0111 -0.0638,0.0357 -0.0638,0.0735l0 0.2714c0,0.0225 0.0055,0.0382 0.0168,0.047 0.0111,0.0089 0.0257,0.0133 0.0435,0.0133l0.0168 0c0.0269,-0.0022 0.0601,-0.0049 0.1004,-0.0084 0.0403,-0.0033 0.0854,-0.0059 0.1356,-0.0084 0.0506,-0.0021 0.1029,-0.0037 0.1575,-0.0048 0.0548,-0.0014 0.1088,-0.0019 0.1626,-0.0019 0.0781,0 0.1394,0.0146 0.1842,0.0438 0.0446,0.0288 0.067,0.0915 0.067,0.1874l0 0.1208 -0.1809 0c-0.288,0 -0.4973,0.0451 -0.6281,0.1356 -0.1307,0.0904 -0.1958,0.2339 -0.1958,0.4302l0 0.0303c0,0.1094 0.0159,0.2009 0.0483,0.2747 0.0325,0.0737 0.0754,0.1329 0.1292,0.1775 0.0534,0.0445 0.1142,0.0764 0.1825,0.0953 0.0681,0.0192 0.1389,0.0286 0.2126,0.0286 0.1005,0 0.187,-0.0134 0.2596,-0.0402 0.0727,-0.0268 0.1413,-0.0638 0.2061,-0.1105l0 0.0535c0,0.0178 0.0068,0.0335 0.02,0.047 0.0135,0.0132 0.0292,0.02 0.047,0.02l0.3752 0c0.0178,0 0.0335,-0.0068 0.0467,-0.02 0.0135,-0.0135 0.0202,-0.0292 0.0202,-0.047l0 -1.1958zm-0.5326 0.8106c-0.0402,0.0203 -0.0832,0.0376 -0.1288,0.0519 -0.046,0.0145 -0.0946,0.0219 -0.1459,0.0219 -0.0716,0 -0.1245,-0.01 -0.1591,-0.0303 -0.0345,-0.0199 -0.0518,-0.0659 -0.0518,-0.1372l0 -0.0303c0,-0.0402 0.0042,-0.0759 0.0134,-0.1072 0.0087,-0.0311 0.0244,-0.057 0.0467,-0.077 0.0225,-0.02 0.0525,-0.0351 0.0905,-0.0451 0.0382,-0.01 0.086,-0.0151 0.1441,-0.0151l0.1909 0 0 0.3684zm2.1806 0.3552l0 -0.2982c0,-0.0178 -0.0062,-0.0318 -0.0183,-0.0419 -0.0125,-0.0099 -0.0275,-0.0151 -0.0454,-0.0151l-0.0065 0c-0.0626,0.0068 -0.1223,0.0125 -0.1793,0.0167 -0.0571,0.0046 -0.1335,0.0069 -0.2293,0.0069 -0.0382,0 -0.0738,-0.0063 -0.1073,-0.0184 -0.0335,-0.0125 -0.0626,-0.0336 -0.0872,-0.0638 -0.0246,-0.0299 -0.044,-0.0702 -0.0587,-0.1204 -0.0145,-0.0503 -0.0216,-0.1124 -0.0216,-0.1862l0 -0.2811c0,-0.0738 0.0071,-0.136 0.0216,-0.1859 0.0147,-0.0505 0.0341,-0.0905 0.0587,-0.1207 0.0246,-0.0303 0.0537,-0.0514 0.0872,-0.0638 0.0335,-0.0122 0.0691,-0.0184 0.1073,-0.0184 0.0958,0 0.1722,0.0025 0.2293,0.0068 0.057,0.0046 0.1167,0.01 0.1793,0.0167l0.0065 0c0.0179,0 0.0329,-0.0051 0.0454,-0.0151 0.0121,-0.01 0.0183,-0.024 0.0183,-0.0418l0 -0.298c0,-0.0245 -0.0056,-0.0419 -0.0167,-0.0521 -0.0113,-0.01 -0.0291,-0.0184 -0.0535,-0.0251 -0.047,-0.0111 -0.108,-0.0222 -0.1826,-0.0336 -0.075,-0.011 -0.1626,-0.0167 -0.2631,-0.0167 -0.2366,0 -0.4259,0.0726 -0.5677,0.2177 -0.1419,0.1454 -0.2126,0.3552 -0.2126,0.63l0 0.2811c0,0.2747 0.0707,0.4846 0.2126,0.6299 0.1418,0.1451 0.3311,0.2177 0.5677,0.2177 0.1005,0 0.1881,-0.0056 0.2631,-0.0167 0.0746,-0.0114 0.1356,-0.0224 0.1826,-0.0335 0.0244,-0.0067 0.0422,-0.0151 0.0535,-0.0251 0.0111,-0.01 0.0167,-0.0273 0.0167,-0.0519zm1.4438 0.0344l0 -0.2594c0,-0.0375 -0.0234,-0.0564 -0.0704,-0.0564l-0.1641 0c-0.0515,0 -0.0826,-0.0095 -0.0939,-0.0287 -0.0111,-0.0189 -0.0168,-0.0618 -0.0168,-0.1288l0 -0.9749 0.2748 0c0.0178,0 0.0334,-0.0067 0.047,-0.0202 0.0131,-0.0136 0.02,-0.0292 0.02,-0.0473l0 -0.2734c0,-0.018 -0.0069,-0.034 -0.02,-0.0475 -0.0136,-0.0135 -0.0292,-0.02 -0.047,-0.02l-0.2748 0 0 -0.3552c0,-0.0178 -0.0054,-0.0319 -0.0164,-0.0419 -0.0111,-0.0099 -0.0257,-0.0151 -0.0435,-0.0151l-0.0101 0 -0.4059 0.0705c-0.0179,0.0043 -0.0335,0.0121 -0.0467,0.0232 -0.0133,0.0114 -0.02,0.0257 -0.02,0.0438l0 0.2747 -0.268 0c-0.0178,0 -0.034,0.0073 -0.0486,0.0217 -0.0143,0.0145 -0.0216,0.0307 -0.0216,0.0486l0 0.2209c0,0.0181 0.0073,0.0332 0.0216,0.0454 0.0146,0.0122 0.0308,0.0205 0.0486,0.0251l0.268 0.0435 0 0.9713c0,0.1186 0.0124,0.215 0.0367,0.2899 0.0243,0.0748 0.06,0.1334 0.1064,0.1758 0.0468,0.0425 0.1048,0.0708 0.1748,0.0854 0.07,0.0146 0.1505,0.0218 0.2415,0.0218 0.0492,0 0.0926,-0.0023 0.1307,-0.0067 0.0378,-0.0043 0.0827,-0.0111 0.134,-0.02 0.0424,-0.0065 0.0637,-0.0286 0.0637,-0.0661z"/>
  </g>
 </g>
</svg>
