<?xml version="1.0" encoding="UTF-8"?>
<!DOCTYPE svg PUBLIC "-//W3C//DTD SVG 1.1//EN" "http://www.w3.org/Graphics/SVG/1.1/DTD/svg11.dtd">
<!-- Creator: CorelDRAW 2017 -->
<svg xmlns="http://www.w3.org/2000/svg" xml:space="preserve" width="2551px" height="1701px" version="1.1" style="shape-rendering:geometricPrecision; text-rendering:geometricPrecision; image-rendering:optimizeQuality; fill-rule:evenodd; clip-rule:evenodd"
viewBox="0 0 255100 170067"
 xmlns:xlink="http://www.w3.org/1999/xlink">
 <defs>
  <style type="text/css">
   <![CDATA[
    .str0 {stroke:#C3C3C3;stroke-width:90;stroke-miterlimit:22.9256}
    .fil0 {fill:none;fill-rule:nonzero}
    .fil3 {fill:#E01428}
    .fil1 {fill:#FEFEFE;fill-rule:nonzero}
    .fil2 {fill:#E01428;fill-rule:nonzero}
   ]]>
  </style>
 </defs>
 <g id="Layer_x0020_1">
  <metadata id="CorelCorpID_0Corel-Layer"/>
  <g>
   <path class="fil0 str0" d="M8554 82l237992 0c4691,0 8495,3803 8495,8495l0 152912c0,4692 -3804,8496 -8495,8496l-237992 0c-4691,0 -8495,-3804 -8495,-8496l0 -152912c0,-4692 3804,-8495 8495,-8495z"/>
   <path id="1" class="fil1" d="M8554 82l237992 0c4691,0 8495,3803 8495,8495l0 152912c0,4692 -3804,8496 -8495,8496l-237992 0c-4691,0 -8495,-3804 -8495,-8496l0 -152912c0,-4692 3804,-8495 8495,-8495z"/>
  </g>
  <g>
   <g id="_1868047764752">
    <path class="fil2" d="M85291 90411c0,910 -175,1703 -525,2380 -350,677 -828,1231 -1435,1662 -607,432 -1307,753 -2100,963 -793,210 -1633,315 -2520,315 -887,0 -1797,-88 -2730,-263 -933,-175 -1762,-460 -2485,-857 117,-420 228,-834 333,-1243 105,-408 239,-811 402,-1207 723,373 1528,647 2415,822 887,175 1762,263 2625,263 1143,0 1954,-228 2433,-683 478,-455 717,-1102 717,-1942 0,-653 -210,-1190 -630,-1610 -420,-420 -951,-788 -1592,-1103 -642,-315 -1330,-618 -2065,-910 -735,-291 -1424,-635 -2066,-1032 -641,-397 -1172,-893 -1592,-1488 -420,-595 -630,-1347 -630,-2257 0,-887 175,-1674 525,-2363 350,-688 823,-1260 1418,-1715 595,-455 1295,-799 2100,-1032 805,-234 1662,-350 2572,-350 560,0 1231,41 2013,122 781,82 1510,216 2187,403 0,373 -41,793 -122,1260 -82,467 -181,898 -298,1295 -630,-234 -1353,-403 -2170,-508 -817,-105 -1598,-157 -2345,-157 -1003,0 -1773,216 -2310,647 -537,432 -805,1126 -805,2083 0,560 216,1021 648,1382 431,362 968,689 1610,980 641,292 1336,590 2082,893 747,303 1441,677 2083,1120 641,443 1178,991 1609,1645 432,653 648,1482 648,2485z"/>
    <path class="fil2" d="M111946 77251c-583,3127 -1243,6177 -1977,9152 -736,2975 -1581,5968 -2538,8978l-2730 0 -4200 -12915c-233,-677 -397,-1435 -490,-2275l-175 0c-93,817 -257,1587 -490,2310l-4130 12880 -2730 0c-887,-2847 -1703,-5816 -2450,-8908 -747,-3091 -1400,-6165 -1960,-9222 350,-70 770,-123 1260,-158 490,-35 933,-52 1330,-52l2940 12950c187,770 315,1587 385,2450l140 0c70,-397 152,-817 245,-1260 93,-443 198,-863 315,-1260l4060 -12810 2590 0 4130 12845c117,350 222,735 315,1155 93,420 175,863 245,1330l175 0c47,-467 99,-893 157,-1278 59,-385 146,-799 263,-1242l2870 -12880c397,0 817,17 1260,52 443,35 840,88 1190,158z"/>
    <path class="fil2" d="M118926 71966c0,490 -140,898 -420,1225 -280,327 -700,490 -1260,490 -537,0 -939,-169 -1208,-508 -268,-338 -402,-740 -402,-1207 0,-467 140,-875 420,-1225 280,-350 688,-525 1225,-525 536,0 945,175 1225,525 280,350 420,758 420,1225zm-3010 23415l0 -18270 2730 0 0 18270 -2730 0z"/>
    <path class="fil2" d="M134445 90411c0,910 -174,1703 -524,2380 -350,677 -829,1231 -1435,1662 -607,432 -1307,753 -2100,963 -794,210 -1634,315 -2520,315 -887,0 -1797,-88 -2730,-263 -934,-175 -1762,-460 -2485,-857 116,-420 227,-834 332,-1243 105,-408 239,-811 403,-1207 723,373 1528,647 2415,822 886,175 1761,263 2625,263 1143,0 1954,-228 2432,-683 478,-455 718,-1102 718,-1942 0,-653 -210,-1190 -630,-1610 -420,-420 -951,-788 -1593,-1103 -641,-315 -1330,-618 -2065,-910 -735,-291 -1423,-635 -2065,-1032 -642,-397 -1172,-893 -1592,-1488 -420,-595 -630,-1347 -630,-2257 0,-887 175,-1674 525,-2363 350,-688 822,-1260 1417,-1715 595,-455 1295,-799 2100,-1032 805,-234 1663,-350 2573,-350 560,0 1230,41 2012,122 782,82 1511,216 2188,403 0,373 -41,793 -123,1260 -82,467 -181,898 -297,1295 -630,-234 -1354,-403 -2170,-508 -817,-105 -1599,-157 -2345,-157 -1004,0 -1774,216 -2310,647 -537,432 -805,1126 -805,2083 0,560 215,1021 647,1382 432,362 968,689 1610,980 642,292 1336,590 2083,893 746,303 1440,677 2082,1120 642,443 1178,991 1610,1645 432,653 647,1482 647,2485z"/>
    <path class="fil2" d="M149095 90411c0,910 -174,1703 -525,2380 -349,677 -828,1231 -1434,1662 -607,432 -1307,753 -2101,963 -793,210 -1633,315 -2520,315 -886,0 -1796,-88 -2729,-263 -934,-175 -1762,-460 -2486,-857 117,-420 228,-834 333,-1243 105,-408 239,-811 403,-1207 723,373 1528,647 2415,822 886,175 1761,263 2625,263 1143,0 1954,-228 2432,-683 478,-455 717,-1102 717,-1942 0,-653 -210,-1190 -629,-1610 -420,-420 -951,-788 -1593,-1103 -642,-315 -1330,-618 -2065,-910 -735,-291 -1423,-635 -2065,-1032 -642,-397 -1173,-893 -1592,-1488 -420,-595 -631,-1347 -631,-2257 0,-887 176,-1674 526,-2363 350,-688 822,-1260 1417,-1715 595,-455 1295,-799 2100,-1032 805,-234 1663,-350 2572,-350 561,0 1231,41 2013,122 782,82 1511,216 2187,403 0,373 -40,793 -122,1260 -82,467 -181,898 -298,1295 -629,-234 -1353,-403 -2169,-508 -817,-105 -1599,-157 -2346,-157 -1003,0 -1773,216 -2310,647 -536,432 -805,1126 -805,2083 0,560 216,1021 648,1382 432,362 968,689 1610,980 642,292 1336,590 2082,893 747,303 1441,677 2083,1120 642,443 1178,991 1610,1645 432,653 647,1482 647,2485z"/>
    <path class="fil2" d="M168515 85696c0,1705 -183,3204 -549,4497 -376,1326 -945,2435 -1707,3327 -767,898 -1689,1572 -2766,2022 -1062,443 -2268,665 -3615,665 -634,0 -1254,-41 -1860,-123 -602,-81 -1180,-203 -1734,-366 -559,-164 -1100,-375 -1623,-633 -524,-259 -1027,-564 -1509,-914l-276 -200 0 -24440 556 -93c223,-37 461,-70 712,-99 254,-30 530,-56 827,-79 270,-21 552,-38 846,-51 298,-13 551,-20 757,-20l665 0 0 8522c107,-75 213,-146 319,-214 429,-273 848,-485 1257,-636 404,-149 835,-262 1293,-337 453,-75 922,-113 1405,-113 485,0 961,43 1429,128 464,85 910,212 1337,381 442,176 852,403 1230,681 375,277 724,609 1045,994 318,382 600,819 844,1310 236,475 440,1010 611,1603 172,593 299,1238 382,1934 83,696 124,1447 124,2254zm-4602 340c0,-597 -20,-1139 -61,-1623 -40,-480 -100,-904 -178,-1271 -77,-357 -172,-676 -286,-957 -108,-266 -230,-492 -367,-679 -134,-184 -283,-341 -444,-468 -154,-123 -323,-220 -508,-293 -203,-81 -422,-141 -655,-181 -240,-41 -503,-62 -787,-62 -664,0 -1297,107 -1899,319 -513,181 -1010,441 -1489,780l0 10034c103,58 210,111 319,159 215,94 441,168 677,221 248,56 504,98 766,127 250,28 509,42 775,42 369,0 705,-25 1009,-75 305,-50 583,-123 832,-219 236,-90 455,-212 657,-363 202,-152 388,-335 556,-551 169,-216 320,-474 451,-772 136,-310 251,-665 344,-1065 97,-414 169,-875 217,-1381 47,-505 71,-1079 71,-1722zm12723 -13524c0,327 -49,638 -147,932l0 3c-99,296 -248,568 -447,812 -219,270 -496,472 -830,606 -309,124 -658,186 -1048,186 -380,0 -725,-65 -1032,-195 -329,-139 -602,-346 -819,-622 -193,-245 -339,-515 -439,-809 -98,-290 -147,-595 -147,-913 0,-329 48,-642 145,-938 97,-298 242,-575 436,-828 219,-286 495,-500 830,-642 313,-133 666,-200 1060,-200 385,0 732,68 1041,202 327,143 599,356 816,640 194,253 339,530 436,828 96,296 145,609 145,938zm-4636 22688l0 -18448 4363 0 0 19114 -4363 0 0 -666zm9108 0l0 -25669 557 -93c222,-37 460,-70 711,-99 254,-30 530,-56 828,-79 269,-21 551,-38 845,-51 299,-13 551,-20 757,-20l666 0 0 26677 -4364 0 0 -666zm9108 0l0 -25669 557 -93c223,-37 460,-70 711,-99 254,-30 530,-56 828,-79 269,-21 552,-38 845,-51 299,-13 552,-20 757,-20l666 0 0 26677 -4364 0 0 -666zm13922 -22688c0,327 -49,638 -147,932l0 3c-99,296 -248,568 -446,812 -219,270 -497,472 -831,606 -308,124 -658,186 -1047,186 -381,0 -725,-65 -1033,-195 -328,-139 -601,-346 -818,-622 -193,-245 -340,-515 -439,-809 -98,-290 -147,-595 -147,-913 0,-329 48,-642 144,-938 97,-298 243,-575 436,-828 219,-286 496,-500 830,-642 313,-133 667,-200 1061,-200 385,0 732,68 1040,202 327,143 600,356 817,640 193,253 339,530 436,828 96,296 144,609 144,938zm-4636 22688l0 -18448 4364 0 0 19114 -4364 0 0 -666zm19355 0l0 -12570c0,-700 -161,-1237 -483,-1610 -135,-156 -336,-278 -604,-364 -316,-103 -720,-154 -1211,-154 -399,0 -778,27 -1135,82 -356,54 -690,134 -1002,239 -330,112 -652,246 -964,402 -218,110 -439,233 -661,370l0 14271 -4364 0 0 -18875 557 -93c215,-35 454,-67 718,-94 259,-27 537,-49 834,-67 273,-16 554,-29 840,-38 312,-10 562,-15 749,-15l666 0 0 1169c157,-110 314,-213 470,-308 472,-289 943,-513 1412,-672 454,-153 921,-268 1402,-345 486,-78 975,-117 1466,-117 365,0 726,25 1084,76 361,51 706,126 1034,225 696,212 1315,560 1853,1046 273,247 519,534 735,860 210,317 393,671 546,1062 153,387 267,821 343,1300 75,472 113,977 113,1513l0 13373 -4398 0 0 -666zm24074 1159c0,1006 -181,1927 -543,2762 -363,838 -905,1576 -1625,2214 -722,640 -1618,1117 -2688,1431 -1041,305 -2245,459 -3611,459 -681,0 -1314,-35 -1896,-104 -583,-68 -1120,-174 -1610,-317 -491,-143 -934,-314 -1328,-512 -408,-206 -769,-443 -1082,-711 -314,-267 -585,-562 -812,-882 -229,-321 -413,-669 -554,-1043 -135,-362 -236,-730 -301,-1105 -67,-380 -100,-770 -100,-1170 0,-405 39,-794 117,-1166 79,-374 199,-728 359,-1062 156,-325 353,-651 590,-976 144,-197 305,-396 482,-598l-89 -170c-109,-212 -210,-428 -300,-645 -88,-210 -169,-433 -244,-668 -71,-223 -132,-446 -182,-670l-35 -156 38 -149c36,-146 81,-303 134,-470 49,-155 108,-327 176,-514l0 -3c58,-159 130,-342 215,-548 85,-205 167,-394 246,-569 84,-184 179,-379 286,-583 103,-196 207,-382 313,-558 92,-154 186,-303 280,-447 -171,-153 -330,-317 -478,-491 -291,-343 -537,-725 -736,-1144 -197,-413 -346,-856 -446,-1330 -98,-467 -147,-953 -147,-1460 0,-479 39,-941 117,-1383 78,-445 197,-871 355,-1277 158,-404 350,-781 575,-1131 231,-356 492,-680 783,-972 590,-590 1319,-1045 2184,-1363 422,-155 872,-272 1348,-350 474,-78 964,-117 1469,-117 234,0 483,10 746,28 243,18 502,45 774,82 282,39 530,77 741,113 183,32 381,72 593,118l5750 0 0 666c0,381 -18,775 -54,1181 -17,200 -45,408 -80,622 -35,209 -77,411 -125,606l-117 467 -1833 133c106,210 195,428 267,652 92,281 160,574 205,880 45,304 68,619 68,943 0,519 -43,1012 -128,1480 -87,473 -216,909 -390,1306 -171,394 -378,758 -622,1092 -245,337 -523,639 -832,902 -306,261 -640,491 -1000,687 -360,196 -741,357 -1142,482 -397,124 -806,217 -1225,279 -421,62 -851,93 -1289,93 -477,0 -955,-38 -1430,-113 -246,-38 -460,-77 -640,-115l-110 -24c-69,101 -131,201 -188,298 -113,195 -200,378 -259,546 -121,346 -182,597 -182,752 0,283 119,425 356,425l5315 0c396,0 777,21 1144,64 367,44 718,109 1052,197 343,91 666,214 967,368 305,155 582,341 831,557 255,220 481,474 676,761 191,279 355,594 494,944 138,347 240,731 307,1149 67,416 100,858 100,1327zm-4261 272c0,-382 -33,-688 -98,-917 -45,-157 -96,-260 -154,-308 -88,-73 -218,-131 -389,-174 -215,-54 -483,-81 -805,-81l-5934 0c-44,58 -82,117 -117,179 -74,133 -130,277 -166,430l0 3c-49,205 -84,387 -105,545 -20,154 -31,307 -31,459 0,978 238,1639 713,1983 541,392 1547,588 3016,588 1376,0 2424,-222 3144,-665 301,-186 528,-438 680,-757 164,-343 246,-772 246,-1285zm-1737 -13831c0,-1097 -221,-1840 -660,-2229 -226,-199 -498,-350 -817,-452 -338,-108 -737,-162 -1196,-162 -1737,0 -2605,948 -2605,2843 0,1039 216,1766 646,2179 438,420 1091,630 1959,630 879,0 1550,-205 2013,-614 203,-180 361,-439 472,-776 125,-380 188,-854 188,-1419z"/>
   </g>
   <path class="fil3" d="M40802 56400c15814,0 28634,12819 28634,28633 0,15814 -12820,28634 -28634,28634 -15813,0 -28633,-12820 -28633,-28634 0,-15814 12820,-28633 28633,-28633z"/>
   <path class="fil1" d="M22279 89826c-1028,-1046 -1014,-2727 31,-3756 1046,-1028 2727,-1014 3756,32l7474 7613 21027 -20955c1039,-1034 2721,-1029 3755,11 1034,1039 1029,2721 -10,3755l-22930 22852c-1046,1028 -2727,1014 -3755,-32l-9348 -9520z"/>
  </g>
 </g>
</svg>
