<svg id="bc8ff59b-4a40-4223-9f4f-d02f35c9bc1c" data-name="Ebene 1" xmlns="http://www.w3.org/2000/svg" xmlns:xlink="http://www.w3.org/1999/xlink" width="120" height="80" viewBox="0 0 120 80">
  <defs>
    <clipPath id="b4b90f8d-c1a0-4a0b-bf47-966e43fe3df1">
      <rect id="bd4d0ef6-319c-4e38-859b-5cf520fa6f06" data-name="SVGID" x="9.6293" y="33.6891" width="101.4966" height="15.6076" style="fill: none"/>
    </clipPath>
  </defs>
  <rect width="120" height="80" rx="4" style="fill: #fff"/>
  <g>
    <g>
      <g style="clip-path: url(#b4b90f8d-c1a0-4a0b-bf47-966e43fe3df1)">
        <path d="M32.71,49.3913V46.6481h-8.797c-.2837,1.23-.4729,2.3648-.5675,2.7432Z" style="fill: #ec630c"/>
      </g>
      <g style="clip-path: url(#b4b90f8d-c1a0-4a0b-bf47-966e43fe3df1)">
        <polygon points="9.629 46.648 9.629 49.391 18.899 49.391 18.237 46.648 9.629 46.648 9.629 46.648" style="fill: #ec630c"/>
      </g>
    </g>
    <path d="M14.17,40.1213l-.6621-2.8377h5.77L21.17,45.4184h.0946l1.1351-5.2025c.5675-2.3648.8513-2.9323,4.162-2.9323H28.926s-.473,2.1756-1.04,4.54c-.1892.9459-2.27.7567-2.1756,0a9.1174,9.1174,0,0,1,.1892-1.1351c.0945-.6622-.6622-.7568-.7568-.0946-.0946.4729-.5675,2.7431-.9459,4.9187h8.6078V33.6891H9.6293V45.4184H18.048l-1.23-5.2971Z" style="fill: #1866b0"/>
    <path d="M104.5045,45.4184h2.3648V40.7835l4.1621-7.0944H108.572l-2.8378,4.9188-2.7431-4.9188h-2.7432l4.2566,7.0944v4.6349Zm-15.04,0h2.4594l1.04-2.6485h4.73l1.04,2.6485h2.6485L96.748,33.6891H94.1l-4.635,11.7293Zm7.5673-4.54H93.6265l1.7027-4.8242h0l1.7026,4.8242Zm-15.1346,4.54H84.262V40.9726h.9459c2.554,0,4.54-.9459,4.54-3.689,0-2.8378-2.3648-3.5945-4.9188-3.5945H81.8972V45.4184Zm2.3648-9.8375h.8513c1.23,0,2.27.473,2.27,1.7973s-1.04,1.7026-2.27,1.7026H84.262v-3.5Z" style="fill: #1866b0"/>
    <path d="M66.0058,45.4184h2.4594L69.5057,42.77h4.73l1.0405,2.6485h2.6485L73.2894,33.6891H70.6408l-4.635,11.7293Zm7.5673-4.54H70.1678l1.7027-4.8242h0l1.7026,4.8242Zm-16.6481,4.54h4.0675c1.5134,0,4.162-.4729,4.162-3.4052a2.7057,2.7057,0,0,0-2.6486-2.6486h0a2.6556,2.6556,0,0,0,2.3648-2.6486c0-2.5539-2.27-3.0269-3.7836-3.0269H57.02V45.4184ZM59.29,35.5809h.9459c1.0406,0,2.27.0946,2.27,1.4189,0,1.23-1.23,1.4189-2.1756,1.4189h-.9459V35.5809Zm0,4.635h1.1351c1.1351,0,2.4594.1892,2.4594,1.7973,0,1.3242-1.3243,1.608-2.4594,1.608H59.29V40.2159Z" style="fill: #ec630c"/>
    <path d="M47.5605,45.4184h7V43.5266h-4.635V40.2159h4.162V38.3241h-4.162V35.3918h4.54V33.5H47.5605V45.4184Zm-7.2836,0h2.3648V35.5809H46.047V33.6891H36.9662v1.8918h3.4053v9.8375Z" style="fill: #1866b0"/>
  </g>
</svg>
