<?xml version="1.0" encoding="utf-8"?>
<!-- Generator: Adobe Illustrator 15.0.0, SVG Export Plug-In . SVG Version: 6.00 Build 0)  -->
<!DOCTYPE svg PUBLIC "-//W3C//DTD SVG 1.1//EN" "http://www.w3.org/Graphics/SVG/1.1/DTD/svg11.dtd">
<svg version="1.1" id="Ebene_1" xmlns="http://www.w3.org/2000/svg" xmlns:xlink="http://www.w3.org/1999/xlink" x="0px" y="0px"
	 width="260px" height="173px" viewBox="0 0 260 173" enable-background="new 0 0 260 173" xml:space="preserve" style="background-color: #FFFFFF">
<path fill="#1166B0" d="M24.271,69.424l-0.25,5.9h-1.101c-4.2,0-6.5,2.15-6.5,6.95v5.8h-6V69.475h6v3.55c1.35-2.2,3.4-3.8,6.5-3.8
	C23.471,69.274,23.821,69.324,24.271,69.424z"/>
<path fill="#1166B0" d="M46.021,88.125h-6v-1.5c-1.45,1.301-3.399,2.051-5.85,2.051c-5.001,0-9.15-3.951-9.15-9.851
	c0-5.85,4.2-9.85,9.15-9.85c2.45,0,4.399,0.75,5.85,2.05v-1.5h6V88.125z M40.021,78.825c0-2.85-2.149-4.8-4.6-4.8
	c-2.601,0-4.551,1.95-4.551,4.8c0,2.9,1.9,4.8,4.551,4.8C37.872,83.625,40.021,81.725,40.021,78.825z"/>
<path fill="#1166B0" d="M63.772,87.275c-1.45,0.8-3,1.35-5.15,1.35c-4.7,0-7.5-2.5-7.5-7.4v-7.05h-3.4v-4.7h3.4v-5.5h6v5.5h5.551
	v4.7h-5.551v6.45c0,1.95,0.95,2.7,2.5,2.7c0.801,0,1.95-0.3,2.75-0.75L63.772,87.275z"/>
<path fill="#1166B0" d="M83.823,80.325h-13.75c0.5,2.2,2,3.6,4.05,3.6c1.4,0,3-0.35,4-2.15l5.3,1.05c-1.6,3.9-5,5.8-9.3,5.8
	c-5.45,0-9.9-3.95-9.9-9.85c0-5.85,4.5-9.851,9.95-9.851c5.3,0,9.601,3.8,9.7,9.851v1.55H83.823z M70.123,76.725h7.75
	c-0.55-2-2.05-2.9-3.8-2.9C72.423,73.774,70.723,74.825,70.123,76.725z"/>
<path fill="#1166B0" d="M105.374,76.725v11.4h-5.95v-10.15c0-2.2-1.3-3.65-3.2-3.65c-2.35,0-3.9,1.6-3.9,5.2v8.651h-6V69.574h6v1.8
	c1.4-1.5,3.4-2.35,5.751-2.35C102.474,68.975,105.374,72.024,105.374,76.725z"/>
<path fill="#1166B0" d="M122.074,88.125l-6.1-6.7h-1.101v6.7h-6V61.474h6v14.4h0.801l5.95-6.35h7.2l-8.251,8.851l9.101,9.75H122.074
	z"/>
<path fill="#1166B0" d="M149.676,88.125h-6v-1.5c-1.45,1.301-3.4,2.051-5.851,2.051c-5,0-9.15-3.951-9.15-9.851
	c0-5.85,4.2-9.85,9.15-9.85c2.45,0,4.4,0.75,5.851,2.05v-1.5h6V88.125z M143.676,78.825c0-2.85-2.15-4.8-4.601-4.8
	c-2.601,0-4.55,1.95-4.55,4.8c0,2.9,1.899,4.8,4.55,4.8C141.476,83.625,143.676,81.725,143.676,78.825z"/>
<path fill="#1166B0" d="M172.177,88.125h-6.001v-1.8c-1.399,1.5-3.399,2.351-5.75,2.351c-4.4,0-7.3-3.051-7.3-7.751v-11.4h5.95
	v10.15c0,2.2,1.3,3.65,3.2,3.65c2.35,0,3.899-1.6,3.899-5.2v-8.65h6.001V88.125L172.177,88.125z"/>
<path fill="#1166B0" d="M188.227,69.524v4.7h-5.149v13.9h-5.95v-13.9h-2.7v-4.7h2.7v-1.45c0-4.35,3.05-7.15,7.55-7.15
	c1.25,0,2.5,0.25,3.7,0.8l-1.25,4.6c-0.55-0.2-1.15-0.3-1.601-0.3c-1.399,0-2.449,0.85-2.449,2.35v1.2h5.149V69.524z"/>
<path fill="#1166B0" d="M73.473,104.525c0,2.9-2.05,4.851-4.5,4.851c-1.2,0-2.15-0.351-2.85-1v0.75h-2.95V96.025h2.95v4.7
	c0.699-0.649,1.699-1,2.85-1C71.423,99.676,73.473,101.625,73.473,104.525z M70.573,104.525c0-1.4-0.95-2.35-2.251-2.35
	c-1.199,0-2.25,0.949-2.25,2.35s1.051,2.351,2.25,2.351C69.673,106.876,70.573,105.926,70.573,104.525z"/>
<path fill="#1166B0" d="M78.973,112.176h-3.199l1.5-3.4l-3.851-8.85h3.15l2.2,5.35l2.35-5.35h3.15L78.973,112.176z"/>
<path fill="#1166B0" d="M98.874,105.275h-6.801c0.25,1.101,1,1.75,2,1.75c0.7,0,1.45-0.149,1.95-1.05l2.601,0.55
	c-0.8,1.95-2.45,2.851-4.601,2.851c-2.65,0-4.9-1.95-4.9-4.851s2.2-4.85,4.9-4.85c2.601,0,4.7,1.85,4.75,4.85v0.75H98.874z
	 M92.124,103.476h3.8c-0.3-1-1-1.45-1.851-1.45C93.273,102.025,92.424,102.525,92.124,103.476z"/>
<path fill="#1166B0" d="M110.024,109.076h-2.95v-0.75c-0.7,0.649-1.7,1-2.851,1c-2.45,0-4.5-1.95-4.5-4.851
	c0-2.899,2.05-4.851,4.5-4.851c1.2,0,2.15,0.351,2.851,1v-0.75h2.95V109.076z M107.074,104.525c0-1.4-1.05-2.35-2.25-2.35
	c-1.3,0-2.25,0.949-2.25,2.35s0.95,2.351,2.25,2.351C106.024,106.876,107.074,105.926,107.074,104.525z"/>
<path fill="#1166B0" d="M114.274,106.125c0.15,0.801,0.85,1.101,1.65,1.101c0.75,0,1.199-0.35,1.199-0.75
	c0-0.3-0.25-0.55-0.899-0.649l-1.9-0.351c-1.7-0.3-2.7-1.2-2.7-2.649c0-1.9,1.65-3.101,4-3.101c2.301,0,3.851,1.05,4.2,2.601
	l-2.7,0.549c-0.1-0.549-0.649-1.1-1.55-1.1c-0.8,0-1.05,0.4-1.05,0.7c0,0.25,0.1,0.5,0.7,0.649l2.149,0.451
	c1.75,0.35,2.551,1.399,2.551,2.75c0,2-1.75,3.1-4.2,3.1c-2.15,0-4.051-0.8-4.351-2.65L114.274,106.125z"/>
<path fill="#1166B0" d="M125.625,112.176h-3.2l1.5-3.4l-3.851-8.85h3.15l2.2,5.35l2.35-5.35h3.15L125.625,112.176z"/>
<path fill="#1166B0" d="M144.275,104.525c-0.55,3.051-3.05,4.851-6.25,4.851c-3.65,0-6.551-2.8-6.551-6.4c0-3.55,2.9-6.4,6.551-6.4
	c3.05,0,5.6,1.8,6.2,4.7l-3,0.7c-0.4-1.75-1.65-2.601-3.2-2.601c-1.95,0-3.5,1.551-3.5,3.65s1.55,3.65,3.5,3.65
	c1.55,0,2.8-0.9,3.25-2.7L144.275,104.525z"/>
<path fill="#1166B0" d="M152.726,99.875l-0.15,2.9h-0.55c-2.05,0-3.2,1.051-3.2,3.45v2.851h-2.95v-9.15h2.95v1.75
	c0.65-1.1,1.7-1.9,3.2-1.9C152.325,99.826,152.476,99.826,152.726,99.875z"/>
<path fill="#1166B0" d="M162.876,105.275h-6.8c0.25,1.101,1,1.75,2,1.75c0.7,0,1.45-0.149,1.95-1.05l2.6,0.55
	c-0.8,1.95-2.45,2.851-4.601,2.851c-2.649,0-4.899-1.95-4.899-4.851s2.2-4.85,4.899-4.85c2.601,0,4.7,1.85,4.751,4.85v0.75H162.876z
	 M156.176,103.476h3.8c-0.3-1-1-1.45-1.85-1.45C157.275,102.025,156.426,102.525,156.176,103.476z"/>
<path fill="#1166B0" d="M174.076,109.076h-2.95v-0.75c-0.699,0.649-1.7,1-2.85,1c-2.45,0-4.5-1.95-4.5-4.851
	c0-2.899,2.05-4.851,4.5-4.851c1.2,0,2.15,0.351,2.85,1v-4.699h2.95V109.076z M171.126,104.525c0-1.4-1.05-2.35-2.25-2.35
	c-1.3,0-2.25,0.949-2.25,2.35s0.95,2.351,2.25,2.351C170.026,106.876,171.126,105.926,171.126,104.525z"/>
<path fill="#1166B0" d="M179.276,97.226c0,0.95-0.7,1.601-1.7,1.601s-1.699-0.701-1.699-1.601c0-0.9,0.699-1.65,1.699-1.65
	S179.276,96.325,179.276,97.226z M176.127,109.076v-9.15h2.949v9.15H176.127z"/>
<path fill="#1166B0" d="M187.927,108.676c-0.7,0.4-1.45,0.65-2.5,0.65c-2.3,0-3.7-1.25-3.7-3.65v-3.4h-1.7v-2.3h1.7v-2.7h2.95v2.7
	h2.75v2.3h-2.75v3.15c0,0.949,0.45,1.35,1.25,1.35c0.4,0,0.95-0.149,1.351-0.35L187.927,108.676z"/>
<path fill="#1166B0" d="M250.179,85.125c0,12.7-10.3,23.001-23,23.001c-12.701,0-23.001-10.301-23.001-23.001
	c0-12.701,10.3-23.001,23.001-23.001C239.879,62.124,250.179,72.424,250.179,85.125"/>
<path fill="#FFFFFF" d="M229.778,70.424h-6.4c-3.95,0-7.2,3.2-7.2,7.2v14.35c0-3.949,3.2-7.2,7.2-7.2h6.4c3.95,0,7.2-3.2,7.2-7.2
	S233.729,70.424,229.778,70.424"/>
<path fill="#EE7127" d="M223.378,84.775c-3.899,0-7.05,3.1-7.15,6.901l0,0v7.449h7.2h0.25h14.751L223.378,84.775z"/>
</svg>
