<?xml version="1.0" encoding="UTF-8"?>
<!DOCTYPE svg PUBLIC "-//W3C//DTD SVG 1.1//EN" "http://www.w3.org/Graphics/SVG/1.1/DTD/svg11.dtd">
<!-- Creator: CorelDRAW -->
<svg xmlns="http://www.w3.org/2000/svg" xml:space="preserve" width="31.75mm" height="21.167mm" style="shape-rendering:geometricPrecision; text-rendering:geometricPrecision; image-rendering:optimizeQuality; fill-rule:evenodd; clip-rule:evenodd"
viewBox="0 0 31.75 21.167"
 xmlns:xlink="http://www.w3.org/1999/xlink">
 <defs>
  <style type="text/css">
   <![CDATA[
    .str0 {stroke:#C5C6C6;stroke-width:0.0762}
    .fil0 {fill:none}
    .fil1 {fill:white}
    .fil3 {fill:#0B1E62;fill-rule:nonzero}
    .fil2 {fill:#D61A0C;fill-rule:nonzero}
   ]]>
  </style>
 </defs>
 <g id="Layer_x0020_1">
  <metadata id="CorelCorpID_0Corel-Layer"/>
  <g>
   <path class="fil0 str0" d="M1.0583 0.0002l29.6334 0c0.5843,0 1.0582,0.4739 1.0582,1.0583l0.0001 19.05c-0.0001,0.5842 -0.474,1.0581 -1.0584,1.0581l-29.6333 0.0002c-0.5843,-0.0002 -1.0582,-0.4741 -1.0582,-1.0585l-0.0001 -19.0498c0.0001,-0.5844 0.474,-1.0583 1.0584,-1.0583z"/>
   <path id="1" class="fil1" d="M1.0583 0.0002l29.6334 0c0.5843,0 1.0582,0.4739 1.0582,1.0583l0.0001 19.05c-0.0001,0.5842 -0.474,1.0581 -1.0584,1.0581l-29.6333 0.0002c-0.5843,-0.0002 -1.0582,-0.4741 -1.0582,-1.0585l-0.0001 -19.0498c0.0001,-0.5844 0.474,-1.0583 1.0584,-1.0583z"/>
  </g>
  <g>
   <path class="fil2" d="M19.7207 7.3262c-0.662,-0.309 -1.3242,-0.4898 -2.0385,-0.66 0.0528,-0.2236 0.3464,-0.3089 0.2415,-0.5746 -0.126,-0.3088 -0.3674,-0.5429 -0.6194,-0.7663 0.0308,-0.1277 0.1463,-0.2557 0.2306,-0.3513 0.6095,0.4363 1.0405,1.1282 1.1557,1.8408l0.0316 0c0.2316,-0.3505 0.4622,-0.6918 0.7146,-1.032 0.0627,-0.1063 0.0944,-0.2341 0.0736,-0.3616 -0.273,-0.7343 -0.8725,-1.2135 -1.5126,-1.6497 -0.0632,-0.0427 -0.1579,-0.0636 -0.2316,-0.1274 -0.2735,-0.0533 -0.5886,-0.1389 -0.7876,0.1274 -0.2,0.2341 -0.4415,0.5534 -0.631,0.8195 -0.1892,0.2341 -0.3784,0.4897 -0.5145,0.7663 -0.1264,-0.1065 -0.1786,-0.2659 -0.3156,-0.3728 -0.1994,-0.042 -0.3783,0.0322 -0.567,0.0851 -0.1896,0.0325 -0.3468,0.2237 -0.5255,0.2237 -0.0841,-0.0848 -0.168,-0.2019 -0.2098,-0.3193 0.5781,-0.4471 1.3444,-0.6066 2.059,-0.5319 -0.305,-0.3936 -0.525,-0.798 -0.8616,-1.1174 -0.4937,-0.2447 -0.9977,0.1172 -1.4498,0.2874 -0.1056,0.0849 -0.2733,0.1911 -0.4094,0.2553 -0.316,0.2663 -0.736,0.4684 -0.7571,0.9152 -0.032,0.287 0.1786,0.4581 0.3159,0.6493 0.0838,0.1591 0.2204,0.2872 0.2828,0.4681 0.1681,0.1491 0.3366,0.3834 0.4622,0.5746 0.0533,0.0959 0.2105,0.1279 0.2105,0.2231l-0.42 0.1596c-0.2211,0.2562 -0.1474,0.7875 -0.0628,1.0963 -0.1158,0.0745 -0.2418,0.1602 -0.3998,0.1276 -0.2305,-0.6806 -0.1361,-1.4998 0.1786,-2.1174l-0.7566 0.2344c-0.3047,0.1172 -0.756,0.1489 -0.7981,0.5424 -0.1045,0.8411 0.0421,1.6919 0.4205,2.3945 0.367,0.5959 1.0188,0.1382 1.4811,0.0534 0.0632,-0.0218 0.1473,-0.0109 0.179,-0.0534 0.3038,-0.0745 0.6096,-0.1811 0.8713,-0.2981l0.0214 0.3936c0.1366,0.2447 0.4204,0.3084 0.6615,0.3834 0.1482,0.0532 0.3367,0.0104 0.4731,0.0956 -0.0105,0.1174 0.0426,0.2766 -0.0312,0.3617 -0.683,0.0107 -1.2925,-0.2124 -1.7761,-0.6165 -0.0737,-0.0536 -0.1572,-0.1923 -0.2309,-0.1392l0.0109 0.7557 -0.0109 0c0.0421,0.2871 -0.0528,0.6817 0.2309,0.8727 0.7356,0.3823 1.6709,0.5428 2.5328,0.3513 0.6088,-0.2233 0.3886,-0.8834 0.4513,-1.4684l0.0422 -0.0213 1.3974 0.4355 0.2204 -0.053c0.4205,-0.3401 0.6729,-0.7338 0.9042,-1.2023 0.1783,-0.5215 0.5769,-1.1917 0.0628,-1.6596zm-4.8436 1.3297l0 0c0.1892,-0.7446 -0.1052,-1.4788 -0.5994,-1.9473 0.7153,-0.0109 1.3237,-0.5215 1.576,-1.1277 0.1267,0.1684 0.1366,0.2873 0.252,0.4042 0.3159,0.4363 0.8308,0.7026 1.3769,0.7235l0.0421 0.0427c-0.5047,0.4148 -0.8093,1.1282 -0.6198,1.8621 -0.6096,-0.3294 -1.4393,-0.3727 -2.0278,0.0425zm2.2385 1.1176l0 0 -0.0219 -0.0745c-0.0106,-0.2875 0.0422,-0.6174 -0.0527,-0.8832 0.1893,0.0212 0.4517,0.2124 0.6308,0.0212 0.2418,-0.2556 0.399,-0.5214 0.546,-0.8089 0.1057,0.0637 0.2629,0.0211 0.3362,0.1385 -0.1782,0.7024 -0.7669,1.3407 -1.4384,1.6069z"/>
   <path class="fil3" d="M4.1983 13.799c0.2419,-0.0466 0.7265,-0.0876 1.1923,-0.0876 0.5631,0 0.908,0.0525 1.2048,0.2223 0.2842,0.1465 0.4846,0.4158 0.4846,0.7788 0,0.3451 -0.2123,0.6678 -0.6662,0.8371l0 0.0119c0.4658,0.117 0.811,0.4621 0.811,0.9721 0,0.3628 -0.1693,0.644 -0.4231,0.8373 -0.2967,0.2281 -0.7935,0.3573 -1.6048,0.3573 -0.4543,0 -0.7926,-0.0297 -0.9986,-0.0587l0 -3.8705zm0.9137 1.5047l0 0 0.303 0c0.4902,0 0.7447,-0.1929 0.7447,-0.4861 0,-0.2983 -0.2364,-0.4562 -0.6542,-0.4562 -0.2054,0 -0.3206,0.0115 -0.3935,0.029l0 0.9133zm0 1.7513l0 0c0.0911,0.0174 0.2,0.0174 0.3578,0.0174 0.4172,0 0.7866,-0.1582 0.7866,-0.5742 0,-0.3979 -0.3694,-0.5561 -0.8295,-0.5561l-0.3149 0 0 1.1129zm5.1017 -0.0774c0,0.2845 0.0113,0.5636 0.0466,0.731l-0.7958 0 -0.0525 -0.3037 -0.0172 0c-0.1858,0.2414 -0.4763,0.3717 -0.813,0.3717 -0.575,0 -0.9176,-0.4462 -0.9176,-0.9291 0,-0.7869 0.6622,-1.1584 1.6666,-1.1584l0 -0.0374c0,-0.1606 -0.0813,-0.3903 -0.5169,-0.3903 -0.2901,0 -0.5985,0.1054 -0.784,0.2232l-0.1624 -0.6008c0.1974,-0.1178 0.5862,-0.2726 1.1035,-0.2726 0.9466,0 1.2427,0.5945 1.2427,1.3068l0 1.0596zm-0.8536 -0.6998l0 0c-0.4651,0 -0.8245,0.1174 -0.8245,0.4768 0,0.2415 0.1506,0.3592 0.3479,0.3592 0.2149,0 0.4007,-0.1549 0.4588,-0.347 0.012,-0.0493 0.0178,-0.1048 0.0178,-0.1612l0 -0.3278zm7.2547 0.7138c0,0.2862 0.0119,0.5671 0.0464,0.7355l-0.7958 0 -0.0517 -0.3054 -0.0176 0c-0.1861,0.2426 -0.4762,0.3735 -0.8133,0.3735 -0.5747,0 -0.9176,-0.4482 -0.9176,-0.9345 0,-0.7912 0.6618,-1.165 1.6669,-1.165l0 -0.0374c0,-0.1618 -0.0812,-0.393 -0.5166,-0.393 -0.2905,0 -0.5987,0.1061 -0.7842,0.2247l-0.1624 -0.6044c0.1974,-0.1188 0.5866,-0.2744 1.1028,-0.2744 0.947,0 1.2431,0.5985 1.2431,1.3148l0 1.0656zm-0.8536 -0.7042l0 0c-0.4645,0 -0.825,0.1187 -0.825,0.4797 0,0.2435 0.1512,0.362 0.349,0.362 0.2145,0 0.4004,-0.1562 0.4582,-0.3496 0.0115,-0.0496 0.0178,-0.1054 0.0178,-0.1618l0 -0.3303zm-4.9325 -0.5966c0,-0.3662 -0.0112,-0.6725 -0.0224,-0.9366l0.7486 0 0.04 0.408 0.0168 0c0.1132,-0.1922 0.3907,-0.4737 0.8562,-0.4737 0.5667,0 0.9916,0.4017 0.9916,1.2661l0 1.7357 -0.8612 0 0 -1.6276c0,-0.3781 -0.1251,-0.6362 -0.4367,-0.6362 -0.2383,0 -0.3799,0.1738 -0.4424,0.3424 -0.023,0.0596 -0.0282,0.1439 -0.0282,0.2282l0 1.6932 -0.8623 0 0 -1.9995zm6.3663 0.0872c0,-0.3711 -0.0112,-0.6813 -0.0224,-0.9488l0.743 0 0.035 0.4077 0.0165 0c0.1212,-0.1949 0.375,-0.4745 0.8533,-0.4745 0.368,0 0.6503,0.2005 0.7714,0.5106l0.0116 0c0.1096,-0.1581 0.2303,-0.2796 0.3687,-0.3648 0.1554,-0.0912 0.3284,-0.1458 0.536,-0.1458 0.5414,0 0.95,0.401 0.95,1.289l0 1.7516 -0.8522 0 0 -1.6117c0,-0.4317 -0.1327,-0.6807 -0.415,-0.6807 -0.207,0 -0.3456,0.1457 -0.4087,0.322 -0.0178,0.0669 -0.029,0.1583 -0.029,0.2314l0 1.739 -0.8529 0 0 -1.6663c0,-0.371 -0.1268,-0.6261 -0.4087,-0.6261 -0.2244,0 -0.3571,0.1822 -0.4093,0.3282 -0.0284,0.0726 -0.0346,0.1583 -0.0346,0.2371l0 1.7271 -0.8527 0 0 -2.025zm5.6003 0.8799c0.028,0.392 0.3736,0.5756 0.7691,0.5756 0.2894,0 0.5231,-0.0432 0.7519,-0.1286l0.1115 0.6302c-0.2782,0.1286 -0.6185,0.1898 -0.9863,0.1898 -0.9246,0 -1.4536,-0.5877 -1.4536,-1.5301 0,-0.7582 0.434,-1.5974 1.3761,-1.5974 0.88,0 1.2143,0.7527 1.2143,1.4934 0,0.1593 -0.0167,0.2999 -0.0276,0.3732l-1.7554 -0.0061zm0.9975 -0.6362l0 0c0,-0.2204 -0.0891,-0.6055 -0.4737,-0.6055 -0.3625,0 -0.5067,0.3607 -0.5291,0.6055l1.0028 0zm1.8376 -1.1269l0.2732 0.5034c0.0796,0.1539 0.1532,0.3011 0.2275,0.4485l0.0112 0c0.0736,-0.1664 0.142,-0.3133 0.2156,-0.4668l0.2446 -0.4851 0.9381 0 -0.915 1.4305 0.9262 1.5727 -0.9778 0 -0.2785 -0.541c-0.0796,-0.1472 -0.1532,-0.3008 -0.2159,-0.4543l-0.0168 0c-0.0681,0.16 -0.1427,0.3071 -0.2106,0.4543l-0.2615 0.541 -0.9486 0 0.943 -1.5291 -0.9209 -1.4741 0.9662 0z"/>
  </g>
 </g>
</svg>
