<?xml version="1.0" encoding="UTF-8"?>
<!DOCTYPE svg PUBLIC "-//W3C//DTD SVG 1.1//EN" "http://www.w3.org/Graphics/SVG/1.1/DTD/svg11.dtd">
<!-- Creator: CorelDRAW -->
<svg xmlns="http://www.w3.org/2000/svg" xml:space="preserve" width="31.75mm" height="21.167mm" style="shape-rendering:geometricPrecision; text-rendering:geometricPrecision; image-rendering:optimizeQuality; fill-rule:evenodd; clip-rule:evenodd"
viewBox="0 0 31.75 21.167"
 xmlns:xlink="http://www.w3.org/1999/xlink">
 <defs>
  <style type="text/css">
   <![CDATA[
    .str0 {stroke:#C5C6C6;stroke-width:0.0762}
    .fil0 {fill:none}
    .fil1 {fill:white}
    .fil2 {fill:#1D1D1E}
    .fil5 {fill:url(#id0)}
    .fil3 {fill:url(#id1)}
    .fil6 {fill:url(#id2)}
    .fil4 {fill:url(#id3)}
    .fil7 {fill:url(#id4);fill-rule:nonzero}
   ]]>
  </style>
  <linearGradient id="id0" gradientUnits="userSpaceOnUse" x1="11.2213" y1="14.5954" x2="4.1317" y2="6.6593">
   <stop offset="0" style="stop-color:#B33E19"/>
   <stop offset="0.290196" style="stop-color:#B7441F"/>
   <stop offset="0.509804" style="stop-color:#D0784A"/>
   <stop offset="0.639216" style="stop-color:#FDD798"/>
   <stop offset="0.741176" style="stop-color:#CC7144"/>
   <stop offset="0.858824" style="stop-color:#B74520"/>
   <stop offset="1" style="stop-color:#B23C18"/>
  </linearGradient>
  <linearGradient id="id1" gradientUnits="userSpaceOnUse" x1="3.7346" y1="6.3475" x2="11.811" y2="14.9195">
   <stop offset="0" style="stop-color:#895815"/>
   <stop offset="0.309804" style="stop-color:#986926"/>
   <stop offset="0.541176" style="stop-color:#FDD798"/>
   <stop offset="0.8" style="stop-color:#B74520"/>
   <stop offset="1" style="stop-color:#B23C18"/>
  </linearGradient>
  <linearGradient id="id2" gradientUnits="userSpaceOnUse" x1="10.8597" y1="14.4745" x2="4.4932" y2="6.5802">
   <stop offset="0" style="stop-color:#F4BC21"/>
   <stop offset="0.188235" style="stop-color:#F8C23E"/>
   <stop offset="0.360784" style="stop-color:#FAD587"/>
   <stop offset="0.45098" style="stop-color:#F4B81A"/>
   <stop offset="1" style="stop-color:#FCCB17"/>
  </linearGradient>
  <linearGradient id="id3" gradientUnits="userSpaceOnUse" x1="5.0168" y1="6.0828" x2="10.3289" y2="14.9842">
   <stop offset="0" style="stop-color:#F4BC21"/>
   <stop offset="0.188235" style="stop-color:#F8C23E"/>
   <stop offset="0.360784" style="stop-color:#FAD587"/>
   <stop offset="0.45098" style="stop-color:#F4B81A"/>
   <stop offset="1" style="stop-color:#E0931D"/>
  </linearGradient>
  <linearGradient id="id4" gradientUnits="userSpaceOnUse" xlink:href="#id0" x1="4.0483" y1="6.6013" x2="11.3011" y2="14.3647">
  </linearGradient>
 </defs>
 <g id="Layer_x0020_1">
  <metadata id="CorelCorpID_0Corel-Layer"/>
  <g>
   <path class="fil0 str0" d="M1.0583 0.0002l29.6334 0c0.5843,0 1.0582,0.4739 1.0582,1.0583l0.0001 19.05c-0.0001,0.5842 -0.474,1.0581 -1.0584,1.0581l-29.6333 0.0002c-0.5843,-0.0002 -1.0582,-0.4741 -1.0582,-1.0585l-0.0001 -19.0498c0.0001,-0.5844 0.474,-1.0583 1.0584,-1.0583z"/>
   <path id="1" class="fil1" d="M1.0583 0.0002l29.6334 0c0.5843,0 1.0582,0.4739 1.0582,1.0583l0.0001 19.05c-0.0001,0.5842 -0.474,1.0581 -1.0584,1.0581l-29.6333 0.0002c-0.5843,-0.0002 -1.0582,-0.4741 -1.0582,-1.0585l-0.0001 -19.0498c0.0001,-0.5844 0.474,-1.0583 1.0584,-1.0583z"/>
  </g>
  <g>
   <path class="fil2" d="M17.0479 10.7425l0 0c0.0721,1.1338 0.9519,1.6685 2.0326,1.4144 0.2388,-0.057 0.3526,-0.1479 0.5309,-0.2087l-0.1897 -0.4777c-0.273,0.0835 -0.6256,0.3185 -1.1186,0.1479 -0.3261,-0.1176 -0.5536,-0.402 -0.565,-0.8267l1.9643 -0.0038c0,-0.8948 -0.2693,-1.7707 -1.3007,-1.7783 -1.0087,-0.0114 -1.4069,0.838 -1.3538,1.7329zm0.6826 -0.4399l0 0c0.0341,-0.4133 0.2237,-0.7585 0.6484,-0.7622 0.4096,0 0.6181,0.3565 0.6219,0.7622l-1.2703 0zm-2.935 1.6191l0 0 -0.1895 -0.4474c-0.1783,0.0493 -0.2882,0.1365 -0.5196,0.1782 -0.6029,0.1024 -1.1489,-0.1782 -1.1603,-0.8646l1.9605 0c0,-0.6863 -0.1214,-1.475 -0.8874,-1.7139 -0.3526,-0.1138 -0.7849,-0.072 -1.0769,0.1024 -1.0617,0.637 -1.0086,3.06 0.8532,3.0373 0.3564,-0.0038 0.8115,-0.1023 1.02,-0.292zm-1.8808 -1.6266l0 0c0.0494,-0.4096 0.2048,-0.7472 0.6409,-0.7547 0.4209,-0.0076 0.6219,0.3413 0.6408,0.7622l-1.2817 -0.0075zm7.1365 0.4019l0 0c0.0417,1.8011 1.9983,1.7026 2.5255,1.2247 -0.019,-0.0758 -0.1517,-0.4133 -0.1973,-0.4588 -0.3602,0.1479 -0.7129,0.3147 -1.1489,0.0987 -0.6788,-0.3338 -0.6295,-1.5966 0.0569,-1.9112 0.2653,-0.1214 0.6332,-0.11 0.91,0.0075 0.0987,0.0456 0.1706,0.0949 0.2503,0.129l0 -0.584c-0.4019,-0.1592 -0.6939,-0.2654 -1.2021,-0.1516 -0.7659,0.1782 -1.2096,0.8797 -1.1944,1.6457zm-4.5276 -1.6117l0 0 0.0076 -0.675c-0.0076,-0.2387 0.2086,-0.6104 0.5043,-0.7469 0.2731,-0.1252 0.7925,-0.1328 1.0504,0.0341l-0.1251 0.5347c-0.7698,-0.1706 -0.766,-0.0266 -0.766,0.8531l0.838 0 -0.2161 0.5347 -0.6219 0.0038 0 2.5179c-0.1252,0.0152 -0.5613,0.0227 -0.6712,-0.0076l0 -2.5065 -0.3375 -0.0076 -0.2085 -0.5308 0.546 -0.0039zm7.7355 0.5537l0.0077 1.8239c0.0152,0.1744 0.0379,0.2731 0.072,0.345 0.2465,0.5385 1.0997,0.4893 1.5964,0.167l-0.2199 -0.4589c-0.163,0.0607 -0.3565,0.1972 -0.5877,0.1251 -0.2049,-0.0606 -0.1897,-0.3033 -0.1897,-0.5423 0,-0.4928 0,-0.9821 0,-1.475l1.3765 0.0038 1.1073 2.5255c0.0227,0.11 -0.2238,0.5461 -0.2768,0.618 -0.383,0.5385 -0.7394,0.3109 -1.0467,0.2427l-0.1516 0.5461c0.584,0.2236 1.1945,0.1403 1.5357,-0.2313 0.3033,-0.3299 0.4779,-0.7925 0.6674,-1.3082l1.0617 -2.9351 -0.7053 0 -0.747 2.2563c-0.0758,-0.0835 -0.6521,-1.5282 -0.7583,-1.7746 -0.1441,-0.3338 -0.3527,-0.4778 -0.7964,-0.4817 -0.4171,-0.0037 -0.838,0 -1.2665,0l0 -0.9062c-0.1479,0.0341 -0.5688,0.1593 -0.6788,0.2161l0 0.6788 -0.5459 0.0076 0.0038 0.5422 0.5421 0.0152z"/>
   <path class="fil3" d="M8.5436 6.604l0 0c2.2416,0 3.7149,1.8025 3.2904,4.0295 -0.4244,2.227 -2.588,4.0295 -4.8295,4.0295 -2.2441,0 -3.7174,-1.8025 -3.2929,-4.0295 0.4269,-2.227 2.5879,-4.0295 4.832,-4.0295z"/>
   <path class="fil4" d="M8.4436 6.504l0 0c2.2416,0 3.7149,1.8025 3.2904,4.0295 -0.4244,2.227 -2.588,4.0295 -4.8295,4.0295 -2.2441,0 -3.7174,-1.8025 -3.2929,-4.0295 0.4269,-2.227 2.5879,-4.0295 4.832,-4.0295z"/>
   <path class="fil5" d="M9.5143 7.1259l0 0c1.388,0.4854 2.1929,1.8733 1.8807,3.5076 -0.3635,1.9049 -2.1148,3.4734 -4.0173,3.6734 -0.1512,-0.0049 -0.1537,-0.0903 -0.1586,-0.2171 0.0074,-0.2634 0.0171,-0.5293 0.0244,-0.7927 0.0024,-0.0391 -0.0122,-0.0513 -0.0293,-0.0562 -0.1951,-0.0194 -0.3878,-0.0634 -0.578,-0.1219 -0.2049,-0.0805 -0.4123,-0.1976 -0.6196,-0.3318 -0.0951,-0.0463 -0.0829,-0.2658 -0.0805,-0.3512 0.0171,-0.1561 0.1317,-0.5196 0.3171,-0.5366 0.2219,-0.0122 0.3268,0.1049 0.5463,0.2122 0.3854,0.183 0.9245,0.2903 1.3245,0.1024 0.1927,-0.117 0.2391,-0.2756 0.1489,-0.4755 -0.1562,-0.3269 -0.905,-0.5953 -1.2441,-0.7586 -0.8122,-0.3464 -1.2658,-1.0489 -1.1219,-1.8855 0.1073,-0.6172 0.6853,-1.0855 1.2903,-1.1708 0,-0.0976 0,-0.1952 0,-0.2952 -0.7464,0.2171 -1.3148,0.6464 -1.8245,1.1464 -0.7391,0.722 -1.1733,1.6342 -1.2099,2.8002 0.0586,1.4269 0.8001,2.0587 1.5757,2.5319 -1.3318,-0.5147 -2.0928,-1.8758 -1.7879,-3.4734 0.3732,-1.9562 2.2074,-3.5564 4.171,-3.6856 0.078,0.0463 0.0829,0.0537 0.1244,0.1585 -0.0171,0.2464 -0.0318,0.4928 -0.0488,0.7391 0.3878,0.0781 0.7537,0.1878 1.0489,0.4391 0.0097,0.5658 -0.4147,0.8024 -0.5757,0.7171 0.0073,-0.0269 -0.6391,-0.2049 -0.7732,-0.2366 -0.1634,-0.0268 -0.3245,-0.0171 -0.4854,0.0561 -0.1902,0.0902 -0.2805,0.2244 -0.1902,0.4341 0.078,0.1561 0.2073,0.2586 0.3487,0.3464 0.4074,0.2195 0.8147,0.4415 1.2221,0.661 0.3512,0.1976 0.6024,0.4537 0.7634,0.7635 0.1171,0.3073 0.1439,0.6196 0.0757,0.9366 -0.0805,0.2586 -0.1781,0.483 -0.3269,0.6244 -0.1244,0.1415 -0.261,0.2513 -0.4073,0.3294 -0.2074,0.1097 -0.4147,0.2073 -0.6293,0.2414 -0.0074,0.1317 -0.0122,0.261 -0.0195,0.3927 0.017,0.0098 0.0341,0.0049 0.0536,0 0.461,-0.1488 0.8659,-0.4098 1.2611,-0.6951 0.5122,-0.4513 0.9903,-0.9244 1.2415,-1.5367 0.1708,-0.3415 0.3024,-0.7196 0.3659,-1.1635 0.139,-1.244 -0.3147,-2.4148 -1.6563,-3.0295z"/>
   <path class="fil6" d="M9.5143 7.0259l0 0c1.388,0.4854 2.1929,1.8733 1.8807,3.5076 -0.3635,1.9049 -2.1148,3.4734 -4.0173,3.6734 -0.1512,-0.0049 -0.1537,-0.0903 -0.1586,-0.2171 0.0074,-0.2634 0.0171,-0.5293 0.0244,-0.7927 0.0024,-0.0391 -0.0122,-0.0513 -0.0293,-0.0562 -0.1951,-0.0194 -0.3878,-0.0634 -0.578,-0.1219 -0.2049,-0.0805 -0.4123,-0.1976 -0.6196,-0.3318 -0.0951,-0.0463 -0.0829,-0.2658 -0.0805,-0.3512 0.0171,-0.1561 0.1317,-0.5196 0.3171,-0.5366 0.2219,-0.0122 0.3268,0.1049 0.5463,0.2122 0.3854,0.183 0.9245,0.2903 1.3245,0.1024 0.1927,-0.117 0.2391,-0.2756 0.1489,-0.4755 -0.1562,-0.3269 -0.905,-0.5953 -1.2441,-0.7586 -0.8122,-0.3464 -1.2658,-1.0489 -1.1219,-1.8855 0.1073,-0.6172 0.6853,-1.0855 1.2903,-1.1708 0,-0.0976 0,-0.1952 0,-0.2952 -0.7464,0.2171 -1.3148,0.6464 -1.8245,1.1464 -0.7391,0.722 -1.1733,1.6342 -1.2099,2.8002 0.0586,1.4269 0.8001,2.0587 1.5757,2.5319 -1.3318,-0.5147 -2.0928,-1.8758 -1.7879,-3.4734 0.3732,-1.9562 2.2074,-3.5564 4.171,-3.6856 0.078,0.0463 0.0829,0.0537 0.1244,0.1585 -0.0171,0.2464 -0.0318,0.4928 -0.0488,0.7391 0.3878,0.0781 0.7537,0.1878 1.0489,0.4391 0.0097,0.5658 -0.4147,0.8024 -0.5757,0.7171 0.0073,-0.0269 -0.6391,-0.2049 -0.7732,-0.2366 -0.1634,-0.0268 -0.3245,-0.0171 -0.4854,0.0561 -0.1902,0.0902 -0.2805,0.2244 -0.1902,0.4341 0.078,0.1561 0.2073,0.2586 0.3487,0.3464 0.4074,0.2195 0.8147,0.4415 1.2221,0.661 0.3512,0.1976 0.6024,0.4537 0.7634,0.7635 0.1171,0.3073 0.1439,0.6196 0.0757,0.9366 -0.0805,0.2586 -0.1781,0.483 -0.3269,0.6244 -0.1244,0.1415 -0.261,0.2513 -0.4073,0.3294 -0.2074,0.1097 -0.4147,0.2073 -0.6293,0.2414 -0.0074,0.1317 -0.0122,0.261 -0.0195,0.3927 0.017,0.0098 0.0341,0.0049 0.0536,0 0.461,-0.1488 0.8659,-0.4098 1.2611,-0.6951 0.5122,-0.4513 0.9903,-0.9244 1.2415,-1.5367 0.1708,-0.3415 0.3024,-0.7196 0.3659,-1.1635 0.139,-1.244 -0.3147,-2.4148 -1.6563,-3.0295z"/>
   <path class="fil7" d="M9.5268 6.9901c0.7121,0.249 1.2732,0.733 1.612,1.365 0.3297,0.615 0.4492,1.3704 0.2935,2.1855 -0.1822,0.9556 -0.7107,1.8272 -1.4317,2.4865 -0.7285,0.6662 -1.6545,1.1163 -2.619,1.2177l-0.0026 0.0002 -0.0025 0c-0.1855,-0.0061 -0.1897,-0.1048 -0.1953,-0.2514l-0.0001 -0.002 0 -0.0028c0.0038,-0.1363 0.0082,-0.2715 0.0125,-0.4063l0.0119 -0.3865 0 -0.0012c0.0005,-0.0085 0.0002,-0.0138 -0.0006,-0.0167 -0.0976,-0.0098 -0.1942,-0.0257 -0.2895,-0.0463 -0.0971,-0.0208 -0.194,-0.0468 -0.2904,-0.0765l-0.0026 -0.0009c-0.1038,-0.0407 -0.2085,-0.0909 -0.3133,-0.1478 -0.1035,-0.0562 -0.2076,-0.1192 -0.3115,-0.1864 -0.11,-0.0568 -0.1031,-0.2713 -0.0998,-0.3714l0.0004 -0.0138 0.0002 -0.003c0.0103,-0.0957 0.0563,-0.2669 0.1317,-0.3944 0.056,-0.0947 0.1296,-0.1676 0.2198,-0.1759l0.0013 -0.0002c0.1708,-0.0095 0.2746,0.0515 0.405,0.1281 0.0476,0.0278 0.0991,0.0581 0.1595,0.0877 0.2055,0.0974 0.4557,0.1731 0.7039,0.1923 0.2065,0.016 0.4117,-0.0072 0.5875,-0.0895 0.0863,-0.0529 0.1397,-0.1145 0.1611,-0.184 0.0215,-0.0699 0.0111,-0.1508 -0.03,-0.2421l0.0001 0c-0.1208,-0.2512 -0.627,-0.4738 -0.9925,-0.6345 -0.0867,-0.0381 -0.1658,-0.0729 -0.2319,-0.1047 -0.4192,-0.1787 -0.7452,-0.4514 -0.9456,-0.7884l0.0001 0c-0.1954,-0.3283 -0.2714,-0.717 -0.199,-1.1385 0.0536,-0.3085 0.2213,-0.5807 0.4506,-0.7888 0.2337,-0.212 0.5321,-0.358 0.839,-0.4083l0 -0.2114c-0.3494,0.1072 -0.6592,0.2615 -0.942,0.4478 -0.2966,0.1952 -0.5644,0.4261 -0.8178,0.6746l-0.0001 0.0001c-0.366,0.3575 -0.6566,0.7624 -0.86,1.2218 -0.2033,0.4592 -0.3199,0.9738 -0.3382,1.5509 0.029,0.7043 0.2262,1.2119 0.5115,1.6014 0.286,0.3905 0.6618,0.6641 1.046,0.8984l0.3611 0.2202 -0.3946 -0.1524c-0.6839,-0.2642 -1.2196,-0.749 -1.5409,-1.3735 -0.3124,-0.6069 -0.4227,-1.3459 -0.2707,-2.1423 0.1876,-0.9834 0.7411,-1.8775 1.494,-2.5429 0.7579,-0.6697 1.7186,-1.1083 2.7119,-1.1737l0.0116 -0.0007 0.0101 0.006c0.0431,0.0256 0.0664,0.0409 0.0865,0.0667l0.0002 0c0.0189,0.0243 0.0315,0.0547 0.0537,0.1106l0.0033 0.0083 -0.0006 0.0082c-0.0087,0.127 -0.0169,0.2523 -0.0249,0.3773l-0.0217 0.3288c0.1843,0.038 0.3637,0.0841 0.5327,0.1497 0.1804,0.07 0.3495,0.1623 0.5006,0.291l0.0132 0.0112 0.0002 0.0171c0.0031,0.1823 -0.0373,0.3325 -0.0996,0.4498l-0.0001 0c-0.0561,0.1057 -0.13,0.1854 -0.206,0.2388 -0.0779,0.0548 -0.1593,0.0829 -0.2272,0.084l-0.0001 0c-0.0367,0.0007 -0.0704,-0.0065 -0.0984,-0.0213l-0.0204 -0.0107 0 -0.0229 0 -0.0001 0 -0.0038 0.0012 -0.005c0.0037,-0.0154 -0.0793,-0.002 -0.1778,-0.0324 -0.1146,-0.0354 -0.2636,-0.0777 -0.3843,-0.1104 -0.0824,-0.0224 -0.1498,-0.0401 -0.1826,-0.0478 -0.0777,-0.0125 -0.155,-0.0165 -0.2315,-0.0088 -0.0768,0.0077 -0.1533,0.0275 -0.2293,0.0621l0 0.0001c-0.0875,0.0413 -0.1516,0.0919 -0.1824,0.1546 -0.03,0.0608 -0.0293,0.1365 0.0109,0.2302l-0.0001 0c0.0367,0.0724 0.0855,0.1333 0.1418,0.186 0.0572,0.0537 0.1222,0.0995 0.1901,0.1417l0.5931 0.3208c0.2096,0.1135 0.4194,0.2274 0.629,0.3402l0.0006 0.0003c0.1784,0.1004 0.332,0.216 0.4613,0.3461 0.1298,0.1304 0.2352,0.2753 0.3174,0.4332l0.0009 0.0017 0.0009 0.0024c0.0601,0.1576 0.097,0.3168 0.1098,0.4769 0.0128,0.1588 0.0022,0.3194 -0.0326,0.481l-0.0003 0.0016 -0.0006 0.0018c-0.0407,0.1308 -0.086,0.2534 -0.1403,0.3619 -0.0547,0.1092 -0.1184,0.204 -0.1954,0.2774 -0.0629,0.0715 -0.1292,0.1353 -0.1981,0.1911 -0.0699,0.0566 -0.1432,0.1053 -0.2187,0.1456l-0.0002 0.0001c-0.1051,0.0556 -0.2104,0.1082 -0.3155,0.1508l-0.0002 0c-0.097,0.0392 -0.1952,0.0708 -0.2951,0.0893l-0.0081 0.1658 0 0.0002 -0.0078 0.1586 0.0016 -0.0004 0.0011 -0.0003c0.2272,-0.0733 0.4414,-0.1748 0.6473,-0.2929 0.2064,-0.1184 0.4045,-0.2535 0.5998,-0.3945 0.2551,-0.2247 0.5017,-0.4549 0.7147,-0.7039 0.2125,-0.2484 0.3929,-0.5167 0.5167,-0.8185l0.0012 -0.0026c0.0843,-0.1686 0.1593,-0.347 0.2209,-0.5379 0.0614,-0.1904 0.1097,-0.394 0.1412,-0.6139 0.0719,-0.6457 -0.0175,-1.271 -0.3101,-1.8064 -0.2644,-0.4837 -0.6956,-0.8951 -1.3243,-1.1831l-0.7411 -0.3395 0.7694 0.2691zm1.545 1.4008c-0.1758,-0.328 -0.4132,-0.6151 -0.7017,-0.8484 0.2155,0.2 0.3874,0.4236 0.5193,0.6647 0.3008,0.5503 0.3928,1.1915 0.319,1.8524l-0.0001 0.0012c-0.032,0.2238 -0.0814,0.4315 -0.1442,0.6263 -0.0624,0.1936 -0.1387,0.3749 -0.2247,0.5471 -0.1273,0.3099 -0.3118,0.5846 -0.5287,0.8381 -0.2168,0.2534 -0.4655,0.4857 -0.7224,0.712l-0.0002 0.0001 -0.0028 0.0021c-0.1986,0.1434 -0.3998,0.2808 -0.6091,0.4008 -0.2103,0.1206 -0.4295,0.2244 -0.6627,0.2996l-0.0021 0.0006 -0.0027 0.0007 -0.0003 0.0001c-0.026,0.0065 -0.0493,0.0124 -0.0789,-0.0046l-0.0204 -0.0118 0.0013 -0.0233c0.0038,-0.0677 0.0068,-0.1317 0.0098,-0.1959 0.003,-0.0666 0.0063,-0.1332 0.0098,-0.1968l0.0018 -0.0306 0.0302 -0.0048c0.1038,-0.0164 0.2069,-0.0488 0.309,-0.09l0 -0.0001c0.1037,-0.0421 0.2064,-0.0933 0.3085,-0.1473 0.071,-0.0379 0.1402,-0.0839 0.2065,-0.1376l0.0002 -0.0001c0.0659,-0.0532 0.1294,-0.1145 0.1897,-0.1832l0.0012 -0.0014 0.0012 -0.0011c0.071,-0.0673 0.1303,-0.1555 0.1814,-0.2577 0.0516,-0.1031 0.0953,-0.2216 0.1349,-0.3487 0.0328,-0.1535 0.043,-0.3061 0.0307,-0.4576 -0.0122,-0.1522 -0.0471,-0.3035 -0.1041,-0.4535 -0.0788,-0.151 -0.1794,-0.2892 -0.3027,-0.4131 -0.1241,-0.1248 -0.2722,-0.2363 -0.4447,-0.3333 -0.2094,-0.1127 -0.419,-0.2265 -0.6284,-0.3399l-0.5931 -0.3208 -0.0019 -0.0012c-0.0728,-0.0451 -0.1426,-0.0942 -0.2042,-0.1521 -0.0627,-0.0588 -0.1173,-0.127 -0.1586,-0.2094l-0.0011 -0.002c-0.0498,-0.116 -0.0491,-0.2128 -0.0091,-0.2938 0.039,-0.0794 0.1155,-0.1413 0.2182,-0.1898l0.0004 -0.0001c0.0843,-0.0384 0.1691,-0.0603 0.2539,-0.0689 0.0841,-0.0085 0.1688,-0.0041 0.2536,0.0098l0.0025 0.0004c0.0357,0.0084 0.1042,0.0263 0.1854,0.0484 0.117,0.0317 0.2654,0.0739 0.3867,0.1114 0.0938,0.029 0.1704,0.059 0.2068,0.0864l0.0032 -0.0061c0.0165,0.0087 0.0377,0.0129 0.0617,0.0125l0.0001 0c0.0535,-0.0008 0.1196,-0.0244 0.1847,-0.0702 0.0672,-0.0472 0.1328,-0.1181 0.1827,-0.2122l0 -0.0002c0.0549,-0.1034 0.0911,-0.2352 0.0909,-0.3956 -0.1406,-0.1169 -0.2978,-0.2019 -0.4655,-0.2669 -0.1745,-0.0678 -0.3611,-0.1143 -0.5529,-0.1528l-0.0328 -0.0066 0.0022 -0.0331c0.0084,-0.1221 0.0162,-0.242 0.0239,-0.3616 0.0079,-0.1236 0.0159,-0.2476 0.0243,-0.3693 -0.0173,-0.0435 -0.0276,-0.0675 -0.04,-0.0835l0.0001 -0.0001c-0.0109,-0.014 -0.0269,-0.0249 -0.055,-0.0419 -0.9721,0.0669 -1.9122,0.4976 -2.6548,1.1537 -0.7408,0.6547 -1.2853,1.5338 -1.4696,2.5002l0 0.0001c-0.1487,0.7791 -0.0414,1.5011 0.2635,2.0933 0.2274,0.4419 0.565,0.8121 0.9883,1.0801 -0.2161,-0.1671 -0.4178,-0.3594 -0.5889,-0.593 -0.2937,-0.4009 -0.4967,-0.9225 -0.5262,-1.6445l0 -0.0027c0.0184,-0.5878 0.1373,-1.1123 0.3447,-1.5807 0.2074,-0.4686 0.5037,-0.8813 0.8766,-1.2456 0.2563,-0.2513 0.5276,-0.4852 0.8293,-0.6837 0.3021,-0.199 0.6343,-0.3624 1.0111,-0.472l0.0487 -0.0141 0 0.0506 0 0.2952 0 0.0331 -0.0329 0.0046c-0.3033,0.0428 -0.6003,0.1847 -0.8311,0.3941 -0.2173,0.1973 -0.3763,0.4546 -0.4268,0.7454 -0.0693,0.4031 0.0031,0.7744 0.1892,1.0871l0.0001 0c0.1919,0.3228 0.5058,0.5847 0.91,0.757l0.0016 0.0008c0.0629,0.0303 0.1432,0.0656 0.2311,0.1043 0.3766,0.1656 0.8984,0.395 1.0307,0.6721l0.0005 0.0008c0.0489,0.1085 0.0604,0.2074 0.0332,0.2957 -0.0271,0.0883 -0.0925,0.1645 -0.1971,0.228l-0.0025 0.0015 -0.001 0.0005c-0.1892,0.0888 -0.4077,0.114 -0.6262,0.0971 -0.2579,-0.0199 -0.5175,-0.0984 -0.7307,-0.1995l-0.0005 -0.0003c-0.062,-0.0304 -0.1156,-0.0619 -0.165,-0.0908 -0.1192,-0.07 -0.2141,-0.1257 -0.3624,-0.1175l0 -0.0001c-0.061,0.0063 -0.1155,0.0638 -0.1599,0.1388 -0.0693,0.1171 -0.1115,0.274 -0.1213,0.3625l-0.0004 0.0123 0 0.0002c-0.0028,0.0853 -0.0087,0.2688 0.0594,0.3019l0.002 0.0009 0.0022 0.0015c0.1027,0.0665 0.2058,0.129 0.3081,0.1845 0.1012,0.055 0.2026,0.1036 0.3033,0.1431 0.0932,0.0287 0.1876,0.054 0.2825,0.0743l0.0001 0c0.0953,0.0205 0.191,0.0362 0.2866,0.0457l0.0037 0.0003 0.0029 0.0009c0.0163,0.0046 0.032,0.0134 0.0434,0.0311l0.0003 0.0005c0.0093,0.0149 0.0149,0.0352 0.0132,0.0633l-0.0119 0.3855 0 0.0002c-0.0044,0.1356 -0.0087,0.2712 -0.0124,0.4042l0 0.0009 0 0.0005c0.0039,0.1036 0.0068,0.1737 0.1192,0.1784 0.9471,-0.1002 1.8568,-0.5428 2.573,-1.1978 0.7092,-0.6485 1.229,-1.5056 1.4081,-2.4446l0 -0.0001c0.1523,-0.7974 0.036,-1.5355 -0.2857,-2.1355z"/>
  </g>
 </g>
</svg>
