<?xml version="1.0" encoding="UTF-8"?>
<!DOCTYPE svg PUBLIC "-//W3C//DTD SVG 1.1//EN" "http://www.w3.org/Graphics/SVG/1.1/DTD/svg11.dtd">
<!-- Creator: CorelDRAW -->
<svg xmlns="http://www.w3.org/2000/svg" xml:space="preserve" width="31.75mm" height="21.167mm" style="shape-rendering:geometricPrecision; text-rendering:geometricPrecision; image-rendering:optimizeQuality; fill-rule:evenodd; clip-rule:evenodd"
viewBox="0 0 31.75 21.167"
 xmlns:xlink="http://www.w3.org/1999/xlink">
 <defs>
  <style type="text/css">
   <![CDATA[
    .str0 {stroke:#C5C6C6;stroke-width:0.0762}
    .fil0 {fill:none}
    .fil2 {fill:#373580}
    .fil3 {fill:#FBEB22}
    .fil1 {fill:white}
   ]]>
  </style>
 </defs>
 <g id="Layer_x0020_1">
  <metadata id="CorelCorpID_0Corel-Layer"/>
  <g>
   <path class="fil0 str0" d="M1.0583 0.0002l29.6334 0c0.5843,0 1.0582,0.4739 1.0582,1.0583l0.0001 19.05c-0.0001,0.5842 -0.474,1.0581 -1.0584,1.0581l-29.6333 0.0002c-0.5843,-0.0002 -1.0582,-0.4741 -1.0582,-1.0585l-0.0001 -19.0498c0.0001,-0.5844 0.474,-1.0583 1.0584,-1.0583z"/>
   <path id="1" class="fil1" d="M1.0583 0.0002l29.6334 0c0.5843,0 1.0582,0.4739 1.0582,1.0583l0.0001 19.05c-0.0001,0.5842 -0.474,1.0581 -1.0584,1.0581l-29.6333 0.0002c-0.5843,-0.0002 -1.0582,-0.4741 -1.0582,-1.0585l-0.0001 -19.0498c0.0001,-0.5844 0.474,-1.0583 1.0584,-1.0583z"/>
  </g>
  <g>
   <path class="fil2" d="M10.9609 3.2165l9.8281 0c0.6847,0 1.255,0.2444 1.7276,0.7171 0.4891,0.4727 0.7336,1.0594 0.7336,1.744l0 9.8282c0,0.6682 -0.2445,1.255 -0.7336,1.7277 -0.4726,0.4726 -1.0429,0.717 -1.7276,0.717l-9.8281 0c-0.6846,0 -1.2714,-0.2444 -1.7441,-0.717 -0.4726,-0.4727 -0.7171,-1.0595 -0.7171,-1.7277l0 -9.8282c0,-0.6846 0.2445,-1.2713 0.7171,-1.744 0.4727,-0.4727 1.0595,-0.7171 1.7441,-0.7171l0 0z"/>
   <path class="fil3" d="M9.7221 10.5835l0 4.9223 1.1573 0 0 -4.9223 -1.1573 0zm5.5416 3.7976c0,-0.44 0.4401,-0.6357 1.3039,-0.6193l0 0.3911 -0.0162 0.2119c-0.049,0.1467 -0.1468,0.2608 -0.2772,0.3423 -0.1303,0.1141 -0.2933,0.1631 -0.4726,0.1631 -0.3586,0 -0.5379,-0.1631 -0.5379,-0.4891l0 0zm-1.5158 -2.5589l-0.7008 0 0 -1.2387 -1.1083 0 0 1.2387 -0.5216 0 0 0.8476 0.5216 0 0 1.4831c0,0.5053 0.0978,0.8802 0.3096,1.092 0.2119,0.2282 0.5216,0.3424 0.8965,0.3424 0.2445,0 0.44,-0.0327 0.6193,-0.0979l-0.0163 -0.8638c-0.0325,0.0326 -0.0977,0.0489 -0.2119,0.0489 -0.1792,0 -0.3097,-0.0652 -0.3911,-0.1956 -0.0652,-0.0978 -0.0978,-0.2608 -0.0978,-0.5052l0 -1.3039 0.7008 0 0 -0.8476zm2.7872 1.2225c-0.7498,0 -1.3203,0.114 -1.7114,0.3585 -0.4075,0.2445 -0.6194,0.6031 -0.6194,1.0757 0,0.2934 0.1141,0.5542 0.326,0.766 0.2444,0.2282 0.5541,0.3424 0.929,0.3424 0.5053,0 0.8801,-0.1631 1.1409,-0.4727l0.0326 0 0 0.3912 1.0432 0 0 -2.1678c0,-0.4889 -0.1304,-0.8638 -0.3749,-1.1409 -0.2933,-0.3096 -0.7335,-0.4727 -1.3202,-0.4727 -0.6031,0 -1.1083,0.1141 -1.4995,0.3586l0.2118 0.7172c0.326,-0.1956 0.6846,-0.2935 1.0921,-0.2935 0.5053,0 0.7498,0.1631 0.7498,0.5054l0 0.0326zm2.9337 -1.2225l-1.1409 0 0 2.1351c0,0.5704 0.1467,0.9943 0.4237,1.2713 0.2445,0.2445 0.5705,0.3587 0.978,0.3587 0.5705,0 0.9942,-0.2282 1.255,-0.6683l0.0164 0 0 0.5868 1.0105 0 0 -3.6836 -1.141 0 0 2.1515c0,0.0978 -0.0162,0.1792 -0.0326,0.2281 -0.1304,0.3097 -0.3586,0.4727 -0.7008,0.4727 -0.4401,0 -0.6683,-0.3097 -0.6683,-0.9127l0 -1.9396zm0.2934 -0.2444l0.7986 0 0.978 -0.9943 -1.0757 0 -0.7009 0.9943z"/>
  </g>
 </g>
</svg>
