<svg id="b965e201-fe72-49fa-8c42-03aff2091aaa" data-name="svg10908" xmlns="http://www.w3.org/2000/svg" width="363.9353mm" height="242.6236mm" viewBox="0 0 1031.6277 687.7518">
  <title>card_sepa</title>
  <rect width="1031.6277" height="687.7518" style="fill: #fff"/>
  <path id="ba54fd2f-3f10-46dc-9c30-a8df821082c6" data-name="path5689" d="M264.1093,268.6373H201.5345q0-15.4042-3.6115-20.67-5.5869-7.7824-30.82-7.7883-24.5076,0-32.4506,4.4862-7.9253,4.5069-7.9312,19.581,0,13.6459,7.0387,17.9626,5.0425,3.0612,13.34,3.5937l12.62.8925q40.5721,2.6863,50.675,3.7782,32.0846,3.2307,46.516,17.0583,11.3525,10.79,13.5241,28.1964a196.6625,196.6625,0,0,1,1.2614,23.5317q0,30.1837-5.76,44.19-10.451,25.7034-46.9742,32.5041-15.306,2.8827-46.8076,2.88-52.5671,0-73.2548-6.2771-25.3821-7.702-33.48-31.207-4.5159-13.0838-4.4981-43.5888h62.5748c0,2.2669.0062,4.0043.0062,5.2q0,16.2789,9.3472,20.9376a36.7429,36.7429,0,0,0,15.6422,3.4033H171.5q17.6087,0,22.4608-1.8087,8.63-3.3915,11.3345-10.9419A41.7594,41.7594,0,0,0,206.729,362.52q0-16.502-12.0366-20.0986-4.5074-1.4192-41.8575-3.9448-30.0053-2.142-41.6729-4.1352-30.7281-5.7475-40.9529-23.68-8.9873-15.2436-8.9843-46.1234,0-23.499,4.8551-37.68T81.734,205.3187q15.8237-11.3076,40.4769-13.28,20.5092-1.7938,45.5224-1.8028,39.394,0,56.137,4.5041,40.8489,10.9775,40.8459,61.4859c0,2.7608-.2023,6.89-.6069,12.4114" style="fill: #10298e"/>
  <path d="M539.2823,438.8356V188.9174h125.316q25.7838,0,39.3167,4.2065,30.9156,9.6834,41.5242,39.6619,5.48,15.7344,5.4857,47.3669,0,38.0286-6.0451,54.6614-12.0573,32.8968-49.5624,37.8412l-88.772,1.654v64.5263Z" style="fill: #10298e"/>
  <path d="M672.7675,313.2339c3.2991-1.08,6.646-6.5627,7.9728-13.1254q1.2763-6.5508,1.2733-19.4918,0-15.8594-2.5406-23.5257c-2.4157-7.17-8.4419-12.94-17.3855-13.12l-55.542-.3689v72.7312S656.6306,318.3656,672.7675,313.2339Z" style="fill: #fff"/>
  <polygon points="899.452 188.916 797.989 188.916 722.896 438.834 792.485 438.834 804.569 395.644 894.502 395.644 907.336 438.834 975.462 438.834 899.452 188.916" style="fill: #10298e"/>
  <polygon points="819.046 346.957 849.628 238.621 881.144 346.957 819.046 346.957" style="fill: #fff"/>
  <path id="aa17c677-50b3-43c7-a8b8-3af1dee2ba93" data-name="path5701" d="M446.4447,224.0763a88.4234,88.4234,0,0,1,68.7745,32.7957l14.5-31.0881a127.1042,127.1042,0,0,0-87.5761-34.646c-53.0014,0-98.3394,32.01-116.9446,77.3245H296.9245l-16.6953,35.7884h36.3715c-.2737,3.32-.4522,6.64-.4522,10.0315a120.9494,120.9494,0,0,0,.6188,12.1615h-18.278l-16.6893,35.8h44.267c19.1347,44.1659,63.9075,75.1706,116.0759,75.1706A127.4448,127.4448,0,0,0,513.03,416.0786V372.2043a88.49,88.49,0,0,1-140.7441-9.96h92.6871l16.6953-35.8H358.6484a89.7255,89.7255,0,0,1-.5235-22.193h133.89l16.6893-35.7884H369.6973a88.6455,88.6455,0,0,1,76.7473-44.3861" style="fill: #ffbe00;stroke: #10298e;stroke-miterlimit: 10;stroke-width: 3px"/>
  <path id="f154b60c-dc21-4154-b0e4-7b5600649af4" data-name="path5605" d="M60.3909,492.73l9.4454-.8586c.8587,3.4347,1.7173,5.152,3.4347,6.8694a9.75,9.75,0,0,0,6.8693,2.576,13.3011,13.3011,0,0,0,6.8694-1.7174c1.7174-1.7173,2.576-2.576,2.576-4.2933a3.1548,3.1548,0,0,0-.8586-2.5761,4.4614,4.4614,0,0,0-3.4347-1.7173c-.8587,0-3.4347-.8587-7.7281-1.7174-5.152-.8586-8.5867-2.576-11.1627-5.152a13.7889,13.7889,0,0,1-4.2933-9.4454c0-2.576.8586-4.2933,1.7173-6.8693,1.7173-3.4347,3.4347-5.1521,6.0107-6.0107A30.8676,30.8676,0,0,1,79.2817,460.1,21.8488,21.8488,0,0,1,93.02,464.3937c3.4347,2.576,4.2934,6.0107,5.152,10.304H88.7271a7.3389,7.3389,0,0,0-2.5761-5.152,12.4108,12.4108,0,0,0-6.0107-1.7173,16.1756,16.1756,0,0,0-6.8693,1.7173c-.8587.8587-1.7174,1.7174-1.7174,2.576s.8587,1.7174,1.7174,2.576,4.2933,1.7174,8.5867,3.4347a47.0649,47.0649,0,0,1,10.304,3.4347,7.7418,7.7418,0,0,1,5.1521,5.1521,17.1469,17.1469,0,0,1,1.7173,7.728,13.85,13.85,0,0,1-2.576,7.7281c-1.7174,2.576-3.4347,4.2934-6.8694,5.152a32.0247,32.0247,0,0,1-10.304,1.7174,21.8491,21.8491,0,0,1-13.7388-4.2934c-2.576-2.5761-4.2933-6.8694-5.152-12.0215" style="fill: #10298e"/>
  <path id="b2b22141-6b6f-4bd3-bdb4-73a216c8b845" data-name="path5607" d="M109.3352,460.959h9.4453v8.5867h-9.4453Zm0,12.88h9.4453v34.3469h-9.4453Z" style="fill: #10298e"/>
  <path id="a3dc6626-8124-4e82-9b87-48ca1a547f4b" data-name="path5611" d="M161.7141,508.1859h-9.4454V490.1538c0-3.4347,0-6.0107-.8587-6.8693,0-.8587-.8586-1.7174-1.7173-2.576s-1.7174-.8587-3.4347-.8587a6.5586,6.5586,0,0,0-4.2933,1.7173,11.8548,11.8548,0,0,0-2.5761,3.4347c-.8586,1.7174-.8586,4.2934-.8586,7.7281V508.186h-9.4454V473.8391h8.5867v5.152c3.4347-4.2934,6.8694-6.0107,11.1627-6.0107,1.7174,0,4.2934,0,5.1521.8586a11.8527,11.8527,0,0,1,3.4346,2.5761,6.5094,6.5094,0,0,1,1.7174,3.4347c0,1.7173.8587,3.4347.8587,6.0107v22.3254Z" style="fill: #10298e"/>
  <path id="b3131c6d-022e-4d9c-986c-1fd2b96614b1" data-name="path5615" d="M172.0181,510.762l10.3041.8586c0,.8587.8587,1.7174.8587,2.576.8587.8587,2.576.8587,4.2933.8587,2.576,0,4.2934,0,5.1521-.8587s1.7173-.8586,1.7173-2.576v-9.4454c-2.576,3.4347-6.0107,6.0107-10.304,6.0107a12.5135,12.5135,0,0,1-11.1628-6.0107c-1.7173-3.4347-3.4346-6.8693-3.4346-12.0214,0-6.0107,1.7173-10.3041,4.2933-12.88,2.576-3.4347,6.0107-4.2933,10.3041-4.2933s7.728,1.7173,10.304,6.0107V473.839H202.93v30.9122c0,4.2934,0,6.8694-.8586,9.4454l-2.576,5.152a13.9809,13.9809,0,0,1-5.1521,2.5761c-1.7174.8587-4.2934.8587-7.7281.8587-6.0107,0-10.304-.8587-12.88-3.4347-2.576-1.7174-3.4347-4.2934-3.4347-7.7281Zm7.7281-20.6082a17.1474,17.1474,0,0,0,1.7173,7.7281,7.4217,7.4217,0,0,0,5.1521,2.576,7.7952,7.7952,0,0,0,6.0107-2.576q2.576-2.5759,2.576-7.7281t-2.576-7.728q-1.288-2.5761-5.1521-2.576t-5.152,2.576q-2.576,2.576-2.576,7.728" style="fill: #10298e"/>
  <path id="faecb8f2-a495-4293-b7ab-187964996e8c" data-name="path5617" d="M215.81,460.959h9.4453v48.0856H215.81Z" style="fill: #10298e"/>
  <path id="f12a300f-8101-49cf-a992-8f6cbf28b60f" data-name="path5621" d="M256.1679,497.0232l9.4454,1.7174c-.8587,3.4347-3.4347,6.0107-5.152,7.728a17.3094,17.3094,0,0,1-9.4454,2.576c-6.0107,0-10.3041-1.7173-13.7388-6.0107-2.576-3.4347-3.4347-6.8693-3.4347-12.0214a21.8486,21.8486,0,0,1,4.2934-13.7387,13.8455,13.8455,0,0,1,11.1627-5.1521c5.152,0,9.4454,1.7174,12.0214,5.1521s4.2934,8.5867,4.2934,15.456H242.4291c0,2.5761.8587,5.1521,2.576,6.0108a7.4221,7.4221,0,0,0,5.1521,2.576c1.7173,0,2.576,0,3.4347-.8587,1.7173,0,1.7173-1.7173,2.576-3.4347m.8587-8.5867a12.41,12.41,0,0,0-1.7174-6.0107c-1.7173-1.7174-2.576-1.7174-5.152-1.7174a7.4217,7.4217,0,0,0-5.152,2.576c-1.7174,1.7174-1.7174,3.4347-1.7174,6.0107l13.7388-.8586Z" style="fill: #10298e"/>
  <path id="a616a733-ba60-4593-bb16-59459c8db8a3" data-name="path5625" d="M295.6667,508.1859V460.1h35.2055v7.7281h-25.76v10.304h24.0428v7.7281H305.1121v12.88h26.6188v7.7281H295.6667Z" style="fill: #10298e"/>
  <path id="ef723781-d43e-4b34-bc0c-061ba7100ed2" data-name="path5629" d="M365.2191,508.1859v-5.152a8.7939,8.7939,0,0,1-5.152,4.2934c-2.576.8586-4.2934,1.7173-6.8694,1.7173a12.41,12.41,0,0,1-6.0107-1.7173,10.3469,10.3469,0,0,1-4.2933-4.2934c-.8587-1.7173-.8587-4.2933-.8587-7.728V472.98H351.48v16.3148c0,5.152,0,7.728.8586,8.5867,0,.8587.8587,1.7174,1.7174,2.576s1.7173.8587,3.4347.8587a7.7406,7.7406,0,0,0,4.2933-.8587c1.7174-.8586,1.7174-1.7173,2.576-3.4347.8587-.8586.8587-4.2934.8587-9.4454V472.98h9.4454v34.3469l-9.4454.8586Z" style="fill: #10298e"/>
  <path id="fef090f7-c470-441d-806c-5d0de2281d18" data-name="path5633" d="M394.4139,508.1859h-9.4454V473.839h8.5868v5.1521c1.7173-2.576,2.576-3.4347,4.2933-4.2934.8587-.8587,2.576-.8587,4.2934-.8587a15.9194,15.9194,0,0,1,6.0107,1.7174l-2.576,7.7281c-1.7174-.8587-2.576-1.7174-4.2934-1.7174-.8587,0-2.576,0-3.4347.8587a4.4608,4.4608,0,0,0-1.7173,3.4347c-.8587,1.7173-.8587,6.0107-.8587,12.0214V508.186Z" style="fill: #10298e"/>
  <path id="af2e909b-3b65-4e38-a040-f221da37b037" data-name="path5637" d="M410.7287,491.0125a14.5057,14.5057,0,0,1,2.576-8.5867c1.7173-2.576,3.4347-5.152,6.0107-6.8694a18.1382,18.1382,0,1,1,9.4453,33.4882c-3.4346,0-6.0107-.8587-9.4453-2.576-2.576-1.7174-5.152-3.4347-6.8694-6.0107a30.8677,30.8677,0,0,1-1.7173-9.4454m9.4453,0q0,5.1521,2.576,7.7281a8.3006,8.3006,0,0,0,12.0215,0q2.576-2.5761,2.576-7.7281t-2.576-7.7281a8.3006,8.3006,0,0,0-12.0215,0q-2.576,2.5761-2.576,7.7281" style="fill: #10298e"/>
  <path id="ebc61a2a-9c35-44e2-894c-73e2ae03435f" data-name="path5641" d="M476.8463,508.1859V460.1h15.4561c6.0107,0,9.4454,0,11.1627.8587a18.6967,18.6967,0,0,1,6.8694,4.2933c1.7173,2.576,2.576,5.152,2.576,9.4454a25.0723,25.0723,0,0,1-1.7174,7.7281,10.3466,10.3466,0,0,1-4.2933,4.2933l-5.152,2.576c-2.576.8587-6.0107.8587-10.3041.8587H485.433v18.0321Zm9.4454-39.4989v13.7388h5.152c3.4347,0,6.0107,0,7.7281-.8587s2.576-.8586,3.4347-2.576c.8586-.8587.8586-2.576.8586-3.4347a5.8692,5.8692,0,0,0-6.0107-6.0107h-6.8693l-4.2934-.8587Z" style="fill: #10298e"/>
  <path id="a72805ee-2726-49bb-94d6-7a30117bc629" data-name="path5645" d="M530.084,484.1431l-8.5868-1.7173a12.5044,12.5044,0,0,1,5.1521-7.7281q3.864-2.576,10.304-2.576a26.5071,26.5071,0,0,1,9.4454,1.7173,18.73,18.73,0,0,1,4.2933,3.4348c.8587,1.7173.8587,4.2933.8587,8.5867v10.3041c0,3.4347,0,5.152.8587,6.8693,0,1.7174.8586,2.576,1.7173,4.2934h-9.4454c0-.8587-.8586-1.7174-.8586-2.576v-.8587a17.9639,17.9639,0,0,1-5.152,3.4347c-1.7174.8587-3.4347.8587-6.0107.8587a14.507,14.507,0,0,1-8.5868-2.576,10.8844,10.8844,0,0,1-3.4346-7.7281,12.2038,12.2038,0,0,1,1.7173-5.152c.8587-1.7174,2.576-2.576,4.2934-3.4347a16.1756,16.1756,0,0,1,6.8693-1.7174,34.7945,34.7945,0,0,0,8.5867-2.576v-.8586c0-1.7174,0-3.4347-1.7173-3.4347-.8587-.8587-2.576-.8587-5.152-.8587-1.7174,0-2.576,0-3.4347.8586s-.8587,1.7174-1.7173,3.4347m12.0213,7.7281a17.8,17.8,0,0,0-5.152,1.7173c-2.576.8587-4.2933.8587-5.152,1.7174a4.461,4.461,0,0,0-1.7173,3.4347,6.0715,6.0715,0,0,0,5.152,5.152,12.2038,12.2038,0,0,0,5.152-1.7173,11.853,11.853,0,0,0,2.576-3.4347v-6.8694Z" style="fill: #10298e"/>
  <path id="b98bb289-f487-4713-ad99-4f0e28efe0c4" data-name="path5649" d="M558.42,473.839h9.4453l8.5867,24.9016L584.18,473.839h9.4454l-12.0215,33.4883-2.576,6.0107a18.7694,18.7694,0,0,1-2.576,4.2934l-2.5761,2.576c-.8586.8586-1.7173.8586-3.4347,1.7173-1.7173,0-2.576.8587-4.2933.8587a10.89,10.89,0,0,1-5.152-.8587l-.8587-6.8693h4.2934a12.2041,12.2041,0,0,0,5.152-1.7174,13.982,13.982,0,0,0,2.576-5.152Z" style="fill: #10298e"/>
  <path id="eaefc07a-0fd1-47a0-9e99-f50d3f3bf941" data-name="path5653" d="M600.4949,473.839h8.5868v5.1521c3.4347-3.4347,6.8693-5.1521,11.1627-5.1521a12.41,12.41,0,0,1,6.0107,1.7174c1.7173.8587,2.576,2.576,4.2933,4.2934a22.7655,22.7655,0,0,1,5.152-4.2934,12.41,12.41,0,0,1,6.0107-1.7174c2.5761,0,4.2934.8587,6.8694,1.7174a10.3477,10.3477,0,0,1,4.2934,4.2934c.8586,1.7173.8586,4.2933.8586,6.8693v22.3255H642.57V488.4365c0-3.4347,0-6.0107-.8586-6.8694-.8587-1.7173-2.5761-1.7173-4.2934-1.7173-.8586,0-2.576,0-3.4347.8586a11.8565,11.8565,0,0,0-2.576,3.4347c-.8587,1.7174-.8587,4.2934-.8587,6.8694v16.3148h-9.4453V488.4365c0-3.4347,0-5.152-.8587-6.8694,0-.8586-.8587-1.7173-1.7173-2.576.8586.8587,0,.8587-1.7173.8587s-2.5761,0-3.4347.8586a11.8566,11.8566,0,0,0-2.5761,3.4347c-.8586,1.7174-.8586,3.4347-.8586,6.8694v17.1734H600.495Z" style="fill: #10298e"/>
  <path id="bb287423-93a2-447b-8aea-5e4d2500beb8" data-name="path5657" d="M682.9273,497.0232l9.4454,1.7174c-.8586,3.4347-3.4347,6.0107-5.152,7.728a17.3089,17.3089,0,0,1-9.4454,2.576c-6.0106,0-10.304-1.7173-13.7387-6.0107-2.576-3.4347-3.4347-6.8693-3.4347-12.0214a21.848,21.848,0,0,1,4.2934-13.7387,13.8455,13.8455,0,0,1,11.1627-5.1521c5.152,0,9.4454,1.7174,12.0214,5.1521s4.2934,8.5867,4.2934,15.456H669.1887c0,2.5761.8586,5.1521,2.576,6.0108a7.4219,7.4219,0,0,0,5.152,2.576c1.7174,0,2.5761,0,3.4347-.8587,1.7173,0,1.7173-1.7173,2.5759-3.4347m.8588-8.5867a12.4112,12.4112,0,0,0-1.7173-6.0107,6.44,6.44,0,0,0-10.3041,0c-1.7174,1.7173-1.7174,3.4347-1.7174,6.0107Z" style="fill: #10298e"/>
  <path id="a648894a-4411-4c1e-93e9-55f15a9bdbea" data-name="path5661" d="M733.5889,508.1859h-9.4453V490.1538c0-3.4347,0-6.0107-.8587-6.8693,0-.8587-.8586-1.7174-1.7173-2.576-.8587,0-1.7173-.8587-2.576-.8587a6.56,6.56,0,0,0-4.2934,1.7173,11.8565,11.8565,0,0,0-2.576,3.4347c-.8587.8587-.8587,3.4347-.8587,7.728v15.4561h-9.4454V473.839h8.5868v5.1521c3.4347-4.2934,6.8694-6.0107,11.1627-6.0107,1.7173,0,4.2934,0,5.152.8586a11.8551,11.8551,0,0,1,3.4347,2.576,6.51,6.51,0,0,1,1.7173,3.4347c0,1.7174.8587,3.4347.8587,6.0107l.8586,22.3255Z" style="fill: #10298e"/>
  <path id="a5fadf4f-80c4-4968-86c4-495a6da39e49" data-name="path5665" d="M761.0665,473.839v7.7281h-6.8694v18.8908l.8586.8586a2.998,2.998,0,0,0,1.7173.8587,6.4906,6.4906,0,0,0,3.4347-.8587l.8587,6.8694a16.176,16.176,0,0,1-6.8694,1.7174c-1.7173,0-3.4347,0-4.2934-.8587-1.7173-.8587-2.576-.8587-2.576-2.576a6.51,6.51,0,0,1-1.7172-3.4347V480.7085H741.317V472.98H745.61V466.111l9.4453-5.152V472.98l6.0108.8586Z" style="fill: #10298e"/>
  <path id="ac8a8256-8c9a-4a4a-b9ca-8a2734d20eaf" data-name="path5669" d="M766.2185,498.7406l9.4453-1.7174a4.7221,4.7221,0,0,0,2.5761,4.2934,8.5868,8.5868,0,0,0,10.304,0,3.1545,3.1545,0,0,0,.8587-2.576c0-.8587,0-.8587-.8587-1.7174s-1.7173-.8586-3.4347-.8586c-7.728-1.7174-12.0214-3.4348-13.7387-4.2934a9.0176,9.0176,0,0,1-4.2934-7.7281,10.489,10.489,0,0,1,3.4347-7.728,19.1175,19.1175,0,0,1,11.1628-3.4347q7.728,0,10.304,2.576c2.576,1.7173,4.2934,3.4347,5.152,6.8693l-8.5867,1.7174a4.4613,4.4613,0,0,0-1.7173-3.4347,10.892,10.892,0,0,0-5.1521-.8586c-2.576,0-4.2933,0-5.152.8586s-.8587.8587-.8587,1.7174,0,.8586.8587,1.7173,3.4347,1.7174,8.5867,2.576,8.5867,2.576,10.304,4.2934a9.75,9.75,0,0,1,2.5761,6.8694c0,3.4347-1.7173,6.0107-4.2934,8.5867s-6.8694,3.4347-12.0214,3.4347c-4.2933,0-8.5867-.8587-11.1627-2.576a26.8577,26.8577,0,0,1-4.2933-8.5867" style="fill: #10298e"/>
  <path id="ac0d2fee-5a3f-4e0d-84a2-11227f1095ef" data-name="path5673" d="M869.259,508.1859H858.955l-4.2935-11.1627H835.7708l-4.2933,11.1627H821.1734L840.0642,460.1h10.304Zm-17.1734-18.8908-6.8694-18.0321-6.8694,18.0321Z" style="fill: #10298e"/>
  <path id="a4134b6a-2ddc-4d39-98e1-c843a7ba4e8c" data-name="path5677" d="M885.5737,508.1859h-9.4453V473.839h8.5867v5.1521c1.7173-2.576,2.576-3.4347,4.2933-4.2934.8587-.8587,2.5761-.8587,4.2934-.8587a15.9189,15.9189,0,0,1,6.0107,1.7174l-2.5761,7.7281c-1.7173-.8587-2.576-1.7174-4.2933-1.7174-.8587,0-2.5761,0-3.4347.8587a4.4608,4.4608,0,0,0-1.7173,3.4347c-.8587,1.7173-.8587,6.0107-.8587,12.0214l-.8587,10.304Z" style="fill: #10298e"/>
  <path id="b507b42d-5270-4dec-8b5b-b0dbbc772986" data-name="path5681" d="M925.0726,497.0232l9.4454,1.7174c-.8587,3.4347-3.4347,6.0107-5.152,7.728a17.3092,17.3092,0,0,1-9.4454,2.576c-6.0107,0-10.304-1.7173-13.7387-6.0107-2.5761-3.4347-3.4347-6.8693-3.4347-12.0214a21.8486,21.8486,0,0,1,4.2933-13.7387,13.8457,13.8457,0,0,1,11.1628-5.1521c5.152,0,9.4453,1.7174,12.0214,5.1521s4.2933,8.5867,4.2933,15.456H911.3339c0,2.5761.8587,5.1521,2.5761,6.0108a7.4219,7.4219,0,0,0,5.152,2.576c1.7173,0,2.576,0,3.4347-.8587.8585,0,1.7172-1.7173,2.5759-3.4347m0-8.5867a12.4112,12.4112,0,0,0-1.7173-6.0107c-1.7173-1.7174-2.5761-1.7174-5.152-1.7174a7.4219,7.4219,0,0,0-5.152,2.576c-1.7174,1.7174-1.7174,3.4347-1.7174,6.0107l13.7387-.8586Z" style="fill: #10298e"/>
  <path id="b3ed160e-dbc1-4035-bde0-43a51066ba31" data-name="path5685" d="M950.8327,484.1431l-8.5867-1.7173a12.5051,12.5051,0,0,1,5.152-7.7281q3.8641-2.576,10.3041-2.576a26.5065,26.5065,0,0,1,9.4453,1.7173,18.7326,18.7326,0,0,1,4.2934,3.4348c.8586,1.7173.8586,4.2933.8586,8.5867v10.3041c0,3.4347,0,5.152.8587,6.8693,0,1.7174.8587,2.576,1.7173,4.2934H965.43c0-.8587-.8586-1.7174-.8586-2.576v-.8587a17.9626,17.9626,0,0,1-5.152,3.4347c-1.7173.8587-3.4347.8587-6.0107.8587a14.5064,14.5064,0,0,1-8.5867-2.576,10.8844,10.8844,0,0,1-3.4347-7.7281,12.2052,12.2052,0,0,1,1.7173-5.152c.8587-1.7174,2.5761-2.576,4.2934-3.4347a16.1756,16.1756,0,0,1,6.8694-1.7174,34.7959,34.7959,0,0,0,8.5867-2.576v-.8586c0-1.7174,0-3.4347-1.7173-3.4347-.8587-.8587-2.5761-.8587-5.1521-.8587-1.7173,0-2.576,0-3.4347.8587a4.4611,4.4611,0,0,0-1.7173,3.4346m12.0214,7.7281a17.8,17.8,0,0,0-5.152,1.7173c-2.576.8587-4.2933.8587-5.152,1.7174a4.4613,4.4613,0,0,0-1.7173,3.4347,6.0715,6.0715,0,0,0,5.152,5.152,12.2038,12.2038,0,0,0,5.152-1.7173,11.8566,11.8566,0,0,0,2.5761-3.4347v-6.8694Z" style="fill: #10298e"/>
</svg>
