<?xml version="1.0" encoding="UTF-8"?>
<!DOCTYPE svg PUBLIC "-//W3C//DTD SVG 1.1//EN" "http://www.w3.org/Graphics/SVG/1.1/DTD/svg11.dtd">
<!-- Creator: CorelDRAW -->
<svg xmlns="http://www.w3.org/2000/svg" xml:space="preserve" width="31.75mm" height="21.167mm" style="shape-rendering:geometricPrecision; text-rendering:geometricPrecision; image-rendering:optimizeQuality; fill-rule:evenodd; clip-rule:evenodd"
viewBox="0 0 31.75 21.167"
 xmlns:xlink="http://www.w3.org/1999/xlink">
 <defs>
  <style type="text/css">
   <![CDATA[
    .str0 {stroke:#C5C6C6;stroke-width:0.0762}
    .fil0 {fill:none}
    .fil1 {fill:white}
    .fil2 {fill:#005897;fill-rule:nonzero}
   ]]>
  </style>
 </defs>
 <g id="Layer_x0020_1">
  <metadata id="CorelCorpID_0Corel-Layer"/>
  <g>
   <path class="fil0 str0" d="M1.0583 0.0002l29.6334 0c0.5843,0 1.0582,0.4739 1.0582,1.0583l0.0001 19.05c-0.0001,0.5842 -0.474,1.0581 -1.0584,1.0581l-29.6333 0.0002c-0.5843,-0.0002 -1.0582,-0.4741 -1.0582,-1.0585l-0.0001 -19.0498c0.0001,-0.5844 0.474,-1.0583 1.0584,-1.0583z"/>
   <path id="1" class="fil1" d="M1.0583 0.0002l29.6334 0c0.5843,0 1.0582,0.4739 1.0582,1.0583l0.0001 19.05c-0.0001,0.5842 -0.474,1.0581 -1.0584,1.0581l-29.6333 0.0002c-0.5843,-0.0002 -1.0582,-0.4741 -1.0582,-1.0585l-0.0001 -19.0498c0.0001,-0.5844 0.474,-1.0583 1.0584,-1.0583z"/>
  </g>
  <path class="fil2" d="M14.6993 9.8675c-0.5839,0 -0.9612,0.413 -0.9612,1.0521 0,0.6365 0.3773,1.0479 0.9612,1.0479 0.5862,0 0.965,-0.4114 0.965,-1.0479 0,-0.6391 -0.3788,-1.0521 -0.965,-1.0521zm-6.7439 -0.6387l-0.618 2.0796 -0.5197 -1.7229c-0.0975,-0.3085 -0.147,-0.3567 -0.334,-0.3567l-0.4833 0 0.8958 2.7379 0.6578 0 0.8346 -2.7379 -0.4332 0zm-4.6595 1.0733l0.1334 -0.1981c0.2836,-0.4197 0.0893,-0.8752 -0.4712,-0.8752l-1.1919 0 0 2.7387 1.151 0c1.011,0 1.317,-1.1787 0.3787,-1.6654zm-0.6909 1.2996l0 0 -0.1931 0 0 -2.0162 0.3502 0c0.1696,0 0.3169,0.1398 0.3169,0.3086 0,0.0595 -0.0109,0.1149 -0.0699,0.1982l-0.2293 0.3421c0.2394,0.0572 0.3987,0.239 0.3987,0.5785 0,0.413 -0.2468,0.5888 -0.5735,0.5888zm3.0083 -1.2996l0.1343 -0.1981c0.2826,-0.4197 0.0882,-0.8752 -0.4709,-0.8752l-1.1934 0 0 2.7387 1.1508 0c1.0121,0 1.3152,-1.1787 0.3792,-1.6654zm-0.6909 1.2996l0 0 -0.1947 0 0 -2.0162 0.3518 0c0.1694,0 0.3155,0.1398 0.3155,0.3086 0,0.0595 -0.011,0.1149 -0.069,0.1982l-0.228 0.3421c0.2386,0.0572 0.398,0.239 0.398,0.5785 0,0.413 -0.2471,0.5888 -0.5736,0.5888zm4.5068 -2.3724l-0.5233 0 -0.8377 2.7374 0.4266 0 0.1799 -0.5895 0.9951 0 0.1808 0.5895 0.7419 0 -0.8305 -2.4596c-0.0759,-0.2249 -0.1185,-0.2778 -0.3328,-0.2778zm-0.6348 1.7449l0 0 0.3744 -1.2492 0.3792 1.2492 -0.7536 0zm15.0618 -0.81c-0.0757,-0.1008 -0.1728,-0.1758 -0.2867,-0.2273 -0.114,-0.0467 -0.245,-0.0695 -0.3835,-0.0695 -0.1325,0 -0.2557,0.0246 -0.3684,0.0737 -0.1656,0.0742 -0.3053,0.2 -0.4017,0.369 -0.0952,0.1675 -0.1481,0.3753 -0.1481,0.6137 0,0.1546 0.0203,0.2982 0.0623,0.4265 0.0625,0.1908 0.1726,0.3449 0.3266,0.4509 0.1519,0.1052 0.3481,0.1621 0.5771,0.1621 0,0 0,0 0.0005,0 0.1836,0 0.3324,-0.0298 0.4538,-0.0729 0.1946,-0.0733 0.2943,-0.163 0.3424,-0.2155 -0.1328,-0.1929 -0.2081,-0.1156 -0.3614,-0.0447 -0.0897,0.0446 -0.2619,0.0821 -0.4166,0.0821 -0.1184,0 -0.221,-0.0175 -0.3063,-0.0505 -0.0649,-0.0242 -0.1213,-0.0578 -0.1696,-0.1004 -0.0713,-0.0638 -0.1283,-0.1465 -0.1649,-0.253 -0.0339,-0.0944 -0.0528,-0.2066 -0.0563,-0.3375l1.4805 0 0 -0.0465c0,-0.0006 0,-0.0057 0,-0.0125 0.0002,-0.017 0.0024,-0.0494 0.0024,-0.0804 0,-0.1631 -0.0199,-0.3047 -0.0608,-0.4273 -0.0298,-0.0909 -0.0704,-0.1705 -0.1213,-0.24zm-1.2928 0.5676l0 0c0.0131,-0.0944 0.0348,-0.1765 0.0645,-0.25 0.0534,-0.1273 0.1293,-0.2205 0.2225,-0.2821 0.0951,-0.0636 0.206,-0.0938 0.3356,-0.0938 0.0856,0 0.1647,0.0115 0.2319,0.0352 0.05,0.0186 0.0956,0.0438 0.1358,0.0785 0.0597,0.0505 0.1071,0.1175 0.1423,0.2108 0.0293,0.0815 0.0502,0.1796 0.057,0.3014l-1.1896 0zm-9.9649 -1.2742c0.0634,0 0.1206,0.0038 0.1731,0.0104 0.114,0.0146 0.2041,0.0436 0.2786,0.0812 0.0027,0.0013 0.0054,0.0025 0.0079,0.0039 0.0094,0.0049 0.0185,0.0098 0.0274,0.0149 0.0134,0.0079 0.0265,0.0156 0.0386,0.0238 0.0009,0.0005 0.0017,0.0011 0.0025,0.0017 0.0072,0.0049 0.0142,0.0099 0.0209,0.0147 0.0081,0.0058 0.0154,0.0119 0.0232,0.0178 0.021,0.0175 0.041,0.0348 0.0602,0.0508 0.0206,0.0173 0.0407,0.0327 0.0607,0.0448 0.0726,0.0445 0.1457,0.0446 0.2579,-0.0819 -0.0353,-0.0511 -0.0726,-0.095 -0.1106,-0.1336 -0.1862,-0.1895 -0.3905,-0.2427 -0.4736,-0.2679 -0.0005,-0.0002 -0.0012,-0.0003 -0.0017,-0.0005l0 0.0002c-0.0581,-0.0138 -0.1218,-0.024 -0.192,-0.0303 -0.0568,-0.0051 -0.1176,-0.0081 -0.1845,-0.0081 -0.6024,0 -1.2103,0.4256 -1.2103,1.3765 0,0.0025 0.0001,0.0049 0.0001,0.0076 0,0.0024 -0.0001,0.0049 -0.0001,0.0074 0,0.9509 0.6079,1.3765 1.2103,1.3765 0.0669,0 0.1277,-0.0028 0.1845,-0.0081 0.0702,-0.0063 0.1339,-0.0164 0.192,-0.0303l0 0.0001c0.0005,-0.0001 0.0012,-0.0002 0.0017,-0.0003 0.0831,-0.0253 0.2874,-0.0785 0.4736,-0.268 0.038,-0.0386 0.0753,-0.0825 0.1106,-0.1337 -0.1122,-0.1264 -0.1853,-0.1262 -0.2579,-0.0819 -0.02,0.0122 -0.0401,0.0275 -0.0607,0.0448 -0.0192,0.016 -0.0392,0.0332 -0.0602,0.0508 -0.0078,0.006 -0.0151,0.012 -0.0232,0.0179 -0.0067,0.0048 -0.0137,0.0098 -0.0209,0.0147 -0.0008,0.0005 -0.0016,0.0012 -0.0025,0.0018 -0.0121,0.008 -0.0252,0.0158 -0.0386,0.0237 -0.0089,0.0051 -0.018,0.0101 -0.0274,0.0149 -0.0025,0.0015 -0.0052,0.0028 -0.0079,0.0041 -0.0745,0.0373 -0.1646,0.0663 -0.2786,0.081 -0.0525,0.0067 -0.1097,0.0105 -0.1731,0.0105 -0.5666,0 -0.9185,-0.4257 -0.9185,-1.1109 0,-0.0052 0.0005,-0.0101 0.0005,-0.015 0,-0.0052 -0.0005,-0.01 -0.0005,-0.0153 0,-0.6852 0.3519,-1.1107 0.9185,-1.1107zm16.4772 0.5787c-0.0629,-0.0623 -0.1452,-0.1072 -0.2412,-0.1345 -0.093,-0.0266 -0.1999,-0.0382 -0.3152,-0.0382 -0.3934,0.0021 -0.6145,0.1159 -0.7582,0.1979 0.1061,0.2248 0.2187,0.1699 0.3641,0.1073 0.1116,-0.048 0.2403,-0.0679 0.3758,-0.0679 0.0624,0 0.1309,0.0146 0.1976,0.0283 0.0391,0.0105 0.0742,0.0251 0.1036,0.0421 0.0475,0.0298 0.0812,0.0661 0.1068,0.1137 0.0252,0.0478 0.0389,0.111 0.0389,0.1921l0 0.2934c-0.1485,-0.0329 -0.2985,-0.0477 -0.469,-0.0477 -0.1194,0 -0.2288,0.0112 -0.3304,0.0355 -0.0742,0.0183 -0.1414,0.0433 -0.206,0.0762 -0.0918,0.0506 -0.1671,0.1187 -0.2204,0.204 -0.0528,0.0874 -0.0799,0.1901 -0.0799,0.31 0,0.0974 0.0173,0.1882 0.0496,0.2652 0.051,0.1151 0.1384,0.2061 0.2469,0.2646 0.1103,0.0596 0.2395,0.0892 0.3855,0.0892 0,0 0,0 0.0005,0 0.168,0 0.3012,-0.0312 0.4153,-0.0844 0.078,-0.0381 0.1459,-0.0843 0.2079,-0.1398 0.0015,0.0269 0.0035,0.0488 0.0067,0.0693 0.003,0.0224 0.0086,0.0426 0.0187,0.0608 0.0068,0.0135 0.0156,0.0272 0.0275,0.0374 0.0179,0.0146 0.0388,0.0246 0.0597,0.0294 0.0216,0.0058 0.0462,0.0075 0.0721,0.0075l0.0996 0 0 -1.4828c0,-0.1069 -0.0176,-0.1982 -0.0513,-0.2774 -0.0254,-0.0592 -0.0606,-0.1096 -0.1052,-0.1512zm-0.1278 1.3985l0 0c-0.0722,0.0833 -0.1485,0.1546 -0.238,0.2035 -0.0942,0.0525 -0.208,0.0836 -0.36,0.0836 -0.0617,0 -0.1192,-0.007 -0.172,-0.022 -0.0379,-0.0105 -0.0715,-0.0265 -0.1022,-0.0463 -0.044,-0.0287 -0.0795,-0.0676 -0.1058,-0.1195 -0.026,-0.053 -0.0408,-0.1187 -0.0408,-0.2007 0,-0.0703 0.0143,-0.1253 0.0408,-0.1709 0.0206,-0.0349 0.0455,-0.0643 0.0778,-0.0926 0.0473,-0.039 0.1103,-0.0666 0.1867,-0.087 0.0739,-0.0193 0.1598,-0.0287 0.256,-0.0287 0.1693,0 0.3189,0.022 0.4575,0.0524l0 0.4282zm0.8674 -2.205l-0.1158 0 0 2.7377 0.2843 0 0 -2.5086c0,-0.1627 -0.0152,-0.2291 -0.1685,-0.2291zm-2.9387 2.2257l0 -1.3262 0.5246 0 0 -0.2391 -0.5246 0 0 -0.5472 -0.2844 0 0 0.5472 -0.2603 0 0 0.2391 0.2603 0 0 1.3487c0,0.3248 0.1723,0.4895 0.5121,0.4895 0.1209,0 0.2376,-0.0119 0.2994,-0.0236l0.0391 -0.0073 0 -0.2196 -0.2745 0c-0.2208,0 -0.2917,-0.0634 -0.2917,-0.2615zm-1.3811 -1.5727c-0.2777,0 -0.5519,0.0966 -0.8165,0.2876l0 -0.0208c0,-0.1519 -0.0101,-0.2442 -0.1497,-0.2442l-0.1348 0 0 2.0621 0.2845 0 0 -1.5222c0.2765,-0.2075 0.5204,-0.3083 0.7447,-0.3083 0.245,0 0.3447,0.0987 0.3447,0.341l0 1.4895 0.2844 0 0 -1.5122c0,-0.3745 -0.1927,-0.5725 -0.5573,-0.5725zm-4.106 0c-0.2777,0 -0.5518,0.0966 -0.8166,0.2876l0 -0.0208c0,-0.1519 -0.01,-0.2442 -0.1497,-0.2442l-0.1346 0 0 2.0621 0.2843 0 0 -1.5222c0.2767,-0.2075 0.5205,-0.3083 0.7448,-0.3083 0.2449,0 0.3448,0.0987 0.3448,0.341l0 1.4895 0.2843 0 0 -1.5122c0,-0.3745 -0.1926,-0.5725 -0.5573,-0.5725zm-1.759 0.0226l-0.1081 0 0 2.0621 0.2842 0 0 -1.8103c0,-0.1789 -0.0158,-0.2518 -0.1761,-0.2518zm0.0378 -0.5587c-0.0956,0 -0.1762,0.0808 -0.1762,0.1763 0,0.0988 0.0774,0.1762 0.1762,0.1762 0.0987,0 0.1761,-0.0774 0.1761,-0.1762 0,-0.0955 -0.0806,-0.1763 -0.1761,-0.1763zm-1.1409 2.1088l0 -1.3262 0.5246 0 0 -0.2391 -0.5246 0 0 -0.5472 -0.2844 0 0 0.5472 -0.2604 0 0 0.2391 0.2604 0 0 1.3487c0,0.3248 0.1723,0.4895 0.5122,0.4895 0.1208,0 0.2375,-0.0119 0.2994,-0.0236l0.039 -0.0073 0 -0.2196 -0.2744 0c-0.2208,0 -0.2918,-0.0634 -0.2918,-0.2615zm-1.3956 -1.5727c-0.2776,0 -0.5518,0.0966 -0.8165,0.2876l0 -0.0208c0,-0.1519 -0.01,-0.2442 -0.1497,-0.2442l-0.1346 0 0 2.0621 0.2843 0 0 -1.5222c0.2766,-0.2075 0.5204,-0.3083 0.7448,-0.3083 0.2449,0 0.3447,0.0987 0.3447,0.341l0 1.4895 0.2843 0 0 -1.5122c0,-0.3745 -0.1926,-0.5725 -0.5573,-0.5725zm-2.4325 1.8417l0 0c-0.4214,0 -0.6731,-0.3009 -0.6731,-0.8049 0,-0.5067 0.2517,-0.809 0.6731,-0.809 0.4238,0 0.6769,0.3023 0.6769,0.809 0,0.504 -0.2531,0.8049 -0.6769,0.8049z"/>
 </g>
</svg>
