<?xml version="1.0" encoding="UTF-8"?>
<!DOCTYPE svg PUBLIC "-//W3C//DTD SVG 1.1//EN" "http://www.w3.org/Graphics/SVG/1.1/DTD/svg11.dtd">
<!-- Creator: CorelDRAW -->
<svg xmlns="http://www.w3.org/2000/svg" xml:space="preserve" width="50mm" height="35mm" style="shape-rendering:geometricPrecision; text-rendering:geometricPrecision; image-rendering:optimizeQuality; fill-rule:evenodd; clip-rule:evenodd"
viewBox="0 0 50 35"
 xmlns:xlink="http://www.w3.org/1999/xlink">
 <defs>
  <style type="text/css">
   <![CDATA[
    .str0 {stroke:black;stroke-width:0.0762}
    .fil0 {fill:#FEFEFE;fill-rule:nonzero}
    .fil1 {fill:#010101;fill-rule:nonzero}
    .fil3 {fill:#D40172;fill-rule:nonzero}
    .fil2 {fill:white;fill-rule:nonzero}
   ]]>
  </style>
 </defs>
 <g id="Layer_x0020_1">
  <metadata id="CorelCorpID_0Corel-Layer"/>
  <path class="fil0 str0" d="M5.2445 3.3889l39.5111 0c0.7793,0 1.4111,0.6318 1.4111,1.4111l0 25.4c0,0.7793 -0.6318,1.4111 -1.4111,1.4111l-39.5111 0c-0.7793,0 -1.4112,-0.6318 -1.4112,-1.4111l0 -25.4c0,-0.7793 0.6319,-1.4111 1.4112,-1.4111z"/>
  <g id="_495534808">
   <path id="_495521800" class="fil1" d="M13.629 17.4957c0,-3.2371 -0.0001,-6.4742 0.0003,-9.7113 0,-0.1228 -0.0205,-0.1075 0.1077,-0.1075 3.8505,-0.0003 7.7009,0 11.5514,-0.0006 0.4686,0 0.937,0.0093 1.4045,0.0403 1.1529,0.0765 2.2888,0.2516 3.3947,0.595 0.9735,0.3023 1.8894,0.7244 2.7221,1.3173 1.1591,0.8255 2.0288,1.8906 2.6245,3.181 0.3501,0.7584 0.5873,1.5521 0.7363,2.3731 0.1686,0.9283 0.2262,1.8639 0.1917,2.8063 -0.0147,0.4031 -0.043,0.8051 -0.0938,1.2051 -0.1375,1.0816 -0.4098,2.1255 -0.8852,3.111 -0.5745,1.1912 -1.3918,2.1816 -2.4585,2.965 -0.8357,0.6137 -1.7581,1.0546 -2.7417,1.3728 -0.6079,0.1966 -1.2285,0.3409 -1.8585,0.4472 -0.9938,0.1675 -1.9954,0.2324 -3.0018,0.2326 -3.8646,0.0011 -7.7293,0.0004 -11.5939,0.0004 -0.0028,0 -0.0057,0 -0.0085,0 -0.1018,-0.0009 -0.0912,0.0109 -0.0912,-0.0908 -0.0001,-3.2457 -0.0001,-6.4912 -0.0001,-9.7369zm0.9247 -0.0005l0 0c0,2.9305 0,5.861 0,8.7915 0,0.0227 0.0011,0.0455 -0.0002,0.0681 -0.002,0.0341 0.015,0.0454 0.0464,0.0434 0.017,-0.0011 0.0341,-0.0002 0.0511,-0.0002 3.5496,0 7.0991,0.0002 10.6486,-0.0001 0.8356,-0.0002 1.6684,-0.0429 2.4966,-0.1596 0.5032,-0.071 1.0015,-0.1653 1.4931,-0.2937 0.8657,-0.2262 1.6938,-0.5457 2.4644,-1.0051 1.4373,-0.8567 2.4513,-2.0697 3.0525,-3.6296 0.3581,-0.9293 0.5395,-1.8962 0.6091,-2.886 0.0325,-0.4618 0.0413,-0.9243 0.025,-1.3876 -0.021,-0.5966 -0.0785,-1.1887 -0.1892,-1.7757 -0.1341,-0.7108 -0.3427,-1.3978 -0.6489,-2.0541 -0.6102,-1.3082 -1.5374,-2.3325 -2.7654,-3.087 -0.6316,-0.388 -1.306,-0.6815 -2.0116,-0.9052 -1.0635,-0.3373 -2.1569,-0.507 -3.2676,-0.5787 -0.5132,-0.0332 -1.027,-0.0365 -1.541,-0.0364 -3.4502,0.0008 -6.9004,0.0005 -10.3505,0.0005 -0.1124,0 -0.1124,0 -0.1124,0.1125 0,2.9276 0,5.8553 0,8.783z"/>
   <path id="_495521872" class="fil2" d="M14.5537 17.4952c0,-2.9277 0,-5.8554 0,-8.783 0,-0.1125 0,-0.1125 0.1124,-0.1125 3.4501,0 6.9003,0.0003 10.3505,-0.0005 0.514,-0.0001 1.0278,0.0032 1.541,0.0364 1.1107,0.0717 2.2041,0.2414 3.2676,0.5787 0.7056,0.2237 1.38,0.5172 2.0116,0.9052 1.228,0.7545 2.1552,1.7788 2.7654,3.087 0.3062,0.6563 0.5148,1.3433 0.6489,2.0541 0.1107,0.587 0.1682,1.1791 0.1892,1.7757 0.0163,0.4633 0.0075,0.9258 -0.025,1.3876 -0.0696,0.9898 -0.251,1.9567 -0.6091,2.886 -0.6012,1.5599 -1.6152,2.7729 -3.0525,3.6296 -0.7706,0.4594 -1.5987,0.7789 -2.4644,1.0051 -0.4916,0.1284 -0.9899,0.2227 -1.4931,0.2937 -0.8282,0.1167 -1.661,0.1594 -2.4966,0.1596 -3.5495,0.0003 -7.099,0.0001 -10.6486,0.0001 -0.017,0 -0.0341,-0.0009 -0.0511,0.0002 -0.0314,0.002 -0.0484,-0.0093 -0.0464,-0.0434 0.0013,-0.0226 0.0002,-0.0454 0.0002,-0.0681 0,-2.9305 0,-5.861 0,-8.7915zm6.6555 3.8125l0 0c0,1.1784 -0.0002,2.3567 0.0001,3.5351 0.0001,0.1142 -0.0156,0.1047 0.1047,0.1047 1.3345,0.0002 2.6691,-0.0004 4.0036,0.0004 0.6421,0.0004 1.2829,-0.0249 1.9213,-0.0954 0.5502,-0.0607 1.0954,-0.1521 1.6324,-0.2884 0.7434,-0.1886 1.4557,-0.4554 2.1173,-0.8482 0.6977,-0.4142 1.2901,-0.9438 1.7602,-1.6076 0.4264,-0.602 0.7202,-1.2655 0.9164,-1.9741 0.2135,-0.7704 0.307,-1.5575 0.3252,-2.355 0.0025,-0.1086 0.0079,-0.0955 -0.0949,-0.0955 -0.7694,-0.0003 -1.5389,0 -2.3084,-0.0003 -0.1032,-0.0001 -0.097,0.0129 -0.097,-0.0951 0,-0.5679 0,-1.1358 0,-1.7037 0,-0.707 -0.0001,-1.414 0.0001,-2.121 0,-0.0836 0.0006,-0.084 0.0831,-0.0841 0.2698,-0.0002 0.5396,-0.0005 0.8093,0.0002 0.1176,0.0002 0.1053,-0.0141 0.1053,0.1032 0.0002,0.9286 0.0001,1.857 0.0001,2.7855 0,0.0199 -0.0005,0.0398 0.0001,0.0597 0.002,0.0587 0.0021,0.0588 0.064,0.0608 0.017,0.0005 0.034,0.0001 0.0511,0.0001 0.3634,0 0.7269,0 1.0903,0 0.071,0 0.142,0.0008 0.213,-0.0003 0.0567,-0.001 0.058,-0.0022 0.053,-0.0572 -0.0114,-0.1244 -0.0228,-0.2487 -0.0365,-0.3728 -0.0568,-0.5146 -0.1585,-1.0201 -0.3114,-1.5148 -0.213,-0.689 -0.5224,-1.33 -0.9549,-1.9092 -0.5826,-0.7803 -1.3262,-1.364 -2.1949,-1.7939 -0.7976,-0.3947 -1.6438,-0.6352 -2.5175,-0.7867 -0.7653,-0.1328 -1.5376,-0.1958 -2.3133,-0.1996 -1.4396,-0.0073 -2.8792,-0.0033 -4.3188,-0.0037 -0.1168,-0.0001 -0.1029,-0.0124 -0.1029,0.1058 -0.0003,1.1386 -0.0002,2.2773 -0.0001,3.4159 0,0.017 0.0018,0.0343 -0.0004,0.051 -0.0057,0.0453 0.0143,0.0589 0.0579,0.058 0.1136,-0.0022 0.2272,-0.0002 0.3407,-0.0008 0.196,-0.0012 0.3918,-0.0021 0.5859,0.0315 0.5571,0.0968 0.9735,0.3875 1.2281,0.8973 0.1271,0.2545 0.1885,0.5271 0.2118,0.8099 0.03,0.3659 0.0026,0.726 -0.1079,1.0771 -0.1197,0.3801 -0.3316,0.6948 -0.6719,0.9133 -0.2877,0.1846 -0.6072,0.2629 -0.9451,0.2717 -0.1987,0.0051 -0.3975,0.0013 -0.5963,0.0022 -0.1165,0.0004 -0.1027,-0.0126 -0.1027,0.1059 -0.0003,1.1727 -0.0001,2.3454 -0.0001,3.5181zm-5.2032 0.5488l0 0c0,1.0023 -0.0001,2.0046 0.0002,3.0069 0,0.0921 -0.0102,0.0812 0.0812,0.0822 0.0029,0.0001 0.0057,0 0.0085,0 1.0932,0 2.1863,0 3.2795,0 0.017,0 0.0341,-0.0006 0.0511,0.0001 0.0271,0.001 0.0436,-0.008 0.0413,-0.0387 -0.001,-0.014 -0.0001,-0.0283 -0.0001,-0.0425 0,-1.9989 0.0001,-3.9978 0,-5.9967 0,-0.0838 0.0127,-0.0823 -0.0827,-0.082 -0.0142,0 -0.0284,0 -0.0426,0 -0.883,0 -1.766,0 -2.6491,0 -0.2101,0 -0.4202,0.0011 -0.6303,-0.0009 -0.0432,-0.0003 -0.0636,0.0103 -0.0574,0.0562 0.0026,0.0196 0.0004,0.0398 0.0004,0.0597 0,0.9852 0,1.9704 0,2.9557zm3.879 -6.1731l0 0c0.0031,-1.1858 -0.9573,-2.1554 -2.1448,-2.1544 -1.2283,0.001 -2.1544,0.996 -2.1558,2.1447 -0.0013,1.1873 0.9561,2.154 2.1419,2.1594 1.1893,0.0053 2.1557,-0.957 2.1587,-2.1497zm1.3236 -0.0032l0 0c0,0.3123 -0.0002,0.6247 0.0001,0.9369 0.0001,0.0687 0.001,0.0719 0.0523,0.0713 0.2469,-0.003 0.4941,0.0124 0.7405,-0.0112 0.2744,-0.0263 0.4657,-0.1642 0.561,-0.4268 0.0068,-0.0187 0.0142,-0.0373 0.0192,-0.0564 0.0852,-0.3335 0.0943,-0.669 0.0047,-1.0017 -0.0846,-0.3142 -0.3024,-0.49 -0.6279,-0.5062 -0.2322,-0.0115 -0.4654,-0.0047 -0.6982,-0.006 -0.0057,0 -0.0114,0.0004 -0.0171,0.0004 -0.0251,-0.0001 -0.035,0.0134 -0.0344,0.0373 0.0004,0.0199 -0.0002,0.0397 -0.0002,0.0596 0,0.3009 0,0.6019 0,0.9028z"/>
   <path id="_495521944" class="fil3" d="M21.2092 21.3077c0,-1.1727 -0.0002,-2.3454 0.0001,-3.5181 0,-0.1185 -0.0138,-0.1055 0.1027,-0.1059 0.1988,-0.0009 0.3976,0.0029 0.5963,-0.0022 0.3379,-0.0088 0.6574,-0.0871 0.9451,-0.2717 0.3403,-0.2185 0.5522,-0.5332 0.6719,-0.9133 0.1105,-0.3511 0.1379,-0.7112 0.1079,-1.0771 -0.0233,-0.2828 -0.0847,-0.5554 -0.2118,-0.8099 -0.2546,-0.5098 -0.671,-0.8005 -1.2281,-0.8973 -0.1941,-0.0336 -0.3899,-0.0327 -0.5859,-0.0315 -0.1135,0.0006 -0.2271,-0.0014 -0.3407,0.0008 -0.0436,0.0009 -0.0636,-0.0127 -0.0579,-0.058 0.0022,-0.0167 0.0004,-0.034 0.0004,-0.051 -0.0001,-1.1386 -0.0002,-2.2773 0.0001,-3.4159 0,-0.1182 -0.0139,-0.1059 0.1029,-0.1058 1.4396,0.0004 2.8792,-0.0036 4.3188,0.0037 0.7757,0.0038 1.548,0.0668 2.3133,0.1996 0.8737,0.1515 1.7199,0.392 2.5175,0.7867 0.8687,0.4299 1.6123,1.0136 2.1949,1.7939 0.4325,0.5792 0.7419,1.2202 0.9549,1.9092 0.1529,0.4947 0.2546,1.0002 0.3114,1.5148 0.0137,0.1241 0.0251,0.2484 0.0365,0.3728 0.005,0.055 0.0037,0.0562 -0.053,0.0572 -0.071,0.0011 -0.142,0.0003 -0.213,0.0003 -0.3634,0 -0.7269,0 -1.0903,0 -0.0171,0 -0.0341,0.0004 -0.0511,-0.0001 -0.0619,-0.002 -0.062,-0.0021 -0.064,-0.0608 -0.0006,-0.0199 -0.0001,-0.0398 -0.0001,-0.0597 0,-0.9285 0.0001,-1.8569 -0.0001,-2.7855 0,-0.1173 0.0123,-0.103 -0.1053,-0.1032 -0.2697,-0.0007 -0.5395,-0.0004 -0.8093,-0.0002 -0.0825,0.0001 -0.0831,0.0005 -0.0831,0.0841 -0.0002,0.707 -0.0001,1.414 -0.0001,2.121 0,0.5679 0,1.1358 0,1.7037 0,0.108 -0.0062,0.095 0.097,0.0951 0.7695,0.0003 1.539,0 2.3084,0.0003 0.1028,0 0.0974,-0.0131 0.0949,0.0955 -0.0182,0.7975 -0.1117,1.5846 -0.3252,2.355 -0.1962,0.7086 -0.49,1.3721 -0.9164,1.9741 -0.4701,0.6638 -1.0625,1.1934 -1.7602,1.6076 -0.6616,0.3928 -1.3739,0.6596 -2.1173,0.8482 -0.537,0.1363 -1.0822,0.2277 -1.6324,0.2884 -0.6384,0.0705 -1.2792,0.0958 -1.9213,0.0954 -1.3345,-0.0008 -2.6691,-0.0002 -4.0036,-0.0004 -0.1203,0 -0.1046,0.0095 -0.1047,-0.1047 -0.0003,-1.1784 -0.0001,-2.3567 -0.0001,-3.5351zm5.9509 -3.6285l0 0c0.0206,0.0028 0.0289,0.005 0.0372,0.005 0.3123,0.0002 0.6245,-0.001 0.9368,0.0015 0.0507,0.0004 0.0673,-0.0197 0.0799,-0.0644 0.0607,-0.2156 0.1245,-0.4303 0.1877,-0.6451 0.0187,-0.0635 0.0195,-0.0641 0.0873,-0.0642 0.3889,-0.0002 0.7778,-0.0003 1.1667,0.0001 0.0629,0.0001 0.0663,-0.0157 0.0912,0.0703 0.0606,0.2098 0.1228,0.4191 0.1837,0.6287 0.0262,0.0905 0.0252,0.073 0.0971,0.0731 0.2952,0.0006 0.5905,0.0004 0.8857,0.0001 0.0224,0 0.0455,0.0039 0.0674,-0.0071 0.003,-0.0262 -0.0084,-0.0498 -0.0156,-0.0738 -0.3856,-1.2811 -0.7716,-2.5622 -1.1575,-3.8433 -0.0244,-0.0805 -0.0245,-0.0807 -0.1099,-0.0807 -0.4059,-0.0001 -0.8119,-0.0008 -1.2178,0.0003 -0.1381,0.0004 -0.1082,-0.0218 -0.1477,0.1086 -0.3456,1.1428 -0.6899,2.2859 -1.0345,3.4289 -0.0457,0.1518 -0.0906,0.3037 -0.1377,0.462zm-2.9496 -1.9982l0 0c0,0.6417 0,1.2834 0.0001,1.925 0.0001,0.0764 0.0007,0.0773 0.0718,0.0774 0.7751,0.0002 1.5502,0.0002 2.3253,-0.0001 0.0691,0 0.07,-0.001 0.0702,-0.07 0.0004,-0.264 0.0001,-0.5281 0.0001,-0.7921 0,-0.1322 0,-0.1322 -0.128,-0.1322 -0.423,0 -0.8461,0.0002 -1.2691,-0.0002 -0.0696,0 -0.0704,-0.001 -0.0707,-0.0699 -0.0006,-0.1278 -0.0004,-0.2556 -0.0001,-0.3833 0.0003,-0.1108 -0.0098,-0.0981 0.1022,-0.0982 0.3805,-0.0004 0.7609,0 1.1414,-0.0004 0.068,0 0.0695,-0.0012 0.0696,-0.0624 0.0006,-0.2896 0.0006,-0.5792 0,-0.8688 0,-0.0609 -0.0015,-0.0621 -0.0604,-0.0626 -0.1136,-0.001 -0.2271,-0.0003 -0.3407,-0.0003 -0.2782,0 -0.5565,0.0001 -0.8348,-0.0001 -0.0763,-0.0001 -0.0769,-0.0007 -0.0773,-0.0714 -0.0004,-0.1107 -0.0007,-0.2214 0.0002,-0.3322 0.0005,-0.058 0.0016,-0.0592 0.0629,-0.0594 0.1561,-0.0007 0.3123,-0.0003 0.4684,-0.0003 0.2641,0 0.5281,-0.0004 0.7921,0.0004 0.0384,0.0001 0.0642,-0.003 0.0638,-0.0531 -0.0016,-0.2982 -0.0014,-0.5963 -0.0001,-0.8944 0.0001,-0.0421 -0.0164,-0.0562 -0.0557,-0.0521 -0.014,0.0015 -0.0283,0.0002 -0.0426,0.0002 -0.7324,0 -1.465,0 -2.1975,0.0001 -0.0989,0 -0.091,-0.008 -0.091,0.0925 -0.0001,0.636 -0.0001,1.2719 -0.0001,1.9079z"/>
   <path id="_495522040" class="fil1" d="M16.006 21.8565c0,-0.9853 0,-1.9705 0,-2.9557 0,-0.0199 0.0022,-0.0401 -0.0004,-0.0597 -0.0062,-0.0459 0.0142,-0.0565 0.0574,-0.0562 0.2101,0.002 0.4202,0.0009 0.6303,0.0009 0.8831,0 1.7661,0 2.6491,0 0.0142,0 0.0284,0 0.0426,0 0.0954,-0.0003 0.0827,-0.0018 0.0827,0.082 0.0001,1.9989 0,3.9978 0,5.9967 0,0.0142 -0.0009,0.0285 0.0001,0.0425 0.0023,0.0307 -0.0142,0.0397 -0.0413,0.0387 -0.017,-0.0007 -0.0341,-0.0001 -0.0511,-0.0001 -1.0932,0 -2.1863,0 -3.2795,0 -0.0028,0 -0.0056,0.0001 -0.0085,0 -0.0914,-0.001 -0.0812,0.0099 -0.0812,-0.0822 -0.0003,-1.0023 -0.0002,-2.0046 -0.0002,-3.0069z"/>
   <path id="_495522136" class="fil1" d="M19.885 15.6834c-0.003,1.1927 -0.9694,2.155 -2.1587,2.1497 -1.1858,-0.0054 -2.1432,-0.9721 -2.1419,-2.1594 0.0014,-1.1487 0.9275,-2.1437 2.1558,-2.1447 1.1875,-0.001 2.1479,0.9686 2.1448,2.1544z"/>
   <path id="_495522112" class="fil3" d="M21.2086 15.6802c0,-0.3009 0,-0.6019 0,-0.9028 0,-0.0199 0.0006,-0.0397 0.0002,-0.0596 -0.0006,-0.0239 0.0093,-0.0374 0.0344,-0.0373 0.0057,0 0.0114,-0.0004 0.0171,-0.0004 0.2328,0.0013 0.466,-0.0055 0.6982,0.006 0.3255,0.0162 0.5433,0.192 0.6279,0.5062 0.0896,0.3327 0.0805,0.6682 -0.0047,1.0017 -0.005,0.0191 -0.0124,0.0377 -0.0192,0.0564 -0.0953,0.2626 -0.2866,0.4005 -0.561,0.4268 -0.2464,0.0236 -0.4936,0.0082 -0.7405,0.0112 -0.0513,0.0006 -0.0522,-0.0026 -0.0523,-0.0713 -0.0003,-0.3122 -0.0001,-0.6246 -0.0001,-0.9369z"/>
   <path id="_495522256" class="fil2" d="M27.1601 17.6792c0.0471,-0.1583 0.092,-0.3102 0.1377,-0.462 0.3446,-1.143 0.6889,-2.2861 1.0345,-3.4289 0.0395,-0.1304 0.0096,-0.1082 0.1477,-0.1086 0.4059,-0.0011 0.8119,-0.0004 1.2178,-0.0003 0.0854,0 0.0855,0.0002 0.1099,0.0807 0.3859,1.2811 0.7719,2.5622 1.1575,3.8433 0.0072,0.024 0.0186,0.0476 0.0156,0.0738 -0.0219,0.011 -0.045,0.0071 -0.0674,0.0071 -0.2952,0.0003 -0.5905,0.0005 -0.8857,-0.0001 -0.0719,-0.0001 -0.0709,0.0174 -0.0971,-0.0731 -0.0609,-0.2096 -0.1231,-0.4189 -0.1837,-0.6287 -0.0249,-0.086 -0.0283,-0.0702 -0.0912,-0.0703 -0.3889,-0.0004 -0.7778,-0.0003 -1.1667,-0.0001 -0.0678,0.0001 -0.0686,0.0007 -0.0873,0.0642 -0.0632,0.2148 -0.127,0.4295 -0.1877,0.6451 -0.0126,0.0447 -0.0292,0.0648 -0.0799,0.0644 -0.3123,-0.0025 -0.6245,-0.0013 -0.9368,-0.0015 -0.0083,0 -0.0166,-0.0022 -0.0372,-0.005zm1.5654 -1.7713l0 0c0.2325,0 0.4658,0 0.7036,0 -0.0067,-0.0275 -0.0113,-0.0495 -0.0177,-0.071 -0.0623,-0.2149 -0.125,-0.4297 -0.1876,-0.6445 -0.0349,-0.1197 -0.0698,-0.2393 -0.1046,-0.359 -0.007,-0.0245 -0.0099,-0.0512 -0.0458,-0.0501 -0.0354,0.0011 -0.0374,0.0285 -0.0446,0.0524 -0.0032,0.0109 -0.007,0.0216 -0.0102,0.0324 -0.0929,0.3179 -0.1861,0.6358 -0.2784,0.954 -0.0078,0.0266 -0.0236,0.0524 -0.0147,0.0858z"/>
   <path id="_495522328" class="fil2" d="M24.2105 15.681c0,-0.636 0,-1.2719 0.0001,-1.9079 0,-0.1005 -0.0079,-0.0925 0.091,-0.0925 0.7325,-0.0001 1.4651,-0.0001 2.1975,-0.0001 0.0143,0 0.0286,0.0013 0.0426,-0.0002 0.0393,-0.0041 0.0558,0.01 0.0557,0.0521 -0.0013,0.2981 -0.0015,0.5962 0.0001,0.8944 0.0004,0.0501 -0.0254,0.0532 -0.0638,0.0531 -0.264,-0.0008 -0.528,-0.0004 -0.7921,-0.0004 -0.1561,0 -0.3123,-0.0004 -0.4684,0.0003 -0.0613,0.0002 -0.0624,0.0014 -0.0629,0.0594 -0.0009,0.1108 -0.0006,0.2215 -0.0002,0.3322 0.0004,0.0707 0.001,0.0713 0.0773,0.0714 0.2783,0.0002 0.5566,0.0001 0.8348,0.0001 0.1136,0 0.2271,-0.0007 0.3407,0.0003 0.0589,0.0005 0.0604,0.0017 0.0604,0.0626 0.0006,0.2896 0.0006,0.5792 0,0.8688 -0.0001,0.0612 -0.0016,0.0624 -0.0696,0.0624 -0.3805,0.0004 -0.7609,0 -1.1414,0.0004 -0.112,0.0001 -0.1019,-0.0126 -0.1022,0.0982 -0.0003,0.1277 -0.0005,0.2555 0.0001,0.3833 0.0003,0.0689 0.0011,0.0699 0.0707,0.0699 0.423,0.0004 0.8461,0.0002 1.2691,0.0002 0.128,0 0.128,0 0.128,0.1322 0,0.264 0.0003,0.5281 -0.0001,0.7921 -0.0002,0.069 -0.0011,0.07 -0.0702,0.07 -0.7751,0.0003 -1.5502,0.0003 -2.3253,0.0001 -0.0711,-0.0001 -0.0717,-0.001 -0.0718,-0.0774 -0.0001,-0.6416 -0.0001,-1.2833 -0.0001,-1.925z"/>
   <path id="_495522400" class="fil3" d="M28.7255 15.9079c-0.0089,-0.0334 0.0069,-0.0592 0.0147,-0.0858 0.0923,-0.3182 0.1855,-0.6361 0.2784,-0.954 0.0032,-0.0108 0.007,-0.0215 0.0102,-0.0324 0.0072,-0.0239 0.0092,-0.0513 0.0446,-0.0524 0.0359,-0.0011 0.0388,0.0256 0.0458,0.0501 0.0348,0.1197 0.0697,0.2393 0.1046,0.359 0.0626,0.2148 0.1253,0.4296 0.1876,0.6445 0.0064,0.0215 0.011,0.0435 0.0177,0.071 -0.2378,0 -0.4711,0 -0.7036,0z"/>
  </g>
 </g>
</svg>
