<?xml version="1.0" encoding="UTF-8"?>
<!DOCTYPE svg PUBLIC "-//W3C//DTD SVG 1.1//EN" "http://www.w3.org/Graphics/SVG/1.1/DTD/svg11.dtd">
<!-- Creator: CorelDRAW -->
<svg xmlns="http://www.w3.org/2000/svg" xml:space="preserve" width="31.75mm" height="21.167mm" style="shape-rendering:geometricPrecision; text-rendering:geometricPrecision; image-rendering:optimizeQuality; fill-rule:evenodd; clip-rule:evenodd"
viewBox="0 0 31.75 21.167"
 xmlns:xlink="http://www.w3.org/1999/xlink">
 <defs>
  <style type="text/css">
   <![CDATA[
    .str0 {stroke:#C5C6C6;stroke-width:0.0762}
    .fil0 {fill:none}
    .fil1 {fill:white}
    .fil5 {fill:#FF9222;fill-rule:nonzero}
    .fil4 {fill:#262523;fill-rule:nonzero}
    .fil2 {fill:#E31E24;fill-rule:nonzero}
    .fil3 {fill:#FEFEFE;fill-rule:nonzero}
    .fil6 {fill:#03A6D7;fill-rule:nonzero}
    .fil7 {fill:#9C03AB;fill-rule:nonzero}
    .fil8 {fill:#D80834;fill-rule:nonzero}
   ]]>
  </style>
 </defs>
 <g id="Layer_x0020_1">
  <metadata id="CorelCorpID_0Corel-Layer"/>
  <g>
   <path class="fil0 str0" d="M1.0583 0.0002l29.6334 0c0.5843,0 1.0582,0.4739 1.0582,1.0583l0.0001 19.05c-0.0001,0.5842 -0.474,1.0581 -1.0584,1.0581l-29.6333 0.0002c-0.5843,-0.0002 -1.0582,-0.4741 -1.0582,-1.0585l-0.0001 -19.0498c0.0001,-0.5844 0.474,-1.0583 1.0584,-1.0583z"/>
   <path id="1" class="fil1" d="M1.0583 0.0002l29.6334 0c0.5843,0 1.0582,0.4739 1.0582,1.0583l0.0001 19.05c-0.0001,0.5842 -0.474,1.0581 -1.0584,1.0581l-29.6333 0.0002c-0.5843,-0.0002 -1.0582,-0.4741 -1.0582,-1.0585l-0.0001 -19.0498c0.0001,-0.5844 0.474,-1.0583 1.0584,-1.0583z"/>
  </g>
  <g>
   <g id="_452464272">
    <g>
     <g>
      <polygon id="_452467200" class="fil2" points="25.1982,10.3907 27.9177,10.3907 30.336,7.9724 27.5701,5.2065 25.1982,7.5823 "/>
     </g>
     <g>
      <path id="_452467296" class="fil3" d="M25.5225 7.6848l0.1641 0 0 0.2345c0.0648,-0.0891 0.1394,-0.1559 0.2237,-0.2005 0.0843,-0.0445 0.1784,-0.0668 0.2822,-0.0668 0.1811,0 0.3361,0.0653 0.4649,0.1958 0.1288,0.1305 0.1932,0.2876 0.1932,0.4712 0,0.1875 -0.0639,0.3468 -0.1915,0.4776 -0.1276,0.1309 -0.2816,0.1964 -0.4619,0.1964 -0.1016,0 -0.1948,-0.0211 -0.2799,-0.0633 -0.0851,-0.0422 -0.162,-0.1051 -0.2307,-0.1887l0 0.6857 -0.1641 0 0 -1.7419zm0.6564 0.1254l0 0c-0.1419,0 -0.2614,0.0497 -0.3584,0.1487 -0.0971,0.0992 -0.1456,0.2225 -0.1456,0.3701 0,0.0967 0.0216,0.1838 0.0649,0.2611 0.0432,0.0772 0.1052,0.1385 0.1859,0.1837 0.0807,0.0454 0.166,0.068 0.2556,0.068 0.0881,0 0.1708,-0.0228 0.2485,-0.0685 0.0776,-0.0457 0.1393,-0.1095 0.1854,-0.1914 0.0459,-0.0819 0.0689,-0.1678 0.0689,-0.2576 0,-0.0906 -0.0228,-0.1764 -0.0684,-0.2576 -0.0455,-0.0812 -0.107,-0.1442 -0.1841,-0.1891 -0.0773,-0.0449 -0.1615,-0.0674 -0.2527,-0.0674z"/>
      <polygon id="_452467368" class="fil3" points="26.941,7.1925 27.1052,7.1925 27.1052,8.9602 26.941,8.9602 "/>
      <path id="_452467440" class="fil3" d="M27.2331 7.6848l0.1641 0 0 0.5955c0,0.1454 0.0079,0.2454 0.0235,0.3001 0.0235,0.0782 0.0683,0.1399 0.1344,0.1852 0.0661,0.0454 0.145,0.068 0.2366,0.068 0.0915,0 0.1692,-0.0221 0.233,-0.0662 0.0637,-0.0442 0.1078,-0.1022 0.1321,-0.1741 0.0164,-0.0492 0.0246,-0.1536 0.0246,-0.313l0 -0.5955 0.1677 0 0 0.626c0,0.1758 -0.0206,0.3083 -0.0616,0.3974 -0.041,0.089 -0.1028,0.1588 -0.1852,0.2092 -0.0825,0.0504 -0.1858,0.0756 -0.31,0.0756 -0.1243,0 -0.228,-0.0252 -0.3113,-0.0756 -0.0831,-0.0504 -0.1453,-0.1208 -0.1863,-0.211 -0.0411,-0.0903 -0.0616,-0.226 -0.0616,-0.4074l0 -0.6142z"/>
      <path id="_452467512" class="fil3" d="M29.1627 7.8243l-0.1054 0.109c-0.0878,-0.0851 -0.1736,-0.1278 -0.2574,-0.1278 -0.0533,0 -0.0989,0.0176 -0.1369,0.0528 -0.038,0.0352 -0.057,0.0762 -0.057,0.1231 0,0.0415 0.0156,0.0809 0.0469,0.1184 0.0314,0.0383 0.0972,0.0832 0.1974,0.1348 0.1221,0.0633 0.2051,0.1242 0.249,0.1829 0.0431,0.0594 0.0647,0.1262 0.0647,0.2004 0,0.1048 -0.0369,0.1934 -0.1105,0.2661 -0.0735,0.0727 -0.1655,0.109 -0.2758,0.109 -0.0736,0 -0.1438,-0.016 -0.2108,-0.0481 -0.0669,-0.032 -0.1223,-0.0761 -0.1661,-0.1324l0.1031 -0.1173c0.0839,0.0946 0.1728,0.1419 0.2668,0.1419 0.0658,0 0.1218,-0.0211 0.168,-0.0633 0.0462,-0.0422 0.0694,-0.0918 0.0694,-0.1489 0,-0.0468 -0.0154,-0.0886 -0.0458,-0.1254 -0.0307,-0.0359 -0.0996,-0.0812 -0.2069,-0.136 -0.115,-0.0593 -0.1933,-0.1179 -0.2349,-0.1758 -0.0415,-0.0578 -0.0622,-0.1238 -0.0622,-0.1981 0,-0.0968 0.0331,-0.1774 0.0991,-0.2415 0.0662,-0.064 0.1498,-0.0961 0.2508,-0.0961 0.1174,0 0.2356,0.0575 0.3545,0.1723z"/>
     </g>
    </g>
    <polygon id="_452467632" class="fil4" points="1.3615,7.3793 2.2405,7.3793 2.9601,9.5209 3.7344,7.3793 4.272,7.3793 5.0323,9.4966 5.7528,7.3793 6.6375,7.3793 5.3316,11.1435 4.7626,11.1435 3.9995,8.9985 3.2134,11.1435 2.6509,11.1435 "/>
    <path id="_452467608" class="fil4" d="M9.9523 9.5347l-3.0343 0c0.0438,0.2676 0.1609,0.4803 0.3512,0.6383 0.1903,0.158 0.433,0.2371 0.7283,0.2371 0.3529,0 0.6562,-0.1235 0.91,-0.3703 0,0 0.5927,-0.0009 0.9177,-0.0009 0,0.1982 -0.122,0.3746 -0.122,0.3746 -0.1984,0.2814 -0.436,0.4896 -0.7127,0.6244 -0.2768,0.135 -0.6055,0.2024 -0.986,0.2024 -0.5905,0 -1.0715,-0.1862 -1.4429,-0.5586 -0.3713,-0.3725 -0.5569,-0.8391 -0.5569,-1.3996 0,-0.5743 0.185,-1.0512 0.5553,-1.4306 0.3702,-0.3795 0.8343,-0.5692 1.3925,-0.5692 0.5928,0 1.0749,0.1897 1.4462,0.5692 0.3714,0.3794 0.5571,0.8806 0.5571,1.5033l-0.0035 0.1799zm-0.9445 -0.7439l0 0c-0.0624,-0.2098 -0.1854,-0.3806 -0.3692,-0.512 -0.1836,-0.1315 -0.3968,-0.1972 -0.6393,-0.1972 -0.2635,0 -0.4944,0.0738 -0.6932,0.2214 -0.1247,0.0923 -0.2403,0.2548 -0.3466,0.4878l2.0483 0z"/>
    <path id="_452467752" class="fil4" d="M10.807 6.1357l0 1.6587c0.1707,-0.1707 0.3552,-0.2987 0.5535,-0.384 0.1985,-0.0853 0.4106,-0.1281 0.6367,-0.1281 0.4913,0 0.9087,0.1858 1.2524,0.5571 0.3437,0.3714 0.5155,0.8477 0.5155,1.4289 0,0.5605 -0.1776,1.0293 -0.5328,1.4064 -0.3552,0.3771 -0.7761,0.5656 -1.2628,0.5656 -0.2169,0 -0.4186,-0.0385 -0.6055,-0.1158 -0.1868,-0.0772 -0.3725,-0.2036 -0.557,-0.3789l0 0.3979 -0.9376 0 0 -5.0078 0.9376 0zm0.993 2.0185l0 0c-0.2976,0 -0.5444,0.1015 -0.7404,0.3045 -0.1961,0.203 -0.2941,0.4682 -0.2941,0.7957 0,0.3345 0.098,0.605 0.2941,0.8114 0.196,0.2065 0.4428,0.3096 0.7404,0.3096 0.2883,0 0.5311,-0.1049 0.7283,-0.3148 0.1971,-0.2099 0.2957,-0.4775 0.2957,-0.8027 0,-0.3229 -0.0968,-0.5875 -0.2905,-0.7941 -0.1938,-0.2064 -0.4383,-0.3096 -0.7335,-0.3096z"/>
    <path id="_452467896" class="fil5" d="M14.7353 7.4832l0 0.405c0.1665,-0.1665 0.3465,-0.2913 0.54,-0.3746 0.1936,-0.0832 0.4006,-0.1249 0.6211,-0.1249 0.4794,0 0.8865,0.1811 1.222,0.5434 0.3352,0.3623 0.5029,0.827 0.5029,1.3941 0,0.5468 -0.1733,1.0042 -0.5198,1.3721 -0.3466,0.3679 -0.7573,0.5519 -1.2321,0.5519 -0.2115,0 -0.4084,-0.0378 -0.5907,-0.1131 -0.1822,-0.0753 -0.3634,-0.1986 -0.5434,-0.3696l0 1.6082 -0.9148 0 0 -4.8925 0.9148 0zm0.9688 0.7561l0 0c-0.2903,0 -0.5311,0.0991 -0.7224,0.297 -0.1913,0.1981 -0.287,0.4568 -0.287,0.7764 0,0.3262 0.0957,0.5901 0.287,0.7916 0.1913,0.2013 0.4321,0.302 0.7224,0.302 0.2813,0 0.518,-0.1024 0.7105,-0.3072 0.1924,-0.2047 0.2885,-0.4657 0.2885,-0.7831 0,-0.315 -0.0945,-0.5732 -0.2835,-0.7746 -0.189,-0.2014 -0.4276,-0.3021 -0.7155,-0.3021z"/>
    <path id="_452468016" class="fil5" d="M20.4452 7.4832l0.8041 0 0 3.6725 -0.8041 0 0 -0.3882c-0.1906,0.171 -0.3818,0.2943 -0.5736,0.3696 -0.1918,0.0753 -0.3997,0.1131 -0.6236,0.1131 -0.5027,0 -0.9375,-0.184 -1.3044,-0.5519 -0.3671,-0.3679 -0.5505,-0.8253 -0.5505,-1.3721 0,-0.5671 0.1775,-1.0318 0.5326,-1.3941 0.355,-0.3623 0.7862,-0.5434 1.2937,-0.5434 0.2335,0 0.4526,0.0417 0.6575,0.1249 0.2049,0.0833 0.3944,0.2081 0.5683,0.3746l0 -0.405zm-1.0268 0.7561l0 0c-0.302,0 -0.5527,0.1007 -0.7524,0.3021 -0.1998,0.2014 -0.2997,0.4596 -0.2997,0.7746 0,0.3174 0.1016,0.5784 0.3049,0.7831 0.2034,0.2048 0.4535,0.3072 0.7508,0.3072 0.3067,0 0.561,-0.1007 0.7631,-0.302 0.202,-0.2015 0.3031,-0.4654 0.3031,-0.7916 0,-0.3196 -0.1011,-0.5783 -0.3031,-0.7764 -0.2021,-0.1979 -0.4576,-0.297 -0.7667,-0.297z"/>
    <polygon id="_452468160" class="fil5" points="21.2493,7.4832 22.191,7.4832 23.1449,9.7875 24.1975,7.4832 25.1419,7.4832 22.8419,12.4992 21.8902,12.4992 22.6453,10.8816 "/>
   </g>
   <g id="_452465328">
    <path id="_456952904" class="fil6" d="M20.5983 14.9626c0.0689,0 0.125,-0.0563 0.125,-0.1257 0,-0.0693 -0.0561,-0.1259 -0.125,-0.1259 -0.069,0 -0.1248,0.0566 -0.1248,0.1259 0,0.0694 0.0558,0.1257 0.1248,0.1257z"/>
    <path id="_456952976" class="fil7" d="M30.2633 15.9479c0.0692,0 0.1252,-0.0563 0.1252,-0.1255 0,-0.0694 -0.056,-0.1261 -0.1252,-0.1261 -0.0685,0 -0.1246,0.0567 -0.1246,0.1261 0,0.0692 0.0561,0.1255 0.1246,0.1255z"/>
    <path id="_456953048" class="fil8" d="M24.3512 15.1864l0 -0.0006c-0.0004,-0.1402 -0.0489,-0.2584 -0.1372,-0.3382l-0.0063 -0.0055 -0.0018 -0.0015 -0.0002 0c-0.0827,-0.0712 -0.1953,-0.1089 -0.3288,-0.1103 -0.0004,0 -0.0018,0 -0.0031,0 -0.0011,0 -0.0021,0 -0.0035,0l-0.0009 0c-0.0042,0 -0.0066,0.0005 -0.0087,0.0005 -0.0017,0 -0.004,-0.0005 -0.0069,-0.0005l-0.0022 0.0005c-0.0011,-0.0005 -0.0022,-0.0005 -0.0041,-0.0005 0,0 -0.0002,0 -0.0004,0 0.0002,0 -0.0001,0 -0.0008,0 -0.0002,0 -0.0013,0 -0.002,0 -0.1335,0.0015 -0.2453,0.0391 -0.3286,0.1103l-0.008 0.007c-0.0876,0.0794 -0.1363,0.1973 -0.137,0.3366l-0.0004 0 0 0.0007 -0.0005 0.7217c0,0.0096 0.004,0.0192 0.0114,0.0257 0.007,0.0069 0.0171,0.0108 0.0274,0.0108l0.1282 0c0.0103,0 0.0205,-0.0039 0.0276,-0.0108 0.0073,-0.0065 0.0113,-0.0161 0.0113,-0.0257l0.0003 -0.6972c0.0004,-0.1024 0.0267,-0.1747 0.0739,-0.2225 0.0461,-0.0465 0.1154,-0.0725 0.2115,-0.0746 0.0953,0.0021 0.1648,0.0281 0.2102,0.0746 0.0474,0.0478 0.0734,0.1201 0.0742,0.2226l-0.0001 0.6971c0,0.0096 0.0045,0.0192 0.0113,0.0257 0.0071,0.0069 0.0174,0.0108 0.0276,0.0108l0.1286 0c0.0097,0 0.0198,-0.0039 0.0271,-0.0108 0.0074,-0.0065 0.0116,-0.0161 0.0116,-0.0257l-0.0007 -0.7202z"/>
    <path id="_456953120" class="fil8" d="M28.8298 15.1864l0 -0.0006c-0.0005,-0.1402 -0.0491,-0.2584 -0.1373,-0.3382l-0.0065 -0.0055 -0.0014 -0.0015c-0.0831,-0.0712 -0.1958,-0.1089 -0.329,-0.1103 -0.0006,0 -0.0017,0 -0.003,0 -0.0014,0 -0.0025,0 -0.0035,0l-0.001 0c-0.0042,0 -0.0068,0.0005 -0.0089,0.0005 -0.0015,0 -0.0039,-0.0005 -0.0068,-0.0005l-0.0022 0.0005c-0.0007,-0.0005 -0.0024,-0.0005 -0.0041,-0.0005 0,0 0,0 -0.0003,0 0.0003,0 -0.0004,0 -0.0008,0 -0.0005,0 -0.0013,0 -0.0025,0 -0.1332,0.0015 -0.2452,0.0391 -0.3281,0.1103l-0.0004 0 -0.0074 0.007c-0.0878,0.0794 -0.1365,0.1973 -0.1372,0.3366l-0.0003 0.0007 -0.0007 0.7217c0,0.0096 0.0039,0.0192 0.0113,0.0257 0.0073,0.0069 0.0171,0.0108 0.0274,0.0108l0.1283 0c0.0104,0 0.0202,-0.0039 0.0276,-0.0108 0.0074,-0.0065 0.0113,-0.0161 0.0113,-0.0257l0.0006 -0.6972c0.0003,-0.1024 0.0268,-0.1747 0.074,-0.2225 0.0452,-0.0465 0.1151,-0.0725 0.211,-0.0746 0.0954,0.0021 0.1649,0.0281 0.2105,0.0746 0.0471,0.0478 0.0731,0.1201 0.0742,0.2226l0 0.6971c0,0.0096 0.004,0.0192 0.0109,0.0257 0.0074,0.0069 0.0176,0.0108 0.0277,0.0108l0.1288 0c0.0098,0 0.0198,-0.0039 0.0272,-0.0108 0.0073,-0.0065 0.0111,-0.0161 0.0111,-0.0257l-0.0005 -0.7202z"/>
    <path id="_456953192" class="fil8" d="M26.4664 14.8535c-0.001,-0.0008 -0.0016,-0.0016 -0.0023,-0.0025 -0.0734,-0.0674 -0.1903,-0.1091 -0.3258,-0.1095 -0.0019,0 -0.0046,0 -0.0075,0 -0.111,0 -0.2213,0.0231 -0.3169,0.105l0 -0.0718 0.0002 0 0 -0.3635c0,-0.0096 -0.004,-0.0191 -0.0113,-0.0258 -0.0071,-0.0071 -0.0173,-0.0108 -0.0272,-0.0108l-0.1267 0c-0.0102,0 -0.02,0.0037 -0.0274,0.0108 -0.0073,0.0067 -0.0113,0.0162 -0.0113,0.0258l0 0.3635 0 0.7721 0 0.3617c0,0.0097 0.004,0.0189 0.0113,0.0258 0.0071,0.0068 0.0172,0.0107 0.0274,0.0107l0.1267 0c0.0099,0 0.0201,-0.0039 0.0272,-0.0107 0.0073,-0.0069 0.0113,-0.0161 0.0113,-0.0258l0 -0.0747c0.0846,0.0943 0.2058,0.1268 0.3167,0.1268l0.008 0c0.1354,-0.0003 0.2524,-0.0422 0.3253,-0.1093 0.1361,-0.1296 0.1677,-0.3272 0.1678,-0.5112 -0.0001,-0.1829 -0.0317,-0.3581 -0.1655,-0.4866zm-0.0383 0.4866l0 0c0,0 0,-0.0004 0,0.0026l0 0.0003c0,0.0002 0,0.0013 0,0.0025 -0.0003,0.115 -0.0123,0.2274 -0.0559,0.3077 -0.0434,0.0772 -0.1122,0.1287 -0.2464,0.1311 -0.0011,-0.0001 -0.0024,-0.0001 -0.0048,0l-0.0025 0c-0.1351,-0.0014 -0.2047,-0.0533 -0.2483,-0.1312 -0.0441,-0.0806 -0.0563,-0.1939 -0.0563,-0.3095l0 -0.007c0,-0.1148 0.0122,-0.2072 0.0563,-0.2874 0.0436,-0.0784 0.1132,-0.1298 0.2483,-0.131 0.0011,0 0.0011,0 0.0011,0 0.0004,0 0.0014,0 0.002,0l0.0021 0c0.1351,0.0012 0.205,0.0526 0.2485,0.1311 0.0439,0.0801 0.0559,0.1725 0.0559,0.2873l0 0.0035z"/>
    <path id="_456953264" class="fil8" d="M23.2265 15.1326c0,-0.0002 0,-0.0002 0,-0.0007 0,-0.1223 -0.0404,-0.2272 -0.1258,-0.2973 -0.0859,-0.0706 -0.2091,-0.1038 -0.3684,-0.1038l-0.0053 0c-0.0007,0 -0.0018,0 -0.0022,0 -0.1669,-0.0005 -0.2994,0.0358 -0.4002,0.1429l-0.0003 -0.0004 -0.0059 0.0072c-0.0077,0.0083 -0.0149,0.0168 -0.0222,0.0261 0,0.0002 0,0.0002 -0.0006,0.0004l-0.0097 0.0124c-0.0063,0.0071 -0.0097,0.0167 -0.008,0.0269 0.0009,0.0099 0.0058,0.0194 0.0137,0.026l0.0058 0.005c0.002,0.0026 0.0045,0.0052 0.0077,0.0076l0.0222 0.0185 0.06 0.0519c0.0077,0.0065 0.0177,0.0101 0.0276,0.0096 0.0099,-0.0004 0.0191,-0.0044 0.0252,-0.0121l0.0384 -0.0456 0 -0.0001c0.0241,-0.026 0.0487,-0.0447 0.0786,-0.0575 0.042,-0.0187 0.0963,-0.0272 0.1736,-0.0279l0.0013 -0.0002 0.0024 0c0.1114,0.0003 0.1804,0.0229 0.2199,0.0575 0.0394,0.0343 0.0596,0.0857 0.0599,0.1661 0,0.0005 0,0.0018 0,0.0038l0 0.0755 -0.3295 0c-0.133,0.0004 -0.2442,0.0304 -0.3242,0.093 -0.0799,0.0612 -0.1244,0.1554 -0.1244,0.2651l0 0.004c0,0.0917 0.0347,0.1813 0.0972,0.2437 0.0843,0.0831 0.1967,0.1133 0.3666,0.1133 0.0004,0 0.0011,0 0.0017,0l0.0858 0c0.1555,0 0.2673,-0.0383 0.3393,-0.1158 0.0711,-0.0774 0.0998,-0.1894 0.0998,-0.3288l0 -0.3641 0 -0.0022zm-0.2123 0.3721l0 0c0,0.0966 -0.0214,0.1499 -0.0499,0.1749 -0.0683,0.063 -0.1531,0.0727 -0.2565,0.0729 0,0 -0.0001,0 -0.001,0 -0.0004,0 -0.0011,0 -0.0021,0 -0.0994,0.0001 -0.1644,-0.0173 -0.2015,-0.0442 -0.035,-0.0253 -0.0534,-0.0616 -0.0542,-0.1243l0 -0.0027c0.0004,-0.0621 0.0196,-0.1009 0.0551,-0.1284 0.0373,-0.0283 0.0997,-0.0466 0.1935,-0.0466 0.0002,0 0.0007,0 0.0009,0l0.3157 0 0 0.0984z"/>
    <path id="_456953336" class="fil8" d="M27.7066 15.1342c0,-0.0002 0,-0.0003 0,-0.0006 0,-0.1224 -0.0404,-0.2272 -0.1261,-0.2973 -0.0857,-0.0704 -0.2094,-0.1037 -0.3681,-0.1037l-0.0057 0c-0.0004,0 -0.0011,0 -0.0019,0 -0.1669,-0.0005 -0.2993,0.0359 -0.4003,0.1432l-0.0003 -0.0004 -0.0059 0.0067c-0.0075,0.0084 -0.0146,0.017 -0.0222,0.0263 -0.0001,0.0002 -0.0001,0.0004 -0.0001,0.0004l-0.0102 0.0123c-0.0064,0.0073 -0.0095,0.0171 -0.0082,0.027 0.0013,0.0098 0.0065,0.0193 0.0139,0.0261l0.0058 0.005c0.0022,0.0026 0.0046,0.0053 0.0076,0.0073l0.0226 0.0185 0.0601 0.0519c0.0076,0.0067 0.0175,0.0104 0.0273,0.0099 0.0096,-0.0004 0.0192,-0.005 0.0252,-0.0121l0.0382 -0.0458c0.0243,-0.0262 0.0488,-0.0444 0.0788,-0.0575 0.042,-0.0187 0.0961,-0.0272 0.174,-0.0277l0.0007 0 0.0027 -0.0003c0.1115,0.0003 0.1801,0.0229 0.2198,0.0574 0.0395,0.0342 0.0594,0.0856 0.0597,0.166 0,0.0004 0,0.0019 0.0004,0.0036l0 0.0756 -0.3297 0c-0.1331,0.0002 -0.244,0.0303 -0.3243,0.093 -0.0798,0.0612 -0.1242,0.1555 -0.1242,0.265l0 0.004c0.0001,0.0916 0.0343,0.1812 0.0971,0.2434 0.0841,0.0831 0.1966,0.113 0.3664,0.113 0.0007,0 0.0011,0 0.002,0l0.0859 0c0.1557,0.0004 0.2668,-0.0381 0.3388,-0.1154 0.0718,-0.0772 0.1002,-0.1893 0.1002,-0.3286l0 -0.3637 0 -0.0025zm-0.7776 0.4513l0 0 0 -0.0029c0.0008,-0.0621 0.0196,-0.1008 0.0549,-0.128 0.0372,-0.0287 0.1,-0.0467 0.1938,-0.0467 0.0002,0 0.0006,0 0.001,0l0.3157 0 0 0.0982c-0.0004,0.0965 -0.0218,0.1498 -0.0502,0.1748 -0.0684,0.0632 -0.1531,0.0726 -0.2563,0.0727 0,0 -0.0005,0 -0.0008,0 -0.0007,0 -0.0013,0 -0.0023,0 -0.0998,0.0002 -0.1646,-0.0168 -0.2016,-0.0437 -0.0353,-0.0254 -0.0534,-0.0618 -0.0542,-0.1244z"/>
    <path id="_456953408" class="fil8" d="M21.2469 14.735l-0.217 0 -0.0001 -0.22 0 -0.1067c0,-0.0189 -0.0167,-0.0346 -0.0373,-0.0346l-0.1308 0c-0.0096,0 -0.0194,0.0037 -0.0263,0.0103 -0.0071,0.0065 -0.011,0.0154 -0.011,0.0243l0 0.1964 0 1.0313c0,0.0837 0.0244,0.159 0.0773,0.2161 0.0505,0.0554 0.1323,0.0899 0.2272,0.0899l0.0004 0 0.0628 0 0 -0.0007 0.0548 0c0.0095,0 0.0189,-0.0041 0.0259,-0.0113 0.0066,-0.0072 0.0102,-0.0174 0.0102,-0.0278l0 -0.1274c0,-0.01 -0.0036,-0.0201 -0.0102,-0.0275 -0.007,-0.0075 -0.0164,-0.0115 -0.0259,-0.0115l-0.1008 0c-0.0205,-0.0006 -0.0367,-0.0033 -0.0511,-0.0083 -0.0094,-0.0031 -0.0146,-0.0068 -0.0198,-0.0101 -0.0061,-0.004 -0.0089,-0.0059 -0.0149,-0.0117 -0.0194,-0.0204 -0.0301,-0.0526 -0.0304,-0.1006l0 -0.6647 0.217 0c0.0095,0 0.0189,-0.0043 0.0259,-0.0114 0.0066,-0.0073 0.0102,-0.0173 0.0102,-0.0276l0 -0.1275c0,-0.0102 -0.0036,-0.0201 -0.0102,-0.0277 -0.007,-0.0073 -0.0164,-0.0112 -0.0259,-0.0112z"/>
    <path id="_456953480" class="fil8" d="M22.1829 14.8855l-0.0118 -0.0134c-0.0005,-0.0016 -0.0016,-0.003 -0.0032,-0.0045l-0.0073 -0.0077 0.0003 0 -0.01 -0.0101 -0.0083 -0.0092 -0.0004 0.0004c-0.0738,-0.0778 -0.1659,-0.1107 -0.2638,-0.1107 -0.0018,0 -0.0041,0 -0.0073,0 -0.0697,0 -0.1517,0.0313 -0.2008,0.0907l-0.0342 0.0403 0 -0.0168 0 -0.0733c0,-0.0096 -0.0038,-0.0191 -0.0113,-0.0257 -0.0072,-0.0069 -0.0171,-0.0107 -0.0271,-0.0107l-0.1267 0c-0.0099,0 -0.0202,0.0038 -0.0273,0.0107 -0.0073,0.0066 -0.0113,0.0161 -0.0113,0.0257l0 0.0733 0 1.0626c0,0.0095 0.004,0.019 0.0113,0.0257 0.0071,0.007 0.0174,0.0107 0.0273,0.0107l0.0216 0c0.0012,0 0.0019,0.0002 0.0022,0.0002l0.08 0c0.0004,0 0.0014,-0.0002 0.0021,-0.0002l0.0208 0c0.01,0 0.0199,-0.0037 0.0271,-0.0107 0.0076,-0.0067 0.0113,-0.0162 0.0113,-0.0257l0 -0.0197c0,-0.0003 0.0003,-0.0005 0.0003,-0.0006l0 -0.6739c0,-0.001 -0.0003,-0.0018 -0.0003,-0.0028l0 -0.0544c0.004,-0.0628 0.0241,-0.119 0.0566,-0.1602 0.0346,-0.0436 0.0861,-0.0718 0.1553,-0.0724 0.0365,0 0.0604,0.0046 0.0813,0.013 0.0195,0.009 0.0402,0.024 0.0672,0.0518l0.006 0.0061 0.0273 0.0308c0.0069,0.007 0.0163,0.0113 0.026,0.0113 0.0098,0.0003 0.0205,-0.0035 0.0276,-0.0106l0.095 -0.0862c0.0076,-0.0068 0.0126,-0.0168 0.0132,-0.0269 0.0011,-0.0099 -0.0022,-0.0196 -0.0087,-0.0269z"/>
    <path id="_456953552" class="fil8" d="M25.3711 15.3222c-0.0005,-0.0003 -0.0011,-0.0008 -0.0013,-0.001l-0.0002 0c-0.0742,-0.0515 -0.1675,-0.0695 -0.2684,-0.078l-0.1889 -0.0161c-0.0787,-0.0067 -0.1274,-0.0229 -0.1556,-0.0449 -0.024,-0.0186 -0.0388,-0.0482 -0.0393,-0.0933 0,-0.0007 0,-0.001 0,-0.001l0 -0.0025c0.0005,-0.0536 0.0212,-0.0926 0.0585,-0.119 0.0395,-0.0286 0.1029,-0.0467 0.1924,-0.0468l0.0008 0c0.1144,0.0001 0.2087,0.0267 0.2877,0.0775l-0.0003 0 0.0478 0.0337c0.0078,0.0053 0.0174,0.0075 0.027,0.0053 0.0095,-0.0021 0.0182,-0.0081 0.0238,-0.0164l0.0707 -0.1026c0.0056,-0.0083 0.008,-0.0186 0.0066,-0.0284 -0.0008,-0.0054 -0.0028,-0.0105 -0.0054,-0.0149 -0.0028,-0.0048 -0.0068,-0.0093 -0.0115,-0.0129l-0.0081 -0.0055c-0.1126,-0.0804 -0.2695,-0.1253 -0.439,-0.1256 -0.1354,0 -0.251,0.0323 -0.3349,0.0949 -0.0835,0.0613 -0.1322,0.1543 -0.1322,0.2599l0 0.0014 0 0.0006 0 0.0031c0,0.0931 0.0345,0.1754 0.1035,0.2317 0.0699,0.0572 0.1679,0.0876 0.292,0.0976l0.194 0.0157c0.0712,0.0066 0.1157,0.0224 0.1417,0.0442 0.0232,0.0185 0.0372,0.0479 0.0375,0.095 0,0 0,0.0009 0,0.0026l0 0.0002c-0.0004,0.0591 -0.0242,0.1002 -0.0687,0.1283 -0.0475,0.0302 -0.125,0.0486 -0.2329,0.0486l-0.0007 0c-0.0001,0 -0.0008,0 -0.0019,0.0001l-0.0009 0c-0.1419,-0.0005 -0.2431,-0.0325 -0.3216,-0.0975l-0.0413 -0.0348c-0.0072,-0.006 -0.0172,-0.0088 -0.027,-0.0077 -0.0096,0.0013 -0.0189,0.0066 -0.0257,0.0142l-0.0813 0.0983c-0.0065,0.008 -0.01,0.018 -0.0091,0.0283 0.0002,0.0099 0.0049,0.0192 0.0122,0.0253l0.0386 0.0326 0 0.0003c0.0006,0.0004 0.0014,0.0011 0.0018,0.0018l0.0052 0.0041 0.0005 -0.0007c0.1194,0.0866 0.2682,0.128 0.4505,0.128l0.0032 0c0.1504,0 0.2773,-0.0328 0.3699,-0.0967 0.0915,-0.063 0.1459,-0.1602 0.1459,-0.2725l0 -0.0057c0,-0.1129 -0.0434,-0.1981 -0.1156,-0.2488z"/>
    <path id="_456953624" class="fil8" d="M30.0307 15.8927l-0.1584 -0.2234 -0.3175 -0.4635 0.2465 -0.2616 0.1437 -0.1518 0.0088 -0.0097c0.0164,-0.0166 0.0083,-0.0341 0.0012,-0.0406 -0.0073,-0.007 -0.0172,-0.0108 -0.0276,-0.0108l-0.1644 0c-0.0101,0 -0.0228,0.0074 -0.03,0.0138 0,0 0.0001,0 0,0l-0.5536 0.5904 0 -0.4933 0 -0.4353c0,-0.0096 -0.004,-0.0192 -0.0114,-0.0257 -0.007,-0.0071 -0.0172,-0.0109 -0.0272,-0.0109l-0.1265 0c-0.0102,0 -0.0201,0.0038 -0.0273,0.0109 -0.0074,0.0065 -0.0116,0.0161 -0.0116,0.0257l0 0.4353 0 1.0646c0,0.0098 0.0042,0.0192 0.0116,0.026 0.0069,0.0067 0.0171,0.0107 0.0273,0.0107l0.1265 0c0.01,0 0.0202,-0.004 0.0272,-0.0107 0.0077,-0.0068 0.0114,-0.0162 0.0114,-0.026l0 -0.3025 0.2397 -0.26 0.1618 0.2415 -0.0006 0 0.2268 0.339c0.0048,0.0075 0.0134,0.0196 0.0324,0.0196l0.1649 0c0.0102,0 0.0202,-0.0041 0.0276,-0.011 0.007,-0.0065 0.0117,-0.0239 -0.0013,-0.0407z"/>
    <path id="_452503320" class="fil8" d="M28.6125 14.3892l0.0222 0 0.0331 0.0977 0.0334 -0.0977 0.0221 0 0 0.1156 -0.0148 0 0 -0.0683c0,-0.0024 0.0001,-0.006 0.0001,-0.0116 0,-0.0055 0.0003,-0.0113 0.0003,-0.0176l-0.0333 0.0975 -0.0155 0 -0.0331 -0.0975 0 0.0035c0,0.0028 0,0.0073 0,0.0129 0.0003,0.006 0.0003,0.0102 0.0003,0.0128l0 0.0683 -0.0148 0 0 -0.1156z"/>
    <path id="_452503392" class="fil8" d="M28.7902 14.3892l0.0527 0c0.0087,0 0.0158,0.0013 0.0212,0.0039 0.0108,0.0048 0.0161,0.0139 0.0161,0.0273 0,0.0068 -0.0012,0.0124 -0.0042,0.0169 -0.003,0.0043 -0.007,0.0081 -0.0123,0.0107 0.0045,0.002 0.0084,0.0042 0.0106,0.0073 0.0021,0.003 0.0033,0.008 0.0033,0.0146l0.001 0.0154c0,0.0045 0.0005,0.0077 0.0009,0.01 0.001,0.0033 0.0028,0.0059 0.0053,0.0068l0 0.0027 -0.0192 0c-0.0007,-0.001 -0.0009,-0.0023 -0.0015,-0.0037 -0.0004,-0.0017 -0.0006,-0.0046 -0.0007,-0.0092l-0.001 -0.0194c-0.0005,-0.0075 -0.003,-0.0126 -0.0082,-0.0153 -0.0026,-0.0012 -0.0076,-0.0019 -0.0138,-0.0019l-0.0346 0 0 0.0495 -0.0156 0 0 -0.1156zm0.0509 0.053l0 0c0.0072,0 0.013,-0.0015 0.0171,-0.0044 0.0038,-0.0029 0.0062,-0.0081 0.0062,-0.0159 0,-0.0083 -0.0029,-0.0139 -0.0089,-0.0169 -0.0031,-0.0015 -0.0072,-0.0024 -0.0124,-0.0024l-0.0373 0 0 0.0396 0.0353 0z"/>
    <path id="_452503464" class="fil8" d="M28.7575 14.5043c-0.0046,0 -0.0077,-0.0035 -0.0077,-0.0085 0,-0.0049 0.0032,-0.0084 0.0079,-0.0084 0.0047,0 0.0078,0.0035 0.0078,0.0084 0,0.005 -0.0031,0.0085 -0.008,0.0085z"/>
    <path id="_452503536" class="fil8" d="M28.9155 14.5043c-0.0045,0 -0.008,-0.0035 -0.008,-0.0085 0,-0.0049 0.0035,-0.0084 0.0083,-0.0084 0.0048,0 0.0079,0.0035 0.0079,0.0084 0,0.005 -0.0031,0.0085 -0.0081,0.0085l-0.0001 0z"/>
   </g>
   <path class="fil8" d="M30.0178 13.7106l0 -0.25 0.25 0 0 0.25 -0.25 0zm-28.4999 0l0 -0.25 0.25 0 0 0.25 -0.25 0zm0.75 0l0 -0.25 0.25 0 0 0.25 -0.25 0zm0.75 0l0 -0.25 0.25 0 0 0.25 -0.25 0zm0.75 0l0 -0.25 0.25 0 0 0.25 -0.25 0zm0.75 0l0 -0.25 0.25 0 0 0.25 -0.25 0zm0.75 0l0 -0.25 0.25 0 0 0.25 -0.25 0zm0.75 0l0 -0.25 0.25 0 0 0.25 -0.25 0zm0.75 0l0 -0.25 0.25 0 0 0.25 -0.25 0zm0.75 0l0 -0.25 0.25 0 0 0.25 -0.25 0zm0.75 0l0 -0.25 0.25 0 0 0.25 -0.25 0zm0.75 0l0 -0.25 0.2499 0 0 0.25 -0.2499 0zm0.7499 0l0 -0.25 0.25 0 0 0.25 -0.25 0zm0.75 0l0 -0.25 0.25 0 0 0.25 -0.25 0zm0.75 0l0 -0.25 0.25 0 0 0.25 -0.25 0zm0.75 0l0 -0.25 0.25 0 0 0.25 -0.25 0zm0.75 0l0 -0.25 0.25 0 0 0.25 -0.25 0zm0.75 0l0 -0.25 0.25 0 0 0.25 -0.25 0zm0.75 0l0 -0.25 0.25 0 0 0.25 -0.25 0zm0.75 0l0 -0.25 0.25 0 0 0.25 -0.25 0zm0.75 0l0 -0.25 0.25 0 0 0.25 -0.25 0zm0.75 0l0 -0.25 0.25 0 0 0.25 -0.25 0zm0.75 0l0 -0.25 0.25 0 0 0.25 -0.25 0zm0.75 0l0 -0.25 0.25 0 0 0.25 -0.25 0zm0.75 0l0 -0.25 0.25 0 0 0.25 -0.25 0zm0.75 0l0 -0.25 0.25 0 0 0.25 -0.25 0zm0.75 0l0 -0.25 0.25 0 0 0.25 -0.25 0zm0.75 0l0 -0.25 0.25 0 0 0.25 -0.25 0zm0.75 0l0 -0.25 0.25 0 0 0.25 -0.25 0zm0.75 0l0 -0.25 0.25 0 0 0.25 -0.25 0zm0.75 0l0 -0.25 0.25 0 0 0.25 -0.25 0zm0.75 0l0 -0.25 0.25 0 0 0.25 -0.25 0zm0.75 0l0 -0.25 0.25 0 0 0.25 -0.25 0zm0.75 0l0 -0.25 0.25 0 0 0.25 -0.25 0zm0.75 0l0 -0.25 0.25 0 0 0.25 -0.25 0zm0.75 0l0 -0.25 0.25 0 0 0.25 -0.25 0zm0.75 0l0 -0.25 0.25 0 0 0.25 -0.25 0zm0.75 0l0 -0.25 0.25 0 0 0.25 -0.25 0zm0.75 0l0 -0.25 0.25 0 0 0.25 -0.25 0z"/>
  </g>
 </g>
</svg>
