<?xml version="1.0" encoding="UTF-8"?>
<!DOCTYPE svg PUBLIC "-//W3C//DTD SVG 1.1//EN" "http://www.w3.org/Graphics/SVG/1.1/DTD/svg11.dtd">
<!-- Creator: CorelDRAW -->
<svg xmlns="http://www.w3.org/2000/svg" xml:space="preserve" width="50mm" height="35mm" style="shape-rendering:geometricPrecision; text-rendering:geometricPrecision; image-rendering:optimizeQuality; fill-rule:evenodd; clip-rule:evenodd"
viewBox="0 0 50 35"
 xmlns:xlink="http://www.w3.org/1999/xlink">
 <defs>
  <style type="text/css">
   <![CDATA[
    .str0 {stroke:black;stroke-width:0.0762}
    .str1 {stroke:#826794;stroke-width:0.5}
    .fil4 {fill:none}
    .fil3 {fill:#0AAB4C}
    .fil2 {fill:#ED1F24}
    .fil1 {fill:white}
    .fil0 {fill:#FEFEFE;fill-rule:nonzero}
    .fil5 {fill:#826794;fill-rule:nonzero}
   ]]>
  </style>
 </defs>
 <g id="Layer_x0020_1">
  <metadata id="CorelCorpID_0Corel-Layer"/>
  <path class="fil0 str0" d="M5.2445 3.3889l39.5111 0c0.7793,0 1.4111,0.6318 1.4111,1.4111l0 25.4c0,0.7793 -0.6318,1.4111 -1.4111,1.4111l-39.5111 0c-0.7793,0 -1.4112,-0.6318 -1.4112,-1.4111l0 -25.4c0,-0.7793 0.6319,-1.4111 1.4112,-1.4111z"/>
  <path class="fil1" d="M4.6895 22.9916c0.5995,-1.5385 2.0952,-2.6287 3.8454,-2.6287 1.7503,0 3.2459,1.0902 3.8452,2.6287l-7.6906 0z"/>
  <path class="fil2" d="M4.6657 25.9235l7.7382 0c-0.5828,1.5713 -2.0954,2.6909 -3.869,2.6909 -1.7736,0 -3.2864,-1.1196 -3.8692,-2.6909z"/>
  <path class="fil3" d="M4.4092 24.4886c0,-0.528 0.0995,-1.033 0.2803,-1.497l7.6906 0c0.1808,0.464 0.2803,0.969 0.2803,1.497 0,0.5046 -0.0905,0.9881 -0.2565,1.4349l-7.7382 0c-0.166,-0.4468 -0.2565,-0.9303 -0.2565,-1.4349z"/>
  <path class="fil4 str1" d="M8.5605 10.1859l35.4303 0 0 14.3466 -31.3307 0 0.0004 -0.0438c0,-2.2696 -1.8332,-4.1116 -4.1,-4.1255l0 -10.1773z"/>
  <path class="fil4 str1" d="M4.4094 24.4886c0,-2.2785 1.8472,-4.1257 4.1255,-4.1257 2.2783,0 4.1255,1.8472 4.1255,4.1257 0,2.2786 -1.8472,4.1258 -4.1255,4.1258 -2.2783,0 -4.1255,-1.8472 -4.1255,-4.1258z"/>
  <path class="fil5" d="M25.7474 11.626l0.5206 0c-0.0157,0.2319 -0.0763,0.4061 -0.1815,0.5253 -0.1044,0.1192 -0.3623,0.1789 -0.7732,0.1789 -0.0494,0 -0.0985,-0.0008 -0.1471,-0.0028l-0.0988 0c-0.2439,0 -0.4413,0.0271 -0.5951,0.081 -0.1527,0.053 -0.2775,0.1574 -0.3743,0.312 -0.0977,0.1547 -0.1482,0.4042 -0.1519,0.7479 0.1128,-0.2133 0.2591,-0.3716 0.4377,-0.4777 0.1798,-0.1052 0.3931,-0.1585 0.64,-0.1585 0.38,0 0.7021,0.1482 0.9658,0.4435 0.2644,0.2962 0.3958,0.6389 0.3958,1.0272 0,0.4062 -0.1387,0.7545 -0.4164,1.0459 -0.2766,0.2906 -0.6398,0.436 -1.0869,0.436 -0.3073,0 -0.5773,-0.0737 -0.8101,-0.2208 -0.233,-0.1471 -0.3997,-0.3492 -0.4993,-0.6045 -0.1005,-0.2552 -0.1499,-0.6789 -0.1499,-1.2704 0,-0.6947 0.1275,-1.1941 0.3827,-1.4975 0.2562,-0.3037 0.7023,-0.4555 1.3384,-0.4555l0.3874 0c0.1072,0 0.1798,-0.0363 0.2161,-0.11zm-1.545 2.6665c0,0.2638 0.0661,0.4723 0.1982,0.6258 0.1314,0.1538 0.2934,0.2311 0.4843,0.2311 0.2059,0 0.3745,-0.0801 0.5058,-0.2394 0.1323,-0.1592 0.1984,-0.3641 0.1984,-0.6147 0,-0.2571 -0.067,-0.4637 -0.2012,-0.6211 -0.1332,-0.1574 -0.2979,-0.2356 -0.4946,-0.2356 -0.191,0 -0.3538,0.0771 -0.4888,0.2317 -0.1343,0.1547 -0.2021,0.3615 -0.2021,0.6222zm3.3948 -0.5867l-0.6957 -0.1257c0.0782,-0.2804 0.2122,-0.487 0.4031,-0.6221 0.192,-0.1343 0.4751,-0.2021 0.8514,-0.2021 0.3427,0 0.597,0.041 0.7647,0.122 0.1667,0.0809 0.285,0.1834 0.3529,0.3082 0.0681,0.1247 0.1024,0.353 0.1024,0.6863l-0.0083 0.8952c0,0.2543 0.0122,0.4424 0.0373,0.5635 0.0241,0.1201 0.0707,0.2504 0.1377,0.3883l-0.759 0c-0.0195,-0.0513 -0.0446,-0.1267 -0.0736,-0.2263 -0.0121,-0.0456 -0.0213,-0.0754 -0.0269,-0.0902 -0.1314,0.1275 -0.271,0.2225 -0.4201,0.2867 -0.149,0.0633 -0.3084,0.0951 -0.4778,0.0951 -0.2981,0 -0.5337,-0.0812 -0.7051,-0.2422 -0.1722,-0.1622 -0.2579,-0.3671 -0.2579,-0.6147 0,-0.163 0.0391,-0.3093 0.1172,-0.4377 0.0784,-0.1286 0.1882,-0.2264 0.3288,-0.2944 0.1407,-0.0679 0.3447,-0.1276 0.6102,-0.1787 0.3576,-0.0672 0.6063,-0.1306 0.7442,-0.1882l0 -0.0764c0,-0.1482 -0.0363,-0.2524 -0.1091,-0.3157 -0.0726,-0.0625 -0.2094,-0.0941 -0.4115,-0.0941 -0.1371,0 -0.2431,0.0271 -0.3196,0.081 -0.0762,0.053 -0.1379,0.1471 -0.1853,0.2822zm1.0255 0.6222c-0.098,0.0326 -0.2535,0.0717 -0.4667,0.1172 -0.2124,0.0458 -0.3512,0.0904 -0.4173,0.1334 -0.0997,0.0717 -0.1499,0.1611 -0.1499,0.2699 0,0.1081 0.0401,0.2004 0.1202,0.2786 0.0802,0.0782 0.1815,0.1173 0.3054,0.1173 0.1388,0 0.2702,-0.0456 0.3959,-0.136 0.0932,-0.0689 0.1537,-0.1535 0.1825,-0.2543 0.0204,-0.065 0.0299,-0.1898 0.0299,-0.3734l0 -0.1527zm1.4788 -1.506l0.7674 0 0 1.0607 1.0964 0 0 -1.0607 0.7701 0 0 2.8974 -0.7701 0 0 -1.2173 -1.0964 0 0 1.2173 -0.7674 0 0 -2.8974zm3.3753 0l0.7645 0 0 1.1838c0.1267,-0.0142 0.2172,-0.0533 0.2702,-0.1175 0.0522,-0.0633 0.1164,-0.2029 0.1909,-0.4173 0.0978,-0.2858 0.2058,-0.4684 0.3224,-0.5485 0.1164,-0.0801 0.2691,-0.12 0.4581,-0.12 0.0578,0 0.1593,0.0045 0.3028,0.0139l0.0028 0.5075c-0.2021,0 -0.3316,0.0187 -0.3874,0.0569 -0.0569,0.04 -0.1175,0.1592 -0.1826,0.3576 -0.0895,0.2674 -0.218,0.4321 -0.3846,0.4936 0.2412,0.068 0.446,0.2776 0.6136,0.6305 0.0083,0.0187 0.0186,0.0374 0.0298,0.0578l0.4285 0.7991 -0.8243 0 -0.3819 -0.8373c-0.0781,-0.1695 -0.1462,-0.2784 -0.2029,-0.3269 -0.0578,-0.0475 -0.1426,-0.0718 -0.2554,-0.0718l0 1.236 -0.7645 0 0 -2.8974zm2.5761 1.4072c0,-0.2543 0.0633,-0.5011 0.1881,-0.7395 0.1256,-0.2375 0.3037,-0.4201 0.5337,-0.5448 0.23,-0.1257 0.4871,-0.189 0.771,-0.189 0.4379,0 0.7974,0.1424 1.0777,0.4274 0.2803,0.285 0.4201,0.6445 0.4201,1.0794 0,0.4379 -0.1416,0.801 -0.4238,1.0897 -0.2832,0.2888 -0.6389,0.4323 -1.0684,0.4323 -0.2663,0 -0.5187,-0.0597 -0.7598,-0.1798 -0.2412,-0.1202 -0.4249,-0.2961 -0.5505,-0.5281 -0.1248,-0.2319 -0.1881,-0.5141 -0.1881,-0.8476zm0.786 0.041c0,0.2878 0.0681,0.5077 0.2049,0.6604 0.1359,0.1527 0.3045,0.2291 0.5047,0.2291 0.2004,0 0.3679,-0.0764 0.503,-0.2291 0.1359,-0.1527 0.204,-0.3743 0.204,-0.666 0,-0.2831 -0.0681,-0.5019 -0.204,-0.6548 -0.1351,-0.1527 -0.3026,-0.229 -0.503,-0.229 -0.2002,0 -0.3688,0.0763 -0.5047,0.229 -0.1368,0.1529 -0.2049,0.3735 -0.2049,0.6604zm2.8128 -1.4482l1.6782 0c0.3438,0 0.6017,0.0623 0.7723,0.1882 0.1713,0.1256 0.2568,0.3146 0.2568,0.5672 0,0.1619 -0.0474,0.3026 -0.1404,0.4228 -0.0941,0.1201 -0.2116,0.2002 -0.354,0.2401 0.2002,0.0494 0.3492,0.1407 0.448,0.2758 0.0977,0.1351 0.1471,0.2822 0.1471,0.4424 0,0.2253 -0.0829,0.4089 -0.2478,0.5496 -0.1658,0.1404 -0.4106,0.2113 -0.7347,0.2113l-1.8255 0 0 -2.8974zm0.7729 1.2034l0.4938 0c0.2384,0 0.4106,-0.031 0.5169,-0.0905 0.1061,-0.0597 0.1592,-0.1546 0.1592,-0.2841 0,-0.122 -0.0494,-0.2085 -0.148,-0.2599 -0.0997,-0.0521 -0.2758,-0.0781 -0.5281,-0.0781l-0.4938 0 0 0.7126zm0 1.2033l0.6055 0c0.2179,0 0.3771,-0.0271 0.4778,-0.0793 0.0997,-0.053 0.1499,-0.1482 0.1499,-0.2841 0,-0.1415 -0.0578,-0.2392 -0.1722,-0.2934 -0.1147,-0.0539 -0.3372,-0.0801 -0.6688,-0.0801l-0.3922 0 0 0.7369zm-24.1136 2.5181l3.4313 0 0 3.8634 -1.022 0 0 -3.0376 -1.3859 0 0 3.0376 -1.0234 0 0 -3.8634zm4.5116 0l0.9538 0 0 0.5676c0.123,-0.195 0.2906,-0.3526 0.5017,-0.4731 0.2111,-0.1218 0.4458,-0.1826 0.7029,-0.1826 0.4484,0 0.8296,0.1764 1.1413,0.5277 0.3129,0.3516 0.4694,0.8421 0.4694,1.4703 0,0.6445 -0.1578,1.1462 -0.4718,1.504 -0.3155,0.3576 -0.698,0.5365 -1.1464,0.5365 -0.2135,0 -0.4072,-0.0423 -0.5812,-0.1267 -0.1724,-0.0857 -0.355,-0.2311 -0.5476,-0.4371l0 1.9471 -1.0221 0 0 -5.3337zm1.0122 1.8665c0,0.4334 0.0857,0.7551 0.2584,0.9613 0.1713,0.2073 0.3812,0.3116 0.6294,0.3116 0.2373,0 0.4347,-0.0955 0.5926,-0.2856 0.1576,-0.1901 0.2371,-0.503 0.2371,-0.9364 0,-0.4061 -0.0821,-0.7066 -0.2446,-0.9029 -0.1628,-0.196 -0.3639,-0.2942 -0.6035,-0.2942 -0.2498,0 -0.4571,0.0956 -0.6222,0.2893 -0.1652,0.1924 -0.2472,0.4781 -0.2472,0.8569zm5.8055 0.7674l1.0195 0.1703c-0.1314,0.3737 -0.3376,0.658 -0.6209,0.853 -0.2817,0.1963 -0.6357,0.2932 -1.0605,0.2932 -0.6718,0 -1.1685,-0.2186 -1.4913,-0.6583 -0.2547,-0.3513 -0.3825,-0.7959 -0.3825,-1.3313 0,-0.6406 0.1675,-1.1423 0.5028,-1.5051 0.3341,-0.3625 0.7576,-0.5438 1.2692,-0.5438 0.5749,0 1.0283,0.1899 1.361,0.57 0.3316,0.38 0.4905,0.9611 0.477,1.7448l-2.562 0c0.0076,0.303 0.0894,0.5388 0.2472,0.7066 0.1577,0.1688 0.355,0.2534 0.5898,0.2534 0.1602,0 0.2944,-0.0436 0.4035,-0.1306 0.1093,-0.088 0.1927,-0.2283 0.2472,-0.4222zm0.0584 -1.033c-0.0075,-0.2968 -0.0831,-0.5217 -0.2285,-0.6757 -0.1454,-0.154 -0.3228,-0.2311 -0.5315,-0.2311 -0.2236,0 -0.4072,0.0821 -0.5526,0.2449 -0.1454,0.1612 -0.2173,0.3824 -0.2148,0.6619l1.5274 0zm1.859 -1.6009l2.2379 0c0.4583,0 0.8024,0.0833 1.0296,0.2508 0.2285,0.1678 0.3427,0.4199 0.3427,0.7564 0,0.2161 -0.0633,0.4036 -0.1875,0.5638 -0.1254,0.1602 -0.2819,0.267 -0.472,0.3204 0.2669,0.0658 0.4658,0.1875 0.5975,0.3675 0.1303,0.1802 0.1961,0.3763 0.1961,0.59 0,0.3004 -0.1104,0.545 -0.3304,0.7325 -0.2209,0.1877 -0.5476,0.282 -0.9797,0.282l-2.4342 0 0 -3.8634zm1.0309 1.6045l0.6581 0c0.318,0 0.5476,-0.041 0.6893,-0.1205 0.1416,-0.0794 0.2122,-0.2061 0.2122,-0.3788 0,-0.1626 -0.0657,-0.2781 -0.1973,-0.3464 -0.133,-0.0696 -0.3677,-0.1044 -0.7042,-0.1044l-0.6581 0 0 0.9501zm0 1.6045l0.8071 0c0.2906,0 0.503,-0.0361 0.6372,-0.1056 0.1327,-0.0707 0.2,-0.1974 0.2,-0.3787 0,-0.1888 -0.0771,-0.3191 -0.2298,-0.3913 -0.1527,-0.0719 -0.4495,-0.1067 -0.8917,-0.1067l-0.5228 0 0 0.9823zm3.2039 -1.3326c0,-0.3389 0.0844,-0.6681 0.2508,-0.986 0.1675,-0.3165 0.4049,-0.5601 0.7115,-0.7265 0.3067,-0.1676 0.6495,-0.252 1.0283,-0.252 0.5838,0 1.0631,0.1899 1.4368,0.57 0.3737,0.38 0.5601,0.8593 0.5601,1.4392 0,0.5837 -0.1888,1.068 -0.565,1.4531 -0.3776,0.3848 -0.852,0.5762 -1.4244,0.5762 -0.3552,0 -0.6917,-0.0795 -1.0134,-0.2397 -0.3215,-0.1602 -0.5664,-0.3949 -0.7339,-0.7042 -0.1664,-0.3093 -0.2508,-0.6855 -0.2508,-1.1301zm1.048 0.0548c0,0.3835 0.0907,0.6767 0.2732,0.8803 0.1813,0.2038 0.4061,0.3056 0.6731,0.3056 0.2669,0 0.4905,-0.1018 0.6707,-0.3056 0.1813,-0.2036 0.2719,-0.4991 0.2719,-0.8879 0,-0.3775 -0.0906,-0.6694 -0.2719,-0.873 -0.1802,-0.2036 -0.4038,-0.3054 -0.6707,-0.3054 -0.267,0 -0.4918,0.1018 -0.6731,0.3054 -0.1825,0.2036 -0.2732,0.4981 -0.2732,0.8806zm6.8362 1.9322l-2.9257 0 0 1.0184 -0.8295 0 0 -1.8553 0.4184 0c0.1753,-0.1938 0.3191,-0.4968 0.4334,-0.9091 0.1143,-0.4124 0.1826,-1.119 0.2038,-2.1174l3.1182 0 0 3.0265 0.4147 0 0 1.8553 -0.8333 0 0 -1.0184zm-0.5936 -0.8369l0.0039 -2.187 -1.2369 0c-0.041,1.068 -0.2111,1.797 -0.5092,2.187l1.7422 0zm-19.7642 -6.8961l0 1.4198 1.7755 -1.7753 -1.7755 -1.7754 0 1.42 -7.6404 0c-0.7859,0 -1.4562,0.2768 -2.0098,0.832 -0.5535,0.5552 -0.8303,1.225 -0.8303,2.008 0,0.7846 0.2768,1.4544 0.832,2.0096 0.5552,0.5552 1.225,0.832 2.0081,0.832l2.4861 0 0 -0.7109 -2.4846 0c-0.5896,0 -1.0908,-0.2079 -1.5068,-0.6239 -0.416,-0.416 -0.6239,-0.9172 -0.6239,-1.5068 0,-0.588 0.2079,-1.0892 0.6239,-1.5052 0.416,-0.416 0.9172,-0.6239 1.5068,-0.6239l7.6389 0z"/>
 </g>
</svg>
