<?xml version="1.0" encoding="UTF-8"?>
<!DOCTYPE svg PUBLIC "-//W3C//DTD SVG 1.1//EN" "http://www.w3.org/Graphics/SVG/1.1/DTD/svg11.dtd">
<!-- Creator: CorelDRAW -->
<svg xmlns="http://www.w3.org/2000/svg" xml:space="preserve" width="31.75mm" height="21.167mm" style="shape-rendering:geometricPrecision; text-rendering:geometricPrecision; image-rendering:optimizeQuality; fill-rule:evenodd; clip-rule:evenodd"
viewBox="0 0 31.75 21.167"
 xmlns:xlink="http://www.w3.org/1999/xlink">
 <defs>
  <style type="text/css">
   <![CDATA[
    .str0 {stroke:#C5C6C6;stroke-width:0.0762}
    .fil0 {fill:none}
    .fil3 {fill:#3B2280}
    .fil1 {fill:white}
    .fil2 {fill:#3B2280;fill-rule:nonzero}
    .fil4 {fill:#D0097E;fill-rule:nonzero}
   ]]>
  </style>
 </defs>
 <g id="Layer_x0020_1">
  <metadata id="CorelCorpID_0Corel-Layer"/>
  <g>
   <path class="fil0 str0" d="M1.0583 0.0002l29.6334 0c0.5843,0 1.0582,0.4739 1.0582,1.0583l0.0001 19.05c-0.0001,0.5842 -0.474,1.0581 -1.0584,1.0581l-29.6333 0.0002c-0.5843,-0.0002 -1.0582,-0.4741 -1.0582,-1.0585l-0.0001 -19.0498c0.0001,-0.5844 0.474,-1.0583 1.0584,-1.0583z"/>
   <path id="1" class="fil1" d="M1.0583 0.0002l29.6334 0c0.5843,0 1.0582,0.4739 1.0582,1.0583l0.0001 19.05c-0.0001,0.5842 -0.474,1.0581 -1.0584,1.0581l-29.6333 0.0002c-0.5843,-0.0002 -1.0582,-0.4741 -1.0582,-1.0585l-0.0001 -19.0498c0.0001,-0.5844 0.474,-1.0583 1.0584,-1.0583z"/>
  </g>
  <g>
   <g id="_391875256">
    <path id="_391864240" class="fil2" d="M7.1613 16.4586l0.557 0c0.0454,0.0003 0.0781,-0.0085 0.0975,-0.027 0.0195,-0.0182 0.0291,-0.0489 0.0286,-0.0916 -0.0004,-0.0683 -0.0136,-0.1323 -0.0393,-0.1919 -0.0257,-0.0598 -0.0608,-0.1125 -0.1059,-0.158 -0.0452,-0.0457 -0.0976,-0.0815 -0.1565,-0.1073 -0.059,-0.026 -0.1221,-0.0391 -0.1895,-0.0395 -0.0714,0.0004 -0.1376,0.0142 -0.1985,0.0408 -0.0605,0.027 -0.1137,0.0646 -0.1593,0.1129 -0.0454,0.0483 -0.0805,0.1047 -0.106,0.1693 -0.0254,0.0646 -0.0382,0.1352 -0.0385,0.2115 0.0003,0.0761 0.0131,0.1457 0.0389,0.2088 0.0256,0.0632 0.062,0.1181 0.1094,0.1643 0.0471,0.0463 0.1029,0.0821 0.1675,0.1075 0.0649,0.0255 0.1363,0.0384 0.2148,0.0386 0.046,-0.0002 0.0909,-0.0044 0.1349,-0.0129 0.0436,-0.0084 0.0839,-0.02 0.1219,-0.0351 0.0376,-0.0151 0.0709,-0.0323 0.0994,-0.052 0.0285,-0.0198 0.0509,-0.0408 0.0671,-0.0634 0.016,-0.0229 0.0241,-0.046 0.0245,-0.0699 -0.0004,-0.0222 -0.006,-0.042 -0.0173,-0.0596 -0.0109,-0.0175 -0.026,-0.0313 -0.0445,-0.0413 -0.0189,-0.0104 -0.0396,-0.0155 -0.0623,-0.0158 -0.0086,0 -0.0176,0.001 -0.0271,0.0034 -0.0094,0.0022 -0.0207,0.0067 -0.0345,0.0133 -0.0138,0.0065 -0.0316,0.016 -0.0533,0.0285 -0.031,0.0169 -0.0627,0.0302 -0.095,0.0392 -0.032,0.0088 -0.0636,0.0135 -0.095,0.0135 -0.0267,0 -0.052,-0.0038 -0.0765,-0.011 -0.0246,-0.0072 -0.0464,-0.017 -0.0659,-0.0295 -0.0197,-0.0122 -0.0354,-0.0266 -0.0477,-0.0423 -0.0084,-0.0113 -0.0166,-0.0257 -0.0244,-0.0433 -0.0078,-0.0176 -0.016,-0.0376 -0.0245,-0.0602zm0.1975 -0.3838c0.0527,0 0.0958,0.0169 0.1287,0.0502 0.0329,0.0335 0.0558,0.0834 0.069,0.1492l-0.4008 0c0.0145,-0.0652 0.0389,-0.1145 0.0734,-0.1483 0.0345,-0.0339 0.0777,-0.0511 0.1297,-0.0511zm0.729 0.3744l0.4158 0c0.0229,-0.0003 0.0433,-0.006 0.0616,-0.0166 0.0178,-0.011 0.0322,-0.0257 0.0425,-0.0446 0.0107,-0.0184 0.016,-0.0395 0.0164,-0.0629 -0.0004,-0.0242 -0.0057,-0.0458 -0.0164,-0.065 -0.0103,-0.0191 -0.0247,-0.0344 -0.0425,-0.0458 -0.0183,-0.0113 -0.0387,-0.0169 -0.0616,-0.0172l-0.4158 0c-0.0222,0.0003 -0.0423,0.0059 -0.0605,0.0172 -0.0182,0.0114 -0.0326,0.0263 -0.0433,0.0452 -0.011,0.0188 -0.0163,0.0401 -0.0166,0.0636 0.0003,0.0236 0.0056,0.0445 0.0166,0.0637 0.0107,0.0188 0.0251,0.0339 0.0433,0.0451 0.0182,0.0113 0.0383,0.017 0.0605,0.0173zm1.0036 0.3575c0.0229,0.0179 0.0436,0.0323 0.0625,0.0439 0.0187,0.0116 0.0369,0.0207 0.0549,0.0269 0.0175,0.0066 0.036,0.0113 0.0552,0.0138 0.0193,0.0026 0.0407,0.0038 0.0645,0.0038 0.0669,-0.0003 0.1283,-0.0141 0.1845,-0.0407 0.0561,-0.0267 0.105,-0.0643 0.1464,-0.1126 0.0417,-0.0483 0.074,-0.1054 0.0969,-0.1706 0.0231,-0.0653 0.0347,-0.1367 0.0351,-0.2142 -0.0004,-0.0737 -0.0122,-0.142 -0.0351,-0.2048 -0.0232,-0.0627 -0.0556,-0.1173 -0.0972,-0.164 -0.0418,-0.0467 -0.0903,-0.0831 -0.1461,-0.1091 -0.0558,-0.026 -0.1167,-0.0392 -0.1826,-0.0396 -0.0276,0 -0.052,0.0016 -0.0737,0.0054 -0.0214,0.0037 -0.0417,0.0101 -0.0602,0.0188 -0.0188,0.0091 -0.0379,0.0214 -0.0571,0.037 -0.0191,0.0157 -0.04,0.0355 -0.0629,0.0593 -0.0249,-0.0351 -0.0487,-0.0627 -0.0713,-0.0825 -0.0229,-0.02 -0.0423,-0.0301 -0.0586,-0.0304 -0.0273,0.0003 -0.052,0.0072 -0.074,0.0204 -0.022,0.0135 -0.0396,0.0311 -0.0527,0.0533 -0.0132,0.0219 -0.0198,0.0464 -0.02,0.073l0 1.1647c0.0002,0.028 0.0068,0.0527 0.02,0.075 0.0131,0.022 0.0307,0.0392 0.0527,0.052 0.022,0.0129 0.0467,0.0195 0.074,0.0198 0.0267,-0.0003 0.0508,-0.0069 0.0727,-0.0198 0.0217,-0.0125 0.0392,-0.0298 0.0521,-0.0516 0.0131,-0.0217 0.0198,-0.0462 0.02,-0.0734l0 -0.3538zm0.2014 -0.6962c0.0398,0.0003 0.0752,0.0116 0.1063,0.0339 0.031,0.0222 0.0555,0.0527 0.0734,0.0916 0.0178,0.0389 0.0269,0.0837 0.0272,0.1342 -0.0003,0.0505 -0.0094,0.0953 -0.0272,0.1342 -0.0179,0.0389 -0.0424,0.0693 -0.0734,0.0916 -0.0311,0.0222 -0.0665,0.0335 -0.1063,0.0338 -0.0411,-0.0003 -0.0775,-0.0116 -0.1091,-0.0332 -0.0314,-0.022 -0.0562,-0.052 -0.0741,-0.0903 -0.0182,-0.0382 -0.0273,-0.0825 -0.0275,-0.1323 0.0002,-0.0518 0.0093,-0.0976 0.0275,-0.1371 0.0179,-0.0392 0.0427,-0.0703 0.0741,-0.0925 0.0316,-0.0223 0.068,-0.0336 0.1091,-0.0339zm1.3311 -0.158c-0.0238,-0.0217 -0.0456,-0.0396 -0.0652,-0.0537 -0.0202,-0.014 -0.0393,-0.0253 -0.0584,-0.0335 -0.0188,-0.0078 -0.0388,-0.0138 -0.0599,-0.0169 -0.0209,-0.0035 -0.0445,-0.0051 -0.0705,-0.0051 -0.0653,0.0004 -0.1261,0.0142 -0.1819,0.0408 -0.0558,0.0267 -0.1051,0.0643 -0.1468,0.1119 -0.042,0.048 -0.0749,0.1041 -0.0984,0.1681 -0.0236,0.0637 -0.0354,0.1333 -0.0358,0.2079 0.0004,0.0737 0.0122,0.1424 0.0355,0.2055 0.0231,0.0633 0.0558,0.1188 0.0974,0.1661 0.0418,0.0474 0.0903,0.0845 0.1455,0.111 0.0556,0.0267 0.1158,0.0402 0.1807,0.0405 0.0276,0 0.0521,-0.0016 0.0737,-0.0053 0.0213,-0.0037 0.0417,-0.0101 0.0605,-0.0188 0.0186,-0.0091 0.0377,-0.0213 0.0568,-0.0371 0.0194,-0.0156 0.0401,-0.0354 0.063,-0.0592 0.0257,0.037 0.0505,0.0659 0.0743,0.0868 0.0239,0.0208 0.0449,0.0315 0.0631,0.0318 0.0273,-0.0003 0.0518,-0.0063 0.0736,-0.0183 0.0216,-0.0122 0.0389,-0.0282 0.0518,-0.0482 0.0125,-0.0201 0.0191,-0.0423 0.0194,-0.0672l0 -0.7902c-0.0003,-0.0229 -0.0069,-0.0436 -0.0194,-0.0624 -0.0129,-0.0184 -0.0298,-0.0335 -0.0514,-0.0446 -0.0213,-0.0112 -0.0455,-0.0169 -0.0722,-0.0172 -0.0182,0.0003 -0.0392,0.0101 -0.0627,0.0289 -0.0238,0.0191 -0.048,0.0452 -0.0727,0.0784zm-0.2202 0.158c0.0418,0.0003 0.0781,0.0113 0.1095,0.0329 0.031,0.022 0.0555,0.0525 0.0727,0.0913 0.0175,0.0392 0.0264,0.085 0.0267,0.1373 -0.0003,0.0512 -0.0094,0.0963 -0.027,0.1352 -0.0176,0.0389 -0.042,0.069 -0.0734,0.091 -0.0313,0.0219 -0.0674,0.0332 -0.1085,0.0335 -0.0398,-0.0003 -0.0752,-0.0116 -0.1063,-0.0339 -0.0311,-0.0223 -0.0555,-0.0526 -0.0734,-0.0915 -0.0178,-0.0389 -0.0269,-0.0838 -0.0273,-0.1343 0.0004,-0.0517 0.0095,-0.0971 0.0271,-0.1363 0.0174,-0.0393 0.0416,-0.0696 0.0727,-0.0916 0.031,-0.022 0.0668,-0.0333 0.1072,-0.0336zm0.9172 0.6867l-0.1336 0.3124c-0.0038,0.0094 -0.0072,0.0198 -0.0103,0.0305 -0.0029,0.0109 -0.0045,0.0222 -0.0048,0.0335 0.0003,0.0261 0.007,0.0489 0.0197,0.0693 0.0129,0.0204 0.0302,0.0364 0.0521,0.0482 0.0222,0.0117 0.0471,0.0177 0.0749,0.018 0.0314,0 0.0587,-0.0091 0.0825,-0.027 0.0236,-0.0182 0.0427,-0.0455 0.0569,-0.0822l0.4685 -1.1477c0.0047,-0.0084 0.0081,-0.0179 0.01,-0.0279 0.0022,-0.0098 0.0031,-0.0201 0.0031,-0.0305 -0.0004,-0.0272 -0.0069,-0.0516 -0.0195,-0.073 -0.0129,-0.0213 -0.03,-0.0382 -0.052,-0.0508 -0.0216,-0.0125 -0.0461,-0.0188 -0.0734,-0.0192 -0.032,0 -0.0596,0.0089 -0.0828,0.0264 -0.0231,0.0176 -0.0413,0.0433 -0.0545,0.0772l-0.1863 0.4873 -0.1806 -0.4855c-0.0132,-0.0347 -0.0315,-0.0614 -0.0546,-0.0796 -0.0232,-0.0182 -0.0508,-0.0276 -0.0828,-0.0276 -0.0291,0.0003 -0.0549,0.0069 -0.0771,0.0194 -0.0223,0.0129 -0.0396,0.0302 -0.0521,0.0518 -0.0129,0.022 -0.0191,0.0464 -0.0195,0.0736 0,0.0095 0.001,0.0185 0.0026,0.0271 0.0018,0.0087 0.004,0.0172 0.0069,0.0256l0.3067 0.7507zm1.5361 -0.8259c-0.018,-0.0198 -0.034,-0.0358 -0.0487,-0.0483 -0.0144,-0.0122 -0.0295,-0.0226 -0.0451,-0.0311 -0.0157,-0.0081 -0.0338,-0.0162 -0.0549,-0.0241 -0.0216,-0.0085 -0.0442,-0.0147 -0.0671,-0.0185 -0.0232,-0.0041 -0.0468,-0.006 -0.0703,-0.006 -0.0279,0 -0.0552,0.0031 -0.0821,0.0088 -0.0273,0.006 -0.0527,0.0141 -0.0772,0.0251 -0.0241,0.0107 -0.0455,0.0232 -0.0646,0.0376 -0.0038,0.0029 -0.0085,0.0072 -0.0143,0.0129 -0.0058,0.006 -0.0129,0.0134 -0.0214,0.0229 -0.0248,-0.0324 -0.0484,-0.0577 -0.07,-0.0759 -0.0218,-0.0182 -0.0407,-0.0273 -0.0561,-0.0276 -0.0273,0.0003 -0.052,0.0072 -0.0746,0.0207 -0.0223,0.0132 -0.0401,0.031 -0.0534,0.0533 -0.0134,0.0226 -0.0203,0.0474 -0.0206,0.0747l0 0.7489c0.0003,0.0272 0.0072,0.052 0.0204,0.0739 0.0135,0.022 0.0311,0.0395 0.0533,0.0527 0.0219,0.0131 0.0463,0.0197 0.073,0.02 0.0267,-0.0003 0.0509,-0.0069 0.0727,-0.02 0.0218,-0.0129 0.0393,-0.0305 0.0522,-0.0521 0.0131,-0.022 0.0197,-0.046 0.02,-0.0727l0 -0.5099c0.0003,-0.0291 0.0076,-0.0555 0.0216,-0.0791 0.0142,-0.0234 0.0333,-0.042 0.0572,-0.0558 0.0235,-0.0141 0.0501,-0.021 0.0793,-0.0212 0.0279,0.0002 0.0532,0.0074 0.0761,0.0212 0.0233,0.0138 0.0414,0.0326 0.0552,0.0565 0.0139,0.0238 0.0208,0.0504 0.0211,0.0802l0 0.5081c0.0003,0.0273 0.0066,0.052 0.0191,0.074 0.0122,0.0219 0.0289,0.0395 0.0498,0.0527 0.0207,0.0132 0.0443,0.0198 0.0703,0.0201 0.028,-0.0003 0.0533,-0.0069 0.0759,-0.0201 0.0226,-0.0132 0.0404,-0.0308 0.0539,-0.0527 0.0136,-0.022 0.0205,-0.0467 0.0207,-0.074l0 -0.5081c0.0003,-0.0285 0.0076,-0.0542 0.0214,-0.0771 0.014,-0.0229 0.0329,-0.041 0.0571,-0.0545 0.0238,-0.0136 0.0511,-0.0205 0.0814,-0.0207 0.0274,0.0002 0.0521,0.0071 0.0747,0.0207 0.0223,0.0135 0.0401,0.0316 0.0536,0.0545 0.0132,0.0229 0.0201,0.0486 0.0204,0.0771l0 0.5081c0.0003,0.0273 0.0072,0.052 0.0201,0.074 0.0131,0.0219 0.0307,0.0395 0.0527,0.0527 0.022,0.0132 0.0467,0.0198 0.074,0.0201 0.0272,-0.0003 0.052,-0.0069 0.074,-0.0201 0.0219,-0.0132 0.0395,-0.0308 0.0527,-0.0527 0.0132,-0.022 0.0197,-0.0467 0.0201,-0.074l0 -0.5532c-0.0007,-0.0696 -0.016,-0.1304 -0.0465,-0.1831 -0.0304,-0.0527 -0.0727,-0.0938 -0.1267,-0.1236 -0.0539,-0.0295 -0.1166,-0.0445 -0.1881,-0.0451 -0.0483,0 -0.0948,0.0075 -0.139,0.0219 -0.0445,0.0145 -0.0846,0.0354 -0.1207,0.0628 -0.0065,0.0046 -0.0141,0.0106 -0.0228,0.0182 -0.0086,0.0074 -0.0186,0.0165 -0.0298,0.0269zm1.1371 0.4873l0.557 0c0.0454,0.0003 0.0781,-0.0085 0.0976,-0.027 0.0194,-0.0182 0.0291,-0.0489 0.0285,-0.0916 -0.0004,-0.0683 -0.0136,-0.1323 -0.0392,-0.1919 -0.0258,-0.0598 -0.0609,-0.1125 -0.106,-0.158 -0.0452,-0.0457 -0.0976,-0.0815 -0.1565,-0.1073 -0.059,-0.026 -0.122,-0.0391 -0.1895,-0.0395 -0.0714,0.0004 -0.1376,0.0142 -0.1984,0.0408 -0.0605,0.027 -0.1138,0.0646 -0.1594,0.1129 -0.0454,0.0483 -0.0805,0.1047 -0.1059,0.1693 -0.0255,0.0646 -0.0382,0.1352 -0.0386,0.2115 0.0004,0.0761 0.0131,0.1457 0.0389,0.2088 0.0257,0.0632 0.062,0.1181 0.1094,0.1643 0.0471,0.0463 0.1029,0.0821 0.1675,0.1075 0.0649,0.0255 0.1364,0.0384 0.2148,0.0386 0.0461,-0.0002 0.0909,-0.0044 0.1349,-0.0129 0.0436,-0.0084 0.084,-0.02 0.1219,-0.0351 0.0377,-0.0151 0.0709,-0.0323 0.0994,-0.052 0.0286,-0.0198 0.0509,-0.0408 0.0671,-0.0634 0.016,-0.0229 0.0242,-0.046 0.0245,-0.0699 -0.0003,-0.0222 -0.006,-0.042 -0.0172,-0.0596 -0.011,-0.0175 -0.026,-0.0313 -0.0446,-0.0413 -0.0188,-0.0104 -0.0395,-0.0155 -0.0623,-0.0158 -0.0085,0 -0.0176,0.001 -0.0271,0.0034 -0.0094,0.0022 -0.0207,0.0067 -0.0345,0.0133 -0.0138,0.0065 -0.0316,0.016 -0.0532,0.0285 -0.0311,0.0169 -0.0627,0.0302 -0.0951,0.0392 -0.032,0.0088 -0.0636,0.0135 -0.095,0.0135 -0.0267,0 -0.052,-0.0038 -0.0765,-0.011 -0.0245,-0.0072 -0.0464,-0.017 -0.0658,-0.0295 -0.0198,-0.0122 -0.0355,-0.0266 -0.0478,-0.0423 -0.0084,-0.0113 -0.0165,-0.0257 -0.0244,-0.0433 -0.0078,-0.0176 -0.016,-0.0376 -0.0245,-0.0602zm0.1976 -0.3838c0.0527,0 0.0957,0.0169 0.1286,0.0502 0.0329,0.0335 0.0558,0.0834 0.069,0.1492l-0.4008 0c0.0145,-0.0652 0.0389,-0.1145 0.0734,-0.1483 0.0345,-0.0339 0.0778,-0.0511 0.1298,-0.0511zm0.8945 -0.1223c-0.0247,-0.0323 -0.0485,-0.0581 -0.0709,-0.0768 -0.0225,-0.0186 -0.0416,-0.0283 -0.057,-0.0286 -0.0273,0.0003 -0.052,0.0072 -0.074,0.0207 -0.022,0.0132 -0.0396,0.031 -0.0527,0.0533 -0.0132,0.0226 -0.0198,0.0474 -0.02,0.0747l0 0.7507c0.0002,0.0273 0.0068,0.052 0.02,0.074 0.0129,0.0219 0.0304,0.0395 0.052,0.0527 0.022,0.0132 0.0461,0.0198 0.0728,0.0201 0.0273,-0.0003 0.052,-0.0069 0.074,-0.0201 0.022,-0.0129 0.0395,-0.0304 0.0527,-0.052 0.0131,-0.022 0.0198,-0.0462 0.02,-0.0729l0 -0.4928c0.0004,-0.0311 0.008,-0.0596 0.0229,-0.0851 0.0151,-0.0254 0.0352,-0.0458 0.0603,-0.0608 0.0251,-0.0153 0.0533,-0.0233 0.0843,-0.0235 0.0317,0.0002 0.0602,0.0082 0.0856,0.0235 0.0258,0.015 0.0458,0.0354 0.0609,0.0608 0.0151,0.0255 0.0225,0.054 0.0229,0.0851l0 0.4948c0.0002,0.0266 0.0071,0.0507 0.0207,0.0727 0.0131,0.0216 0.0309,0.0392 0.0536,0.052 0.0222,0.0132 0.0471,0.0198 0.0743,0.0201 0.0266,-0.0003 0.0508,-0.0069 0.0727,-0.0201 0.0217,-0.0131 0.0393,-0.0307 0.0522,-0.0526 0.0131,-0.0219 0.0196,-0.0468 0.02,-0.0741l0 -0.5419c0,-0.0394 -0.0035,-0.0745 -0.0104,-0.1059 -0.0069,-0.0311 -0.0178,-0.0596 -0.0325,-0.085 -0.0149,-0.0254 -0.0336,-0.0489 -0.0569,-0.0706 -0.0241,-0.0225 -0.0507,-0.0416 -0.0803,-0.057 -0.0297,-0.0155 -0.0607,-0.027 -0.0937,-0.0346 -0.0329,-0.0078 -0.0664,-0.0118 -0.1006,-0.0118 -0.028,0 -0.0559,0.0028 -0.0838,0.0084 -0.0279,0.0056 -0.0543,0.0135 -0.079,0.0238 -0.0247,0.0104 -0.0464,0.0229 -0.0649,0.0374 -0.0056,0.0037 -0.0119,0.0091 -0.0192,0.0156 -0.0071,0.007 -0.0156,0.0155 -0.026,0.0258zm0.9076 0.1656l0 0.6266c0.0004,0.0272 0.0066,0.052 0.0191,0.0739 0.0126,0.022 0.0295,0.0395 0.0509,0.0527 0.0216,0.0131 0.0458,0.0197 0.0731,0.02 0.0267,-0.0003 0.0507,-0.0069 0.0721,-0.02 0.0216,-0.0132 0.0385,-0.0307 0.0514,-0.0527 0.0126,-0.0219 0.0191,-0.0467 0.0195,-0.0739l-0.002 -0.6248 0.0866 0c0.0248,-0.0003 0.0471,-0.0062 0.0668,-0.0178 0.0198,-0.0116 0.0354,-0.0271 0.047,-0.0465 0.0117,-0.0197 0.0176,-0.0414 0.0179,-0.0655 -0.0003,-0.0241 -0.0062,-0.0461 -0.0179,-0.0655 -0.0116,-0.0195 -0.0269,-0.0349 -0.0463,-0.0464 -0.0198,-0.0116 -0.0415,-0.0176 -0.0656,-0.018l-0.0885 0 0.002 -0.1693c-0.0004,-0.0266 -0.0069,-0.0507 -0.0195,-0.0727 -0.0129,-0.0217 -0.0298,-0.0393 -0.0514,-0.052 -0.0214,-0.0133 -0.0454,-0.0198 -0.0721,-0.0202 -0.0273,0.0004 -0.0518,0.0069 -0.0734,0.0202 -0.022,0.0127 -0.0393,0.0303 -0.0518,0.052 -0.0128,0.022 -0.0195,0.0461 -0.0197,0.0727l0 0.1693 -0.047 0c-0.0255,0.0004 -0.048,0.006 -0.0682,0.0173 -0.02,0.0113 -0.036,0.0267 -0.0476,0.0458 -0.0116,0.0191 -0.0176,0.0407 -0.0178,0.0649 0.0002,0.0236 0.0062,0.0452 0.0178,0.0646 0.0116,0.0195 0.0276,0.0351 0.0476,0.0471 0.0202,0.0119 0.0427,0.0178 0.0682,0.0182l0.0488 0zm1.5851 0.0018l0.0508 0.0226c0.0097,0.0047 0.0203,0.0085 0.0319,0.011 0.0117,0.0028 0.0224,0.004 0.032,0.004 0.0217,-0.0003 0.0411,-0.0059 0.0584,-0.0165 0.0172,-0.0107 0.0307,-0.0251 0.0407,-0.0427 0.0103,-0.0178 0.0154,-0.0376 0.0157,-0.0593 -0.0003,-0.027 -0.0097,-0.0523 -0.0285,-0.0762 -0.0185,-0.0235 -0.0439,-0.0446 -0.0763,-0.0627 -0.0325,-0.0182 -0.0696,-0.0326 -0.111,-0.043 -0.0416,-0.0103 -0.0858,-0.0154 -0.1323,-0.0156 -0.0567,0.0002 -0.1088,0.0082 -0.1561,0.0242 -0.0474,0.0156 -0.0885,0.0382 -0.1232,0.067 -0.0349,0.0289 -0.0618,0.0631 -0.081,0.1025 -0.0191,0.0393 -0.0288,0.0825 -0.0291,0.1299 0,0.0273 0.0037,0.0533 0.0112,0.0784 0.0076,0.0251 0.0182,0.0483 0.032,0.069 0.0138,0.0206 0.0302,0.0379 0.0489,0.052 0.0198,0.0142 0.0465,0.0292 0.0797,0.0445 0.0333,0.0157 0.0728,0.0317 0.1179,0.0477l0.0772 0.0301c0.0367,0.0133 0.0643,0.0273 0.083,0.0424 0.0185,0.015 0.028,0.031 0.028,0.0479 -0.0004,0.0148 -0.0047,0.0276 -0.0138,0.0393 -0.0091,0.0116 -0.0213,0.0207 -0.0371,0.0276 -0.0153,0.0065 -0.0329,0.0103 -0.0527,0.0103 -0.0184,0 -0.0398,-0.0038 -0.0645,-0.0107 -0.0247,-0.0072 -0.0496,-0.0176 -0.0747,-0.0307l-0.0527 -0.0301c-0.0178,-0.0075 -0.0347,-0.0138 -0.0501,-0.0188 -0.0157,-0.0047 -0.0298,-0.0072 -0.042,-0.0076 -0.0229,0.0004 -0.0433,0.0064 -0.0618,0.0176 -0.0185,0.0117 -0.0329,0.0266 -0.044,0.0458 -0.0106,0.0188 -0.0162,0.0398 -0.0165,0.0627 0.0003,0.0286 0.0112,0.0555 0.0325,0.0813 0.0214,0.0254 0.0505,0.0483 0.0876,0.0683 0.0367,0.02 0.0787,0.0358 0.1261,0.0474 0.0469,0.0113 0.0969,0.0173 0.1489,0.0175 0.0581,-0.0002 0.1113,-0.0082 0.1599,-0.0238 0.0486,-0.0157 0.0906,-0.038 0.1264,-0.0668 0.0358,-0.0288 0.0633,-0.0628 0.0827,-0.1022 0.0198,-0.0395 0.0296,-0.0831 0.0298,-0.1309 0,-0.03 -0.0049,-0.0592 -0.0149,-0.0874 -0.0101,-0.028 -0.0249,-0.054 -0.044,-0.0778 -0.0188,-0.0238 -0.042,-0.0448 -0.069,-0.0623 -0.0166,-0.0098 -0.0335,-0.0192 -0.0507,-0.028 -0.0173,-0.0091 -0.0374,-0.0182 -0.0603,-0.0282 -0.0229,-0.0098 -0.0511,-0.0214 -0.0847,-0.0341 -0.0426,-0.0167 -0.0755,-0.0305 -0.0981,-0.0412 -0.0226,-0.011 -0.0382,-0.0213 -0.0464,-0.0313 -0.0082,-0.0098 -0.0122,-0.0213 -0.0116,-0.0349 0.0007,-0.0182 0.0087,-0.0329 0.0251,-0.0445 0.0163,-0.0113 0.0372,-0.0173 0.0633,-0.0175 0.011,0 0.0239,0.0013 0.0389,0.004 0.0151,0.0029 0.0313,0.0066 0.0482,0.012 0.0171,0.0049 0.0336,0.0109 0.0503,0.0178zm0.4655 -0.0018l0 0.6266c0.0004,0.0272 0.0066,0.052 0.0191,0.0739 0.0126,0.022 0.0295,0.0395 0.0509,0.0527 0.0216,0.0131 0.0458,0.0197 0.073,0.02 0.0267,-0.0003 0.0508,-0.0069 0.0722,-0.02 0.0216,-0.0132 0.0385,-0.0307 0.0514,-0.0527 0.0125,-0.0219 0.0191,-0.0467 0.0194,-0.0739l-0.0019 -0.6248 0.0866 0c0.0248,-0.0003 0.0471,-0.0062 0.0667,-0.0178 0.0198,-0.0116 0.0355,-0.0271 0.0471,-0.0465 0.0116,-0.0197 0.0176,-0.0414 0.0178,-0.0655 -0.0002,-0.0241 -0.0062,-0.0461 -0.0178,-0.0655 -0.0116,-0.0195 -0.0269,-0.0349 -0.0464,-0.0464 -0.0197,-0.0116 -0.0414,-0.0176 -0.0655,-0.018l-0.0885 0 0.0019 -0.1693c-0.0003,-0.0266 -0.0069,-0.0507 -0.0194,-0.0727 -0.0129,-0.0217 -0.0298,-0.0393 -0.0514,-0.052 -0.0214,-0.0133 -0.0455,-0.0198 -0.0722,-0.0202 -0.0272,0.0004 -0.0517,0.0069 -0.0734,0.0202 -0.0219,0.0127 -0.0392,0.0303 -0.0517,0.052 -0.0128,0.022 -0.0195,0.0461 -0.0197,0.0727l0 0.1693 -0.0471 0c-0.0254,0.0004 -0.048,0.006 -0.0681,0.0173 -0.02,0.0113 -0.036,0.0267 -0.0476,0.0458 -0.0116,0.0191 -0.0176,0.0407 -0.0179,0.0649 0.0003,0.0236 0.0063,0.0452 0.0179,0.0646 0.0116,0.0195 0.0276,0.0351 0.0476,0.0471 0.0201,0.0119 0.0427,0.0178 0.0681,0.0182l0.0489 0zm1.2313 -0.1656c-0.0238,-0.0217 -0.0456,-0.0396 -0.0652,-0.0537 -0.0202,-0.014 -0.0393,-0.0253 -0.0584,-0.0335 -0.0188,-0.0078 -0.0388,-0.0138 -0.0599,-0.0169 -0.0209,-0.0035 -0.0445,-0.0051 -0.0705,-0.0051 -0.0653,0.0004 -0.1261,0.0142 -0.1819,0.0408 -0.0558,0.0267 -0.1051,0.0643 -0.1468,0.1119 -0.042,0.048 -0.0749,0.1041 -0.0984,0.1681 -0.0236,0.0637 -0.0354,0.1333 -0.0358,0.2079 0.0004,0.0737 0.0122,0.1424 0.0355,0.2055 0.0231,0.0633 0.0558,0.1188 0.0974,0.1661 0.0418,0.0474 0.0903,0.0845 0.1455,0.111 0.0556,0.0267 0.1158,0.0402 0.1807,0.0405 0.0276,0 0.0521,-0.0016 0.0737,-0.0053 0.0213,-0.0037 0.0417,-0.0101 0.0605,-0.0188 0.0186,-0.0091 0.0377,-0.0213 0.0568,-0.0371 0.0194,-0.0156 0.0401,-0.0354 0.063,-0.0592 0.0257,0.037 0.0505,0.0659 0.0743,0.0868 0.0239,0.0208 0.0449,0.0315 0.0631,0.0318 0.0273,-0.0003 0.0518,-0.0063 0.0736,-0.0183 0.0216,-0.0122 0.0389,-0.0282 0.0518,-0.0482 0.0125,-0.0201 0.0191,-0.0423 0.0194,-0.0672l0 -0.7902c-0.0003,-0.0229 -0.0069,-0.0436 -0.0194,-0.0624 -0.0129,-0.0184 -0.0298,-0.0335 -0.0514,-0.0446 -0.0213,-0.0112 -0.0455,-0.0169 -0.0722,-0.0172 -0.0182,0.0003 -0.0392,0.0101 -0.0627,0.0289 -0.0238,0.0191 -0.048,0.0452 -0.0727,0.0784zm-0.2202 0.158c0.0418,0.0003 0.0781,0.0113 0.1095,0.0329 0.031,0.022 0.0555,0.0525 0.0727,0.0913 0.0175,0.0392 0.0264,0.085 0.0267,0.1373 -0.0003,0.0512 -0.0094,0.0963 -0.027,0.1352 -0.0176,0.0389 -0.042,0.069 -0.0734,0.091 -0.0313,0.0219 -0.0674,0.0332 -0.1085,0.0335 -0.0398,-0.0003 -0.0752,-0.0116 -0.1063,-0.0339 -0.0311,-0.0223 -0.0555,-0.0526 -0.0734,-0.0915 -0.0178,-0.0389 -0.0269,-0.0838 -0.0273,-0.1343 0.0004,-0.0517 0.0095,-0.0971 0.0271,-0.1363 0.0174,-0.0393 0.0416,-0.0696 0.0727,-0.0916 0.031,-0.022 0.0668,-0.0333 0.1072,-0.0336zm0.9623 -0.158c-0.0247,-0.0323 -0.0486,-0.0581 -0.0709,-0.0768 -0.0225,-0.0186 -0.0416,-0.0283 -0.057,-0.0286 -0.0273,0.0003 -0.052,0.0072 -0.074,0.0207 -0.022,0.0132 -0.0396,0.031 -0.0527,0.0533 -0.0132,0.0226 -0.0198,0.0474 -0.02,0.0747l0 0.7507c0.0002,0.0273 0.0068,0.052 0.02,0.074 0.0129,0.0219 0.0304,0.0395 0.052,0.0527 0.022,0.0132 0.0461,0.0198 0.0728,0.0201 0.0273,-0.0003 0.052,-0.0069 0.074,-0.0201 0.022,-0.0129 0.0395,-0.0304 0.0527,-0.052 0.0131,-0.022 0.0198,-0.0462 0.02,-0.0729l0 -0.4928c0.0004,-0.0311 0.0079,-0.0596 0.0229,-0.0851 0.0151,-0.0254 0.0352,-0.0458 0.0603,-0.0608 0.0251,-0.0153 0.0533,-0.0233 0.0843,-0.0235 0.0317,0.0002 0.0602,0.0082 0.0856,0.0235 0.0258,0.015 0.0458,0.0354 0.0609,0.0608 0.0151,0.0255 0.0225,0.054 0.0229,0.0851l0 0.4948c0.0002,0.0266 0.0071,0.0507 0.0207,0.0727 0.0131,0.0216 0.0309,0.0392 0.0536,0.052 0.0222,0.0132 0.0471,0.0198 0.0743,0.0201 0.0266,-0.0003 0.0508,-0.0069 0.0727,-0.0201 0.0217,-0.0131 0.0393,-0.0307 0.0522,-0.0526 0.0131,-0.0219 0.0196,-0.0468 0.02,-0.0741l0 -0.5419c0,-0.0394 -0.0035,-0.0745 -0.0104,-0.1059 -0.0069,-0.0311 -0.0178,-0.0596 -0.0325,-0.085 -0.0149,-0.0254 -0.0336,-0.0489 -0.0569,-0.0706 -0.0241,-0.0225 -0.0507,-0.0416 -0.0803,-0.057 -0.0297,-0.0155 -0.0607,-0.027 -0.0937,-0.0346 -0.033,-0.0078 -0.0664,-0.0118 -0.1006,-0.0118 -0.028,0 -0.0559,0.0028 -0.0838,0.0084 -0.0279,0.0056 -0.0543,0.0135 -0.079,0.0238 -0.0247,0.0104 -0.0464,0.0229 -0.0649,0.0374 -0.0056,0.0037 -0.012,0.0091 -0.0192,0.0156 -0.0071,0.007 -0.0157,0.0155 -0.026,0.0258zm1.5003 -0.0114c-0.0228,-0.0191 -0.0435,-0.0351 -0.0624,-0.0479 -0.0187,-0.0126 -0.037,-0.0226 -0.0545,-0.0298 -0.018,-0.0075 -0.0364,-0.0126 -0.0556,-0.0157 -0.0194,-0.0031 -0.0407,-0.0044 -0.0645,-0.0044 -0.066,0.0004 -0.1267,0.0138 -0.1825,0.0402 -0.0562,0.0263 -0.1052,0.0633 -0.1472,0.1107 -0.0416,0.0474 -0.0743,0.1025 -0.0978,0.1659 -0.0232,0.0634 -0.035,0.1319 -0.0354,0.2063 0.0004,0.0737 0.0122,0.1427 0.0354,0.206 0.0232,0.0636 0.0558,0.1196 0.0973,0.1675 0.0414,0.048 0.0899,0.0853 0.1452,0.1122 0.0551,0.027 0.115,0.0409 0.1793,0.0412 0.0279,0 0.0527,-0.0016 0.0744,-0.0051 0.0216,-0.0034 0.0416,-0.0097 0.0605,-0.0185 0.0185,-0.0087 0.0372,-0.021 0.0563,-0.0367 0.0193,-0.016 0.0402,-0.0358 0.0629,-0.0602 0.0247,0.038 0.0489,0.0675 0.0723,0.0885 0.0236,0.021 0.044,0.0317 0.0612,0.032 0.0279,-0.0003 0.053,-0.0069 0.0749,-0.0201 0.022,-0.0129 0.0393,-0.0304 0.0522,-0.052 0.0127,-0.022 0.0194,-0.0462 0.0196,-0.0729l0 -1.1985c-0.0002,-0.0267 -0.0069,-0.051 -0.0194,-0.073 -0.0128,-0.0223 -0.03,-0.0398 -0.0517,-0.0534 -0.0219,-0.0131 -0.0465,-0.02 -0.0737,-0.0204 -0.0273,0.0004 -0.052,0.0069 -0.074,0.0202 -0.022,0.0131 -0.0396,0.0307 -0.0527,0.0527 -0.0132,0.0218 -0.0198,0.0467 -0.0201,0.0739l0 0.3913zm-0.2032 0.1694c0.0411,0.0003 0.0772,0.0116 0.1085,0.0336 0.0314,0.022 0.0558,0.0527 0.0734,0.0921 0.0176,0.0393 0.0267,0.0854 0.027,0.1378 -0.0003,0.0498 -0.0094,0.0941 -0.0274,0.1323 -0.0181,0.0383 -0.0429,0.0683 -0.0743,0.0903 -0.0316,0.0216 -0.068,0.0329 -0.109,0.0332 -0.0399,-0.0003 -0.0753,-0.0116 -0.1064,-0.0338 -0.031,-0.0223 -0.0555,-0.0527 -0.0734,-0.0916 -0.0178,-0.0389 -0.0269,-0.0837 -0.0272,-0.1342 0.0003,-0.0502 0.0096,-0.0944 0.0279,-0.1333 0.0182,-0.0392 0.0426,-0.0696 0.074,-0.0922 0.0313,-0.0222 0.0671,-0.0339 0.1069,-0.0342z"/>
    <path id="_391864048" class="fil2" d="M22.6799 15.9525c-0.0238,-0.0217 -0.0456,-0.0396 -0.0653,-0.0537 -0.0201,-0.014 -0.0392,-0.0253 -0.0583,-0.0335 -0.0189,-0.0078 -0.0389,-0.0138 -0.0599,-0.0169 -0.021,-0.0035 -0.0446,-0.0051 -0.0706,-0.0051 -0.0652,0.0004 -0.1261,0.0142 -0.1819,0.0408 -0.0558,0.0267 -0.105,0.0643 -0.1468,0.1119 -0.042,0.048 -0.0749,0.1041 -0.0983,0.1681 -0.0236,0.0637 -0.0355,0.1333 -0.0358,0.2079 0.0003,0.0737 0.0122,0.1424 0.0354,0.2055 0.0231,0.0633 0.0558,0.1188 0.0975,0.1661 0.0417,0.0474 0.0903,0.0845 0.1455,0.111 0.0556,0.0267 0.1157,0.0402 0.1806,0.0405 0.0276,0 0.0522,-0.0016 0.0738,-0.0053 0.0213,-0.0037 0.0416,-0.0101 0.0605,-0.0188 0.0185,-0.0091 0.0376,-0.0213 0.0567,-0.0371 0.0195,-0.0156 0.0402,-0.0354 0.0631,-0.0592 0.0256,0.037 0.0505,0.0659 0.0743,0.0868 0.0238,0.0208 0.0449,0.0315 0.063,0.0318 0.0273,-0.0003 0.0518,-0.0063 0.0737,-0.0183 0.0216,-0.0122 0.0389,-0.0282 0.0518,-0.0482 0.0125,-0.0201 0.019,-0.0423 0.0194,-0.0672l0 -0.7902c-0.0004,-0.0229 -0.0069,-0.0436 -0.0194,-0.0624 -0.0129,-0.0184 -0.0298,-0.0335 -0.0515,-0.0446 -0.0213,-0.0112 -0.0454,-0.0169 -0.0721,-0.0172 -0.0182,0.0003 -0.0392,0.0101 -0.0627,0.0289 -0.0238,0.0191 -0.048,0.0452 -0.0727,0.0784zm-0.2202 0.158c0.0417,0.0003 0.0781,0.0113 0.1095,0.0329 0.0309,0.022 0.0554,0.0525 0.0727,0.0913 0.0175,0.0392 0.0263,0.085 0.0267,0.1373 -0.0004,0.0512 -0.0094,0.0963 -0.027,0.1352 -0.0176,0.0389 -0.042,0.069 -0.0734,0.091 -0.0313,0.0219 -0.0675,0.0332 -0.1085,0.0335 -0.0398,-0.0003 -0.0753,-0.0116 -0.1063,-0.0339 -0.0311,-0.0223 -0.0555,-0.0526 -0.0735,-0.0915 -0.0178,-0.0389 -0.0269,-0.0838 -0.0272,-0.1343 0.0003,-0.0517 0.0094,-0.0971 0.027,-0.1363 0.0175,-0.0393 0.0417,-0.0696 0.0727,-0.0916 0.0311,-0.022 0.0669,-0.0333 0.1073,-0.0336zm0.9773 -0.143c-0.0276,-0.0379 -0.0536,-0.0674 -0.0783,-0.0884 -0.0245,-0.021 -0.0456,-0.0317 -0.0628,-0.032 -0.0273,0.0003 -0.052,0.0069 -0.0746,0.0195 -0.0223,0.0125 -0.0401,0.0294 -0.0534,0.0507 -0.0134,0.0214 -0.0203,0.0449 -0.0206,0.0709l0 0.7601c0.0003,0.0267 0.0068,0.0509 0.02,0.0722 0.0132,0.0216 0.0308,0.0385 0.0527,0.0514 0.022,0.0125 0.0467,0.0191 0.074,0.0194 0.0267,-0.0003 0.0509,-0.0069 0.0727,-0.02 0.0218,-0.0129 0.0393,-0.0305 0.0521,-0.0521 0.0132,-0.022 0.0198,-0.046 0.0201,-0.0727l0 -0.4327c0.0003,-0.0236 0.0091,-0.0468 0.0261,-0.0703 0.0172,-0.0233 0.0413,-0.0455 0.0727,-0.0658 0.0311,-0.0207 0.0678,-0.0387 0.1101,-0.054 0.0229,-0.0078 0.0404,-0.0145 0.0527,-0.0194 0.0122,-0.0054 0.0219,-0.01 0.0288,-0.0151 0.0069,-0.0047 0.0135,-0.0109 0.0201,-0.0182 0.0103,-0.0113 0.0178,-0.0236 0.0229,-0.0367 0.0047,-0.0132 0.0071,-0.0272 0.0071,-0.0423 -0.0002,-0.0286 -0.0069,-0.0536 -0.0197,-0.0756 -0.0128,-0.0222 -0.0304,-0.0395 -0.0526,-0.052 -0.0224,-0.0126 -0.0477,-0.0189 -0.0763,-0.0192 -0.0232,0.0003 -0.047,0.006 -0.0718,0.017 -0.0248,0.0109 -0.0471,0.026 -0.0674,0.0451 -0.0094,0.0085 -0.0188,0.0178 -0.0279,0.028 -0.0094,0.01 -0.0182,0.0209 -0.0267,0.0322zm1.062 -0.0264c-0.0228,-0.0191 -0.0435,-0.0351 -0.0624,-0.0479 -0.0188,-0.0126 -0.037,-0.0226 -0.0545,-0.0298 -0.018,-0.0075 -0.0364,-0.0126 -0.0556,-0.0157 -0.0194,-0.0031 -0.0407,-0.0044 -0.0646,-0.0044 -0.0659,0.0004 -0.1266,0.0138 -0.1824,0.0402 -0.0562,0.0263 -0.1052,0.0633 -0.1472,0.1107 -0.0416,0.0474 -0.0743,0.1025 -0.0978,0.1659 -0.0232,0.0634 -0.0351,0.1319 -0.0354,0.2063 0.0003,0.0737 0.0122,0.1427 0.0354,0.206 0.0232,0.0636 0.0558,0.1196 0.0973,0.1675 0.0414,0.048 0.0899,0.0853 0.1451,0.1122 0.0552,0.027 0.1151,0.0409 0.1794,0.0412 0.0279,0 0.0527,-0.0016 0.0743,-0.0051 0.0217,-0.0034 0.0417,-0.0097 0.0606,-0.0185 0.0185,-0.0087 0.0372,-0.021 0.0563,-0.0367 0.0192,-0.016 0.0402,-0.0358 0.0628,-0.0602 0.0248,0.038 0.0489,0.0675 0.0724,0.0885 0.0236,0.021 0.044,0.0317 0.0612,0.032 0.0279,-0.0003 0.0529,-0.0069 0.0749,-0.0201 0.022,-0.0129 0.0393,-0.0304 0.0521,-0.052 0.0128,-0.022 0.0195,-0.0462 0.0197,-0.0729l0 -1.1985c-0.0002,-0.0267 -0.0069,-0.051 -0.0194,-0.073 -0.0128,-0.0223 -0.0301,-0.0398 -0.0517,-0.0534 -0.022,-0.0131 -0.0465,-0.02 -0.0737,-0.0204 -0.0273,0.0004 -0.052,0.0069 -0.074,0.0202 -0.022,0.0131 -0.0396,0.0307 -0.0527,0.0527 -0.0132,0.0218 -0.0198,0.0467 -0.0201,0.0739l0 0.3913zm-0.2032 0.1694c0.041,0.0003 0.0772,0.0116 0.1085,0.0336 0.0314,0.022 0.0558,0.0527 0.0734,0.0921 0.0176,0.0393 0.0267,0.0854 0.027,0.1378 -0.0003,0.0498 -0.0094,0.0941 -0.0274,0.1323 -0.0182,0.0383 -0.0429,0.0683 -0.0743,0.0903 -0.0316,0.0216 -0.068,0.0329 -0.1091,0.0332 -0.0398,-0.0003 -0.0752,-0.0116 -0.1063,-0.0338 -0.031,-0.0223 -0.0555,-0.0527 -0.0734,-0.0916 -0.0178,-0.0389 -0.0269,-0.0837 -0.0272,-0.1342 0.0003,-0.0502 0.0096,-0.0944 0.0279,-0.1333 0.0182,-0.0392 0.0426,-0.0696 0.074,-0.0922 0.0313,-0.0222 0.0671,-0.0339 0.1069,-0.0342z"/>
   </g>
   <polygon class="fil3" points="4.818,19.2911 6.4036,16.8812 8.0016,19.2911 "/>
   <polygon class="fil3" points="23.7484,19.2911 25.3339,16.8812 26.932,19.2911 "/>
   <polygon class="fil3" points="14.4892,4.2858 16.0747,1.8759 17.6728,4.2858 "/>
   <path class="fil4" d="M7.1313 8.9648c0,-0.468 0.0858,-0.8913 0.2573,-1.2697 0.1718,-0.3784 0.397,-0.6982 0.6759,-0.9596 0.279,-0.2614 0.5986,-0.4623 0.9589,-0.6028 0.3605,-0.1404 0.7338,-0.2106 1.1198,-0.2106 0.4549,0 0.8519,0.0702 1.1908,0.2106 0.339,0.1405 0.6221,0.3355 0.8496,0.5852 0.2273,0.2496 0.3968,0.5442 0.5084,0.8836 0.1116,0.3394 0.1673,0.708 0.1673,1.106 0,0.156 -0.0086,0.2983 -0.0257,0.427 -0.0173,0.1288 -0.0343,0.2283 -0.0515,0.2985l-3.823 0c0.0857,0.4448 0.2767,0.7666 0.5729,0.9655 0.2959,0.1989 0.6585,0.2984 1.0875,0.2984 0.4548,0 0.914,-0.1287 1.3773,-0.3862l0.6307 1.0416c-0.326,0.2028 -0.6885,0.3629 -1.0875,0.4799 -0.399,0.117 -0.7917,0.1755 -1.1778,0.1755 -0.4548,0 -0.8796,-0.0683 -1.2745,-0.2048 -0.3946,-0.1365 -0.7379,-0.3355 -1.0297,-0.5969 -0.2918,-0.2614 -0.5191,-0.5792 -0.6821,-0.9537 -0.1632,-0.3745 -0.2446,-0.8037 -0.2446,-1.2875zm4.119 -0.5967c0,-0.3355 -0.0815,-0.6087 -0.2445,-0.8193 -0.1632,-0.2107 -0.4377,-0.316 -0.8238,-0.316 -0.3004,0 -0.5643,0.0917 -0.7917,0.275 -0.2274,0.1834 -0.3754,0.4701 -0.4442,0.8603l2.3042 0zm4.2491 3.9625l0 1.7344 -1.725 0 0 -8.1335 1.4081 0 0.1172 0.5861 0.047 0c0.2269,-0.2074 0.4831,-0.3807 0.7686,-0.5203 0.2854,-0.1396 0.5808,-0.2093 0.8858,-0.2093 0.3521,0 0.6688,0.0718 0.9505,0.2153 0.2815,0.1436 0.5201,0.3469 0.7156,0.61 0.1956,0.2631 0.3462,0.5801 0.4518,0.9509 0.1055,0.3708 0.1583,0.7834 0.1583,1.2379 0,0.5104 -0.0683,0.9629 -0.2052,1.3577 -0.1369,0.3946 -0.3208,0.7295 -0.5515,1.0046 -0.2308,0.2751 -0.4929,0.4845 -0.7861,0.628 -0.2934,0.1435 -0.5965,0.2153 -0.9094,0.2153 -0.2504,0 -0.4928,-0.0538 -0.7274,-0.1615 -0.2347,-0.1077 -0.4537,-0.2612 -0.6571,-0.4604l0.0588 0.9448zm0 -2.141c0.1563,0.1435 0.3128,0.2432 0.4691,0.299 0.1565,0.0559 0.3091,0.0837 0.4577,0.0837 0.2972,0 0.5515,-0.1374 0.7627,-0.4125 0.2111,-0.2752 0.3167,-0.7197 0.3167,-1.3337 0,-1.0685 -0.3363,-1.6028 -1.0091,-1.6028 -0.3363,0 -0.6687,0.1795 -0.9971,0.5382l0 2.4281zm5.1676 -0.1076c0.2564,0.2073 0.5014,0.3627 0.7351,0.4664 0.2337,0.1037 0.4711,0.1556 0.7124,0.1556 0.2487,0 0.4297,-0.0439 0.5428,-0.1317 0.113,-0.0876 0.1696,-0.2112 0.1696,-0.3708 0,-0.0956 -0.032,-0.1813 -0.0962,-0.2571 -0.0641,-0.0757 -0.1507,-0.1456 -0.26,-0.2093 -0.1094,-0.0638 -0.2318,-0.1216 -0.3675,-0.1734 -0.1357,-0.0519 -0.2752,-0.1096 -0.4184,-0.1735 -0.1734,-0.0718 -0.3468,-0.1554 -0.5202,-0.2511 -0.1734,-0.0958 -0.3318,-0.2133 -0.4749,-0.3529 -0.1432,-0.1396 -0.2601,-0.303 -0.3506,-0.4904 -0.0905,-0.1874 -0.1357,-0.4047 -0.1357,-0.6518 0,-0.2712 0.0509,-0.5224 0.1526,-0.7536 0.1018,-0.2313 0.2469,-0.4266 0.4354,-0.5861 0.1885,-0.1595 0.4147,-0.2851 0.6786,-0.3768 0.2638,-0.0917 0.5579,-0.1375 0.882,-0.1375 0.4297,0 0.8066,0.0778 1.1308,0.2332 0.3241,0.1556 0.6068,0.329 0.8481,0.5203l-0.7463 1.0526c-0.2036,-0.1595 -0.4033,-0.283 -0.5994,-0.3708 -0.1959,-0.0877 -0.392,-0.1315 -0.588,-0.1315 -0.4223,0 -0.6333,0.1554 -0.6333,0.4664 0,0.0957 0.0302,0.1774 0.0906,0.2452 0.0602,0.0677 0.1413,0.1295 0.2431,0.1854 0.1017,0.0558 0.2186,0.1097 0.3504,0.1615 0.132,0.0519 0.2696,0.1056 0.4128,0.1615 0.1809,0.0717 0.3599,0.1535 0.5371,0.2452 0.1772,0.0917 0.3393,0.2052 0.4863,0.3409 0.1471,0.1355 0.2658,0.3009 0.3562,0.4963 0.0905,0.1954 0.1358,0.4286 0.1358,0.6998 0,0.271 -0.0491,0.5222 -0.1472,0.7534 -0.0979,0.2313 -0.2449,0.4326 -0.4408,0.6041 -0.1961,0.1714 -0.4373,0.307 -0.7238,0.4067 -0.2865,0.0996 -0.6182,0.1495 -0.9951,0.1495 -0.3694,0 -0.7483,-0.0758 -1.1365,-0.2273 -0.3883,-0.1515 -0.7256,-0.3508 -1.0121,-0.5981l0.7463 -1.1003z"/>
  </g>
 </g>
</svg>
