<?xml version="1.0" encoding="UTF-8"?>
<!DOCTYPE svg PUBLIC "-//W3C//DTD SVG 1.1//EN" "http://www.w3.org/Graphics/SVG/1.1/DTD/svg11.dtd">
<!-- Creator: CorelDRAW -->
<svg xmlns="http://www.w3.org/2000/svg" xml:space="preserve" width="50mm" height="35mm" style="shape-rendering:geometricPrecision; text-rendering:geometricPrecision; image-rendering:optimizeQuality; fill-rule:evenodd; clip-rule:evenodd"
viewBox="0 0 50 35"
 xmlns:xlink="http://www.w3.org/1999/xlink">
 <defs>
  <style type="text/css">
   <![CDATA[
    .str0 {stroke:black;stroke-width:0.0762}
    .fil1 {fill:#826794}
    .fil0 {fill:#FEFEFE;fill-rule:nonzero}
   ]]>
  </style>
 </defs>
 <g id="Layer_x0020_1">
  <metadata id="CorelCorpID_0Corel-Layer"/>
  <path class="fil0 str0" d="M5.2445 3.3889l39.5111 0c0.7793,0 1.4111,0.6318 1.4111,1.4111l0 25.4c0,0.7793 -0.6318,1.4111 -1.4111,1.4111l-39.5111 0c-0.7793,0 -1.4112,-0.6318 -1.4112,-1.4111l0 -25.4c0,-0.7793 0.6319,-1.4111 1.4112,-1.4111z"/>
  <path class="fil1" d="M22.2244 17.0011l-1.2051 -3.0848 0.8302 0 0.5631 1.5747 0.1633 0.5254c0.0434,-0.1337 0.0713,-0.2221 0.0819,-0.2647 0.0268,-0.0873 0.0547,-0.1745 0.0844,-0.2607l0.569 -1.5747 0.8141 0 -1.189 3.0848 -0.7119 0zm2.3852 -3.5033l0 -0.7555 0.7907 0 0 0.7555 -0.7907 0zm0 3.5033l0 -3.0848 0.7907 0 0 3.0848 -0.7907 0zm2.3591 0l-0.7907 0 0 -3.0848 0.7341 0 0 0.4382c0.1257,-0.2072 0.2392,-0.344 0.3392,-0.4093 0.1009,-0.0655 0.2144,-0.0992 0.3421,-0.0992 0.1807,0 0.3537,0.0515 0.5209,0.1546l-0.2453 0.711c-0.1325,-0.0882 -0.2566,-0.133 -0.3708,-0.133 -0.1115,0 -0.2047,0.0308 -0.2814,0.0942 -0.078,0.0626 -0.1375,0.1766 -0.1816,0.3411 -0.0443,0.1646 -0.0665,0.5098 -0.0665,1.0343l0 0.9529zm3.2173 -0.9818l0.789 0.1359c-0.1017,0.2985 -0.2611,0.5257 -0.4804,0.6813 -0.2183,0.1566 -0.492,0.234 -0.8206,0.234 -0.5199,0 -0.9044,-0.1745 -1.1542,-0.5255 -0.1971,-0.2807 -0.2959,-0.6355 -0.2959,-1.0629 0,-0.5118 0.1296,-0.9124 0.3891,-1.2018 0.2585,-0.2896 0.5862,-0.4343 0.982,-0.4343 0.4452,0 0.7958,0.1517 1.0533,0.4551 0.2566,0.3033 0.3795,0.7675 0.3691,1.3932l-1.9825 0c0.0057,0.2419 0.0691,0.4303 0.1912,0.564 0.122,0.1349 0.2749,0.2024 0.4566,0.2024 0.1238,0 0.2277,-0.0347 0.3122,-0.1041 0.0844,-0.0703 0.1489,-0.1824 0.1911,-0.3373zm0.0453 -0.8249c-0.0058,-0.2368 -0.0643,-0.4163 -0.1769,-0.5394 -0.1122,-0.1229 -0.2498,-0.1843 -0.4112,-0.1843 -0.173,0 -0.3151,0.0653 -0.4277,0.1954 -0.1125,0.1289 -0.1681,0.3052 -0.1662,0.5283l1.182 0zm1.3713 -1.2781l0.7293 0 0 0.4204c0.2607,-0.3272 0.5717,-0.4907 0.9324,-0.4907 0.1913,0 0.3575,0.0407 0.4977,0.1219 0.1412,0.0814 0.2564,0.2043 0.3467,0.3688 0.1308,-0.1645 0.273,-0.2874 0.4248,-0.3688 0.152,-0.0812 0.3144,-0.1219 0.4873,-0.1219 0.219,0 0.4055,0.0464 0.5573,0.1387 0.1518,0.0913 0.2653,0.2272 0.3402,0.4045 0.0549,0.1321 0.0819,0.3453 0.0819,0.6397l0 1.9722 -0.7909 0 0 -1.7631c0,-0.3062 -0.0268,-0.5035 -0.0817,-0.5929 -0.0733,-0.1159 -0.1855,-0.1744 -0.3376,-0.1744 -0.1113,0 -0.2151,0.0347 -0.3129,0.105 -0.0971,0.0694 -0.1672,0.1715 -0.2106,0.3065 -0.0433,0.1349 -0.0655,0.3469 -0.0655,0.6374l0 1.4815 -0.7907 0 0 -1.6906c0,-0.3004 -0.0145,-0.4939 -0.0424,-0.5811 -0.0277,-0.0872 -0.0721,-0.1518 -0.1309,-0.1944 -0.0595,-0.0427 -0.139,-0.0643 -0.2411,-0.0643 -0.1219,0 -0.2313,0.0337 -0.3284,0.1021 -0.0981,0.0675 -0.1682,0.1655 -0.2106,0.2935 -0.0424,0.1279 -0.0633,0.3392 -0.0633,0.6355l0 1.4993 -0.791 0 0 -3.0848zm6.9172 2.103l0.789 0.1359c-0.1019,0.2985 -0.2614,0.5257 -0.4806,0.6813 -0.2181,0.1566 -0.492,0.234 -0.8206,0.234 -0.5199,0 -0.9042,-0.1745 -1.154,-0.5255 -0.1971,-0.2807 -0.2961,-0.6355 -0.2961,-1.0629 0,-0.5118 0.1298,-0.9124 0.3893,-1.2018 0.2583,-0.2896 0.5859,-0.4343 0.982,-0.4343 0.445,0 0.7958,0.1517 1.0533,0.4551 0.2566,0.3033 0.3795,0.7675 0.3689,1.3932l-1.9823 0c0.0055,0.2419 0.0691,0.4303 0.1912,0.564 0.122,0.1349 0.2747,0.2024 0.4564,0.2024 0.1238,0 0.2276,-0.0347 0.3122,-0.1041 0.0846,-0.0703 0.1489,-0.1824 0.1913,-0.3373zm0.0453 -0.8249c-0.0058,-0.2368 -0.0646,-0.4163 -0.1771,-0.5394 -0.1123,-0.1229 -0.2498,-0.1843 -0.411,-0.1843 -0.1732,0 -0.3154,0.0653 -0.4279,0.1954 -0.1123,0.1289 -0.1682,0.3052 -0.1662,0.5283l1.1822 0zm4.1504 1.8067l-0.791 0 0 -1.5747c0,-0.3332 -0.0173,-0.5483 -0.0508,-0.6464 -0.0337,-0.0971 -0.0894,-0.1735 -0.1653,-0.2281 -0.0759,-0.0535 -0.1672,-0.0812 -0.2739,-0.0812 -0.1376,0 -0.2605,0.0385 -0.3689,0.1159 -0.1086,0.0783 -0.1838,0.1804 -0.224,0.3083 -0.0403,0.128 -0.0607,0.3641 -0.0607,0.7091l0 1.3971 -0.7908 0 0 -3.0848 0.7344 0 0 0.4532c0.2611,-0.3491 0.59,-0.5235 0.9858,-0.5235 0.174,0 0.3342,0.0327 0.4785,0.097 0.1441,0.0656 0.2537,0.148 0.3277,0.2489 0.0739,0.1012 0.1257,0.2152 0.1549,0.3431 0.0296,0.1279 0.0441,0.3105 0.0441,0.5483l0 1.9178zm2.1729 -3.0848l0 0.6505 -0.5402 0 0 1.2434c0,0.2518 0.0048,0.3987 0.0154,0.4402 0.0106,0.0417 0.0338,0.0754 0.0701,0.1031 0.0364,0.027 0.0817,0.0407 0.1335,0.0407 0.074,0 0.1797,-0.0267 0.3192,-0.0783l0.0673 0.6327c-0.1846,0.0812 -0.3923,0.1219 -0.6257,0.1219 -0.1422,0 -0.2708,-0.0248 -0.3853,-0.0733 -0.1144,-0.0496 -0.198,-0.1142 -0.2517,-0.1925 -0.054,-0.0783 -0.0904,-0.1843 -0.1116,-0.3182 -0.0164,-0.0942 -0.025,-0.2865 -0.025,-0.5751l0 -1.3446 -0.3631 0 0 -0.6505 0.3631 0 0 -0.6136 0.7938 -0.4761 0 1.0897 0.5402 0zm-34.0048 10.2937l0 -6.2303 1.1572 0 0 2.244c0.3571,-0.4192 0.7787,-0.6295 1.268,-0.6295 0.5329,0 0.9728,0.2002 1.3229,0.5977 0.3486,0.3975 0.5228,0.969 0.5228,1.7146 0,0.7703 -0.1785,1.3649 -0.5341,1.7812 -0.3556,0.4163 -0.7874,0.6237 -1.2947,0.6237 -0.2504,0 -0.4964,-0.0636 -0.7394,-0.1927 -0.2434,-0.1291 -0.453,-0.3192 -0.6286,-0.5717l0 0.663 -1.0741 0zm1.1485 -2.3543c0,0.4672 0.0718,0.8124 0.214,1.0372 0.2009,0.3178 0.4666,0.4758 0.7998,0.4758 0.2542,0 0.4725,-0.1132 0.6522,-0.338 0.18,-0.2248 0.2699,-0.5802 0.2699,-1.0647 0,-0.515 -0.0914,-0.8878 -0.2728,-1.1157 -0.1797,-0.2276 -0.4117,-0.3423 -0.6958,-0.3423 -0.2768,0 -0.5076,0.1118 -0.6917,0.3337 -0.184,0.2233 -0.2756,0.5599 -0.2756,1.014zm4.9178 -0.7818l-1.0502 -0.1959c0.118,-0.4368 0.3207,-0.7586 0.6088,-0.969 0.2896,-0.2088 0.717,-0.3148 1.2851,-0.3148 0.5172,0 0.901,0.0638 1.1543,0.19 0.2515,0.1263 0.43,0.2858 0.5326,0.4802 0.1027,0.1944 0.1547,0.5498 0.1547,1.069l-0.0128 1.3942c0,0.3958 0.0183,0.6891 0.0564,0.8775 0.0364,0.1872 0.1067,0.3903 0.2082,0.6049l-1.1459 0c-0.0296,-0.0797 -0.0674,-0.1973 -0.111,-0.3525 -0.0183,-0.071 -0.0323,-0.1175 -0.041,-0.1407 -0.1983,0.1988 -0.4091,0.3467 -0.6339,0.4467 -0.225,0.0988 -0.4654,0.1479 -0.7213,0.1479 -0.45,0 -0.8056,-0.126 -1.0644,-0.377 -0.2599,-0.2525 -0.3893,-0.5715 -0.3893,-0.9574 0,-0.254 0.059,-0.4816 0.1771,-0.6818 0.1183,-0.2003 0.284,-0.3525 0.4965,-0.4583 0.2123,-0.106 0.5199,-0.1987 0.9206,-0.2785 0.5399,-0.1046 0.9152,-0.2031 1.1234,-0.2932l0 -0.1188c0,-0.2308 -0.0549,-0.3932 -0.1643,-0.4917 -0.1099,-0.0973 -0.3166,-0.1467 -0.6216,-0.1467 -0.2067,0 -0.3669,0.0421 -0.4823,0.1262 -0.1152,0.0827 -0.2079,0.2294 -0.2797,0.4397zm1.5479 0.969c-0.1477,0.0506 -0.3826,0.1116 -0.7042,0.1826 -0.3207,0.0711 -0.53,0.1407 -0.63,0.2075 -0.1504,0.1117 -0.2263,0.251 -0.2263,0.4206 0,0.1684 0.0605,0.312 0.1812,0.4339 0.121,0.1217 0.2744,0.1826 0.4611,0.1826 0.2099,0 0.4077,-0.071 0.5975,-0.2117 0.1407,-0.1072 0.2323,-0.2393 0.2757,-0.3961 0.031,-0.1014 0.045,-0.2959 0.045,-0.5816l0 -0.2378zm6.2575 2.1671l-1.1571 0 0 -2.3035c0,-0.4873 -0.0251,-0.8022 -0.0745,-0.9458 -0.0491,-0.1422 -0.1308,-0.254 -0.2419,-0.3337 -0.1108,-0.0783 -0.2445,-0.119 -0.4006,-0.119 -0.201,0 -0.3809,0.0566 -0.5399,0.1698 -0.1588,0.1147 -0.2684,0.2641 -0.3272,0.451 -0.0593,0.1872 -0.0889,0.5325 -0.0889,1.0372l0 2.044 -1.1569 0 0 -4.5127 1.074 0 0 0.6628c0.3826,-0.5106 0.8632,-0.7659 1.4427,-0.7659 0.2541,0 0.489,0.0479 0.6998,0.1421 0.2109,0.0959 0.3713,0.2161 0.4795,0.3643 0.1084,0.1479 0.1843,0.3146 0.2265,0.5018 0.0433,0.187 0.0645,0.4539 0.0645,0.8021l0 2.8055zm4.9881 -3.1783l-1.1415 0.2118c-0.0381,-0.2349 -0.1253,-0.412 -0.2616,-0.531 -0.1364,-0.1188 -0.3123,-0.1783 -0.5286,-0.1783 -0.2896,0 -0.519,0.1029 -0.6903,0.3075 -0.1715,0.2059 -0.2573,0.5497 -0.2573,1.0314 0,0.5353 0.0872,0.9138 0.2617,1.1345 0.1744,0.2204 0.4076,0.3305 0.7013,0.3305 0.2209,0 0.3992,-0.0638 0.5399,-0.1927 0.1407,-0.1292 0.239,-0.3511 0.2966,-0.6645l1.1374 0.1988c-0.1181,0.5382 -0.3457,0.9458 -0.6804,1.22 -0.3346,0.2754 -0.783,0.4117 -1.3467,0.4117 -0.6399,0 -1.1502,-0.2074 -1.5297,-0.6237 -0.3811,-0.4163 -0.571,-0.9936 -0.571,-1.7306 0,-0.7439 0.1913,-1.3243 0.5725,-1.7392 0.3821,-0.4163 0.8981,-0.6237 1.5491,-0.6237 0.5329,0 0.956,0.119 1.2709,0.3553 0.3137,0.2366 0.5399,0.5977 0.6777,1.0822zm1.7419 0.0422l-1.0502 -0.1959c0.1181,-0.4368 0.3204,-0.7586 0.6086,-0.969 0.2898,-0.2088 0.717,-0.3148 1.2851,-0.3148 0.5172,0 0.901,0.0638 1.1542,0.19 0.2518,0.1263 0.4301,0.2858 0.533,0.4802 0.1023,0.1944 0.1544,0.5498 0.1544,1.069l-0.0125 1.3942c0,0.3958 0.018,0.6891 0.0561,0.8775 0.0366,0.1872 0.1067,0.3903 0.2082,0.6049l-1.1459 0c-0.0296,-0.0797 -0.0674,-0.1973 -0.111,-0.3525 -0.0184,-0.071 -0.0323,-0.1175 -0.041,-0.1407 -0.198,0.1988 -0.4091,0.3467 -0.6339,0.4467 -0.2248,0.0988 -0.4652,0.1479 -0.7213,0.1479 -0.4498,0 -0.8054,-0.126 -1.0642,-0.377 -0.2602,-0.2525 -0.3895,-0.5715 -0.3895,-0.9574 0,-0.254 0.0592,-0.4816 0.1773,-0.6818 0.118,-0.2003 0.2838,-0.3525 0.4963,-0.4583 0.2122,-0.106 0.5201,-0.1987 0.9208,-0.2785 0.5397,-0.1046 0.9153,-0.2031 1.1232,-0.2932l0 -0.1188c0,-0.2308 -0.0547,-0.3932 -0.1643,-0.4917 -0.1096,-0.0973 -0.3164,-0.1467 -0.6216,-0.1467 -0.2067,0 -0.3667,0.0421 -0.4821,0.1262 -0.1154,0.0827 -0.2082,0.2294 -0.2797,0.4397zm1.5477 0.969c-0.1475,0.0506 -0.3824,0.1116 -0.7042,0.1826 -0.3205,0.0711 -0.5301,0.1407 -0.6298,0.2075 -0.1506,0.1117 -0.2265,0.251 -0.2265,0.4206 0,0.1684 0.0607,0.312 0.1814,0.4339 0.121,0.1217 0.2742,0.1826 0.4612,0.1826 0.2096,0 0.4076,-0.071 0.5975,-0.2117 0.1404,-0.1072 0.232,-0.2393 0.2753,-0.3961 0.0311,-0.1014 0.0451,-0.2959 0.0451,-0.5816l0 -0.2378zm2.2789 -2.9578l0 -1.1054 1.1571 0 0 1.1054 -1.1571 0zm0 5.1249l0 -4.5127 1.1571 0 0 4.5127 -1.1571 0zm3.4517 0l-1.1574 0 0 -4.5127 1.0743 0 0 0.6411c0.184,-0.3031 0.35,-0.5033 0.4963,-0.5992 0.1477,-0.0957 0.3134,-0.145 0.5004,-0.145 0.2643,0 0.5175,0.0754 0.762,0.2262l-0.3585 1.0403c-0.1942,-0.1291 -0.3753,-0.1944 -0.5428,-0.1944 -0.1628,0 -0.2992,0.0448 -0.4117,0.1378 -0.114,0.0913 -0.2012,0.258 -0.2657,0.4989 -0.0649,0.2407 -0.0969,0.7457 -0.0969,1.513l0 1.394zm4.7067 -1.4361l1.1543 0.1987c-0.1492,0.4366 -0.3826,0.7688 -0.7031,0.9967 -0.3189,0.2292 -0.7196,0.3421 -1.2005,0.3421 -0.7608,0 -1.3229,-0.2551 -1.6886,-0.7687 -0.2882,-0.4106 -0.433,-0.9298 -0.433,-1.555 0,-0.7485 0.1899,-1.3344 0.5693,-1.7582 0.3783,-0.4236 0.8577,-0.6353 1.4369,-0.6353 0.651,0 1.1642,0.2218 1.541,0.6659 0.3753,0.4437 0.5551,1.1227 0.5396,2.0379l-2.9002 0c0.0084,0.354 0.1012,0.6296 0.2799,0.8254 0.1786,0.1974 0.4019,0.2961 0.6676,0.2961 0.1815,0 0.3332,-0.0508 0.4571,-0.1525 0.1238,-0.1028 0.2178,-0.2669 0.2797,-0.4931zm0.066 -1.2068c-0.0084,-0.3467 -0.0942,-0.6093 -0.2585,-0.7893 -0.1646,-0.1797 -0.3655,-0.2698 -0.6018,-0.2698 -0.2532,0 -0.4612,0.0959 -0.6255,0.286 -0.1648,0.1884 -0.2462,0.4466 -0.2433,0.7731l1.7291 0zm-24.6976 -6.5565l0 1.7715 2.2156 -2.2153 -2.2156 -2.2153 0 1.772 -10.2234 0c-0.9803,0 -1.817,0.3452 -2.5075,1.0381 -0.6905,0.6925 -1.0362,1.5285 -1.0362,2.5054 0,0.9789 0.3457,1.8149 1.0381,2.5075 0.6925,0.6925 1.5287,1.0382 2.5056,1.0382l1.7224 0 0 -0.8871 -1.7204 0c-0.7348,0 -1.361,-0.2595 -1.88,-0.7787 -0.5191,-0.5189 -0.7786,-1.1444 -0.7786,-1.8799 0,-0.7336 0.2595,-1.359 0.7786,-1.8782 0.519,-0.519 1.1444,-0.7782 1.88,-0.7782l10.2214 0z"/>
 </g>
</svg>
