<?xml version="1.0" encoding="utf-8"?>
<!-- Generator: Adobe Illustrator 14.0.0, SVG Export Plug-In . SVG Version: 6.00 Build 43363)  -->
<!DOCTYPE svg PUBLIC "-//W3C//DTD SVG 1.1//EN" "http://www.w3.org/Graphics/SVG/1.1/DTD/svg11.dtd">
<svg version="1.1" id="Ebene_1" xmlns="http://www.w3.org/2000/svg" xmlns:xlink="http://www.w3.org/1999/xlink" x="0px" y="0px"
	 width="320px" height="184.002px" viewBox="0 0 320 184.002" enable-background="new 0 0 320 184.002" xml:space="preserve">
<g>
	<rect x="0.01" y="151.119" fill="#004B8D" width="319.99" height="32.883"/>
	<rect fill="#004B8D" width="319.988" height="142.218"/>
	<g>
		<path fill="#FFFFFF" d="M91.415,48.938c0,2.273,1.837,4.11,4.109,4.11c2.278,0,4.11-1.837,4.11-4.11
			c0-2.272-1.832-4.109-4.11-4.109C93.172,44.829,91.415,46.667,91.415,48.938"/>
		<g>
			<g>
				<path fill="#FFFFFF" d="M82.448,94.958c-1.029-0.885-2.058-2.352-3.086-4.547L59.683,47.99h-2.989l-18.759,41.3
					c-2.125,4.466-3.809,6.453-7.483,6.518v2.798l15.532,0.063L46,95.807h-0.717c-3.734,0-4.116-0.95-4.116-3.081
					c0-0.879,0.362-2.202,1.17-4.024l1.599-3.387h25.557l2.426,4.924c0.36,0.808,0.508,1.607,0.508,2.266
					c0,2.503-1.61,3.237-5.653,3.302v2.676h21.203v-2.597C86.153,95.886,83.544,95.912,82.448,94.958z M45.804,81.617l10.694-24.14
					l11.583,24.375L45.804,81.617z"/>
			</g>
		</g>
		<path fill="#FFFFFF" d="M86.63,98.483h19.746V95.88c-4.256-0.073-6.528-1.323-6.528-5.433V62.177l-13.45,0.012L86.392,64.7
			l3.101,0.297c2.956,0.145,3.703,4.377,3.703,8.119L93.08,90.227c0,4.336-1.75,5.506-6.45,5.653V98.483z"/>
		<path fill="#FFFFFF" d="M110.757,98.483h19.99v-2.584c-4.993-0.221-6.401-0.612-6.401-4.796c0,0-0.482-16.698,0-18.355
			c1.013-3.516,4.411-5.721,6.015-5.892c4.043-0.439,4.924,2.56,4.924,2.56l4.324-3.688c0,0-1.599-4.312-6.533-4.312
			c-5.036,0-8.368,4.756-9.188,7.974l0.103-6.893l-12.964,0.082l-0.05,2.024h1.169c5.672,0.016,5.299,4.199,5.299,8.168
			l0.123,18.213c0,4.403-2.262,4.625-6.811,4.913V98.483z"/>
		<g>
			<g>
				<path fill="#FFFFFF" d="M162.189,48.853l-22.024,0.128v2.585c6.31,0.213,6.853,1.842,7.192,3.46v32.95
					c0,6.605-1.029,8.29-7.192,8.29v2.339h21.871v-2.339c-6.529-0.068-7.558-1.543-7.558-8.29v-7.849h3.626
					c5.727,0,11.208-0.459,14.786-1.476c7.257-2.313,9.97-7.972,9.97-13.916C182.859,52.92,174.077,48.853,162.189,48.853z
					 M157.234,76.264c-1.276,0-2.859-0.16-2.859-0.16V52.896c0,0,2.768-0.093,4.329-0.123c16.224-0.27,16.745,7.153,16.745,12.264
					C175.449,70.064,174.855,76.264,157.234,76.264z"/>
			</g>
		</g>
		<path fill="#FFFFFF" d="M183.472,98.731h19.891v-2.882c-4.115-0.082-6.737-0.771-6.737-4.887l-0.113-42.109h-13.425v2.34
			l2.465,0.104c3.592,0,4.434,1.542,4.434,5.279l-0.122,33.774c0,4.336-1.7,5.457-6.392,5.604V98.731z"/>
		<path fill="#FFFFFF" d="M241.554,88.83V62.563l-13.538,0.019v2.408c4.925,0,6.778,0.955,6.778,5.199
			c0,0,0.737,15.608-0.638,19.378c-0.781,2.125-5.513,8.054-12.418,5.966c-5.377-1.629-5.364-4.937-5.364-11.171V62.563
			l-13.364,0.019v2.408h0.303c4.842,0,6.673,1.316,6.673,6.084v13.131c0,10.951,2.392,13.905,10.771,15.14
			c4.498,0.671,10.586-0.612,14.341-6.985v6.26l13.122-0.147v-2.835c-0.659,0.067-2.239-0.104-3.219-0.349
			C242.152,94.576,241.554,91.992,241.554,88.83"/>
		<path fill="#FFFFFF" d="M252.998,98.483h2.31c0.221-0.881-0.033-2.325,0.912-2.325c1.979,0,4.202,3.7,12.887,2.692
			c6.182-0.716,10.95-4.728,10.95-10.663c0-4.109-1.428-6.596-5.903-9.03c0,0-3.69-1.617-9.487-3.366
			c-6.119-1.855-5.702-4.22-5.807-5.383c-0.245-2.701,2.935-5.239,6.302-5.542c3.709-0.336,10.298,1.023,11.327,6.589h2.76
			l-0.04-9.315h-2.597c-0.294,0.809-0.687,2.254-1.348,2.254c-1.176,0-4.801-3.233-9.604-2.976
			c-6.782,0.368-12.689,4.747-12.689,10.259c0,4.035,2.024,7.11,5.993,9.069c3.986,1.973,8.758,3.302,11.18,4.153
			c2.409,0.833,4.01,2.662,4.01,5.451c0,3.311-3.372,5.499-7.277,5.499c-4.617,0-9.763-0.734-11.44-7.709h-2.438V98.483z"/>
	</g>
	<g>
		<path fill="#FFFFFF" d="M32.257,159.348h2.568v15.673h-2.568V159.348z"/>
		<path fill="#FFFFFF" d="M194.443,159.348h2.563v15.673h-2.563V159.348z"/>
		<path fill="#FFFFFF" d="M45.89,159.348h2.677l7.307,11.818h0.109v-11.818h2.47v15.673h-2.635l-7.349-11.817l-0.117,0.006v11.812
			H45.89V159.348z"/>
		<path fill="#FFFFFF" d="M131.2,159.348h2.675l7.307,11.818h0.11v-11.818h2.47v15.673h-2.638l-7.349-11.817l-0.114,0.006v11.812
			H131.2V159.348z"/>
		<path fill="#FFFFFF" d="M229.816,159.348h2.674l7.31,11.818h0.109v-11.818h2.472v15.673h-2.64l-7.349-11.817l-0.114,0.006v11.812
			h-2.462V159.348z"/>
		<path fill="#FFFFFF" d="M67.008,159.348h12.525v2.212h-5.055v13.461h-2.445V161.56h-5.025V159.348z"/>
		<path fill="#FFFFFF" d="M172.736,159.348h12.527v2.212h-5.059v13.461h-2.443V161.56h-5.025V159.348z"/>
		<path fill="#FFFFFF" d="M87.586,159.348h11.134v2.199H90.14l0.006,4.354h7.956l-0.006,2.052h-7.931v4.927h8.723v2.141H87.586
			V159.348z"/>
		<path fill="#FFFFFF" d="M108.634,159.348h7.243c3.423,0,5.136,1.696,5.136,4.293c0,3.007-2.124,3.719-2.625,3.896l-0.003,0.061
			c0.939,0.136,2.403,0.834,2.403,3.313c0,1.826,0.25,3.474,0.837,4.11H119c-0.417-0.68-0.429-1.537-0.417-2.303
			c0.042-2.896-0.792-4.317-3.315-4.317H111.1v6.62h-2.466V159.348z M111.072,166.642h4.645c1.861,0,2.933-0.888,2.933-2.621
			c0-1.996-1.28-2.541-2.965-2.541h-4.619L111.072,166.642z"/>
		<path fill="#FFFFFF" d="M158.347,159.348h2.597l6.038,15.673h-2.603l-1.544-4.269h-6.491l-1.569,4.269h-2.442L158.347,159.348z
			 M156.956,168.902h5.292l-2.508-7.033h-0.264L156.956,168.902z"/>
		<path fill="#FFFFFF" d="M257.057,159.348h2.597l6.037,15.673h-2.599l-1.544-4.269h-6.491l-1.569,4.269h-2.445L257.057,159.348z
			 M255.666,168.902h5.291l-2.505-7.033h-0.264L255.666,168.902z"/>
		<path fill="#FFFFFF" d="M221.31,167.182c0,4.483-2.722,8.182-7.422,8.182c-4.695,0-7.438-3.681-7.438-8.157
			c0-4.478,2.743-8.201,7.438-8.201C218.588,159.005,221.31,162.704,221.31,167.182z M208.825,167.224
			c0,3.23,1.506,6.211,5.024,6.211c3.559,0,5.087-2.903,5.087-6.162c0-3.142-1.528-6.329-5.09-6.329
			C210.393,160.943,208.825,163.975,208.825,167.224z"/>
		<path fill="#FFFFFF" d="M274.686,159.348h2.465v13.443h8.002v2.229h-10.467V159.348z"/>
	</g>
</g>
</svg>
