<?xml version="1.0" encoding="UTF-8"?>
<!DOCTYPE svg PUBLIC "-//W3C//DTD SVG 1.1//EN" "http://www.w3.org/Graphics/SVG/1.1/DTD/svg11.dtd">
<!-- Creator: CorelDRAW -->
<svg xmlns="http://www.w3.org/2000/svg" xml:space="preserve" width="31.75mm" height="21.167mm" style="shape-rendering:geometricPrecision; text-rendering:geometricPrecision; image-rendering:optimizeQuality; fill-rule:evenodd; clip-rule:evenodd"
viewBox="0 0 31.75 21.167"
 xmlns:xlink="http://www.w3.org/1999/xlink">
 <defs>
  <style type="text/css">
   <![CDATA[
    .str0 {stroke:#C5C6C6;stroke-width:0.0762}
    .fil0 {fill:none}
    .fil1 {fill:white}
    .fil2 {fill:#707072;fill-rule:nonzero}
    .fil3 {fill:#E41836;fill-rule:nonzero}
    .fil4 {fill:white;fill-rule:nonzero}
   ]]>
  </style>
 </defs>
 <g id="Layer_x0020_1">
  <metadata id="CorelCorpID_0Corel-Layer"/>
  <g>
   <path class="fil0 str0" d="M1.0583 0.0002l29.6334 0c0.5843,0 1.0582,0.4739 1.0582,1.0583l0.0001 19.05c-0.0001,0.5842 -0.474,1.0581 -1.0584,1.0581l-29.6333 0.0002c-0.5843,-0.0002 -1.0582,-0.4741 -1.0582,-1.0585l-0.0001 -19.0498c0.0001,-0.5844 0.474,-1.0583 1.0584,-1.0583z"/>
   <path id="1" class="fil1" d="M1.0583 0.0002l29.6334 0c0.5843,0 1.0582,0.4739 1.0582,1.0583l0.0001 19.05c-0.0001,0.5842 -0.474,1.0581 -1.0584,1.0581l-29.6333 0.0002c-0.5843,-0.0002 -1.0582,-0.4741 -1.0582,-1.0585l-0.0001 -19.0498c0.0001,-0.5844 0.474,-1.0583 1.0584,-1.0583z"/>
  </g>
  <g>
   <g id="_613974224">
    <g>
     <g>
      <g>
       <g>
        <path id="_391871008" class="fil2" d="M19.8635 15.8273c-0.4538,0 -0.9703,0.2496 -0.9703,0.8601 0,0.9551 1.1194,0.6401 1.1194,1.0878 0,0.1825 -0.1575,0.2126 -0.319,0.2126 -0.2839,0 -0.5559,-0.0912 -0.7391,-0.1828l0 0.6308c0.2078,0.0845 0.4505,0.1625 0.7825,0.1625 0.5164,0 1.0628,-0.1776 1.0628,-0.8845 0,-1.0065 -1.1722,-0.6812 -1.1722,-1.0929 0,-0.1477 0.1933,-0.1873 0.3632,-0.1834 0.1813,0.0047 0.4622,0.0803 0.6285,0.1974l0 -0.65c-0.2405,-0.1028 -0.5019,-0.1577 -0.7557,-0.1577l-0.0001 0.0001zm-14.1157 -0.8386l0 3.5485 1.3567 0c0.5464,0 1.1893,-0.178 1.1893,-1.0268 0,-0.4324 -0.2101,-0.6864 -0.6165,-0.7835l0 -0.0098c0.3414,-0.1321 0.5376,-0.3809 0.5376,-0.8287 0,-0.6098 -0.4237,-0.8997 -0.9923,-0.8997l-1.4748 0zm20.2544 2.2957l0 -0.1382c-0.0294,-0.8366 -0.5916,-1.3191 -1.3234,-1.3191 -0.7524,0 -1.3249,0.5091 -1.3249,1.3884l-0.0007 0 0 0c0,0.874 0.5727,1.3827 1.3256,1.3827 0.7318,0 1.294,-0.4821 1.3234,-1.3138zm-8.1695 -0.3232l0 0c0,-0.3049 -0.1223,-0.5541 -0.4371,-0.5541 -0.2839,0 -0.4194,0.2492 -0.4371,0.5541l0.8742 0zm0.7081 0.5186l0 0 -1.5733 0c0.0435,0.3655 0.284,0.5082 0.6689,0.5082 0.2143,0 0.4588,-0.0559 0.6951,-0.203l0 0.6455c-0.2535,0.1163 -0.5423,0.1677 -0.8355,0.1677 -0.7514,0 -1.3243,-0.5135 -1.3243,-1.3882 0,-0.8738 0.5116,-1.3829 1.2203,-1.3829 0.8437,0 1.1489,0.6969 1.1489,1.4847l0 0.168 -0.0001 0zm-8.4033 -1.6527l0 0c-0.3414,0 -0.5378,0.2139 -0.6739,0.5488l-0.0082 0 0 -0.4875 -0.7169 0 0 2.6484 0.7871 0 0 -1.1183c0,-0.5177 0.2028,-0.8299 0.5695,-0.8562 0.0759,-0.0056 0.202,0.0164 0.2696,0.0426l0 -0.737c-0.0666,-0.0241 -0.1563,-0.0408 -0.2272,-0.0408l0 0zm1.932 1.5182l0 0c-0.1007,-0.0045 -0.219,-0.0148 -0.337,-0.0148 -0.2669,0 -0.4768,0.097 -0.4768,0.3507 0,0.1831 0.1402,0.29 0.3237,0.29 0.2142,0 0.3863,-0.0934 0.4901,-0.2746l0 -0.3513 0 0zm0.0036 1.1915l0 0 0 -0.3498c-0.1446,0.2693 -0.4013,0.4112 -0.699,0.4112 -0.4501,0 -0.8528,-0.2595 -0.8528,-0.8338 0,-0.8084 0.7568,-0.9054 1.1764,-0.9054 0.1272,0 0.2662,0.0158 0.3672,0.0363 -0.0048,-0.3613 -0.2358,-0.4579 -0.5198,-0.4579 -0.2537,0 -0.5077,0.0561 -0.726,0.1984l-0.0004 -0.0071 0 -0.6191c0.2761,-0.1276 0.5647,-0.1825 0.8962,-0.1825 0.5815,0 1.0846,0.2903 1.0846,1.0984l0 0.9867c0,0.208 0.0085,0.4156 0.0435,0.6246l-0.7699 0zm13.1166 -1.3213l0 0c0,0.3912 -0.1494,0.7419 -0.5116,0.7419 -0.363,0 -0.5114,-0.3507 -0.5114,-0.7419 0,-0.3969 0.1484,-0.747 0.5114,-0.747 0.3622,0 0.5116,0.3501 0.5116,0.747zm-10.6932 0.6809l0 0c-0.2971,0 -0.4763,-0.2897 -0.4763,-0.7117 0,-0.3504 0.1707,-0.6549 0.4763,-0.6549 0.2884,0 0.481,0.2888 0.481,0.6902 0,0.3867 -0.2185,0.6764 -0.481,0.6764zm1.2677 -2.917l0 0 -0.7909 0 0 1.2498 -0.0088 0c-0.2014,-0.3054 -0.4679,-0.4021 -0.7823,-0.4021 -0.6298,0 -0.9752,0.6866 -0.9752,1.3376 0,0.7824 0.3624,1.4334 1.0402,1.4334 0.3355,0 0.6294,-0.1651 0.7829,-0.4593l0.0084 0 0 0.398 0.7256 0 0 -3.5574 0.0001 0zm-9.2034 0.6806l0 0 0.3081 0c0.2708,0 0.5331,0.0303 0.5331,0.3559 0,0.2994 -0.2759,0.3758 -0.5423,0.3758l-0.2989 0 0 -0.7317zm0 1.3725l0 0 0.3207 0c0.2799,0 0.5991,0.0352 0.5991,0.4213 0,0.3607 -0.3107,0.4121 -0.6077,0.4121l-0.3121 0 0 -0.8335 0 0.0001zm16.4141 0.8193l0 0c0.0319,0.0829 0.1115,0.3055 0.284,0.5395 -0.0414,0.02 -0.1398,0.0655 -0.2005,0.0893 0,0 -0.2788,0.1176 -0.6422,0.1173 -0.752,-0.0004 -1.325,-0.5084 -1.325,-1.3824 0,-0.8793 0.573,-1.3884 1.325,-1.3884 0.2102,0 0.3982,0.042 0.5644,0.1169l0 -0.0006c0.1102,0.0533 0.1926,0.1052 0.2416,0.1406 -0.1236,0.1641 -0.2221,0.3632 -0.2811,0.573 -0.1239,-0.0845 -0.256,-0.132 -0.4455,-0.1324 -0.3404,-0.0003 -0.5915,0.2484 -0.5915,0.7057 0,0.4197 0.3004,0.6793 0.6398,0.6819 0.1767,0.0006 0.3036,-0.0523 0.3748,-0.0902 0.012,-0.0042 0.0276,-0.0136 0.0361,-0.0165 0.0047,-0.0015 0.0082,0.0174 0.0201,0.0463z"/>
        <polygon id="_391869952" class="fil3" points="10.5527,13.2133 21.1975,13.2133 21.1975,2.5686 10.5527,2.5686 "/>
        <polygon id="_391869544" class="fil4" points="14.8708,11.7171 15.3949,11.7171 15.3949,9.0318 14.8708,9.0318 "/>
        <polygon id="_391866760" class="fil4" points="15.8716,11.7171 16.7301,11.7171 16.7301,8.031 15.8716,8.031 "/>
        <path id="_390342528" class="fil4" d="M14.4007 5.4638c0,0 0.8655,-0.846 2.3239,-0.5676 0,0 0.6418,0.0998 1.1339,0.5367 0,0 0.0732,0.0686 0.1292,0.0124 0,0 0.0714,-0.056 -0.0079,-0.1398 0,0 -0.423,-0.5866 -1.2577,-0.8459 0,0 -1.147,-0.4106 -2.3252,0.1442 0,0 -0.7253,0.3006 -1.1275,1.1195 0,0 -0.5734,0.1852 -1.0033,0.4263 0,0 -0.1271,0.0503 -0.0791,0.149 0,0 0.0411,0.071 0.1523,0.0183 0,0 0.3993,-0.1378 0.784,-0.2238 0,0 -0.3096,0.8027 0.0137,1.7989 0.1438,0.4435 0.4062,0.8949 0.8073,1.2578 0,0 0.0653,0.0687 0.1364,0.0219 0,0 0.062,-0.0451 0.0184,-0.1185 0,0 -0.3199,-0.4814 -0.4441,-1.1659 -0.1034,-0.5581 -0.0547,-1.3288 0.3329,-1.9399 0,0 1.476,-0.2059 2.7339,0.2678 0,0 2.1365,0.6972 1.5987,1.9904 0,0 -0.1561,0.4495 -0.746,0.8556 0,0 -0.0988,0.0575 -0.0452,0.1401 0,0 0.0445,0.0642 0.1457,0.0231 0,0 0.9032,-0.2938 1.2931,-1.0194 0,0 0.7907,-1.2102 -1.0741,-2.1974 0,0 -0.5127,-0.274 -1.1719,-0.4206 0,0 -1.1877,-0.2938 -2.3213,-0.123l-0.0001 -0.0002z"/>
       </g>
      </g>
     </g>
    </g>
   </g>
  </g>
 </g>
</svg>
