<?xml version="1.0" encoding="utf-8"?>
<!-- Generator: Adobe Illustrator 23.0.4, SVG Export Plug-In . SVG Version: 6.00 Build 0)  -->
<svg version="1.1" id="Ebene_1" xmlns="http://www.w3.org/2000/svg" xmlns:xlink="http://www.w3.org/1999/xlink" x="0px" y="0px"
	 viewBox="0 0 841.89 595.28" style="enable-background:new 0 0 841.89 595.28;" xml:space="preserve" width="120px" height="80px">
<style type="text/css">
	.st0{fill:#141413;}
	.st1{fill:#D64200;}
</style>
<path class="st0" d="M347.33,261.09h0.41l4.53,31.27h-22.22L347.33,261.09z M342.08,248.33l-43.51,71.79h15.94l9.15-16.46h30.55
	l2.47,16.46h14.4l-13.06-71.79H342.08z"/>
<path class="st0" d="M379.31,320.12h13.78l5.66-26.64c1.75-7.92,5.25-16.87,14.81-16.87c4.42,0,7.51,2.98,7.51,7.41
	c0,3.91-0.82,7.51-1.54,11.11l-5.14,24.99h13.78l5.55-25.71c0.72-3.29,1.75-7.51,1.75-11.52c0-10.49-6.89-16.97-17.28-16.97
	c-5.97,0-11.21,2.88-15.02,6.38h-0.21l0.93-5.14h-13.47c-0.21,1.65-0.72,4.42-1.34,7.61L379.31,320.12z"/>
<path class="st0" d="M445.44,277.24h9.98l-3.91,17.9c-0.93,4.22-1.75,8.23-1.75,12.34c0,10.18,6.58,13.88,15.94,13.88
	c2.37,0,5.04-0.72,7.41-1.23l2.37-10.7c-1.75,0.72-4.22,1.23-6.69,1.23c-3.09,0-5.25-1.95-5.25-5.14c0-2.06,0.31-3.91,0.62-5.14
	l5.04-23.14h12.34l2.16-10.08h-12.34l3.39-15.74l-14.81,4.83l-2.37,10.9h-9.98L445.44,277.24z"/>
<path class="st1" d="M523.63,284.85c0,1.23-0.1,2.37-0.31,3.6h-23.35c2.67-7.3,6.38-12.45,14.91-12.45
	C520.65,276,523.63,279.19,523.63,284.85 M536.79,286.08c0-13.47-8.64-20.16-21.7-20.16c-17.38,0-30.14,15.84-30.14,32.3
	c0,15.74,10.29,23.14,25.51,23.14c5.66,0,11.52-1.34,16.87-2.98l1.75-10.9c-5.14,2.37-10.59,3.81-16.25,3.81
	c-9.46,0-14.71-3.6-14.71-13.37h37.33C536.28,294,536.79,290.09,536.79,286.08"/>
<path class="st1" d="M588.6,268.49c0,8.95-8.13,13.06-16.04,13.06h-5.14l4.63-21.91h4.53C582.74,259.65,588.6,261.19,588.6,268.49
	 M603.62,266.95c0-17.9-18.2-18.62-31.47-18.62h-12.14l-15.22,71.79h14.4l5.76-27.26h8.33
	C589.32,292.87,603.62,284.33,603.62,266.95"/>
<path class="st1" d="M639.62,261.09h0.41l4.53,31.27h-22.22L639.62,261.09z M634.38,248.33l-43.51,71.79h15.94l9.15-16.46h30.55
	l2.47,16.46h14.4l-13.06-71.79H634.38z"/>
<polygon class="st1" points="719.44,248.33 696.1,278.47 685.4,248.33 670.18,248.33 687.05,290.4 680.77,320.12 695.17,320.12 
	701.45,290.4 736.21,248.33 "/>
<path class="st1" d="M257.55,321.36c15.31,0,27.72-12.41,27.72-27.72c0-15.31-12.41-27.72-27.72-27.72
	c-15.31,0-27.72,12.41-27.72,27.72C229.83,308.95,242.24,321.36,257.55,321.36"/>
<path class="st1" d="M195.49,321.36c15.31,0,27.72-8.31,27.72-18.55c0-10.25-12.41-18.55-27.72-18.55s-27.72,8.31-27.72,18.55
	C167.77,313.05,180.18,321.36,195.49,321.36"/>
<path class="st1" d="M133.4,321.36c15.31,0,27.72-4.1,27.72-9.17c0-5.06-12.41-9.17-27.72-9.17s-27.72,4.1-27.72,9.17
	C105.68,317.25,118.09,321.36,133.4,321.36"/>
</svg>
