<?xml version="1.0" encoding="UTF-8"?>
<!DOCTYPE svg PUBLIC "-//W3C//DTD SVG 1.1//EN" "http://www.w3.org/Graphics/SVG/1.1/DTD/svg11.dtd">
<!-- Creator: CorelDRAW -->
<svg xmlns="http://www.w3.org/2000/svg" xml:space="preserve" width="50mm" height="35mm" style="shape-rendering:geometricPrecision; text-rendering:geometricPrecision; image-rendering:optimizeQuality; fill-rule:evenodd; clip-rule:evenodd"
viewBox="0 0 50 35"
 xmlns:xlink="http://www.w3.org/1999/xlink">
 <defs>
  <style type="text/css">
   <![CDATA[
    .str0 {stroke:black;stroke-width:0.0762}
    .fil0 {fill:#FEFEFE;fill-rule:nonzero}
    .fil2 {fill:#3A237E;fill-rule:nonzero}
    .fil1 {fill:#CC087C;fill-rule:nonzero}
    .fil3 {fill:#FDFDFD;fill-rule:nonzero}
   ]]>
  </style>
 </defs>
 <g id="Layer_x0020_1">
  <metadata id="CorelCorpID_0Corel-Layer"/>
  <path class="fil0 str0" d="M5.2445 3.3889l39.5111 0c0.7793,0 1.4111,0.6318 1.4111,1.4111l0 25.4c0,0.7793 -0.6318,1.4111 -1.4111,1.4111l-39.5111 0c-0.7793,0 -1.4112,-0.6318 -1.4112,-1.4111l0 -25.4c0,-0.7793 0.6319,-1.4111 1.4112,-1.4111z"/>
  <g id="_495529736">
   <path id="_495573520" class="fil1" d="M24.4118 11.4061c0.0946,-0.0557 0.1847,-0.1248 0.2863,-0.1654 0.2132,-0.0853 0.4286,-0.1662 0.6564,-0.2091 0.2494,-0.0469 0.5006,-0.0399 0.7523,-0.0402 0.3185,-0.0003 0.6326,0.0331 0.9428,0.1025 0.3723,0.0832 0.7273,0.2107 1.0609,0.4002 0.2844,0.1615 0.5286,0.3684 0.7489,0.6074 0.2199,0.2385 0.3865,0.5121 0.5266,0.802 0.1297,0.2684 0.2163,0.5538 0.2847,0.8426 0.0667,0.2819 0.1117,0.5687 0.135,0.8584 0.0319,0.3992 0.0348,0.7986 0.0142,1.1983 -0.0155,0.2989 -0.0697,0.5913 -0.1337,0.8837 -0.0997,0.456 -0.2808,0.8764 -0.535,1.2629 -0.1977,0.3008 -0.4438,0.5625 -0.7299,0.7847 -0.2498,0.1939 -0.5176,0.3547 -0.8098,0.477 -0.3509,0.147 -0.7152,0.2519 -1.0905,0.2958 -0.4262,0.0498 -0.8562,0.0641 -1.2848,0.0046 -0.2249,-0.0312 -0.4504,-0.052 -0.6671,-0.1307 -0.0993,-0.0362 -0.1703,-0.0405 -0.1697,0.1325 0.003,0.9552 0.0005,1.9105 0.0034,2.8658 0.0003,0.0819 -0.0225,0.1088 -0.1041,0.1084 -0.6823,-0.0029 -1.3646,-0.0039 -2.047,-0.0018 -0.0865,0.0002 -0.1135,-0.0184 -0.1134,-0.1136 0.0035,-3.6995 0.0032,-7.399 0.004,-11.0986 0.0001,-0.1447 -0.0218,-0.125 0.1294,-0.1257 0.6378,-0.0029 1.2756,-0.0033 1.9134,-0.0043 0.1993,-0.0003 0.1993,0.0001 0.205,0.1944 0.0007,0.0239 -0.0005,0.0478 0.0217,0.0682zm-0.0282 3.907l0 0c0,0.629 0.0001,1.258 -0.0003,1.887 0,0.0456 -0.0008,0.0909 0.0454,0.1164 0.1724,0.0951 0.3422,0.198 0.5413,0.2286 0.4018,0.0619 0.8021,0.0522 1.1992,-0.0366 0.647,-0.1447 1.0523,-0.5381 1.2242,-1.1802 0.1125,-0.4201 0.1331,-0.8473 0.1198,-1.2772 -0.0125,-0.4069 -0.0648,-0.807 -0.2242,-1.1888 -0.1616,-0.3875 -0.4511,-0.6259 -0.8366,-0.7637 -0.3868,-0.1382 -0.7876,-0.1568 -1.1927,-0.139 -0.0649,0.0029 -0.1307,-0.004 -0.1947,0.0139 -0.216,0.0606 -0.4159,0.1565 -0.593,0.2933 -0.0404,0.0312 -0.1001,0.0708 -0.0885,0.1422 0.0124,0.0771 -0.0004,0.1538 -0.0003,0.2307 0.0009,0.5578 0.0005,1.1156 0.0004,1.6734z"/>
   <path id="_495573592" class="fil1" d="M18.1234 16.0401c-0.7744,0 -1.5487,-0.0006 -2.3231,0.0004 -0.21,0.0002 -0.42,0.0053 -0.63,0.0077 -0.0382,0.0004 -0.0668,-0.0033 -0.0586,0.0563 0.061,0.4477 0.2624,0.8187 0.6177,1.0955 0.3237,0.2521 0.7055,0.3592 1.1102,0.3898 0.4314,0.0325 0.8581,0.015 1.2733,-0.1227 0.3269,-0.1085 0.6081,-0.2861 0.842,-0.5404 0.1123,-0.1221 0.1172,-0.1193 0.1886,0.0252 0.0771,0.156 0.193,0.293 0.2577,0.4503 0.0501,0.1215 0.1025,0.2423 0.1608,0.3595 0.1305,0.2621 0.2541,0.5279 0.4046,0.7795 0.0385,0.0644 0.0259,0.1135 -0.0425,0.1299 -0.0571,0.0137 -0.0638,0.066 -0.1,0.0935 -0.1266,0.0958 -0.2551,0.188 -0.4008,0.2538 -0.1344,0.0606 -0.2631,0.1323 -0.4014,0.1865 -0.3465,0.1354 -0.7039,0.2249 -1.0715,0.2744 -0.4818,0.0651 -0.9668,0.0818 -1.4518,0.0578 -0.7616,-0.0376 -1.4806,-0.2274 -2.1184,-0.6598 -0.7479,-0.507 -1.2239,-1.2101 -1.4601,-2.079 -0.1745,-0.6422 -0.2136,-1.2966 -0.1585,-1.9562 0.06,-0.7184 0.2667,-1.3918 0.6638,-1.9997 0.3078,-0.4712 0.699,-0.8614 1.164,-1.1769 0.6632,-0.4498 1.3974,-0.6696 2.198,-0.6763 0.4042,-0.0034 0.8062,0.0126 1.2003,0.1107 0.355,0.0882 0.6971,0.2108 1.0155,0.3949 0.2427,0.1403 0.4664,0.3051 0.672,0.4956 0.2222,0.2058 0.4248,0.433 0.584,0.6869 0.2872,0.4581 0.4819,0.9564 0.541,1.5007 0.0211,0.1942 0.0481,0.3874 0.0464,0.5838 -0.0028,0.3307 -0.0638,0.6532 -0.1265,0.9758 -0.0102,0.0524 -0.0235,0.1041 -0.0332,0.1565 -0.03,0.1612 -0.0057,0.1456 -0.1782,0.1457 -0.7951,0.0006 -1.5902,0.0003 -2.3853,0.0003zm-1.2547 -1.7818l0 0c0,0.0016 0,0.0033 0,0.0049 0.5368,0 1.0737,-0.0015 1.6105,0.0017 0.0796,0.0005 0.0883,-0.0252 0.0702,-0.0929 -0.0351,-0.1315 -0.075,-0.2602 -0.1284,-0.3862 -0.1473,-0.348 -0.3915,-0.5971 -0.7448,-0.7276 -0.4854,-0.1793 -0.9793,-0.1764 -1.4687,-0.0199 -0.2172,0.0695 -0.4042,0.2008 -0.5607,0.3699 -0.2102,0.2272 -0.3441,0.4971 -0.44,0.7886 -0.0193,0.0589 0.0017,0.0625 0.0517,0.0624 0.5367,-0.0015 1.0734,-0.0009 1.6102,-0.0009z"/>
   <path id="_495573664" class="fil1" d="M33.6936 19.5428c-0.4433,0.0061 -0.8478,-0.0149 -1.2461,-0.1044 -0.4251,-0.0955 -0.8137,-0.2832 -1.1984,-0.4798 -0.092,-0.047 -0.1821,-0.0978 -0.275,-0.1426 -0.0508,-0.0244 -0.0602,-0.051 -0.0363,-0.1034 0.1651,-0.3634 0.3278,-0.728 0.4907,-1.0925 0.0918,-0.2051 0.1825,-0.4107 0.274,-0.616 0.0471,-0.106 0.0501,-0.1089 0.1393,-0.0276 0.1975,0.1795 0.4244,0.313 0.6617,0.43 0.4393,0.2165 0.9064,0.2961 1.392,0.2636 0.1827,-0.0123 0.3658,-0.046 0.5092,-0.1756 0.1689,-0.1526 0.1596,-0.3523 0.1263,-0.5516 -0.0463,-0.2774 -0.2453,-0.4353 -0.4668,-0.571 -0.3774,-0.2315 -0.7907,-0.3879 -1.1916,-0.5708 -0.5468,-0.2496 -1.0508,-0.563 -1.4361,-1.0384 -0.2833,-0.3497 -0.4474,-0.7466 -0.4889,-1.1958 -0.0405,-0.4374 0.022,-0.8559 0.2194,-1.2502 0.1856,-0.3708 0.475,-0.6434 0.8264,-0.8545 0.4989,-0.2998 1.0453,-0.4365 1.6218,-0.4657 0.3139,-0.0159 0.628,-0.0151 0.9407,0.0201 0.3255,0.0366 0.6434,0.109 0.9563,0.2064 0.2901,0.0903 0.5658,0.2144 0.8375,0.3481 0.1163,0.0572 0.1241,0.078 0.079,0.2012 -0.1425,0.3889 -0.2851,0.7777 -0.431,1.1653 -0.0596,0.1584 -0.1337,0.311 -0.1882,0.4716 -0.0353,0.104 -0.0409,0.1037 -0.1247,0.0269 -0.1597,-0.1466 -0.3308,-0.2769 -0.5297,-0.3666 -0.3349,-0.1512 -0.688,-0.2089 -1.0538,-0.2085 -0.187,0.0001 -0.3746,-0.0027 -0.5495,0.0707 -0.2771,0.1163 -0.3246,0.33 -0.2813,0.5708 0.0237,0.1315 0.1314,0.2281 0.2433,0.3037 0.2373,0.1604 0.4956,0.2802 0.7608,0.3864 0.1706,0.0684 0.3397,0.1403 0.5095,0.2106 0.1816,0.0751 0.3591,0.1583 0.5349,0.2463 0.1898,0.0949 0.3686,0.2058 0.5407,0.3284 0.2401,0.171 0.4421,0.3807 0.6098,0.6221 0.1353,0.1947 0.2316,0.409 0.2958,0.6378 0.0953,0.3398 0.1281,0.6841 0.0899,1.0358 -0.0294,0.2716 -0.0862,0.5359 -0.2019,0.7839 -0.078,0.1672 -0.1797,0.321 -0.298,0.464 -0.2878,0.3476 -0.6519,0.5859 -1.067,0.7518 -0.5239,0.2094 -1.0694,0.2893 -1.5947,0.2695z"/>
   <path id="_495573760" class="fil2" d="M13.9976 29.7058c-1.5,0 -2.9832,0 -4.4873,0 0.7509,-1.1393 1.4941,-2.2671 2.2437,-3.4044 0.7495,1.1373 1.4924,2.2646 2.2436,3.4044z"/>
   <path id="_495573736" class="fil2" d="M40.4877 29.7056c-1.484,0 -2.9663,0 -4.4584,0 0.041,-0.093 0.1003,-0.1659 0.1513,-0.2434 0.2878,-0.4371 0.5769,-0.8733 0.8648,-1.3103 0.3382,-0.5132 0.6754,-1.0271 1.0134,-1.5405 0.0569,-0.0865 0.1165,-0.1713 0.1723,-0.2584 0.0228,-0.0356 0.0357,-0.0508 0.0662,-0.0045 0.395,0.6028 0.7915,1.2045 1.1875,1.8064 0.3299,0.5014 0.6596,1.0029 0.9896,1.5041 0.0081,0.0122 0.0201,0.0219 0.0133,0.0466z"/>
   <path id="_495573928" class="fil2" d="M27.4925 8.698c-1.5012,0 -2.9832,0 -4.4862,0 0.7498,-1.1384 1.4916,-2.2646 2.2421,-3.4039 0.749,1.1361 1.4927,2.2641 2.2441,3.4039z"/>
   <path id="_495573904" class="fil2" d="M19.8175 25.6475c0,-0.1661 0.0004,-0.3322 -0.0001,-0.4984 -0.0003,-0.1006 0.0385,-0.1834 0.1327,-0.2198 0.0889,-0.0342 0.1822,-0.0325 0.2503,0.0523 0.0194,0.0242 0.0313,0.025 0.0573,0.0088 0.2306,-0.1438 0.4513,-0.1382 0.6565,0.0505 0.036,0.0332 0.0499,0 0.072,-0.0169 0.191,-0.1461 0.3982,-0.1727 0.6173,-0.0742 0.2211,0.0994 0.276,0.2952 0.2792,0.5129 0.0034,0.2284 -0.0005,0.4568 -0.0033,0.6852 -0.0017,0.143 -0.0918,0.2356 -0.2232,0.2346 -0.1312,-0.001 -0.2198,-0.0938 -0.2208,-0.2343 -0.0015,-0.2225 0.0012,-0.445 -0.0028,-0.6675 -0.003,-0.163 -0.1209,-0.2459 -0.2599,-0.1855 -0.0845,0.0367 -0.1008,0.1146 -0.1011,0.1965 -0.001,0.2196 0.0006,0.4391 -0.0012,0.6586 -0.0011,0.1392 -0.0943,0.2328 -0.2256,0.2315 -0.1324,-0.0013 -0.218,-0.0919 -0.2189,-0.2358 -0.0013,-0.2165 0.0005,-0.4331 -0.0008,-0.6497 -0.0008,-0.1226 -0.0664,-0.2092 -0.1617,-0.22 -0.1085,-0.0121 -0.1934,0.0578 -0.1972,0.1779 -0.0073,0.2342 -0.0045,0.4686 -0.0097,0.7029 -0.0033,0.1482 -0.095,0.2311 -0.2374,0.2227 -0.1209,-0.0071 -0.2008,-0.0934 -0.2024,-0.225 -0.0021,-0.169 -0.0005,-0.3382 -0.0005,-0.5073 0.0004,0 0.0009,0 0.0013,0z"/>
   <path id="_495574048" class="fil2" d="M33.2909 25.3453c0,0.2609 -0.0009,0.5217 0.0004,0.7827 0.0006,0.1018 -0.0268,0.1918 -0.124,0.2348 -0.0966,0.0428 -0.1917,0.0284 -0.2673,-0.0548 -0.0176,-0.0194 -0.0322,-0.0331 -0.0582,-0.0104 -0.2379,0.2073 -0.6698,0.1009 -0.8404,-0.2323 -0.1672,-0.3266 -0.1388,-0.6479 0.0695,-0.947 0.1454,-0.2089 0.4488,-0.2829 0.6834,-0.1812 0.0988,0.0427 0.0978,0.0427 0.0972,-0.068 -0.0007,-0.1096 -0.0002,-0.2193 0.0015,-0.329 0.002,-0.1363 0.0918,-0.2308 0.2169,-0.2303 0.1318,0.0005 0.2202,0.0931 0.2207,0.2351 0.001,0.2668 0.0003,0.5336 0.0003,0.8004zm-0.6843 -0.0365l0 0c-0.0883,-0.0009 -0.1304,0.02 -0.1774,0.082 -0.1133,0.1493 -0.118,0.3616 -0.0112,0.504 0.0897,0.1195 0.2588,0.1244 0.3505,0.0103 0.0894,-0.1113 0.1089,-0.3363 0.0381,-0.4626 -0.0461,-0.0821 -0.1097,-0.1394 -0.2,-0.1337z"/>
   <path id="_495574120" class="fil2" d="M37.5292 25.3548c0,0.258 -0.0016,0.5161 0.0008,0.7741 0.001,0.1033 -0.0268,0.1943 -0.1253,0.2338 -0.0935,0.0376 -0.1927,0.0379 -0.2657,-0.0547 -0.0207,-0.0263 -0.0383,-0.027 -0.0659,-0.0047 -0.2415,0.1952 -0.6758,0.1052 -0.8503,-0.2664 -0.1472,-0.3138 -0.1164,-0.622 0.0791,-0.9086 0.1463,-0.2144 0.4606,-0.2962 0.6974,-0.1887 0.092,0.0418 0.0918,0.0418 0.0917,-0.0634 -0.0002,-0.1127 -0.0007,-0.2255 0.0006,-0.3381 0.0015,-0.131 0.089,-0.2258 0.2067,-0.2265 0.1408,-0.0007 0.2292,0.0825 0.2303,0.2247 0.0021,0.2728 0.0006,0.5457 0.0006,0.8185zm-0.9526 0.29l0 0c0.0087,0.0598 0.0135,0.1274 0.0434,0.1903 0.0439,0.0923 0.1085,0.1533 0.2173,0.1518 0.1098,-0.0015 0.1725,-0.0682 0.213,-0.1597 0.0457,-0.1035 0.0505,-0.2127 0.0214,-0.3207 -0.0312,-0.1158 -0.1223,-0.193 -0.2213,-0.1981 -0.109,-0.0058 -0.1849,0.0496 -0.2385,0.1746 -0.0211,0.0492 -0.0273,0.1019 -0.0353,0.1618z"/>
   <path id="_495574192" class="fil2" d="M15.0871 25.9106c0,-0.2579 0.0011,-0.5157 -0.0006,-0.7735 -0.0007,-0.1005 0.0419,-0.1756 0.1336,-0.2083 0.0858,-0.0305 0.1752,-0.0296 0.2465,0.0459 0.0185,0.0195 0.0305,0.0457 0.0716,0.0213 0.315,-0.1867 0.6349,-0.1072 0.8205,0.2001 0.2177,0.3607 0.1404,0.8535 -0.1772,1.0902 -0.1842,0.1374 -0.3882,0.1495 -0.5957,0.0566 -0.0506,-0.0227 -0.0605,-0.0154 -0.0605,0.0349 0.0001,0.1126 -0.0006,0.2252 -0.0032,0.3378 -0.0031,0.132 -0.095,0.2178 -0.2283,0.2159 -0.1147,-0.0017 -0.2065,-0.097 -0.2072,-0.2207 -0.0014,-0.2667 -0.0004,-0.5334 -0.0004,-0.8002 0.0003,0 0.0006,0 0.0009,0zm0.9471 -0.2558l0 0c-0.0002,-0.0902 -0.0213,-0.1747 -0.0746,-0.249 -0.0934,-0.1301 -0.2593,-0.1335 -0.3598,-0.0081 -0.0953,0.1191 -0.0954,0.3617 -0.0001,0.4922 0.0986,0.1351 0.267,0.1339 0.3643,-0.0019 0.0501,-0.07 0.0731,-0.1474 0.0702,-0.2332z"/>
   <path id="_495574264" class="fil2" d="M30.1716 25.7011c0,0.1541 0.0019,0.3081 -0.0007,0.4621 -0.0015,0.0894 -0.0213,0.1751 -0.121,0.205 -0.0978,0.0293 -0.1929,0.0287 -0.26,-0.0679 -0.0162,-0.0232 -0.0305,-0.033 -0.056,-0.0095 -0.2364,0.2184 -0.6646,0.0982 -0.8394,-0.1933 -0.1678,-0.2797 -0.1489,-0.6865 0.0424,-0.9491 0.1882,-0.2585 0.5833,-0.3453 0.7976,-0.1495 0.0305,0.0278 0.049,0.0135 0.0714,-0.0135 0.069,-0.0829 0.1558,-0.0933 0.2522,-0.0547 0.092,0.037 0.1074,0.1142 0.1139,0.2018 0.0141,0.1895 0.0035,0.3791 -0.0004,0.5686zm-0.9472 -0.0457l0 0c-0.0044,0.0747 0.0169,0.1534 0.0635,0.225 0.0778,0.1193 0.2179,0.1424 0.329,0.0544 0.1509,-0.1196 0.1501,-0.4626 -0.0014,-0.5831 -0.0879,-0.0699 -0.2285,-0.0544 -0.3024,0.0311 -0.0655,0.0757 -0.0901,0.1641 -0.0887,0.2726z"/>
   <path id="_495574336" class="fil2" d="M34.8957 25.6392c0,0.1718 0.0006,0.3437 -0.0002,0.5156 -0.0005,0.0936 -0.0244,0.182 -0.1214,0.2135 -0.0926,0.0302 -0.1898,0.0315 -0.2563,-0.0629 -0.0244,-0.0347 -0.0482,-0.0277 -0.0735,-0.005 -0.2083,0.1868 -0.6075,0.1051 -0.7902,-0.1507 -0.2287,-0.3201 -0.1995,-0.7985 0.067,-1.0728 0.1987,-0.2044 0.5438,-0.245 0.7253,-0.0869 0.0273,0.0238 0.0475,0.0224 0.074,-0.0068 0.0725,-0.0796 0.1695,-0.0917 0.261,-0.0547 0.0918,0.0372 0.1149,0.125 0.1129,0.2217 -0.0035,0.1629 -0.001,0.326 -0.001,0.489 0.0008,0 0.0016,0 0.0024,0zm-0.952 -0.0005l0 0c-0.0009,0.0886 0.029,0.1899 0.0717,0.2512 0.0821,0.118 0.2633,0.1305 0.3531,0.0244 0.1049,-0.1238 0.1107,-0.3852 0.0114,-0.5163 -0.0895,-0.1183 -0.2552,-0.1192 -0.3512,-0.0065 -0.0639,0.0752 -0.0737,0.1647 -0.085,0.2472z"/>
   <path id="_495574408" class="fil2" d="M18.0251 25.6399c0,0.1719 0.0036,0.3438 -0.001,0.5156 -0.0046,0.1705 -0.101,0.2464 -0.2667,0.2233 -0.0517,-0.0071 -0.0848,-0.0374 -0.1139,-0.0746 -0.0186,-0.0237 -0.0289,-0.0347 -0.0623,-0.0134 -0.3206,0.2045 -0.713,0.1004 -0.8659,-0.2475 -0.1456,-0.331 -0.1294,-0.6566 0.1173,-0.9465 0.1859,-0.2185 0.5419,-0.2746 0.7486,-0.1008 0.0301,0.0253 0.0424,0.0149 0.0626,-0.0091 0.0708,-0.0838 0.1651,-0.0923 0.2588,-0.0594 0.1013,0.0354 0.123,0.1248 0.1219,0.2237 -0.0018,0.1629 -0.0005,0.3258 -0.0005,0.4887 0.0004,0 0.0008,0 0.0011,0zm-0.9451 0.0365l0 0c0,0.0103 -0.0012,0.0311 0.0002,0.0517 0.0089,0.1265 0.1098,0.2456 0.2176,0.2576 0.12,0.0132 0.2195,-0.0579 0.261,-0.1927 0.0351,-0.1137 0.0314,-0.2265 -0.0216,-0.3361 -0.0539,-0.1113 -0.1148,-0.1525 -0.2241,-0.1475 -0.0963,0.0045 -0.1774,0.0694 -0.2112,0.1741 -0.019,0.0589 -0.0368,0.1189 -0.0219,0.1929z"/>
   <path id="_495574480" class="fil2" d="M13.2448 25.8091c-0.1158,0 -0.2315,0.0022 -0.3471,-0.0008 -0.0681,-0.0016 -0.0691,0.0221 -0.0389,0.0722 0.0543,0.09 0.2225,0.1466 0.3497,0.1162 0.0849,-0.0202 0.1563,-0.0685 0.2328,-0.1066 0.1105,-0.0552 0.2009,-0.0378 0.2602,0.0476 0.0639,0.0918 0.0531,0.1845 -0.0413,0.2676 -0.3055,0.2687 -1.0051,0.3281 -1.241,-0.2501 -0.1505,-0.3688 0.0143,-0.8329 0.3612,-0.9975 0.3616,-0.1716 0.8061,0.0187 0.943,0.4038 0.0289,0.0812 0.0517,0.1632 0.049,0.251 -0.0041,0.1281 -0.07,0.195 -0.1984,0.1957 -0.1097,0.0006 -0.2195,0.0001 -0.3292,0.0001 0,0.0003 0,0.0006 0,0.0008zm-0.1831 -0.321l0 0c0,-0.0002 0,-0.0003 0,-0.0004 0.0679,0 0.1359,-0.0009 0.2038,0.0003 0.0379,0.0007 0.0535,-0.0049 0.037,-0.0497 -0.0348,-0.0947 -0.1265,-0.1639 -0.2281,-0.1636 -0.1119,0.0003 -0.2153,0.0739 -0.2456,0.1701 -0.0132,0.0418 0.0065,0.044 0.038,0.0436 0.065,-0.001 0.13,-0.0003 0.1949,-0.0003z"/>
   <path id="_495574552" class="fil2" d="M22.4163 25.8122c0.0265,0.177 0.2949,0.2443 0.4735,0.1495 0.0521,-0.0277 0.1035,-0.0575 0.1579,-0.0802 0.1049,-0.0438 0.1893,-0.0194 0.2402,0.0642 0.0541,0.0889 0.0426,0.1894 -0.0375,0.2571 -0.27,0.2282 -0.7713,0.2922 -1.0632,0.0216 -0.2313,-0.2144 -0.2848,-0.4855 -0.2117,-0.7802 0.0693,-0.2799 0.2473,-0.4686 0.5326,-0.5378 0.4226,-0.1026 0.8817,0.3009 0.8436,0.7366 -0.0091,0.1038 -0.0773,0.1652 -0.1911,0.1659 -0.2342,0.0014 -0.4683,0.0003 -0.7025,0.0005 -0.0138,0 -0.0276,0.0018 -0.0418,0.0028zm0.4791 -0.3244l0 0c-0.0355,-0.1341 -0.1124,-0.205 -0.2228,-0.212 -0.1125,-0.0071 -0.2078,0.0532 -0.2529,0.1554 -0.0179,0.0404 -0.0174,0.058 0.034,0.0573 0.1446,-0.0019 0.2893,-0.0007 0.4417,-0.0007z"/>
   <path id="_495574624" class="fil2" d="M23.5447 25.6357c0,-0.169 0.0007,-0.3379 -0.0003,-0.5069 -0.0005,-0.0934 0.0452,-0.162 0.1252,-0.1972 0.0814,-0.0359 0.1709,-0.0352 0.2395,0.0327 0.0376,0.0372 0.0601,0.0241 0.0958,0.0024 0.3657,-0.2214 0.8194,0.0217 0.8282,0.4458 0.0052,0.2458 0.0028,0.4918 0.0008,0.7378 -0.0013,0.1463 -0.0873,0.2319 -0.2242,0.2307 -0.1324,-0.0012 -0.2141,-0.0858 -0.2158,-0.2292 -0.0027,-0.2222 -0.0012,-0.4446 -0.0043,-0.6668 -0.0011,-0.0885 -0.0324,-0.1627 -0.124,-0.1953 -0.0781,-0.0278 -0.1516,-0.0214 -0.2155,0.0361 -0.0475,0.0428 -0.061,0.0992 -0.0611,0.1603 -0.0004,0.2164 0.0001,0.4328 -0.0014,0.6492 -0.0011,0.1473 -0.082,0.2397 -0.2113,0.2452 -0.1397,0.006 -0.2308,-0.0783 -0.2325,-0.2202 -0.0021,-0.1748 -0.0005,-0.3498 -0.0005,-0.5246 0.0005,0 0.0009,0 0.0014,0z"/>
   <path id="_495574696" class="fil2" d="M30.4923 25.6445c0,-0.166 0.0002,-0.3319 0,-0.4979 -0.0002,-0.0969 0.0342,-0.1744 0.1277,-0.2134 0.0877,-0.0365 0.1754,-0.0349 0.2456,0.0363 0.0334,0.0339 0.0505,0.0182 0.0806,0 0.2608,-0.157 0.6128,-0.0744 0.7708,0.1796 0.0467,0.0749 0.0655,0.159 0.0665,0.2452 0.0026,0.252 0.0021,0.5039 0.0011,0.7559 -0.0006,0.1379 -0.0924,0.2314 -0.2234,0.2319 -0.1252,0.0005 -0.2169,-0.0935 -0.2181,-0.2292 -0.0017,-0.2193 0.0022,-0.4386 -0.0016,-0.6579 -0.0029,-0.1691 -0.144,-0.2648 -0.2896,-0.2016 -0.0928,0.0402 -0.1164,0.1217 -0.1172,0.2116 -0.002,0.2104 -0.0004,0.4209 -0.0008,0.6313 -0.0002,0.1523 -0.0822,0.2445 -0.2163,0.2445 -0.1406,-0.0001 -0.2255,-0.0923 -0.2261,-0.2473 -0.0005,-0.163 -0.0001,-0.326 -0.0001,-0.489 0.0003,0 0.0007,0 0.0009,0z"/>
   <path id="_495574768" class="fil2" d="M18.8839 25.6619c0.0874,-0.2183 0.166,-0.4127 0.2429,-0.6077 0.0295,-0.0749 0.0819,-0.1233 0.16,-0.1367 0.19,-0.0326 0.3093,0.1096 0.2432,0.2956 -0.0574,0.1615 -0.1257,0.3192 -0.1896,0.4784 -0.1421,0.3542 -0.2847,0.708 -0.4266,1.0623 -0.0525,0.131 -0.1378,0.1909 -0.2545,0.1762 -0.1363,-0.0172 -0.2182,-0.129 -0.1771,-0.2601 0.0422,-0.135 0.0982,-0.2658 0.1501,-0.3977 0.0137,-0.0348 0.015,-0.0647 0.0003,-0.1008 -0.1262,-0.3095 -0.2493,-0.6202 -0.3752,-0.9298 -0.057,-0.1402 -0.0186,-0.2636 0.1026,-0.3145 0.1231,-0.0518 0.2531,0.0111 0.305,0.1502 0.0609,0.1633 0.1193,0.3277 0.1793,0.4914 0.0087,0.0239 0.0198,0.0469 0.0396,0.0932z"/>
   <path id="_495574840" class="fil2" d="M27.287 26.4004c-0.2174,-0.0016 -0.3808,-0.0456 -0.5185,-0.1592 -0.095,-0.0785 -0.1072,-0.1811 -0.0429,-0.2759 0.0596,-0.0879 0.1589,-0.111 0.2656,-0.063 0.0933,0.042 0.1783,0.1073 0.2886,0.1024 0.0397,-0.0018 0.0789,-0.001 0.0913,-0.0507 0.0123,-0.0497 -0.0304,-0.0628 -0.0587,-0.0761 -0.1069,-0.0502 -0.2191,-0.0895 -0.324,-0.1431 -0.1978,-0.101 -0.2855,-0.2603 -0.2538,-0.4423 0.0359,-0.2065 0.2016,-0.3639 0.4146,-0.3903 0.1811,-0.0225 0.3557,-0.0038 0.5107,0.1019 0.1051,0.0717 0.138,0.1873 0.0875,0.285 -0.0536,0.104 -0.1466,0.135 -0.2527,0.087 -0.0642,-0.0291 -0.1288,-0.0596 -0.1962,-0.0788 -0.0459,-0.0131 -0.1086,-0.0273 -0.1298,0.0376 -0.0206,0.0634 0.0419,0.0764 0.0813,0.0957 0.1166,0.0571 0.2438,0.089 0.3554,0.1598 0.1585,0.1004 0.2205,0.2416 0.1916,0.4222 -0.026,0.1623 -0.1293,0.2674 -0.2741,0.3341 -0.0873,0.0401 -0.1803,0.0578 -0.2359,0.0537z"/>
   <path id="_495574912" class="fil2" d="M25.1978 25.7671c0,-0.1246 -0.0021,-0.2492 0.0011,-0.3737 0.0013,-0.0506 -0.0086,-0.0731 -0.0661,-0.0762 -0.11,-0.006 -0.1759,-0.0767 -0.1812,-0.1802 -0.0055,-0.1064 0.0635,-0.1998 0.1732,-0.2109 0.0642,-0.0065 0.0787,-0.0282 0.0741,-0.0861 -0.0039,-0.05 0,-0.1008 0.004,-0.1509 0.0082,-0.1018 0.0938,-0.1849 0.1973,-0.1947 0.1014,-0.0096 0.2015,0.0597 0.2288,0.1573 0.0178,0.0639 0.0184,0.1294 0.0126,0.1941 -0.0051,0.0571 0.0148,0.0767 0.072,0.079 0.0893,0.0035 0.1709,0.0273 0.2018,0.1276 0.0436,0.1414 -0.0337,0.2612 -0.1836,0.2647 -0.0783,0.0018 -0.0916,0.0293 -0.0906,0.0988 0.0036,0.246 0.0034,0.4923 0.0005,0.7384 -0.0021,0.1792 -0.1766,0.2854 -0.3305,0.2026 -0.0806,-0.0434 -0.1097,-0.1194 -0.113,-0.2073 -0.0001,-0.0029 0,-0.0059 0,-0.0089 0,-0.1245 0,-0.249 0,-0.3736 -0.0001,0 -0.0002,0 -0.0004,0z"/>
   <path id="_495574984" class="fil2" d="M28.0846 25.7709c0,-0.1275 -0.0005,-0.2551 0.0003,-0.3826 0.0003,-0.0425 -0.0013,-0.0717 -0.0608,-0.0715 -0.1029,0.0002 -0.175,-0.0708 -0.1843,-0.1667 -0.0105,-0.1076 0.0491,-0.2054 0.1522,-0.2158 0.0911,-0.0091 0.0992,-0.0531 0.0935,-0.1257 -0.0072,-0.0931 -0.0023,-0.1879 0.0731,-0.2554 0.063,-0.0563 0.1403,-0.0768 0.2238,-0.046 0.0867,0.0319 0.13,0.0994 0.145,0.1871 0.0039,0.0231 0.0016,0.0473 0.0022,0.071 0.0012,0.0472 -0.012,0.102 0.0077,0.1396 0.0207,0.0397 0.0811,0.0123 0.1229,0.0227 0.1088,0.0271 0.1671,0.1113 0.1536,0.2247 -0.0117,0.0979 -0.0909,0.1716 -0.1962,0.1648 -0.08,-0.0052 -0.0901,0.0262 -0.0889,0.0953 0.0041,0.2401 0.0019,0.4803 0.0016,0.7205 -0.0003,0.154 -0.0813,0.2461 -0.2168,0.2482 -0.141,0.0021 -0.2259,-0.088 -0.228,-0.2455 -0.0016,-0.1215 -0.0003,-0.2431 -0.0003,-0.3647 -0.0002,0 -0.0004,0 -0.0006,0z"/>
   <path id="_495575056" class="fil2" d="M35.2065 25.6332c0,-0.166 0.0027,-0.3322 -0.001,-0.498 -0.0022,-0.1028 0.0474,-0.1712 0.1352,-0.2057 0.0851,-0.0334 0.1808,-0.0367 0.2492,0.0336 0.0441,0.0453 0.0655,0.0316 0.106,0.0039 0.1439,-0.0984 0.3057,-0.0692 0.3749,0.0638 0.056,0.1073 0.0241,0.2095 -0.0815,0.2688 -0.0847,0.0476 -0.1831,0.065 -0.262,0.1274 -0.0512,0.0405 -0.078,0.0845 -0.0777,0.1495 0.001,0.1927 0.0009,0.3854 -0.0013,0.578 -0.0012,0.104 -0.0651,0.1951 -0.1486,0.2206 -0.0989,0.0302 -0.2027,-0.0061 -0.2569,-0.0918 -0.0273,-0.0433 -0.037,-0.092 -0.0368,-0.1432 0.0006,-0.169 0.0002,-0.3379 0.0002,-0.5069 0.0001,0 0.0002,0 0.0003,0z"/>
   <path id="_495575128" class="fil2" d="M14.4005 25.7814c-0.0918,0 -0.1837,0.0034 -0.2752,-0.0008 -0.1195,-0.0055 -0.1927,-0.0798 -0.1928,-0.1875 -0.0002,-0.121 0.073,-0.2064 0.1927,-0.2087 0.1833,-0.0038 0.367,-0.0019 0.5504,0.0029 0.1054,0.0027 0.1752,0.0911 0.173,0.2065 -0.0021,0.1124 -0.0704,0.1839 -0.1818,0.1864 -0.0888,0.0021 -0.1776,0.0005 -0.2663,0.0005 0,0.0002 0,0.0005 0,0.0007z"/>
   <path id="_495575200" class="fil3" d="M24.3836 15.3131c0.0001,-0.5578 0.0005,-1.1156 -0.0004,-1.6734 -0.0001,-0.0769 0.0127,-0.1536 0.0003,-0.2307 -0.0116,-0.0714 0.0481,-0.111 0.0885,-0.1422 0.1771,-0.1368 0.377,-0.2327 0.593,-0.2933 0.064,-0.0179 0.1298,-0.011 0.1947,-0.0139 0.4051,-0.0178 0.8059,0.0008 1.1927,0.139 0.3855,0.1378 0.675,0.3762 0.8366,0.7637 0.1594,0.3818 0.2117,0.7819 0.2242,1.1888 0.0133,0.4299 -0.0073,0.8571 -0.1198,1.2772 -0.1719,0.6421 -0.5772,1.0355 -1.2242,1.1802 -0.3971,0.0888 -0.7974,0.0985 -1.1992,0.0366 -0.1991,-0.0306 -0.3689,-0.1335 -0.5413,-0.2286 -0.0462,-0.0255 -0.0454,-0.0708 -0.0454,-0.1164 0.0004,-0.629 0.0003,-1.258 0.0003,-1.887z"/>
   <path id="_495575272" class="fil3" d="M16.8687 14.2583c-0.5368,0 -1.0735,-0.0006 -1.6102,0.0009 -0.05,0.0001 -0.071,-0.0035 -0.0517,-0.0624 0.0959,-0.2915 0.2298,-0.5614 0.44,-0.7886 0.1565,-0.1691 0.3435,-0.3004 0.5607,-0.3699 0.4894,-0.1565 0.9833,-0.1594 1.4687,0.0199 0.3533,0.1305 0.5975,0.3796 0.7448,0.7276 0.0534,0.126 0.0933,0.2547 0.1284,0.3862 0.0181,0.0677 0.0094,0.0934 -0.0702,0.0929 -0.5368,-0.0032 -1.0737,-0.0017 -1.6105,-0.0017 0,-0.0016 0,-0.0033 0,-0.0049z"/>
   <path id="_495575368" class="fil3" d="M32.6066 25.3088c0.0903,-0.0057 0.1539,0.0516 0.2,0.1337 0.0708,0.1263 0.0513,0.3513 -0.0381,0.4626 -0.0917,0.1141 -0.2608,0.1092 -0.3505,-0.0103 -0.1068,-0.1424 -0.1021,-0.3547 0.0112,-0.504 0.047,-0.062 0.0891,-0.0829 0.1774,-0.082z"/>
   <path id="_495575344" class="fil3" d="M36.5766 25.6448c0.008,-0.0599 0.0142,-0.1126 0.0353,-0.1618 0.0536,-0.125 0.1295,-0.1804 0.2385,-0.1746 0.099,0.0051 0.1901,0.0823 0.2213,0.1981 0.0291,0.108 0.0243,0.2172 -0.0214,0.3207 -0.0405,0.0915 -0.1032,0.1582 -0.213,0.1597 -0.1088,0.0015 -0.1734,-0.0595 -0.2173,-0.1518 -0.0299,-0.0629 -0.0347,-0.1305 -0.0434,-0.1903z"/>
   <path id="_495575512" class="fil3" d="M16.0342 25.6548c0.0029,0.0858 -0.0201,0.1632 -0.0702,0.2332 -0.0973,0.1358 -0.2657,0.137 -0.3643,0.0019 -0.0953,-0.1305 -0.0952,-0.3731 0.0001,-0.4922 0.1005,-0.1254 0.2664,-0.122 0.3598,0.0081 0.0533,0.0743 0.0744,0.1588 0.0746,0.249z"/>
   <path id="_495575584" class="fil3" d="M29.2244 25.6554c-0.0014,-0.1085 0.0232,-0.1969 0.0887,-0.2726 0.0739,-0.0855 0.2145,-0.101 0.3024,-0.0311 0.1515,0.1205 0.1523,0.4635 0.0014,0.5831 -0.1111,0.088 -0.2512,0.0649 -0.329,-0.0544 -0.0466,-0.0716 -0.0679,-0.1503 -0.0635,-0.225z"/>
   <path id="_495575656" class="fil3" d="M33.9437 25.6387c0.0113,-0.0825 0.0211,-0.172 0.085,-0.2472 0.096,-0.1127 0.2617,-0.1118 0.3512,0.0065 0.0993,0.1311 0.0935,0.3925 -0.0114,0.5163 -0.0898,0.1061 -0.271,0.0936 -0.3531,-0.0244 -0.0427,-0.0613 -0.0726,-0.1626 -0.0717,-0.2512z"/>
   <path id="_495575488" class="fil3" d="M17.08 25.6764c-0.0149,-0.074 0.0029,-0.134 0.0219,-0.1929 0.0338,-0.1047 0.1149,-0.1696 0.2112,-0.1741 0.1093,-0.005 0.1702,0.0362 0.2241,0.1475 0.053,0.1096 0.0567,0.2224 0.0216,0.3361 -0.0415,0.1348 -0.141,0.2059 -0.261,0.1927 -0.1078,-0.012 -0.2087,-0.1311 -0.2176,-0.2576 -0.0014,-0.0206 -0.0002,-0.0414 -0.0002,-0.0517z"/>
   <path id="_495575776" class="fil3" d="M13.0617 25.4881c-0.0649,0 -0.1299,-0.0007 -0.1949,0.0003 -0.0315,0.0004 -0.0512,-0.0018 -0.038,-0.0436 0.0303,-0.0962 0.1337,-0.1698 0.2456,-0.1701 0.1016,-0.0003 0.1933,0.0689 0.2281,0.1636 0.0165,0.0448 0.0009,0.0504 -0.037,0.0497 -0.0679,-0.0012 -0.1359,-0.0003 -0.2038,-0.0003 0,0.0001 0,0.0002 0,0.0004z"/>
   <path id="_495575872" class="fil3" d="M22.8954 25.4878c-0.1524,0 -0.2971,-0.0012 -0.4417,0.0007 -0.0514,0.0007 -0.0519,-0.0169 -0.034,-0.0573 0.0451,-0.1022 0.1404,-0.1625 0.2529,-0.1554 0.1104,0.007 0.1873,0.0779 0.2228,0.212z"/>
  </g>
 </g>
</svg>
