<?xml version="1.0" encoding="utf-8"?>
<!-- Generator: Adobe Illustrator 22.1.0, SVG Export Plug-In . SVG Version: 6.00 Build 0)  -->
<svg version="1.1" id="Layer_1" xmlns="http://www.w3.org/2000/svg" xmlns:xlink="http://www.w3.org/1999/xlink" x="0px" y="0px"
	 viewBox="0 0 75.3 30" style="enable-background:new 0 0 75.3 30;" xml:space="preserve">
<style type="text/css">
	.st0{fill:#FDE0DB;stroke:#010101;stroke-width:0.25;stroke-miterlimit:10;}
	.st1{fill:none;stroke:#EE2A24;stroke-miterlimit:10;}
	.st2{fill:none;stroke:#EE2A24;stroke-width:0.75;stroke-miterlimit:10;}
	.st3{fill:none;stroke:#010101;stroke-width:0.25;stroke-miterlimit:10;}
	.st4{fill:none;stroke:#EE2A24;stroke-width:0.5;stroke-miterlimit:10;}
	.st5{fill:#FFFFFF;stroke:#EE2A24;stroke-width:0.25;stroke-miterlimit:10;}
	.st6{fill:#7C7C7C;}
	.st7{fill:#EE2A24;}
</style>
<rect y="2.6" class="st0" width="43.3" height="27.4"/>
<polyline class="st0" points="43.1,2.6 75.3,2.6 75.3,29.9 43.1,29.9 43.1,2.8 "/>
<rect y="0.1" class="st0" width="75.3" height="2.5"/>
<rect x="43.3" y="2.6" class="st0" width="20.2" height="9.2"/>
<rect x="63.5" y="2.6" class="st0" width="11.8" height="9.2"/>
<circle class="st1" cx="69.5" cy="7.1" r="3.2"/>
<line class="st2" x1="47.8" y1="20.8" x2="73.2" y2="20.8"/>
<line class="st2" x1="47.8" y1="23.1" x2="73.2" y2="23.1"/>
<line class="st2" x1="47.8" y1="25.4" x2="73.2" y2="25.4"/>
<polyline class="st3" points="73.5,26.9 73.5,28.5 69.9,28.5 "/>
<polyline class="st3" points="21.4,29.9 43.3,29.9 43.3,11.7 "/>
<line class="st4" x1="0.7" y1="25.5" x2="20.4" y2="25.5"/>
<line class="st4" x1="0.7" y1="27.7" x2="20.4" y2="27.7"/>
<rect x="0.7" y="19.1" class="st5" width="1.5" height="1.9"/>
<rect x="2.6" y="19.1" class="st5" width="1.5" height="1.9"/>
<rect x="4.5" y="19.1" class="st5" width="1.5" height="1.9"/>
<rect x="6.4" y="19.1" class="st5" width="1.5" height="1.9"/>
<rect x="8.3" y="19.1" class="st5" width="1.5" height="1.9"/>
<rect x="10.3" y="19.1" class="st5" width="1.5" height="1.9"/>
<rect x="12.1" y="19.1" class="st5" width="1.5" height="1.9"/>
<rect x="14.1" y="19.1" class="st5" width="1.5" height="1.9"/>
<rect x="22.3" y="19.1" class="st5" width="1.5" height="1.9"/>
<rect x="24.2" y="19.1" class="st5" width="1.5" height="1.9"/>
<rect x="26.1" y="19.1" class="st5" width="1.5" height="1.9"/>
<rect x="28" y="19.1" class="st5" width="1.5" height="1.9"/>
<rect x="29.9" y="19.1" class="st5" width="1.5" height="1.9"/>
<rect x="31.9" y="19.1" class="st5" width="1.5" height="1.9"/>
<rect x="33.7" y="19.1" class="st5" width="1.5" height="1.9"/>
<rect x="35.7" y="19.1" class="st5" width="1.5" height="1.9"/>
<rect x="17.1" y="19.2" class="st5" width="1.5" height="1.9"/>
<rect x="19" y="19.2" class="st5" width="1.5" height="1.9"/>
<rect x="38.7" y="19.2" class="st5" width="1.5" height="1.9"/>
<rect x="40.7" y="19.2" class="st5" width="1.5" height="1.9"/>
<polyline class="st3" points="21.7,26.5 21.7,28.1 25.2,28.1 "/>
<path class="st6" d="M5.8,0.9h19.1c0.1,0,0.3,0.1,0.3,0.3v0.2c0,0.1-0.1,0.3-0.3,0.3H5.8c-0.1,0-0.3-0.1-0.3-0.3V1.1
	C5.5,1,5.6,0.9,5.8,0.9z"/>
<path class="st6" d="M37.4,0.9h8.8c0.1,0,0.3,0.1,0.3,0.3v0.2c0,0.1-0.1,0.3-0.3,0.3h-8.8c-0.1,0-0.3-0.1-0.3-0.3V1.1
	C37.1,1,37.2,0.9,37.4,0.9z"/>
<path class="st6" d="M56.9,0.9h9.6c0.1,0,0.3,0.1,0.3,0.3v0.2c0,0.1-0.1,0.3-0.3,0.3h-9.6c-0.1,0-0.3-0.1-0.3-0.3V1.1
	C56.6,1,56.7,0.9,56.9,0.9z"/>
<path class="st6" d="M25,4.3h9.6c0.1,0,0.3,0.1,0.3,0.3v0.2c0,0.1-0.1,0.3-0.3,0.3H25c-0.1,0-0.3-0.1-0.3-0.3V4.5
	C24.7,4.4,24.8,4.3,25,4.3z"/>
<path class="st6" d="M1,4.3h9.6c0.1,0,0.3,0.1,0.3,0.3v0.2c0,0.1-0.1,0.3-0.3,0.3H1C0.9,5,0.8,4.9,0.8,4.7V4.5
	C0.8,4.4,0.9,4.3,1,4.3z"/>
<path class="st7" d="M0.9,16.1h6.6c0.2,0,0.4,0.2,0.4,0.4v0c0,0.2-0.2,0.4-0.4,0.4H0.9c-0.2,0-0.4-0.2-0.4-0.4v0
	C0.5,16.2,0.7,16.1,0.9,16.1z"/>
<path class="st7" d="M22.5,16.1h6.6c0.2,0,0.4,0.2,0.4,0.4v0c0,0.2-0.2,0.4-0.4,0.4h-6.6c-0.2,0-0.4-0.2-0.4-0.4v0
	C22.1,16.2,22.3,16.1,22.5,16.1z"/>
</svg>
