<?xml version="1.0" encoding="UTF-8"?>
<!DOCTYPE svg PUBLIC "-//W3C//DTD SVG 1.1//EN" "http://www.w3.org/Graphics/SVG/1.1/DTD/svg11.dtd">
<!-- Creator: CorelDRAW -->
<svg xmlns="http://www.w3.org/2000/svg" xml:space="preserve" width="31.75mm" height="21.167mm" style="shape-rendering:geometricPrecision; text-rendering:geometricPrecision; image-rendering:optimizeQuality; fill-rule:evenodd; clip-rule:evenodd"
viewBox="0 0 31.75 21.167"
 xmlns:xlink="http://www.w3.org/1999/xlink">
 <defs>
  <style type="text/css">
   <![CDATA[
    .str0 {stroke:#C5C6C6;stroke-width:0.0762}
    .fil0 {fill:none}
    .fil1 {fill:white}
    .fil2 {fill:#094882;fill-rule:nonzero}
    .fil3 {fill:#D8D400;fill-rule:nonzero}
    .fil4 {fill:#C7CC29;fill-rule:nonzero}
   ]]>
  </style>
 </defs>
 <g id="Layer_x0020_1">
  <metadata id="CorelCorpID_0Corel-Layer"/>
  <g>
   <path class="fil0 str0" d="M1.0583 0.0002l29.6334 0c0.5843,0 1.0582,0.4739 1.0582,1.0583l0.0001 19.05c-0.0001,0.5842 -0.474,1.0581 -1.0584,1.0581l-29.6333 0.0002c-0.5843,-0.0002 -1.0582,-0.4741 -1.0582,-1.0585l-0.0001 -19.0498c0.0001,-0.5844 0.474,-1.0583 1.0584,-1.0583z"/>
   <path id="1" class="fil1" d="M1.0583 0.0002l29.6334 0c0.5843,0 1.0582,0.4739 1.0582,1.0583l0.0001 19.05c-0.0001,0.5842 -0.474,1.0581 -1.0584,1.0581l-29.6333 0.0002c-0.5843,-0.0002 -1.0582,-0.4741 -1.0582,-1.0585l-0.0001 -19.0498c0.0001,-0.5844 0.474,-1.0583 1.0584,-1.0583z"/>
  </g>
  <g>
   <path class="fil2" d="M16.4696 11.952c0,0.2005 0.1894,0.3008 0.3787,0.3008 0.5573,0 0.73,-0.3844 0.847,-0.8469l-0.2618 0c-0.3622,0 -0.9639,0.0612 -0.9639,0.5461z"/>
   <path class="fil2" d="M24.0374 10.375c-0.5904,0 -0.8859,0.652 -0.8859,1.1701 0,0.379 0.156,0.6743 0.5852,0.6743 0.5795,0 0.8691,-0.6687 0.8691,-1.1589 0,-0.3734 -0.128,-0.6855 -0.5684,-0.6855z"/>
   <path class="fil2" d="M1.3436 9.0132l0 4.4256 10.8524 0 0.6621 -3.203c0.0279,-0.1392 0.0501,-0.2507 0.0613,-0.3734l0.7076 0 -0.0836 0.379 0.0112 0c0.2174,-0.3066 0.4848,-0.4458 0.8636,-0.4458 0.7132,0 1.0532,0.4848 1.0532,1.1646 0,0.8971 -0.496,1.8386 -1.4934,1.8386 -0.3287,0 -0.6686,-0.1114 -0.7912,-0.5125l-0.0111 0 -0.2345 1.1525 5.9293 0 0.0849 -0.2722c0.2952,0.1226 0.5795,0.223 0.9026,0.223 0.7911,0 0.9083,-0.5517 1.0866,-1.2037l-0.0112 0c-0.1894,0.3455 -0.5516,0.5461 -0.964,0.5461 -0.6965,0 -0.9973,-0.585 -0.9973,-1.2146 0,-0.8582 0.5238,-1.7218 1.4543,-1.7218 0.3787,0 0.6965,0.1839 0.8748,0.4848l0.0834 -0.418 0.7188 0c-0.0223,0.078 -0.0558,0.2174 -0.0946,0.4013l-0.4571 2.1564c-0.081,0.4122 -0.2099,0.7565 -0.4129,1.0187l9.2676 0 0 -4.4256 -29.0628 0zm16.7864 3.7188l0 0 -0.6297 0 0.078 -0.4402 -0.0112 0c-0.2563,0.3232 -0.5125,0.507 -0.9248,0.507 -0.5182,0 -0.8859,-0.2897 -0.8859,-0.8191 0,-0.9471 1.0586,-1.0195 1.7607,-1.0195l0.2618 0c0.0223,-0.078 0.0223,-0.1616 0.0223,-0.2452 0,-0.2898 -0.3121,-0.3733 -0.5739,-0.3733 -0.3287,0 -0.6464,0.0835 -0.9417,0.2228l0.106 -0.5962c0.3175,-0.1115 0.6406,-0.1727 0.9751,-0.1727 0.5738,0 1.1143,0.2118 1.1143,0.8859 0,0.3846 -0.2842,1.51 -0.351,2.0505zm5.5453 0.0668l0 0c-0.8134,0 -1.3037,-0.5014 -1.3037,-1.3093 0,-0.9584 0.7355,-1.6939 1.6993,-1.6939 0.7746,0 1.3151,0.4681 1.3151,1.2593 0,1.0086 -0.6965,1.7439 -1.7107,1.7439zm4.1743 -2.3235l0 0c-0.195,-0.0724 -0.4012,-0.1336 -0.6127,-0.1336 -0.223,0 -0.5017,0.0612 -0.5017,0.2897 0,0.3622 0.9696,0.4959 0.9696,1.1979 0,0.7467 -0.6518,0.9695 -1.2927,0.9695 -0.3008,0 -0.6016,-0.0444 -0.8748,-0.1727l0.1615 -0.5961c0.2118,0.117 0.4236,0.2228 0.7133,0.2228 0.2508,0 0.5125,-0.0836 0.5125,-0.3176 0,-0.4625 -0.9693,-0.507 -0.9693,-1.2258 0,-0.6742 0.6518,-0.9138 1.2425,-0.9138 0.2729,0 0.5517,0.0501 0.8134,0.1171l-0.1616 0.5626z"/>
   <path class="fil2" d="M19.752 11.5118c0,0.3455 0.1395,0.6407 0.4738,0.6407 0.596,0 0.8413,-0.6295 0.8413,-1.1756 0,-0.3344 -0.1951,-0.6019 -0.5405,-0.6019 -0.5405,0 -0.7746,0.7077 -0.7746,1.1368z"/>
   <path class="fil2" d="M13.8667 12.2194c0.624,0 0.8245,-0.7802 0.8245,-1.2313 0,-0.3511 -0.1783,-0.6131 -0.5237,-0.6131 -0.507,0 -0.7912,0.6687 -0.7912,1.1701 0,0.3678 0.1282,0.6743 0.4904,0.6743z"/>
   <path class="fil3" d="M30.4064 7.7282l-29.0628 0 0 1.285 10.3039 0 -0.2612 1.1891c-0.234,-0.2675 -0.5182,-0.4067 -0.8859,-0.4067 -0.9751,0 -1.4432,0.9528 -1.4432,1.8109 0,0.6241 0.3065,1.1923 0.9863,1.1923 0.4347,0 0.7132,-0.1783 0.9361,-0.4902l0.0112 0 -0.0724 0.4234 0.6965 0c0.0167,-0.1448 0.0612,-0.3901 0.1058,-0.6352l0.6739 -3.0836 18.0118 0 0 -1.285zm-20.1121 4.4912l0 0c-0.3677,0 -0.4569,-0.3901 -0.4569,-0.6798 0,-0.4291 0.2507,-1.1646 0.7856,-1.1646 0.379,0 0.5405,0.3456 0.5405,0.6799 0,0.5293 -0.3233,1.1645 -0.8692,1.1645z"/>
   <path class="fil4" d="M5.7297 9.7956c-0.3455,0 -0.7132,0.2954 -0.847,0.6073l-0.0112 0 0.1003 -0.5405 -0.7132 0c-0.0223,0.1338 -0.0445,0.2619 -0.0668,0.3846l-0.5126 2.485 0.7466 0 0.2674 -1.2872c0.0948,-0.4623 0.3511,-0.936 0.8803,-0.936 0.0948,0 0.2007,0.0168 0.2842,0.0445l0.1562 -0.7298c-0.0893,-0.0223 -0.1895,-0.0279 -0.2842,-0.0279z"/>
   <path class="fil4" d="M7.5411 9.7956c-0.9418,0 -1.6327,0.858 -1.6327,1.7495 0,0.8526 0.5573,1.2537 1.3818,1.2537 0.3065,0 0.6242,-0.0723 0.9138,-0.1615l0.0948 -0.5906c-0.2786,0.1281 -0.5739,0.2061 -0.8804,0.2061 -0.5125,0 -0.7967,-0.1949 -0.7967,-0.7243l2.0225 0c0.0446,-0.2117 0.0724,-0.4235 0.0724,-0.6408 0,-0.7299 -0.4679,-1.0921 -1.1755,-1.0921zm0.4457 1.2202l0 0 -1.2648 0c0.1448,-0.3955 0.3454,-0.6741 0.8079,-0.6741 0.312,0 0.4735,0.1727 0.4735,0.4791 0,0.0669 -0.0054,0.1282 -0.0166,0.195z"/>
  </g>
 </g>
</svg>
