<?xml version="1.0" encoding="UTF-8"?>
<!DOCTYPE svg PUBLIC "-//W3C//DTD SVG 1.1//EN" "http://www.w3.org/Graphics/SVG/1.1/DTD/svg11.dtd">
<!-- Creator: CorelDRAW -->
<svg xmlns="http://www.w3.org/2000/svg" xml:space="preserve" width="31.75mm" height="21.167mm" style="shape-rendering:geometricPrecision; text-rendering:geometricPrecision; image-rendering:optimizeQuality; fill-rule:evenodd; clip-rule:evenodd"
viewBox="0 0 31.75 21.167"
 xmlns:xlink="http://www.w3.org/1999/xlink">
 <defs>
  <style type="text/css">
   <![CDATA[
    .str0 {stroke:#C5C6C6;stroke-width:0.0762}
    .fil0 {fill:none}
    .fil1 {fill:white}
    .fil3 {fill:#1D1B19;fill-rule:nonzero}
    .fil4 {fill:#868488;fill-rule:nonzero}
    .fil5 {fill:#003882;fill-rule:nonzero}
    .fil2 {fill:url(#id0)}
   ]]>
  </style>
  <linearGradient id="id0" gradientUnits="userSpaceOnUse" x1="14.1573" y1="10.6489" x2="10.0299" y2="12.3165">
   <stop offset="0" style="stop-color:#E2302C"/>
   <stop offset="0.658824" style="stop-color:#B82E29"/>
   <stop offset="1" style="stop-color:#902725"/>
  </linearGradient>
 </defs>
 <g id="Layer_x0020_1">
  <metadata id="CorelCorpID_0Corel-Layer"/>
  <g>
   <path class="fil0 str0" d="M1.0583 0.0002l29.6334 0c0.5843,0 1.0582,0.4739 1.0582,1.0583l0.0001 19.05c-0.0001,0.5842 -0.474,1.0581 -1.0584,1.0581l-29.6333 0.0002c-0.5843,-0.0002 -1.0582,-0.4741 -1.0582,-1.0585l-0.0001 -19.0498c0.0001,-0.5844 0.474,-1.0583 1.0584,-1.0583z"/>
   <path id="1" class="fil1" d="M1.0583 0.0002l29.6334 0c0.5843,0 1.0582,0.4739 1.0582,1.0583l0.0001 19.05c-0.0001,0.5842 -0.474,1.0581 -1.0584,1.0581l-29.6333 0.0002c-0.5843,-0.0002 -1.0582,-0.4741 -1.0582,-1.0585l-0.0001 -19.0498c0.0001,-0.5844 0.474,-1.0583 1.0584,-1.0583z"/>
  </g>
  <g>
   <g id="_518354408">
    <path id="_523539160" class="fil2" d="M10.2629 12.0026c0,0 -0.2411,0.2249 -0.3231,0.3384l0.6327 0c0.4223,-0.3681 1.605,-1.7166 3.5946,-0.0969l0 0 0.0803 0c0,0 -0.9619,-1.0425 -2.0136,-1.0312l0 0c0,0 -0.0073,-0.0003 -0.0213,-0.0003l0 0c-0.1574,0 -1.1567,0.0309 -1.9496,0.79l0 0z"/>
    <path id="_523538296" class="fil3" d="M8.9341 13.9605l-0.2945 0.9461 -0.3789 0 0.9681 -3.0078 0.4377 0 0.9682 3.0078 -0.3915 0 -0.303 -0.9461 -1.0061 0zm0.9344 -0.3036l0 0 -0.2818 -0.8656c-0.0632,-0.1965 -0.1052,-0.3749 -0.1475,-0.5489l-0.0084 0c-0.0421,0.174 -0.0839,0.3615 -0.1431,0.5443l-0.2778 0.8702 0.8586 0z"/>
    <path id="_523538344" class="fil3" d="M10.963 14.5095c0.1137,0.0712 0.3071,0.1516 0.4924,0.1516 0.2653,0 0.3915,-0.1384 0.3915,-0.3211 0,-0.1875 -0.1053,-0.2859 -0.3745,-0.3929 -0.3705,-0.1428 -0.5429,-0.3524 -0.5429,-0.6114 0,-0.3482 0.2693,-0.6338 0.7027,-0.6338 0.2063,0 0.3872,0.0583 0.4966,0.134l-0.0883 0.2858c-0.08,-0.0536 -0.2272,-0.1295 -0.4166,-0.1295 -0.2189,0 -0.3368,0.1338 -0.3368,0.2945 0,0.1785 0.1179,0.2588 0.3831,0.3702 0.3492,0.1386 0.5344,0.3258 0.5344,0.647 0,0.3839 -0.2819,0.6519 -0.7575,0.6519 -0.223,0 -0.4292,-0.0625 -0.5724,-0.1519l0.0883 -0.2944z"/>
    <path id="_523538920" class="fil3" d="M13.1265 12.229l0 0.5178 0.5303 0 0 0.2988 -0.5303 0 0 1.1648c0,0.2678 0.0717,0.4196 0.2778,0.4196 0.1012,0 0.16,-0.0091 0.2147,-0.027l0.0168 0.2992c-0.0715,0.0267 -0.1852,0.0536 -0.3283,0.0536 -0.1727,0 -0.3116,-0.0625 -0.3999,-0.1652 -0.1009,-0.1207 -0.143,-0.3124 -0.143,-0.5668l0 -1.1782 -0.3158 0 0 -0.2988 0.3158 0 0 -0.4018 0.3619 -0.116z"/>
    <path id="_523538536" class="fil3" d="M14.0736 13.4206c0,-0.2544 -0.0041,-0.4731 -0.0169,-0.6739l0.3243 0 0.0167 0.4283 0.0126 0c0.0926,-0.29 0.3197,-0.473 0.5682,-0.473 0.0379,0 0.0673,0.0045 0.1009,0.0089l0 0.3705c-0.0378,-0.009 -0.0755,-0.009 -0.1261,-0.009 -0.2611,0 -0.4462,0.2053 -0.4967,0.4998 -0.0083,0.0538 -0.0125,0.1206 -0.0125,0.183l0 1.1515 -0.3705 0 0 -1.4861z"/>
    <path id="_523538656" class="fil3" d="M17.2515 13.8088c0,0.7988 -0.5262,1.147 -1.0145,1.147 -0.5471,0 -0.9764,-0.4286 -0.9764,-1.1114 0,-0.7184 0.4504,-1.1424 1.0102,-1.1424 0.5847,0 0.9807,0.4508 0.9807,1.1068zm-1.612 0.0223l0 0c0,0.4729 0.2525,0.8299 0.6143,0.8299 0.3536,0 0.6188,-0.3525 0.6188,-0.8389 0,-0.3657 -0.1725,-0.8256 -0.6104,-0.8256 -0.4335,0 -0.6227,0.4285 -0.6227,0.8346z"/>
    <path id="_523539064" class="fil4" d="M17.7313 11.9343c0.1769,-0.0312 0.4082,-0.0578 0.7028,-0.0578 0.362,0 0.6272,0.089 0.7957,0.2498 0.1514,0.1429 0.2483,0.3616 0.2483,0.6293 0,0.2724 -0.0758,0.4864 -0.219,0.6425 -0.1978,0.2188 -0.5092,0.3303 -0.867,0.3303 -0.1093,0 -0.2103,-0.0045 -0.2947,-0.0267l0 1.2049 -0.3661 0 0 -2.9723zm0.3661 1.4505l0 0c0.0801,0.0224 0.1812,0.0312 0.3031,0.0312 0.4419,0 0.7114,-0.232 0.7114,-0.6381 0,-0.4019 -0.2695,-0.5936 -0.6693,-0.5936 -0.1598,0 -0.2818,0.0134 -0.3452,0.0313l0 1.1692z"/>
    <path id="_523539232" class="fil4" d="M21.2796 14.389c0,0.1872 0.0084,0.3704 0.0294,0.5176l-0.3325 0 -0.0295 -0.2723 -0.0125 0c-0.1137,0.1697 -0.3325,0.3215 -0.623,0.3215 -0.4123,0 -0.623,-0.308 -0.623,-0.6203 0,-0.5221 0.4377,-0.808 1.225,-0.8035l0 -0.0445c0,-0.1741 -0.0463,-0.5 -0.4631,-0.4954 -0.1937,0 -0.3915,0.058 -0.5345,0.1608l-0.0842 -0.2633c0.1684,-0.1117 0.4166,-0.1877 0.6736,-0.1877 0.6227,0 0.7743,0.451 0.7743,0.8793l0 0.8078zm-0.3578 -0.5847l0 0c-0.404,-0.0088 -0.8629,0.0669 -0.8629,0.4864 0,0.2588 0.1602,0.3748 0.3453,0.3748 0.2695,0 0.4419,-0.1782 0.5008,-0.3616 0.0127,-0.0445 0.0168,-0.0892 0.0168,-0.1247l0 -0.3749z"/>
    <path id="_523539304" class="fil4" d="M21.9784 12.7468l0.4419 1.2763c0.0505,0.1427 0.1012,0.3123 0.1348,0.4417l0.0084 0c0.0378,-0.1294 0.0798,-0.2945 0.1304,-0.4505l0.4042 -1.2675 0.3912 0 -0.5555 1.5395c-0.2651,0.7409 -0.4461,1.1157 -0.6987,1.3522 -0.185,0.1651 -0.362,0.2321 -0.4544,0.2499l-0.0927 -0.3257c0.0927,-0.0312 0.2144,-0.0937 0.324,-0.192 0.101,-0.0849 0.2231,-0.2365 0.3116,-0.4374 0.0165,-0.04 0.0294,-0.0713 0.0294,-0.0937 0,-0.0222 -0.0085,-0.0537 -0.0294,-0.1025l-0.7494 -1.9903 0.4042 0z"/>
   </g>
   <path class="fil5" d="M2.1731 6.5585l0.7992 0.5333 0.9599 -0.64 -0.3996 -0.2674 0.5198 -0.3454 1.1192 0.7466 -1.8387 1.2257 0.3995 0.2674 2.2804 -1.5202 -1.9198 -1.2799 -1.9199 1.2799zm3.8397 1.2798l0 0 -0.8007 -0.5333 -0.9599 0.6399 0.3997 0.266 -0.5199 0.347 -1.119 -0.7466 1.8386 -1.2257 -0.3997 -0.2675 -2.2788 1.5202 1.9199 1.28 1.9198 -1.28zm0 -2.0264l0 0 -0.401 0.2674 -0.3997 -0.2674 0.8007 -0.5333 0 0.5333zm-3.8397 2.7731l0 0 0.3997 -0.2674 0.3995 0.2674 -0.7992 0.5333 0 -0.5333zm5.6545 -0.1083c0.2508,0 0.8742,-0.0283 0.8742,-0.6759 0,-0.3515 -0.1097,-0.5963 -0.5302,-0.6489 0.3214,-0.0631 0.4821,-0.2764 0.4821,-0.5708 0,-0.5453 -0.3709,-0.6625 -0.8231,-0.6625l-1.0501 0 0 2.5581 1.0471 0zm18.8455 0l0 0c0.3515,0 0.706,-0.0465 0.706,-0.5887 0,-0.6266 -0.9072,-0.5634 -0.9072,-0.9615 0,-0.1441 0.0885,-0.2222 0.2372,-0.2222l0.4867 0 0 -0.3231 -0.6835 0c-0.5603,0 -0.6985,0.2539 -0.6985,0.5815 0,0.6233 1.005,0.6083 1.005,0.9598 0,0.1411 -0.0766,0.2374 -0.2313,0.2374l-0.7196 0 -0.5332 -1.7772 -0.6385 0 -0.5904 1.9063 -0.3711 -0.8202c0.2719,-0.0496 0.38,-0.2224 0.3815,-0.5377 0,-0.3575 -0.2133,-0.5484 -0.5421,-0.5484l-0.999 0 0 2.094 0.5452 0 0 -1.7724 0.1818 0c0.1533,0 0.287,0.1126 0.287,0.3185 0,0.1742 -0.0872,0.3184 -0.2269,0.3093l-0.1533 0.0015 0.4972 1.1433 0.8744 0 0.1306 -0.4643 0.565 0 0.1291 0.4643 1.2679 -0.0002zm-1.4798 -0.7841l0 0 -0.404 0 0.1922 -0.8577 0.2118 0.8577zm-6.0826 0.8459l0 0c0.8158,0 0.8158,-0.5424 0.8158,-1.0983 0,-0.5632 0,-1.0995 -0.8158,-1.0995 -0.8155,0 -0.8155,0.5363 -0.8155,1.0995 0,0.5559 0,1.0983 0.8155,1.0983zm0 -0.3185l0 0c-0.2387,0 -0.2703,-0.2344 -0.2703,-0.7798 0,-0.5452 0.0316,-0.781 0.2703,-0.781 0.2389,0 0.269,0.2358 0.269,0.781 0,0.5454 -0.0301,0.7798 -0.269,0.7798zm-2.5897 0.2567l0 0 0.7961 0c0.8353,0 0.7798,-0.739 0.7798,-1.0621 0,-0.6533 -0.1202,-1.0378 -0.7601,-1.0378l-0.8158 0 0 2.0999zm0.5318 -1.7739l0 0 0.2148 0c0.2929,0 0.2929,0.3409 0.2929,0.7269 0,0.5273 -0.051,0.7287 -0.3065,0.7287l-0.2012 0 0 -1.4556zm4.2318 0.6579l0 0 0.1321 0c0.2554,0 0.3366,0.1396 0.3366,0.365 0,0.3591 -0.2419,0.3621 -0.35,0.3621l-0.281 0 0 -0.7227 0.1623 -0.0044zm-0.1623 -0.3906l0 0 0 -0.6535 0.3125 0c0.1712,0 0.2915,0.1368 0.2915,0.3261 0,0.2478 -0.1547,0.3244 -0.2645,0.3244l-0.1772 0 -0.1623 0.003zm0.4011 1.5083l0 0c0.2509,0 0.8743,-0.0286 0.8743,-0.6776 0,-0.3515 -0.1096,-0.5948 -0.5288,-0.6489 0.3215,-0.0631 0.4823,-0.2764 0.4823,-0.5708 0,-0.5453 -0.3727,-0.6625 -0.8232,-0.6625l-1.0517 0 0 2.5598 1.0471 0zm8.0535 -0.0017l0 0 0 -0.317 -0.6219 0 0 -1.777 -0.5318 0 0 2.094 1.1537 0zm-1.4661 -2.094l0 0 -0.5334 0 0 2.094 0.5334 0 0 -2.094zm-12.9838 2.1556l0 0c0.8156,0 0.8156,-0.5438 0.8156,-1.1025 0,-0.5664 0,-1.1041 -0.8156,-1.1041 -0.8143,0 -0.8143,0.5377 -0.8143,1.1041 0,0.5587 0,1.1025 0.8143,1.1025zm0 -0.3184l0 0c-0.2389,0 -0.269,-0.2373 -0.269,-0.7841 0,-0.5484 0.0301,-0.7842 0.269,-0.7842 0.2388,0 0.2703,0.2358 0.2703,0.7842 0,0.5468 -0.0315,0.7841 -0.2703,0.7841zm-5.2715 -0.5289l0 0 -0.4055 0 0.1922 -0.8561 0.2133 0.8561zm-0.6144 0.7857l0 0 0.1323 -0.4641 0.5648 0 0.1291 0.4641 0.5574 0 -0.6294 -2.094 -0.6369 0 -0.6431 2.094 0.5258 0zm4.1824 0.0616l0 0c0.4625,0 0.733,-0.1833 0.733,-0.754l-0.5273 0c-0.006,0.1682 -0.009,0.4356 -0.2057,0.4356 -0.2239,0 -0.257,-0.1367 -0.257,-0.7841 0,-0.6716 0.0511,-0.7842 0.2464,-0.7842 0.1397,0 0.2027,0.1052 0.2027,0.3907l0.5244 0c0.0194,-0.4598 -0.236,-0.7106 -0.7406,-0.7106 -0.7511,0 -0.7722,0.4776 -0.7722,1.1041 0,0.6293 -0.0195,1.1025 0.7963,1.1025zm-2.2219 -0.0616l0 0 0 -1.3955 0.5814 1.3955 0.6294 0 0 -2.094 -0.4537 0 0 1.3534 -0.5663 -1.3534 -0.6446 0 0 2.094 0.4538 0zm-3.6489 -1.1192l0 0 0.0826 0c0.3125,0 0.4115,0.1383 0.4115,0.3652 0,0.3575 -0.2958,0.3605 -0.4281,0.3605l-0.1938 0 0 -0.7225 0.1278 -0.0032zm-0.1278 -0.3918l0 0 0 -0.6535 0.2315 0c0.2102,0 0.3574,0.1382 0.3574,0.3259 0,0.2478 -0.1892,0.326 -0.3244,0.326l-0.2179 0 -0.0466 0.0016z"/>
  </g>
 </g>
</svg>
