<svg id="Layer_1" data-name="Layer 1" xmlns="http://www.w3.org/2000/svg" viewBox="0 0 420 260" width="120" height="80" style="background-color: #ffffff;">
    <defs>
        <style>
            .cls-1,.cls-3,.cls-5{fill:#218495;}.cls-1,.cls-2{clip-rule:evenodd;}.cls-3,.cls-6{fill-rule:evenodd;}.cls-4{clip-path:url(#clip-path);}.cls-7{clip-path:url(#clip-path-2);}
        </style>
        <clipPath id="clip-path" transform="translate(57.16 18.95)">
            <path class="cls-1"
                  d="M247.8,95.07a11.6,11.6,0,0,1-.56,3.55,9.85,9.85,0,0,1-1.7,3.14A8.93,8.93,0,0,1,235.05,104a8.25,8.25,0,0,1-2.79-2.23,9.66,9.66,0,0,1-1.7-3.14,11.37,11.37,0,0,1,0-7.11,9.24,9.24,0,0,1,1.66-3.06,9,9,0,0,1,10.45-2.16,8.85,8.85,0,0,1,2.79,2.16,9.23,9.23,0,0,1,1.74,3.06A10.86,10.86,0,0,1,247.8,95.07Zm-186.2,0A10.62,10.62,0,0,0,61,91.51a9.39,9.39,0,0,0-1.73-3.06,9.08,9.08,0,0,0-2.79-2.16A8.67,8.67,0,0,0,46,88.45a9.22,9.22,0,0,0-1.65,3.06,11.37,11.37,0,0,0,0,7.11,9.64,9.64,0,0,0,1.69,3.14A8.93,8.93,0,0,0,56.54,104a8.25,8.25,0,0,0,2.79-2.23A9.48,9.48,0,0,0,61,98.62,11.32,11.32,0,0,0,61.6,95.07Z"/>
        </clipPath>
        <clipPath id="clip-path-2" transform="translate(57.16 18.95)">
            <path class="cls-2"
                  d="M267.07,113.46a32,32,0,0,0,1.45-9.46,31.19,31.19,0,0,0-1.45-9.37,26.23,26.23,0,0,0-4.35-8.36,21.73,21.73,0,0,0-7.34-6,25.69,25.69,0,0,0-21.16,0,21.83,21.83,0,0,0-7.34,6,26,26,0,0,0-4.35,8.36,31.19,31.19,0,0,0-1.45,9.37,32,32,0,0,0,1.45,9.46,25.87,25.87,0,0,0,4.35,8.45,22.78,22.78,0,0,0,7.34,6.08,24.9,24.9,0,0,0,21.16,0,22.67,22.67,0,0,0,7.34-6.08A26.06,26.06,0,0,0,267.07,113.46Zm18.56-26.94A43,43,0,0,1,289.08,104a43.62,43.62,0,0,1-3.45,17.57,41.64,41.64,0,0,1-9.35,13.6,42.87,42.87,0,0,1-14,8.87,47.77,47.77,0,0,1-34.38,0,40.68,40.68,0,0,1-14-8.87c-10.68-10.7-12.1-21-12.79-29.85s-.52-74.48-.52-74.48a8.3,8.3,0,0,1,8.29-8.31h4.3a8.3,8.3,0,0,1,8.29,8.31V68.19a43.72,43.72,0,0,1,23.6-6.75,48.36,48.36,0,0,1,17.19,3,40.18,40.18,0,0,1,23.34,22ZM80.79,113.46A32,32,0,0,0,82.24,104a31.19,31.19,0,0,0-1.45-9.37,26.23,26.23,0,0,0-4.35-8.36,21.83,21.83,0,0,0-7.34-6A22.88,22.88,0,0,0,58.52,78a22.85,22.85,0,0,0-10.58,2.28,21.73,21.73,0,0,0-7.34,6,25.83,25.83,0,0,0-4.35,8.36A31.19,31.19,0,0,0,34.8,104a32,32,0,0,0,1.45,9.46,25.68,25.68,0,0,0,4.35,8.45A22.67,22.67,0,0,0,47.94,128a22.13,22.13,0,0,0,10.58,2.36A22.15,22.15,0,0,0,69.1,128a22.78,22.78,0,0,0,7.34-6.08A26.06,26.06,0,0,0,80.79,113.46ZM107.72,104a42.88,42.88,0,0,1,3.46-17.48,40.82,40.82,0,0,1,9.35-13.43,41.32,41.32,0,0,1,14-8.61,50.12,50.12,0,0,1,34.38,0,40.26,40.26,0,0,1,23.34,22A43,43,0,0,1,195.68,104a43.62,43.62,0,0,1-3.45,17.57,41.62,41.62,0,0,1-9.36,13.6,42.72,42.72,0,0,1-14,8.87,47.77,47.77,0,0,1-34.38,0,42.72,42.72,0,0,1-14-8.87,41.44,41.44,0,0,1-9.35-13.6A43.45,43.45,0,0,1,107.72,104Zm20.56,0a32.27,32.27,0,0,0,1.43,9.46,26,26,0,0,0,4.3,8.45,22.5,22.5,0,0,0,7.24,6.08,24.32,24.32,0,0,0,20.9,0,22.5,22.5,0,0,0,7.24-6.08,26,26,0,0,0,4.3-8.45,32.6,32.6,0,0,0,1.43-9.46,31.81,31.81,0,0,0-1.43-9.37,26.12,26.12,0,0,0-4.3-8.36,21.56,21.56,0,0,0-7.24-6,25.09,25.09,0,0,0-20.9,0,21.56,21.56,0,0,0-7.24,6,26.12,26.12,0,0,0-4.3,8.36A31.49,31.49,0,0,0,128.28,104Zm-114-57.16c0-9.35,0-16,0-16a8.3,8.3,0,0,1,8.28-8.31h4.31a8.3,8.3,0,0,1,8.29,8.31V68.19a43.67,43.67,0,0,1,23.6-6.75,48.44,48.44,0,0,1,17.19,3,40.26,40.26,0,0,1,23.34,22A43.21,43.21,0,0,1,102.8,104a43.79,43.79,0,0,1-3.45,17.57A41.67,41.67,0,0,1,90,135.17,42.72,42.72,0,0,1,76,144a47.77,47.77,0,0,1-34.38,0,40.73,40.73,0,0,1-14-8.87c-10.67-10.7-12.1-21-12.78-29.85-.46-5.79-.54-36.19-.54-56.32Z"/>
        </clipPath>
    </defs>
    <title>logo-bob-invoice-rgb-svg</title>
    <path class="cls-3"
          d="M247.8,95.07a11.6,11.6,0,0,1-.56,3.55,9.85,9.85,0,0,1-1.7,3.14A8.93,8.93,0,0,1,235.05,104a8.25,8.25,0,0,1-2.79-2.23,9.66,9.66,0,0,1-1.7-3.14,11.37,11.37,0,0,1,0-7.11,9.24,9.24,0,0,1,1.66-3.06,9,9,0,0,1,10.45-2.16,8.85,8.85,0,0,1,2.79,2.16,9.23,9.23,0,0,1,1.74,3.06A10.86,10.86,0,0,1,247.8,95.07Zm-186.2,0A10.62,10.62,0,0,0,61,91.51a9.39,9.39,0,0,0-1.73-3.06,9.08,9.08,0,0,0-2.79-2.16A8.67,8.67,0,0,0,46,88.45a9.22,9.22,0,0,0-1.65,3.06,11.37,11.37,0,0,0,0,7.11,9.64,9.64,0,0,0,1.69,3.14A8.93,8.93,0,0,0,56.54,104a8.25,8.25,0,0,0,2.79-2.23A9.48,9.48,0,0,0,61,98.62,11.32,11.32,0,0,0,61.6,95.07Z"
          transform="translate(57.16 18.95)"/>
    <g class="cls-4">
        <rect class="cls-5" width="992.36" height="216.98"/>
    </g>
    <path class="cls-6"
          d="M267.07,113.46a32,32,0,0,0,1.45-9.46,31.19,31.19,0,0,0-1.45-9.37,26.23,26.23,0,0,0-4.35-8.36,21.73,21.73,0,0,0-7.34-6,25.69,25.69,0,0,0-21.16,0,21.83,21.83,0,0,0-7.34,6,26,26,0,0,0-4.35,8.36,31.19,31.19,0,0,0-1.45,9.37,32,32,0,0,0,1.45,9.46,25.87,25.87,0,0,0,4.35,8.45,22.78,22.78,0,0,0,7.34,6.08,24.9,24.9,0,0,0,21.16,0,22.67,22.67,0,0,0,7.34-6.08A26.06,26.06,0,0,0,267.07,113.46Zm18.56-26.94A43,43,0,0,1,289.08,104a43.62,43.62,0,0,1-3.45,17.57,41.64,41.64,0,0,1-9.35,13.6,42.87,42.87,0,0,1-14,8.87,47.77,47.77,0,0,1-34.38,0,40.68,40.68,0,0,1-14-8.87c-10.68-10.7-12.1-21-12.79-29.85s-.52-74.48-.52-74.48a8.3,8.3,0,0,1,8.29-8.31h4.3a8.3,8.3,0,0,1,8.29,8.31V68.19a43.72,43.72,0,0,1,23.6-6.75,48.36,48.36,0,0,1,17.19,3,40.18,40.18,0,0,1,23.34,22ZM80.79,113.46A32,32,0,0,0,82.24,104a31.19,31.19,0,0,0-1.45-9.37,26.23,26.23,0,0,0-4.35-8.36,21.83,21.83,0,0,0-7.34-6A22.88,22.88,0,0,0,58.52,78a22.85,22.85,0,0,0-10.58,2.28,21.73,21.73,0,0,0-7.34,6,25.83,25.83,0,0,0-4.35,8.36A31.19,31.19,0,0,0,34.8,104a32,32,0,0,0,1.45,9.46,25.68,25.68,0,0,0,4.35,8.45A22.67,22.67,0,0,0,47.94,128a22.13,22.13,0,0,0,10.58,2.36A22.15,22.15,0,0,0,69.1,128a22.78,22.78,0,0,0,7.34-6.08A26.06,26.06,0,0,0,80.79,113.46ZM107.72,104a42.88,42.88,0,0,1,3.46-17.48,40.82,40.82,0,0,1,9.35-13.43,41.32,41.32,0,0,1,14-8.61,50.12,50.12,0,0,1,34.38,0,40.26,40.26,0,0,1,23.34,22A43,43,0,0,1,195.68,104a43.62,43.62,0,0,1-3.45,17.57,41.62,41.62,0,0,1-9.36,13.6,42.72,42.72,0,0,1-14,8.87,47.77,47.77,0,0,1-34.38,0,42.72,42.72,0,0,1-14-8.87,41.44,41.44,0,0,1-9.35-13.6A43.45,43.45,0,0,1,107.72,104Zm20.56,0a32.27,32.27,0,0,0,1.43,9.46,26,26,0,0,0,4.3,8.45,22.5,22.5,0,0,0,7.24,6.08,24.32,24.32,0,0,0,20.9,0,22.5,22.5,0,0,0,7.24-6.08,26,26,0,0,0,4.3-8.45,32.6,32.6,0,0,0,1.43-9.46,31.81,31.81,0,0,0-1.43-9.37,26.12,26.12,0,0,0-4.3-8.36,21.56,21.56,0,0,0-7.24-6,25.09,25.09,0,0,0-20.9,0,21.56,21.56,0,0,0-7.24,6,26.12,26.12,0,0,0-4.3,8.36A31.49,31.49,0,0,0,128.28,104Zm-114-57.16c0-9.35,0-16,0-16a8.3,8.3,0,0,1,8.28-8.31h4.31a8.3,8.3,0,0,1,8.29,8.31V68.19a43.67,43.67,0,0,1,23.6-6.75,48.44,48.44,0,0,1,17.19,3,40.26,40.26,0,0,1,23.34,22A43.21,43.21,0,0,1,102.8,104a43.79,43.79,0,0,1-3.45,17.57A41.67,41.67,0,0,1,90,135.17,42.72,42.72,0,0,1,76,144a47.77,47.77,0,0,1-34.38,0,40.73,40.73,0,0,1-14-8.87c-10.67-10.7-12.1-21-12.78-29.85-.46-5.79-.54-36.19-.54-56.32Z"
          transform="translate(57.16 18.95)"/>
    <g class="cls-7">
        <rect width="992.36" height="216.98"/>
    </g>
    <path class="cls-5"
          d="M19.16,163.93a5.91,5.91,0,1,1,0-11.82,5.91,5.91,0,1,1,0,11.82Zm-5.22,47.84V170.2H24.37v41.57Z"
          transform="translate(57.16 18.95)"/>
    <path class="cls-5"
          d="M63.59,211.77v-23.4c0-3.65-.26-6.78-2.52-8.61-1.3-1.22-3.13-2-6.09-2A10.06,10.06,0,0,0,48,180.54c-2.87,2.87-3,7.48-3,12.53v18.7H34.63V170.2h9.92l.17,5.21a17.25,17.25,0,0,1,13.92-6.69,15,15,0,0,1,11.3,4.43c3.57,3.65,4.09,8.79,4.09,13.48v25.14Z"
          transform="translate(57.16 18.95)"/>
    <path class="cls-5" d="M106.82,211.77H96.73l-18-41.57h11.4l11.91,29,11.74-29h11Z"
          transform="translate(57.16 18.95)"/>
    <path class="cls-5"
          d="M150.73,213.07c-15.91,0-22.87-11.57-22.87-22.18s7-22.17,22.87-22.17,22.79,11.56,22.79,22.17S166.56,213.07,150.73,213.07ZM159,180.46a11.28,11.28,0,0,0-8.26-3.13,11,11,0,0,0-8.26,3.13,16.13,16.13,0,0,0,0,20.87,11.13,11.13,0,0,0,8.26,3.13,11.28,11.28,0,0,0,8.26-3.13c2.35-2.43,3.74-6,3.74-10.44S161.34,182.81,159,180.46Z"
          transform="translate(57.16 18.95)"/>
    <path class="cls-5"
          d="M186.91,163.93a5.91,5.91,0,1,1,0-11.82,5.91,5.91,0,1,1,0,11.82Zm-5.22,47.84V170.2h10.43v41.57Z"
          transform="translate(57.16 18.95)"/>
    <path class="cls-5"
          d="M222.74,213.07c-14.61,0-22.44-10-22.44-22.18,0-11.39,7.39-22.17,22.7-22.17,12.35,0,17.65,7.65,18.09,8.35l-6.35,5.56c-.7-.61-4.52-5.3-11.39-5.3-8.27,0-12.27,6.61-12.27,13.65s3.92,13.48,12.09,13.48A15.19,15.19,0,0,0,235,198.9c2.09,1.82,4.17,3.65,6.26,5.39C240.91,204.9,235.52,213.07,222.74,213.07Z"
          transform="translate(57.16 18.95)"/>
    <path class="cls-5"
          d="M257.35,194.2c0,4.61,3.39,10.61,11.65,10.61a17.06,17.06,0,0,0,12.61-5.48l5.83,5.39a24,24,0,0,1-18.79,8.35c-15,0-22-10.26-22-22,0-11.57,7.31-22.35,21.83-22.35a19.22,19.22,0,0,1,13.91,5.3c5.57,5.57,6.27,12.7,6.27,20.18Zm10.87-17.57c-8.26,0-10.7,7.65-10.7,10.09h20.87C278.39,183.76,276.22,176.63,268.22,176.63Z"
          transform="translate(57.16 18.95)"/>
</svg>