<svg version="1.0" xmlns="http://www.w3.org/2000/svg"
	 x="0px" y="0px"
	 width="120" height="80"
	 viewBox="0 0 120 80" enable-background="new 0 0 120 80">
<path fill-rule="evenodd" clip-rule="evenodd" d="M4,0h112c2.21,0,4,1.79,4,4v72c0,2.21-1.79,4-4,4H4c-2.21,0-4-1.79-4-4V4
	C0,1.79,1.79,0,4,0z"/>
<polygon fill-rule="evenodd" clip-rule="evenodd" fill="#FF5F00" points="50.01,52.57 70.71,52.57 70.71,15.38 50.01,15.38 "/>
<path fill-rule="evenodd" clip-rule="evenodd" fill="#EB001B" d="M51.33,33.98c0-7.55,3.53-14.26,9.03-18.6
	c-4.02-3.17-9.1-5.06-14.62-5.06c-13.06,0-23.65,10.59-23.65,23.65c0,13.06,10.59,23.65,23.65,23.65c5.52,0,10.59-1.89,14.62-5.06
	C54.86,48.24,51.33,41.52,51.33,33.98"/>
<path fill-rule="evenodd" clip-rule="evenodd" fill="#F79E1B" d="M97.89,48.63v-0.92h-0.24l-0.28,0.63l-0.28-0.63h-0.24v0.92h0.17
	v-0.69l0.26,0.6h0.18l0.26-0.6v0.69H97.89z M96.37,48.63v-0.76h0.31v-0.16H95.9v0.16h0.31v0.76H96.37L96.37,48.63z M98.63,33.98
	c0,13.06-10.59,23.65-23.65,23.65c-5.52,0-10.59-1.89-14.62-5.06c5.5-4.33,9.03-11.05,9.03-18.6c0-7.55-3.53-14.26-9.03-18.6
	c4.02-3.17,9.1-5.06,14.62-5.06C88.04,10.33,98.63,20.92,98.63,33.98"/>
<path fill-rule="evenodd" clip-rule="evenodd" fill="#FFFFFF" d="M36.79,69.64v-3.87c0-1.48-0.9-2.45-2.43-2.45
	c-0.77,0-1.6,0.26-2.18,1.1c-0.45-0.71-1.09-1.1-2.05-1.1c-0.64,0-1.28,0.19-1.79,0.9v-0.77h-1.35v6.19h1.35v-3.42
	c0-1.1,0.58-1.61,1.47-1.61c0.9,0,1.35,0.58,1.35,1.61v3.42h1.35v-3.42c0-1.1,0.64-1.61,1.47-1.61c0.9,0,1.35,0.58,1.35,1.61v3.42
	H36.79z M56.72,63.45h-2.18v-1.87h-1.35v1.87h-1.22v1.23h1.22v2.84c0,1.42,0.58,2.26,2.11,2.26c0.58,0,1.22-0.19,1.67-0.45
	l-0.38-1.16c-0.38,0.26-0.83,0.32-1.15,0.32c-0.64,0-0.9-0.39-0.9-1.03v-2.77h2.18V63.45z M68.12,63.32c-0.77,0-1.28,0.39-1.6,0.9
	v-0.77h-1.35v6.19h1.35v-3.48c0-1.03,0.45-1.61,1.28-1.61c0.26,0,0.58,0.06,0.83,0.13l0.38-1.29
	C68.77,63.32,68.38,63.32,68.12,63.32L68.12,63.32z M50.89,63.97c-0.64-0.45-1.54-0.65-2.5-0.65c-1.54,0-2.56,0.77-2.56,2
	c0,1.03,0.77,1.61,2.11,1.81l0.64,0.06c0.7,0.13,1.09,0.32,1.09,0.65c0,0.45-0.51,0.77-1.41,0.77s-1.6-0.32-2.05-0.65L45.57,69
	c0.7,0.52,1.67,0.77,2.63,0.77c1.79,0,2.82-0.84,2.82-2c0-1.1-0.83-1.68-2.11-1.87l-0.64-0.06c-0.58-0.06-1.03-0.19-1.03-0.58
	c0-0.45,0.45-0.71,1.15-0.71c0.77,0,1.54,0.32,1.92,0.52L50.89,63.97z M86.64,63.32c-0.77,0-1.28,0.39-1.6,0.9v-0.77H83.7v6.19h1.35
	v-3.48c0-1.03,0.45-1.61,1.28-1.61c0.26,0,0.58,0.06,0.83,0.13l0.38-1.29C87.28,63.32,86.9,63.32,86.64,63.32L86.64,63.32z
	 M69.47,66.55c0,1.87,1.28,3.23,3.27,3.23c0.9,0,1.54-0.19,2.18-0.71l-0.64-1.1c-0.51,0.39-1.03,0.58-1.6,0.58
	c-1.09,0-1.86-0.77-1.86-2c0-1.16,0.77-1.94,1.86-2c0.58,0,1.09,0.19,1.6,0.58l0.64-1.1c-0.64-0.52-1.28-0.71-2.18-0.71
	C70.75,63.32,69.47,64.68,69.47,66.55L69.47,66.55z M81.9,66.55v-3.1h-1.35v0.77c-0.45-0.58-1.09-0.9-1.92-0.9
	c-1.73,0-3.08,1.35-3.08,3.23c0,1.87,1.35,3.23,3.08,3.23c0.9,0,1.54-0.32,1.92-0.9v0.77h1.35V66.55z M76.97,66.55
	c0-1.1,0.7-2,1.86-2c1.09,0,1.86,0.84,1.86,2c0,1.1-0.77,2-1.86,2C77.67,68.48,76.97,67.64,76.97,66.55L76.97,66.55z M60.88,63.32
	c-1.79,0-3.08,1.29-3.08,3.23c0,1.94,1.28,3.23,3.14,3.23c0.9,0,1.79-0.26,2.5-0.84l-0.64-0.97c-0.51,0.39-1.15,0.65-1.79,0.65
	c-0.83,0-1.67-0.39-1.86-1.48h4.55v-0.52C63.77,64.61,62.61,63.32,60.88,63.32L60.88,63.32z M60.88,64.48
	c0.83,0,1.41,0.52,1.54,1.48h-3.2C59.35,65.13,59.92,64.48,60.88,64.48L60.88,64.48z M94.27,66.55V61h-1.35v3.23
	c-0.45-0.58-1.09-0.9-1.92-0.9c-1.73,0-3.08,1.35-3.08,3.23c0,1.87,1.35,3.23,3.08,3.23c0.9,0,1.54-0.32,1.92-0.9v0.77h1.35V66.55z
	 M89.33,66.55c0-1.1,0.7-2,1.86-2c1.09,0,1.86,0.84,1.86,2c0,1.1-0.77,2-1.86,2C90.04,68.48,89.33,67.64,89.33,66.55L89.33,66.55z
	 M44.35,66.55v-3.1h-1.35v0.77c-0.45-0.58-1.09-0.9-1.92-0.9c-1.73,0-3.08,1.35-3.08,3.23c0,1.87,1.35,3.23,3.08,3.23
	c0.9,0,1.54-0.32,1.92-0.9v0.77h1.35V66.55z M39.35,66.55c0-1.1,0.7-2,1.86-2c1.09,0,1.86,0.84,1.86,2c0,1.1-0.77,2-1.86,2
	C40.06,68.48,39.35,67.64,39.35,66.55z M96.18,69.36v0.12h0.11c0.03,0,0.05-0.01,0.06-0.01c0.01-0.01,0.02-0.03,0.02-0.05
	c0-0.02-0.01-0.03-0.02-0.05c-0.02-0.01-0.03-0.02-0.06-0.02H96.18z M96.29,69.28c0.06,0,0.1,0.01,0.13,0.04
	c0.03,0.03,0.05,0.06,0.05,0.11c0,0.04-0.01,0.07-0.04,0.09c-0.02,0.02-0.06,0.04-0.11,0.05l0.15,0.17h-0.11l-0.14-0.17h-0.04v0.17
	h-0.1v-0.46H96.29z M96.26,69.89c0.05,0,0.1-0.01,0.15-0.03c0.05-0.02,0.08-0.05,0.12-0.08c0.03-0.03,0.06-0.08,0.08-0.12
	s0.03-0.1,0.03-0.15c0-0.05-0.01-0.1-0.03-0.15c-0.02-0.05-0.05-0.09-0.08-0.12c-0.03-0.03-0.07-0.06-0.12-0.08
	c-0.05-0.02-0.09-0.03-0.15-0.03c-0.05,0-0.1,0.01-0.15,0.03c-0.05,0.02-0.09,0.05-0.12,0.08c-0.03,0.03-0.06,0.08-0.08,0.12
	c-0.02,0.05-0.03,0.1-0.03,0.15c0,0.05,0.01,0.1,0.03,0.15s0.05,0.09,0.08,0.12c0.03,0.03,0.07,0.06,0.12,0.08
	S96.21,69.89,96.26,69.89z M96.26,69.02c0.07,0,0.13,0.01,0.19,0.04c0.06,0.03,0.11,0.06,0.16,0.11c0.04,0.04,0.08,0.1,0.1,0.16
	c0.03,0.06,0.04,0.12,0.04,0.19c0,0.07-0.01,0.13-0.04,0.19c-0.03,0.06-0.06,0.11-0.1,0.16c-0.04,0.04-0.1,0.08-0.16,0.11
	C96.4,69.99,96.33,70,96.26,70c-0.07,0-0.13-0.01-0.19-0.04c-0.06-0.03-0.11-0.06-0.16-0.11c-0.04-0.04-0.08-0.1-0.1-0.16
	c-0.03-0.06-0.04-0.12-0.04-0.19c0-0.07,0.01-0.13,0.04-0.19c0.03-0.06,0.06-0.11,0.1-0.16c0.04-0.05,0.1-0.08,0.16-0.11
	C96.13,69.03,96.19,69.02,96.26,69.02z"/>
</svg>
