<svg id="Ebene_1" data-name="Ebene 1" xmlns="http://www.w3.org/2000/svg" viewBox="0 0 120.06 80"><title>stripe_new_wout_border</title><g id="Layer_1"><path d="M3.94,0H116a4,4,0,0,1,4,4V76a4,4,0,0,1-4,4H3.94a4,4,0,0,1-4-4V4A4,4,0,0,1,3.94,0Z" transform="translate(0.06)" style="fill:#fff"/><path d="M95.52,38.77c0.2-3.12,1-4.58,2.64-4.58s2.39,1.49,2.5,4.58H95.52Zm11.69,1.85h0c0-3.48-.76-6.24-2.25-8.18a8,8,0,0,0-6.69-3c-5.93,0-9.61,4.38-9.61,11.41,0,3.93,1,6.88,2.92,8.77,1.74,1.69,4.24,2.53,7.48,2.53a14.13,14.13,0,0,0,7.48-1.85l-0.76-4.78a12.38,12.38,0,0,1-6,1.43,4.26,4.26,0,0,1-3-.87A4.39,4.39,0,0,1,95.58,43h11.55c0-.34.08-1.91,0.08-2.42h0ZM79.33,45.35h0A2.74,2.74,0,0,1,76.88,47,4.13,4.13,0,0,1,75,46.55V36.16a3.79,3.79,0,0,1,2.64-1.38c1.77,0,2.64,1.91,2.64,5.65a10.09,10.09,0,0,1-1,4.92h0Zm5.79-13.49h0A6.12,6.12,0,0,0,80,29.47a7.26,7.26,0,0,0-5.45,2.61l-0.37-2.19H68V59.84l7-1.15v-7a10.66,10.66,0,0,0,3.15.51,8.32,8.32,0,0,0,6.24-2.58c1.88-2.05,2.84-5.23,2.84-9.41,0-3.71-.7-6.52-2.11-8.32h0Zm-26.83-2h7V51.75h-7V29.89Zm3.51-2.16h0a3.68,3.68,0,1,0-3.68-3.68A3.67,3.67,0,0,0,61.8,27.73Zm-6.52,1.86h0a4.16,4.16,0,0,0-4.16,2.89L50.7,29.89H44.6V51.75h7V37.56a4.5,4.5,0,0,1,3.79-1.45,6.69,6.69,0,0,1,1.24.08V29.76A5.67,5.67,0,0,0,55.28,29.59ZM41.91,35.06h0l0.84-5.17H38.3V23.62l-6,1-0.86,5.29-2.11.34-0.79,4.83h2.88V45.21c0,2.64.67,4.47,2.05,5.59a8,8,0,0,0,5.14,1.38,13,13,0,0,0,3.65-.51V46.19a9.59,9.59,0,0,1-2,.31c-1.38,0-2-.7-2-2.3V35.06h3.61Zm-20,3.06h0c-2.05-.76-3.18-1.35-3.18-2.28s0.65-1.24,1.8-1.24a13.83,13.83,0,0,1,5.76,1.55L27.17,31a16.21,16.21,0,0,0-6.94-1.49,8.9,8.9,0,0,0-5.73,1.77,6.3,6.3,0,0,0-2.22,5.06c0,3.82,2.33,5.45,6.13,6.83,2.45,0.87,3.26,1.49,3.26,2.44S20.87,47,19.44,47a15.49,15.49,0,0,1-6.61-2L12,50.29a17.14,17.14,0,0,0,7.81,1.88,9.54,9.54,0,0,0,6-1.71A6.52,6.52,0,0,0,28.18,45C28.18,41.13,25.79,39.5,21.94,38.13Z" transform="translate(0.06)" style="fill:#323b3f"/></g></svg>