<?xml version="1.0" encoding="UTF-8"?>
<!DOCTYPE svg PUBLIC "-//W3C//DTD SVG 1.1//EN" "http://www.w3.org/Graphics/SVG/1.1/DTD/svg11.dtd">
<!-- Creator: CorelDRAW -->
<svg xmlns="http://www.w3.org/2000/svg" xml:space="preserve" width="31.75mm" height="21.167mm" style="shape-rendering:geometricPrecision; text-rendering:geometricPrecision; image-rendering:optimizeQuality; fill-rule:evenodd; clip-rule:evenodd"
viewBox="0 0 31.75 21.167"
 xmlns:xlink="http://www.w3.org/1999/xlink">
 <defs>
  <style type="text/css">
   <![CDATA[
    .str0 {stroke:#C5C6C6;stroke-width:0.0762}
    .fil0 {fill:none}
    .fil1 {fill:white}
    .fil5 {fill:#FEFEFE}
    .fil6 {fill:#FEFEFE;fill-rule:nonzero}
    .fil3 {fill:#022E64;fill-rule:nonzero}
    .fil4 {fill:#076F74;fill-rule:nonzero}
    .fil2 {fill:#D10429;fill-rule:nonzero}
   ]]>
  </style>
 </defs>
 <g id="Layer_x0020_1">
  <metadata id="CorelCorpID_0Corel-Layer"/>
  <g>
   <path class="fil0 str0" d="M1.0583 0.0002l29.6334 0c0.5843,0 1.0582,0.4739 1.0582,1.0583l0.0001 19.05c-0.0001,0.5842 -0.474,1.0581 -1.0584,1.0581l-29.6333 0.0002c-0.5843,-0.0002 -1.0582,-0.4741 -1.0582,-1.0585l-0.0001 -19.0498c0.0001,-0.5844 0.474,-1.0583 1.0584,-1.0583z"/>
   <path id="1" class="fil1" d="M1.0583 0.0002l29.6334 0c0.5843,0 1.0582,0.4739 1.0582,1.0583l0.0001 19.05c-0.0001,0.5842 -0.474,1.0581 -1.0584,1.0581l-29.6333 0.0002c-0.5843,-0.0002 -1.0582,-0.4741 -1.0582,-1.0585l-0.0001 -19.0498c0.0001,-0.5844 0.474,-1.0583 1.0584,-1.0583z"/>
  </g>
  <g>
   <path class="fil2" d="M9.8929 4.4322l4.9089 0c0.6852,0 1.1115,0.5585 0.9516,1.2461l-2.2855 9.8123c-0.1612,0.6852 -0.8474,1.2442 -1.533,1.2442l-4.9085 0c-0.6843,0 -1.1115,-0.559 -0.9517,-1.2442l2.2865 -9.8123c0.1598,-0.6876 0.8455,-1.2461 1.5317,-1.2461z"/>
   <path class="fil3" d="M14.3933 4.4322l5.6452 0c0.6851,0 0.3762,0.5585 0.215,1.2461l-2.2851 9.8123c-0.1603,0.6852 -0.1103,1.2442 -0.7969,1.2442l-5.6451 0c-0.6866,0 -1.1115,-0.559 -0.9502,-1.2442l2.285 -9.8123c0.1622,-0.6876 0.8465,-1.2461 1.5321,-1.2461z"/>
   <path class="fil4" d="M19.8146 4.4322l4.9089 0c0.6862,0 1.1124,0.5585 0.9512,1.2461l-2.2851 9.8123c-0.1612,0.6852 -0.8478,1.2442 -1.5339,1.2442l-4.9067 0c-0.6866,0 -1.1124,-0.559 -0.9516,-1.2442l2.2855 -9.8123c0.1599,-0.6876 0.845,-1.2461 1.5317,-1.2461z"/>
   <path class="fil5" d="M18.9952 13.6617l0.4628 0 0.1327 -0.4445 -0.4613 0 -0.1342 0.4445zm0.3697 -1.2283l0 0 -0.1589 0.5268c0,0 0.1762,-0.0898 0.2702,-0.1183 0.0953,-0.0215 0.2402,-0.0397 0.2402,-0.0397l0.1122 -0.3688 -0.4637 0zm0.2305 -0.7567l0 0 -0.1538 0.5062c0,0 0.1729,-0.0781 0.2659,-0.1038 0.0954,-0.0252 0.2379,-0.0336 0.2379,-0.0336l0.1113 -0.3688 -0.4613 0zm1.0235 0l0 0 -0.5987 1.9803 0.1617 0 -0.1252 0.409 -0.1599 0 -0.0378 0.1262 -0.5698 0 0.0388 -0.1262 -1.1563 0 0.1154 -0.3786 0.1178 0 0.6067 -2.0107 0.121 -0.4052 0.5806 0 -0.0608 0.2042c0,0 0.1547,-0.1112 0.3014,-0.1491 0.1463,-0.0388 0.9881,-0.0528 0.9881,-0.0528l-0.1243 0.4029 -0.1987 0z"/>
   <path class="fil6" d="M20.8751 11.2738l0.6207 0 0.006 0.2309c-0.0042,0.0393 0.0295,0.0575 0.1019,0.0575l0.1262 0 -0.1154 0.3814 -0.3351 0c-0.2898,0.0205 -0.4001,-0.1038 -0.3927,-0.244l-0.0116 -0.4258z"/>
   <path class="fil6" d="M20.9573 13.0831l-0.5912 0 0.1014 -0.3394 0.6759 0 0.0958 -0.3103 -0.667 0 0.1136 -0.3828 1.856 0 -0.1155 0.3828 -0.6225 0 -0.0972 0.3103 0.6244 0 -0.1038 0.3394 -0.6744 0 -0.1201 0.143 0.2739 0 0.0668 0.4277c0.0075,0.0425 0.0075,0.0706 0.0215,0.0888 0.014,0.0149 0.0963,0.0229 0.144,0.0229l0.0831 0 -0.1266 0.416 -0.2108 0c-0.0323,0 -0.0809,-0.0024 -0.1482,-0.0052 -0.0626,-0.0056 -0.107,-0.0425 -0.15,-0.064 -0.0388,-0.0183 -0.0963,-0.065 -0.1103,-0.1449l-0.0659 -0.4267 -0.3071 0.4201c-0.0972,0.1332 -0.229,0.2347 -0.4519,0.2347l-0.4291 0 0.1126 -0.3716 0.1641 0c0.0477,0 0.0888,-0.0187 0.1201,-0.0346 0.0313,-0.0131 0.0594,-0.0294 0.0907,-0.0757l0.4477 -0.6305z"/>
   <path class="fil6" d="M14.4849 12.1535l1.5658 0 -0.1159 0.3729 -0.6258 0 -0.0977 0.3188 0.6403 0 -0.1168 0.3851 -0.6399 0 -0.1556 0.5179c-0.0187,0.057 0.1523,0.0645 0.214,0.0645l0.3197 -0.044 -0.1285 0.4268 -0.7212 0c-0.0584,0 -0.1014,-0.0085 -0.1641,-0.0225 -0.0607,-0.0154 -0.0878,-0.0425 -0.1145,-0.0836 -0.0262,-0.0421 -0.0673,-0.0767 -0.0392,-0.1673l0.2075 -0.6852 -0.3557 0 0.1183 -0.3917 0.3566 0 0.0948 -0.3188 -0.3556 0 0.1135 -0.3729z"/>
   <path class="fil6" d="M15.538 11.4823l0.6422 0 -0.1165 0.3903 -0.8772 0 -0.0949 0.0822c-0.0411,0.0397 -0.0551,0.0234 -0.1084,0.0519 -0.0495,0.0248 -0.1533,0.0743 -0.2884,0.0743l-0.2809 0 0.1131 -0.3748 0.0846 0c0.071,0 0.1201,-0.0066 0.1449,-0.022 0.0281,-0.0182 0.0594,-0.058 0.0939,-0.122l0.1622 -0.2931 0.6376 0 -0.1122 0.2132z"/>
   <path class="fil5" d="M16.7695 12.1245c0,0 0.1753,-0.1604 0.4753,-0.2122 0.0683,-0.0126 0.4941,-0.0084 0.4941,-0.0084l0.065 -0.215 -0.9035 0 -0.1309 0.4356zm0.8474 0.1631l0 0 -0.896 0 -0.0552 0.1804 0.7759 0c0.0912,-0.0108 0.1103,0.0023 0.1183,-0.0019l0.057 -0.1785zm-1.161 -1.0138l0 0 0.5468 0 -0.0799 0.2753c0,0 0.173,-0.1384 0.294,-0.1879 0.1201,-0.0444 0.3926,-0.0846 0.3926,-0.0846l0.8852 -0.0051 -0.3014 1.0044c-0.0509,0.1715 -0.1103,0.2828 -0.1472,0.3337 -0.0332,0.051 -0.0725,0.0954 -0.1491,0.1374 -0.0744,0.0402 -0.1426,0.0626 -0.2052,0.0692 -0.0584,0.0042 -0.1482,0.0056 -0.2725,0.0075l-0.853 0 -0.2398 0.7936c-0.0229,0.079 -0.0336,0.1169 -0.0187,0.1384 0.0122,0.0182 0.0412,0.0397 0.0813,0.0397l0.3763 -0.0355 -0.129 0.4356 -0.4202 0c-0.1341,0 -0.2313,-0.0033 -0.2996,-0.0085 -0.0649,-0.0055 -0.1327,0 -0.1785,-0.0345 -0.0388,-0.0346 -0.0986,-0.0804 -0.0972,-0.1267 0.0042,-0.043 0.0224,-0.1145 0.0496,-0.2131l0.7655 -2.5389z"/>
   <path class="fil6" d="M18.0506 12.8938l-0.0509 0.2411c-0.0215,0.0758 -0.0402,0.1319 -0.0972,0.1805 -0.0598,0.0509 -0.13,0.1042 -0.294,0.1042l-0.3038 0.0126 -0.0024 0.2725c-0.0032,0.0767 0.0173,0.0692 0.0295,0.0813 0.014,0.0141 0.0266,0.0192 0.0397,0.0248l0.0963 -0.0056 0.2898 -0.0159 -0.1201 0.3977 -0.3328 0c-0.2328,0 -0.4057,-0.0055 -0.4618,-0.0499 -0.0561,-0.0356 -0.0636,-0.08 -0.0627,-0.1566l0.0215 -1.0629 0.531 0 -0.0075 0.2173 0.1276 0c0.044,0 0.0734,-0.0042 0.0917,-0.0158 0.0163,-0.0122 0.028,-0.0286 0.0355,-0.0552l0.0533 -0.1701 0.4173 0z"/>
   <path class="fil6" d="M10.4733 7.5656c-0.0182,0.0869 -0.3589,1.6583 -0.3599,1.6597 -0.0733,0.3178 -0.1266,0.5445 -0.308,0.6908 -0.1028,0.085 -0.2229,0.1262 -0.3622,0.1262 -0.2239,0 -0.3543,-0.1113 -0.3762,-0.3221l-0.0042 -0.0724c0,0 0.0682,-0.4258 0.0682,-0.4281 0,0 0.3576,-1.4321 0.4216,-1.6214 0.0033,-0.0108 0.0042,-0.0164 0.0052,-0.0215 -0.696,0.0061 -0.8194,0 -0.8278,-0.0112 -0.0047,0.0154 -0.022,0.1042 -0.022,0.1042l-0.365 1.6139 -0.0313 0.137 -0.0608 0.4477c0,0.1327 0.0262,0.2412 0.0781,0.3328 0.1664,0.2907 0.6408,0.3342 0.909,0.3342 0.3459,0 0.6703,-0.0734 0.8895,-0.2075 0.3804,-0.2249 0.48,-0.5764 0.5688,-0.8886l0.0411 -0.1603c0,0 0.3683,-1.4872 0.431,-1.6807 0.0023,-0.0108 0.0032,-0.0164 0.0065,-0.0215 -0.5048,0.0051 -0.6539,0 -0.7016,-0.0112z"/>
   <path class="fil6" d="M12.5112 10.5199c-0.2464,-0.0042 -0.3342,-0.0042 -0.6226,0.0113l-0.0108 -0.022c0.0248,-0.1103 0.0519,-0.2183 0.0767,-0.3295l0.0355 -0.1505c0.0533,-0.2332 0.1052,-0.5048 0.1113,-0.588 0.0056,-0.0495 0.0229,-0.1739 -0.1197,-0.1739 -0.0598,0 -0.1224,0.029 -0.186,0.0585 -0.0346,0.1243 -0.1047,0.4734 -0.1384,0.6323 -0.0714,0.3352 -0.0757,0.3739 -0.1079,0.5394l-0.0206 0.0224c-0.2542,-0.0042 -0.3431,-0.0042 -0.6356,0.0113l-0.0131 -0.0253c0.0486,-0.1986 0.0972,-0.3996 0.1439,-0.5987 0.123,-0.5403 0.1524,-0.7469 0.1856,-1.0217l0.0238 -0.0159c0.2856,-0.0402 0.3548,-0.0486 0.6637,-0.1112l0.0262 0.0289 -0.0477 0.172c0.0528,-0.0313 0.1028,-0.0626 0.1556,-0.0897 0.1459,-0.0715 0.3081,-0.093 0.3969,-0.093 0.136,0 0.2841,0.0379 0.3458,0.1944 0.0585,0.1398 0.0197,0.3113 -0.0575,0.6497l-0.0397 0.1729c-0.079,0.3763 -0.0921,0.4454 -0.1365,0.7039l-0.0289 0.0224z"/>
   <path class="fil6" d="M13.5142 10.5199c-0.1491,-0.0009 -0.2454,-0.0042 -0.3384,-0.0009 -0.093,0.0009 -0.1837,0.0056 -0.3221,0.0122l-0.0074 -0.0122 -0.0089 -0.0131c0.0378,-0.1425 0.0584,-0.1921 0.0771,-0.243 0.0192,-0.051 0.0365,-0.1014 0.0701,-0.2463 0.0435,-0.1893 0.0701,-0.3211 0.0874,-0.437 0.0206,-0.1122 0.0313,-0.2075 0.0468,-0.3179l0.0107 -0.0084 0.0117 -0.0107c0.1482,-0.0206 0.2421,-0.0346 0.3384,-0.05 0.0972,-0.0127 0.1949,-0.0323 0.3482,-0.0617l0.0056 0.0131 0.0042 0.014c-0.028,0.1168 -0.0575,0.2337 -0.0855,0.3524 -0.0271,0.1192 -0.0561,0.2356 -0.0823,0.3524 -0.0551,0.2486 -0.0776,0.3416 -0.0906,0.409 -0.0131,0.0626 -0.0164,0.0972 -0.0379,0.2257l-0.014 0.0117 -0.0131 0.0107z"/>
   <path class="fil6" d="M15.0851 9.6422c-0.0122,0.064 -0.0683,0.3019 -0.144,0.4033 -0.0528,0.0748 -0.1154,0.1202 -0.1846,0.1202 -0.0206,0 -0.143,0 -0.1449,-0.1819 -0.0009,-0.0897 0.0173,-0.1813 0.0397,-0.2809 0.065,-0.2874 0.1417,-0.5286 0.3375,-0.5286 0.1533,0 0.1645,0.1795 0.0963,0.4679zm0.6468 0.0271l0 0c0.0865,-0.3795 0.0192,-0.5567 -0.0654,-0.6646 -0.1285,-0.1645 -0.3557,-0.2174 -0.5912,-0.2174 -0.1416,0 -0.4791,0.0141 -0.7427,0.2571 -0.1893,0.1753 -0.2767,0.4132 -0.3295,0.6412 -0.0533,0.2323 -0.1146,0.6507 0.2701,0.8063 0.1187,0.0509 0.2898,0.065 0.4001,0.065 0.2818,0 0.5707,-0.0776 0.788,-0.308 0.1674,-0.187 0.244,-0.4651 0.2706,-0.5796z"/>
   <path class="fil6" d="M21.7678 10.5452c-0.2982,-0.0024 -0.3838,-0.0024 -0.659,0.0093l-0.0173 -0.0224c0.0743,-0.2832 0.1491,-0.5656 0.2159,-0.852 0.0865,-0.3716 0.1061,-0.5296 0.1341,-0.7469l0.0225 -0.0182c0.2963,-0.0421 0.3786,-0.0543 0.6866,-0.1113l0.0089 0.0257c-0.0566,0.2337 -0.1117,0.466 -0.1669,0.7006 -0.1131,0.4898 -0.1542,0.7385 -0.1977,0.9946l-0.0271 0.0206z"/>
   <path class="fil6" d="M21.3205 9.6749c-0.015,0.0617 -0.0715,0.3015 -0.1473,0.4019 -0.0504,0.0716 -0.1705,0.116 -0.2397,0.116 -0.0197,0 -0.1407,0 -0.1449,-0.1786 -0.0009,-0.0888 0.0173,-0.1804 0.0402,-0.2809 0.0659,-0.2823 0.1416,-0.5211 0.3379,-0.5211 0.1538,0 0.2197,0.1739 0.1538,0.4627zm0.5889 0.028l0 0c0.0865,-0.3771 -0.2627,-0.0336 -0.3178,-0.1579 -0.0851,-0.1945 -0.0323,-0.588 -0.3749,-0.7198 -0.1318,-0.0519 -0.4412,0.015 -0.7071,0.2571 -0.187,0.1729 -0.2767,0.4099 -0.3277,0.637 -0.0537,0.229 -0.1154,0.6473 0.2674,0.7964 0.122,0.0519 0.2313,0.0674 0.3426,0.0617 0.3846,-0.0205 0.6777,-0.602 0.895,-0.8314 0.1673,-0.1824 0.1968,0.0682 0.2225,-0.0431z"/>
   <path class="fil6" d="M17.4183 10.5199c-0.2478,-0.0042 -0.3324,-0.0042 -0.6217,0.0113l-0.0107 -0.022c0.0248,-0.1103 0.0528,-0.2183 0.0785,-0.3295l0.0336 -0.1505c0.0543,-0.2332 0.1061,-0.5048 0.1113,-0.588 0.0056,-0.0495 0.0229,-0.1739 -0.1187,-0.1739 -0.0617,0 -0.1234,0.029 -0.187,0.0585 -0.0336,0.1243 -0.1051,0.4734 -0.1397,0.6323 -0.0692,0.3352 -0.0744,0.3739 -0.1057,0.5394l-0.0219 0.0224c-0.2538,-0.0042 -0.3412,-0.0042 -0.6343,0.0113l-0.0131 -0.0253c0.0486,-0.1986 0.0973,-0.3996 0.144,-0.5987 0.1229,-0.5403 0.151,-0.7469 0.1856,-1.0217l0.0219 -0.0159c0.2851,-0.0402 0.3557,-0.0486 0.6646,-0.1112l0.0239 0.0289 -0.0444 0.172c0.0509,-0.0313 0.1028,-0.0626 0.1547,-0.0897 0.1449,-0.0715 0.308,-0.093 0.3968,-0.093 0.1342,0 0.2833,0.0379 0.3468,0.1944 0.0575,0.1398 0.0182,0.3113 -0.0594,0.6497l-0.0387 0.1729c-0.0814,0.3763 -0.093,0.4454 -0.1365,0.7039l-0.0299 0.0224z"/>
   <path class="fil6" d="M19.5575 7.5637c-0.0014,0 -0.2057,0.0019 -0.2057,0.0019 -0.5337,0.0065 -0.7478,0.0046 -0.8356,-0.0061 -0.0075,0.0388 -0.0216,0.108 -0.0216,0.108 0,0 -0.1911,0.8861 -0.1911,0.8876 0,0 -0.4576,1.884 -0.4791,1.9728 0.466,-0.0056 0.6572,-0.0056 0.7376,0.0033 0.0182,-0.0888 0.1261,-0.6151 0.1271,-0.6151 0,0 0.092,-0.3861 0.0977,-0.4001 0,0 0.0289,-0.0402 0.0579,-0.0561l0.0426 0c0.4019,0 0.8558,0 1.2114,-0.2617 0.2422,-0.1795 0.4076,-0.4445 0.4814,-0.7666 0.0192,-0.0789 0.0332,-0.1729 0.0332,-0.2668 0,-0.1234 -0.0247,-0.2454 -0.0962,-0.3408 -0.1814,-0.2538 -0.5427,-0.2584 -0.9596,-0.2603zm0.2669 0.9222l0 0c-0.0435,0.1968 -0.1711,0.3622 -0.3351,0.4421 -0.1351,0.0678 -0.3006,0.0734 -0.4712,0.0734l-0.1103 0 0.0084 -0.0444c0,0 0.2033,-0.8843 0.2024,-0.881l0.0066 -0.0454 0.0027 -0.0346 0.0814 0.0084c0,0 0.4192,0.036 0.4291,0.037 0.1654,0.064 0.2337,0.229 0.186,0.4445z"/>
   <path class="fil6" d="M24.2066 8.8014l-0.0238 -0.0271c-0.3047,0.0616 -0.3599,0.0715 -0.6399,0.1093l-0.0205 0.0206c-0.001,0.0033 -0.0019,0.0084 -0.0033,0.0131l-0.001 -0.0047c-0.2084,0.481 -0.2023,0.3772 -0.372,0.7558 -0.0009,-0.0173 -0.0009,-0.0281 -0.0019,-0.0463l-0.0425 -0.8207 -0.0266 -0.0271c-0.3193,0.0616 -0.3267,0.0715 -0.6217,0.1093l-0.0228 0.0206c-0.0033,0.0098 -0.0033,0.0206 -0.0052,0.0322l0.0019 0.0042c0.0369,0.1884 0.028,0.1463 0.0649,0.4436 0.0173,0.1458 0.0402,0.2926 0.0575,0.4365 0.029,0.2412 0.0453,0.3599 0.0809,0.7278 -0.1991,0.3285 -0.2463,0.4528 -0.438,0.7412l0.0122 0.0271c0.2874,-0.0107 0.3543,-0.0107 0.5674,-0.0107l0.0463 -0.0528c0.1612,-0.3473 1.3881,-2.4519 1.3881,-2.4519z"/>
   <path class="fil6" d="M13.7843 9.0047c0.1636,-0.1136 0.1842,-0.2702 0.0468,-0.3515 -0.1393,-0.0823 -0.3837,-0.0561 -0.5483,0.0575 -0.164,0.1112 -0.1827,0.2692 -0.0439,0.3524 0.1369,0.0799 0.3823,0.0561 0.5454,-0.0584z"/>
   <path class="fil6" d="M22.797 11.2822l-0.2398 0.4109c-0.0757,0.1406 -0.2164,0.2454 -0.4403,0.2463l-0.3814 -0.0066 0.1113 -0.3697 0.0748 0c0.0388,0 0.0668,-0.0018 0.0883,-0.0126 0.0196,-0.0065 0.0336,-0.022 0.0491,-0.0444l0.1416 -0.2239 0.5964 0z"/>
  </g>
 </g>
</svg>
