<?xml version="1.0" encoding="utf-8"?>
<!-- Generator: Adobe Illustrator 16.0.3, SVG Export Plug-In . SVG Version: 6.00 Build 0)  -->
<!DOCTYPE svg PUBLIC "-//W3C//DTD SVG 1.1//EN" "http://www.w3.org/Graphics/SVG/1.1/DTD/svg11.dtd">
<svg version="1.1" id="Calque_1" xmlns="http://www.w3.org/2000/svg" xmlns:xlink="http://www.w3.org/1999/xlink" x="0px" y="0px"
	 width="250px" height="150px" viewBox="0 0 250 150" enable-background="new 0 0 250 150" xml:space="preserve">
<rect x="8.666" y="6.58" fill="#2E91C6" width="232.668" height="137.841"/>
<g>
	<path fill="#FFFFFF" d="M125.326,74c0,0,0.949-0.521-0.34-7.365c-1.289-6.843-4.005-15.087-13.129-19.214
		c-9.125-4.128-15.098-4.558-27.916-4.558s-20.855,0.873-28.676,6.086S44.729,61.115,43.968,65.678
		c-0.727,4.363-0.907,4.36-0.917,10.337c0,0.027-0.051,0.055-0.051,0.083c0,0.132,0,0.257,0,0.385c0,0.127,0,0.251,0,0.384
		c0,0.027,0.051,0.055,0.051,0.082c0.01,5.979,0.165,5.975,0.893,10.337c0.76,4.562,3.489,11.514,11.309,16.728
		c7.821,5.214,15.865,6.083,28.683,6.083c12.817,0,18.794-0.434,27.918-4.562c9.124-4.129,11.841-12.528,13.131-19.372
		c1.289-6.844,0.341-9.162,0.341-9.162H85v-3H125.326z"/>
	<path fill="#FFFFFF" d="M201.36,59c0-13.795-13.469-15-17.596-15C179.637,44,129,44,129,44v30h58.893
		C187.893,74,201.36,72.795,201.36,59z"/>
	<path fill="#FFFFFF" d="M184.339,77C180.169,77,129,77,129,77v32h59.511c0,0,13.611-1.028,13.611-16
		C202.122,78.031,188.511,77,184.339,77z"/>
</g>
</svg>
