<?xml version="1.0" encoding="UTF-8"?>
<!DOCTYPE svg PUBLIC "-//W3C//DTD SVG 1.1//EN" "http://www.w3.org/Graphics/SVG/1.1/DTD/svg11.dtd">
<!-- Creator: CorelDRAW -->
<svg xmlns="http://www.w3.org/2000/svg" xml:space="preserve" width="31.75mm" height="21.167mm" style="shape-rendering:geometricPrecision; text-rendering:geometricPrecision; image-rendering:optimizeQuality; fill-rule:evenodd; clip-rule:evenodd"
viewBox="0 0 31.75 21.167"
 xmlns:xlink="http://www.w3.org/1999/xlink">
 <defs>
  <style type="text/css">
   <![CDATA[
    .str0 {stroke:#C5C6C6;stroke-width:0.0762}
    .fil0 {fill:none}
    .fil3 {fill:#017149}
    .fil4 {fill:#ED1B24}
    .fil2 {fill:#FFD504}
    .fil1 {fill:white}
   ]]>
  </style>
 </defs>
 <g id="Layer_x0020_1">
  <metadata id="CorelCorpID_0Corel-Layer"/>
  <g>
   <path class="fil0 str0" d="M1.0583 0.0002l29.6334 0c0.5843,0 1.0582,0.4739 1.0582,1.0583l0.0001 19.05c-0.0001,0.5842 -0.474,1.0581 -1.0584,1.0581l-29.6333 0.0002c-0.5843,-0.0002 -1.0582,-0.4741 -1.0582,-1.0585l-0.0001 -19.0498c0.0001,-0.5844 0.474,-1.0583 1.0584,-1.0583z"/>
   <path id="1" class="fil1" d="M1.0583 0.0002l29.6334 0c0.5843,0 1.0582,0.4739 1.0582,1.0583l0.0001 19.05c-0.0001,0.5842 -0.474,1.0581 -1.0584,1.0581l-29.6333 0.0002c-0.5843,-0.0002 -1.0582,-0.4741 -1.0582,-1.0585l-0.0001 -19.0498c0.0001,-0.5844 0.474,-1.0583 1.0584,-1.0583z"/>
  </g>
  <g>
   <path class="fil2" d="M15.875 1.8289c4.835,0 8.7546,3.9196 8.7546,8.7546 0,4.835 -3.9196,8.7546 -8.7546,8.7546 -4.835,0 -8.7546,-3.9196 -8.7546,-8.7546 0,-4.835 3.9196,-8.7546 8.7546,-8.7546zm-5.922 6.4956l0 0 0 4.8536 2.6252 0 0 -1.1294 -1.4347 0 0 -3.7242 -1.1905 0zm2.9915 3.7242l0 0 0 1.1294 1.221 0 0 -4.8536 -1.221 0 0 3.7242zm1.74 -3.7242l0 0 0 4.8536 1.0379 0 0 -2.9915 1.6178 2.9915 1.0379 0 0 -4.8536 -0.9062 0 0 2.9915 -1.6178 -2.9915 -1.1696 0zm4.2126 0l0 0 0.9768 0 0 2.0603 2.3797 -3.649c-1.3046,-2.1581 -3.6731,-3.6007 -6.3786,-3.6007 -4.1136,0 -7.4484,3.3348 -7.4484,7.4484 0,4.1135 3.3348,7.4483 7.4484,7.4483 4.1135,0 7.4484,-3.3348 7.4484,-7.4483 0,-0.8729 -0.1507,-1.7106 -0.4266,-2.4889l-1.9388 2.4656 1.5716 2.32 0 0.2979 -1.0831 0 -1.2352 -1.9215 -0.3374 0.357 0.0305 1.5264 -0.0305 0.0381 -0.9768 0 0 -4.8536z"/>
   <path class="fil3" d="M9.9064 6.127l-0.1056 0.1448 -0.1021 0.1472 -0.0986 0.1499 -0.0951 0.1524c-0.0934,0.1535 -0.1813,0.3107 -0.2635,0.4713l-0.0804 0.1618 -0.0765 0.1638 -0.0726 0.166 -0.0687 0.1682 -0.0647 0.1701 -0.0606 0.1721 -0.0565 0.174 -0.0523 0.1758c-0.0334,0.1178 -0.0641,0.2368 -0.0918,0.357l-0.0394 0.181 -0.035 0.1827 -0.0305 0.1841 -0.026 0.1856 -0.0213 0.1872 -0.0168 0.1884 -0.012 0.1898 -0.0073 0.1911 -0.0025 0.1922 0.0025 0.1922 0.0073 0.1911 0.012 0.1898 0.0168 0.1885 0.0213 0.187 0.026 0.1857 0.0305 0.1842 0.035 0.1826 0.0394 0.181c0.0277,0.1201 0.0584,0.2392 0.0918,0.3569l0.0523 0.1759 0.0565 0.174 0.0606 0.1721 0.0647 0.1701 0.0687 0.1681 0.0726 0.1661 0.0765 0.1638 0.0804 0.1618c0.0822,0.1606 0.1701,0.3177 0.2635,0.4714l0.0951 0.1523 0.0986 0.1498 0.1021 0.1473 0.1056 0.1448 0.1089 0.142 0.1122 0.1393 0.1154 0.1366 0.1187 0.1337 0.1218 0.1308 0.1249 0.1279 0.1278 0.1248 0.1308 0.1218 0.1337 0.1187 0.1366 0.1154 0.1393 0.1122 0.1421 0.1089 0.1447 0.1056 0.1473 0.1021 0.1498 0.0986 0.1524 0.0951c0.1535,0.0934 0.3107,0.1813 0.4713,0.2635l0.1618 0.0804 0.1639 0.0765 0.166 0.0726 0.1681 0.0687 0.1701 0.0647 0.1721 0.0606 0.174 0.0565 0.1758 0.0523c0.1179,0.0334 0.2369,0.0642 0.357,0.0918l0.181 0.0394 0.1827 0.035 0.1841 0.0305 0.1857 0.0261 0.1871 0.0212 0.1884 0.0168 0.1898 0.012 0.1911 0.0073 0.1922 0.0024 0.1922 -0.0024 0.1911 -0.0073 0.1898 -0.012 0.1884 -0.0168 0.1871 -0.0212 0.1857 -0.0261 0.1842 -0.0305 0.1826 -0.035 0.181 -0.0394c0.1201,-0.0277 0.2391,-0.0584 0.3569,-0.0918l0.1759 -0.0523 0.174 -0.0565 0.1721 -0.0606 0.1701 -0.0647 0.1681 -0.0687 0.1661 -0.0726 0.1638 -0.0765 0.1618 -0.0804c0.1605,-0.0822 0.3177,-0.1701 0.4714,-0.2635l0.1523 -0.0951 0.1498 -0.0986 0.1473 -0.1021 0.1448 -0.1056 0.142 -0.1089 0.1393 -0.1122 0.1366 -0.1154 0.1337 -0.1187 0.1308 -0.1218 0.1278 -0.1248 0.1249 -0.1279 0.1218 -0.1308 0.1187 -0.1337 0.1154 -0.1366 0.1122 -0.1393 0.1089 -0.1421 0.1056 -0.1447 0.1021 -0.1473 0.0986 -0.1498 0.0951 -0.1524c0.0934,-0.1536 0.1813,-0.3107 0.2635,-0.4713l0.0804 -0.1618 0.0765 -0.1639 0.0726 -0.166 0.0687 -0.1681 0.0647 -0.1701 0.0606 -0.1721 0.0565 -0.174 0.0523 -0.1759c0.0334,-0.1177 0.0641,-0.2368 0.0918,-0.3569l0.0394 -0.181 0.035 -0.1827 0.0305 -0.1841 0.026 -0.1857 0.0213 -0.187 0.0168 -0.1885 0.012 -0.1898 0.0073 -0.1911 0.0025 -0.1922 -0.0024 -0.1886 -0.0002 -0.0074 -0.007 -0.1834 -0.0004 -0.0083 -0.0114 -0.1794 -0.0011 -0.0136 -0.0154 -0.1729 -0.0015 -0.0154 -0.0187 -0.1639 -0.0043 -0.0337 -0.0209 -0.1496 -0.0055 -0.0355 -0.0242 -0.1461 -0.0076 -0.0422 -0.0255 -0.1336 -0.0128 -0.0619 -0.0227 -0.1045 -0.0213 -0.092 -0.0212 -0.0867 -0.0253 -0.0977 -0.0186 -0.0686 -0.0276 -0.0975 -0.011 -0.0373 -0.0111 -0.0373 -0.0346 -0.1114 -0.0119 -0.0369 -0.0014 -0.0042 -0.0482 -0.1427 -0.0128 -0.0366 -1.9388 2.4656 1.5716 2.32 0 0.2979 -1.0831 0 -1.2352 -1.9215 -0.3374 0.357 0.0305 1.5264 -0.0305 0.0381 -0.9768 0 0 -4.8536 0.9768 0 0 2.0603 2.3797 -3.649 -0.0338 -0.0551 -0.0481 -0.0768 -0.0365 -0.0573 -0.0754 -0.1147 -0.032 -0.0467 -0.0552 -0.0797 -0.037 -0.0523 -0.0806 -0.1105 -0.0392 -0.052 -0.0526 -0.0685 -0.0429 -0.0552 -0.0844 -0.1047 -0.04 -0.0482 -0.0615 -0.0726 -0.0398 -0.0464 -0.0884 -0.0997 -0.0488 -0.0533 -0.0589 -0.0632 -0.0441 -0.0468 -0.096 -0.0983 -0.0409 -0.0408 -0.0761 -0.0743 -0.0382 -0.0368 -0.0995 -0.0926 -0.0495 -0.0449 -0.073 -0.0647 -0.0466 -0.0408 -0.101 -0.0854 -0.0472 -0.0388 -0.0818 -0.0659 -0.0545 -0.043 -0.0949 -0.0728 -0.0502 -0.0374 -0.0902 -0.0658 -0.0533 -0.038 -0.0981 -0.068 -0.0468 -0.0316 -0.1072 -0.0706 -0.0484 -0.0309 -0.0953 -0.0595 -0.0531 -0.0324 -0.1141 -0.0674 -0.0445 -0.0254 -0.1031 -0.0577 -0.0461 -0.025 -0.1321 -0.0697 -0.0287 -0.0144 -0.1153 -0.0574 -0.0413 -0.02 -0.1374 -0.0642 -0.0357 -0.0159 -0.1158 -0.0506 -0.0392 -0.0167 -0.1411 -0.0577 -0.0406 -0.0158 -0.1161 -0.0441 -0.0393 -0.0145 -0.1442 -0.0508 -0.042 -0.0141 -0.1193 -0.0387 -0.0407 -0.0129 -0.1514 -0.045 -0.0306 -0.0085 -0.1316 -0.0356 -0.0383 -0.0101 -0.1495 -0.0365 -0.0462 -0.0105 -0.1268 -0.0276 -0.0349 -0.0074 -0.1577 -0.0301 -0.0367 -0.0065 -0.1502 -0.0249 -0.0173 -0.0027 -0.1635 -0.023 -0.0409 -0.0051 -0.1537 -0.0175 -0.0131 -0.0015 -0.1661 -0.0147 -0.0424 -0.0032 -0.1618 -0.0102 -0.0062 -0.0005 -0.1685 -0.0063 -0.043 -0.0011 -0.1706 -0.0022 -0.1922 0.0025 -0.1911 0.0073 -0.1898 0.012 -0.1884 0.0167 -0.1871 0.0214 -0.1857 0.026 -0.1842 0.0305 -0.1826 0.0349 -0.181 0.0395c-0.1201,0.0277 -0.2391,0.0584 -0.357,0.0918l-0.1758 0.0523 -0.174 0.0565 -0.1721 0.0606 -0.1702 0.0647 -0.168 0.0687 -0.1661 0.0726 -0.1638 0.0765 -0.1618 0.0804c-0.1606,0.0822 -0.3178,0.1701 -0.4714,0.2635l-0.1523 0.0951 -0.1498 0.0986 -0.1473 0.1021 -0.1448 0.1056 -0.142 0.1089 -0.1393 0.1121 -0.1366 0.1155 -0.1337 0.1187 -0.1308 0.1217 -0.1278 0.1249 -0.1249 0.1279 -0.1218 0.1308 -0.1187 0.1337 -0.1154 0.1366 -0.1122 0.1393 -0.1089 0.142zm2.771 0.9613l0 0c0,-0.4847 0.3929,-0.8776 0.8776,-0.8776 0.4846,0 0.8775,0.3929 0.8775,0.8776 0,0.4845 -0.3929,0.8775 -0.8775,0.8775 -0.4847,0 -0.8776,-0.393 -0.8776,-0.8775zm-2.7244 1.2362l0 0 1.1905 0 0 3.7242 1.4347 0 0 1.1294 -2.6252 0 0 -4.8536zm2.9915 3.7242l0 0 0 -3.7242 1.221 0 0 4.8536 -1.221 0 0 -1.1294zm1.74 -3.7242l0 0 1.1696 0 1.6178 2.9915 0 -2.9915 0.9062 0 0 4.8536 -1.0379 0 -1.6178 -2.9915 0 2.9915 -1.0379 0 0 -4.8536z"/>
   <path class="fil4" d="M13.5551 7.9718c0.4834,0 0.8777,-0.3942 0.8777,-0.8776 0,-0.4834 -0.3943,-0.8777 -0.8777,-0.8777 -0.4834,0 -0.8776,0.3943 -0.8776,0.8777 0,0.4834 0.3942,0.8776 0.8776,0.8776z"/>
  </g>
 </g>
</svg>
