<?xml version="1.0" encoding="UTF-8"?>
<!DOCTYPE svg PUBLIC "-//W3C//DTD SVG 1.1//EN" "http://www.w3.org/Graphics/SVG/1.1/DTD/svg11.dtd">
<!-- Creator: CorelDRAW -->
<svg xmlns="http://www.w3.org/2000/svg" xml:space="preserve" width="50mm" height="35mm" style="shape-rendering:geometricPrecision; text-rendering:geometricPrecision; image-rendering:optimizeQuality; fill-rule:evenodd; clip-rule:evenodd"
viewBox="0 0 50 35"
 xmlns:xlink="http://www.w3.org/1999/xlink">
 <defs>
  <style type="text/css">
   <![CDATA[
    .str0 {stroke:black;stroke-width:0.0762}
    .str1 {stroke:#0391C7;stroke-width:0.2}
    .str2 {stroke:#0391C7;stroke-width:0.25}
    .fil4 {fill:none}
    .fil2 {fill:#2B2A29;fill-rule:nonzero}
    .fil0 {fill:#FEFEFE;fill-rule:nonzero}
    .fil1 {fill:#0391C7;fill-rule:nonzero}
    .fil3 {fill:#FE2004;fill-rule:nonzero}
   ]]>
  </style>
 </defs>
 <g id="Layer_x0020_1">
  <metadata id="CorelCorpID_0Corel-Layer"/>
  <path class="fil0 str0" d="M5.2445 3.3889l39.5111 0c0.7793,0 1.4111,0.6318 1.4111,1.4111l0 25.4c0,0.7793 -0.6318,1.4111 -1.4111,1.4111l-39.5111 0c-0.7793,0 -1.4112,-0.6318 -1.4112,-1.4111l0 -25.4c0,-0.7793 0.6319,-1.4111 1.4112,-1.4111z"/>
  <g id="_301350752">
   <g>
    <polygon id="_301720928" class="fil1" points="17.8944,19.5805 17.8944,9.5714 21.852,9.5714 21.852,11.2657 18.9721,11.2657 18.9721,13.4842 21.6519,13.4842 21.6519,15.1691 18.9721,15.1691 18.9721,17.8934 21.9538,17.8934 21.9538,19.5805 "/>
    <polygon id="_301720880" class="fil2" points="22.8973,19.5805 22.8973,9.6529 23.9749,9.6529 23.9749,17.8934 26.6549,17.8934 26.6549,19.5805 "/>
    <polygon id="_301350176" class="fil3" points="28.2322,19.5805 26.3243,9.5714 27.4938,9.5714 28.8437,16.9797 30.1512,9.5714 31.2949,9.5714 29.3831,19.5805 "/>
   </g>
   <polygon id="_301350392" class="fil4 str1" points="16.5486,6.6521 32.4815,6.6521 32.4815,21.5795 16.5486,21.5795 "/>
   <path id="_301351088" class="fil2" d="M14.1761 25.5276c0,-0.4159 0.0476,-0.7642 0.1433,-1.0463 0.0713,-0.2069 0.1685,-0.394 0.2919,-0.5593 0.1234,-0.1642 0.2585,-0.2866 0.4051,-0.3663 0.1958,-0.1082 0.4207,-0.1615 0.6761,-0.1615 0.4623,0 0.8315,0.1861 1.1091,0.5592 0.2773,0.3723 0.4161,0.8905 0.4161,1.5543 0,0.6589 -0.138,1.1734 -0.4131,1.5455 -0.2753,0.3713 -0.6435,0.5574 -1.1033,0.5574 -0.4666,0 -0.8374,-0.1851 -1.1127,-0.5545 -0.2753,-0.3702 -0.4125,-0.8801 -0.4125,-1.5285zm0.6521 -0.0275c0,0.4613 0.0824,0.8116 0.2458,1.05 0.1644,0.2383 0.3725,0.357 0.6251,0.357 0.2519,0 0.4592,-0.1177 0.6213,-0.3551 0.1614,-0.2364 0.2425,-0.5906 0.2425,-1.0633 0,-0.4672 -0.0791,-0.8155 -0.2359,-1.0464 -0.1577,-0.2296 -0.3672,-0.3446 -0.6279,-0.3446 -0.2614,0 -0.4715,0.1169 -0.6314,0.3493 -0.1593,0.2327 -0.2395,0.5831 -0.2395,1.0531zm0.1138 -2.2701l0 -0.6704 0.5156 0 0 0.6704 -0.5156 0zm0.9192 0l0 -0.6704 0.5176 0 0 0.6704 -0.5176 0zm1.6345 3.4682l0.6031 -0.1196c0.0256,0.1519 0.0773,0.2678 0.1564,0.3465 0.0779,0.0789 0.1876,0.1187 0.329,0.1187 0.1556,0 0.2725,-0.0369 0.3506,-0.1119 0.0533,-0.0513 0.0795,-0.1216 0.0795,-0.2081 0,-0.0597 -0.0145,-0.1091 -0.043,-0.148 -0.0299,-0.0371 -0.0972,-0.0712 -0.2009,-0.1025 -0.4846,-0.1386 -0.7921,-0.2659 -0.9219,-0.3807 -0.1796,-0.1595 -0.2694,-0.3817 -0.2694,-0.6657 0,-0.2554 0.0773,-0.4708 0.2327,-0.6447 0.1556,-0.1746 0.3965,-0.262 0.7228,-0.262 0.311,0 0.5425,0.0664 0.6938,0.1974 0.151,0.1321 0.2548,0.3268 0.3118,0.5849l-0.5667 0.1359c-0.0242,-0.115 -0.0701,-0.2033 -0.1379,-0.264 -0.0679,-0.0617 -0.1644,-0.0921 -0.2899,-0.0921 -0.1585,0 -0.2716,0.0285 -0.3403,0.0863 -0.0451,0.0408 -0.0679,0.0941 -0.0679,0.1587 0,0.056 0.0197,0.1025 0.0599,0.1415 0.0539,0.0522 0.2409,0.1252 0.5615,0.2201 0.3198,0.0941 0.543,0.21 0.6702,0.3475 0.1254,0.1396 0.1883,0.3333 0.1883,0.5812 0,0.2706 -0.0867,0.5041 -0.2613,0.6986 -0.1739,0.1948 -0.4307,0.2915 -0.7719,0.2915 -0.3093,0 -0.5541,-0.0815 -0.7349,-0.2449 -0.1804,-0.1624 -0.2981,-0.3844 -0.3536,-0.6646zm3.6892 -2.1105l0 0.6228 -0.4102 0 0 1.1906c0,0.2411 0.0037,0.3817 0.0117,0.4215 0.008,0.04 0.0256,0.0722 0.0533,0.0988 0.0276,0.0256 0.0619,0.039 0.1014,0.039 0.0562,0 0.1366,-0.0257 0.2423,-0.0751l0.0511 0.6058c-0.14,0.0777 -0.2977,0.1166 -0.4752,0.1166 -0.108,0 -0.2058,-0.0237 -0.2927,-0.0703 -0.087,-0.0473 -0.1505,-0.109 -0.1913,-0.1841 -0.041,-0.075 -0.0687,-0.1765 -0.0847,-0.3048 -0.0125,-0.0902 -0.019,-0.2743 -0.019,-0.5506l0 -1.2874 -0.276 0 0 -0.6228 0.276 0 0 -0.5878 0.6031 -0.4557 0 1.0435 0.4102 0zm1.7324 2.0137l0.5995 0.13c-0.0773,0.2859 -0.1985,0.5032 -0.3649,0.6523 -0.1659,0.15 -0.3737,0.224 -0.6236,0.224 -0.3951,0 -0.687,-0.167 -0.8768,-0.503 -0.1497,-0.2688 -0.2249,-0.6087 -0.2249,-1.0179 0,-0.4899 0.0986,-0.8735 0.2958,-1.1506 0.1962,-0.2774 0.4453,-0.416 0.746,-0.416 0.338,0 0.6045,0.1454 0.8003,0.4359 0.1948,0.2904 0.2882,0.7349 0.2803,1.3339l-1.5062 0c0.0045,0.2317 0.0525,0.4121 0.1452,0.5402 0.0928,0.1291 0.2088,0.1937 0.3468,0.1937 0.0943,0 0.173,-0.0332 0.2374,-0.0996 0.0642,-0.0675 0.113,-0.1749 0.1451,-0.3229zm0.0345 -0.7899c-0.0045,-0.2269 -0.0488,-0.3987 -0.1343,-0.5166 -0.0855,-0.1176 -0.19,-0.1765 -0.3126,-0.1765 -0.1314,0 -0.2395,0.0628 -0.3249,0.187 -0.0853,0.1234 -0.1278,0.2925 -0.1263,0.5061l0.8981 0zm1.6625 1.7298l-0.601 0 0 -2.9536 0.5578 0 0 0.4196c0.0957,-0.1984 0.1818,-0.3294 0.2577,-0.3922 0.0766,-0.0625 0.1629,-0.0949 0.2599,-0.0949 0.1374,0 0.2688,0.0494 0.3957,0.1482l-0.1862 0.6806c-0.1006,-0.0844 -0.1947,-0.1271 -0.2818,-0.1271 -0.0847,0 -0.1554,0.0294 -0.2139,0.0902 -0.0592,0.0597 -0.1043,0.169 -0.1379,0.3266 -0.0337,0.1577 -0.0503,0.4879 -0.0503,0.9902l0 0.9124zm1.7046 0l-0.6008 0 0 -2.9536 0.5578 0 0 0.4196c0.0955,-0.1984 0.1818,-0.3294 0.2577,-0.3922 0.0766,-0.0625 0.1627,-0.0949 0.2599,-0.0949 0.1374,0 0.2686,0.0494 0.3957,0.1482l-0.1862 0.6806c-0.1006,-0.0844 -0.1947,-0.1271 -0.2819,-0.1271 -0.0846,0 -0.1554,0.0294 -0.2138,0.0902 -0.0592,0.0597 -0.1045,0.169 -0.1379,0.3266 -0.0337,0.1577 -0.0505,0.4879 -0.0505,0.9902l0 0.9124zm2.4443 -0.9399l0.5994 0.13c-0.0773,0.2859 -0.1985,0.5032 -0.3649,0.6523 -0.1659,0.15 -0.3737,0.224 -0.6234,0.224 -0.3951,0 -0.6872,-0.167 -0.877,-0.503 -0.1497,-0.2688 -0.2249,-0.6087 -0.2249,-1.0179 0,-0.4899 0.0986,-0.8735 0.2958,-1.1506 0.1962,-0.2774 0.4453,-0.416 0.746,-0.416 0.338,0 0.6045,0.1454 0.8003,0.4359 0.1948,0.2904 0.2883,0.7349 0.2803,1.3339l-1.5062 0c0.0045,0.2317 0.0525,0.4121 0.1452,0.5402 0.0928,0.1291 0.2089,0.1937 0.3468,0.1937 0.0943,0 0.173,-0.0332 0.2374,-0.0996 0.0642,-0.0675 0.1132,-0.1749 0.1452,-0.3229zm0.0344 -0.7899c-0.0043,-0.2269 -0.0488,-0.3987 -0.1343,-0.5166 -0.0855,-0.1176 -0.19,-0.1765 -0.3126,-0.1765 -0.1314,0 -0.2395,0.0628 -0.3249,0.187 -0.0853,0.1234 -0.1278,0.2925 -0.1263,0.5061l0.8981 0zm1.0871 -1.6246l0 -0.7235 0.6009 0 0 0.7235 -0.6009 0zm0 3.3544l0 -2.9536 0.6009 0 0 2.9536 -0.6009 0zm3.1978 -2.0801l-0.5928 0.1386c-0.0197,-0.1538 -0.065,-0.2696 -0.1358,-0.3475 -0.0709,-0.0779 -0.1621,-0.1169 -0.2747,-0.1169 -0.1504,0 -0.2693,0.0675 -0.3585,0.2013 -0.089,0.1349 -0.1335,0.3598 -0.1335,0.6751 0,0.3504 0.0453,0.5982 0.1358,0.7425 0.0906,0.1443 0.2117,0.2165 0.3642,0.2165 0.1148,0 0.2075,-0.0418 0.2805,-0.1263 0.073,-0.0846 0.124,-0.2298 0.1539,-0.435l0.5909 0.1302c-0.0613,0.3522 -0.1798,0.6191 -0.3535,0.7985 -0.1738,0.1804 -0.4065,0.2695 -0.6994,0.2695 -0.3321,0 -0.5972,-0.1357 -0.7942,-0.4081 -0.198,-0.2725 -0.2966,-0.6505 -0.2966,-1.1326 0,-0.4871 0.0994,-0.867 0.2972,-1.1384 0.1987,-0.2727 0.4666,-0.4084 0.8046,-0.4084 0.2766,0 0.4963,0.0779 0.6599,0.2327 0.1628,0.1548 0.2805,0.3911 0.352,0.7083zm1.0543 -1.9978l0 1.4992c0.1942,-0.2942 0.4256,-0.4424 0.695,-0.4424 0.1388,0 0.2628,0.0343 0.3745,0.1007 0.1111,0.0664 0.195,0.1519 0.2512,0.2554 0.0561,0.1044 0.0949,0.2194 0.1154,0.3456 0.0211,0.1253 0.0313,0.3219 0.0313,0.5868l0 1.7326 -0.6008 0 0 -1.5609c0,-0.3095 -0.0117,-0.5059 -0.0343,-0.5895 -0.0235,-0.0837 -0.0635,-0.1491 -0.1211,-0.1985 -0.0578,-0.0494 -0.1302,-0.074 -0.2171,-0.074 -0.0998,0 -0.189,0.0314 -0.2671,0.0949 -0.0787,0.0628 -0.1366,0.1577 -0.1722,0.2848 -0.0365,0.1273 -0.0548,0.3153 -0.0548,0.5631l0 1.4801 -0.601 0 0 -4.0779 0.601 0z"/>
   <polygon id="_301351424" class="fil4 str2" points="6.9201,6.6521 43.0798,6.6521 43.0798,28.3478 6.9201,28.3478 "/>
  </g>
 </g>
</svg>
