<svg width="120px" height="80px" viewBox="0 0 120 80" xmlns="http://www.w3.org/2000/svg"><g transform="translate(-210.000000, -965.000000) translate(210.000000, 965.000000)" fill="none" fill-rule="evenodd"><rect fill="#FFF" width="120" height="80" rx="4"/><g transform="translate(24.000000, 9.000000)"><path d="M42.2724226,40.1001921 L20.2711245,40.1001921 C18.4681358,40.1001921 17.245766,38.3035459 17.245766,37.024559 C17.245766,35.837083 17.2764679,4.38223581 17.245766,3.16443668 C17.2153358,1.94636681 19.3541434,0.0584803493 20.7906113,0.0584803493 C22.2268075,0.0890742358 42.2417208,0.0584803493 42.2417208,0.0584803493 L42.2417208,15.9228996 L30.5690264,15.9228996 L30.5690264,8.40167686 C30.5690264,8.40167686 29.8050113,8.37135371 28.8271698,8.40167686 C28.3381132,8.43227074 27.5132377,8.91933624 27.5132377,9.71125764 C27.4825358,11.355476 27.5132377,30.3561747 27.5132377,30.8435109 C27.5132377,31.3002533 27.8186264,31.9091528 28.8271698,31.939476 C29.8354415,32.000393 30.5994566,31.939476 30.5994566,31.939476 L30.5994566,23.8093537 L42.2724226,23.8093537 L42.2724226,40.1001921" fill="#DC2A49" transform="translate(0.000000, 1.895197)"/><path d="M3.58668679,0.0584803493 C6.00072453,0.0890742358 23.6018717,0.0584803493 23.6018717,0.0584803493 L23.6018717,23.8093537 L10.2786113,23.7790306 L10.2786113,30.752 C10.2786113,30.8738341 10.6149736,31.9091528 11.8066415,31.9700699 L13.4566642,31.9700699 L13.4566642,26.0933362 L23.6323019,26.0933362 L23.6018717,40.1001921 L3.49485283,40.1001921 C3.49485283,40.1001921 0.469766038,39.6128559 0.194807547,36.6896507 C0.225237736,35.5936856 0.194807547,3.65150218 0.194807547,3.10351965 C0.194807547,2.58586026 1.35604528,0.0584803493 3.58668679,0.0584803493 L3.58668679,0.0584803493 Z M13.487366,8.34075983 C13.487366,8.34075983 12.6010868,8.27984279 11.8066415,8.31043668 C10.9814943,8.34075983 10.2786113,9.13241048 10.2786113,9.61974672 L10.2786113,15.9228996 L13.487366,15.9228996 L13.487366,8.34075983 L13.487366,8.34075983 Z" fill="#097ABD" transform="translate(0.000000, 1.895197)"/><path d="M6.51532075,26.0933362 L0.128784906,26.0933362 L0.128784906,37.024559 C0.128784906,38.2732227 1.35115472,40.0695983 3.12344151,40.1001921 L6.48489057,40.1001921 L6.51532075,26.0933362" fill="#121E6A" transform="translate(17.116981, 1.895197)"/><path d="M6.48489057,23.8093537 L6.48489057,0.0584803493 L3.67363019,0.0584803493 C2.23716226,0.0584803493 0.098354717,1.94636681 0.128784906,3.16443668 L0.128784906,23.8093537 L6.48489057,23.8093537" fill="#121D6A" transform="translate(17.116981, 1.895197)"/><g transform="translate(45.916981, 24.096070)"><rect stroke="#3E3E3E" fill="#FFF" width="26.0830189" height="18.139738" rx="2"/><rect fill="#3E3E3E" x="0.271698113" y="3.75304924" width="25.4970675" height="3.44029514"/></g><rect fill="#3E3E3E" y="60.9170306" width="72" height="1.08296943"/><g><g transform="translate(54.413457, 29.864883) rotate(26.000000) translate(-54.413457, -29.864883) translate(50.913457, -1.635117) translate(0.000000, 0.270742)"><path d="M5.43396226,52.2532046 C5.43396226,52.7018242 5.33303805,53.4157246 5.20867066,53.844948 C5.20867066,53.844948 2.98861291,61.5938865 2.71114387,61.5938865 C2.43367482,61.5938865 0.472067274,53.8487429 0.472067274,53.8487429 C0.361406442,53.416171 0.271698113,52.7019051 0.271698113,52.2532046 L0.271698113,2.57290424 C0.271698113,1.15192847 1.42699687,7.10542736e-14 2.85283019,7.10542736e-14 L2.85283019,7.10542736e-14 C4.27835007,7.10542736e-14 5.43396226,1.15147547 5.43396226,2.57290424 L5.43396226,52.2532046 L5.43396226,52.2532046 Z" stroke="#3E3E3E" fill="#D8D8D8"/><path d="M4.48301887,52.0735468 C4.48301887,52.5210482 4.3771934,53.2295112 4.24353454,53.6600795 C4.24353454,53.6600795 2.99575937,57.7999311 2.70368669,57.7999311 C2.41161401,57.7999311 2.83655733,1.62801655 2.85229953,1.62801655 L3.54103875,1.62801655 C4.06128,1.62801655 4.48301887,2.0481312 4.48301887,2.56694978 L4.48301887,52.0735468 L4.48301887,52.0735468 Z" fill="#FFF"/><rect fill="#3E3E3E" x="1.42108547e-14" y="46.0262009" width="5.70566038" height="0.541484716"/><rect fill="#3E3E3E" x="1.98951966e-13" y="43.860262" width="5.70566038" height="0.541484716"/><rect fill="#3E3E3E" x="9.23705556e-14" y="41.1528384" width="5.70566038" height="0.541484716"/><rect fill="#3E3E3E" x="0.035224739" y="17.111519" width="5.70566038" height="0.541484716"/><path d="M4.0754717,58.7003275 C4.0754717,58.7003275 2.97163178,61.915393 2.70968455,61.915393 C2.44773732,61.915393 1.35849057,58.7003275 1.35849057,58.7003275 L4.0754717,58.7003275 L4.0754717,58.7003275 Z" fill="#3E3E3E"/></g></g><path d="M2.33749766,47.215481 C2.33749766,47.215481 1.94200718,49.1381536 1.48024614,52.5323871 C1.0184851,55.9266207 0.446843576,58.7977502 3.08528778,59.2062638 C5.72373199,59.6147773 8.31155881,52.4943481 8.81968835,50.8457672 C9.32781789,49.1971863 10.3541648,46.3308288 12.5090915,46.7699932 C14.6640181,47.2091577 13.3628728,49.6515952 12.8003856,53.139423 C12.2378985,56.6272509 11.6851861,58.4951142 14.60525,59.1377013 C17.5253138,59.7802885 19.0315606,55.7847327 19.5171081,53.8426717 C20.0026556,51.9006108 20.8619687,49.212911 22.9805399,49.3933998 C24.7891468,49.5474815 24.6541,52.0738154 24.4010643,54.3996981 C24.1480286,56.7255808 24.1814365,58.1370168 26.5511363,58.1760549 C28.920836,58.215093 29.8693306,53.6272218 30.2410638,51.8419914 C30.4719832,50.7330124 31.2133889,49.4971098 32.4687177,49.5815272 C33.7240464,49.6659447 34.3357342,50.6682731 34.3399105,51.9994903 C34.3463657,54.0571222 33.6390913,56.2889936 34.6743389,57.5221353 C35.7095866,58.7552769 38.7230884,58.675182 38.7230884,58.675182" stroke="#0A7ABD" stroke-width="1.2" stroke-linecap="round" transform="translate(19.904374, 52.973982) rotate(1.000000) translate(-19.904374, -52.973982)"/></g></g></svg>