<?xml version="1.0" encoding="utf-8"?>
<!-- Generator: Adobe Illustrator 23.0.1, SVG Export Plug-In . SVG Version: 6.00 Build 0)  -->
<svg version="1.1"
	 id="Ebene_1" xmlns:cc="http://creativecommons.org/ns#" xmlns:dc="http://purl.org/dc/elements/1.1/" xmlns:inkscape="http://www.inkscape.org/namespaces/inkscape" xmlns:rdf="http://www.w3.org/1999/02/22-rdf-syntax-ns#" xmlns:sodipodi="http://sodipodi.sourceforge.net/DTD/sodipodi-0.dtd" xmlns:svg="http://www.w3.org/2000/svg"
	 xmlns="http://www.w3.org/2000/svg" xmlns:xlink="http://www.w3.org/1999/xlink" x="0px" y="0px" viewBox="0 0 120 80"
	 width="120"
	 height="80"
	 style="enable-background:new 0 0 120 80;" xml:space="preserve">
<title  id="title3920">Zeichenfläche 1</title>
	<g id="Layer_1" style="fill:noneM">
	<path id="path3922" inkscape:connector-curvature="0" style="fill:none;stroke:#C5C6C6;stroke-width:0.1;" d="M4,0h112c2.2,0,4,1.8,4,4v72c0,2.2-1.8,4-4,4H4
		c-2.2,0-4-1.8-4-4V4C0,1.8,1.8,0,4,0z"/>
		<path id="path3924" inkscape:connector-curvature="0" style="fill-rule:evenodd;clip-rule:evenodd;fill:#FFFFFF;" d="M4,0h112c2.2,0,4,1.8,4,4v72c0,2.2-1.8,4-4,4H4
		c-2.2,0-4-1.8-4-4V4C0,1.8,1.8,0,4,0z"/>
		<path id="path2491" inkscape:connector-curvature="0" style="fill:#008AC9;" d="M28.6,39.1c0-0.3-0.1-0.5-0.4-0.5c0,0-0.1,0-0.1,0h-1.7
		c-0.3,0-0.6,0.2-0.6,0.6c0,0,0,0,0,0c0,0,0,0.1,0,0.1v3c0,0.3,0.2,0.6,0.5,0.7h1.6c0.2,0,0.3-0.1,0.4-0.2c0.1-0.1,0.2-0.2,0.2-0.3
		V39.1z M23.8,38.7c0-0.6,0.1-1.2,0.5-1.7c0.2-0.2,0.4-0.3,0.6-0.4c0.2-0.1,0.5-0.2,0.8-0.2h3c1.4,0,2,0.8,2.1,2.2v4.5
		c0,0.5-0.2,1-0.6,1.3c-0.4,0.4-0.9,0.6-1.4,0.6h-2.8v3.3h-2.1V38.7z M34.6,42.5c0,0.1,0.1,0.2,0.2,0.3c0.1,0.1,0.2,0.1,0.4,0.1h1.6
		c0.4,0,0.6-0.1,0.6-0.4v-0.6c0-0.3-0.2-0.5-0.6-0.5h-1.6c-0.2-0.1-0.5,0-0.6,0.3c0,0.1,0,0.2,0,0.3L34.6,42.5z M37.4,39.1
		c0-0.3-0.2-0.5-0.6-0.5h-4.3v-2.2h4.8c1-0.1,2,0.6,2.1,1.6c0,0.1,0,0.3,0,0.4V43c0,0.5-0.2,1.1-0.5,1.5c-0.3,0.4-0.9,0.6-1.4,0.6
		h-3c-1.4,0-2.1-0.7-2.2-2v-1.8c-0.1-1,0.6-1.9,1.6-2.1c0.1,0,0.3,0,0.5,0h2.9V39.1z M45.5,46.2c0.2,0,0.3,0,0.5-0.2
		c0.1-0.1,0.2-0.2,0.2-0.3v-0.5h-2.8c-0.3,0-0.6,0-0.9-0.1c-0.3-0.1-0.5-0.3-0.7-0.5c-0.2-0.2-0.4-0.4-0.5-0.7
		c-0.1-0.3-0.2-0.6-0.2-0.9v-6.5h2.1v5.8c0,0.5,0.2,0.7,0.6,0.7h1.5c0.2,0,0.3-0.1,0.5-0.2c0.1-0.1,0.2-0.2,0.2-0.4v-6h2.1V46
		c0,0.6-0.2,1.2-0.5,1.7c-0.4,0.4-0.9,0.7-1.5,0.7h-5v-2.2L45.5,46.2z M49.9,42.9h3.8c0.3,0,0.5-0.1,0.5-0.4v-0.2
		c0-0.1,0-0.1-0.1-0.2c-0.1-0.2-0.2-0.2-0.3-0.2H52c-0.5,0-1.1-0.2-1.4-0.6c-0.4-0.3-0.6-0.8-0.6-1.3v-1.7c0-1.3,0.7-1.9,2.1-2h4.4
		v2.2h-3.7c-0.4,0-0.7,0.1-0.7,0.4v0.2c0,0.3,0.2,0.4,0.7,0.4h1.9c0.5,0,1,0.2,1.3,0.6c0.3,0.4,0.5,0.8,0.5,1.3v1.6
		c0,0.5-0.3,1-0.6,1.3c-0.2,0.2-0.4,0.4-0.6,0.5c-0.3,0.1-0.6,0.1-0.8,0.1h-4.5L49.9,42.9z M60.1,42.5c0,0.1,0.1,0.2,0.2,0.3
		c0.1,0.1,0.2,0.1,0.4,0.1h1.7c0.4,0,0.6-0.1,0.6-0.4v-0.6c0-0.3-0.2-0.5-0.6-0.5h-1.6c-0.2,0-0.3,0-0.4,0.1
		c-0.1,0.1-0.1,0.3-0.1,0.5V42.5z M62.9,39.1c0-0.3-0.2-0.5-0.6-0.5H58v-2.2h4.8c1-0.2,2,0.6,2.2,1.6c0,0,0,0,0,0c0,0.2,0,0.3,0,0.5
		v4.6c0,0.5-0.2,1-0.5,1.4c-0.3,0.4-0.9,0.6-1.4,0.6h-3c-1.4,0-2.2-0.7-2.2-2v-1.8c-0.1-1,0.6-1.9,1.6-2.1c0.1,0,0.3,0,0.4,0h2.8
		L62.9,39.1z M66.7,35.1c0-0.6,0.2-1.1,0.7-1.4c0.5-0.4,1-0.6,1.6-0.6h1.4v2.1h-0.8c-0.3,0-0.6,0.2-0.7,0.5v0.6h1.5v2.2h-1.5v6.5
		h-2.1L66.7,35.1z M76.4,39L76.4,39c0-0.1-0.1-0.2-0.1-0.3c-0.1-0.1-0.2-0.1-0.4-0.1h-1.5c-0.2,0-0.3,0-0.5,0.2
		c-0.1,0.1-0.2,0.2-0.2,0.4V40L76.4,39z M73.8,42.1v0.1c0,0.2,0,0.3,0.1,0.4c0,0.1,0.2,0.2,0.3,0.2h4.4v2.2h-4.7c-0.3,0-0.7,0-1-0.1
		c-0.3-0.1-0.5-0.2-0.7-0.4c-0.2-0.2-0.4-0.4-0.5-0.7c-0.1-0.3-0.1-0.7-0.1-1v-4.4c-0.1-1,0.7-1.9,1.7-2c0.1,0,0.2,0,0.4,0h2.9
		c1-0.1,1.9,0.7,2,1.7c0,0.1,0,0.3,0,0.4v1.8L73.8,42.1L73.8,42.1z M83.1,45.1c-0.3,0-0.6,0-0.9-0.1c-0.3-0.1-0.6-0.2-0.8-0.4
		c-0.3-0.2-0.5-0.5-0.6-0.9c-0.1-0.3-0.2-0.7-0.2-1.1v-4.1c0-0.3,0-0.6,0.1-0.9c0.1-0.3,0.2-0.5,0.4-0.8c0.2-0.2,0.5-0.4,0.8-0.5
		c0.3-0.1,0.6-0.1,0.9-0.1h3.3v0.5H83c-0.5,0-0.9,0.1-1.3,0.3c-0.4,0.3-0.5,0.8-0.5,1.3v4.1c0,0.3,0,0.6,0.1,0.8
		c0.1,0.3,0.2,0.5,0.4,0.7c0.2,0.2,0.4,0.3,0.7,0.3c0.2,0.1,0.5,0.1,0.8,0.1h3v0.5L83.1,45.1z M94.6,39.8h-4.3
		c-0.4,0-0.9,0.2-1.2,0.5c-0.3,0.3-0.5,0.8-0.4,1.3v1.3c0,0.2,0,0.5,0.1,0.7c0.1,0.2,0.2,0.4,0.4,0.6c0.3,0.3,0.8,0.5,1.2,0.5h2.6
		c1.1,0,1.6-0.6,1.6-1.7L94.6,39.8z M95.1,42.8c0,0.3,0,0.6-0.1,0.9c-0.1,0.3-0.2,0.6-0.4,0.8c-0.4,0.5-1,0.7-1.7,0.7h-2.6
		c-0.6,0-1.2-0.2-1.6-0.6c-0.4-0.4-0.7-1-0.6-1.6v-1.4c-0.2-1.1,0.6-2.1,1.7-2.3c0.2,0,0.4,0,0.6,0h4.3v-0.6c0-0.5-0.1-0.9-0.4-1.3
		c-0.2-0.2-0.4-0.4-0.6-0.5c-0.3-0.1-0.5-0.1-0.8-0.1h-4.6v-0.5h4.4c0.4,0,0.7,0,1.1,0.1c0.2,0,0.3,0.1,0.5,0.2
		c0.2,0.1,0.3,0.2,0.4,0.4c0.4,0.5,0.6,1.1,0.6,1.8L95.1,42.8z M99.9,36.9c-1.2,0-1.8,0.7-1.8,2v6.3h-0.5v-6.3
		c0-1.7,0.8-2.5,2.3-2.5h0.6v0.5L99.9,36.9z M108.5,36.9h-4c-0.3,0-0.5,0-0.8,0.1c-0.5,0.2-0.9,0.6-1.1,1.1
		c-0.1,0.3-0.1,0.5-0.1,0.8v4c-0.1,0.5,0.2,1,0.6,1.4c0.2,0.1,0.4,0.2,0.6,0.3c0.3,0.1,0.5,0.1,0.8,0.1h1.8c0.6,0,1.1-0.1,1.6-0.5
		c0.5-0.4,0.7-0.9,0.6-1.5L108.5,36.9z M109,42.7c0.1,1.2-0.8,2.3-2,2.5c-0.2,0-0.4,0-0.6,0h-1.9c-0.4,0-0.7,0-1.1-0.1
		c-0.4-0.1-0.7-0.3-0.9-0.6c-0.2-0.2-0.4-0.5-0.4-0.8c-0.1-0.3-0.1-0.7-0.1-1v-3.8c-0.2-1.2,0.7-2.3,1.9-2.5c0,0,0,0,0,0
		c0.2,0,0.4,0,0.6,0h4v-2.8h0.5V42.7z"/>
		<path id="path2513" inkscape:connector-curvature="0" style="fill:#E3001B;" d="M11.9,36c0.2-0.1,0.3-0.1,0.5-0.2c0.4-1.8,2.1-2.9,3.8-2.5
		c1.3,0.3,2.3,1.3,2.5,2.5c0.4,0.1,0.9,0.3,1.2,0.6c0-0.3,0-0.5,0-0.8c-0.2-2.4-2.3-4.2-4.7-4c-2.2,0.2-3.9,2-4,4.2v0.6
		C11.4,36.3,11.7,36.1,11.9,36z M18.1,36.3h-5.2c-0.3,0-0.5,0.1-0.8,0.2c-0.2,0.1-0.5,0.2-0.6,0.4c-0.4,0.5-0.5,1.1-0.5,1.7v4.1
		c0,0.6,0.1,1.2,0.5,1.7c0.2,0.2,0.4,0.3,0.6,0.4c0.2,0.1,0.5,0.2,0.8,0.2h5.2c1.4,0,2-0.8,2-2.2v-4.2
		C20.2,37.1,19.5,36.4,18.1,36.3L18.1,36.3z"/>
</g>
</svg>
