<svg id="Ebene_1" data-name="Ebene 1" xmlns="http://www.w3.org/2000/svg" xmlns:xlink="http://www.w3.org/1999/xlink" viewBox="0 0 120.08 80.16"><defs><style>.cls-1{fill:none;}.cls-2{fill:url(#Unbenannter_Verlauf);}.cls-3{fill:#ee555c;}.cls-4{fill:#f3c153;}.cls-5{fill:#eb8752;}.cls-6{fill-opacity:0.2;}.cls-7,.cls-8{fill:#fff;}.cls-8{stroke:#000;stroke-width:0.08px;}.cls-9{fill:url(#Unbenannter_Verlauf_7);}.cls-10{fill:url(#Unbenannter_Verlauf_3);}.cls-11{fill:url(#Unbenannter_Verlauf_4);}.cls-12{fill:url(#Unbenannter_Verlauf_4-2);}.cls-13{fill:url(#Unbenannter_Verlauf_5);}.cls-14{fill:url(#Unbenannter_Verlauf_6);}.cls-15{clip-path:url(#clip-path);}.cls-16{fill:#252422;}.cls-17{fill:#cc2264;}.cls-18{fill:#fefefe;}.cls-19{fill:#00249f;}.cls-20{fill:#fc7d01;}</style><linearGradient id="Unbenannter_Verlauf" x1="-242.68" y1="432.56" x2="-242.24" y2="431.58" gradientTransform="matrix(120, 0, 0, -80, 29155.04, 34605.12)" gradientUnits="userSpaceOnUse"><stop offset="0" stop-color="#518ed2"/><stop offset="1" stop-color="#25409c"/></linearGradient><linearGradient id="Unbenannter_Verlauf_7" x1="-152.76" y1="288.38" x2="-121.61" y2="288.38" gradientTransform="matrix(2.83, 0, 0, -2.83, 449.49, 883.74)" gradientUnits="userSpaceOnUse"><stop offset="0" stop-color="#ffdf42"/><stop offset="0.07" stop-color="#fdcd21"/><stop offset="0.16" stop-color="#fbba00"/><stop offset="0.36" stop-color="#ef6009"/><stop offset="0.5" stop-color="#e20513"/><stop offset="0.58" stop-color="#d10810"/><stop offset="0.68" stop-color="#bf0c0c"/><stop offset="0.71" stop-color="#bf0c0c"/><stop offset="0.85" stop-color="#920c06"/><stop offset="1" stop-color="#640c00"/></linearGradient><linearGradient id="Unbenannter_Verlauf_3" x1="-121.61" y1="297.92" x2="-153.45" y2="297.92" gradientTransform="matrix(2.83, 0, 0, -2.83, 449.49, 883.74)" gradientUnits="userSpaceOnUse"><stop offset="0" stop-color="#fff"/><stop offset="0.05" stop-color="#fff"/><stop offset="0.1" stop-color="#ededef"/><stop offset="0.17" stop-color="#787d84"/><stop offset="0.27" stop-color="#030c18"/><stop offset="1" stop-color="#030c18"/></linearGradient><linearGradient id="Unbenannter_Verlauf_4" x1="-153.45" y1="297.92" x2="-121.61" y2="297.92" gradientTransform="matrix(2.83, 0, 0, -2.83, 449.49, 883.74)" gradientUnits="userSpaceOnUse"><stop offset="0" stop-color="#262f3b"/><stop offset="0.28" stop-color="#151e2a"/><stop offset="0.61" stop-color="#030c18"/><stop offset="0.66" stop-color="#06101c"/><stop offset="0.72" stop-color="#0a1521"/><stop offset="0.91" stop-color="#3f4653"/><stop offset="1" stop-color="#747785"/></linearGradient><linearGradient id="Unbenannter_Verlauf_4-2" x1="-139.17" y1="294.95" x2="-137.55" y2="294.95" xlink:href="#Unbenannter_Verlauf_4"/><radialGradient id="Unbenannter_Verlauf_5" cx="-140.55" cy="296.81" r="33.08" gradientTransform="matrix(2.83, 0, 0, -2.83, 449.49, 883.74)" gradientUnits="userSpaceOnUse"><stop offset="0" stop-color="#eb6050"/><stop offset="0.06" stop-color="#eb6050"/><stop offset="0.25" stop-color="#e73238"/><stop offset="0.36" stop-color="#e40521"/><stop offset="0.6" stop-color="#b80a12"/><stop offset="0.78" stop-color="#8c0f03"/><stop offset="0.91" stop-color="#af0b10"/><stop offset="0.95" stop-color="#d1081d"/><stop offset="0.98" stop-color="#db061f"/><stop offset="1" stop-color="#e40521"/></radialGradient><radialGradient id="Unbenannter_Verlauf_6" cx="-136.24" cy="296.81" r="33.08" gradientTransform="matrix(2.83, 0, 0, -2.83, 449.49, 883.74)" gradientUnits="userSpaceOnUse"><stop offset="0" stop-color="#ffe259"/><stop offset="0.06" stop-color="#ffe259"/><stop offset="0.23" stop-color="#fdce2c"/><stop offset="0.36" stop-color="#fbba00"/><stop offset="0.59" stop-color="#e48f01"/><stop offset="0.78" stop-color="#cd6401"/><stop offset="0.91" stop-color="#e48f00"/><stop offset="0.95" stop-color="#fbba00"/><stop offset="0.98" stop-color="#fdc819"/><stop offset="1" stop-color="#ffd631"/></radialGradient><clipPath id="clip-path" transform="translate(0.04 0.12)"><rect class="cls-1" x="59.76" y="39.06" height="0.01"/></clipPath></defs><title>card_vpay</title><g id="assets-various"><g id="Artboard-2"><g id="card_master-v02" data-name="card master-v02"><g id="assets-various-2" data-name="assets-various"><g id="Artboard-2-2" data-name="Artboard-2"><g id="card_master" data-name="card master"><rect id="Rectangle-11" class="cls-2" x="0.04" y="0.12" width="120" height="80" rx="4" ry="4"/><ellipse id="Oval-2" class="cls-3" cx="42.94" cy="40.12" rx="25.07" ry="24.88"/><ellipse id="Oval-2-2" data-name="Oval-2" class="cls-4" cx="77.13" cy="40.12" rx="25.07" ry="24.88"/><path id="Oval-2-3" data-name="Oval-2" class="cls-5" d="M60,57.87a24,24,0,0,0,0-35.74,24,24,0,0,0,0,35.74h0Z" transform="translate(0.04 0.12)"/></g></g></g><g id="Group-Copy-4"><path id="Fill-6" class="cls-6" d="M83.71,47.19l1.74-9.31h2.2l0.23,0.92a3.06,3.06,0,0,1,2.43-.92L89.61,40.3c-0.62,0-1.8-.16-2.56,2.62l-0.79,4.26H83.71" transform="translate(0.04 0.12)"/><path id="Fill-7" class="cls-6" d="M50,35.51h2.53L52,38h1.36L53,40h-1.3l-0.71,3.77c-0.13.71-.06,1.36,1.4,1.14l-0.16,1.88a3.59,3.59,0,0,1-1.88.45c-0.58,0-2.5-.36-2-2.89L50,35.51" transform="translate(0.04 0.12)"/><path id="Fill-8" class="cls-6" d="M61,43c0.29-1.49,1-5.19-3.47-5.19-4.09,0-4.61,4.06-4.71,4.64S52.67,47.2,57,47.2a8.66,8.66,0,0,0,3.25-.42l0.39-1.91a18.39,18.39,0,0,1-2.86.23c-1,0-2.63.07-2.34-2H61Zm-5.36-1.69H58.8c0.16-.91-0.13-1.69-1.14-1.69a2,2,0,0,0-2,1.69h0Z" transform="translate(0.04 0.12)"/><path id="Fill-10" class="cls-6" d="M47.63,40.06l0.58-1.88a6,6,0,0,0-2.5-.36c-0.36,0-3.4,0-3.86,2.21-0.36,1.72.27,2.43,0.88,2.69,1,0.42,1.53.81,2,1.07a0.73,0.73,0,0,1-.32,1.4A10,10,0,0,1,41.11,45l-0.36,1.92a10.31,10.31,0,0,0,3,.32c0.62,0,3.64.16,4.06-2.63a2,2,0,0,0-.88-2.27,14.26,14.26,0,0,0-1.82-1c-0.52-.23-0.91-1.1,0-1.36a8.26,8.26,0,0,1,2.5.13h0" transform="translate(0.04 0.12)"/><path id="Fill-11" class="cls-6" d="M31.21,47.2L33.32,36H29.16l-3.08,6.82L25.59,36H21.54L19.36,47.2h2.53l1.56-8.12,0.68,8.12h2.4l3.54-7.92L28.58,47.2h2.63" transform="translate(0.04 0.12)"/><path id="Fill-12" class="cls-6" d="M34,38.14l-0.39,2a27.7,27.7,0,0,1,3.15-.29c0.88,0,1.85-.1,1.56,1.3-0.65.07-5.19-.65-5.91,3.25a2.46,2.46,0,0,0,2.66,2.82,3.29,3.29,0,0,0,2.11-.55l0.33,0.52h2.37l1-5.06c0.26-1.27.68-4.32-3.57-4.32a17.29,17.29,0,0,0-3.31.32h0Zm1.72,5.13c-0.81.55-1,1.53-.19,1.85A1.73,1.73,0,0,0,37.7,44l0.2-1A2.83,2.83,0,0,0,35.72,43.27Z" transform="translate(0.04 0.12)"/><path id="Fill-14" class="cls-6" d="M75,38.56a3.23,3.23,0,0,0-1.95-.45A3.49,3.49,0,0,0,70,41.19c-0.42,2.69,1.43,4,4,3.15l0.75,2.27a6.77,6.77,0,0,1-3.08.58c-2.63,0-5.49-2.34-4.19-7.08a6.1,6.1,0,0,1,5.71-4.71,4.19,4.19,0,0,1,3.47,1.49L75,38.56" transform="translate(0.04 0.12)"/><path id="Fill-15" class="cls-6" d="M96.62,39c-0.49-.36-0.78-1.1-2-1.1-1.4,0-3.57-.26-4.8,4-0.82,2.82.84,5.39,2.66,5.39a4.46,4.46,0,0,0,2.21-.75L95,47.2h2.73L100,35.38H97.3Zm-0.91,3.8a3.07,3.07,0,0,0-.16-2.27c-0.78-1-2.57-.22-3.12,1.82-0.36,1.33.42,2.34,1.3,2.34S95.25,43.89,95.71,42.75Z" transform="translate(0.04 0.12)"/><path id="Fill-17" class="cls-6" d="M76.85,38.14l-0.39,2a27.7,27.7,0,0,1,3.15-.29c0.88,0,1.85-.1,1.56,1.3-0.65.07-5.19-.65-5.91,3.25a2.46,2.46,0,0,0,2.66,2.82A3.29,3.29,0,0,0,80,46.68l0.32,0.52h2.37l1-5.06c0.26-1.27.68-4.32-3.57-4.32a17.29,17.29,0,0,0-3.31.32h0Zm3.9,4.9a2.83,2.83,0,0,0-2.18.23c-0.81.55-1,1.53-.19,1.85A1.73,1.73,0,0,0,80.55,44Z" transform="translate(0.04 0.12)"/><path id="Fill-19" class="cls-6" d="M61.08,47.2L62.8,38H65l0.23,0.91a3,3,0,0,1,2.4-.91L67,40.41c-0.62,0-1.82-.19-2.56,2.56L63.61,47.2H61.08" transform="translate(0.04 0.12)"/></g><g id="Group-Copy-3"><path id="Fill-6-2" data-name="Fill-6" class="cls-7" d="M83.71,46.19l1.74-9.31h2.2l0.23,0.92a3.06,3.06,0,0,1,2.43-.92L89.61,39.3c-0.62,0-1.8-.16-2.56,2.62l-0.79,4.26H83.71" transform="translate(0.04 0.12)"/><path id="Fill-7-2" data-name="Fill-7" class="cls-7" d="M50,34.51h2.53L52,37h1.36L53,39h-1.3l-0.71,3.77c-0.13.71-.06,1.36,1.4,1.14l-0.16,1.88a3.59,3.59,0,0,1-1.88.45c-0.58,0-2.5-.36-2-2.89L50,34.51" transform="translate(0.04 0.12)"/><path id="Fill-8-2" data-name="Fill-8" class="cls-7" d="M61,42c0.29-1.49,1-5.19-3.47-5.19-4.09,0-4.61,4.06-4.71,4.64S52.67,46.2,57,46.2a8.66,8.66,0,0,0,3.25-.42l0.39-1.91a18.39,18.39,0,0,1-2.86.23c-1,0-2.63.07-2.34-2H61Zm-5.36-1.69H58.8c0.16-.91-0.13-1.69-1.14-1.69a2,2,0,0,0-2,1.69h0Z" transform="translate(0.04 0.12)"/><path id="Fill-10-2" data-name="Fill-10" class="cls-7" d="M47.63,39.06l0.58-1.88a6,6,0,0,0-2.5-.36c-0.36,0-3.4,0-3.86,2.21-0.36,1.72.27,2.43,0.88,2.69,1,0.42,1.53.81,2,1.07a0.73,0.73,0,0,1-.32,1.4A10,10,0,0,1,41.11,44l-0.36,1.92a10.31,10.31,0,0,0,3,.32c0.62,0,3.64.16,4.06-2.63a2,2,0,0,0-.88-2.27,14.26,14.26,0,0,0-1.82-1c-0.52-.23-0.91-1.1,0-1.36a8.26,8.26,0,0,1,2.5.13h0" transform="translate(0.04 0.12)"/><path id="Fill-11-2" data-name="Fill-11" class="cls-7" d="M31.21,46.2L33.32,35H29.16l-3.08,6.82L25.59,35H21.54L19.36,46.2h2.53l1.56-8.12,0.68,8.12h2.4l3.54-7.92L28.58,46.2h2.63" transform="translate(0.04 0.12)"/><path id="Fill-12-2" data-name="Fill-12" class="cls-7" d="M34,37.14l-0.39,2a27.7,27.7,0,0,1,3.15-.29c0.88,0,1.85-.1,1.56,1.3-0.65.07-5.19-.65-5.91,3.25a2.46,2.46,0,0,0,2.66,2.82,3.29,3.29,0,0,0,2.11-.55l0.33,0.52h2.37l1-5.06c0.26-1.27.68-4.32-3.57-4.32a17.29,17.29,0,0,0-3.31.32h0Zm1.72,5.13c-0.81.55-1,1.53-.19,1.85A1.73,1.73,0,0,0,37.7,43l0.2-1A2.83,2.83,0,0,0,35.72,42.27Z" transform="translate(0.04 0.12)"/><path id="Fill-14-2" data-name="Fill-14" class="cls-7" d="M75,37.56a3.23,3.23,0,0,0-1.95-.45A3.49,3.49,0,0,0,70,40.19c-0.42,2.69,1.43,4,4,3.15l0.75,2.27a6.77,6.77,0,0,1-3.08.58c-2.63,0-5.49-2.34-4.19-7.08a6.1,6.1,0,0,1,5.71-4.71,4.19,4.19,0,0,1,3.47,1.49L75,37.56" transform="translate(0.04 0.12)"/><path id="Fill-15-2" data-name="Fill-15" class="cls-7" d="M96.62,38c-0.49-.36-0.78-1.1-2-1.1-1.4,0-3.57-.26-4.8,4-0.82,2.82.84,5.39,2.66,5.39a4.46,4.46,0,0,0,2.21-.75L95,46.2h2.73L100,34.38H97.3Zm-0.91,3.8a3.07,3.07,0,0,0-.16-2.27c-0.78-1-2.57-.22-3.12,1.82-0.36,1.33.42,2.34,1.3,2.34S95.25,42.89,95.71,41.75Z" transform="translate(0.04 0.12)"/><path id="Fill-17-2" data-name="Fill-17" class="cls-7" d="M76.85,37.14l-0.39,2a27.7,27.7,0,0,1,3.15-.29c0.88,0,1.85-.1,1.56,1.3-0.65.07-5.19-.65-5.91,3.25a2.46,2.46,0,0,0,2.66,2.82A3.29,3.29,0,0,0,80,45.68l0.32,0.52h2.37l1-5.06c0.26-1.27.68-4.32-3.57-4.32a17.29,17.29,0,0,0-3.31.32h0Zm3.9,4.9a2.83,2.83,0,0,0-2.18.23c-0.81.55-1,1.53-.19,1.85A1.73,1.73,0,0,0,80.55,43Z" transform="translate(0.04 0.12)"/><path id="Fill-19-2" data-name="Fill-19" class="cls-7" d="M61.08,46.2L62.8,37H65l0.23,0.91a3,3,0,0,1,2.4-.91L67,39.41c-0.62,0-1.82-.19-2.56,2.56L63.61,46.2H61.08" transform="translate(0.04 0.12)"/></g></g></g></g><g id="Layer_1"><path class="cls-8" d="M4,0H116a4,4,0,0,1,4,4V76a4,4,0,0,1-4,4H4a4,4,0,0,1-4-4V4A4,4,0,0,1,4,0Z" transform="translate(0.04 0.12)"/><g id="_266319608" data-name=" 266319608"><path id="_321869328" data-name=" 321869328" class="cls-9" d="M16.48,64.26H95.43c8.83,0,9.33.79,9.33,2.34,0,0.7-.32,1.33-2.45,1.72H16.48V64.26Z" transform="translate(0.04 0.12)"/><path id="_265096832" data-name=" 265096832" class="cls-10" d="M14.51,11.89H95.43c7.87,0,9.33,1.35,9.33,4.56V66.61c0-1.17-1.46-2.12-9.33-2.12H14.51V11.89Z" transform="translate(0.04 0.12)"/><path id="_321775320" data-name=" 321775320" class="cls-11" d="M14.51,11.89H95.43c7.87,0,9.33,1.35,9.33,4.56V66.61c0-1.17-1.46-2.12-9.33-2.12H14.51V11.89Z" transform="translate(0.04 0.12)"/><path id="_321867304" data-name=" 321867304" class="cls-7" d="M72,20.89H67.88V32.2h1.93V28.27H72c3.51,0,4.25-2,4.25-3.68C76.29,22.17,74.82,20.89,72,20.89Zm0,5.55H69.81V22.7H72c1.59,0,2.3.58,2.3,1.89S73.65,26.45,72,26.45ZM36.47,28.22H35c-1.21,0-2,.34-2,1.2s0.63,1.24,1.83,1.24a6.9,6.9,0,0,0,1.7-.17V28.22Zm1.88,3.66h0a12.4,12.4,0,0,1-3.61.51c-2.13,0-3.68-.89-3.68-3,0-1.71,1.35-2.7,3.81-2.7h1.6V26.28c0-.9-0.63-1.19-1.82-1.19a6.58,6.58,0,0,0-2.62.54c-0.19-.57-0.36-1.12-0.55-1.69a9.07,9.07,0,0,1,3.31-.62c2.1,0,3.56.83,3.56,3.22v5.33ZM40.11,30h0a5.47,5.47,0,0,0,2.64.63c1,0,1.62-.24,1.62-0.8,0-1.7-4.71-.36-4.71-3.83,0-1.84,1.72-2.65,3.44-2.65a5.75,5.75,0,0,1,2.86.73l-0.55,1.7a4.06,4.06,0,0,0-2.26-.65c-0.92,0-1.62.24-1.62,0.82,0,1.67,4.73.37,4.73,3.72,0,2-1.7,2.74-3.64,2.74a6.51,6.51,0,0,1-3.06-.72Zm42.16-1.76H80.77c-1.21,0-2,.34-2,1.2s0.63,1.24,1.82,1.24a6.91,6.91,0,0,0,1.7-.17V28.22Zm1.88,3.66h0a12.42,12.42,0,0,1-3.61.51c-2.12,0-3.66-.89-3.66-3,0-1.71,1.34-2.7,3.79-2.7h1.6V26.28c0-.9-0.63-1.19-1.82-1.19a6.52,6.52,0,0,0-2.61.54c-0.19-.57-0.36-1.12-0.55-1.69a9,9,0,0,1,3.29-.62c2.1,0,3.56.83,3.56,3.22v5.33ZM85.93,30h0a5.46,5.46,0,0,0,2.63.63c1,0,1.61-.24,1.61-0.8,0-1.7-4.71-.36-4.71-3.83,0-1.84,1.72-2.65,3.44-2.65a5.75,5.75,0,0,1,2.86.73l-0.55,1.7A4.05,4.05,0,0,0,89,25.1c-0.92,0-1.62.24-1.62,0.82,0,1.67,4.73.37,4.73,3.72,0,2-1.7,2.74-3.64,2.74a6.51,6.51,0,0,1-3.06-.72L85.93,30h0Zm7.61,0h0a5.47,5.47,0,0,0,2.64.63c1,0,1.62-.24,1.62-0.8,0-1.7-4.71-.36-4.71-3.83,0-1.84,1.72-2.65,3.44-2.65a5.76,5.76,0,0,1,2.86.73l-0.55,1.7a4.06,4.06,0,0,0-2.26-.65c-0.92,0-1.62.24-1.62,0.82,0,1.67,4.73.37,4.73,3.72,0,2-1.7,2.74-3.64,2.74A6.52,6.52,0,0,1,93,31.65L93.54,30h0ZM54.72,27.14h4a1.8,1.8,0,0,0-2-2.06A1.86,1.86,0,0,0,54.72,27.14Zm5.91,1.41H54.72c0.07,1.38.94,2.06,2.43,2.06a6.85,6.85,0,0,0,2.45-.44l0.51,1.69a8.4,8.4,0,0,1-3,.51c-2.65,0-4.33-1.3-4.33-4.53s1.54-4.53,3.92-4.53,3.89,1.3,3.89,4.36v0.87h0Zm1.3-4.64h0a8.79,8.79,0,0,1,5.15-.35l-0.56,1.71a5.31,5.31,0,0,0-1.39-.19,4.82,4.82,0,0,0-1.33.17v7H61.93V23.91Zm-32.12-3h0V32.2H27.86V24.38l-3,4.82H24.48l-3.06-4.82V32.2H19.48V20.9h1.87l3.3,5.25,3.29-5.25h1.86ZM50.46,30.6h0a4.45,4.45,0,0,0,1.32-.2l0.44,1.7a5.63,5.63,0,0,1-1.76.26c-1.81,0-3.15-.84-3.15-3.22V20.9h1.87v2.6H52.1v1.77H49.17v3.88A1.2,1.2,0,0,0,50.46,30.6Zm49.6-7.1h0.88v0.17h-0.35v1h-0.18v-1h-0.35V23.5Zm1.05,0h0.18L101.63,24,102,23.5h0.18v1.14H102V23.82l-0.33.53-0.34-.53v0.81h-0.18V23.5h0Z" transform="translate(0.04 0.12)"/><path id="_321869136" data-name=" 321869136" class="cls-12" d="M58.82,55.51a0.68,0.68,0,0,1-.46-0.18,10.43,10.43,0,0,1,0-15.33,0.68,0.68,0,1,1,.93,1,9.07,9.07,0,0,0,0,13.33A0.68,0.68,0,0,1,58.82,55.51Z" transform="translate(0.04 0.12)"/><path id="_321867832" data-name=" 321867832" class="cls-7" d="M72.67,55.29h0.39v0.08H72.91v0.43H72.83V55.37H72.67V55.29Zm0.47,0h0.08l0.15,0.24,0.15-.24h0.08v0.51H73.51V55.44l-0.14.24-0.15-.24v0.36H73.14V55.29Z" transform="translate(0.04 0.12)"/><path id="_321775080" data-name=" 321775080" class="cls-13" d="M53,37.89h0.41a9.77,9.77,0,0,1,0,19.54H53A9.77,9.77,0,0,1,53,37.89Z" transform="translate(0.04 0.12)"/><path id="_321874696" data-name=" 321874696" class="cls-14" d="M65.25,37.89h0.41a9.77,9.77,0,0,1,0,19.54h-0.4A9.77,9.77,0,0,1,65.25,37.89Z" transform="translate(0.04 0.12)"/></g></g><g id="Layer_1-2" data-name="Layer_1"><path class="cls-8" d="M4-.08H116a4,4,0,0,1,4,4v72a4,4,0,0,1-4,4H4a4,4,0,0,1-4-4v-72A4,4,0,0,1,4-.08Z" transform="translate(0.04 0.12)"/><g id="_322179592" data-name=" 322179592"><polygon id="_321397528" data-name=" 321397528" class="cls-16" points="43.46 62.9 32.09 62.9 32.09 44.03 43.46 44.03 43.46 62.9"/><path id="_322180552" data-name=" 322180552" class="cls-16" d="M44.28,34.48A6.43,6.43,0,1,1,37.85,28,6.43,6.43,0,0,1,44.28,34.48Z" transform="translate(0.04 0.12)"/><path id="_321398256" data-name=" 321398256" class="cls-16" d="M64.18,13.21c7.9,0,14.49,2.14,19,6.19C88.38,24,91,30.92,91,40c0,18-8.77,26.81-26.81,26.81H28.28V13.21h35.9ZM64.95,9.1H24.17V70.94H64.95c8.91-.12,16-2.33,21-6.59C92,59.16,95.1,51,95.1,40a37.72,37.72,0,0,0-2.41-14A25.44,25.44,0,0,0,86,16.33c-5.17-4.59-12.42-7.07-21-7.22h0Z" transform="translate(0.04 0.12)"/><path id="_321866584" data-name=" 321866584" class="cls-17" d="M63.05,62.8H48.64V18.21H62.47c12,0,24.82,4.74,24.82,22.36,0,18.62-12.8,22.24-24.82,22.24h0.58Z" transform="translate(0.04 0.12)"/><path id="_268131160" data-name=" 268131160" class="cls-18" d="M48.32,31.54v7.09h1.62a6,6,0,0,0,1.31-.1,2,2,0,0,0,.88-0.45,2.26,2.26,0,0,0,.57-1,7,7,0,0,0,.22-2,6.37,6.37,0,0,0-.22-1.91,2.45,2.45,0,0,0-.62-1,2.07,2.07,0,0,0-1-.5,9.87,9.87,0,0,0-1.78-.1h-1Zm-2.16-1.82h4a7.73,7.73,0,0,1,2,.2,3.59,3.59,0,0,1,1.62,1,4.69,4.69,0,0,1,1,1.74,7.92,7.92,0,0,1,.35,2.54,7.06,7.06,0,0,1-.33,2.28,4.74,4.74,0,0,1-1.15,1.9,3.81,3.81,0,0,1-1.52.86,6.55,6.55,0,0,1-1.92.23H46.15V29.72Z" transform="translate(0.04 0.12)"/><path id="_321866728" data-name=" 321866728" class="cls-18" d="M50.11,30a7.49,7.49,0,0,1,2,.19,3.31,3.31,0,0,1,1.49.91,4.42,4.42,0,0,1,1,1.63,7.68,7.68,0,0,1,.34,2.44,6.8,6.8,0,0,1-.31,2.19,4.46,4.46,0,0,1-1.08,1.78,3.53,3.53,0,0,1-1.41.79,6.3,6.3,0,0,1-1.83.21H46.45V30h3.66Zm-4.25-.59V40.75h4.37a6.86,6.86,0,0,0,2-.24,4.11,4.11,0,0,0,1.64-.93,5,5,0,0,0,1.22-2,7.38,7.38,0,0,0,.35-2.38,8.24,8.24,0,0,0-.37-2.63A5,5,0,0,0,54,30.71a3.89,3.89,0,0,0-1.75-1.07,7.91,7.91,0,0,0-2.12-.22H45.86Z" transform="translate(0.04 0.12)"/><path id="_321866824" data-name=" 321866824" class="cls-18" d="M49.29,31.83a9.25,9.25,0,0,1,1.72.09,1.79,1.79,0,0,1,.87.43,2.17,2.17,0,0,1,.54.92,6.14,6.14,0,0,1,.21,1.81A6.72,6.72,0,0,1,52.42,37a2,2,0,0,1-.48.9,1.73,1.73,0,0,1-.75.38,5.73,5.73,0,0,1-1.24.09H48.61V31.83h0.68ZM48,31.25v7.68h1.91a6.13,6.13,0,0,0,1.38-.11,2.3,2.3,0,0,0,1-.51A2.52,2.52,0,0,0,53,37.14a7.16,7.16,0,0,0,.23-2,6.59,6.59,0,0,0-.23-2,2.75,2.75,0,0,0-.69-1.16,2.37,2.37,0,0,0-1.14-.58,10,10,0,0,0-1.84-.11H48Z" transform="translate(0.04 0.12)"/><polygon id="_321866896" data-name=" 321866896" class="cls-18" points="57.63 40.57 57.63 29.84 65.58 29.84 65.58 31.66 59.8 31.66 59.8 34.04 65.17 34.04 65.17 35.86 59.8 35.86 59.8 38.75 65.78 38.75 65.78 40.57 57.63 40.57"/><path id="_321866968" data-name=" 321866968" class="cls-18" d="M65.24,30v1.23H59.46v3h5.38v1.23H59.46v3.48h6v1.23H57.89V30h7.36Zm-7.94-.59V40.75H66V38.34h-6V36h5.38V33.62H60.05V31.83h5.78V29.43H57.3Z" transform="translate(0.04 0.12)"/><path id="_321867040" data-name=" 321867040" class="cls-18" d="M73.87,36.2l-1.48-4-1.45,4h2.93Zm4,4.25H75.5L74.56,38H70.28l-0.89,2.43h-2.3l4.17-10.73h2.31Z" transform="translate(0.04 0.12)"/><path id="_321867112" data-name=" 321867112" class="cls-18" d="M73.37,30l4.06,10.14H75.7l-0.94-2.43H70.07l-0.89,2.43H67.52L71.46,30h1.91Zm-2.31-.59-4.4,11.32H69.6l0.89-2.43h3.88l0.94,2.43h3L73.77,29.43H71.06Z" transform="translate(0.04 0.12)"/><path id="_321867184" data-name=" 321867184" class="cls-18" d="M72.39,33.07l1.05,2.83H71.36Zm-1.87,3.42h3.77l-1.9-5.12Z" transform="translate(0.04 0.12)"/><polygon id="_321866800" data-name=" 321866800" class="cls-18" points="79.71 40.57 79.71 29.93 81.87 29.93 81.87 38.75 87.26 38.75 87.26 40.57 79.71 40.57"/><path id="_321867304-2" data-name=" 321867304" class="cls-18" d="M81.54,30.1v8.82h5.39v1.23H80V30.1h1.58Zm-2.16-.59V40.75h8.14V38.34H82.13V29.52H79.37Z" transform="translate(0.04 0.12)"/></g></g><g id="Layer_1-3" data-name="Layer_1"><path class="cls-8" d="M4-.08H116a4,4,0,0,1,4,4v72a4,4,0,0,1-4,4H4a4,4,0,0,1-4-4v-72A4,4,0,0,1,4-.08Z" transform="translate(0.04 0.12)"/><g id="_321867616" data-name=" 321867616"><path id="_266319608-2" data-name=" 266319608" class="cls-19" d="M32.74,7H86.52A3.49,3.49,0,0,1,90,10.5v59A3.49,3.49,0,0,1,86.52,73H32.74a3.49,3.49,0,0,1-3.48-3.48v-59A3.49,3.49,0,0,1,32.74,7Z" transform="translate(0.04 0.12)"/><path id="_266320136" data-name=" 266320136" class="cls-7" d="M86.52,8.68H32.74a1.83,1.83,0,0,0-1.82,1.82V48.91H88.35V10.5A1.83,1.83,0,0,0,86.52,8.68Z" transform="translate(0.04 0.12)"/><path id="_321870288" data-name=" 321870288" class="cls-19" d="M75.85,13.06L63.31,43H55.11L48.93,19.1a3.31,3.31,0,0,0-1.84-2.64,32.82,32.82,0,0,0-7.65-2.54l0.18-.87H52.82a3.62,3.62,0,0,1,3.58,3.05l3.26,17.33,8.06-20.38h8.14Z" transform="translate(0.04 0.12)"/><path id="_321873040" data-name=" 321873040" class="cls-20" d="M48.14,17.26a3.61,3.61,0,0,0-1-.79,32.82,32.82,0,0,0-7.65-2.54l0.18-.87H52.82a3.62,3.62,0,0,1,3.58,3.05l2.91,15.48A22.17,22.17,0,0,0,48.14,17.26Z" transform="translate(0.04 0.12)"/><path id="_321776136" data-name=" 321776136" class="cls-7" d="M46.8,59.73h1.61a4.54,4.54,0,0,0,2.5-.53,1.91,1.91,0,0,0,.77-1.69,2,2,0,0,0-.79-1.72,4.19,4.19,0,0,0-2.41-.56H46.8v4.51Zm0,7.29h-2.2V53.41h3.57a15.16,15.16,0,0,1,2.29.13,4.53,4.53,0,0,1,1.38.44,3.82,3.82,0,0,1,1.53,1.42,3.72,3.72,0,0,1,.57,2,3.63,3.63,0,0,1-1.44,3,6.23,6.23,0,0,1-3.92,1.13H46.8V67Zm15-5.88L59.6,56l-2.2,5.17h4.37ZM56.6,63.05l-1.73,4H52.52l6-13.6h2.16l6,13.6H64.25l-1.69-4h-6Zm15.24-.93V67H69.61V62l-4.71-8.59h2.48L70.76,60l3.37-6.54H76.6Z" transform="translate(0.04 0.12)"/></g></g></svg>