<?xml version="1.0" encoding="UTF-8"?>
<!DOCTYPE svg PUBLIC "-//W3C//DTD SVG 1.1//EN" "http://www.w3.org/Graphics/SVG/1.1/DTD/svg11.dtd">
<!-- Creator: CorelDRAW -->
<svg xmlns="http://www.w3.org/2000/svg" xml:space="preserve" width="50mm" height="35mm" style="shape-rendering:geometricPrecision; text-rendering:geometricPrecision; image-rendering:optimizeQuality; fill-rule:evenodd; clip-rule:evenodd"
viewBox="0 0 50 35"
 xmlns:xlink="http://www.w3.org/1999/xlink">
 <defs>
  <style type="text/css">
   <![CDATA[
    .str0 {stroke:black;stroke-width:0.0762}
    .str1 {stroke:#826794;stroke-width:0.5}
    .fil5 {fill:none}
    .fil3 {fill:#010004}
    .fil2 {fill:#E90F25}
    .fil4 {fill:#F7F019}
    .fil0 {fill:#FEFEFE;fill-rule:nonzero}
    .fil1 {fill:#826794;fill-rule:nonzero}
   ]]>
  </style>
 </defs>
 <g id="Layer_x0020_1">
  <metadata id="CorelCorpID_0Corel-Layer"/>
  <path class="fil0 str0" d="M5.2445 3.3889l39.5111 0c0.7793,0 1.4111,0.6318 1.4111,1.4111l0 25.4c0,0.7793 -0.6318,1.4111 -1.4111,1.4111l-39.5111 0c-0.7793,0 -1.4112,-0.6318 -1.4112,-1.4111l0 -25.4c0,-0.7793 0.6319,-1.4111 1.4112,-1.4111z"/>
  <path class="fil1" d="M9.5703 14.5287c0,-0.2485 0.0563,-0.4899 0.1666,-0.723 0.1116,-0.2323 0.2693,-0.4107 0.4732,-0.5326 0.2039,-0.1231 0.4317,-0.1851 0.6835,-0.1851 0.388,0 0.7065,0.1393 0.9548,0.4182 0.2485,0.2787 0.3725,0.6302 0.3725,1.0555 0,0.4279 -0.1257,0.7832 -0.3756,1.0654 -0.2508,0.2824 -0.5663,0.4225 -0.947,0.4225 -0.2358,0 -0.4595,-0.0583 -0.6733,-0.1757 -0.2139,-0.1174 -0.3765,-0.2897 -0.4881,-0.5163 -0.1103,-0.2268 -0.1666,-0.5028 -0.1666,-0.8289zm0.6966 0.0401c0,0.2815 0.0604,0.4965 0.1818,0.6457 0.1205,0.1495 0.2697,0.224 0.4474,0.224 0.1773,0 0.3261,-0.0745 0.4456,-0.224 0.1205,-0.1492 0.1809,-0.3661 0.1809,-0.6511 0,-0.2768 -0.0604,-0.4909 -0.1809,-0.6401 -0.1195,-0.1495 -0.2683,-0.2242 -0.4456,-0.2242 -0.1777,0 -0.3269,0.0747 -0.4474,0.2242 -0.1214,0.1492 -0.1818,0.3652 -0.1818,0.6455zm3.1921 1.4171l-1.0352 -2.8331 0.7132 0 0.4838 1.4462 0.1402 0.4826c0.0371,-0.1229 0.0611,-0.204 0.0703,-0.2431 0.0231,-0.0802 0.0469,-0.1603 0.0726,-0.2395l0.4885 -1.4462 0.6993 0 -1.0211 2.8331 -0.6116 0zm3.5352 -0.9015l0.6776 0.1247c-0.0873,0.2742 -0.2242,0.4826 -0.4126,0.6257 -0.1874,0.1438 -0.4227,0.2148 -0.7049,0.2148 -0.4465,0 -0.7768,-0.1601 -0.9914,-0.4826 -0.1692,-0.2577 -0.2541,-0.5837 -0.2541,-0.9763 0,-0.4698 0.1113,-0.8379 0.334,-1.1038 0.2221,-0.2659 0.5039,-0.3989 0.8438,-0.3989 0.3822,0 0.6835,0.1393 0.9046,0.4182 0.2204,0.2787 0.3261,0.7047 0.3169,1.2795l-1.7029 0c0.005,0.2221 0.0594,0.3951 0.1643,0.5182 0.1049,0.1237 0.2363,0.1858 0.3923,0.1858 0.1064,0 0.1955,-0.0319 0.2681,-0.0958 0.0726,-0.0646 0.128,-0.1676 0.1643,-0.3095zm0.0387 -0.7577c-0.005,-0.2176 -0.0552,-0.3824 -0.1516,-0.4954 -0.0967,-0.1129 -0.2148,-0.1695 -0.3534,-0.1695 -0.1485,0 -0.2709,0.0602 -0.3676,0.1795 -0.0964,0.1183 -0.1442,0.2805 -0.1426,0.4854l1.0152 0zm1.8796 1.6592l-0.6794 0 0 -2.8331 0.6306 0 0 0.4025c0.1083,-0.1903 0.2056,-0.3159 0.2914,-0.3761 0.0868,-0.0601 0.1842,-0.0912 0.294,-0.0912 0.1551,0 0.3037,0.0474 0.4473,0.1422l-0.2106 0.653c-0.1138,-0.0811 -0.2202,-0.1221 -0.3185,-0.1221 -0.0957,0 -0.1759,0.0283 -0.2419,0.0865 -0.0667,0.0573 -0.1181,0.1622 -0.156,0.3133 -0.0378,0.1512 -0.0569,0.468 -0.0569,0.9499l0 0.8751zm1.0376 -0.8086l0.6818 -0.1148c0.029,0.1457 0.0875,0.2567 0.1766,0.3324 0.0884,0.0757 0.2122,0.1138 0.3722,0.1138 0.1759,0 0.3079,-0.0355 0.3964,-0.1075 0.0601,-0.0492 0.0898,-0.1164 0.0898,-0.1994 0,-0.0573 -0.0163,-0.1047 -0.0486,-0.1422 -0.0339,-0.0353 -0.1096,-0.0681 -0.227,-0.0983 -0.5482,-0.1329 -0.8957,-0.2548 -1.0425,-0.3652 -0.203,-0.153 -0.3046,-0.3661 -0.3046,-0.6384 0,-0.2449 0.0874,-0.4515 0.2633,-0.6181 0.1759,-0.1677 0.4482,-0.2516 0.8171,-0.2516 0.3518,0 0.6135,0.0639 0.7842,0.1896 0.1709,0.1266 0.2881,0.3133 0.3527,0.5608l-0.6406 0.1304c-0.0273,-0.1103 -0.0794,-0.195 -0.1561,-0.2532 -0.0768,-0.0592 -0.1857,-0.0884 -0.3279,-0.0884 -0.1789,0 -0.307,0.0273 -0.3845,0.083 -0.0512,0.0391 -0.0766,0.09 -0.0766,0.152 0,0.0538 0.0221,0.0983 0.0676,0.1356 0.0611,0.0502 0.2726,0.1202 0.6347,0.2115 0.3614,0.09 0.6141,0.2011 0.7577,0.3331 0.1422,0.1339 0.2131,0.3197 0.2131,0.5573 0,0.2596 -0.0983,0.4838 -0.2956,0.6705 -0.1964,0.1865 -0.4871,0.2794 -0.8726,0.2794 -0.3498,0 -0.6264,-0.0783 -0.8312,-0.2348 -0.2037,-0.1559 -0.3367,-0.369 -0.3994,-0.6375zm5.2333 -1.1866l-0.6702 0.133c-0.0224,-0.1476 -0.0736,-0.2589 -0.1535,-0.3334 -0.0802,-0.0747 -0.1834,-0.112 -0.3105,-0.112 -0.1702,0 -0.3046,0.0646 -0.4053,0.1931 -0.1009,0.1292 -0.1511,0.3452 -0.1511,0.6474 0,0.336 0.0512,0.5738 0.1535,0.7122 0.1023,0.1384 0.2393,0.2075 0.4121,0.2075 0.1294,0 0.2343,-0.0401 0.3168,-0.1209 0.0825,-0.0811 0.1403,-0.2205 0.1743,-0.4171l0.6676 0.1247c-0.0693,0.3379 -0.203,0.5936 -0.3994,0.7657 -0.1966,0.1731 -0.4597,0.2587 -0.7907,0.2587 -0.3758,0 -0.6754,-0.1302 -0.8982,-0.3916 -0.2237,-0.2612 -0.335,-0.6238 -0.335,-1.0864 0,-0.4672 0.1122,-0.8315 0.3359,-1.092 0.2245,-0.2612 0.5274,-0.3916 0.9096,-0.3916 0.3128,0 0.5613,0.0747 0.7461,0.2233 0.1842,0.1485 0.3169,0.3751 0.398,0.6794zm1.1917 -1.9162l0 1.4381c0.2198,-0.2824 0.4812,-0.4246 0.7861,-0.4246 0.1567,0 0.297,0.033 0.4231,0.0967 0.1257,0.0636 0.2207,0.1457 0.2841,0.2449 0.0637,0.1002 0.1073,0.2103 0.1306,0.3315 0.0238,0.1202 0.0354,0.3088 0.0354,0.5627l0 1.6621 -0.6792 0 0 -1.497c0,-0.2971 -0.0135,-0.4854 -0.0389,-0.5656 -0.0267,-0.0802 -0.0719,-0.1431 -0.137,-0.1905 -0.0653,-0.0474 -0.1471,-0.071 -0.2452,-0.071 -0.1131,0 -0.2138,0.0302 -0.3022,0.091 -0.0891,0.0602 -0.1544,0.1514 -0.1947,0.2733 -0.0413,0.1221 -0.0621,0.3025 -0.0621,0.5401l0 1.4197 -0.6794 0 0 -3.9114 0.6794 0zm2.9989 3.9114l-0.6793 0 0 -2.8331 0.6307 0 0 0.4025c0.108,-0.1903 0.2056,-0.3159 0.2912,-0.3761 0.0867,-0.0601 0.1841,-0.0912 0.2939,-0.0912 0.1552,0 0.3037,0.0474 0.4473,0.1422l-0.2106 0.653c-0.1138,-0.0811 -0.2202,-0.1221 -0.3185,-0.1221 -0.0957,0 -0.1758,0.0283 -0.2419,0.0865 -0.0667,0.0573 -0.1178,0.1622 -0.156,0.3133 -0.0377,0.1512 -0.0568,0.468 -0.0568,0.9499l0 0.8751zm1.277 -3.2173l0 -0.6941 0.6793 0 0 0.6941 -0.6793 0zm0 3.2173l0 -2.8331 0.6793 0 0 2.8331 -0.6793 0zm1.3611 -3.2173l0 -0.6941 0.6792 0 0 0.6941 -0.6792 0zm0.6792 0.3842l0 2.7447c0,0.3617 -0.0215,0.6165 -0.0634,0.765 -0.043,0.1486 -0.1255,0.2641 -0.2469,0.348 -0.1221,0.0837 -0.2772,0.1257 -0.4656,0.1257 -0.0674,0 -0.141,-0.0073 -0.2185,-0.0201 -0.0785,-0.0136 -0.1627,-0.0337 -0.2528,-0.0601l0.1181 -0.6403c0.0323,0.0064 0.0628,0.0127 0.0908,0.0174 0.0281,0.0045 0.0545,0.0064 0.0785,0.0064 0.0691,0 0.1261,-0.0165 0.1709,-0.0493 0.0444,-0.0327 0.0734,-0.0728 0.0882,-0.1193 0.0142,-0.0455 0.0215,-0.1848 0.0215,-0.4161l0 -2.702 0.6792 0zm1.4173 2.8331l-1.0349 -2.8331 0.7129 0 0.4838 1.4462 0.1402 0.4826c0.0373,-0.1229 0.0611,-0.204 0.0703,-0.2431 0.0231,-0.0802 0.0471,-0.1603 0.0726,-0.2395l0.4885 -1.4462 0.6992 0 -1.021 2.8331 -0.6116 0zm2.0488 -3.2173l0 -0.6941 0.6792 0 0 0.6941 -0.6792 0zm0 3.2173l0 -2.8331 0.6792 0 0 2.8331 -0.6792 0zm3.7119 0l-0.6794 0 0 -1.4461c0,-0.306 -0.0149,-0.5036 -0.0436,-0.5939 -0.029,-0.0891 -0.0769,-0.1593 -0.1422,-0.2093 -0.0653,-0.0493 -0.1436,-0.0748 -0.235,-0.0748 -0.1182,0 -0.2238,0.0356 -0.3171,0.1066 -0.0932,0.0719 -0.1578,0.1657 -0.1924,0.2831 -0.0347,0.1177 -0.0519,0.3343 -0.0519,0.6512l0 1.2832 -0.6794 0 0 -2.8331 0.6306 0 0 0.4162c0.2247,-0.3207 0.5069,-0.481 0.8469,-0.481 0.1494,0 0.2871,0.0302 0.4111,0.0894 0.1238,0.0601 0.2178,0.1358 0.2815,0.2286 0.0637,0.0929 0.108,0.1976 0.1327,0.315 0.0257,0.1174 0.0382,0.285 0.0382,0.5036l0 1.7613zm0.6262 0.1867l0.7761 0.1038c0.0132,0.1002 0.0429,0.1685 0.0891,0.2058 0.0644,0.0537 0.1667,0.0801 0.3046,0.0801 0.1773,0 0.3103,-0.029 0.3996,-0.0884 0.0594,-0.0391 0.1047,-0.1018 0.1353,-0.1893 0.0208,-0.062 0.0314,-0.1766 0.0314,-0.3442l0 -0.4135c-0.203,0.306 -0.46,0.459 -0.7693,0.459 -0.3451,0 -0.6184,-0.1612 -0.8197,-0.4826 -0.1577,-0.2551 -0.2369,-0.571 -0.2369,-0.9498 0,-0.4756 0.1039,-0.8379 0.3112,-1.0892 0.2072,-0.2504 0.4646,-0.3763 0.7725,-0.3763 0.3169,0 0.5795,0.154 0.786,0.4619l0 -0.3971 0.6354 0 0 2.5427c0,0.334 -0.0247,0.5837 -0.0752,0.7494 -0.0493,0.1658 -0.1195,0.295 -0.2096,0.3897 -0.0908,0.0939 -0.2112,0.1677 -0.3614,0.2214 -0.1511,0.0528 -0.3418,0.0802 -0.5722,0.0802 -0.4357,0 -0.7445,-0.083 -0.926,-0.2469 -0.1823,-0.1648 -0.2733,-0.3734 -0.2733,-0.6257 0,-0.0254 0.001,-0.0554 0.0024,-0.091zm0.6068 -1.662c0,0.3005 0.0528,0.521 0.1585,0.6603 0.1058,0.1393 0.2352,0.2094 0.3904,0.2094 0.1659,0 0.3062,-0.0719 0.421,-0.2148 0.1139,-0.1431 0.1719,-0.3553 0.1719,-0.6368 0,-0.293 -0.0554,-0.5109 -0.1653,-0.6528 -0.1089,-0.1431 -0.2478,-0.2141 -0.4151,-0.2141 -0.1637,0 -0.2971,0.0701 -0.4029,0.2096 -0.1057,0.1401 -0.1585,0.3522 -0.1585,0.6392zm-17.4577 7.5797l-1.0352 -2.833 0.7132 0 0.4838 1.4461 0.1402 0.4826c0.037,-0.1229 0.0611,-0.204 0.0703,-0.2431 0.0231,-0.0801 0.0469,-0.1603 0.0726,-0.2395l0.4885 -1.4461 0.6992 0 -1.021 2.833 -0.6116 0zm2.0487 -3.2173l0 -0.6941 0.6793 0 0 0.6941 -0.6793 0zm0 3.2173l0 -2.833 0.6793 0 0 2.833 -0.6793 0zm2.0264 0l-0.6792 0 0 -2.833 0.6304 0 0 0.4024c0.1082,-0.1903 0.2055,-0.3159 0.2914,-0.376 0.0867,-0.0602 0.1841,-0.0913 0.2939,-0.0913 0.1552,0 0.3037,0.0474 0.4473,0.1422l-0.2106 0.653c-0.1138,-0.0811 -0.2202,-0.1221 -0.3185,-0.1221 -0.0957,0 -0.1758,0.0283 -0.2419,0.0865 -0.0667,0.0573 -0.1181,0.1622 -0.156,0.3134 -0.0377,0.1511 -0.0568,0.4679 -0.0568,0.9498l0 0.8751zm2.7635 -0.9015l0.6778 0.1247c-0.0875,0.2742 -0.2245,0.4826 -0.4128,0.6257 -0.1874,0.1438 -0.4227,0.2148 -0.7049,0.2148 -0.4466,0 -0.7768,-0.1601 -0.9914,-0.4826 -0.1693,-0.2577 -0.2541,-0.5837 -0.2541,-0.9763 0,-0.4698 0.1112,-0.8378 0.334,-1.1038 0.2221,-0.2659 0.5038,-0.3989 0.8438,-0.3989 0.3822,0 0.6835,0.1394 0.9046,0.4183 0.2204,0.2786 0.3263,0.7046 0.3171,1.2794l-1.7029 0c0.0047,0.2221 0.0594,0.3951 0.1644,0.5182 0.1046,0.1238 0.2359,0.1858 0.392,0.1858 0.1063,0 0.1955,-0.0319 0.2681,-0.0957 0.0726,-0.0646 0.128,-0.1677 0.1643,-0.3096zm0.0387 -0.7577c-0.0048,-0.2176 -0.055,-0.3824 -0.1516,-0.4953 -0.0967,-0.113 -0.2148,-0.1695 -0.3534,-0.1695 -0.1486,0 -0.2709,0.0601 -0.3673,0.1794 -0.0967,0.1183 -0.1446,0.2805 -0.1429,0.4854l1.0152 0zm1.1778 -1.1738l0.6266 0 0 0.3861c0.2238,-0.3006 0.4913,-0.451 0.8007,-0.451 0.1643,0 0.3071,0.0375 0.4276,0.1122 0.1214,0.0745 0.2204,0.1875 0.298,0.3388 0.1122,-0.1513 0.2346,-0.2643 0.365,-0.3388 0.1301,-0.0747 0.2697,-0.1122 0.4182,-0.1122 0.1884,0 0.3487,0.0429 0.479,0.1276 0.1302,0.0839 0.2278,0.2086 0.2921,0.3715 0.0472,0.1212 0.0703,0.3171 0.0703,0.5875l0 1.8113 -0.6794 0 0 -1.6191c0,-0.2815 -0.0232,-0.4626 -0.0703,-0.5446 -0.0625,-0.1066 -0.1591,-0.1603 -0.2897,-0.1603 -0.0958,0 -0.1849,0.0318 -0.269,0.0966 -0.0835,0.0637 -0.1436,0.1575 -0.1809,0.2813 -0.0372,0.1237 -0.0561,0.3187 -0.0561,0.5856l0 1.3605 -0.6794 0 0 -1.5526c0,-0.2761 -0.0123,-0.4536 -0.0363,-0.5338 -0.0238,-0.0802 -0.0618,-0.1393 -0.1123,-0.1785 -0.0509,-0.0391 -0.1195,-0.0591 -0.2072,-0.0591 -0.1047,0 -0.1987,0.0308 -0.2822,0.0938 -0.0841,0.062 -0.1445,0.1521 -0.1808,0.2695 -0.0363,0.1176 -0.0545,0.3114 -0.0545,0.5837l0 1.377 -0.6794 0 0 -2.833zm5.9417 1.9315l0.6776 0.1247c-0.0875,0.2742 -0.2244,0.4826 -0.4126,0.6257 -0.1874,0.1438 -0.4227,0.2148 -0.7051,0.2148 -0.4465,0 -0.7766,-0.1601 -0.9911,-0.4826 -0.1693,-0.2577 -0.2544,-0.5837 -0.2544,-0.9763 0,-0.4698 0.1113,-0.8378 0.3343,-1.1038 0.2218,-0.2659 0.5036,-0.3989 0.8435,-0.3989 0.3824,0 0.6837,0.1394 0.9048,0.4183 0.2202,0.2786 0.3261,0.7046 0.3169,1.2794l-1.7029 0c0.005,0.2221 0.0594,0.3951 0.1644,0.5182 0.1046,0.1238 0.2362,0.1858 0.392,0.1858 0.1066,0 0.1957,-0.0319 0.2683,-0.0957 0.0726,-0.0646 0.128,-0.1677 0.1643,-0.3096zm0.0387 -0.7577c-0.005,-0.2176 -0.0552,-0.3824 -0.1518,-0.4953 -0.0965,-0.113 -0.2148,-0.1695 -0.3534,-0.1695 -0.1486,0 -0.2707,0.0601 -0.3673,0.1794 -0.0967,0.1183 -0.1446,0.2805 -0.1427,0.4854l1.0152 0zm3.5651 1.6592l-0.6792 0 0 -1.4461c0,-0.306 -0.0151,-0.5036 -0.0439,-0.5939 -0.029,-0.0891 -0.0768,-0.1593 -0.1421,-0.2093 -0.0651,-0.0493 -0.1436,-0.0747 -0.2351,-0.0747 -0.1181,0 -0.2237,0.0356 -0.3171,0.1065 -0.0931,0.0719 -0.1577,0.1658 -0.1923,0.2832 -0.0347,0.1176 -0.0519,0.3343 -0.0519,0.6511l0 1.2832 -0.6792 0 0 -2.833 0.6304 0 0 0.4161c0.2247,-0.3207 0.5069,-0.481 0.8468,-0.481 0.1495,0 0.2874,0.0302 0.4112,0.0894 0.1237,0.0601 0.2181,0.1358 0.2815,0.2287 0.0636,0.0929 0.1082,0.1975 0.1329,0.3149 0.0257,0.1174 0.038,0.2851 0.038,0.5036l0 1.7613zm1.8662 -2.833l0 0.5974 -0.4639 0 0 1.142c0,0.2312 0.0042,0.3661 0.0132,0.4043 0.0092,0.0382 0.0287,0.0691 0.0603,0.0948 0.0314,0.0245 0.0703,0.0372 0.1146,0.0372 0.0637,0 0.1544,-0.0245 0.2742,-0.0719l0.0577 0.5809c-0.1586,0.0747 -0.3366,0.112 -0.5375,0.112 -0.1219,0 -0.2327,-0.0226 -0.331,-0.0672 -0.0981,-0.0457 -0.1697,-0.1049 -0.2162,-0.1768 -0.0462,-0.0719 -0.0775,-0.1693 -0.0957,-0.2924 -0.0141,-0.0865 -0.0214,-0.2631 -0.0214,-0.528l0 -1.2349 -0.3119 0 0 -0.5974 0.3119 0 0 -0.5637 0.6818 -0.4374 0 1.0011 0.4639 0z"/>
  <path class="fil2" d="M10.0319 20.6433c1.5385,0.5995 2.6286,2.0951 2.6286,3.8454 0,1.7502 -1.0901,3.2459 -2.6286,3.8452l0 -7.6906z"/>
  <path class="fil3" d="M7.1 20.6195l0 7.7382c-1.5713,-0.5828 -2.6909,-2.0954 -2.6909,-3.869 0,-1.7736 1.1196,-3.2865 2.6909,-3.8692z"/>
  <path class="fil4" d="M8.5348 20.363c0.5281,0 1.0331,0.0994 1.4971,0.2803l0 7.6906c-0.464,0.1808 -0.969,0.2803 -1.4971,0.2803 -0.5045,0 -0.988,-0.0906 -1.4348,-0.2565l0 -7.7382c0.4468,-0.166 0.9303,-0.2565 1.4348,-0.2565z"/>
  <g id="_493821672">
   <path id="_301131784" class="fil5 str1" d="M8.5605 10.1859l35.4303 0 0 14.3466 -31.3307 0 0.0004 -0.0438c0,-2.2696 -1.8332,-4.1116 -4.1,-4.1255l0 -10.1773z"/>
   <path id="_301095496" class="fil5 str1" d="M8.5348 20.3632c2.2786,0 4.1257,1.8471 4.1257,4.1255 0,2.2783 -1.8471,4.1255 -4.1257,4.1255 -2.2786,0 -4.1257,-1.8472 -4.1257,-4.1255 0,-2.2784 1.8471,-4.1255 4.1257,-4.1255z"/>
  </g>
 </g>
</svg>
