<?xml version="1.0" encoding="UTF-8"?>
<!DOCTYPE svg PUBLIC "-//W3C//DTD SVG 1.1//EN" "http://www.w3.org/Graphics/SVG/1.1/DTD/svg11.dtd">
<!-- Creator: CorelDRAW -->
<svg xmlns="http://www.w3.org/2000/svg" xml:space="preserve" width="31.75mm" height="21.167mm" style="shape-rendering:geometricPrecision; text-rendering:geometricPrecision; image-rendering:optimizeQuality; fill-rule:evenodd; clip-rule:evenodd"
viewBox="0 0 31.75 21.167"
 xmlns:xlink="http://www.w3.org/1999/xlink">
 <defs>
  <style type="text/css">
   <![CDATA[
    .str0 {stroke:#C5C6C6;stroke-width:0.0762}
    .fil0 {fill:none}
    .fil1 {fill:white}
    .fil2 {fill:#7ABA05;fill-rule:nonzero}
    .fil3 {fill:#FEFEFE;fill-rule:nonzero}
   ]]>
  </style>
 </defs>
 <g id="Layer_x0020_1">
  <metadata id="CorelCorpID_0Corel-Layer"/>
  <g>
   <path class="fil0 str0" d="M1.0583 0.0002l29.6334 0c0.5843,0 1.0582,0.4739 1.0582,1.0583l0.0001 19.05c-0.0001,0.5842 -0.474,1.0581 -1.0584,1.0581l-29.6333 0.0002c-0.5843,-0.0002 -1.0582,-0.4741 -1.0582,-1.0585l-0.0001 -19.0498c0.0001,-0.5844 0.474,-1.0583 1.0584,-1.0583z"/>
   <path id="1" class="fil1" d="M1.0583 0.0002l29.6334 0c0.5843,0 1.0582,0.4739 1.0582,1.0583l0.0001 19.05c-0.0001,0.5842 -0.474,1.0581 -1.0584,1.0581l-29.6333 0.0002c-0.5843,-0.0002 -1.0582,-0.4741 -1.0582,-1.0585l-0.0001 -19.0498c0.0001,-0.5844 0.474,-1.0583 1.0584,-1.0583z"/>
  </g>
  <g>
   <path class="fil2" d="M15.8745 16.6703c-3.0127,0 -5.7839,-0.5621 -7.8042,-1.5838 -2.1847,-1.1037 -3.4374,-2.7042 -3.4374,-4.5016 0,-1.6789 1.2513,-3.2342 3.429,-4.3805 2.0942,-1.1019 4.8686,-1.7077 7.8126,-1.7077 3.0118,0 5.7835,0.5622 7.806,1.5853 2.1844,1.1048 3.4366,2.7033 3.4366,4.5029 0,1.6772 -1.2502,3.2316 -3.4293,4.3789 -2.0938,1.1011 -4.8688,1.7065 -7.8133,1.7065z"/>
   <path class="fil3" d="M25.5247 11.6746c-0.0809,-0.0741 -0.206,-0.0692 -0.2796,0.0109 -0.1067,0.1158 -0.251,0.17 -0.3953,0.1503 -0.1542,-0.0241 -0.2885,-0.1315 -0.3753,-0.3058 -0.019,-0.0401 -0.0352,-0.0801 -0.0512,-0.1217 0.067,-0.2442 0.0783,-0.4815 0.0783,-0.6267 0,-0.5696 -0.1273,-0.6481 -0.2662,-0.6481 -0.066,0 -0.1387,0.0331 -0.1967,0.1181 -0.2809,-0.1385 -0.5896,-0.1595 -0.8635,-0.0363 -0.3161,0.1419 -0.5535,0.4487 -0.6195,0.7995 -0.0405,0.2192 -0.0322,0.4263 0.0232,0.6092 -0.2288,0.2031 -0.5425,0.2677 -0.771,0.1746 -0.0461,-0.0175 -0.0902,-0.0431 -0.135,-0.0748 0.2342,-0.7201 0.3081,-1.6508 0.2103,-2.7022 -0.081,-0.8612 -0.332,-1.3528 -0.6891,-1.3528 -0.005,0 -0.0097,0.001 -0.0137,0.001 -0.3614,0.0123 -0.5826,0.519 -0.6068,1.3928 -0.0368,1.2946 0.193,2.2655 0.6387,2.7766 -0.1045,0.2551 -0.2348,0.4688 -0.389,0.6376 -0.2487,0.2741 -0.5501,0.413 -0.8944,0.413 -0.3482,0 -0.6622,-0.1434 -0.908,-0.4145 -0.1346,-0.1498 -0.2739,-0.3635 -0.385,-0.6679 0.4255,-0.4835 0.7087,-1.3566 0.7694,-2.485 0.0481,-0.8919 -0.1791,-1.5099 -0.5654,-1.5392 -0.3986,-0.0307 -0.6775,0.5447 -0.7843,1.6171 -0.0981,1.0103 -0.0242,1.752 0.1286,2.2952 -0.1249,0.0915 -0.2599,0.1403 -0.4012,0.1403 -0.2358,0 -0.439,-0.0984 -0.5704,-0.2988 -0.0663,-0.1025 -0.1164,-0.2202 -0.1495,-0.3436 0.0553,-0.2406 0.0782,-0.4799 0.0782,-0.6581 0,-0.1433 0,-0.5236 -0.2696,-0.5236 -0.1953,0 -0.2805,0.1915 -0.2805,0.6216 0,0.132 0.0112,0.3404 0.0636,0.5656 -0.0447,0.1595 -0.1068,0.3135 -0.1913,0.4359 -0.1045,0.1507 -0.2209,0.2247 -0.3601,0.2247 -0.1635,0 -0.2829,-0.0639 -0.3768,-0.1997 -0.0509,-0.0731 -0.0885,-0.1615 -0.1187,-0.256 0.0695,-0.2581 0.0822,-0.5087 0.0822,-0.6576 0,-0.4515 -0.0865,-0.6533 -0.2803,-0.6533 -0.0957,0 -0.2721,0 -0.2721,0.7218 0,0.2222 0.0247,0.4584 0.0721,0.6132 -0.063,0.2117 -0.2449,0.4163 -0.493,0.4163 -0.3966,0 -0.4832,-0.3943 -0.5039,-0.5637 -0.0321,-0.294 -0.009,-0.5059 0.0064,-0.6469 0.0182,-0.153 0.0306,-0.286 -0.0767,-0.38 -0.1049,-0.0925 -0.2404,-0.0587 -0.2832,-0.0476 -0.2886,0.0726 -0.5408,0.0627 -0.7154,0.0284 -0.0348,-0.0962 -0.0755,-0.1741 -0.1199,-0.2246 -0.1018,-0.1144 -0.2489,-0.1354 -0.3653,-0.0558 -0.161,0.1121 -0.1651,0.2688 -0.1202,0.3691 0.0432,0.0945 0.1422,0.1703 0.2766,0.2275 0.0489,0.3161 0.0365,0.819 -0.2142,1.1086 -0.111,0.1278 -0.273,0.1963 -0.4326,0.1766 -0.1592,-0.0214 -0.2902,-0.1262 -0.3779,-0.3058 -0.0198,-0.0401 -0.0367,-0.0801 -0.0518,-0.1217 0.0659,-0.2442 0.0789,-0.4815 0.0789,-0.6263 0,-0.569 -0.1281,-0.6485 -0.2671,-0.6485 -0.0693,0 -0.1431,0.0409 -0.1958,0.1181 -0.286,-0.1385 -0.5894,-0.1595 -0.864,-0.0363 -0.3169,0.1419 -0.5535,0.4487 -0.6194,0.7995 -0.0414,0.223 -0.0322,0.4334 0.0255,0.6182 0.0105,0.0355 0.0253,0.0699 0.0404,0.1041 -0.2184,0.354 -0.7748,0.615 -1.2811,0.615 -0.6211,0 -1.0731,-0.2819 -1.3316,-0.8241 -0.3228,-0.6796 -0.2429,-1.5788 0.235,-2.165 0.4687,-0.5758 1.0688,-0.7123 1.4716,-0.595 0.158,0.0457 0.4304,0.1753 0.4707,0.5261 0.0315,0.2633 -0.0936,0.5657 -0.303,0.7373 -0.0858,0.07 -0.1003,0.1958 -0.0295,0.2819 0.0702,0.0861 0.196,0.0991 0.2832,0.0296 0.3149,-0.2566 0.4968,-0.6972 0.4494,-1.0958 -0.0486,-0.4178 -0.334,-0.7407 -0.7588,-0.865 -0.5437,-0.1582 -1.3082,0.0043 -1.8958,0.7276 -0.5804,0.7109 -0.7102,1.7774 -0.3174,2.6033 0.323,0.6802 0.9521,1.0697 1.7262,1.0697 0.6046,0 1.2061,-0.2955 1.5225,-0.7178 0.1534,0.132 0.3479,0.205 0.554,0.205 0.3361,0 0.6097,-0.1385 0.7995,-0.4043 0.1468,0.2056 0.3497,0.3318 0.5862,0.3626 0.2929,0.0382 0.5838,-0.0812 0.7814,-0.3097 0.2847,-0.3293 0.3617,-0.8495 0.325,-1.2729 0.1665,0.0161 0.3471,0.0121 0.5285,-0.0148 0.0481,-0.007 0.0671,0.0068 0.0607,0.0544 -0.013,0.153 -0.0251,0.3635 0.0064,0.64 0.0637,0.5634 0.4061,0.9148 0.8965,0.9148 0.2852,0 0.5081,-0.1254 0.6785,-0.3631 0.1673,0.2482 0.4088,0.3787 0.7081,0.3787 0.2278,0 0.5332,-0.0953 0.7634,-0.523 0.2059,0.3273 0.5352,0.4993 0.9162,0.4993 0.1897,0 0.3691,-0.0534 0.5346,-0.1527 0.124,0.2921 0.2692,0.5059 0.4102,0.6614 0.323,0.3568 0.7375,0.5455 1.2011,0.5455 0.454,0 0.8649,-0.1869 1.1875,-0.5427 0.1602,-0.1741 0.2979,-0.3913 0.4112,-0.6414 0.0425,0.0241 0.0856,0.0455 0.1304,0.0642 0.3525,0.1428 0.7723,0.0662 1.0996,-0.2046 0.1642,0.1966 0.4039,0.3083 0.659,0.3083 0.3379,0 0.6121,-0.1385 0.8002,-0.4053 0.1442,0.2003 0.3479,0.33 0.5777,0.3627 0.2702,0.0391 0.5481,-0.0626 0.7415,-0.2725 0.0742,-0.0802 0.0689,-0.2064 -0.0113,-0.2802zm-14.3099 -0.0478l0 0c-0.1141,0.1675 -0.2733,0.2478 -0.4822,0.2478 -0.1395,0 -0.266,-0.0602 -0.3558,-0.1673 -0.1222,-0.147 -0.164,-0.3675 -0.1164,-0.619 0.0428,-0.2262 0.1938,-0.4223 0.3928,-0.5119 0.0791,-0.0363 0.1616,-0.0524 0.2452,-0.0524 0.1179,0 0.2414,0.0335 0.3649,0.1004 -0.0225,0.225 -0.0124,0.5113 0.0607,0.7827 -0.027,0.08 -0.0634,0.1542 -0.1092,0.2197zm7.2364 -2.188l0 0c0.0687,-0.703 0.1937,-1.021 0.2822,-1.1587 0.0451,-0.0738 0.1121,-0.07 0.1503,0.0067 0.0749,0.155 0.1555,0.4798 0.1256,1.0147 -0.0474,0.8783 -0.2331,1.589 -0.5067,2.0314 -0.0965,-0.4691 -0.1316,-1.0853 -0.0514,-1.8941zm2.9159 1.9308l0 0c-0.2507,-0.4258 -0.429,-1.1641 -0.3982,-2.2957 0.0129,-0.4824 0.0875,-0.7521 0.1515,-0.8895 0.0388,-0.0807 0.1081,-0.083 0.1526,-0.0079 0.0739,0.1343 0.1695,0.4004 0.2152,0.8818 0.0845,0.8909 0.0394,1.6816 -0.1211,2.3113zm2.5323 0.2572l0 0c-0.113,0.1675 -0.2712,0.2478 -0.4828,0.2478 -0.139,0 -0.265,-0.0602 -0.3555,-0.1673 -0.1221,-0.147 -0.1638,-0.3675 -0.1164,-0.619 0.0428,-0.2262 0.1943,-0.4223 0.3943,-0.5119 0.0776,-0.0363 0.1601,-0.0524 0.2454,-0.0524 0.118,0 0.2387,0.0335 0.3634,0.1004 -0.0232,0.225 -0.0106,0.5113 0.0621,0.7827 -0.0286,0.08 -0.0644,0.1542 -0.1105,0.2197z"/>
  </g>
 </g>
</svg>
