<svg id="Ebene_1" data-name="Ebene 1" xmlns="http://www.w3.org/2000/svg" viewBox="0 0 119.88 79.92"><title>coinbase_wout_border</title><g id="Layer_1"><path d="M4.06,0.08H115.94a4,4,0,0,1,4,4V76a4,4,0,0,1-4,4H4.06a4,4,0,0,1-4-4V4.08A4,4,0,0,1,4.06.08Z" transform="translate(-0.06 -0.08)" style="fill:#fff"/><g id="_252672992" data-name=" 252672992"><path id="_252509248" data-name=" 252509248" d="M6.64,45.92c0-.41,0-0.82,0-1.22a0.69,0.69,0,0,0-.19-0.43,2.13,2.13,0,0,1-.82-1.86,9.2,9.2,0,0,0,0-1.52,2,2,0,0,1,.85-1.79,0.37,0.37,0,0,0,.14-0.55,0.9,0.9,0,0,1-.09-0.43,21.3,21.3,0,0,1,0-2.37,2.23,2.23,0,0,1,.52-1.1,4.36,4.36,0,0,1,2.09-1.28,12.63,12.63,0,0,1,8.95.24,5.1,5.1,0,0,1,1.08.64,2.06,2.06,0,0,1,1,1.93,9,9,0,0,0,0,1.56,2,2,0,0,1-.84,1.8,0.38,0.38,0,0,0-.14.56,1.29,1.29,0,0,1,.09.54c0,0.78,0,1.56,0,2.34a0.61,0.61,0,0,0,.18.4,2.16,2.16,0,0,1,.84,1.88,9.4,9.4,0,0,0,0,1.52,2,2,0,0,1-.82,1.77,6.38,6.38,0,0,1-2.66,1.27,12.79,12.79,0,0,1-7.7-.33A7.82,7.82,0,0,1,7.33,48.4a1.66,1.66,0,0,1-.69-1.56c0-.31,0-0.62,0-0.93h0Zm7-8.29h0c0.49-.06,1.31-0.11,2.12-0.26a5.2,5.2,0,0,0,2.48-1,1,1,0,0,0,0-1.8,5.15,5.15,0,0,0-1.47-.75,12,12,0,0,0-6.33-.17,4.28,4.28,0,0,0-2.21,1.07,1,1,0,0,0,0,1.5,3.72,3.72,0,0,0,1,.65A11.18,11.18,0,0,0,13.66,37.62ZM7.35,39.53h0A0.92,0.92,0,0,0,7.44,41a4.93,4.93,0,0,0,1.48.81,11.74,11.74,0,0,0,7.18,0,6.21,6.21,0,0,0,1.43-.82,1.45,1.45,0,0,0,.3-0.45l-0.08-.07a12.61,12.61,0,0,1-5.32.71A9.29,9.29,0,0,1,7.35,39.53Zm1.45,6h0l0,0.09c0.32,0.15.63,0.32,1,.44a11.42,11.42,0,0,0,4.82.55,8,8,0,0,0,3.08-.73A4.06,4.06,0,0,0,18.67,45a0.68,0.68,0,0,0,.07-0.93C15.66,46.29,12.27,46.19,8.79,45.49Z" transform="translate(-0.06 -0.08)" style="fill:#0080c8"/><path id="_252673112" data-name=" 252673112" d="M32.77,47.85c-2.68,0-5.3-1.92-5.3-6.28s2.61-6.26,5.3-6.26a5.49,5.49,0,0,1,3.08.83L35,37.91a3.47,3.47,0,0,0-2-.58c-1.61,0-3.08,1.27-3.08,4.22s1.52,4.25,3.08,4.25a3.47,3.47,0,0,0,2-.58L35.85,47A5.37,5.37,0,0,1,32.77,47.85Zm9.79,0c-3.42,0-5.29-2.7-5.29-6.28s1.88-6.26,5.29-6.26,5.3,2.68,5.3,6.26S46,47.85,42.56,47.85Zm0-10.59h0c-1.9,0-2.84,1.7-2.84,4.29s0.94,4.31,2.84,4.31,2.84-1.72,2.84-4.31S44.46,37.26,42.56,37.26Zm9.15-3.89A1.39,1.39,0,1,1,53.16,32,1.42,1.42,0,0,1,51.7,33.37Zm-1.23,2.19h2.46v12H50.48v-12Zm12.7,12v-8c0-1.41-.85-2.28-2.52-2.28a6.33,6.33,0,0,0-2.21.36v10H56V36.16a12.21,12.21,0,0,1,4.62-.85c3.37,0,5,1.48,5,4V47.6H63.17Zm9.5,0.25a9.71,9.71,0,0,1-4-.85V30.07h2.44v5.81a6.16,6.16,0,0,1,2.35-.49c3.11,0,5.21,2.23,5.21,5.92C78.62,45.84,76.27,47.85,72.68,47.85ZM73,37.28h0a4.6,4.6,0,0,0-1.92.4v7.91a4.85,4.85,0,0,0,1.74.31c1.94,0,3.37-1.34,3.37-4.42,0-2.64-1.25-4.2-3.19-4.2h0ZM86.1,47.85c-3.46,0-5.21-1.41-5.21-3.78,0-3.35,3.57-4,7.22-4.16V39.16c0-1.52-1-2.06-2.55-2.06a8.79,8.79,0,0,0-3.33.74l-0.63-1.68a11.24,11.24,0,0,1,4.2-.85c2.88,0,4.63,1.12,4.63,4.09V47a10.46,10.46,0,0,1-4.33.85h0Zm2-6.3h0c-2.46.13-4.92,0.33-4.92,2.48,0,1.27,1,2.06,2.84,2.06a6.15,6.15,0,0,0,2.08-.31V41.55Zm8.39,6.3A8.62,8.62,0,0,1,92.75,47l0.83-1.88a6.68,6.68,0,0,0,2.86.78c1.32,0,2.19-.65,2.19-1.65s-0.92-1.52-2.14-2c-1.61-.6-3.42-1.34-3.42-3.6,0-2,1.54-3.37,4.22-3.37a7.06,7.06,0,0,1,3.51.85L100,37.86a5.41,5.41,0,0,0-2.48-.72c-1.27,0-2,.67-2,1.54,0,1.09.89,1.47,2.08,1.92,1.68,0.63,3.53,1.32,3.53,3.66,0,2.17-1.65,3.57-4.67,3.57h0Zm17.12-6.32-8,1.12a3.4,3.4,0,0,0,3.69,3.26,7.54,7.54,0,0,0,3.33-.74L113.35,47a9.82,9.82,0,0,1-4.2.85c-3.8,0-5.92-2.44-5.92-6.28,0-3.69,2.06-6.26,5.43-6.26,3.13,0,5,2.06,5,5.29C113.64,40.9,113.64,41.21,113.62,41.53Zm-5-4.42h0c-1.88,0-3.11,1.43-3.15,3.93l5.83-.8C111.28,38.13,110.23,37.1,108.62,37.1Z" transform="translate(-0.06 -0.08)" style="fill:#87888a"/></g></g></svg>