<svg id="logos" xmlns="http://www.w3.org/2000/svg" viewBox="0 0 300 130"><defs><style>.cls-1{fill:#005776;}.cls-2{fill:#00bef0;}</style></defs><g id="Artboard"><g id="nets_logo" data-name="nets logo"><g id="Group"><path id="Path" class="cls-1" d="M66.77,87.35a.72.72,0,0,1-.79-.79V53.86a1,1,0,0,1,.56-1,35.1,35.1,0,0,1,13.54-2.76C89.53,50.11,96,54.55,96,65.34V86.56c0,.5-.29.79-.85.79H91a.72.72,0,0,1-.79-.79V65.48c0-7.32-3.75-10.14-10.09-10.14a28.11,28.11,0,0,0-8.31,1.28v30a.74.74,0,0,1-.84.79H66.77Z"/><path id="Shape" class="cls-1" d="M133.75,71.07a.74.74,0,0,1-.79.84H109.91v3c0,5.3,4,8.12,9.16,8.12a16.57,16.57,0,0,0,10.78-4,.76.76,0,0,1,1.14.21l2,2.67a.7.7,0,0,1-.14,1.13,21,21,0,0,1-14,5.09c-7.61,0-14.88-4.36-14.88-13.26V64.15c0-9.65,7.18-14,14.94-14s14.74,4.36,14.74,14v6.92ZM119,55.34c-5.29,0-9.1,2.76-9.1,8.81v3h18.2v-3C128.11,58.16,124.16,55.34,119,55.34Z"/><path id="Path-2" data-name="Path" class="cls-1" d="M154.19,82.78c.78,0,2.12-.06,3.37-.14a.73.73,0,0,1,.84.78v3.75a.75.75,0,0,1-.7.84c-1.28.06-2.87.15-3.8.15-7.07,0-12.27-3.81-12.27-12.47V42.84a.76.76,0,0,1,.84-.85h3.66c.44,0,.7.3.79.79l.49,8.52h9.16a.72.72,0,0,1,.79.78v3.49a.74.74,0,0,1-.79.84h-9.16v19C147.41,80,149.83,82.78,154.19,82.78Z"/><path id="Path-3" data-name="Path" class="cls-1" d="M176.4,88.13a23.51,23.51,0,0,1-14-4.5.79.79,0,0,1-.2-1.14l1.89-3.25c.29-.5.64-.56,1.13-.21a18.81,18.81,0,0,0,11.28,4c4.71,0,8.32-2,8.32-5.64,0-4-4.36-4.86-8.32-5.64-5.09-1-13.75-3-13.75-11.23,0-7.18,6.83-10.37,13.9-10.37A24.29,24.29,0,0,1,189,53.42a.65.65,0,0,1,.29,1l-1.89,3.16a.68.68,0,0,1-1.05.3,21.19,21.19,0,0,0-9.88-2.62c-5,0-7.91,2-7.91,5.14,0,3.87,4.16,5,9.16,5.94,5.64,1.13,13,2.76,13,10.64C190.7,84.26,184.65,88.13,176.4,88.13Z"/></g><g id="Group-2" data-name="Group"><circle id="Oval" class="cls-2" cx="209.42" cy="47.2" r="8.2"/><circle id="Oval-2" data-name="Oval" class="cls-2" cx="226.81" cy="47.2" r="5.26"/><circle id="Oval-3" data-name="Oval" class="cls-2" cx="226.81" cy="64.55" r="7.21"/><circle id="Oval-4" data-name="Oval" class="cls-2" cx="209.42" cy="81.91" r="6.22"/></g></g></g></svg>