<?xml version="1.0" encoding="UTF-8"?>
<!DOCTYPE svg PUBLIC "-//W3C//DTD SVG 1.1//EN" "http://www.w3.org/Graphics/SVG/1.1/DTD/svg11.dtd">
<!-- Creator: CorelDRAW -->
<svg xmlns="http://www.w3.org/2000/svg" xml:space="preserve" width="31.75mm" height="21.167mm" style="shape-rendering:geometricPrecision; text-rendering:geometricPrecision; image-rendering:optimizeQuality; fill-rule:evenodd; clip-rule:evenodd"
viewBox="0 0 31.75 21.167"
 xmlns:xlink="http://www.w3.org/1999/xlink">
 <defs>
  <style type="text/css">
   <![CDATA[
    .str0 {stroke:#C5C6C6;stroke-width:0.0762}
    .fil0 {fill:none}
    .fil4 {fill:#FEFEFE}
    .fil1 {fill:white}
    .fil2 {fill:#095EA2}
    .fil3 {fill:#F8A728}
   ]]>
  </style>
 </defs>
 <g id="Layer_x0020_1">
  <metadata id="CorelCorpID_0Corel-Layer"/>
  <g>
   <path class="fil0 str0" d="M1.0583 0.0002l29.6334 0c0.5843,0 1.0582,0.4739 1.0582,1.0583l0.0001 19.05c-0.0001,0.5842 -0.474,1.0581 -1.0584,1.0581l-29.6333 0.0002c-0.5843,-0.0002 -1.0582,-0.4741 -1.0582,-1.0585l-0.0001 -19.0498c0.0001,-0.5844 0.474,-1.0583 1.0584,-1.0583z"/>
   <path id="1" class="fil1" d="M1.0583 0.0002l29.6334 0c0.5843,0 1.0582,0.4739 1.0582,1.0583l0.0001 19.05c-0.0001,0.5842 -0.474,1.0581 -1.0584,1.0581l-29.6333 0.0002c-0.5843,-0.0002 -1.0582,-0.4741 -1.0582,-1.0585l-0.0001 -19.0498c0.0001,-0.5844 0.474,-1.0583 1.0584,-1.0583z"/>
  </g>
  <path class="fil2" d="M28.897 14.9578l0.0078 3.7525 -26.0248 0 -0.035 -16.2507 1.1395 -0.0028 0 11.2341c0,0.6969 0.5651,1.2674 1.256,1.2674l23.6565 -0.0005z"/>
  <polygon class="fil2" points="12.7148,12.111 13.8684,4.9778 15.7128,4.9778 14.559,12.111 "/>
  <path class="fil2" d="M21.2452 5.1524c-0.3641,-0.1447 -0.9411,-0.3033 -1.6544,-0.3033 -1.8215,-0.0001 -3.1041,0.9713 -3.1117,2.3599 -0.0151,1.0241 0.9183,1.5936 1.6165,1.935 0.7136,0.3492 0.9563,0.5768 0.9563,0.888 -0.0076,0.4779 -0.5768,0.6981 -1.108,0.6981 -0.7361,0 -1.1309,-0.1139 -1.7304,-0.3794l-0.2429 -0.1142 -0.2578 1.601c0.4324,0.1977 1.2292,0.3723 2.0565,0.38 1.9354,-0.0001 3.1951,-0.9561 3.2103,-2.4359 0.0075,-0.812 -0.4858,-1.4343 -1.5483,-1.9427 -0.645,-0.3266 -1.0397,-0.5464 -1.0397,-0.8802 0.0076,-0.3042 0.3339,-0.6146 1.0625,-0.6146 0.5997,-0.0155 1.0397,0.1288 1.3737,0.2731l0.167 0.0755 0.2504 -1.5403z"/>
  <path class="fil2" d="M23.6966 9.584c0.1517,-0.4099 0.7361,-1.9956 0.7361,-1.9956 -0.0075,0.0153 0.1518,-0.4172 0.2428,-0.6829l0.1291 0.6143c0,0 0.349,1.7078 0.4249,2.0645 -0.2883,-0.0003 -1.1687,0 -1.5329,-0.0003zm2.2768 -4.6062l-1.4269 0c-0.4401,0 -0.7741,0.1292 -0.9638,0.592l-2.7396 6.5412 1.9351 0c0,0 0.3187,-0.88 0.387,-1.0697 0.2126,-0.0002 2.0947,0 2.3679,0 0.0532,0.2501 0.2201,1.0699 0.2201,1.0699l1.7077 -0.0002 -1.4875 -7.1332z"/>
  <path class="fil2" d="M11.1743 4.9778l-1.8063 4.8639 -0.1973 -0.9861c-0.3339,-1.1387 -1.3813,-2.3751 -2.5501,-2.9898l1.6545 6.2376 1.9505 0 2.899 -7.1256 -1.9503 0z"/>
  <path class="fil3" d="M7.6909 4.9778l-2.9676 0 -0.0303 0.1438c2.3148,0.5919 3.8477,2.0191 4.4776,3.7341l-0.6451 -3.2786c-0.1062,-0.4555 -0.4326,-0.5838 -0.8346,-0.5993z"/>
  <polygon class="fil0" points="2.845,2.4568 28.9048,2.4568 28.9048,18.7103 2.845,18.7103 "/>
  <path class="fil4" d="M13.5479 17.8361l0.3058 0 0.0002 -0.0021 0.807 -0.0047 0.0406 -0.3027 -0.8061 0.0047 0.0886 -0.6499 0.614 -0.0047 0.0404 -0.3028 -0.613 0.0048 0.0796 -0.5837 0.7808 -0.0048 0.0406 -0.3034 -1.0859 0.0062 -0.2926 2.1431zm2.9487 0l0.306 0 0.0001 -0.0021 0.807 -0.0047 0.0404 -0.3027 -0.806 0.0047 0.0887 -0.6499 0.614 -0.0047 0.0404 -0.3028 -0.613 0.0048 0.0796 -0.5837 0.7808 -0.0048 0.0404 -0.3034 -1.0859 0.0062 -0.2925 2.1431zm-1.4584 0l0.3058 0 0.0002 -0.0021 0.807 -0.0047 0.0406 -0.3027 -0.8062 0.0047 0.2832 -1.8445 -0.3381 0.0062 -0.2925 2.1431zm5.3405 0l0.306 0 0.0002 -0.0021 0.022 -0.0047 0.2338 -1.8343 0.67 -0.0048 0.0404 -0.3034 -1.5791 0.0062 -0.0407 0.302 0.6024 0 -0.255 1.8411zm1.3048 0l0.3058 -0.0068 0.0002 0 0.022 0 0.1125 -0.9063 0.1645 0 0.4935 0.9063 0.3307 0 -0.4838 -0.9056c0.6074,-0.15 0.7833,-1.2438 0.0244,-1.2365l-0.6508 0.0058 -0.319 2.1431zm0.483 -1.1769l0.3518 0c0.2812,0 0.4535,-0.701 0.1148,-0.7054l-0.376 -0.0052 -0.0906 0.7106zm2.4275 -1.0448c0.5134,0 0.8709,0.5088 0.7982,1.1354 -0.0726,0.626 -0.5479,1.1348 -1.0614,1.1348 -0.5135,-0.0002 -0.8711,-0.5083 -0.7985,-1.1348 0.0727,-0.6266 0.548,-1.135 1.0617,-1.1354zm-0.0366 0.2558c0.3715,0 0.6301,0.4263 0.5775,0.8796 -0.0524,0.4528 -0.4012,0.8789 -0.7726,0.8789 -0.3713,-0.0006 -0.6252,-0.4257 -0.5727,-0.8789 0.0525,-0.4534 0.3964,-0.879 0.7678,-0.8796zm1.119 1.9659l0.3057 -0.0068 0.0003 0 0.022 0 0.2349 -1.6563 0.804 1.6563 0.2552 0 0.2978 -2.1363 -0.289 0 -0.2432 1.5416 -0.7445 -1.5416 -0.2976 0 -0.3456 2.1431zm-6.5162 -2.2217c0.2318,0 0.433,0.0964 0.5803,0.256l-0.1639 0.2841c-0.1086,-0.1397 -0.2677,-0.2256 -0.4543,-0.2256 -0.3861,0 -0.7436,0.3676 -0.7982,0.8209 -0.0545,0.4528 0.2143,0.8207 0.6004,0.8207 0.1915,-0.0003 0.3757,-0.0902 0.5196,-0.2365l0.0001 0.3609c-0.1676,0.1194 -0.3599,0.1897 -0.5575,0.1897 -0.5337,-0.0002 -0.9056,-0.5083 -0.8301,-1.1348 0.0756,-0.6266 0.5697,-1.135 1.1036,-1.1354z"/>
 </g>
</svg>
