<?xml version="1.0" encoding="UTF-8"?>
<!DOCTYPE svg PUBLIC "-//W3C//DTD SVG 1.1//EN" "http://www.w3.org/Graphics/SVG/1.1/DTD/svg11.dtd">
<!-- Creator: CorelDRAW -->
<svg xmlns="http://www.w3.org/2000/svg" xml:space="preserve" width="31.75mm" height="21.167mm" style="shape-rendering:geometricPrecision; text-rendering:geometricPrecision; image-rendering:optimizeQuality; fill-rule:evenodd; clip-rule:evenodd"
viewBox="0 0 31.75 21.167"
 xmlns:xlink="http://www.w3.org/1999/xlink">
 <defs>
  <style type="text/css">
   <![CDATA[
    .str0 {stroke:#C5C6C6;stroke-width:0.0762}
    .fil0 {fill:none}
    .fil1 {fill:white}
    .fil2 {fill:#303A84;fill-rule:nonzero}
    .fil4 {fill:#E42D24;fill-rule:nonzero}
    .fil3 {fill:#FFE500;fill-rule:nonzero}
   ]]>
  </style>
 </defs>
 <g id="Layer_x0020_1">
  <metadata id="CorelCorpID_0Corel-Layer"/>
  <g>
   <path class="fil0 str0" d="M1.0583 0.0002l29.6334 0c0.5843,0 1.0582,0.4739 1.0582,1.0583l0.0001 19.05c-0.0001,0.5842 -0.474,1.0581 -1.0584,1.0581l-29.6333 0.0002c-0.5843,-0.0002 -1.0582,-0.4741 -1.0582,-1.0585l-0.0001 -19.0498c0.0001,-0.5844 0.474,-1.0583 1.0584,-1.0583z"/>
   <path id="1" class="fil1" d="M1.0583 0.0002l29.6334 0c0.5843,0 1.0582,0.4739 1.0582,1.0583l0.0001 19.05c-0.0001,0.5842 -0.474,1.0581 -1.0584,1.0581l-29.6333 0.0002c-0.5843,-0.0002 -1.0582,-0.4741 -1.0582,-1.0585l-0.0001 -19.0498c0.0001,-0.5844 0.474,-1.0583 1.0584,-1.0583z"/>
  </g>
  <g>
   <path class="fil2" d="M9.2691 4.7016c0.3465,-0.2503 5.0947,-1.8568 12.1888,-1.5884 0,0 0.509,0.0614 0.7237,0.5257l0.7226 1.5528c0,0 0.391,0.4994 -0.2075,0.5176 0,0 -5.3272,0.3228 -6.9942,0.6165 -1.6683,0.2936 -5.0779,1.1594 -5.0779,1.1594 0,0 -0.4901,0.1512 -0.7049,-0.1425l-0.7982 -2.1359c0,0 -0.2002,-0.2553 0.1476,-0.5052z"/>
   <path class="fil3" d="M6.8515 9.8175c0.3473,-0.2497 9.5435,-3.447 16.6381,-3.1674 0,0 0.348,-0.0172 0.5613,0.4475l0.7904 2.0622c0,0 0.2493,0.4914 -0.3836,0.6333 0,0 -7.1157,1.2907 -9.0867,1.8053 -2.6167,0.6479 -7.0804,2.1923 -7.0804,2.1923 0,0 -0.6167,0.2145 -0.9007,-0.3402l-0.7191 -2.6241c0,0 -0.1679,-0.7592 0.1807,-1.0089z"/>
   <path class="fil4" d="M13.236 13.1587c0.3479,-0.2502 3.0023,-1.1742 9.9796,-2.461 0,0 0.7413,-0.1608 0.9549,0.3039l0.9019 2.5876c0,0 0.2838,0.5912 -0.5386,0.9254 0,0 -2.8202,1.0812 -4.4237,1.6282 -1.8028,0.6148 -4.8534,1.8941 -4.8534,1.8941 0,0 -0.7583,0.2859 -1.0279,-0.5524l-1.225 -3.6564c0,0 -0.115,-0.4195 0.2322,-0.6694z"/>
  </g>
 </g>
</svg>
