<?xml version="1.0" encoding="UTF-8"?>
<!DOCTYPE svg PUBLIC "-//W3C//DTD SVG 1.1//EN" "http://www.w3.org/Graphics/SVG/1.1/DTD/svg11.dtd">
<!-- Creator: CorelDRAW -->
<svg xmlns="http://www.w3.org/2000/svg" xml:space="preserve" width="31.75mm" height="21.167mm" style="shape-rendering:geometricPrecision; text-rendering:geometricPrecision; image-rendering:optimizeQuality; fill-rule:evenodd; clip-rule:evenodd"
viewBox="0 0 31.75 21.167"
 xmlns:xlink="http://www.w3.org/1999/xlink">
 <defs>
  <style type="text/css">
   <![CDATA[
    .str0 {stroke:#C5C6C6;stroke-width:0.0762}
    .fil0 {fill:none}
    .fil2 {fill:#263551}
    .fil3 {fill:#DBCAA4}
    .fil4 {fill:#FAB633}
    .fil1 {fill:#263551;fill-rule:nonzero}
   ]]>
  </style>
 </defs>
 <g id="Layer_x0020_1">
  <metadata id="CorelCorpID_0Corel-Layer"/>
  <g>
   <path class="fil0 str0" d="M1.0583 0.0002l29.6334 0c0.5843,0 1.0582,0.4739 1.0582,1.0583l0.0001 19.05c-0.0001,0.5842 -0.474,1.0581 -1.0584,1.0581l-29.6333 0.0002c-0.5843,-0.0002 -1.0582,-0.4741 -1.0582,-1.0585l-0.0001 -19.0498c0.0001,-0.5844 0.474,-1.0583 1.0584,-1.0583z"/>
  </g>
  <g>
   <path class="fil1" d="M14.8764 10.654l-0.5343 -1.1725c-0.0511,-0.1146 -0.1113,-0.2152 -0.1806,-0.3026 -0.0684,-0.0866 -0.1484,-0.1542 -0.2399,-0.202l0 -0.0099c0.1072,-0.0231 0.2069,-0.0586 0.2993,-0.1047 0.0923,-0.0462 0.1739,-0.1064 0.244,-0.1789 0.0693,-0.0734 0.1245,-0.1609 0.1633,-0.2639 0.0396,-0.1031 0.0594,-0.2218 0.0602,-0.3579 0,-0.2127 -0.0495,-0.3966 -0.1476,-0.5524 -0.0973,-0.1558 -0.2432,-0.2762 -0.437,-0.362 -0.1938,-0.0849 -0.4345,-0.1286 -0.7215,-0.1294 -0.1245,0 -0.2473,0.0082 -0.3694,0.0239 -0.122,0.0148 -0.2383,0.0371 -0.3496,0.066 -0.1105,0.0288 -0.2102,0.0635 -0.3001,0.103l0 3.4433 0.5491 0 0 -1.5188 0.3166 0c0.1353,0.0008 0.2474,0.0346 0.3356,0.1022 0.0891,0.0668 0.16,0.1616 0.2136,0.2837l0.5046 1.1329 0.5937 0zm-0.7371 -2.5676c0,0.1525 -0.0322,0.2762 -0.0957,0.371 -0.0635,0.0948 -0.155,0.1641 -0.2754,0.2078 -0.1196,0.0437 -0.2647,0.0651 -0.4354,0.0643l-0.4205 0 0 -1.2071c0.0388,-0.0148 0.0833,-0.028 0.1353,-0.0396 0.0519,-0.0107 0.1072,-0.0189 0.1665,-0.0255 0.0586,-0.0058 0.1179,-0.0091 0.1781,-0.0091 0.1699,0 0.31,0.0264 0.4205,0.0775 0.1105,0.0511 0.1921,0.1245 0.2466,0.2193 0.0536,0.0948 0.08,0.2086 0.08,0.3414zm3.0497 2.4553l0 -1.7525c-0.0008,-0.2277 -0.0432,-0.4106 -0.1272,-0.549 -0.0839,-0.1391 -0.2043,-0.2396 -0.3612,-0.3023 -0.1568,-0.0619 -0.345,-0.0928 -0.5646,-0.092 -0.1229,0.0009 -0.2434,0.0103 -0.3621,0.0292 -0.1186,0.0189 -0.2289,0.043 -0.3306,0.0722 -0.1018,0.0301 -0.19,0.061 -0.2637,0.0945l0.1424 0.3866c0.0619,-0.0301 0.1357,-0.0576 0.2205,-0.0833 0.0848,-0.0258 0.1729,-0.0464 0.2662,-0.0619 0.0933,-0.0163 0.184,-0.0249 0.2713,-0.0249 0.1179,-0.0009 0.2196,0.0146 0.3061,0.0447 0.0873,0.0309 0.1543,0.0807 0.2018,0.1503 0.0475,0.0704 0.0712,0.1632 0.0721,0.2792l0 0.1752c-0.1671,0.0086 -0.3299,0.0232 -0.4893,0.043 -0.1594,0.0206 -0.3086,0.0516 -0.4476,0.0919 -0.1382,0.0404 -0.2612,0.0963 -0.3663,0.1658 -0.106,0.0696 -0.1891,0.1581 -0.2484,0.2655 -0.0602,0.1082 -0.0908,0.2388 -0.0916,0.3926 0,0.183 0.0441,0.3393 0.1322,0.4691 0.0882,0.1297 0.2197,0.2285 0.3951,0.2972 0.1756,0.0696 0.3952,0.1039 0.658,0.1048 0.1306,-0.0009 0.2578,-0.0094 0.3841,-0.0266 0.1255,-0.0172 0.2399,-0.0413 0.3451,-0.0705 0.1043,-0.0292 0.1899,-0.0627 0.2577,-0.0988zm-0.529 -0.2835c-0.0297,0.0138 -0.0704,0.0267 -0.1213,0.037 -0.0517,0.0111 -0.1077,0.0197 -0.1696,0.0257 -0.061,0.006 -0.1221,0.0095 -0.1823,0.0095 -0.2119,-0.0017 -0.3721,-0.0438 -0.4815,-0.1271 -0.1094,-0.0834 -0.1637,-0.1985 -0.1645,-0.3471 0.0008,-0.0988 0.0212,-0.1804 0.0627,-0.2466 0.0407,-0.0661 0.0975,-0.1194 0.1704,-0.1598 0.0721,-0.0403 0.156,-0.0713 0.2502,-0.0936 0.0949,-0.0223 0.1966,-0.0378 0.3044,-0.0481 0.1085,-0.0103 0.2187,-0.0189 0.3315,-0.0241l0 0.9742zm2.316 0.3688l0 -0.4675c-0.024,0.0103 -0.0533,0.0188 -0.0876,0.0257 -0.0345,0.0068 -0.0688,0.0103 -0.1032,0.0103 -0.0696,0 -0.1324,-0.0112 -0.1882,-0.0351 -0.0559,-0.0231 -0.0998,-0.0608 -0.1324,-0.1122 -0.0336,-0.0514 -0.0499,-0.1181 -0.0508,-0.202l0 -1.5411 0.5622 0 0 -0.4212 -0.5622 0 0 -0.8116 -0.5519 0.1695 0 0.6421 -0.3765 0 0 0.4212 0.3765 0 0 1.5719c0.001,0.2697 0.0671,0.4726 0.1978,0.6078 0.1306,0.1361 0.3198,0.2038 0.5656,0.2038 0.0739,-0.0009 0.1418,-0.0068 0.2046,-0.0197 0.0627,-0.012 0.1109,-0.0257 0.1461,-0.0419zm2.5982 -1.5723c-0.0009,-0.2484 -0.0471,-0.4619 -0.1396,-0.6423 -0.0925,-0.1812 -0.2259,-0.3198 -0.3995,-0.4185 -0.1736,-0.0978 -0.383,-0.148 -0.6281,-0.1489 -0.198,0.0009 -0.3752,0.0358 -0.5322,0.1047 -0.157,0.0689 -0.2905,0.1676 -0.4004,0.2943 -0.1099,0.1268 -0.1936,0.2773 -0.2521,0.4517 -0.0576,0.1744 -0.0864,0.3667 -0.0872,0.5785 0,0.2203 0.0305,0.4185 0.0916,0.5946 0.0611,0.1761 0.15,0.3266 0.2687,0.4517 0.1177,0.125 0.2625,0.2203 0.4344,0.2875 0.1719,0.0664 0.3699,0.0995 0.5923,0.1004 0.13,0 0.2565,-0.0085 0.3786,-0.0255 0.1222,-0.0162 0.2347,-0.0391 0.3385,-0.0681 0.1038,-0.0289 0.1928,-0.0629 0.267,-0.1003l-0.1675 -0.4186c-0.0655,0.0341 -0.1405,0.0638 -0.2251,0.0893 -0.0855,0.0247 -0.1754,0.0443 -0.2696,0.0579 -0.095,0.0145 -0.1901,0.0213 -0.2852,0.0213 -0.1597,0 -0.3001,-0.0281 -0.4231,-0.0834 -0.1222,-0.0553 -0.2207,-0.1378 -0.2966,-0.2484 -0.076,-0.1106 -0.1239,-0.2484 -0.144,-0.4134l1.8739 -0.2553c0.0026,-0.0357 0.0043,-0.0714 0.0043,-0.1063 0.0009,-0.0357 0.0009,-0.0697 0.0009,-0.1029zm-0.5496 -0.0868l-1.3661 0.1838c0.0044,-0.1914 0.0366,-0.3531 0.0985,-0.4874 0.0611,-0.1336 0.1457,-0.2348 0.2548,-0.3055 0.109,-0.0697 0.2373,-0.1054 0.3847,-0.1054 0.1265,0 0.2364,0.0263 0.3289,0.0782 0.0934,0.0528 0.1657,0.1319 0.2181,0.2374 0.0515,0.1063 0.0785,0.239 0.0811,0.3989zm3.2458 -0.8321c-0.0009,-0.2292 -0.052,-0.4262 -0.1534,-0.5936 -0.1022,-0.1666 -0.2515,-0.2952 -0.4485,-0.3867 -0.1971,-0.0907 -0.4379,-0.1369 -0.724,-0.1377 -0.1938,0 -0.3752,0.0165 -0.5425,0.0494 -0.1682,0.0322 -0.3175,0.0784 -0.4469,0.1386l0 3.4482 0.5491 0 0 -1.4446c0.0305,0.0049 0.066,0.0099 0.1072,0.014 0.0412,0.0049 0.0857,0.0082 0.1319,0.0115 0.0462,0.0025 0.0916,0.0042 0.1369,0.0042 0.2267,-0.0009 0.4263,-0.0281 0.5995,-0.0825 0.1723,-0.0544 0.3174,-0.1311 0.4353,-0.23 0.1171,-0.099 0.2061,-0.2152 0.2655,-0.3488 0.0594,-0.1344 0.0899,-0.282 0.0899,-0.442zm-0.5492 -0.0049c0,0.1394 -0.033,0.2589 -0.0989,0.3595 -0.066,0.0998 -0.1625,0.1773 -0.2903,0.2309 -0.1278,0.0544 -0.2852,0.0816 -0.4716,0.0824 -0.0437,0 -0.0866,-0.0008 -0.1311,-0.0033 -0.0437,-0.0016 -0.0849,-0.0049 -0.1237,-0.0082 -0.0395,-0.0041 -0.0725,-0.0083 -0.1014,-0.0132l0 -1.2566c0.0338,-0.0132 0.0734,-0.0256 0.1212,-0.0371 0.047,-0.0107 0.0982,-0.0198 0.1534,-0.0272 0.0561,-0.0066 0.1121,-0.0099 0.1707,-0.0099 0.2506,0 0.4419,0.0577 0.573,0.1723 0.132,0.1146 0.1979,0.2853 0.1987,0.5104zm3.337 2.5231l-1.2368 -3.5818 -0.653 0 -1.2368 3.5818 0.5837 0 0.3167 -0.9449 1.3258 0 0.3166 0.9449 0.5838 0zm-1.0142 -1.3605l-1.0982 0 0.4402 -1.3358c0.0165,-0.0502 0.0306,-0.0997 0.0437,-0.15 0.0124,-0.0495 0.0231,-0.0957 0.0322,-0.1369 0.0091,-0.0412 0.0165,-0.075 0.0206,-0.0997 0.005,-0.0256 0.0074,-0.038 0.0074,-0.0388l0.0099 0c0,0.0008 0.0025,0.0132 0.0075,0.0388 0.0041,0.0247 0.0115,0.0585 0.0206,0.0997 0.009,0.0412 0.0198,0.0874 0.0321,0.1369 0.0132,0.0503 0.0273,0.0998 0.0437,0.15l0.4403 1.3358zm3.1568 -2.2213l-0.6036 0 -0.7717 1.598 -0.0099 0 -0.7767 -1.598 -0.6036 0 1.1032 2.1619 0 1.4199 0.5591 0 0 -1.4199 1.1032 -2.1619zm-15.1964 6.9521l-0.351 -0.7966c-0.0336,-0.0779 -0.0731,-0.1462 -0.1186,-0.2056 -0.045,-0.0588 -0.0975,-0.1048 -0.1576,-0.1372l0 -0.0068c0.0704,-0.0156 0.136,-0.0397 0.1966,-0.0711 0.0607,-0.0314 0.1143,-0.0723 0.1603,-0.1216 0.0455,-0.0498 0.0818,-0.1092 0.1073,-0.1793 0.0259,-0.07 0.039,-0.1506 0.0395,-0.2431 0,-0.1445 -0.0325,-0.2694 -0.0969,-0.3753 -0.0639,-0.1059 -0.1598,-0.1877 -0.2871,-0.246 -0.1273,-0.0576 -0.2854,-0.0873 -0.4739,-0.0879 -0.0818,0 -0.1625,0.0056 -0.2427,0.0162 -0.0801,0.0101 -0.1565,0.0252 -0.2296,0.0449 -0.0726,0.0196 -0.1381,0.0431 -0.1972,0.07l0 2.3394 0.3608 0 0 -1.0319 0.2079 0c0.0889,0.0006 0.1626,0.0235 0.2205,0.0695 0.0585,0.0454 0.1051,0.1098 0.1403,0.1927l0.3314 0.7697 0.39 0zm-0.4842 -1.7445c0,0.1037 -0.0212,0.1877 -0.0629,0.2521 -0.0416,0.0645 -0.1018,0.1115 -0.1808,0.1412 -0.0786,0.0297 -0.1739,0.0443 -0.286,0.0437l-0.2762 0 0 -0.8201c0.0254,-0.0102 0.0547,-0.0191 0.0888,-0.0269 0.0341,-0.0073 0.0704,-0.0129 0.1094,-0.0174 0.0385,-0.0039 0.0774,-0.0062 0.117,-0.0062 0.1116,0 0.2036,0.0179 0.2762,0.0527 0.0726,0.0347 0.1262,0.0846 0.162,0.149 0.0351,0.0644 0.0525,0.1417 0.0525,0.2319zm2.1805 0.6924c-0.0005,-0.1635 -0.0292,-0.3041 -0.0866,-0.4229 -0.0575,-0.1193 -0.1403,-0.2107 -0.2481,-0.2756 -0.1078,-0.0644 -0.2378,-0.0975 -0.3899,-0.0981 -0.123,0.0006 -0.2329,0.0235 -0.3304,0.0689 -0.0975,0.0454 -0.1804,0.1104 -0.2486,0.1939 -0.0683,0.0834 -0.1203,0.1826 -0.1566,0.2974 -0.0357,0.1149 -0.0536,0.2415 -0.0541,0.381 0,0.1451 0.0189,0.2756 0.0568,0.3916 0.038,0.1159 0.0932,0.2151 0.1669,0.2974 0.0731,0.0824 0.163,0.1451 0.2697,0.1894 0.1067,0.0437 0.2296,0.0655 0.3677,0.0661 0.0807,0 0.1593,-0.0056 0.2351,-0.0168 0.0758,-0.0107 0.1457,-0.0258 0.2101,-0.0448 0.0645,-0.0191 0.1198,-0.0415 0.1658,-0.0661l-0.104 -0.2756c-0.0406,0.0224 -0.0872,0.042 -0.1397,0.0588 -0.0531,0.0162 -0.1089,0.0291 -0.1674,0.0381 -0.059,0.0095 -0.1181,0.014 -0.1771,0.014 -0.0991,0 -0.1863,-0.0185 -0.2627,-0.0549 -0.0758,-0.0364 -0.137,-0.0908 -0.1842,-0.1636 -0.0471,-0.0729 -0.0769,-0.1636 -0.0893,-0.2723l1.1634 -0.168c0.0016,-0.0236 0.0027,-0.0471 0.0027,-0.0701 0.0005,-0.0235 0.0005,-0.0459 0.0005,-0.0678zm-0.3412 -0.0571l-0.8482 0.121c0.0028,-0.126 0.0228,-0.2325 0.0612,-0.321 0.038,-0.0879 0.0905,-0.1546 0.1582,-0.2011 0.0677,-0.0459 0.1473,-0.0695 0.2389,-0.0695 0.0785,0 0.1467,0.0174 0.2041,0.0516 0.058,0.0347 0.1029,0.0868 0.1354,0.1563 0.032,0.07 0.0488,0.1574 0.0504,0.2627zm1.8653 1.0218l-0.117 -0.2722c-0.0363,0.0274 -0.0796,0.0487 -0.1294,0.0638 -0.0499,0.0157 -0.1024,0.0236 -0.1565,0.0236 -0.0575,0 -0.1127,-0.0124 -0.1663,-0.0376 -0.0531,-0.0246 -0.1008,-0.0633 -0.1435,-0.1154 -0.0423,-0.0521 -0.0759,-0.1182 -0.1008,-0.1989 -0.0249,-0.0806 -0.0374,-0.1758 -0.0379,-0.2868 0.0005,-0.1109 0.013,-0.2061 0.0374,-0.2863 0.0238,-0.0806 0.0574,-0.1462 0.0991,-0.1977 0.0417,-0.0515 0.0899,-0.0896 0.143,-0.1143 0.0536,-0.0246 0.1099,-0.037 0.169,-0.037 0.0541,0 0.1066,0.0079 0.1565,0.0236 0.0498,0.0151 0.0931,0.0364 0.1294,0.0638l0.117 -0.2655c-0.0536,-0.0375 -0.118,-0.0678 -0.1928,-0.0902 -0.0747,-0.0224 -0.1598,-0.0336 -0.2557,-0.0342 -0.0785,0 -0.1548,0.0118 -0.2296,0.0348 -0.0747,0.0235 -0.1446,0.0593 -0.2101,0.1075 -0.065,0.0487 -0.1219,0.1098 -0.1717,0.1843 -0.0493,0.0745 -0.0883,0.1631 -0.1159,0.265 -0.0282,0.102 -0.0423,0.2185 -0.0428,0.3496 0.0005,0.1311 0.0146,0.2476 0.0428,0.3501 0.0276,0.102 0.0666,0.1905 0.1159,0.2656 0.0498,0.0745 0.1067,0.1366 0.1717,0.1848 0.0655,0.0488 0.1354,0.0852 0.2101,0.1087 0.0748,0.0235 0.1511,0.0353 0.2296,0.0353 0.0959,-0.0006 0.1804,-0.0112 0.2546,-0.0331 0.0742,-0.0218 0.1387,-0.0521 0.1939,-0.0913zm1.7353 0.0874l0 -1.2336c-0.0005,-0.1316 -0.0265,-0.242 -0.0785,-0.3327 -0.0515,-0.0902 -0.1262,-0.1586 -0.2232,-0.2056 -0.0975,-0.0465 -0.2144,-0.07 -0.3514,-0.07 -0.0466,0 -0.0938,0.0044 -0.1403,0.0134 -0.0466,0.0084 -0.0916,0.0202 -0.1344,0.0347 -0.0433,0.0146 -0.0828,0.0314 -0.1186,0.0493l0 -0.8941 -0.3542 0 0 2.6386 0.3542 0 0 -1.4655c0.0287,-0.0168 0.0601,-0.0319 0.0948,-0.0443 0.0347,-0.0123 0.0704,-0.0224 0.1073,-0.0291 0.0373,-0.0073 0.0736,-0.0106 0.1099,-0.0106 0.0786,0 0.1457,0.0129 0.202,0.0381 0.0558,0.0257 0.0991,0.0638 0.1295,0.1154 0.0297,0.0509 0.0455,0.1154 0.0455,0.1927l0 1.2033 0.3574 0zm1.8361 0l0 -1.2437c0,-0.1282 -0.0265,-0.2369 -0.0796,-0.3271 -0.0531,-0.0902 -0.1338,-0.1586 -0.2416,-0.2062 -0.1078,-0.0476 -0.2432,-0.0711 -0.4067,-0.0717 -0.1365,0.0006 -0.2605,0.0129 -0.3726,0.0359 -0.1121,0.0235 -0.2124,0.0543 -0.3001,0.0919l0 1.7209 0.3542 0 0 -1.4991c0.0363,-0.0157 0.0829,-0.0286 0.1392,-0.0381 0.0558,-0.0101 0.117,-0.0157 0.1825,-0.0157 0.0813,0 0.149,0.014 0.2037,0.042 0.0541,0.0275 0.0953,0.0667 0.1224,0.1177 0.0276,0.0509 0.0411,0.112 0.0411,0.1832l0 1.21 0.3575 0zm1.8101 -0.0907l0 -1.721 -0.3542 0 0 1.4958c-0.0298,0.014 -0.0721,0.0257 -0.1268,0.0352 -0.0541,0.0096 -0.1158,0.0146 -0.1852,0.0152 -0.117,0 -0.2053,-0.028 -0.2649,-0.0846 -0.0595,-0.0566 -0.0893,-0.1423 -0.0893,-0.2583l0 -1.2033 -0.3542 0 0 1.1966c0,0.1507 0.0271,0.2745 0.0812,0.3709 0.0536,0.0963 0.1332,0.1669 0.2383,0.2129 0.1051,0.0459 0.2351,0.0689 0.3889,0.0683 0.0894,0 0.176,-0.0056 0.2594,-0.0168 0.0834,-0.0107 0.1598,-0.0258 0.2297,-0.0448 0.0698,-0.0191 0.1289,-0.0415 0.1771,-0.0661zm1.8361 0.0907l0 -1.2437c0,-0.1282 -0.0266,-0.2369 -0.0797,-0.3271 -0.0531,-0.0902 -0.1337,-0.1586 -0.2415,-0.2062 -0.1078,-0.0476 -0.2432,-0.0711 -0.4068,-0.0717 -0.1365,0.0006 -0.2605,0.0129 -0.3726,0.0359 -0.1121,0.0235 -0.2123,0.0543 -0.3,0.0919l0 1.7209 0.3541 0 0 -1.4991c0.0363,-0.0157 0.0829,-0.0286 0.1393,-0.0381 0.0557,-0.0101 0.1169,-0.0157 0.1825,-0.0157 0.0812,0 0.1489,0.014 0.2036,0.042 0.0542,0.0275 0.0954,0.0667 0.1224,0.1177 0.0276,0.0509 0.0412,0.112 0.0412,0.1832l0 1.21 0.3575 0zm1.8263 -0.0067l0 -1.7142c-0.0471,-0.0247 -0.1013,-0.0471 -0.1625,-0.0661 -0.0612,-0.0191 -0.1278,-0.0342 -0.1993,-0.0449 -0.0715,-0.0112 -0.1457,-0.0168 -0.2232,-0.0168 -0.1294,0 -0.2475,0.0185 -0.3542,0.0555 -0.1061,0.037 -0.1977,0.0935 -0.2751,0.1686 -0.0769,0.0757 -0.1365,0.1709 -0.1782,0.2863 -0.0417,0.1154 -0.0628,0.251 -0.0634,0.4072 0.0006,0.1373 0.019,0.2594 0.0553,0.3664 0.0363,0.1065 0.0877,0.1972 0.1543,0.2712 0.0666,0.0739 0.1457,0.1299 0.2372,0.1686 0.0916,0.0381 0.1929,0.0577 0.3039,0.0577 0.0417,0 0.0839,-0.0034 0.1267,-0.0095 0.0429,-0.0062 0.0834,-0.0146 0.123,-0.0258 0.039,-0.0112 0.0737,-0.0241 0.1045,-0.0387l0 0.1345c0.0005,0.1468 -0.0352,0.2582 -0.1061,0.335 -0.071,0.0762 -0.1782,0.1148 -0.3228,0.1154 -0.0634,0 -0.1252,-0.0056 -0.1847,-0.0151 -0.0601,-0.0101 -0.116,-0.0241 -0.1679,-0.0409 -0.0515,-0.0174 -0.0964,-0.037 -0.1349,-0.0583l-0.104 0.2891c0.0488,0.0252 0.1056,0.0476 0.1695,0.0683 0.0645,0.0208 0.1349,0.0376 0.2113,0.0505 0.0763,0.0123 0.1576,0.0184 0.2432,0.019 0.1543,-0.0006 0.2875,-0.0297 0.3991,-0.0879 0.1111,-0.0583 0.1972,-0.1446 0.2573,-0.2577 0.0601,-0.1132 0.0904,-0.2527 0.091,-0.4174zm-0.351 -0.4067c-0.0222,0.0123 -0.0493,0.0235 -0.0812,0.033 -0.032,0.0096 -0.0661,0.0169 -0.1018,0.0224 -0.0358,0.0056 -0.0699,0.0084 -0.1029,0.0084 -0.0927,0 -0.1734,-0.0218 -0.2427,-0.066 -0.0688,-0.0443 -0.1224,-0.1104 -0.1603,-0.1984 -0.0385,-0.0879 -0.0579,-0.1983 -0.0585,-0.3305 0.0006,-0.1092 0.013,-0.2028 0.0374,-0.2812 0.0243,-0.0779 0.0585,-0.1423 0.1028,-0.1922 0.0439,-0.0498 0.0954,-0.0862 0.1544,-0.1098 0.0591,-0.0241 0.1235,-0.0353 0.1928,-0.0353 0.0542,0.0006 0.104,0.0051 0.1495,0.0146 0.0455,0.0095 0.0824,0.0202 0.1105,0.0325l0 1.1025z"/>
   <path class="fil2" d="M10.3086 7.187l0.0051 0.0079 -3.5758 3.7021 3.5707 -3.71zm0.283 1.9562l0 3.5081c0,0.9638 -0.7885,1.7524 -1.7524,1.7524l-4.5376 0c-0.2748,0 -0.5352,-0.0641 -0.7673,-0.1781l1.9693 -2.0461 1.3595 0.7366 3.7285 -3.7729z"/>
   <path class="fil3" d="M4.3016 6.3864l3.0832 0 -4.8356 4.6265 0 -2.8741c0,-0.9638 0.7886,-1.7524 1.7524,-1.7524z"/>
   <path class="fil4" d="M7.3848 6.3864l1.4544 0c0.6136,0 1.1561,0.3196 1.4694,0.8006l-3.5707 3.71 -0.0048 0.005 -1.0575 -0.5732 -1.0921 -0.5326c-0.0449,-0.0219 -0.0982,0.0064 -0.1449,0.0193l0 1.787 1.065 0.577 -1.9693 2.0461c-0.582,-0.2858 -0.9851,-0.8852 -0.9851,-1.5743l0 -1.6384 4.8356 -4.6265z"/>
  </g>
 </g>
</svg>
