<?xml version="1.0" encoding="UTF-8"?>
<!DOCTYPE svg PUBLIC "-//W3C//DTD SVG 1.1//EN" "http://www.w3.org/Graphics/SVG/1.1/DTD/svg11.dtd">
<!-- Creator: CorelDRAW -->
<svg xmlns="http://www.w3.org/2000/svg" xml:space="preserve" width="31.75mm" height="21.167mm" style="shape-rendering:geometricPrecision; text-rendering:geometricPrecision; image-rendering:optimizeQuality; fill-rule:evenodd; clip-rule:evenodd"
viewBox="0 0 31.75 21.167"
 xmlns:xlink="http://www.w3.org/1999/xlink"
 version="1.1"
 enable-background="new 0 0 510 317.436">
 <defs>
  <style type="text/css">
   <![CDATA[
    .str0 {stroke:#C5C6C6;stroke-width:0.0762}
    .fil0 {fill:none}
    .fil1 {fill:white}
    .fil2 {fill:#2E2E65}
   ]]>
  </style>
 </defs>
 <g id="Layer_x0020_1">
  <metadata id="CorelCorpID_0Corel-Layer"/>
  <g>
   <path class="fil0 str0" d="M1.0583 0.0002l29.6334 0c0.5843,0 1.0582,0.4739 1.0582,1.0583l0.0001 19.05c-0.0001,0.5842 -0.474,1.0581 -1.0584,1.0581l-29.6333 0.0002c-0.5843,-0.0002 -1.0582,-0.4741 -1.0582,-1.0585l-0.0001 -19.0498c0.0001,-0.5844 0.474,-1.0583 1.0584,-1.0583z"/>
   <path id="1" class="fil1" d="M1.0583 0.0002l29.6334 0c0.5843,0 1.0582,0.4739 1.0582,1.0583l0.0001 19.05c-0.0001,0.5842 -0.474,1.0581 -1.0584,1.0581l-29.6333 0.0002c-0.5843,-0.0002 -1.0582,-0.4741 -1.0582,-1.0585l-0.0001 -19.0498c0.0001,-0.5844 0.474,-1.0583 1.0584,-1.0583z"/>
  </g>
  <path class="fil2" d="M5.0867 9.4071c0.0758,0.1443 0.1138,0.3529 0.1138,0.6259l0 0.1787 -1.0144 0c0.0109,-0.3236 0.0557,-0.5747 0.1333,-0.7534 0.077,-0.1788 0.2092,-0.2684 0.396,-0.2684 0.1718,0 0.2954,0.0724 0.3713,0.2172zm0.5609 3.6414c0.2592,-0.0857 0.4684,-0.2035 0.6258,-0.3529l-0.25 -0.8736c-0.1603,0.119 -0.3138,0.2064 -0.4603,0.2627 -0.1471,0.0569 -0.3615,0.0844 -0.6425,0.0844 -0.2581,0 -0.4454,-0.0988 -0.5609,-0.2988 -0.1161,-0.1989 -0.1736,-0.4632 -0.1736,-0.7931l0 -0.0184 2.2247 0 0 -0.7752c0,-0.6638 -0.1449,-1.1811 -0.4334,-1.5535 -0.2896,-0.3707 -0.7103,-0.5574 -1.262,-0.5574 -0.5695,0 -1.0069,0.2045 -1.3126,0.6138 -0.3058,0.4092 -0.4587,0.9459 -0.4587,1.612l0 0.6787c0,0.6155 0.1632,1.1195 0.4897,1.5121 0.327,0.3925 0.773,0.589 1.3396,0.589 0.323,0 0.6144,-0.0442 0.8742,-0.1298zm2.5177 -5.4373l0.9219 0c0.2517,0 0.4413,0.1 0.5683,0.2988 0.1276,0.2 0.192,0.4575 0.192,0.7753 0,0.3132 -0.0644,0.5672 -0.192,0.7632 -0.127,0.1966 -0.3166,0.2943 -0.5683,0.2943l-0.9219 -0.0001 0 -2.1315zm0.9219 3.1488c0.6252,0 1.1155,-0.1874 1.47,-0.5644 0.3546,-0.3758 0.5316,-0.8822 0.5316,-1.5183 0,-0.6334 -0.177,-1.1385 -0.5316,-1.5161 -0.3546,-0.3776 -0.8448,-0.5672 -1.47,-0.5672l-2.1626 -0.0001 0 6.4948 1.2407 0 0 -2.3287 0.9219 0zm3.7246 1.3178c-0.0661,-0.0989 -0.0994,-0.231 -0.0994,-0.3948 0,-0.2104 0.0362,-0.3805 0.1092,-0.5121 0.0724,-0.131 0.1966,-0.1965 0.3713,-0.1965l0.4367 0 0 0.9097c-0.0597,0.1046 -0.1368,0.1874 -0.2298,0.25 -0.0931,0.0626 -0.1966,0.0931 -0.3098,0.0931 -0.1184,0 -0.2115,-0.0494 -0.2782,-0.1494zm2.2546 1.0109c-0.0678,-0.2075 -0.1184,-0.4121 -0.1494,-0.6127 -0.0316,-0.2011 -0.0466,-0.4207 -0.0466,-0.6586l0 -1.954c0,-0.5528 -0.1471,-0.9724 -0.4408,-1.2597 -0.2942,-0.2874 -0.6833,-0.431 -1.1695,-0.431 -0.5218,0 -0.9362,0.1465 -1.2414,0.4379 -0.3057,0.2908 -0.4586,0.6586 -0.4586,1.1017l1.2414 0c0,-0.196 0.0299,-0.3437 0.0885,-0.4414 0.0586,-0.0982 0.1557,-0.1477 0.2896,-0.1477 0.1535,0 0.2679,0.0627 0.3408,0.1874 0.0719,0.1258 0.1092,0.3069 0.1092,0.5442l0 0.3925 -0.4367 0c-0.5811,0 -1.0132,0.1282 -1.2949,0.3834 -0.2821,0.2557 -0.4224,0.6258 -0.4224,1.1103 0,0.4466 0.1121,0.7977 0.338,1.0534 0.2247,0.2564 0.5304,0.3839 0.9166,0.3839 0.2109,0 0.3943,-0.058 0.55,-0.1712 0.1558,-0.1144 0.2897,-0.2684 0.4023,-0.4627 0.0173,0.1006 0.0391,0.196 0.0644,0.2857 0.0247,0.089 0.0546,0.1758 0.0868,0.2586l1.2327 0zm1.3747 -4.8264l-1.3299 0 1.3431 4.8758 -0.1023 0.3471c-0.0506,0.1868 -0.1155,0.3219 -0.1954,0.4035 -0.0799,0.0822 -0.2081,0.123 -0.3828,0.123 -0.0247,0 -0.0465,-0.0029 -0.0672,-0.007 -0.0213,-0.0046 -0.054,-0.0109 -0.1017,-0.0195l-0.1472 0.946c0.1426,0.0379 0.2489,0.0655 0.3201,0.0827 0.0713,0.015 0.1587,0.0236 0.2627,0.0236 0.4063,0 0.7092,-0.119 0.9097,-0.3569 0.2,-0.238 0.3495,-0.5265 0.4477,-0.865l1.5402 -5.5533 -1.335 0 -0.6321 2.7879 -0.0133 0 -0.5166 -2.7879zm4.0677 3.6758l-1.2149 0 0 1.1506 1.2149 0 0 -1.1506zm3.1707 -0.8925c0,0.3805 -0.0385,0.6632 -0.1155,0.846 -0.077,0.1827 -0.2357,0.2741 -0.4759,0.2741 -0.131,0 -0.2402,-0.0258 -0.3276,-0.0781 -0.0873,-0.0512 -0.1592,-0.1311 -0.2155,-0.2391l0 -2.2787c0.0563,-0.1218 0.1282,-0.2161 0.2155,-0.2816 0.0874,-0.065 0.1937,-0.0983 0.319,-0.0983 0.2373,0 0.3959,0.1029 0.4776,0.3086 0.0816,0.2052 0.1224,0.5023 0.1224,0.8914l0 0.6557zm1.2373 -0.6557c0,-0.6868 -0.1253,-1.2276 -0.3741,-1.6236 -0.2488,-0.3959 -0.6287,-0.5936 -1.1385,-0.5936 -0.1879,0 -0.3494,0.0402 -0.4856,0.1189 -0.1368,0.0788 -0.2563,0.192 -0.3598,0.3408l-0.0138 -0.0051 0 -2.4977 -1.2368 0 0 6.9591 1.0765 0 0.0678 -0.4816 0.0132 -0.0046c0.1063,0.1873 0.2362,0.3299 0.3908,0.4281 0.154,0.0977 0.3379,0.1477 0.5517,0.1477 0.504,0 0.8816,-0.1885 1.1322,-0.5666 0.2511,-0.3776 0.3764,-0.9 0.3764,-1.5661l0 -0.6557zm1.5132 0.0626c0,-0.389 0.0454,-0.6965 0.1374,-0.9229 0.0919,-0.2265 0.2494,-0.3397 0.4718,-0.3397 0.112,0 0.2115,0.0305 0.2983,0.0914 0.085,0.0609 0.1603,0.1494 0.2229,0.2655l0 2.3201c-0.0597,0.0977 -0.1327,0.1712 -0.2183,0.2207 -0.0862,0.0494 -0.1897,0.0729 -0.3115,0.0729 -0.223,0 -0.3787,-0.0948 -0.4678,-0.2873 -0.0891,-0.192 -0.1328,-0.4678 -0.1328,-0.8276l0 -0.5931zm-1.2419 0.5931c0,0.6546 0.1299,1.1736 0.3913,1.5569 0.261,0.3845 0.6368,0.5758 1.1265,0.5758 0.1804,0 0.3402,-0.0373 0.4775,-0.1097 0.138,-0.0725 0.2592,-0.1788 0.3638,-0.319l0.0132 0.004 0 0.2368c0,0.3506 -0.0609,0.6161 -0.1804,0.7965 -0.1207,0.1794 -0.3086,0.2696 -0.5632,0.2696 -0.181,0 -0.3512,-0.0259 -0.5098,-0.0753 -0.1592,-0.0512 -0.3189,-0.123 -0.4781,-0.2149l-0.2184 0.8925c0.2052,0.1161 0.4195,0.2074 0.6436,0.2753 0.2242,0.0655 0.4374,0.0994 0.6425,0.0994 0.6046,0 1.0736,-0.1787 1.4081,-0.5345 0.3339,-0.358 0.5011,-0.8586 0.5011,-1.5034l0 -4.7333 -1.0862 0 -0.0712 0.4908 -0.0133 0.004c-0.1097,-0.1868 -0.2402,-0.3316 -0.3908,-0.4322 -0.1522,-0.1011 -0.3287,-0.1522 -0.5298,-0.1522 -0.4926,0 -0.8707,0.2063 -1.1328,0.6183 -0.2626,0.4121 -0.3937,0.9661 -0.3937,1.6615l0.0001 0.5931z"/>
 </g>
</svg>
