<svg xmlns="http://www.w3.org/2000/svg" width="50mm" height="35mm" viewBox="0 0 50 35" shape-rendering="geometricPrecision" text-rendering="geometricPrecision" image-rendering="optimizeQuality" fill-rule="evenodd" clip-rule="evenodd"><g fill-rule="nonzero"><path d="M5.2445 3.3889l39.5111 0c0.7793,0 1.4111,0.6318 1.4111,1.4111l0 25.4c0,0.7793 -0.6318,1.4111 -1.4111,1.4111l-39.5111 0c-0.7793,0 -1.4112,-0.6318 -1.4112,-1.4111l0 -25.4c0,-0.7793 0.6319,-1.4111 1.4112,-1.4111z" fill="#fefefe" stroke="#000" stroke-width=".0762"/><path d="M5.272 20.7869c0,-0.2712 0.0666,-0.5344 0.1976,-0.7887 0.132,-0.2533 0.3184,-0.448 0.5596,-0.5809 0.2414,-0.1342 0.5109,-0.2016 0.809,-0.2016 0.4591,0 0.836,0.1519 1.1298,0.4559 0.2943,0.3038 0.4405,0.6872 0.4405,1.1511 0,0.4669 -0.1481,0.8541 -0.4443,1.1622 -0.2969,0.3076 -0.67,0.4607 -1.1204,0.4607 -0.2792,0 -0.5439,-0.0634 -0.7969,-0.1917 -0.253,-0.1281 -0.4453,-0.3159 -0.5773,-0.563 -0.131,-0.2476 -0.1976,-0.5483 -0.1976,-0.904zm0.8245 0.0439c0,0.3068 0.0714,0.5411 0.2151,0.7041 0.1425,0.1627 0.3193,0.2443 0.5294,0.2443 0.2101,0 0.3858,-0.0816 0.5276,-0.2443 0.1425,-0.163 0.2138,-0.3994 0.2138,-0.7103 0,-0.3019 -0.0713,-0.5353 -0.2138,-0.6983 -0.1418,-0.1628 -0.3175,-0.2443 -0.5276,-0.2443 -0.2101,0 -0.3869,0.0815 -0.5294,0.2443 -0.1437,0.163 -0.2151,0.3983 -0.2151,0.7045zm3.7775 1.5453l-1.225 -3.09 0.8439 0 0.5724 1.5773 0.1662 0.5264c0.0441,-0.1341 0.0723,-0.2224 0.083,-0.265 0.0274,-0.0876 0.0557,-0.175 0.086,-0.2614l0.5782 -1.5773 0.8272 0 -1.2083 3.09 -0.7236 0zm4.1837 -0.9833l0.802 0.136c-0.1037,0.299 -0.2659,0.5265 -0.4885,0.6825 -0.2217,0.1569 -0.5,0.2343 -0.8342,0.2343 -0.5284,0 -0.9192,-0.1748 -1.1732,-0.5264 -0.2003,-0.2812 -0.3009,-0.6366 -0.3009,-1.0647 0,-0.5127 0.1319,-0.9139 0.3958,-1.2038 0.2627,-0.29 0.5958,-0.435 0.9982,-0.435 0.4524,0 0.8088,0.1519 1.0705,0.4559 0.2608,0.3038 0.3858,0.7688 0.3751,1.3955l-2.0152 0c0.0061,0.2424 0.0705,0.431 0.1948,0.5652 0.1237,0.1351 0.2791,0.2026 0.4637,0.2026 0.1262,0 0.2314,-0.0349 0.3175,-0.1043 0.0859,-0.0706 0.1515,-0.1828 0.1944,-0.3378zm0.046 -0.8265c-0.0061,-0.2374 -0.0657,-0.4169 -0.1799,-0.5402 -0.1143,-0.1233 -0.2539,-0.1848 -0.418,-0.1848 -0.176,0 -0.3206,0.0656 -0.4349,0.1957 -0.1141,0.129 -0.1707,0.306 -0.1688,0.5293l1.2016 0zm2.2241 1.8098l-0.804 0 0 -3.09 0.7464 0 0 0.439c0.1278,-0.2075 0.2431,-0.3446 0.3448,-0.4102 0.1027,-0.0657 0.2179,-0.0992 0.3477,-0.0992 0.1836,0 0.3596,0.0514 0.5296,0.1548l-0.2492 0.7122c-0.1349,-0.0883 -0.2611,-0.1331 -0.377,-0.1331 -0.1136,0 -0.208,0.0307 -0.2865,0.0944 -0.0789,0.0625 -0.1394,0.1768 -0.1844,0.3416 -0.0451,0.165 -0.0674,0.5106 -0.0674,1.036l0 0.9545zm1.2279 -0.8818l0.8066 -0.1253c0.0344,0.1588 0.1036,0.28 0.2093,0.3626 0.1046,0.0823 0.2511,0.1241 0.4404,0.1241 0.2082,0 0.3644,-0.0386 0.469,-0.1172 0.0714,-0.0538 0.1064,-0.1271 0.1064,-0.2176 0,-0.0626 -0.0194,-0.114 -0.0576,-0.155 -0.04,-0.0388 -0.1299,-0.0744 -0.2686,-0.1073 -0.6485,-0.1448 -1.0596,-0.278 -1.2335,-0.3981 -0.2407,-0.1671 -0.3606,-0.3992 -0.3606,-0.6964 0,-0.2671 0.1037,-0.4925 0.3115,-0.6744 0.2082,-0.1828 0.5305,-0.274 0.967,-0.274 0.4164,0 0.7258,0.0695 0.928,0.2064 0.2022,0.1381 0.3411,0.3417 0.417,0.6119l-0.758 0.142c-0.0322,-0.1202 -0.0935,-0.2125 -0.1844,-0.2761 -0.0908,-0.0644 -0.22,-0.0964 -0.3877,-0.0964 -0.2119,0 -0.3635,0.0298 -0.4553,0.0905 -0.0606,0.0428 -0.0908,0.0983 -0.0908,0.1659 0,0.0586 0.0264,0.1074 0.0799,0.1481 0.0724,0.0544 0.3226,0.1309 0.7515,0.2302 0.4275,0.0983 0.7265,0.2197 0.8965,0.3637 0.1681,0.146 0.252,0.3485 0.252,0.6078 0,0.2831 -0.1164,0.5274 -0.3495,0.7311 -0.2325,0.2036 -0.5763,0.3048 -1.0328,0.3048 -0.414,0 -0.7412,-0.0855 -0.9833,-0.2562 -0.2417,-0.17 -0.3989,-0.4021 -0.473,-0.6951zm6.193 -1.2944l-0.7933 0.145c-0.0261,-0.161 -0.0869,-0.2821 -0.1814,-0.3636 -0.0949,-0.0814 -0.2169,-0.1221 -0.3675,-0.1221 -0.2013,0 -0.3604,0.0705 -0.4795,0.2107 -0.1192,0.1409 -0.1787,0.3763 -0.1787,0.7061 0,0.3666 0.0605,0.6257 0.1816,0.7768 0.1211,0.1509 0.2833,0.2264 0.4875,0.2264 0.1532,0 0.2772,-0.0438 0.3751,-0.1321 0.0977,-0.0885 0.166,-0.2402 0.206,-0.4549l0.7901 0.1361c-0.0818,0.3683 -0.2402,0.6476 -0.4726,0.8352 -0.2325,0.1888 -0.5441,0.2821 -0.9359,0.2821 -0.4443,0 -0.7989,-0.1419 -1.0626,-0.4271 -0.2649,-0.285 -0.3966,-0.6802 -0.3966,-1.1849 0,-0.5094 0.1326,-0.9068 0.3975,-1.1908 0.266,-0.285 0.6243,-0.4271 1.0764,-0.4271 0.3702,0 0.6642,0.0812 0.8831,0.2433 0.2179,0.1619 0.3751,0.4092 0.4708,0.7409zm1.4104 -2.0897l0 1.5681c0.2599,-0.3078 0.5696,-0.4626 0.9299,-0.4626 0.1858,0 0.3519,0.0357 0.5016,0.1052 0.1481,0.0695 0.2605,0.1588 0.3358,0.2671 0.0751,0.1093 0.127,0.2296 0.1543,0.3616 0.0282,0.1312 0.0422,0.3367 0.0422,0.6138l0 1.8127 -0.8043 0 0 -1.6327c0,-0.3241 -0.0152,-0.5297 -0.0458,-0.6171 -0.0312,-0.0874 -0.0848,-0.1559 -0.1619,-0.2076 -0.0773,-0.0514 -0.1741,-0.0774 -0.2904,-0.0774 -0.1339,0 -0.2528,0.0327 -0.3574,0.0993 -0.1055,0.0657 -0.1826,0.1649 -0.2305,0.2981 -0.0489,0.1331 -0.0735,0.3297 -0.0735,0.5889l0 1.5485 -0.8035 0 0 -4.2659 0.8035 0zm3.5488 4.2659l-0.804 0 0 -3.09 0.7464 0 0 0.439c0.1278,-0.2075 0.2431,-0.3446 0.3448,-0.4102 0.1027,-0.0657 0.2179,-0.0992 0.3478,-0.0992 0.1835,0 0.3595,0.0514 0.5295,0.1548l-0.2489 0.7122c-0.1352,-0.0883 -0.2611,-0.1331 -0.3773,-0.1331 -0.1133,0 -0.208,0.0307 -0.2862,0.0944 -0.0792,0.0625 -0.1396,0.1768 -0.1845,0.3416 -0.045,0.165 -0.0676,0.5106 -0.0676,1.036l0 0.9545zm1.5112 -3.5092l0 -0.7567 0.804 0 0 0.7567 -0.804 0zm0 3.5092l0 -3.09 0.804 0 0 3.09 -0.804 0zm1.6109 -3.5092l0 -0.7567 0.8038 0 0 0.7567 -0.8038 0zm0.8038 0.4192l0 2.9936c0,0.3945 -0.0254,0.6725 -0.0751,0.8344 -0.0508,0.1618 -0.1484,0.288 -0.2919,0.3795 -0.1446,0.0914 -0.3284,0.1371 -0.5511,0.1371 -0.08,0 -0.1669,-0.0081 -0.2589,-0.022 -0.0927,-0.0149 -0.1923,-0.0366 -0.2988,-0.0654l0.1397 -0.6984c0.0382,0.0071 0.074,0.0139 0.1075,0.0189 0.0332,0.0051 0.0642,0.007 0.0926,0.007 0.0823,0 0.1496,-0.0179 0.2023,-0.0537 0.0529,-0.0356 0.087,-0.0794 0.1043,-0.1301 0.0168,-0.0496 0.0256,-0.2017 0.0256,-0.454l0 -2.9469 0.8038 0zm1.6774 3.09l-1.225 -3.09 0.8439 0 0.5727 1.5773 0.1659 0.5264c0.044,-0.1341 0.0724,-0.2224 0.083,-0.265 0.0273,-0.0876 0.0557,-0.175 0.0859,-0.2614l0.5783 -1.5773 0.8275 0 -1.2083 3.09 -0.7239 0zm2.4244 -3.5092l0 -0.7567 0.8039 0 0 0.7567 -0.8039 0zm0 3.5092l0 -3.09 0.8039 0 0 3.09 -0.8039 0zm4.3928 0l-0.8038 0 0 -1.5773c0,-0.3337 -0.0178,-0.5492 -0.0519,-0.6475 -0.0342,-0.0974 -0.0908,-0.1738 -0.1681,-0.2286 -0.0772,-0.0535 -0.1697,-0.0814 -0.2784,-0.0814 -0.1395,0 -0.2644,0.0388 -0.3749,0.1162 -0.1104,0.0785 -0.1864,0.181 -0.2276,0.309 -0.0411,0.1281 -0.0614,0.3645 -0.0614,0.7102l0 1.3994 -0.804 0 0 -3.09 0.7463 0 0 0.454c0.2656,-0.3497 0.5998,-0.5244 1.0022,-0.5244 0.1768,0 0.3397,0.0326 0.4862,0.0972 0.1468,0.0657 0.258,0.148 0.3332,0.2495 0.0754,0.1011 0.1279,0.2154 0.1572,0.3435 0.0306,0.1281 0.045,0.3109 0.045,0.5492l0 1.921zm0.7412 0.2037l0.9186 0.1131c0.0154,0.1094 0.0505,0.1838 0.1053,0.2245 0.0763,0.0588 0.1973,0.0874 0.3603,0.0874 0.2102,0 0.3676,-0.0317 0.4729,-0.0962 0.0702,-0.0428 0.1242,-0.1114 0.16,-0.2068 0.0247,-0.0675 0.0373,-0.1924 0.0373,-0.3753l0 -0.4509c-0.2403,0.3336 -0.544,0.5005 -0.9104,0.5005 -0.4083,0 -0.7316,-0.1758 -0.97,-0.5264 -0.1865,-0.278 -0.2802,-0.6228 -0.2802,-1.0359 0,-0.5184 0.123,-0.9139 0.368,-1.1879 0.2454,-0.2733 0.5501,-0.4102 0.9146,-0.4102 0.3751,0 0.6856,0.1676 0.9299,0.5036l0 -0.4332 0.7521 0 0 2.7733c0,0.3645 -0.0294,0.6366 -0.0889,0.8173 -0.0586,0.1808 -0.1416,0.3218 -0.2481,0.4252 -0.1073,0.1021 -0.25,0.1828 -0.4279,0.2414 -0.1788,0.0576 -0.4044,0.0874 -0.6769,0.0874 -0.5158,0 -0.8812,-0.0905 -1.096,-0.2693 -0.216,-0.1797 -0.3232,-0.4073 -0.3232,-0.6823 0,-0.0279 0.001,-0.0606 0.0026,-0.0993zm0.7183 -1.8128c0,0.328 0.0625,0.5682 0.1874,0.7202 0.1253,0.1518 0.2785,0.2284 0.462,0.2284 0.1964,0 0.3623,-0.0785 0.4984,-0.2345 0.1346,-0.1559 0.2032,-0.3872 0.2032,-0.6942 0,-0.3199 -0.0657,-0.5572 -0.1957,-0.7122 -0.1289,-0.156 -0.2928,-0.2334 -0.4913,-0.2334 -0.1932,0 -0.3513,0.0765 -0.4766,0.2286 -0.1249,0.1528 -0.1874,0.3843 -0.1874,0.6971zm-27.4004 -9.3977l1.8423 0c0.3649,0 0.6376,0.0184 0.8165,0.0569 0.1794,0.0373 0.3393,0.1154 0.4809,0.235 0.1417,0.1195 0.2586,0.2776 0.3531,0.4766 0.0944,0.1978 0.1416,0.4208 0.1416,0.6665 0,0.2668 -0.058,0.5123 -0.1738,0.7356 -0.117,0.2229 -0.2749,0.3901 -0.4732,0.5016 0.28,0.1011 0.4967,0.2735 0.647,0.5166 0.1512,0.2442 0.2264,0.531 0.2264,0.8601 0,0.2589 -0.0483,0.5111 -0.146,0.7568 -0.0976,0.2443 -0.2307,0.4409 -0.3991,0.5869 -0.1685,0.1461 -0.3767,0.2361 -0.6244,0.2707 -0.1547,0.0198 -0.5292,0.0332 -1.1226,0.0386l-1.5687 0 0 -5.7019zm0.9316 0.9491l0 1.3183 0.6095 0c0.3624,0 0.5879,-0.0067 0.6758,-0.0198 0.1588,-0.0228 0.2846,-0.0903 0.3755,-0.2032 0.0914,-0.1128 0.1364,-0.2615 0.1364,-0.446 0,-0.1768 -0.0388,-0.3202 -0.117,-0.4304 -0.0793,-0.11 -0.1964,-0.1764 -0.3511,-0.1989 -0.092,-0.0134 -0.3572,-0.02 -0.795,-0.02l-0.5341 0zm0 2.2676l0 1.524 0.8606 0c0.3358,0 0.5481,-0.0107 0.6383,-0.0346 0.1384,-0.0305 0.2511,-0.1076 0.338,-0.2269 0.0869,-0.1209 0.131,-0.2828 0.131,-0.4845 0,-0.1715 -0.0345,-0.3161 -0.1009,-0.4357 -0.0676,-0.1194 -0.1643,-0.207 -0.2909,-0.2615 -0.1267,-0.0545 -0.4024,-0.0808 -0.8253,-0.0808l-0.7508 0zm7.8715 2.4852l-1.013 0 -0.4024 -1.2958 -1.8423 0 -0.3799 1.2958 -0.9869 0 1.795 -5.7019 0.9841 0 1.8454 5.7019zm-1.7137 -2.2557l-0.6351 -2.1161 -0.6224 2.1161 1.2575 0zm2.2159 2.2557l0 -5.7019 0.9057 0 1.8863 3.8072 0 -3.8072 0.8648 0 0 5.7019 -0.9346 0 -1.8572 -3.7186 0 3.7186 -0.865 0zm4.6526 0l0 -5.7019 0.9302 0 0 2.5316 1.88 -2.5316 1.2512 0 -1.735 2.2209 1.8295 3.481 -1.2038 0 -1.2664 -2.6765 -0.7555 0.9533 0 1.7232 -0.9302 0z" fill="#2b2a29"/></g></svg>