<?xml version="1.0" encoding="UTF-8"?>
<!DOCTYPE svg PUBLIC "-//W3C//DTD SVG 1.1//EN" "http://www.w3.org/Graphics/SVG/1.1/DTD/svg11.dtd">
<!-- Creator: CorelDRAW -->
<svg xmlns="http://www.w3.org/2000/svg" xml:space="preserve" width="31.75mm" height="21.167mm" style="shape-rendering:geometricPrecision; text-rendering:geometricPrecision; image-rendering:optimizeQuality; fill-rule:evenodd; clip-rule:evenodd"
viewBox="0 0 31.75 21.167"
 xmlns:xlink="http://www.w3.org/1999/xlink">
 <defs>
  <style type="text/css">
   <![CDATA[
    .str0 {stroke:#C5C6C6;stroke-width:0.0762}
    .fil0 {fill:none}
    .fil3 {fill:#181818}
    .fil2 {fill:#FEDF00}
    .fil1 {fill:white}
   ]]>
  </style>
 </defs>
 <g id="Layer_x0020_1">
  <metadata id="CorelCorpID_0Corel-Layer"/>
  <g>
   <path class="fil0 str0" d="M1.0583 0.0002l29.6334 0c0.5843,0 1.0582,0.4739 1.0582,1.0583l0.0001 19.05c-0.0001,0.5842 -0.474,1.0581 -1.0584,1.0581l-29.6333 0.0002c-0.5843,-0.0002 -1.0582,-0.4741 -1.0582,-1.0585l-0.0001 -19.0498c0.0001,-0.5844 0.474,-1.0583 1.0584,-1.0583z"/>
   <path id="1" class="fil1" d="M1.0583 0.0002l29.6334 0c0.5843,0 1.0582,0.4739 1.0582,1.0583l0.0001 19.05c-0.0001,0.5842 -0.474,1.0581 -1.0584,1.0581l-29.6333 0.0002c-0.5843,-0.0002 -1.0582,-0.4741 -1.0582,-1.0585l-0.0001 -19.0498c0.0001,-0.5844 0.474,-1.0583 1.0584,-1.0583z"/>
  </g>
  <g>
   <path class="fil2" d="M2.5374 5.8649c0.0007,3.1456 -0.0003,6.2912 -0.0003,9.4372 5.658,0 11.3159,0 16.9738,0 3.2339,-0.0022 6.4681,0.0046 9.702,-0.0034 -0.0049,-3.1441 -0.0028,-6.2879 -0.0012,-9.432 -2.7626,-0.0049 -5.5256,-0.0006 -8.2885,-0.0021 -6.1286,-0.0001 -12.2572,-0.0004 -18.3858,0.0003z"/>
   <path class="fil3" d="M2.5374 5.8649c6.1286,-0.0007 12.2572,-0.0003 18.3858,-0.0003 2.7629,0.0015 5.5258,-0.0028 8.2885,0.0021 -0.0016,3.1441 -0.0037,6.2879 0.0012,9.432 -3.2339,0.008 -6.4681,0.0012 -9.702,0.0034 -5.6579,0 -11.3158,0 -16.9738,0 0,-3.146 0.001,-6.2916 0.0003,-9.4372z"/>
   <path class="fil2" d="M21.9328 9.3485c0.4039,-0.0016 0.808,0.004 1.2119,-0.0031 0.1658,0.4241 0.3033,0.8589 0.4581,1.2873 0.0364,0.0882 0.0484,0.1905 0.1146,0.2638 0.0165,-0.516 -0.0019,-1.0329 0.0092,-1.5489 0.273,0.0024 0.546,0.0003 0.819,0.0012 0.0009,0.8601 0.0003,1.7205 0.0003,2.5806 -0.4087,0.0055 -0.8178,0.0077 -1.2263,-0.0009 -0.1795,-0.5222 -0.3588,-1.0446 -0.546,-1.564 -0.0294,0.0901 -0.0174,0.1857 -0.0187,0.2789 0.0003,0.4296 0.0003,0.8592 0,1.2891 -0.2748,0.0003 -0.5494,0.0036 -0.8239,-0.0022 -0.0012,-0.8604 -0.0046,-1.7211 0.0018,-2.5818zm-5.2161 0.0006c0.3386,-0.0009 0.6772,0 1.0161,-0.0006 -0.0003,0.8613 0,1.7226 -0.0003,2.584 -0.3386,-0.001 -0.6778,0.0061 -1.0164,-0.004 0.0003,-0.8598 -0.0006,-1.7196 0.0006,-2.5794zm-3.4698 -0.0003c0.4063,-0.0009 0.8129,0.0009 1.2198,-0.0009 0.1916,0.5233 0.3616,1.0546 0.5605,1.5752 0.0291,-0.5239 0.0073,-1.0497 0.0141,-1.5746 0.2736,0 0.5472,0.0006 0.8209,-0.0003 0.0024,0.8616 0.0018,1.7229 0.0003,2.5846 -0.4082,-0.0009 -0.816,0.0043 -1.2242,-0.0028 -0.1394,-0.3937 -0.2739,-0.789 -0.413,-1.1827 -0.0478,-0.1303 -0.0824,-0.2663 -0.1498,-0.3889 -0.0172,0.5246 -0.0025,1.0501 -0.008,1.575 -0.273,0 -0.546,-0.0003 -0.8191,0 -0.0052,-0.8617 -0.0015,-1.723 -0.0015,-2.5846zm-3.2921 -0.0006c0.3374,0.0012 0.6747,0 1.0121,0.0006 0.004,0.5659 -0.0009,1.1319 0.0024,1.6978 0,0.0916 0.0285,0.1964 0.1122,0.2461 0.0849,0.0438 0.2065,0.0257 0.2592,-0.0592 0.0454,-0.0637 0.0472,-0.1449 0.0493,-0.22 0.0016,-0.5549 -0.0027,-1.1101 0.0031,-1.665 0.338,0.0009 0.676,-0.0006 1.0142,0.0009 0.0031,0.5237 0.0003,1.0473 0.0016,1.571 -0.0028,0.1517 0.003,0.3073 -0.0454,0.4535 -0.061,0.2071 -0.2166,0.3796 -0.41,0.4731 -0.3042,0.1526 -0.6557,0.1664 -0.9891,0.1449 -0.2702,-0.0233 -0.5527,-0.0944 -0.7583,-0.2813 -0.1759,-0.1605 -0.2571,-0.4032 -0.2531,-0.6376 0.0006,-0.5749 -0.0028,-1.15 0.0018,-1.7248zm9.8154 0.6076c-0.118,0.0242 -0.1624,0.1529 -0.1824,0.2574 -0.045,0.2623 -0.041,0.5319 -0.0107,0.7957 0.0175,0.1057 0.0402,0.2283 0.1351,0.2933 0.096,0.0521 0.2412,0.0383 0.3009,-0.0622 0.0638,-0.1061 0.076,-0.2326 0.0868,-0.3533 0.0125,-0.1937 0.0134,-0.3892 -0.0092,-0.5819 -0.0147,-0.1008 -0.031,-0.2093 -0.0984,-0.2902 -0.0527,-0.0659 -0.1452,-0.0726 -0.2221,-0.0588zm-0.2525 -0.6502c0.3766,-0.054 0.7893,-0.0273 1.1153,0.1872 0.2724,0.1719 0.4416,0.4734 0.501,0.7847 0.0457,0.2504 0.046,0.5111 -0.0077,0.7602 -0.0615,0.2795 -0.2083,0.5491 -0.4449,0.7177 -0.2721,0.1997 -0.622,0.2586 -0.9529,0.2417 -0.3417,-0.0138 -0.6962,-0.1369 -0.922,-0.4035 -0.2461,-0.2828 -0.3248,-0.6735 -0.3083,-1.0391 0.0123,-0.3223 0.1079,-0.6563 0.334,-0.895 0.1762,-0.1964 0.4293,-0.3077 0.6855,-0.3539zm8.931 -2.9113c0,0.0466 0.0003,0.0932 0.0012,0.1401 0.0684,-0.0132 0.1725,0.026 0.2078,-0.0555 0.0067,-0.1149 -0.1373,-0.0738 -0.209,-0.0846zm-0.0459 -0.0315c0.0931,0.0089 0.2046,-0.0248 0.2843,0.0368 0.0561,0.083 -0.0162,0.1639 -0.0971,0.1844 0.0401,0.0546 0.0787,0.1106 0.1115,0.1701 -0.1244,-0.0135 -0.1091,-0.2161 -0.2516,-0.1918 -0.0153,0.0625 0.034,0.166 -0.0423,0.1973 -0.0085,-0.1321 -0.0046,-0.2648 -0.0049,-0.3968zm-0.8169 5.528c-0.0009,-1.8792 -0.003,-3.7585 0.0013,-5.6374 0.1014,0.0012 0.2031,0.0009 0.3048,-0.0012 0.012,1.8789 0.0022,3.7581 0.0053,5.6371 -0.1039,0.0018 -0.2078,0.0024 -0.3114,0.0015zm0.851 -5.6184c-0.137,0.0398 -0.2161,0.1921 -0.1931,0.3288 0.0163,0.1608 0.1823,0.2813 0.3407,0.2454 0.1692,-0.0248 0.2694,-0.2175 0.2219,-0.3753 -0.0334,-0.1597 -0.2191,-0.2541 -0.3696,-0.1989zm-0.0284 -0.03c0.1737,-0.0727 0.3906,0.0327 0.4412,0.2138 0.0714,0.2047 -0.1069,0.4471 -0.3254,0.4312 -0.2127,0.0076 -0.3836,-0.2271 -0.3165,-0.4275 0.0312,-0.0971 0.1048,-0.1805 0.2007,-0.2175zm-6.4773 -0.0062c0.4069,-0.0012 0.8138,-0.0018 1.2207,0 0.167,0.4774 0.3362,0.9539 0.5013,1.4319 0.016,0.045 0.0383,0.0873 0.0619,0.129 0.0199,-0.5194 0.0028,-1.0403 0.0089,-1.5603 0.274,-0.0036 0.5482,-0.0015 0.8221,-0.0006 0,0.8617 0.0006,1.723 -0.0003,2.5846 -0.4087,0 -0.8178,0.0037 -1.2269,-0.0021 -0.1357,-0.4097 -0.2837,-0.8151 -0.4225,-1.2238 -0.0444,-0.1162 -0.0726,-0.2393 -0.1358,-0.3472 -0.0125,0.5234 -0.0018,1.0476 -0.0055,1.5716 -0.2751,0.0046 -0.5503,0.0018 -0.8255,0.0015 0.001,-0.8616 -0.0015,-1.7229 0.0016,-2.5846zm-2.2025 0.5844c-0.0022,0.1651 0.0006,0.3303 -0.0028,0.4954 0.1278,-0.003 0.2804,0.0062 0.3742,-0.0977 0.0787,-0.0978 0.0802,-0.2739 -0.0301,-0.3493 -0.1035,-0.0582 -0.227,-0.0441 -0.3413,-0.0484zm-1.006 -0.5847c0.4673,-0.0018 0.9349,0 1.4022,-0.0009 0.2255,-0.0012 0.4596,0.0034 0.6713,0.091 0.1603,0.0641 0.2871,0.209 0.3199,0.38 0.0399,0.1982 0.0273,0.4283 -0.1112,0.5877 -0.0974,0.1188 -0.247,0.1722 -0.3885,0.216 0.1146,0.0331 0.2445,0.0478 0.3309,0.1391 0.1177,0.1088 0.1302,0.2779 0.1517,0.4268 0.0266,0.2504 0.0582,0.5013 0.1244,0.7452 -0.3319,-0.0021 -0.664,0.008 -0.9956,-0.0052 -0.0554,-0.2341 -0.0836,-0.4734 -0.1198,-0.7109 -0.0116,-0.0576 -0.0205,-0.1259 -0.0732,-0.1617 -0.0916,-0.0601 -0.2062,-0.0451 -0.3098,-0.0485 -0.0015,0.3086 0,0.6172 -0.0009,0.9257 -0.3337,0.0015 -0.6674,0.004 -1.0011,-0.0015 0.0006,-0.8607 0.0013,-1.7218 -0.0003,-2.5828zm-2.7402 0.0003c0.6545,-0.0024 1.3093,-0.0006 1.9638,-0.0009 0.0012,0.2225 0.0033,0.4449 -0.0013,0.6674 -0.33,0.0015 -0.66,0.0006 -0.99,0.0003 -0.0006,0.0956 -0.0006,0.1912 0.0016,0.2868 0.3027,-0.0028 0.6054,0.0012 0.9082,-0.0025 0.0073,0.2219 0.0018,0.4437 0.0036,0.6653 -0.3039,0.0085 -0.6079,0.0033 -0.9118,0.003 -0.0028,0.1011 -0.0025,0.2023 -0.0003,0.3031 0.3404,0.0006 0.6808,-0.001 1.0215,0.0009 -0.0015,0.2212 0.0043,0.4428 -0.0033,0.664 -0.6643,-0.0064 -1.329,0.0028 -1.9936,-0.0046 0.0022,-0.861 -0.0006,-1.7217 0.0016,-2.5828zm-2.9796 0.6839c-0.0021,-0.2285 -0.004,-0.4574 0.0009,-0.686 0.7654,0.0043 1.5312,-0.0034 2.2966,0.004 -0.0037,0.2279 0.0034,0.4559 -0.0046,0.6836 -0.212,0.0018 -0.4238,0 -0.6355,0.0012 -0.0049,0.6321 0.0015,1.2643 -0.0034,1.8961 -0.338,0.0049 -0.6759,0.0021 -1.0139,0.0015 -0.0018,-0.6324 0.0012,-1.2652 -0.0015,-1.8976 -0.213,-0.0021 -0.4256,0.0025 -0.6386,-0.0027zm-5.6503 -0.684c0.6558,-0.0015 1.3112,-0.0018 1.9666,0 -0.0012,0.2225 -0.0003,0.4449 -0.0006,0.6677 -0.3291,-0.0012 -0.6585,0.0003 -0.9876,-0.0012 -0.0018,0.0956 -0.0024,0.1909 -0.0034,0.2865 0.3052,0.0006 0.6107,-0.0022 0.9162,0.0012 0.0028,0.2206 0.0015,0.4412 0.0009,0.6619 -0.3048,0.0101 -0.6103,0.0009 -0.9152,0.0055 -0.0015,0.1002 -0.0006,0.2004 0.0024,0.3006 0.3392,0.0012 0.6784,-0.0003 1.0176,0.0009 0,0.2206 0.0006,0.4412 -0.0003,0.6618 -0.6658,-0.0012 -1.3313,0.0043 -1.9972,-0.0027 0.0003,-0.8607 -0.0009,-1.7215 0.0006,-2.5822zm-4.4414 -0.0024c0.3018,0.003 0.6039,0.0006 0.9057,0.0015 0.0561,0.3968 0.1054,0.7945 0.1612,1.1917 0.0218,0.147 0.0306,0.2969 0.0723,0.4403 0.0935,-0.5412 0.1676,-1.0853 0.2455,-1.6289 0.352,-0.0071 0.7041,-0.0016 1.0565,-0.0028 0.0524,0.3674 0.1084,0.7345 0.1618,1.1019 0.0291,0.1734 0.0438,0.3499 0.0903,0.52 0.0923,-0.5372 0.1523,-1.0795 0.2253,-1.6197 0.3024,-0.0049 0.6051,-0.0031 0.9079,-0.001 -0.1814,0.8617 -0.3745,1.7206 -0.5549,2.5825 -0.3693,0.0049 -0.7382,0.0018 -1.1074,0.0012 -0.0861,-0.5592 -0.1496,-1.1227 -0.2494,-1.6794 -0.1058,0.5564 -0.1615,1.1218 -0.2547,1.681 -0.3686,-0.0028 -0.7372,0.0033 -1.1055,-0.0034 -0.1774,-0.8632 -0.3741,-1.7224 -0.5546,-2.5849zm22.3666 -0.0331c0.1033,-0.0009 0.2069,-0.0009 0.3104,-0.0003 0.0016,1.8994 0.0012,3.7986 0.0003,5.6981 -0.1041,0.0003 -0.208,0 -0.3119,-0.001 -0.0006,-1.8988 -0.0031,-3.798 0.0012,-5.6968zm-14.9946 0.2387c0.2629,-0.2194 0.6226,-0.2709 0.9548,-0.2669 0.3015,-0.0028 0.6269,0.0392 0.8702,0.2323 0.1679,0.1329 0.2423,0.3508 0.2433,0.5598 -0.3015,0.0006 -0.6031,0.0006 -0.9046,-0.0006 -0.0156,-0.0754 -0.0331,-0.1676 -0.1152,-0.1974 -0.1146,-0.03 -0.2644,-0.0346 -0.349,0.0632 -0.0502,0.0922 0.0052,0.2049 0.1054,0.2288 0.3178,0.0999 0.6542,0.1499 0.9554,0.2982 0.1759,0.0858 0.3162,0.2454 0.3628,0.4372 0.0668,0.2776 -0.0034,0.5985 -0.216,0.7973 -0.2157,0.1961 -0.5136,0.2681 -0.797,0.2905 -0.3588,0.0254 -0.7449,0.0037 -1.0608,-0.1854 -0.2283,-0.1366 -0.3459,-0.4026 -0.3481,-0.6624 0.3233,-0.0013 0.6465,-0.0013 0.9698,0 0.0153,0.0864 0.0288,0.1899 0.1116,0.2399 0.1118,0.0622 0.2763,0.0567 0.3637,-0.0454 0.0655,-0.0732 0.0701,-0.2077 -0.0181,-0.2656 -0.0965,-0.0601 -0.2117,-0.0775 -0.3187,-0.1122 -0.1958,-0.0597 -0.394,-0.1127 -0.5883,-0.1771 -0.1756,-0.0585 -0.3392,-0.1786 -0.413,-0.3521 -0.1162,-0.2953 -0.0598,-0.6728 0.1918,-0.8821z"/>
  </g>
 </g>
</svg>
