<?xml version="1.0" encoding="UTF-8"?>
<!DOCTYPE svg PUBLIC "-//W3C//DTD SVG 1.1//EN" "http://www.w3.org/Graphics/SVG/1.1/DTD/svg11.dtd">
<!-- Creator: CorelDRAW -->
<svg xmlns="http://www.w3.org/2000/svg" xml:space="preserve" width="31.75mm" height="21.167mm" style="shape-rendering:geometricPrecision; text-rendering:geometricPrecision; image-rendering:optimizeQuality; fill-rule:evenodd; clip-rule:evenodd"
viewBox="0 0 31.75 21.167"
 xmlns:xlink="http://www.w3.org/1999/xlink">
 <defs>
  <style type="text/css">
   <![CDATA[
    .str0 {stroke:#C5C6C6;stroke-width:0.0762}
    .fil0 {fill:none}
    .fil6 {fill:#280F03}
    .fil4 {fill:#F2B101}
    .fil3 {fill:#FDBC01}
    .fil5 {fill:#FDCA01}
    .fil2 {fill:#FDDD7C}
    .fil1 {fill:white}
   ]]>
  </style>
 </defs>
 <g id="Layer_x0020_1">
  <metadata id="CorelCorpID_0Corel-Layer"/>
  <g>
   <path class="fil0 str0" d="M1.0583 0.0002l29.6334 0c0.5843,0 1.0582,0.4739 1.0582,1.0583l0.0001 19.05c-0.0001,0.5842 -0.474,1.0581 -1.0584,1.0581l-29.6333 0.0002c-0.5843,-0.0002 -1.0582,-0.4741 -1.0582,-1.0585l-0.0001 -19.0498c0.0001,-0.5844 0.474,-1.0583 1.0584,-1.0583z"/>
   <path id="1" class="fil1" d="M1.0583 0.0002l29.6334 0c0.5843,0 1.0582,0.4739 1.0582,1.0583l0.0001 19.05c-0.0001,0.5842 -0.474,1.0581 -1.0584,1.0581l-29.6333 0.0002c-0.5843,-0.0002 -1.0582,-0.4741 -1.0582,-1.0585l-0.0001 -19.0498c0.0001,-0.5844 0.474,-1.0583 1.0584,-1.0583z"/>
  </g>
  <g>
   <g id="_414557360">
    <path id="_433405952" class="fil2" d="M9.3787 4.7364c0.0765,-0.4097 0.2215,-0.7947 0.4281,-1.1555 0.3507,-0.6125 1.1523,-0.8842 1.9207,-0.6306 1.9224,0.6343 3.7215,1.5355 5.4639,2.5559 1.4793,0.8663 2.8557,1.8793 4.1781,2.9659 0.2446,0.2009 0.5449,0.3554 0.6892,0.6647 -0.114,-0.0348 -0.228,-0.0696 -0.3421,-0.1043 -0.0964,-0.0701 -0.1869,-0.1508 -0.2903,-0.2086 -1.9479,-1.0898 -3.937,-2.0936 -6.0401,-2.8545 -1.4648,-0.53 -2.9552,-0.9482 -4.5288,-0.9686 -0.4787,-0.0062 -0.9405,0.1419 -1.4154,0.1777 -0.0255,-0.1468 0.065,-0.3101 -0.0633,-0.4421z"/>
    <path id="_433408424" class="fil3" d="M9.3787 4.7364c0.1283,0.132 0.0378,0.2953 0.0633,0.4421 -0.0333,1.6277 0.0926,3.2459 0.247,4.8653 0.1182,1.2408 0.3159,2.464 0.6066,3.6731 0.0742,0.3086 0.1044,0.6386 0.3097,0.905l0.2076 0.6416c0.2327,0.8759 0.6843,1.6252 1.3107,2.2745 0.0743,0.077 0.1607,0.1054 0.2632,0.0988 -0.0109,0.1025 0.0933,0.1286 0.1317,0.1985 -0.445,0.2335 -0.9093,0.4161 -1.4124,0.464 -0.9735,0.0927 -1.6237,-0.3498 -1.8636,-1.2992 -0.2217,-0.8774 -0.3063,-1.7795 -0.3929,-2.6785 -0.1928,-2.0004 -0.1832,-4.002 0.0007,-6.0025 0.1106,-1.2035 0.2895,-2.3977 0.5284,-3.5827z"/>
    <path id="_382867656" class="fil4" d="M12.5185 17.8353c-0.0384,-0.0699 -0.1426,-0.096 -0.1317,-0.1985 0.0517,-0.0158 0.108,-0.0233 0.1543,-0.0488 0.9248,-0.5094 1.8421,-1.036 2.7133,-1.6299 1.6374,-1.1161 3.2134,-2.3105 4.5127,-3.8306 0.5033,-0.5887 0.9588,-1.2057 1.3601,-1.8688 0.2376,-0.3927 0.343,-0.8421 0.5894,-1.2262 0.1141,0.0347 0.2281,0.0695 0.3421,0.1043 0.4332,0.3103 0.8181,0.6678 0.9366,1.211 0.1625,0.7444 -0.1146,1.3435 -0.6779,1.8253 -1.1517,0.9851 -2.3702,1.8795 -3.6541,2.6852 -1.8009,1.13 -3.6947,2.0737 -5.6789,2.8361 -0.1511,0.058 -0.3105,0.0944 -0.4659,0.1409z"/>
    <path id="_433416104" class="fil5" d="M21.7166 9.0325c-0.2464,0.3841 -0.3518,0.8335 -0.5894,1.2262 -0.4013,0.6631 -0.8568,1.2801 -1.3601,1.8688 -1.2993,1.5201 -2.8753,2.7145 -4.5127,3.8306 -0.8712,0.5939 -1.7885,1.1205 -2.7133,1.6299 -0.0463,0.0255 -0.1026,0.033 -0.1543,0.0488 -0.1025,0.0066 -0.1889,-0.0218 -0.2632,-0.0988 -0.6264,-0.6493 -1.078,-1.3986 -1.3107,-2.2745l-0.2076 -0.6416c-0.2053,-0.2664 -0.2355,-0.5964 -0.3097,-0.905 -0.2907,-1.2091 -0.4884,-2.4323 -0.6066,-3.6731 -0.1544,-1.6194 -0.2803,-3.2376 -0.247,-4.8653 0.4749,-0.0358 0.9367,-0.1839 1.4154,-0.1777 1.5736,0.0204 3.064,0.4386 4.5288,0.9686 2.1031,0.7609 4.0922,1.7647 6.0401,2.8545 0.1034,0.0578 0.1939,0.1385 0.2903,0.2086z"/>
   </g>
   <path class="fil6" d="M11.2474 9.158c0.1753,-0.1098 0.3283,-0.2461 0.4808,-0.3826 0.1855,-0.1661 0.1841,-0.1671 0.0295,-0.3539 -0.0926,-0.1118 -0.1837,-0.2248 -0.2765,-0.3364 -0.0159,-0.0191 -0.0261,-0.0531 -0.0591,-0.0439 -0.0269,0.0074 -0.0216,0.0373 -0.0235,0.0587 -0.0098,0.108 -0.0657,0.15 -0.1754,0.1456 -0.1717,-0.0068 -0.3439,-0.0041 -0.5159,-0.0008 -0.0919,0.0017 -0.1328,-0.0228 -0.1158,-0.1268 0.0354,-0.2172 0.0631,-0.2474 0.2801,-0.2709 0.3084,-0.0334 0.6172,-0.0407 0.9267,-0.0216 0.0453,0.0028 0.0908,0.0113 0.135,0.0222 0.3839,0.0952 0.4986,0.2638 0.4448,0.6542 -0.013,0.0944 -0.0213,0.1907 -0.0471,0.2818 -0.1037,0.3671 -0.361,0.5649 -0.7266,0.627 -0.2145,0.0365 -0.4319,0.0613 -0.6498,0.0259 -0.0691,-0.0112 -0.0924,0.0152 -0.1061,0.0806 -0.039,0.1866 -0.0885,0.3709 -0.1286,0.5573 -0.0211,0.0981 -0.0726,0.1457 -0.1744,0.1418 -0.0838,-0.0032 -0.168,-0.0012 -0.252,-0.0006 -0.0744,0.0006 -0.1057,-0.0341 -0.0908,-0.108 0.0741,-0.3664 0.1483,-0.7328 0.2224,-1.0993 0.0107,-0.053 0.0414,-0.0757 0.0968,-0.0752 0.2103,0.0017 0.4205,0.0013 0.6308,0.0003 0.0736,-0.0003 0.1062,0.0281 0.09,0.1053 -0.0075,0.0356 -0.0234,0.0735 0.0047,0.1193zm3.0559 1.7422c-0.1859,0.0107 -0.3645,-0.0078 -0.5279,-0.1122 -0.1011,-0.0645 -0.0804,-0.1403 -0.0476,-0.2281 0.0359,-0.0957 0.1008,-0.0695 0.1689,-0.0487 0.1857,0.0569 0.3768,0.0573 0.5679,0.0462 0.1291,-0.0075 0.1774,-0.0608 0.2084,-0.1878 0.0201,-0.0827 -0.0093,-0.0911 -0.0785,-0.0768 -0.1214,0.0251 -0.2429,0.0171 -0.364,-0.0074 -0.2772,-0.056 -0.4345,-0.2491 -0.4405,-0.5321 -0.0054,-0.2555 0.0447,-0.5002 0.1217,-0.742 0.1084,-0.3407 0.357,-0.4875 0.6959,-0.5142 0.2351,-0.0186 0.4643,0.0238 0.6929,0.0701 0.0761,0.0155 0.1087,0.0633 0.0943,0.1424 -0.1017,0.5594 -0.1967,1.1201 -0.3062,1.6779 -0.0699,0.3557 -0.2492,0.4954 -0.6134,0.5123 -0.0572,0.0026 -0.1146,0.0004 -0.1719,0.0004zm-0.0986 -1.2829l0 0c-0.0019,0.2846 0.0683,0.3548 0.3055,0.3469 0.0568,-0.002 0.1132,-0.0156 0.1701,-0.0202 0.0652,-0.0053 0.0894,-0.042 0.0997,-0.1032 0.0491,-0.2933 0.1009,-0.5861 0.1534,-0.8788 0.0105,-0.0582 -0.0055,-0.0931 -0.0628,-0.1153 -0.2164,-0.0838 -0.4903,0.0338 -0.5653,0.2555 -0.0612,0.181 -0.0927,0.3696 -0.1006,0.5151zm-3.4975 2.2473c-0.1109,0.0001 -0.2218,0.0004 -0.3328,0 -0.0722,-0.0002 -0.1141,0.032 -0.1238,0.1062 -0.0152,0.1173 -0.0367,0.234 -0.0489,0.3517 -0.0154,0.1481 0.0332,0.2034 0.1861,0.2079 0.1758,0.0051 0.3518,0.0015 0.5276,0.0038 0.0593,0.0008 0.1334,-0.032 0.1476,0.074 0.0171,0.1275 -0.012,0.2367 -0.1017,0.2504 -0.3286,0.0504 -0.6605,0.0995 -0.983,-0.0305 -0.1598,-0.0643 -0.2625,-0.2925 -0.2248,-0.5224 0.0681,-0.4141 0.1413,-0.8278 0.2274,-1.2384 0.0703,-0.3354 0.2531,-0.4882 0.592,-0.5233 0.2444,-0.0253 0.4887,-0.0078 0.7324,0.0171 0.0748,0.0077 0.1087,0.0507 0.0998,0.1248 -0.011,0.0927 0.0011,0.206 -0.1312,0.2198 -0.1136,0.0118 -0.2289,0.0072 -0.3435,0.01 -0.1069,0.0027 -0.2138,0.0046 -0.3207,0.009 -0.1049,0.0043 -0.1668,0.0618 -0.1968,0.161 -0.0334,0.1103 -0.0445,0.2245 -0.0655,0.3369 -0.0125,0.0668 0.0124,0.0851 0.0778,0.084 0.2179,-0.0034 0.4359,-0.002 0.6539,-0.0009 0.126,0.0006 0.1453,0.0256 0.1234,0.1514 -0.0337,0.1944 -0.0489,0.2074 -0.2429,0.2074 -0.0842,0 -0.1683,0 -0.2524,0.0001zm2.6208 0.2802c-0.1376,0 -0.2754,0.0043 -0.4127,-0.0016 -0.087,-0.0038 -0.1159,0.0391 -0.1225,0.1142 -0.0135,0.1549 0.0787,0.2646 0.2362,0.2783 0.2007,0.0174 0.3965,-0.0108 0.5875,-0.0708 0.0867,-0.0272 0.1114,-0.0043 0.1078,0.0867 -0.0069,0.168 -0.031,0.2139 -0.1914,0.2708 -0.2206,0.0782 -0.4432,0.1471 -0.6816,0.0807 -0.3046,-0.0847 -0.4573,-0.2837 -0.4646,-0.5985 -0.0053,-0.2243 0.0282,-0.4411 0.1062,-0.6512 0.1432,-0.3855 0.3611,-0.5435 0.7732,-0.5612 0.3817,-0.0164 0.6149,0.2038 0.6339,0.6066 0.0052,0.1101 -0.0094,0.221 -0.0122,0.3317 -0.0022,0.0827 -0.0463,0.1153 -0.1241,0.1151 -0.1452,-0.0005 -0.2905,-0.0002 -0.4357,-0.0002 0,-0.0002 0,-0.0004 0,-0.0006zm-0.162 -0.2993l0 0c0.0842,0 0.1684,-0.0026 0.2525,0.0008 0.0698,0.0029 0.0949,-0.0322 0.1002,-0.0955 0.0112,-0.1359 -0.0876,-0.2703 -0.2218,-0.2924 -0.2244,-0.037 -0.3812,0.1192 -0.4174,0.3428 -0.0085,0.0524 0.0286,0.0436 0.0571,0.0439 0.0764,0.0011 0.1529,0.0004 0.2294,0.0004zm6.0593 1.0634c-0.4191,0.0191 -0.6163,-0.4025 -0.552,-0.7485 0.0405,-0.2173 0.0659,-0.4364 0.1669,-0.6389 0.227,-0.4552 0.7463,-0.4945 1.0541,-0.3722 0.1919,0.0762 0.3013,0.2365 0.3181,0.4416 0.0274,0.335 -0.0427,0.6578 -0.2033,0.9496 -0.1455,0.2643 -0.4011,0.3614 -0.7838,0.3684zm0.5724 -1.1437l0 0c-0.0004,-0.1813 -0.0474,-0.2556 -0.1782,-0.2936 -0.1719,-0.0501 -0.3528,0.0393 -0.4267,0.2192 -0.0777,0.1889 -0.1054,0.3897 -0.1164,0.592 -0.0051,0.0937 0.0326,0.172 0.1212,0.2169 0.1723,0.0874 0.4033,0.0111 0.4722,-0.1694 0.0705,-0.1848 0.1144,-0.3783 0.1279,-0.5651zm-2.7896 -2.5948c-0.0139,0.2041 -0.0556,0.4515 -0.1597,0.684 -0.2188,0.4889 -0.7776,0.5309 -1.0884,0.3845 -0.1978,-0.0932 -0.2701,-0.2754 -0.2887,-0.4764 -0.0274,-0.2951 0.0301,-0.5807 0.1634,-0.8434 0.1812,-0.357 0.6228,-0.5213 1.0006,-0.3881 0.2524,0.0889 0.3759,0.2844 0.3728,0.6394zm-1.1286 0.4537l0 0c-0.0053,0.197 0.0449,0.2851 0.179,0.3124 0.1857,0.0378 0.3332,-0.0363 0.4115,-0.2104 0.0795,-0.1767 0.1109,-0.3647 0.1188,-0.5565 0.0104,-0.2539 -0.1549,-0.3719 -0.3942,-0.2833 -0.1113,0.0412 -0.1835,0.1226 -0.22,0.2334 -0.0539,0.1637 -0.0907,0.3312 -0.0951,0.5044zm-3.0457 0.6825c-0.1108,0.0076 -0.225,-0.0044 -0.3365,-0.0329 -0.2812,-0.0719 -0.3825,-0.2712 -0.308,-0.5996 0.0594,-0.2618 0.2138,-0.3976 0.4866,-0.4226 0.1294,-0.0119 0.2592,-0.0188 0.3889,-0.0254 0.1425,-0.0073 0.1633,-0.0282 0.1705,-0.1832 0.0052,-0.1101 -0.0446,-0.1776 -0.1556,-0.1884 -0.1695,-0.0165 -0.3351,0.0098 -0.4957,0.0672 -0.1111,0.0396 -0.1261,0.0289 -0.1356,-0.0916 -0.0087,-0.1108 0.0294,-0.2013 0.1353,-0.2412 0.2476,-0.0934 0.5024,-0.134 0.7632,-0.059 0.2092,0.0601 0.311,0.1921 0.3077,0.4135 -0.0043,0.2878 -0.0873,0.5653 -0.1261,0.8488 -0.014,0.1021 -0.0374,0.2028 -0.0544,0.3044 -0.0163,0.0968 -0.078,0.1471 -0.1688,0.1623 -0.1544,0.0258 -0.3088,0.0558 -0.4715,0.0477zm0.1372 -0.797l0 0c-0.0684,0.0062 -0.1373,0.0091 -0.2051,0.0193 -0.0839,0.0128 -0.1397,0.0663 -0.159,0.1463 -0.019,0.0788 -0.0628,0.1657 0.0126,0.2378 0.1094,0.1047 0.2442,0.0938 0.378,0.0679 0.113,-0.0219 0.1007,-0.1176 0.1101,-0.1998 0.0035,-0.0303 0.0125,-0.0598 0.0178,-0.0899 0.0309,-0.1735 0.0258,-0.1794 -0.1544,-0.1816zm-1.3855 1.6021c0.1643,0.0067 0.1909,-0.009 0.2095,-0.1515 0.06,-0.4612 0.3828,-0.5381 0.7773,-0.4748 0.067,0.0107 0.0761,0.0566 0.0698,0.1099 -0.0097,0.0825 -0.0064,0.1757 -0.1219,0.1909 -0.0605,0.0079 -0.1224,0.0087 -0.1816,0.022 -0.0921,0.0207 -0.1683,0.1825 -0.1317,0.2684 0.0106,0.025 0.0307,0.0323 0.0547,0.033 0.0306,0.001 0.0612,0.0004 0.0918,0.0013 0.0779,0.0022 0.171,-0.0213 0.1745,0.1054 0.0039,0.1449 -0.0475,0.2102 -0.1744,0.2177 -0.0305,0.0018 -0.0613,0.003 -0.0918,0.001 -0.0924,-0.0058 -0.1372,0.0337 -0.1534,0.1281 -0.0788,0.4591 -0.1627,0.9173 -0.2452,1.3757 -0.0795,0.4419 -0.3829,0.4975 -0.7599,0.4438 -0.0669,-0.0095 -0.0875,-0.0601 -0.0767,-0.1191 0.013,-0.0708 -0.002,-0.1623 0.1043,-0.1791 0.0223,-0.0035 0.0458,0.0004 0.0687,0.0006 0.1736,0.0016 0.2256,-0.0339 0.2579,-0.2089 0.0827,-0.4467 0.1592,-0.8946 0.2379,-1.3421 0.0192,-0.1091 -0.0657,-0.091 -0.1248,-0.0979 -0.1494,-0.0176 -0.2059,-0.113 -0.1477,-0.2497 0.0379,-0.0891 0.1129,-0.0759 0.1627,-0.0747zm6.206 1.4416c0.0672,-0.0613 0.1005,-0.1413 0.1327,-0.2215 0.1439,-0.3573 0.2906,-0.7136 0.4285,-1.0733 0.0421,-0.1096 0.1023,-0.1529 0.2211,-0.1501 0.2897,0.0066 0.2893,0.0013 0.1714,0.2611 -0.1891,0.4169 -0.3775,0.8342 -0.5663,1.2513 -0.1019,0.2252 -0.3018,0.3273 -0.5413,0.2767 -0.1244,-0.0263 -0.2005,-0.1074 -0.2158,-0.2491 -0.0487,-0.4521 -0.0953,-0.9045 -0.1386,-1.3571 -0.0161,-0.168 0.0003,-0.1802 0.174,-0.1805 0.2321,-0.0004 0.2264,0 0.2407,0.2329 0.0232,0.3774 0.0187,0.7564 0.0648,1.1324 0.0031,0.026 0.0006,0.054 0.0288,0.0772zm-1.8217 0.3431c-0.042,0 -0.0846,0.0043 -0.126,-0.0007 -0.1971,-0.0241 -0.2994,-0.1403 -0.2854,-0.3429 0.0189,-0.2705 0.0843,-0.5346 0.1253,-0.8022 0.004,-0.0264 0.01,-0.0525 0.0132,-0.0789 0.0076,-0.0642 0.0359,-0.1366 0.0158,-0.1909 -0.0259,-0.0699 -0.1152,-0.0297 -0.1749,-0.0467 -0.0915,-0.0259 -0.1343,-0.0774 -0.1265,-0.1741 0.0078,-0.0965 0.0566,-0.1459 0.1527,-0.1489 0.0268,-0.0009 0.0539,-0.0031 0.0802,0.0002 0.1149,0.0141 0.1743,-0.0307 0.1722,-0.1513 -0.0019,-0.0985 0.049,-0.156 0.1466,-0.1724 0.0187,-0.0032 0.0364,-0.0132 0.0551,-0.0152 0.2514,-0.0265 0.2755,-0.0553 0.2167,0.2059 -0.026,0.1159 -0.0123,0.1269 0.1262,0.1325 0.1756,0.0071 0.2174,0.0738 0.1521,0.2346 -0.0294,0.0726 -0.0815,0.09 -0.1535,0.091 -0.1976,0.0029 -0.1997,0.0046 -0.2341,0.1983 -0.0473,0.2665 -0.0863,0.5347 -0.1385,0.8003 -0.0208,0.1058 0.016,0.1401 0.113,0.1435 0.0815,0.0029 0.1979,-0.0542 0.1942,0.1075 -0.0029,0.129 -0.0881,0.2084 -0.2327,0.2117 -0.0306,0.0007 -0.0611,0.0001 -0.0917,0.0001 0,-0.0005 0,-0.0009 0,-0.0014zm-0.8582 -0.4222c0.0492,0.2756 -0.0219,0.3778 -0.291,0.3981 -0.1099,0.0083 -0.2182,0.0443 -0.3302,0.0237 -0.2881,-0.053 -0.4631,-0.2639 -0.4632,-0.5782 0,-0.2731 0.0494,-0.5383 0.1608,-0.7906 0.2092,-0.4743 0.7618,-0.5135 1.1052,-0.3428 0.1311,0.0651 0.0454,0.1748 0.0345,0.265 -0.0105,0.0867 -0.0815,0.0616 -0.1355,0.0586 -0.0684,-0.0038 -0.1359,-0.0106 -0.202,-0.035 -0.1662,-0.0615 -0.3397,0.0067 -0.413,0.1659 -0.1041,0.2264 -0.1376,0.4676 -0.1305,0.7148 0.0032,0.1141 0.0697,0.1685 0.1803,0.1838 0.1678,0.0231 0.324,-0.0358 0.4846,-0.0633zm1.8059 -1.3644c0.0268,0 0.0537,0.0014 0.0803,-0.0002 0.0972,-0.006 0.1318,0.0392 0.1149,0.1331 -0.0707,0.3946 -0.1404,0.7893 -0.21,1.1839 -0.0193,0.1091 -0.0379,0.2182 -0.055,0.3276 -0.0133,0.0849 -0.06,0.1242 -0.1469,0.1285 -0.2784,0.0139 -0.2894,0.0057 -0.2441,-0.2713 0.0741,-0.452 0.1517,-0.9034 0.2286,-1.3548 0.0227,-0.1332 0.0429,-0.1451 0.2322,-0.1468zm0.1191 -0.6223c0.0069,-0.0008 0.022,-0.0035 0.0372,-0.0043 0.1427,-0.0074 0.176,0.0297 0.1528,0.1699 -0.0384,0.2322 -0.1608,0.3039 -0.3926,0.2295 -0.0173,-0.0056 -0.0407,-0.0138 -0.0473,-0.0275 -0.0495,-0.1025 -0.006,-0.2011 0.022,-0.2981 0.0192,-0.0665 0.0782,-0.075 0.1397,-0.0699 0.0264,0.0022 0.0533,0.0004 0.0882,0.0004z"/>
  </g>
 </g>
</svg>
