<?xml version="1.0" encoding="UTF-8"?>
<!DOCTYPE svg PUBLIC "-//W3C//DTD SVG 1.1//EN" "http://www.w3.org/Graphics/SVG/1.1/DTD/svg11.dtd">
<!-- Creator: CorelDRAW -->
<svg xmlns="http://www.w3.org/2000/svg" xml:space="preserve" width="31.75mm" height="21.167mm" style="shape-rendering:geometricPrecision; text-rendering:geometricPrecision; image-rendering:optimizeQuality; fill-rule:evenodd; clip-rule:evenodd"
viewBox="0 0 31.75 21.167"
 xmlns:xlink="http://www.w3.org/1999/xlink">
 <defs>
  <style type="text/css">
   <![CDATA[
    .str0 {stroke:#C5C6C6;stroke-width:0.0762}
    .fil0 {fill:none}
    .fil2 {fill:#221F1F}
    .fil1 {fill:white}
   ]]>
  </style>
 </defs>
 <g id="Layer_x0020_1">
  <metadata id="CorelCorpID_0Corel-Layer"/>
  <g>
   <path class="fil0 str0" d="M1.0583 0.0002l29.6334 0c0.5843,0 1.0582,0.4739 1.0582,1.0583l0.0001 19.05c-0.0001,0.5842 -0.474,1.0581 -1.0584,1.0581l-29.6333 0.0002c-0.5843,-0.0002 -1.0582,-0.4741 -1.0582,-1.0585l-0.0001 -19.0498c0.0001,-0.5844 0.474,-1.0583 1.0584,-1.0583z"/>
   <path id="1" class="fil1" d="M1.0583 0.0002l29.6334 0c0.5843,0 1.0582,0.4739 1.0582,1.0583l0.0001 19.05c-0.0001,0.5842 -0.474,1.0581 -1.0584,1.0581l-29.6333 0.0002c-0.5843,-0.0002 -1.0582,-0.4741 -1.0582,-1.0585l-0.0001 -19.0498c0.0001,-0.5844 0.474,-1.0583 1.0584,-1.0583z"/>
  </g>
  <path class="fil2" d="M4.6064 17.6124l0.9007 0 0 -14.1799 -0.9007 0 0 14.1799zm2.2583 -4.1755l0.9007 0 0 -10.0045 -0.9007 0 0 10.0045zm3.4098 0l1.5763 0 0 -10.0045 -1.5763 0 0 10.0045zm2.9595 0l0.7656 0 0 -10.0045 -0.7656 0 0 10.0045zm3.9567 0l0.5469 0 0 -10.0045 -0.5469 0 0 10.0045zm1.9044 0l1.5763 0 0 -10.0045 -1.5763 0 0 10.0045zm4.8897 0l0.9007 0 0 -10.0045 -0.9007 0 0 10.0045zm2.2582 4.1755l0.9007 0 0 -14.1799 -0.9007 0 0 14.1799zm-17.7506 -1.8208c0.3024,-0.1029 0.5147,-0.386 0.5147,-0.727 0,-0.4246 -0.341,-0.7656 -0.7656,-0.7656l-1.512 0 0 3.3134 1.5055 0 0 0c0.5018,-0.0129 0.9072,-0.4246 0.9072,-0.9329 0.0064,-0.4182 -0.2703,-0.7721 -0.6498,-0.8879zm-1.0616 -1.023l0.4375 0c0.2445,0 0.4439,0.1994 0.4439,0.4439 0,0.2445 -0.1994,0.4439 -0.4439,0.4439l-0.4375 0.0001 0 -0.8879zm0.5018 2.284l-0.5018 0 0 -0.8814 0.5018 0c0.2445,0 0.4439,0.1994 0.4439,0.4439 0,0.2381 -0.1994,0.4375 -0.4439,0.4375zm3.2619 -2.8952c-0.9715,0 -1.7564,0.8042 -1.7564,1.7886 0,0.9844 0.7849,1.7886 1.7564,1.7886 0.9715,0 1.7564,-0.8042 1.7564,-1.7886 0,-0.9844 -0.7849,-1.7886 -1.7564,-1.7886zm-0.0128 2.8373c-0.5018,0 -0.9072,-0.4697 -0.9072,-1.0487 0,-0.579 0.4053,-1.0487 0.9072,-1.0487 0.5019,0 0.9072,0.4697 0.9072,1.0487 0.0063,0.5791 -0.399,1.0487 -0.9072,1.0487zm12.1789 -2.8373c-0.9715,0 -1.7564,0.8042 -1.7564,1.7886 0,0.9844 0.7849,1.7886 1.7564,1.7886 0.9715,0 1.7564,-0.8042 1.7564,-1.7886 0,-0.9844 -0.7849,-1.7886 -1.7564,-1.7886zm-0.0064 2.8373c-0.5018,0 -0.9072,-0.4697 -0.9072,-1.0487 0,-0.579 0.4053,-1.0487 0.9072,-1.0487 0.5019,0 0.9072,0.4697 0.9072,1.0487 -0.0001,0.5791 -0.4054,1.0487 -0.9072,1.0487zm-9.0779 -0.0965l0 -2.5992 -0.8042 0 0 3.3134 0.5275 0 0.2767 0 1.3252 0 0 -0.7142 -1.3252 0zm3.8859 -1.9237l0 -0.6755 -1.3125 0 0 0 -0.8042 0 0 3.3134 0.8042 0 0 0 1.3125 0 0 -0.6691 -1.3125 0 0 -0.7142 1.1001 0 0 -0.6755 -1.1001 0 0 -0.5791 1.3125 0zm1.3592 -0.0254l0 2.6658 0.8107 0 0 -2.6658 1.0624 0 0 -0.6498 -2.9016 0 0 0.6498 1.0285 0z"/>
 </g>
</svg>
