<?xml version="1.0" encoding="UTF-8"?>
<!DOCTYPE svg PUBLIC "-//W3C//DTD SVG 1.1//EN" "http://www.w3.org/Graphics/SVG/1.1/DTD/svg11.dtd">
<!-- Creator: CorelDRAW -->
<svg xmlns="http://www.w3.org/2000/svg" xml:space="preserve" width="50mm" height="35mm" style="shape-rendering:geometricPrecision; text-rendering:geometricPrecision; image-rendering:optimizeQuality; fill-rule:evenodd; clip-rule:evenodd"
viewBox="0 0 50 35"
 xmlns:xlink="http://www.w3.org/1999/xlink">
 <defs>
  <style type="text/css">
   <![CDATA[
    .str0 {stroke:black;stroke-width:0.0762}
    .fil0 {fill:#FEFEFE;fill-rule:nonzero}
    .fil1 {fill:#826794;fill-rule:nonzero}
   ]]>
  </style>
 </defs>
 <g id="Layer_x0020_1">
  <metadata id="CorelCorpID_0Corel-Layer"/>
  <path class="fil0 str0" d="M5.2445 3.3889l39.5111 0c0.7793,0 1.4111,0.6318 1.4111,1.4111l0 25.4c0,0.7793 -0.6318,1.4111 -1.4111,1.4111l-39.5111 0c-0.7793,0 -1.4112,-0.6318 -1.4112,-1.4111l0 -25.4c0,-0.7793 0.6319,-1.4111 1.4112,-1.4111z"/>
  <path class="fil1" d="M43.2219 21.1415c0,0.3206 0.0577,0.5557 0.1734,0.7042 0.1154,0.1487 0.2572,0.2234 0.4268,0.2234 0.1812,0 0.3348,-0.0765 0.4601,-0.229 0.1245,-0.1526 0.1876,-0.3791 0.1876,-0.6793 0,-0.3129 -0.0603,-0.545 -0.1805,-0.6965 -0.1187,-0.1525 -0.2707,-0.2283 -0.4538,-0.2283 -0.1787,0 -0.3248,0.0748 -0.4402,0.2235 -0.1157,0.1495 -0.1734,0.376 -0.1734,0.682zm-0.6632 1.7728l0.848 0.1109c0.0145,0.107 0.047,0.1797 0.0976,0.2196 0.0702,0.0572 0.1823,0.0854 0.333,0.0854 0.194,0 0.3394,-0.031 0.437,-0.0941 0.0646,-0.0419 0.1141,-0.109 0.1479,-0.202 0.0224,-0.0661 0.0344,-0.1887 0.0344,-0.3674l0 -0.441c-0.2222,0.3264 -0.5031,0.4896 -0.8412,0.4896 -0.377,0 -0.6759,-0.1719 -0.8963,-0.515 -0.1724,-0.272 -0.259,-0.6091 -0.259,-1.0133 0,-0.5071 0.1138,-0.8938 0.3403,-1.1619 0.2265,-0.2672 0.5082,-0.4012 0.8447,-0.4012 0.3465,0 0.6335,0.1642 0.8592,0.4927l0 -0.4238 0.6948 0 0 2.7126c0,0.3564 -0.027,0.6228 -0.0819,0.7995 -0.0544,0.1769 -0.1311,0.3147 -0.2293,0.4159 -0.0994,0.1001 -0.231,0.1787 -0.3952,0.2361 -0.1653,0.0562 -0.3737,0.0854 -0.6256,0.0854 -0.4767,0 -0.8142,-0.0884 -1.0128,-0.2633 -0.1993,-0.1757 -0.2987,-0.3984 -0.2987,-0.6673 0,-0.0272 0.001,-0.0592 0.0031,-0.0974zm-0.6851 -0.199l-0.7425 0 0 -1.5428c0,-0.3264 -0.0165,-0.5374 -0.0483,-0.6334 -0.0315,-0.0951 -0.0836,-0.1701 -0.1551,-0.2235 -0.0712,-0.0524 -0.1568,-0.0796 -0.2572,-0.0796 -0.1289,0 -0.2446,0.0379 -0.3465,0.1137 -0.1019,0.0767 -0.1724,0.1766 -0.2105,0.302 -0.0379,0.1253 -0.0567,0.3566 -0.0567,0.6947l0 1.3689 -0.7428 0 0 -3.0225 0.6894 0 0 0.4441c0.2459,-0.3419 0.5545,-0.513 0.9261,-0.513 0.1635,0 0.3142,0.0321 0.4497,0.0951 0.1352,0.0643 0.2379,0.1449 0.3076,0.244 0.0694,0.0992 0.1182,0.2108 0.1451,0.3361 0.028,0.1253 0.0417,0.304 0.0417,0.5374l0 1.8788zm-4.0586 0l0 -3.0225 0.743 0 0 3.0225 -0.743 0zm0 -3.4325l0 -0.7402 0.743 0 0 0.7402 -0.743 0zm-2.2398 3.4325l-1.1317 -3.0225 0.7797 0 0.5287 1.5428 0.1538 0.515c0.0404,-0.1312 0.0666,-0.2176 0.0765,-0.2596 0.0254,-0.0854 0.0514,-0.1708 0.0793,-0.2554l0.5341 -1.5428 0.7644 0 -1.116 3.0225 -0.6688 0zm-1.5496 -3.0225l0 2.9282c0,0.3859 -0.0236,0.6578 -0.0694,0.8162 -0.047,0.1584 -0.1372,0.2817 -0.2697,0.3712 -0.1339,0.0892 -0.3035,0.1339 -0.5092,0.1339 -0.0742,0 -0.1545,-0.0079 -0.2394,-0.0213 -0.0857,-0.0145 -0.1774,-0.0361 -0.2761,-0.0641l0.1294 -0.683c0.0351,0.0068 0.0684,0.0134 0.0992,0.0185 0.0307,0.0048 0.0594,0.0066 0.0856,0.0066 0.0758,0 0.1383,-0.0175 0.1869,-0.0523 0.0485,-0.0351 0.0803,-0.0778 0.0963,-0.1274 0.0155,-0.0485 0.0236,-0.1973 0.0236,-0.4438l0 -2.8827 0.7428 0zm-0.7428 -0.41l0 -0.7402 0.7428 0 0 0.7402 -0.7428 0zm-1.4883 3.4325l0 -3.0225 0.743 0 0 3.0225 -0.743 0zm0 -3.4325l0 -0.7402 0.743 0 0 0.7402 -0.743 0zm-1.3958 3.4325l-0.7431 0 0 -3.0225 0.6894 0 0 0.4296c0.1185,-0.2031 0.225,-0.3373 0.3188,-0.4014 0.0948,-0.064 0.2016,-0.0971 0.3213,-0.0971 0.1698,0 0.332,0.0506 0.4891,0.1515l-0.2301 0.6965c-0.1245,-0.0864 -0.2412,-0.1301 -0.3482,-0.1301 -0.1047,0 -0.1922,0.0302 -0.2646,0.0923 -0.073,0.0612 -0.1292,0.1731 -0.1704,0.3342 -0.0416,0.1612 -0.0622,0.4993 -0.0622,1.0133l0 0.9337zm-3.279 -4.1727l0 1.5341c0.2402,-0.3013 0.5262,-0.4528 0.8592,-0.4528 0.1716,0 0.3249,0.0351 0.4632,0.103 0.137,0.0681 0.241,0.1556 0.3104,0.2613 0.0693,0.107 0.1174,0.2245 0.1426,0.3536 0.0259,0.1284 0.0386,0.3294 0.0386,0.6004l0 1.7731 -0.7425 0 0 -1.5972c0,-0.3167 -0.0148,-0.5178 -0.0425,-0.6032 -0.029,-0.0857 -0.0785,-0.1525 -0.1497,-0.2031 -0.0714,-0.0506 -0.1609,-0.0758 -0.2684,-0.0758 -0.1233,0 -0.2334,0.0321 -0.33,0.0972 -0.0976,0.064 -0.169,0.1611 -0.2133,0.2913 -0.0447,0.1304 -0.0676,0.3226 -0.0676,0.5762l0 1.5146 -0.7425 0 0 -4.1727 0.7425 0zm-1.303 2.044l-0.7326 0.1418c-0.0247,-0.1573 -0.0806,-0.2758 -0.1681,-0.3553 -0.0874,-0.0799 -0.2005,-0.1198 -0.3391,-0.1198 -0.1861,0 -0.3335,0.0692 -0.4433,0.2062 -0.1101,0.1378 -0.1652,0.3681 -0.1652,0.6907 0,0.3584 0.0559,0.6121 0.1677,0.7598 0.1119,0.1477 0.2619,0.2214 0.4505,0.2214 0.1418,0 0.2565,-0.0427 0.3465,-0.1292 0.0902,-0.0864 0.1535,-0.2351 0.1906,-0.4451l0.7301 0.1332c-0.0758,0.3605 -0.2222,0.6335 -0.437,0.817 -0.2148,0.1846 -0.5025,0.2761 -0.8645,0.2761 -0.4103,0 -0.7382,-0.139 -0.9818,-0.4179 -0.2445,-0.2789 -0.3665,-0.6655 -0.3665,-1.1589 0,-0.4985 0.1228,-0.8872 0.3673,-1.165 0.2456,-0.2789 0.5768,-0.4177 0.9944,-0.4177 0.3419,0 0.6139,0.0796 0.816,0.238 0.2014,0.1583 0.3465,0.4003 0.435,0.7247zm-5.7216 1.2659l0.7456 -0.1223c0.0312,0.1554 0.0953,0.2738 0.1932,0.3547 0.0963,0.0805 0.2315,0.1212 0.4067,0.1212 0.1922,0 0.3368,-0.0379 0.4334,-0.1146 0.0658,-0.0524 0.0981,-0.1243 0.0981,-0.2128 0,-0.061 -0.0178,-0.1116 -0.0531,-0.1515 -0.0371,-0.0379 -0.12,-0.0727 -0.2481,-0.105 -0.5994,-0.1418 -0.9792,-0.272 -1.1399,-0.3894 -0.2221,-0.1632 -0.333,-0.3905 -0.333,-0.681 0,-0.2614 0.0956,-0.482 0.2878,-0.6597 0.1924,-0.1787 0.4901,-0.2682 0.8933,-0.2682 0.3846,0 0.6708,0.0679 0.8574,0.2021 0.1868,0.135 0.3149,0.3343 0.3854,0.5984l-0.7004 0.1391c-0.0295,-0.1177 -0.0864,-0.208 -0.1705,-0.2703 -0.0837,-0.063 -0.2029,-0.0943 -0.358,-0.0943 -0.1962,0 -0.3358,0.0293 -0.4207,0.0885 -0.0559,0.0419 -0.0841,0.0963 -0.0841,0.1622 0,0.0574 0.0244,0.105 0.0742,0.1449 0.0664,0.0534 0.2977,0.1281 0.694,0.2255 0.3953,0.096 0.6713,0.2145 0.8284,0.3553 0.1551,0.1429 0.2329,0.3412 0.2329,0.5946 0,0.2771 -0.1075,0.516 -0.3231,0.7151 -0.2151,0.1993 -0.5326,0.2984 -0.954,0.2984 -0.3826,0 -0.6851,-0.0836 -0.9088,-0.2509 -0.2229,-0.166 -0.3681,-0.3932 -0.4367,-0.68zm-1.1345 0.8628l-0.7428 0 0 -3.0225 0.6894 0 0 0.4296c0.1185,-0.2031 0.225,-0.3373 0.3188,-0.4014 0.0948,-0.064 0.2013,-0.0971 0.3213,-0.0971 0.1698,0 0.332,0.0506 0.4888,0.1515l-0.2298 0.6965c-0.1248,-0.0864 -0.2412,-0.1301 -0.3485,-0.1301 -0.1047,0 -0.1922,0.0302 -0.2644,0.0923 -0.0729,0.0612 -0.1291,0.1731 -0.1705,0.3342 -0.0415,0.1612 -0.0623,0.4993 -0.0623,1.0133l0 0.9337zm-2.0547 -1.77c-0.0056,-0.2324 -0.0605,-0.4083 -0.166,-0.5285 -0.1055,-0.1205 -0.2349,-0.1808 -0.3864,-0.1808 -0.1625,0 -0.2962,0.0641 -0.4017,0.1915 -0.1057,0.126 -0.1581,0.2992 -0.156,0.5178l1.1101 0zm-0.0425 0.8081l0.741 0.1332c-0.0958,0.2923 -0.2455,0.515 -0.4515,0.6675 -0.2046,0.1533 -0.4618,0.2293 -0.7707,0.2293 -0.4881,0 -0.849,-0.1711 -1.0837,-0.515 -0.185,-0.2751 -0.2781,-0.6228 -0.2781,-1.0415 0,-0.5013 0.1218,-0.8937 0.3656,-1.1774 0.2428,-0.2837 0.5503,-0.4256 0.9222,-0.4256 0.4179,0 0.7474,0.1487 0.9894,0.4459 0.2407,0.2974 0.3564,0.7519 0.3462,1.3651l-1.8615 0c0.0053,0.2369 0.0648,0.4214 0.1795,0.5526 0.1146,0.1322 0.258,0.1983 0.4288,0.1983 0.1162,0 0.2138,-0.0341 0.2933,-0.102 0.0794,-0.0691 0.1396,-0.1787 0.1795,-0.3304zm-3.8651 0.9619l-1.132 -3.0225 0.7796 0 0.529 1.5428 0.1536 0.515c0.0406,-0.1312 0.0666,-0.2176 0.0767,-0.2596 0.0252,-0.0854 0.0511,-0.1708 0.0796,-0.2554l0.5341 -1.5428 0.7644 0 -1.1165 3.0225 -0.6685 0zm-3.4902 -1.5118c0,0.3003 0.0661,0.5295 0.1985,0.6889 0.1319,0.1594 0.2951,0.239 0.4893,0.239 0.1943,0 0.3564,-0.0796 0.4873,-0.239 0.1317,-0.1594 0.1978,-0.3904 0.1978,-0.6947 0,-0.2954 -0.0661,-0.5237 -0.1978,-0.6828 -0.1309,-0.1594 -0.293,-0.2392 -0.4873,-0.2392 -0.1942,0 -0.3574,0.0798 -0.4893,0.2392 -0.1324,0.1591 -0.1985,0.3894 -0.1985,0.6886zm-0.7616 -0.0427c0,-0.2651 0.0612,-0.5226 0.1822,-0.7712 0.1218,-0.2479 0.2942,-0.4383 0.5171,-0.5684 0.2232,-0.1312 0.472,-0.1973 0.7473,-0.1973 0.4243,0 0.7726,0.1487 1.0443,0.4459 0.2715,0.2974 0.407,0.6724 0.407,1.1261 0,0.4566 -0.1373,0.8353 -0.4106,1.1366 -0.2745,0.3012 -0.6194,0.4509 -1.0351,0.4509 -0.258,0 -0.5028,-0.0623 -0.7364,-0.1876 -0.2341,-0.1253 -0.4118,-0.3088 -0.5336,-0.5508 -0.121,-0.242 -0.1822,-0.5364 -0.1822,-0.8842zm32.2997 -3.2749l0 -6.8288 1.2667 0 0 3.6236 1.4804 -1.741 1.5588 0 -1.634 1.8061 1.7512 3.1401 -1.3638 0 -1.2036 -2.2212 -0.589 0.6376 0 1.5836 -1.2667 0zm-1.2377 0l-1.2652 0 0 -2.5247c0,-0.5343 -0.0277,-0.8793 -0.0816,-1.0366 -0.0539,-0.1559 -0.1429,-0.2784 -0.2641,-0.3658 -0.1218,-0.0859 -0.2677,-0.1304 -0.4383,-0.1304 -0.2198,0 -0.4166,0.062 -0.5905,0.186 -0.1738,0.1256 -0.2936,0.2893 -0.3581,0.4945 -0.0646,0.2051 -0.0969,0.5836 -0.0969,1.1368l0 2.2402 -1.2654 0 0 -4.9462 1.1747 0 0 0.7265c0.4181,-0.5598 0.9438,-0.8394 1.5773,-0.8394 0.2783,0 0.5351,0.0524 0.7656,0.1558 0.2306,0.1048 0.406,0.237 0.5245,0.3991 0.1182,0.1622 0.2013,0.345 0.2473,0.5501 0.0478,0.2049 0.0707,0.4975 0.0707,0.8791l0 3.075zm-6.8429 -2.3752c-0.1614,0.0554 -0.4184,0.1223 -0.7702,0.2003 -0.3506,0.0778 -0.5796,0.154 -0.6889,0.2273 -0.1642,0.1225 -0.2474,0.275 -0.2474,0.4611 0,0.1843 0.0661,0.3419 0.1983,0.4753 0.1322,0.1335 0.3,0.2003 0.5041,0.2003 0.229,0 0.4459,-0.0777 0.6536,-0.232 0.1537,-0.1177 0.2536,-0.2624 0.3014,-0.4342 0.0336,-0.1111 0.0491,-0.3244 0.0491,-0.6376l0 -0.2605zm-1.6927 -1.0623l-1.1485 -0.2146c0.1294,-0.4786 0.3505,-0.8315 0.6657,-1.062 0.3168,-0.2291 0.784,-0.345 1.4053,-0.345 0.5658,0 0.9853,0.0699 1.2621,0.2082 0.2753,0.1383 0.4705,0.3132 0.5829,0.5262 0.1121,0.213 0.169,0.6027 0.169,1.1719l-0.0137 1.528c0,0.4339 0.0198,0.7552 0.0615,0.9619 0.0397,0.2051 0.1167,0.4276 0.2273,0.6629l-1.253 0c-0.0323,-0.0874 -0.0737,-0.2163 -0.1213,-0.3863 -0.0203,-0.0778 -0.0353,-0.1289 -0.0447,-0.1543 -0.2168,0.2178 -0.4474,0.38 -0.6935,0.4898 -0.2458,0.108 -0.5089,0.1622 -0.7885,0.1622 -0.4921,0 -0.8808,-0.1383 -1.1637,-0.4133 -0.2845,-0.2769 -0.4261,-0.6267 -0.4261,-1.0494 0,-0.2783 0.0646,-0.528 0.194,-0.7473 0.1289,-0.2194 0.3104,-0.3864 0.5424,-0.5026 0.2324,-0.1159 0.5689,-0.2179 1.0069,-0.3053 0.5906,-0.1144 1.0011,-0.2224 1.2286,-0.3211l0 -0.1304c0,-0.2526 -0.06,-0.4308 -0.18,-0.5389 -0.1197,-0.1065 -0.3457,-0.1606 -0.6795,-0.1606 -0.2259,0 -0.4011,0.046 -0.5272,0.1383 -0.1261,0.0907 -0.2277,0.2511 -0.306,0.4817zm-5.3777 0.8571c0,0.512 0.0786,0.8903 0.2339,1.1368 0.2196,0.3483 0.5102,0.5214 0.8747,0.5214 0.2783,0 0.5165,-0.124 0.7133,-0.3704 0.1967,-0.2465 0.2951,-0.636 0.2951,-1.167 0,-0.5643 -0.0999,-0.9731 -0.2984,-1.2227 -0.1965,-0.2497 -0.4502,-0.3752 -0.7608,-0.3752 -0.3028,0 -0.5552,0.1225 -0.7563,0.3658 -0.2016,0.2448 -0.3015,0.6136 -0.3015,1.1113zm-1.256 2.5804l0 -6.8288 1.2652 0 0 2.4596c0.3904,-0.4593 0.8518,-0.6899 1.3866,-0.6899 0.5829,0 1.0639,0.2194 1.447,0.6551 0.3813,0.4354 0.5719,1.0621 0.5719,1.8793 0,0.8442 -0.1955,1.496 -0.5844,1.9523 -0.3889,0.4563 -0.861,0.6838 -1.4159,0.6838 -0.2735,0 -0.5427,-0.0699 -0.8086,-0.2115 -0.2662,-0.1416 -0.4952,-0.3498 -0.6874,-0.6264l0 0.7265 -1.1744 0zm-5.094 -2.9487l0 1.9276 2.4109 -2.4103 -2.4109 -2.4106 0 1.9278 -11.1246 0c-1.0666,0 -1.9772,0.376 -2.7289,1.13 -0.7511,0.7534 -1.1271,1.6632 -1.1271,2.7263 0,1.0651 0.376,1.9749 1.1294,2.7286 0.7537,0.7535 1.6635,1.1297 2.7266,1.1297l0.3808 0 0 -0.9657 -0.3788 0c-0.7994,0 -1.481,-0.282 -2.0455,-0.8468 -0.5651,-0.5648 -0.8473,-1.2453 -0.8473,-2.0458 0,-0.7982 0.2822,-1.479 0.8473,-2.0438 0.5645,-0.5648 1.2453,-0.847 2.0455,-0.847l11.1226 0z"/>
 </g>
</svg>
