<svg id="Ebene_1" data-name="Ebene 1" xmlns="http://www.w3.org/2000/svg" viewBox="0 0 120 80"><defs><style>.cls-1{fill:#fff;}.cls-2{fill:#8cbc06;}</style></defs><rect class="cls-1" width="120" height="80" rx="4"/><path class="cls-2" d="M30.56,46.78a6.47,6.47,0,1,1,6.27-6.47,6.29,6.29,0,0,1-6.27,6.47Zm0-16.36a9.89,9.89,0,1,0,9.8,9.89,9.72,9.72,0,0,0-9.8-9.89"/><path class="cls-2" d="M80.82,40a9.46,9.46,0,1,0-18.91.19,10.22,10.22,0,0,0,2.74,7,9.31,9.31,0,0,0,6.66,2.94,9.71,9.71,0,0,0,8.82-5.39l.1-.1H76.41a6.66,6.66,0,0,1-4.9,2.06,6.21,6.21,0,0,1-6-5.1H80.82a8.11,8.11,0,0,1,0-1.56ZM65.53,38.45a5.9,5.9,0,0,1,11.56,0Z"/><path class="cls-2" d="M51.14,33.65c-3.43,0-5.2,1.86-5.2,5.58V50.11H42.42V38.94a8.24,8.24,0,0,1,1.17-4.6,8.58,8.58,0,0,1,7.55-3.92,8.44,8.44,0,0,1,7.54,3.92,8.24,8.24,0,0,1,1.17,4.6V50.11H56.33v-11c0-3.63-1.77-5.49-5.19-5.49"/><path class="cls-2" d="M99.23,30.42,91.79,48.74l-1.86,4.5-1,2.55H85.22l2.84-7L80.42,30.42h3.92l5.59,13.81,5.58-13.81Z"/></svg>