<?xml version="1.0" encoding="UTF-8"?>
<!DOCTYPE svg PUBLIC "-//W3C//DTD SVG 1.1//EN" "http://www.w3.org/Graphics/SVG/1.1/DTD/svg11.dtd">
<!-- Creator: CorelDRAW 2017 -->
<svg xmlns="http://www.w3.org/2000/svg" xml:space="preserve" width="120px" height="80px" version="1.1" style="shape-rendering:geometricPrecision; text-rendering:geometricPrecision; image-rendering:optimizeQuality; fill-rule:evenodd; clip-rule:evenodd"
viewBox="0 0 12000 8000"
 xmlns:xlink="http://www.w3.org/1999/xlink"
 xmlns:sketch="http://www.bohemiancoding.com/sketch/ns">
 <defs>
  <style type="text/css">
   <![CDATA[
    .fil0 {fill:#FEFEFE}
    .fil2 {fill:#212F66;fill-rule:nonzero}
    .fil1 {fill:#D7D7D7;fill-rule:nonzero}
    .fil3 {fill:white;fill-rule:nonzero}
   ]]>
  </style>
 </defs>
 <g id="Layer_x0020_1">
  <metadata id="CorelCorpID_0Corel-Layer"/>
  <path class="fil0" d="M400 0l11200 0c221,0 400,179 400,400l0 7200c0,221 -179,400 -400,400l-11200 0c-221,0 -400,-179 -400,-400l0 -7200c0,-221 179,-400 400,-400z" sketch:type="MSShapeGroup"/>
  <path class="fil1" d="M435 0l11130 0c120,0 229,49 308,127 78,78 127,187 127,307l0 7133c0,119 -49,228 -127,306 -79,79 -188,127 -308,127l-11130 0c-120,0 -229,-49 -308,-127 -78,-79 -127,-187 -127,-307l0 -7132c0,-120 49,-229 127,-307 79,-78 188,-127 308,-127zm11130 75l-11130 0c-99,0 -189,40 -254,105 -66,65 -106,155 -106,254l0 7132c0,100 40,189 106,254 65,65 155,105 254,105l11130 0c99,0 189,-40 254,-105 66,-65 106,-155 106,-253l0 -7133c0,-99 -40,-189 -106,-254 -65,-65 -155,-105 -254,-105z"/>
  <path class="fil2" d="M4494 -15792c633,0 1149,464 1149,1106 0,642 -516,1116 -1149,1116 -613,17 -1123,-466 -1140,-1078 -1,-12 -1,-25 -1,-38 0,-642 507,-1106 1141,-1106zm0 1867l0 0c402,-1 728,-329 727,-731 0,-10 0,-20 -1,-30 20,-401 -290,-742 -691,-761 -402,-20 -743,290 -762,691 -1,24 -1,47 0,70 -17,403 295,743 697,760 10,1 20,1 30,1z"/>
  <path class="fil2" d="M6082 -16308l0 -135c-11,-64 32,-124 96,-135 13,-2 26,-2 39,0l144 0c66,-8 126,38 135,105 1,10 1,20 0,30l0 135c6,69 -44,129 -112,136 -8,0 -16,0 -23,0l-144 0c-66,8 -127,-39 -135,-105 -1,-10 -1,-20 0,-31zm0 702l0 0c-8,-67 38,-127 104,-136 11,-1 21,-1 31,0l127 0c64,-10 124,33 135,97 2,13 2,26 0,39l0 1841c11,64 -32,125 -96,135 -13,3 -26,3 -39,0l-127 0c-66,9 -127,-38 -135,-104 -1,-10 -1,-21 0,-31l0 -1841z"/>
  <path class="fil2" d="M7079 -15606c-9,-67 38,-127 104,-136 11,-1 21,-1 31,0l118 0c64,-10 125,33 135,97 3,13 3,26 0,39l0 185c0,40 -3,79 -8,119l8 0c148,-309 461,-504 803,-499 499,0 727,271 727,811l0 1217c10,64 -33,124 -97,135 -13,2 -26,2 -39,0l-126 0c-66,8 -127,-38 -135,-104 -2,-11 -2,-21 0,-31l0 -1115c0,-296 -60,-533 -398,-533 -413,0 -709,347 -709,786l0 879c11,64 -33,124 -97,135 -12,2 -26,2 -38,0l-127 0c-66,8 -127,-38 -135,-105 -2,-10 -2,-20 0,-30l0 -1850 -17 0z"/>
  <path class="fil2" d="M9639 -15395l-144 0c-68,6 -129,-44 -135,-112 -1,-8 -1,-16 0,-23l0 -51c-9,-66 38,-127 104,-135 11,-2 21,-2 31,0l152 0 0 -465c-8,-66 38,-127 105,-135 10,-1 20,-1 30,0l119 0c64,-11 124,32 135,96 2,13 2,26 0,39l0 456 371 0c67,-8 127,39 136,105 1,10 1,20 0,30l0 51c8,66 -39,127 -105,135 -10,2 -20,2 -31,0l-363 0 0 947c0,405 245,464 406,481 110,9 143,42 143,135l0 85c0,93 -50,135 -169,135 -422,0 -785,-245 -785,-777l0 -997z"/>
  <path class="fil2" d="M10855 -13993l43 -59c50,-68 109,-76 194,-25 154,107 336,166 524,169 211,0 363,-102 363,-279 0,-414 -1098,-279 -1098,-997 0,-406 354,-608 768,-608 209,-2 413,53 592,160 76,34 84,110 42,186l-42 59c-42,76 -102,85 -186,42 -130,-78 -279,-119 -431,-118 -203,0 -355,85 -355,271 0,422 1099,270 1099,996 0,364 -305,626 -761,626 -255,1 -503,-79 -709,-228 -64,-32 -89,-109 -58,-172 4,-8 9,-16 15,-23z"/>
  <path class="fil2" d="M1157 -13824l0 837c-6,106 -96,189 -203,185 -107,4 -197,-79 -203,-185l0 -1682 406 845z"/>
  <path class="fil2" d="M1892 -15792c633,0 1149,464 1149,1106 0,642 -516,1116 -1149,1116 -613,17 -1123,-466 -1141,-1078 0,-12 0,-25 0,-38 0,-642 507,-1106 1141,-1106zm0 1867l0 0c402,-1 728,-329 727,-731 0,-10 0,-20 -1,-30 20,-401 -290,-742 -691,-761 -402,-20 -743,290 -762,691 -1,24 -1,47 0,70 -14,406 302,746 708,760 6,1 12,1 19,1z"/>
  <path class="fil2" d="M13221 -14669l0 1673c-6,107 -96,189 -203,186 -107,3 -197,-79 -203,-186l0 -1673 406 0z"/>
  <path class="fil2" d="M13956 -15792c633,0 1149,464 1149,1106 0,642 -516,1116 -1149,1116 -613,17 -1123,-466 -1140,-1078 -1,-12 -1,-25 -1,-38 0,-642 507,-1106 1141,-1106zm0 1867l0 0c402,-1 728,-329 727,-731 0,-10 0,-20 -1,-30 20,-401 -290,-742 -691,-761 -401,-20 -742,290 -762,691 -1,24 -1,47 0,70 -14,406 303,746 708,760 6,1 12,1 19,1z"/>
  <path class="fil2" d="M16507 -15792c634,0 1149,464 1149,1106 0,642 -515,1116 -1149,1116 -612,17 -1123,-466 -1140,-1078 0,-12 0,-25 0,-38 0,-642 507,-1106 1140,-1106zm0 1867l0 0c403,-1 728,-329 727,-731 0,-10 0,-20 0,-30 19,-401 -291,-742 -692,-761 -401,-19 -742,290 -761,691 -1,24 -1,47 0,70 -20,400 287,740 686,760 14,1 27,1 40,1z"/>
  <path class="fil2" d="M17546 -13570l-211 0c-54,2 -99,-41 -101,-95 0,-2 0,-4 0,-7l0 -1014c-2,-54 40,-99 94,-101 3,0 5,0 7,0l211 0c54,-2 100,40 102,95 0,2 0,4 0,6l0 1014c-1,56 -46,101 -102,102z"/>
  <path class="fil2" d="M19574 -15758l-152 0c-73,-5 -138,46 -152,118l-482 1275c-34,110 -67,254 -67,254l-9 0c-20,-86 -46,-171 -76,-254l-498 -1284c-17,-68 -82,-115 -152,-109l-169 0c-102,0 -144,67 -102,168l820 1944c-102,380 -279,447 -431,456 -110,8 -135,42 -135,143l0 85c0,93 42,144 152,144 281,5 535,-168 633,-431l930 -2341c42,-101 -9,-168 -110,-168z"/>
  <g id="_2852381750976">
   <g>
    <path class="fil2" d="M3681 5926l-2982 0c-240,0 -435,-195 -435,-435l0 -2982c0,-240 195,-435 435,-435l2982 0c240,0 434,195 434,435l0 2982c0,240 -194,435 -434,435z"/>
    <path class="fil3" d="M1166 4454l0 537c-4,69 -62,122 -131,120 -68,2 -126,-51 -130,-120l0 -1081 261 544z"/>
    <path class="fil3" d="M1644 3188c407,0 739,299 739,712 0,412 -332,717 -739,717 -394,11 -722,-299 -733,-693 -1,-8 -1,-16 -1,-24 -5,-413 326,-712 734,-712zm0 1200l0 0c259,0 468,-211 467,-469 0,-7 0,-13 0,-19 12,-258 -187,-478 -445,-490 -258,-13 -477,187 -489,445 -1,15 -1,30 0,45 -13,256 184,475 441,488 9,0 17,1 26,0z"/>
    <path class="fil3" d="M2372 4454l0 537c-4,69 -62,122 -131,120 -68,2 -126,-51 -130,-120l0 -1081 261 544z"/>
    <path class="fil3" d="M2844 3188c408,0 739,299 739,712 0,412 -331,717 -739,717 -393,11 -722,-299 -733,-693 0,-8 0,-16 0,-24 0,-413 326,-712 733,-712zm0 1200l0 0c259,0 469,-211 468,-469 0,-7 0,-13 -1,-19 13,-258 -186,-478 -444,-490 -258,-13 -477,187 -490,445 -1,15 -1,30 0,45 -9,260 194,479 455,488 4,0 8,0 12,0z"/>
   </g>
   <path class="fil2" d="M6325 2822l112 28c-23,92 -65,161 -126,210 -60,48 -135,72 -222,72 -91,0 -165,-19 -221,-56 -57,-37 -100,-90 -130,-160 -30,-70 -44,-145 -44,-226 0,-87 16,-164 50,-229 33,-66 81,-115 143,-149 61,-34 129,-51 204,-51 84,0 155,22 212,64 57,43 97,104 120,181l-110 26c-19,-61 -47,-106 -84,-134 -37,-28 -84,-42 -140,-42 -65,0 -119,16 -162,47 -44,31 -74,73 -92,125 -17,52 -26,106 -26,162 0,71 10,134 31,187 21,53 53,93 97,120 44,26 91,39 143,39 62,0 114,-18 158,-54 43,-36 72,-89 87,-160zm237 296l0 -843 103 0 0 303c48,-56 109,-84 182,-84 45,0 84,9 118,27 33,18 56,42 71,73 14,32 21,78 21,137l0 387 -103 0 0 -386c0,-52 -12,-90 -34,-113 -22,-24 -53,-36 -94,-36 -31,0 -59,8 -86,24 -27,16 -46,38 -58,65 -11,27 -17,64 -17,112l0 334 -103 0zm1071 -198l107 14c-17,62 -48,111 -94,145 -45,34 -103,51 -174,51 -89,0 -160,-27 -212,-82 -52,-55 -78,-132 -78,-231 0,-102 26,-182 79,-238 53,-57 121,-85 205,-85 82,0 148,28 200,83 51,56 77,134 77,234 0,6 0,16 0,28l-455 0c4,67 23,118 57,153 34,36 76,54 127,54 38,0 70,-10 97,-30 27,-20 48,-52 64,-96zm-339 -166l340 0c-5,-51 -18,-90 -39,-115 -33,-40 -76,-60 -128,-60 -48,0 -87,16 -120,47 -32,32 -50,75 -53,128zm975 140l101 14c-11,70 -39,124 -85,163 -45,40 -102,59 -168,59 -84,0 -151,-27 -201,-81 -51,-55 -76,-133 -76,-234 0,-66 11,-124 32,-173 22,-49 55,-86 100,-111 45,-25 93,-37 146,-37 66,0 120,17 162,50 42,34 69,81 81,143l-100 15c-10,-41 -27,-71 -51,-92 -24,-21 -54,-31 -88,-31 -52,0 -95,18 -128,56 -32,37 -48,96 -48,177 0,82 15,141 47,178 31,37 72,56 123,56 40,0 74,-13 101,-37 28,-25 45,-63 52,-115zm190 224l0 -843 103 0 0 480 245 -248 134 0 -233 227 256 384 -127 0 -203 -312 -72 69 0 243 -103 0zm549 -306c0,-112 31,-196 94,-250 53,-45 117,-68 192,-68 84,0 152,28 206,82 53,55 80,131 80,228 0,78 -12,140 -36,185 -23,44 -58,79 -103,104 -45,25 -94,37 -147,37 -85,0 -154,-27 -207,-81 -53,-55 -79,-134 -79,-237zm106 0c0,79 17,137 51,176 34,38 77,58 129,58 51,0 94,-20 129,-59 34,-39 51,-98 51,-178 0,-75 -18,-132 -52,-171 -34,-39 -77,-58 -128,-58 -52,0 -95,19 -129,58 -34,38 -51,97 -51,174zm986 306l0 -91c-48,69 -112,103 -193,103 -36,0 -70,-6 -101,-20 -31,-14 -54,-31 -69,-52 -15,-21 -26,-47 -32,-77 -4,-20 -6,-52 -6,-96l0 -378 103 0 0 338c0,54 2,90 6,109 7,27 21,48 42,64 21,15 47,23 78,23 31,0 60,-8 87,-24 27,-16 46,-37 57,-65 11,-27 17,-67 17,-119l0 -326 104 0 0 611 -93 0zm480 -93l14 92c-29,6 -55,9 -78,9 -37,0 -66,-6 -87,-18 -21,-12 -35,-27 -44,-47 -8,-19 -12,-60 -12,-122l0 -352 -77 0 0 -80 77 0 0 -151 103 -62 0 213 104 0 0 80 -104 0 0 358c0,29 2,48 6,57 3,8 9,15 17,20 9,5 20,7 36,7 11,0 26,-1 45,-4zm-3319 1286l-185 -610 109 0 97 352 35 131c1,-6 12,-48 31,-126l97 -357 106 0 92 354 30 116 35 -117 105 -353 101 0 -192 610 -107 0 -96 -365 -25 -105 -123 470 -110 0zm740 -724l0 -118 103 0 0 118 -103 0zm0 724l0 -610 103 0 0 610 -103 0zm486 -92l14 91c-29,6 -55,9 -78,9 -37,0 -66,-5 -87,-17 -21,-12 -35,-28 -44,-47 -8,-20 -12,-60 -12,-123l0 -351 -77 0 0 -80 77 0 0 -151 103 -62 0 213 104 0 0 80 -104 0 0 357c0,30 2,49 6,57 3,9 9,15 17,21 9,4 20,7 36,7 11,0 26,-1 45,-4zm102 92l0 -842 103 0 0 303c48,-56 109,-84 182,-84 45,0 84,9 118,26 33,18 56,43 71,74 14,31 21,77 21,137l0 386 -103 0 0 -386c0,-51 -12,-89 -34,-113 -22,-23 -53,-35 -94,-35 -31,0 -59,8 -86,24 -27,16 -46,37 -58,65 -11,27 -17,64 -17,112l0 333 -103 0zm-4053 1428l0 -845 94 0 0 81c22,-31 47,-55 75,-70 28,-16 62,-24 102,-24 52,0 98,14 138,41 40,26 70,64 90,113 20,49 30,102 30,160 0,62 -11,118 -33,168 -23,50 -55,88 -98,115 -42,26 -87,40 -134,40 -35,0 -66,-7 -93,-22 -27,-14 -50,-33 -67,-55l0 298 -104 0zm94 -536c0,79 16,136 48,174 31,37 70,56 115,56 46,0 85,-19 117,-58 33,-39 49,-99 49,-180 0,-78 -15,-136 -47,-175 -32,-38 -70,-57 -115,-57 -44,0 -82,20 -116,61 -34,41 -51,101 -51,179zm521 -3c0,-113 32,-197 95,-251 52,-45 116,-68 192,-68 83,0 152,28 205,83 53,54 80,130 80,227 0,78 -12,140 -35,185 -24,45 -58,80 -103,105 -45,24 -94,37 -147,37 -86,0 -155,-27 -208,-82 -52,-55 -79,-134 -79,-236zm106 0c0,78 17,136 51,175 35,39 78,58 130,58 51,0 94,-19 128,-58 34,-39 51,-99 51,-179 0,-75 -17,-132 -51,-171 -35,-38 -77,-58 -128,-58 -52,0 -95,19 -130,58 -34,39 -51,97 -51,175zm587 -420l0 -117 104 0 0 117 -104 0zm0 725l0 -611 104 0 0 611 -104 0zm262 0l0 -611 93 0 0 87c44,-66 109,-100 194,-100 37,0 70,7 101,20 31,13 54,31 69,52 16,22 26,47 32,76 4,20 6,53 6,101l0 375 -103 0 0 -371c0,-42 -4,-74 -12,-95 -8,-20 -23,-37 -43,-50 -21,-12 -45,-18 -72,-18 -44,0 -82,14 -114,42 -32,28 -48,81 -48,159l0 333 -103 0zm879 -92l14 91c-29,6 -55,9 -78,9 -37,0 -66,-6 -87,-18 -21,-12 -35,-27 -44,-47 -8,-19 -12,-60 -12,-122l0 -352 -77 0 0 -80 77 0 0 -151 103 -62 0 213 104 0 0 80 -104 0 0 358c0,30 2,49 6,57 3,8 9,15 17,20 9,5 20,8 36,8 11,0 26,-2 45,-4zm61 -90l102 -17c6,41 22,72 48,94 26,22 63,33 110,33 48,0 83,-10 106,-29 23,-19 35,-42 35,-68 0,-23 -11,-42 -31,-55 -15,-9 -50,-21 -106,-35 -76,-19 -128,-36 -157,-50 -30,-14 -52,-33 -67,-58 -15,-24 -23,-51 -23,-81 0,-27 7,-52 19,-76 13,-23 29,-42 51,-57 16,-12 38,-22 65,-30 28,-9 58,-13 90,-13 47,0 89,7 126,21 36,14 62,33 80,56 17,24 29,56 35,95l-101 14c-4,-31 -18,-56 -40,-74 -22,-18 -53,-27 -93,-27 -47,0 -81,8 -101,24 -20,15 -31,34 -31,55 0,13 4,25 13,36 8,11 21,20 39,27 11,4 41,13 92,27 73,19 124,35 153,48 29,12 51,30 68,54 16,24 25,53 25,88 0,35 -10,67 -30,97 -21,31 -50,54 -88,71 -38,17 -80,25 -128,25 -80,0 -140,-17 -182,-49 -41,-33 -68,-82 -79,-146zm1438 82c-34,37 -72,66 -112,85 -40,18 -83,28 -130,28 -87,0 -155,-29 -206,-87 -41,-48 -61,-100 -61,-159 0,-52 16,-99 50,-140 34,-42 84,-79 150,-111 -38,-43 -64,-79 -76,-106 -13,-27 -20,-53 -20,-79 0,-50 20,-94 60,-131 40,-38 90,-57 150,-57 58,0 105,18 141,53 37,36 55,78 55,128 0,80 -53,148 -160,205l153 191c17,-33 31,-72 40,-117l107 23c-18,74 -43,134 -75,181 39,51 83,94 132,129l-70 81c-41,-26 -84,-65 -128,-117zm-212 -438c45,-26 74,-49 87,-69 14,-20 20,-42 20,-67 0,-29 -9,-52 -27,-70 -18,-19 -41,-28 -68,-28 -28,0 -52,9 -71,27 -18,18 -28,40 -28,67 0,13 4,27 11,41 6,14 16,30 30,46l46 53zm146 357l-189 -235c-56,33 -94,64 -113,92 -20,28 -29,56 -29,84 0,34 13,69 40,106 27,37 66,55 115,55 31,0 64,-9 97,-28 33,-19 59,-44 79,-74zm695 181l0 -611 93 0 0 87c19,-30 45,-54 77,-72 31,-19 67,-28 108,-28 45,0 82,10 111,28 29,19 49,45 61,79 48,-71 111,-107 189,-107 61,0 108,17 140,51 33,33 49,85 49,154l0 419 -103 0 0 -384c0,-42 -4,-71 -10,-90 -7,-18 -19,-32 -37,-44 -18,-11 -38,-16 -62,-16 -43,0 -79,14 -107,43 -29,28 -43,74 -43,137l0 354 -103 0 0 -396c0,-46 -9,-81 -26,-104 -17,-23 -44,-34 -82,-34 -29,0 -56,7 -81,23 -25,15 -43,37 -54,67 -11,29 -16,72 -16,127l0 317 -104 0zm980 -725l0 -117 104 0 0 117 -104 0zm0 725l0 -611 104 0 0 611 -104 0zm259 0l0 -842 104 0 0 842 -104 0zm680 -198l107 14c-16,62 -47,111 -93,145 -45,35 -103,52 -174,52 -89,0 -160,-28 -212,-83 -52,-54 -78,-131 -78,-230 0,-103 26,-182 79,-239 53,-56 121,-85 205,-85 81,0 148,28 199,84 52,55 78,133 78,234 0,6 0,15 -1,27l-454 0c4,67 22,118 57,154 33,35 76,53 127,53 38,0 70,-10 97,-30 26,-20 48,-52 63,-96zm-338 -166l339 0c-4,-51 -17,-89 -39,-115 -32,-40 -75,-60 -127,-60 -48,0 -88,16 -120,48 -32,31 -50,74 -53,127zm535 182l102 -17c6,41 22,72 48,94 27,22 63,33 111,33 47,0 82,-10 106,-29 23,-19 34,-42 34,-68 0,-23 -10,-42 -31,-55 -14,-9 -50,-21 -106,-35 -75,-19 -128,-36 -157,-50 -29,-14 -52,-33 -67,-58 -15,-24 -22,-51 -22,-81 0,-27 6,-52 18,-76 13,-23 30,-42 51,-57 16,-12 38,-22 66,-30 28,-9 57,-13 89,-13 48,0 90,7 126,21 36,14 63,33 80,56 17,24 29,56 35,95l-101 14c-4,-31 -18,-56 -40,-74 -21,-18 -52,-27 -93,-27 -47,0 -81,8 -101,24 -20,15 -30,34 -30,55 0,13 4,25 12,36 9,11 22,20 40,27 10,4 40,13 91,27 73,19 124,35 153,48 29,12 52,30 68,54 17,24 25,53 25,88 0,35 -10,67 -30,97 -20,31 -49,54 -87,71 -38,17 -81,25 -129,25 -79,0 -140,-17 -181,-49 -42,-33 -68,-82 -80,-146z"/>
  </g>
 </g>
</svg>
