<?xml version="1.0" encoding="utf-8"?>
<!-- Generator: Adobe Illustrator 23.0.1, SVG Export Plug-In . SVG Version: 6.00 Build 0)  -->
<svg version="1.0" id="Layer_1" xmlns="http://www.w3.org/2000/svg" xmlns:xlink="http://www.w3.org/1999/xlink" x="0px" y="0px"
	 width="120" height="80"
	 viewBox="0 0 120 80" enable-background="new 0 0 120 80" xml:space="preserve">
<title>paysafecash-logo</title>
<g>
	<path fill="#7582BF" d="M107.31,36.97c0.4-0.31,0.83-0.58,1.28-0.79c0.73-0.39,1.57-0.5,2.37-0.33c1.1,0.19,1.96,1.07,2.13,2.17
		c0.07,0.28,0.1,0.57,0.1,0.85v6.36c0,0.19-0.03,0.26-0.26,0.26h-2.49c-0.19,0-0.26-0.03-0.26-0.23v-5.93c0-0.15-0.01-0.3-0.03-0.44
		c-0.04-0.53-0.5-0.92-1.03-0.88c-0.05,0-0.11,0.01-0.16,0.03c-0.58,0.1-1.12,0.34-1.59,0.69c-0.1,0.09-0.15,0.23-0.13,0.36v6.14
		c0,0.19-0.07,0.23-0.23,0.23h-2.54c-0.17,0-0.2-0.04-0.2-0.2V32.92c0-0.17,0.03-0.2,0.2-0.2h2.54c0.16,0,0.23,0.07,0.19,0.23v3.82
		C107.27,36.81,107.24,36.88,107.31,36.97z"/>
	<path fill="#2D2341" d="M24.62,35.99h2.9c0.17,0,0.2,0.1,0.23,0.19c0.73,1.75,1.45,3.54,2.18,5.27c0.03,0.03,0.03,0.1,0.06,0.16
		c0.3-0.79,0.56-1.55,0.83-2.31c0.36-1.05,0.76-2.08,1.12-3.13c0.02-0.12,0.13-0.21,0.25-0.2c0,0,0.01,0,0.01,0h2.77
		c-0.16,0.44-0.36,0.89-0.53,1.33c-1.38,3.52-2.77,7.07-4.15,10.63c-0.06,0.17-0.13,0.2-0.3,0.2h-2.37c-0.2,0-0.23-0.03-0.16-0.2
		c0.36-0.89,0.72-1.77,1.08-2.7c0.07-0.12,0.07-0.27,0-0.39c-1.28-2.87-2.57-5.76-3.82-8.6C24.67,36.17,24.64,36.09,24.62,35.99z"/>
	<path fill="#7582BF" d="M85.43,39.35h-2.66c-0.16,0-0.26-0.04-0.3-0.2c-0.14-0.54-0.55-0.96-1.08-1.12
		c-0.85-0.28-1.78,0.18-2.06,1.03c-0.01,0.02-0.01,0.04-0.02,0.06c-0.24,0.7-0.32,1.44-0.23,2.17c0.02,0.36,0.1,0.72,0.23,1.05
		c0.2,0.69,0.83,1.16,1.55,1.15c0.73,0.03,1.38-0.45,1.58-1.15c0.03-0.17,0.19-0.29,0.36-0.27h2.39c0.16,0,0.19,0.04,0.16,0.2
		c-0.39,1.62-1.67,2.87-3.29,3.23c-1.91,0.44-3.63,0.07-5.01-1.42c-0.64-0.72-1.02-1.64-1.09-2.6c-0.12-0.97-0.01-1.95,0.33-2.86
		c0.56-1.44,1.84-2.48,3.36-2.74c1.08-0.25,2.21-0.15,3.23,0.3C84.19,36.79,85.12,37.95,85.43,39.35z"/>
	<path fill="#2D2341" d="M56.87,41.75v3.46c0,0.2-0.07,0.23-0.23,0.23h-2.47c-0.19,0-0.23-0.07-0.23-0.26v-6.97
		c0-0.2-0.03-0.27-0.23-0.23c-0.39,0.03-0.79,0-1.19,0c-0.13,0-0.16-0.04-0.16-0.17v-1.66c0-0.13,0.03-0.2,0.16-0.2h1.19
		c0.16,0,0.23-0.03,0.23-0.23c-0.05-0.62,0.05-1.23,0.27-1.81c0.4-1.08,1.36-1.84,2.5-1.98c0.71-0.12,1.44-0.1,2.14,0.07
		c0.13,0.04,0.16,0.07,0.16,0.2v1.81c0,0.13-0.03,0.16-0.16,0.13c-0.26-0.07-0.53-0.1-0.79-0.1c-0.56-0.02-1.05,0.39-1.12,0.95
		c-0.04,0.27-0.05,0.55-0.03,0.82c0,0.13,0.1,0.13,0.16,0.13h1.68c0.13,0,0.19,0.04,0.19,0.2v1.65c0,0.16-0.07,0.2-0.19,0.2H57.1
		c-0.16,0-0.19,0.03-0.19,0.19C56.87,39.38,56.87,40.56,56.87,41.75z"/>
	<path fill="#2D2341" d="M38.32,45.67c-1.15,0-2.29-0.26-3.33-0.76c-0.17-0.07-0.23-0.13-0.13-0.33c0.26-0.5,0.53-1.02,0.79-1.55
		c0.07-0.13,0.1-0.13,0.23-0.07c0.69,0.35,1.44,0.55,2.21,0.56c0.36,0.03,0.72-0.03,1.05-0.17c0.32-0.13,0.47-0.49,0.35-0.81
		c-0.04-0.11-0.12-0.2-0.21-0.27c-0.37-0.25-0.78-0.44-1.22-0.56c-0.58-0.19-1.14-0.42-1.68-0.69c-1.81-0.99-1.58-3.46-0.23-4.43
		c0.83-0.55,1.8-0.83,2.8-0.82c1.08-0.02,2.16,0.22,3.13,0.69c0.13,0.07,0.17,0.1,0.1,0.23c-0.23,0.56-0.5,1.09-0.7,1.65
		c-0.06,0.13-0.1,0.13-0.23,0.1c-0.58-0.24-1.19-0.39-1.81-0.44c-0.31-0.03-0.62,0-0.92,0.1c-0.23,0.08-0.4,0.28-0.44,0.53
		c-0.03,0.26,0.12,0.5,0.36,0.59c0.44,0.23,0.91,0.42,1.39,0.56c0.46,0.15,0.9,0.34,1.33,0.56c1.17,0.64,1.64,2.08,1.08,3.29
		c-0.36,0.85-1.09,1.5-1.97,1.77C39.63,45.59,38.98,45.68,38.32,45.67z"/>
	<path fill="#7683C0" d="M99.14,45.67c-1.14-0.01-2.27-0.26-3.31-0.76c-0.17-0.07-0.2-0.13-0.1-0.3c0.27-0.49,0.53-1.02,0.76-1.55
		c0.07-0.13,0.1-0.16,0.27-0.1c0.79,0.39,1.66,0.57,2.54,0.53c0.26-0.01,0.52-0.08,0.76-0.19c0.3-0.14,0.43-0.49,0.29-0.79
		c-0.04-0.08-0.09-0.15-0.16-0.2c-0.34-0.27-0.73-0.47-1.16-0.59c-0.67-0.21-1.33-0.48-1.94-0.82c-1.45-0.89-1.38-2.8-0.59-3.79
		c0.54-0.65,1.31-1.07,2.14-1.19c1.45-0.27,2.95-0.08,4.29,0.56c0.13,0.07,0.13,0.13,0.07,0.27c-0.23,0.53-0.44,1.08-0.69,1.61
		c-0.07,0.13-0.1,0.17-0.23,0.1c-0.47-0.22-0.97-0.37-1.48-0.44c-0.41-0.09-0.83-0.07-1.22,0.07c-0.33,0.08-0.53,0.41-0.46,0.74
		c0,0.02,0.01,0.03,0.01,0.05c0.08,0.18,0.22,0.32,0.39,0.4c0.35,0.18,0.71,0.33,1.09,0.44c0.7,0.2,1.35,0.51,1.94,0.93
		c0.51,0.39,0.83,0.97,0.89,1.61c0.16,1.62-0.79,2.66-2.14,3.17c-0.24,0.1-0.5,0.17-0.76,0.19C99.93,45.64,99.53,45.67,99.14,45.67z
		"/>
	<path fill="#7582BF" d="M72.25,39.61c-1.05,0.03-1.92-0.8-1.94-1.85c0-0.02,0-0.04,0-0.06c-0.01-1.06,0.84-1.93,1.91-1.94
		c0.01,0,0.02,0,0.04,0c1.07,0.01,1.93,0.88,1.94,1.94c0,1.05-0.85,1.91-1.91,1.91C72.28,39.61,72.27,39.61,72.25,39.61z"/>
	<path fill="#EA5174" d="M72.25,45.67c-1.07,0-1.94-0.87-1.94-1.94c0-1.07,0.87-1.94,1.94-1.94c1.06,0,1.93,0.85,1.94,1.91
		C74.2,44.77,73.33,45.65,72.25,45.67z"/>
	<path fill="#2D2341" d="M15.82,35.16c-0.27-0.89-0.92-1.63-1.77-2.01c-0.67-0.31-1.4-0.46-2.14-0.44H7.04
		c-0.16,0-0.23,0.03-0.23,0.23v12.35c0,0.16,0.07,0.2,0.2,0.2h2.6c0.17,0,0.23-0.04,0.23-0.23v-3.91c0-0.2-0.07-0.44,0.03-0.53
		c0.1-0.09,0.33-0.03,0.53-0.03c0.78,0.03,1.56,0,2.34-0.1c1.35-0.19,2.49-1.08,3-2.34C16.16,37.34,16.19,36.2,15.82,35.16z
		 M12.72,37.96c-0.28,0.37-0.72,0.58-1.18,0.56h-1.48c-0.13,0-0.2-0.04-0.17-0.2v-3.26c0-0.16,0.07-0.19,0.23-0.19h1.33
		c0.86-0.05,1.6,0.61,1.65,1.48c0,0.01,0,0.03,0,0.04C13.16,36.93,13.02,37.49,12.72,37.96z"/>
	<path fill="#2D2341" d="M68.27,39.38c-0.49-2.46-2.89-4.06-5.36-3.57c-1.3,0.26-2.43,1.08-3.08,2.24c-0.6,1.1-0.82,2.36-0.62,3.6
		c0.17,1.7,1.31,3.14,2.93,3.69c1,0.34,2.06,0.43,3.1,0.26c0.94-0.11,1.84-0.41,2.66-0.89c0.13-0.1,0.16-0.13,0.1-0.3
		c-0.23-0.5-0.44-0.99-0.69-1.52c-0.07-0.13-0.1-0.16-0.23-0.07c-0.81,0.46-1.73,0.68-2.66,0.63c-1.11,0-2.03-0.84-2.14-1.94
		c-0.04-0.16,0.03-0.23,0.19-0.23h5.7c0.1,0,0.19,0.03,0.19-0.13C68.42,40.56,68.39,39.96,68.27,39.38z M65.24,39.74H62.4
		c-0.06,0-0.16,0.03-0.13-0.1c0-0.65,0.32-1.25,0.85-1.62c0.68-0.39,1.54-0.15,1.93,0.52c0.03,0.05,0.06,0.11,0.08,0.17
		c0.12,0.27,0.21,0.56,0.27,0.86C65.4,39.74,65.34,39.74,65.24,39.74z"/>
	<path fill="#7582BF" d="M94.43,40.56c0-0.69,0.04-1.39-0.03-2.11c-0.04-1.29-1-2.37-2.28-2.57c-0.81-0.16-1.65-0.17-2.47-0.03
		c-1.01,0.13-1.99,0.47-2.86,0.99c-0.1,0.07-0.13,0.1-0.07,0.2c0.23,0.44,0.44,0.96,0.69,1.42c0.07,0.13,0.13,0.13,0.27,0.1
		c0.49-0.23,1.01-0.4,1.55-0.5c0.51-0.14,1.04-0.15,1.55-0.03c0.35,0.08,0.62,0.37,0.66,0.73c0.03,0.19,0,0.39,0.03,0.59
		c0.03,0.2-0.03,0.19-0.19,0.16c-1-0.11-2.01,0.01-2.97,0.33c-1.19,0.44-1.97,1.22-2.11,2.54c-0.2,2.08,1.65,3.59,3.69,3.26
		c0.55-0.1,1.08-0.3,1.55-0.59v0.13c-0.03,0.23,0.03,0.3,0.27,0.3h2.47c0.19,0,0.23-0.07,0.23-0.23
		C94.43,43.66,94.43,42.11,94.43,40.56z M91.36,43.43c-0.47,0.31-1.05,0.39-1.58,0.23c-0.43-0.12-0.73-0.51-0.73-0.95
		c-0.05-0.45,0.18-0.89,0.58-1.12c0.55-0.28,1.18-0.35,1.77-0.2c0.1,0,0.1,0.1,0.1,0.16v1.68C91.46,43.3,91.46,43.36,91.36,43.43z"
		/>
	<path fill="#2D2341" d="M51.5,38.82c0-1.55-0.76-2.54-2.21-2.9c-0.84-0.17-1.69-0.19-2.54-0.07c-0.99,0.13-1.94,0.46-2.8,0.96
		c-0.06,0.03-0.16,0.07-0.1,0.19c0.23,0.44,0.44,0.96,0.69,1.42c0.07,0.1,0.1,0.13,0.23,0.1c0.38-0.17,0.78-0.3,1.18-0.4
		c0.57-0.17,1.16-0.22,1.75-0.16c0.4,0.03,0.73,0.3,0.83,0.69c0.03,0.25,0.04,0.51,0.03,0.76c0,0.1-0.07,0.06-0.13,0.06
		c-0.3,0-0.62-0.03-0.92-0.03c-0.84,0-1.67,0.17-2.44,0.5c-1.28,0.55-2,1.93-1.71,3.29c0.38,1.63,1.97,2.68,3.62,2.37
		c0.56-0.08,1.1-0.28,1.58-0.59v0.13c-0.03,0.2,0.04,0.27,0.27,0.27h2.54c0.13,0,0.19,0,0.19-0.16C51.5,43.1,51.55,40.96,51.5,38.82
		z M48.37,43.46c-0.4,0.24-0.87,0.32-1.33,0.23c-0.44-0.04-0.8-0.36-0.89-0.79c-0.13-0.47,0.04-0.97,0.44-1.25
		c0.55-0.33,1.22-0.43,1.85-0.27c0.1,0,0.07,0.1,0.07,0.16v1.65C48.53,43.31,48.47,43.42,48.37,43.46z"/>
	<path fill="#2D2341" d="M24.48,38.65c0.05-1.29-0.82-2.43-2.08-2.73c-0.76-0.18-1.54-0.22-2.31-0.13c-1.13,0.09-2.22,0.44-3.2,1.02
		c-0.1,0.07-0.13,0.1-0.06,0.23c0.23,0.44,0.44,0.92,0.69,1.42c0.07,0.13,0.13,0.13,0.23,0.1c0.44-0.19,0.91-0.34,1.38-0.44
		c0.56-0.17,1.15-0.19,1.71-0.07c0.41,0.08,0.7,0.47,0.66,0.89v0.23c0,0.39,0,0.39-0.36,0.36h-0.13c-0.98-0.07-1.96,0.08-2.87,0.44
		c-1.35,0.5-2.13,1.92-1.81,3.33c0.36,1.63,1.94,2.69,3.59,2.4c0.56-0.08,1.1-0.29,1.58-0.59v0.19c0,0.13,0.04,0.17,0.16,0.17h2.66
		c0.13,0,0.16-0.04,0.16-0.17C24.48,43.08,24.52,40.87,24.48,38.65z M21.58,42.37v0.86c0,0.1,0,0.16-0.1,0.19
		c-0.47,0.32-1.07,0.41-1.62,0.23c-0.41-0.12-0.69-0.49-0.69-0.92c-0.05-0.5,0.23-0.98,0.69-1.19c0.51-0.21,1.08-0.25,1.62-0.13
		c0.1,0,0.1,0.1,0.1,0.17V42.37z"/>
</g>
</svg>
