<?xml version="1.0" encoding="utf-8"?>
<!-- Generator: Adobe Illustrator 23.0.1, SVG Export Plug-In . SVG Version: 6.00 Build 0)  -->
<svg version="1.1" id="Ebene_1" xmlns="http://www.w3.org/2000/svg" xmlns:xlink="http://www.w3.org/1999/xlink" x="0px" y="0px"
	 viewBox="0 0 141.7 99.2" style="enable-background:new 0 0 141.7 99.2;" xml:space="preserve" width="141" height="100">
<g id="Layer_x0020_1">
	<path style="fill:#FEFEFE;stroke:#000000;stroke-width:7.620000e-02;" d="M14.9,9.6h112c2.2,0,4,1.8,4,4v72c0,2.2-1.8,4-4,4h-112c-2.2,0-4-1.8-4-4v-72C10.9,11.4,12.7,9.6,14.9,9.6z"/>
	<g id="_493931304">
		<path id="_301275448" style="fill:#03AEED;" d="M24.9,48.2c0.2-0.1,0.2-0.4,0.2-0.5c0.8-3.8,3.1-6.1,6.7-6.8c2.4-0.4,4.7-0.1,6.9,0.9
			c0.4,0.2,0.5,0.4,0.3,0.8c-0.3,0.9-0.6,1.7-0.9,2.6c-0.1,0.5-0.3,0.5-0.7,0.3c-1.4-0.8-2.9-1.2-4.5-0.9c-2,0.3-3.3,1.6-3.7,3.7
			c-0.3,1.4-0.2,2.8,0.3,4.1c0.7,1.7,2,2.6,3.7,2.7c1.6,0.1,3-0.2,4.4-1.1c0.4-0.2,0.5-0.2,0.6,0.3c0.2,1,0.4,2,0.6,3
			c0.1,0.3,0,0.4-0.2,0.5c-2.8,1.4-8.1,1.9-11.2-1c-1.3-1.2-2-2.7-2.4-4.4c-0.1-0.3,0-0.6-0.3-0.7C24.9,50.5,24.9,49.4,24.9,48.2
			L24.9,48.2z M88.5,49.8c0,2.7,0,5.3,0,8c0,0.5-0.1,0.7-0.6,0.7c-1-0.1-2,0-2.9,0c-0.5,0-0.6-0.2-0.6-0.7c0-1.8,0-3.7,0-5.5
			c0-0.5-0.1-0.6-0.6-0.6c-1.8,0-3.6,0-5.4,0c-0.4,0-0.6,0.1-0.6,0.6c0,1.9,0,3.7,0,5.6c0,0.5-0.1,0.7-0.6,0.7c-1,0-2,0-3,0
			c-0.4,0-0.6-0.1-0.6-0.6c0-5.4,0-10.9,0-16.3c0-0.4,0.1-0.5,0.5-0.5c1.1,0,2.2,0,3.3,0c0.4,0,0.5,0.2,0.5,0.5c0,1.8,0,3.7,0,5.5
			c0,0.5,0.1,0.7,0.7,0.7c1.8,0,3.5,0,5.3,0c0.5,0,0.7-0.2,0.6-0.7c0-1.8,0-3.6,0-5.4c0-0.5,0.1-0.7,0.6-0.7c1,0,2.1,0,3.1,0
			c0.4,0,0.5,0.2,0.5,0.6C88.5,44.4,88.5,47.1,88.5,49.8z M56.9,58.5c-1.3,0-2.6,0-3.8,0c-0.3,0-0.4-0.3-0.4-0.5
			c-0.3-0.9-0.6-1.8-0.9-2.7c-0.1-0.4-0.3-0.5-0.6-0.5c-1.7,0-3.5,0-5.2,0c-0.4,0-0.5,0.1-0.6,0.5c-0.3,0.9-0.6,1.8-0.9,2.7
			c-0.1,0.2-0.1,0.5-0.4,0.5c-1.3,0-2.6,0-3.9,0c0.6-1.9,1.2-3.7,1.8-5.5c1.3-3.8,2.5-7.5,3.8-11.3c0.1-0.4,0.3-0.6,0.8-0.6
			c1.4,0,2.8,0,4.2,0c0.3,0,0.5,0.1,0.6,0.4c1.8,5.5,3.6,11.1,5.5,16.6C56.9,58.3,56.9,58.4,56.9,58.5L56.9,58.5z M48.6,44.8
			L48.6,44.8c-0.1,0-0.1,0-0.1,0c-0.7,2.1-1.4,4.1-2,6.2c-0.1,0.3,0.1,0.3,0.3,0.3c1.2,0,2.4,0,3.5,0c0.3,0,0.3-0.1,0.2-0.4
			C49.9,49,49.3,46.9,48.6,44.8z M64.2,58.9c-2.2,0-4.1-0.4-5.9-1.3c-0.4-0.2-0.5-0.4-0.4-0.9c0.2-0.8,0.4-1.7,0.5-2.5
			c0.1-0.5,0.2-0.6,0.6-0.3c1.6,0.8,3.3,1.4,5.2,1.4c0.6,0,1.1-0.1,1.7-0.3c0.5-0.2,0.8-0.6,0.8-1.2c0-0.6-0.3-1-0.7-1.2
			c-0.9-0.5-1.9-0.7-2.8-1.1c-0.9-0.3-1.8-0.6-2.6-1.1C58.9,49.4,58,48,58,45.9c0.1-2.3,1.2-3.8,3.2-4.6c1.7-0.7,3.6-0.6,5.4-0.4
			c1.2,0.2,2.3,0.6,3.4,1.1c0.4,0.2,0.5,0.4,0.4,0.8c-0.2,0.8-0.4,1.7-0.6,2.6c-0.1,0.5-0.2,0.5-0.6,0.3c-1.7-0.9-3.5-1.4-5.4-1.2
			c-0.3,0-0.6,0.1-0.9,0.3c-0.7,0.4-0.8,1.4-0.2,2c0.4,0.4,1,0.6,1.6,0.8c1.2,0.4,2.5,0.7,3.7,1.3c1.3,0.6,2.4,1.5,2.9,3.1
			c0.6,2.3-0.3,4.7-2.3,5.9C67.1,58.7,65.5,59,64.2,58.9z M104.1,58.2c-1.1,0.2-2.2,0.4-3.3,0.6c-1.7,0.3-3.4,0.6-5.1,0.9
			c-1.8,0.3-2.8-0.4-2.9-2.3c-0.2-3.1-0.3-6.1-0.4-9.2c-0.1-1.4-0.1-2.9-0.2-4.3c-0.1-1.6,0.8-3,2.2-3.2c0.4-0.1,0.7,0,0.9,0.5
			c1.6,4.2,3.2,8.4,4.9,12.5c0.3,0.7,0.6,1.3,1,2C101.8,57,102.8,57.8,104.1,58.2z M103.9,40.3c1.2-0.1,2.4-0.1,3.7-0.2
			c0.3,0,0.4,0.1,0.5,0.4c0.8,2.8,1.8,5.6,2.4,8.5c0.6,2.7-1.6,5.5-4.2,5.4c-1.1,0-1.8-0.6-2.2-1.6c-0.6-1.4-1.1-3-1.7-4.4
			c-0.8-2.3-1.6-4.7-2.5-7c-0.3-0.7-0.1-0.8,0.5-0.8C101.6,40.4,102.8,40.3,103.9,40.3C103.9,40.3,103.9,40.3,103.9,40.3z
			 M108.3,57.3c1-0.5,2-1.1,2.9-1.9c2.4-2.1,3.4-4.7,2.7-8c-0.5-2.3-1.2-4.6-1.8-6.9c-0.1-0.5-0.1-0.7,0.4-0.7
			c0.7,0,1.4-0.1,2.2-0.1c1.1,0,1.8,0.9,1.7,2.3c-0.1,1.8-0.2,3.6-0.3,5.4c-0.1,2-0.2,4.1-0.3,6.1c-0.1,1.8-0.8,2.7-2.5,3
			c-1.6,0.3-3.2,0.6-4.8,0.9C108.4,57.4,108.3,57.4,108.3,57.3L108.3,57.3z"/>
		<rect id="_301275184" x="20.2" y="19.2" style="fill:none;stroke:#03AEED;stroke-width:0.25;" width="101.4" height="60.8"/>
	</g>
</g>
</svg>
