<svg id="Ebene_1" data-name="Ebene 1" xmlns="http://www.w3.org/2000/svg" viewBox="0 0 120 80"><title>braintree_new_wout_border</title><g id="Layer_1"><path d="M4,0H116a4,4,0,0,1,4,4V76a4,4,0,0,1-4,4H4a4,4,0,0,1-4-4V4A4,4,0,0,1,4,0Z" transform="translate(0 0)" style="fill:#fff"/><path d="M8.38,39.18h2.56c2,0,3-.65,3-1.91s-1.06-1.91-3.12-1.91H8.38v3.83Zm0-9.24v3.56h2.25c1.68,0,2.56-.63,2.56-1.78s-0.9-1.78-2.58-1.78H8.38ZM4.81,41.1V39.18h1.5V29.95H4.81V28h6c2.76,0,4.45,1.28,4.45,3.51a2.88,2.88,0,0,1-1.93,2.79,3.24,3.24,0,0,1,2.65,3c0,2.39-1.84,3.72-4.85,3.72H4.81Zm22.1-6.8a1.55,1.55,0,0,0-1.53-1.22A3.38,3.38,0,0,0,22,36.71v2.48h3.32V41.1H17.92V39.18H20V33.42H18.37V31.5H22v1.62a3.82,3.82,0,0,1,3.48-1.94,3.17,3.17,0,0,1,3.32,2.57ZM37,37.22a7.84,7.84,0,0,0-2.45-.41c-1.26,0-2.47.41-2.47,1.55,0,0.86.76,1.26,1.82,1.26,1.46,0,3.1-.79,3.1-2.14V37.22Zm0-1.71V35a2,2,0,0,0-2.25-1.91A4.11,4.11,0,0,0,32,34.2l-1.3-1.42a5.78,5.78,0,0,1,4.11-1.6c2.4,0,4.27,1.28,4.27,3.72v4.28h1.39V41.1H37v-1a4,4,0,0,1-3.28,1.33c-2,0-3.68-1-3.68-3,0-2.37,2.31-3.27,4.42-3.27A9.28,9.28,0,0,1,37,35.51Zm11.72-5.92H46.51V26.66h2.22v2.93Zm3.68,9.6V41.1H42.76V39.18h4V33.42H43.71V31.5h5v7.68h3.68Zm2.38,0h1.46V33.42H54.89V31.5h3.32v1.24a3.75,3.75,0,0,1,3.28-1.55,3.4,3.4,0,0,1,3.66,3.54v4.46h1.46V41.1h-5V39.18h1.53V35.26a1.85,1.85,0,0,0-1.93-2.14,2.94,2.94,0,0,0-3,2.86v3.2h1.53V41.1h-5V39.18Zm14.53-5.77H66.84V31.5h2.49V28h2V31.5H76v1.92H71.31v4a2,2,0,0,0,2.22,2.1,4,4,0,0,0,2.76-1.33l1.33,1.37a5.47,5.47,0,0,1-4.09,1.82c-2.4,0-4.2-1.33-4.2-3.9v-4.1ZM88.4,34.3a1.55,1.55,0,0,0-1.53-1.22,3.38,3.38,0,0,0-3.37,3.63v2.48h3.32V41.1H79.42V39.18h2.11V33.42H79.86V31.5h3.62v1.62A3.82,3.82,0,0,1,87,31.19a3.17,3.17,0,0,1,3.32,2.57Zm5.32,1h5.88A2.91,2.91,0,0,0,96.75,33,3,3,0,0,0,93.72,35.31Zm8,4.33A6.61,6.61,0,0,1,97,41.41c-3.21,0-5.46-2.16-5.46-5.11a5,5,0,0,1,5.21-5.11c3,0,5.12,2.32,5.12,5.47V37H93.63A3.25,3.25,0,0,0,97,39.57a4.59,4.59,0,0,0,3.35-1.33l1.32,1.4h0ZM106,35.31h5.88A2.91,2.91,0,0,0,109,33,3,3,0,0,0,106,35.31Zm8,4.33a6.61,6.61,0,0,1-4.69,1.78c-3.21,0-5.46-2.16-5.46-5.11A5,5,0,0,1,109,31.19c3,0,5.12,2.32,5.12,5.47V37h-8.24a3.25,3.25,0,0,0,3.39,2.57,4.59,4.59,0,0,0,3.35-1.33l1.32,1.4h0Z" transform="translate(0 0)" style="fill:#3e3c42"/><path d="M76.76,47c-0.14.92-.84,0.92-1.52,0.92H74.85l0.27-1.72A0.21,0.21,0,0,1,75.33,46h0.18a1.47,1.47,0,0,1,1.12.26A0.85,0.85,0,0,1,76.76,47Zm-0.3-2.4H73.9a0.36,0.36,0,0,0-.35.3l-1,6.56a0.21,0.21,0,0,0,.21.25H74a0.25,0.25,0,0,0,.25-0.21l0.29-1.86a0.36,0.36,0,0,1,.35-0.3h0.81a2.63,2.63,0,0,0,2.91-2.43,2,2,0,0,0-.33-1.65,2.37,2.37,0,0,0-1.87-.65h0ZM58.5,47c-0.14.92-.84,0.92-1.52,0.92H56.6l0.27-1.72A0.21,0.21,0,0,1,57.08,46h0.18a1.47,1.47,0,0,1,1.12.26A0.85,0.85,0,0,1,58.5,47Zm-0.3-2.4H55.65a0.36,0.36,0,0,0-.35.3l-1,6.56a0.21,0.21,0,0,0,.21.25H55.7a0.36,0.36,0,0,0,.35-0.3l0.28-1.77a0.36,0.36,0,0,1,.35-0.3h0.81a2.63,2.63,0,0,0,2.91-2.43,2,2,0,0,0-.33-1.65A2.37,2.37,0,0,0,58.21,44.61Zm5.94,4.75a1.37,1.37,0,0,1-1.38,1.17,0.95,0.95,0,0,1-1-1.19,1.37,1.37,0,0,1,1.37-1.18,1,1,0,0,1,.82.33A1.05,1.05,0,0,1,64.15,49.36ZM65.86,47H64.63a0.21,0.21,0,0,0-.21.18l-0.05.34-0.09-.12a1.74,1.74,0,0,0-1.45-.51,2.82,2.82,0,0,0-2.74,2.47,2.31,2.31,0,0,0,.46,1.88,1.92,1.92,0,0,0,1.54.62,2.35,2.35,0,0,0,1.7-.7l-0.05.34a0.21,0.21,0,0,0,.21.25h1.1a0.36,0.36,0,0,0,.35-0.3l0.66-4.2A0.21,0.21,0,0,0,65.86,47ZM82.4,49.36A1.37,1.37,0,0,1,81,50.53a0.95,0.95,0,0,1-1-1.19,1.37,1.37,0,0,1,1.37-1.18,1,1,0,0,1,.82.33A1.05,1.05,0,0,1,82.4,49.36ZM84.11,47H82.89a0.21,0.21,0,0,0-.21.18l-0.05.34-0.09-.12a1.74,1.74,0,0,0-1.45-.51,2.82,2.82,0,0,0-2.74,2.47,2.32,2.32,0,0,0,.46,1.88,1.92,1.92,0,0,0,1.54.62,2.35,2.35,0,0,0,1.7-.7L82,51.47a0.21,0.21,0,0,0,.21.25h1.1a0.36,0.36,0,0,0,.35-0.3l0.66-4.2A0.21,0.21,0,0,0,84.11,47h0ZM72.39,47H71.15a0.36,0.36,0,0,0-.29.16l-1.7,2.5-0.72-2.4A0.36,0.36,0,0,0,68.1,47H66.89a0.21,0.21,0,0,0-.2.28l1.36,4L66.77,53a0.21,0.21,0,0,0,.17.34h1.23a0.36,0.36,0,0,0,.29-0.15l4.1-5.91A0.21,0.21,0,0,0,72.39,47Zm13.17-2.19-1.05,6.68a0.21,0.21,0,0,0,.21.25h1.06a0.36,0.36,0,0,0,.35-0.3l1-6.56v0h0A0.21,0.21,0,0,0,87,44.61H85.77a0.21,0.21,0,0,0-.21.18h0ZM49.82,46.85l1.65,4.92H51l-0.54-1.61H48.35l-0.92,1.61H46.88l2.83-4.92h0.11Zm-0.16,1-1,1.81h1.66ZM94,47.73l-0.27.37a2.27,2.27,0,0,0-1.59-.66,2.2,2.2,0,0,0-1.09.28,2.09,2.09,0,0,0-.79.77,2,2,0,0,0-.29,1,1.73,1.73,0,0,0,.22.88,1.53,1.53,0,0,0,.64.6,2,2,0,0,0,1,.22,2.52,2.52,0,0,0,1.52-.52l0.24,0.35a3.82,3.82,0,0,1-.9.46,2.88,2.88,0,0,1-.87.12,2.31,2.31,0,0,1-1.49-.46,2,2,0,0,1-.76-1.64,2.39,2.39,0,0,1,.76-1.79,2.62,2.62,0,0,1,1.9-.74,2.6,2.6,0,0,1,.94.16A3,3,0,0,1,94,47.73Zm1.63,0.8a1.35,1.35,0,0,1,.68.18,1.26,1.26,0,0,1,.49.5,1.49,1.49,0,0,1,.17.72,1.7,1.7,0,0,1-.22.85,1.59,1.59,0,0,1-.6.61,1.68,1.68,0,0,1-.85.21,1.3,1.3,0,0,1-1-.38,1.34,1.34,0,0,1-.38-1,1.73,1.73,0,0,1,.22-0.86,1.62,1.62,0,0,1,.61-0.62,1.65,1.65,0,0,1,.84-0.22h0Zm0,0.36a1.31,1.31,0,0,0-.66.17,1.2,1.2,0,0,0-.47.48,1.39,1.39,0,0,0-.16.67,1,1,0,0,0,.28.75,1,1,0,0,0,.74.29A1.24,1.24,0,0,0,96,51.09a1.2,1.2,0,0,0,.46-0.48,1.42,1.42,0,0,0,.17-0.68,1.12,1.12,0,0,0-.13-0.54A0.9,0.9,0,0,0,96.16,49a1,1,0,0,0-.51-0.13h0Zm1.88-.28H97.9L97.84,49a1.24,1.24,0,0,1,1-.49,0.94,0.94,0,0,1,.59.2,0.91,0.91,0,0,1,.29.46,1.46,1.46,0,0,1,.49-0.48,1.16,1.16,0,0,1,.59-0.17,0.9,0.9,0,0,1,.67.26,0.91,0.91,0,0,1,.26.67,3.75,3.75,0,0,1,0,.46l-0.22,1.6h-0.36l0.2-1.4a5.2,5.2,0,0,0,.06-0.64,0.57,0.57,0,0,0-.17-0.42,0.6,0.6,0,0,0-.44-0.17,0.9,0.9,0,0,0-.54.18,1,1,0,0,0-.35.43,2.5,2.5,0,0,0-.16.62l-0.2,1.4H99.09l0.22-1.6a3,3,0,0,0,0-.42,0.62,0.62,0,0,0-.17-0.45,0.58,0.58,0,0,0-.43-0.17,0.94,0.94,0,0,0-.43.11,1,1,0,0,0-.34.28,1.2,1.2,0,0,0-.2.43,3.92,3.92,0,0,0-.1.46l-0.19,1.38H97.11l0.42-2.92h0Zm4.78,0h0.38l-0.06.44a1.59,1.59,0,0,1,1.16-.51,1.33,1.33,0,0,1,1,.38,1.34,1.34,0,0,1,.38,1,1.65,1.65,0,0,1-.5,1.2,1.6,1.6,0,0,1-1.17.5,1.3,1.3,0,0,1-.64-0.15,1.28,1.28,0,0,1-.47-0.48l-0.21,1.63h-0.39l0.53-4h0Zm1.44,0.27a1.31,1.31,0,0,0-.66.17,1.23,1.23,0,0,0-.47.49,1.43,1.43,0,0,0-.17.7,1,1,0,0,0,.29.74,1,1,0,0,0,.75.28,1.25,1.25,0,0,0,.92-0.39,1.31,1.31,0,0,0,.38-1,1,1,0,0,0-1-1h0Zm4.35,2.65h-0.38l0.06-.44a1.59,1.59,0,0,1-1.16.52,1.32,1.32,0,0,1-1.36-1.37,1.64,1.64,0,0,1,.5-1.2,1.6,1.6,0,0,1,1.17-.5,1.21,1.21,0,0,1,1.11.63l0.07-.56h0.39Zm-1.44-.27a1.31,1.31,0,0,0,.66-0.17,1.22,1.22,0,0,0,.47-0.49A1.42,1.42,0,0,0,108,49.9a1,1,0,0,0-.29-0.74,1,1,0,0,0-.75-0.29,1.25,1.25,0,0,0-.92.39,1.31,1.31,0,0,0-.38,1,1,1,0,0,0,1,1h0ZM109,48.61h0.36l-0.06.45a1.32,1.32,0,0,1,1-.52,1,1,0,0,1,.73.28,1,1,0,0,1,.28.75,5.47,5.47,0,0,1-.06.63l-0.18,1.34h-0.37l0.18-1.34a5.15,5.15,0,0,0,.06-0.63,0.67,0.67,0,0,0-.19-0.49,0.65,0.65,0,0,0-.49-0.19,1.07,1.07,0,0,0-.94.56,2.62,2.62,0,0,0-.21.83l-0.17,1.26h-0.37L109,48.61h0Zm2.55,0h0.39l0.76,2.16,1.25-2.16h0.42l-2.31,4h-0.42l0.83-1.43Z" transform="translate(0 0)" style="fill:#646368"/></g></svg>