<?xml version="1.0" encoding="utf-8"?>
<!-- Generator: Adobe Illustrator 13.0.1, SVG Export Plug-In  -->
<!DOCTYPE svg PUBLIC "-//W3C//DTD SVG 1.1//EN" "http://www.w3.org/Graphics/SVG/1.1/DTD/svg11.dtd" [
	<!ENTITY ns_flows "http://ns.adobe.com/Flows/1.0/">
]>
<svg version="1.1"
	 xmlns="http://www.w3.org/2000/svg" xmlns:xlink="http://www.w3.org/1999/xlink" xmlns:a="http://ns.adobe.com/AdobeSVGViewerExtensions/3.0/"
	 x="0px" y="0px" width="57px" height="45px" viewBox="-0.044 -0.587 57 45" enable-background="new -0.044 -0.587 57 45"
	 xml:space="preserve">
<defs>
</defs>
<path fill="#00AEEF" d="M28.576,19.51c5.387,0,9.755-4.366,9.755-9.755C38.331,4.368,33.963,0,28.576,0s-9.755,4.368-9.755,9.755
	C18.821,15.144,23.189,19.51,28.576,19.51"/>
<path fill="#00AEEF" d="M35.771,17.647c-1.859,2.016-5.136,4.03-9.342,4.03c-3.263,0-6.071-1.268-7.858-2.677
	C7.921,20.117,0,21.702,0,21.702v4.313l56.501-0.006v-8.893C56.501,17.116,46.82,17.057,35.771,17.647"/>
<polyline fill="#003768" points="6.712,38.625 6.712,43.88 0,43.88 0,29.9 6.712,29.9 6.712,36.191 6.751,36.191 10.701,29.9 
	18.75,29.9 12.857,37.125 18.416,43.88 10.737,43.88 6.758,38.625 6.712,38.625 "/>
<path fill="#003768" d="M56.504,43.303c-1.583,0.483-3.666,0.769-5.529,0.769c-6.639,0-11.516-1.887-11.516-7.377
	c0-4.961,4.726-7.116,11.187-7.116c1.795,0,4.075,0.199,5.858,0.768l-0.002,4.806c-1.322-0.802-2.644-1.299-4.537-1.299
	c-2.464,0-4.926,1.212-4.926,2.974c0,1.765,2.451,2.974,4.926,2.974c1.862,0,3.215-0.516,4.537-1.278L56.504,43.303"/>
<path fill="#003768" d="M19.849,29.9h13.568c3.525,0,4.68,1.37,4.68,3.504c0,2.389-2.135,3.426-4.326,3.544v0.04
	c2.252,0.175,4.444,0.431,4.444,3.25c0,1.84-1.155,3.642-5.032,3.642H19.849V29.9 M26.562,41.038h3.5
	c1.312,0,1.759-0.545,1.759-1.347c0-0.803-0.452-1.378-1.744-1.378h-3.515V41.038z M26.562,35.825h3.344
	c1.292,0,1.797-0.523,1.797-1.326c0-0.921-0.51-1.38-1.704-1.38h-3.437V35.825z"/>
</svg>
