<?xml version="1.0" encoding="UTF-8"?>
<!DOCTYPE svg PUBLIC "-//W3C//DTD SVG 1.1//EN" "http://www.w3.org/Graphics/SVG/1.1/DTD/svg11.dtd">
<!-- Creator: CorelDRAW -->
<svg xmlns="http://www.w3.org/2000/svg" xml:space="preserve" width="31.75mm" height="21.167mm" style="shape-rendering:geometricPrecision; text-rendering:geometricPrecision; image-rendering:optimizeQuality; fill-rule:evenodd; clip-rule:evenodd"
viewBox="0 0 31.75 21.167"
 xmlns:xlink="http://www.w3.org/1999/xlink">
 <defs>
  <style type="text/css">
   <![CDATA[
    .str0 {stroke:#C5C6C6;stroke-width:0.0762}
    .fil0 {fill:none}
    .fil1 {fill:white}
    .fil3 {fill:#2B2A29;fill-rule:nonzero}
    .fil4 {fill:#E31E24;fill-rule:nonzero}
    .fil2 {fill:#FFE700;fill-rule:nonzero}
   ]]>
  </style>
 </defs>
 <g id="Layer_x0020_1">
  <metadata id="CorelCorpID_0Corel-Layer"/>
  <g>
   <path class="fil0 str0" d="M1.0583 0.0002l29.6334 0c0.5843,0 1.0582,0.4739 1.0582,1.0583l0.0001 19.05c-0.0001,0.5842 -0.474,1.0581 -1.0584,1.0581l-29.6333 0.0002c-0.5843,-0.0002 -1.0582,-0.4741 -1.0582,-1.0585l-0.0001 -19.0498c0.0001,-0.5844 0.474,-1.0583 1.0584,-1.0583z"/>
   <path id="1" class="fil1" d="M1.0583 0.0002l29.6334 0c0.5843,0 1.0582,0.4739 1.0582,1.0583l0.0001 19.05c-0.0001,0.5842 -0.474,1.0581 -1.0584,1.0581l-29.6333 0.0002c-0.5843,-0.0002 -1.0582,-0.4741 -1.0582,-1.0585l-0.0001 -19.0498c0.0001,-0.5844 0.474,-1.0583 1.0584,-1.0583z"/>
  </g>
  <g>
   <path class="fil2" d="M24.34 10.5835c0,4.675 -3.7898,8.465 -8.465,8.465 -4.6751,0 -8.465,-3.79 -8.465,-8.465 0,-4.6751 3.7899,-8.465 8.465,-8.465 4.6752,0 8.465,3.7899 8.465,8.465z"/>
   <path class="fil3" d="M11.0966 10.828l0.966 0c-0.0542,0.3498 -0.205,0.6606 -0.4867,0.8987 -0.2818,0.2381 -0.6627,0.3571 -1.143,0.3571 -0.5344,0 -0.9607,-0.1676 -1.2788,-0.5027 -0.3181,-0.3351 -0.4771,-0.7509 -0.4771,-1.2474 0,-0.5145 0.1569,-0.9489 0.4709,-1.3032 0.3139,-0.3544 0.7329,-0.5316 1.2569,-0.5316 0.5073,0 0.9174,0.1671 1.2304,0.5011 0.3129,0.334 0.4513,0.7887 0.4513,1.3642 0,0.0474 -0.0011,0.1129 -0.0031,0.1963l-2.3191 0c0.0041,0.2166 0.0457,0.371 0.1291,0.4632 0.0791,0.0874 0.3832,0.2165 0.5704,0.2165 0.2703,0 0.585,-0.1301 0.6328,-0.4122zm-1.045 -2.5437l0 0 0.5329 -0.6953 1.0034 0.0042 -0.8743 0.6995 -0.662 -0.0084zm0.9514 1.5992l0 0c-0.003,-0.222 -0.0979,-0.367 -0.2103,-0.4586 -0.1097,-0.0894 -0.2393,-0.1041 -0.4156,-0.1041 -0.2839,0 -0.626,0.1876 -0.626,0.5627l1.2519 0z"/>
   <path class="fil3" d="M15.3776 12.0221l-1.2159 0 -0.6536 -0.9695 -0.7092 0.9695 -1.1469 0 1.2435 -1.8325 -1.1142 -1.6237 1.1732 0c0,0 0.5565,0.7494 0.5741,0.79 0.0216,-0.0384 0.5209,-0.79 0.5209,-0.79l1.2043 0 -1.1259 1.6062 1.2497 1.85z"/>
   <polygon class="fil3" points="16.8103,8.5643 16.5953,12.0221 15.6051,12.0221 15.417,8.5643 "/>
   <path class="fil3" d="M19.271 8.5751l0 0.7612 -0.6452 0 0 1.5602c0,0.1508 0.0366,0.2205 0.0934,0.2489 0.0568,0.0284 0.1108,0.0363 0.1715,0.0363 0.0941,0 0.251,-0.0343 0.3803,-0.0676l0 0.8786c-0.2311,0.0451 -0.4584,0.0521 -0.6818,0.0521 -0.3606,0 -0.6422,-0.0966 -0.8116,-0.2514 -0.1695,-0.1548 -0.2377,-0.3669 -0.2377,-0.7059l0.003 -0.3497 0 -1.4015 -0.5007 0 0 -0.7612 0.5242 0 -0.0059 -0.9729 1.065 0.0032 0 0.9697 0.6455 0z"/>
   <path class="fil3" d="M21.0606 12.0838c-0.5323,0 -0.9551,-0.1777 -1.2686,-0.5333 -0.3134,-0.3555 -0.4701,-0.7725 -0.4701,-1.2511 0,-0.5147 0.1635,-0.9435 0.4906,-1.2867 0.3271,-0.3431 0.7526,-0.5147 1.2764,-0.5147 0.5281,0 0.9525,0.1693 1.2732,0.5079 0.3208,0.3386 0.4813,0.7631 0.4813,1.2732 0,0.5147 -0.1625,0.9441 -0.4876,1.2884 -0.325,0.3443 -0.7568,0.5163 -1.2952,0.5163zm0.0387 -0.8194l0 0c0.6746,0 0.6974,-0.772 0.6974,-1.009 0,-0.3228 -0.0545,-0.9109 -0.6921,-0.9109 -0.6301,0 -0.6922,0.6084 -0.6922,0.9447 0,0.3951 0.0684,0.9752 0.6869,0.9752z"/>
   <path class="fil4" d="M16.7508 12.8085c0,0.3542 -0.2871,0.6413 -0.6413,0.6413 -0.3542,0 -0.6413,-0.2871 -0.6413,-0.6413 0,-0.3543 0.2871,-0.6413 0.6413,-0.6413 0.3542,0 0.6413,0.287 0.6413,0.6413z"/>
   <g id="_218424080">
    <path id="_218424200" class="fil3" d="M23.2794 9.3577c-0.2398,0 -0.435,-0.1952 -0.435,-0.435 0,-0.2398 0.1952,-0.4349 0.435,-0.4349 0.2398,0 0.4349,0.1951 0.4349,0.4349 0,0.2398 -0.1951,0.435 -0.4349,0.435zm0 -0.8024l0 0c-0.2026,0 -0.3674,0.1648 -0.3674,0.3674 0,0.2026 0.1648,0.3674 0.3674,0.3674 0.2026,0 0.3673,-0.1648 0.3673,-0.3674 0,-0.2026 -0.1647,-0.3674 -0.3673,-0.3674z"/>
   </g>
   <g id="_218424272">
    <path id="_218424296" class="fil3" d="M23.1988 8.96l0 0.1727 -0.1027 0 0 -0.4357 0.1915 0c0.0353,0 0.0636,0.0041 0.0851,0.0123 0.0213,0.0082 0.0391,0.0232 0.0531,0.0452 0.014,0.0218 0.021,0.0462 0.021,0.073 0,0.0523 -0.0252,0.0899 -0.0756,0.1126l0.0804 0.1926 -0.1127 0 -0.067 -0.1727 -0.0731 0zm0 -0.1854l0 0 0 0.1111 0.0626 0c0.0204,0 0.0353,-0.0015 0.0445,-0.0043 0.0093,-0.0029 0.0175,-0.0093 0.0248,-0.0192 0.0072,-0.0099 0.0108,-0.0212 0.0108,-0.034 0,-0.0121 -0.0036,-0.023 -0.0108,-0.0326 -0.0073,-0.0095 -0.0151,-0.0154 -0.0237,-0.0176 -0.0085,-0.0023 -0.0244,-0.0034 -0.0478,-0.0034l-0.0604 0z"/>
   </g>
  </g>
 </g>
</svg>
