<?xml version="1.0" encoding="UTF-8"?>
<!DOCTYPE svg PUBLIC "-//W3C//DTD SVG 1.1//EN" "http://www.w3.org/Graphics/SVG/1.1/DTD/svg11.dtd">
<!-- Creator: CorelDRAW 2017 -->
<svg xmlns="http://www.w3.org/2000/svg" xml:space="preserve" width="375px" height="250px" version="1.1" style="shape-rendering:geometricPrecision; text-rendering:geometricPrecision; image-rendering:optimizeQuality; fill-rule:evenodd; clip-rule:evenodd"
viewBox="0 0 375 250"
 xmlns:xlink="http://www.w3.org/1999/xlink">
 <defs>
  <style type="text/css">
   <![CDATA[
    .fil2 {fill:black}
    .fil1 {fill:#FEFEFE;fill-rule:nonzero}
    .fil0 {fill:black;fill-rule:nonzero}
   ]]>
  </style>
 </defs>
 <g id="Layer_x0020_1">
  <metadata id="CorelCorpID_0Corel-Layer"/>
  <path class="fil0" d="M368.18 0.01l-361.36 0c-1.88,0 -3.58,0.78 -4.81,2.03 -1.25,1.27 -2.02,3 -2.02,4.89l0 236.14 0.02 0c0,1.91 0.77,3.64 2,4.89 1.24,1.27 2.95,2.06 4.81,2.06l361.36 -0.01 0 -0.02c1.88,0 3.58,-0.78 4.81,-2.03 1.24,-1.25 2,-2.98 2,-4.89l0 -236.14c0,-1.91 -0.76,-3.64 -2,-4.89 -1.23,-1.25 -2.93,-2.03 -4.81,-2.03z"/>
  <path class="fil1" d="M368.18 1.49l-361.36 0c-0.73,0 -1.42,0.14 -2.03,0.4 -0.65,0.27 -1.24,0.68 -1.73,1.18 -0.51,0.51 -0.91,1.12 -1.19,1.79 -0.26,0.63 -0.41,1.33 -0.41,2.07l0 234.66 0.03 0 0 1.48c0,0.74 0.15,1.45 0.41,2.09 0.27,0.67 0.67,1.27 1.16,1.77 0.5,0.51 1.09,0.92 1.75,1.2 0.61,0.26 1.3,0.41 2.01,0.41l359.88 0 0 -0.03 1.48 0c0.73,0 1.42,-0.14 2.03,-0.4 0.65,-0.27 1.24,-0.68 1.73,-1.18 0.49,-0.5 0.89,-1.1 1.17,-1.77 0.26,-0.64 0.4,-1.35 0.4,-2.09l0 -236.14c0,-0.75 -0.14,-1.46 -0.4,-2.09 -0.28,-0.67 -0.68,-1.27 -1.17,-1.77 -0.49,-0.5 -1.08,-0.91 -1.73,-1.18 -0.61,-0.26 -1.3,-0.4 -2.03,-0.4z"/>
  <g id="_1771804271808">
   <path class="fil2" d="M81.95 93.36c0.09,-5.88 0.15,-11.75 0.27,-17.63 0.04,-1.97 0.81,-3.71 2.19,-5.13 4.88,-5.01 9.77,-10.02 14.65,-15.03 1.33,-1.36 2.66,-2.72 3.99,-4.09 1.54,-1.57 3.39,-2.41 5.61,-2.41 10.4,0 20.8,0.01 31.2,-0.01 2.19,0 4.07,0.73 5.58,2.27 4.41,4.48 8.78,9 13.17,13.5 1.63,1.68 3.2,3.43 4.91,5.02 2.14,1.98 2.96,4.37 2.96,7.22 0.01,5.58 0.12,11.16 0.21,16.73 0.08,5.33 0.18,10.67 0.29,16 0.04,1.89 -0.45,3.58 -1.52,5.14 -11.21,16.42 -22.4,32.86 -33.63,49.27 -1.45,2.13 -3.04,4.17 -4.6,6.22 -0.29,0.38 -0.73,0.66 -1.13,0.93 -1.19,0.8 -2.48,0.87 -3.57,-0.03 -1.07,-0.89 -2.12,-1.9 -2.91,-3.04 -5.01,-7.23 -9.94,-14.5 -14.89,-21.76 -7.2,-10.56 -14.4,-21.13 -21.6,-31.69 -0.97,-1.41 -1.45,-2.94 -1.44,-4.67 0.02,-5.6 0.01,-11.21 0.01,-16.81 0.08,0 0.17,0 0.25,0zm21.47 29.56l0 0c0.4,0 0.7,0 0.99,0 6.51,0 13.02,0.05 19.52,-0.03 2.25,-0.03 4.52,-0.23 6.72,-0.66 4.56,-0.89 8.73,-2.71 12.16,-5.92 4.88,-4.58 6.47,-10.37 5.97,-16.84 -0.2,-2.52 -1.15,-4.8 -2.85,-6.72 -2.36,-2.67 -5.45,-3.99 -8.81,-4.79 -4.44,-1.06 -8.95,-1.13 -13.47,-0.75 -2.11,0.17 -4.2,0.48 -6.32,0.73 0,2.8 0,5.46 0,8.14 0.14,0 0.24,0.01 0.35,0 3.91,-0.6 7.84,-0.85 11.79,-0.44 2.17,0.23 4.3,0.67 6.2,1.84 1.41,0.87 2.39,2.08 2.61,3.75 0.33,2.51 -0.4,4.76 -1.9,6.73 -2.33,3.04 -5.57,4.56 -9.29,4.78 -4.23,0.24 -8.49,0.14 -12.73,0.18 -0.4,0.01 -0.79,-0.05 -1.17,-0.08 0,-11.57 0,-23.02 0,-34.49 9.79,-1.95 19.52,-2.06 29.23,0.39 0.94,-3.13 1.83,-6.11 2.74,-9.14 -0.36,-0.11 -0.64,-0.21 -0.92,-0.29 -3.53,-0.96 -7.14,-1.43 -10.78,-1.73 -3.96,-0.32 -7.93,-0.4 -11.9,0 -5.82,0.57 -11.56,1.69 -17.25,3.06 -0.72,0.17 -0.91,0.47 -0.9,1.2 0.02,16.72 0.01,33.44 0.01,50.15 0,0.27 0,0.54 0,0.93z"/>
   <path class="fil2" d="M72.13 203.04c0,-5.62 0,-11.19 0,-16.8 0.13,0 0.25,-0.02 0.37,-0.02 1.9,0 3.81,0 5.72,0.01 0.97,0 1.92,0.14 2.82,0.52 1.45,0.61 2.23,1.72 2.38,3.26 0.12,1.29 -0.21,2.44 -1.22,3.33 -0.58,0.5 -1.27,0.78 -2.06,0.97 1.26,0.18 2.31,0.62 3.07,1.61 0.45,0.6 0.69,1.28 0.72,2.02 0.04,1.14 -0.17,2.22 -0.88,3.15 -0.71,0.92 -1.69,1.43 -2.78,1.67 -0.82,0.17 -1.67,0.25 -2.5,0.27 -1.75,0.04 -3.5,0.01 -5.24,0.01 -0.13,0 -0.25,0 -0.4,0zm3.41 -2.7l0 0c0.6,0 1.15,0.04 1.69,-0.01 0.63,-0.06 1.28,-0.14 1.9,-0.32 0.87,-0.27 1.36,-0.97 1.38,-1.86 0.04,-0.97 -0.23,-1.82 -1.19,-2.21 -0.54,-0.22 -1.13,-0.32 -1.71,-0.37 -0.68,-0.06 -1.36,-0.01 -2.06,-0.01 0,0.11 -0.01,0.2 -0.01,0.29 0,1.48 0,2.96 0,4.49zm0.02 -7.4l0 0c0.7,0.1 2.31,0.04 2.89,-0.13 0.89,-0.25 1.6,-0.77 1.56,-1.94 -0.04,-1 -0.48,-1.61 -1.59,-1.8 -0.93,-0.16 -1.89,-0.14 -2.86,-0.2 0,1.42 0,2.74 0,4.07zm57.03 -7.98c1.04,0 2.03,0 3.03,-0.01 0.27,0 0.24,0.17 0.24,0.34 0,1.47 0,2.95 0,4.42 0,0.82 0,1.64 0,2.48 0.34,-0.32 0.62,-0.63 0.96,-0.9 0.96,-0.75 2.08,-1.02 3.29,-0.95 1.1,0.06 2.06,0.41 2.8,1.27 0.65,0.76 1,1.66 1.03,2.62 0.06,2.84 0.06,5.69 0.07,8.53 0,0.09 -0.12,0.27 -0.19,0.27 -1.01,0.02 -2.03,0.01 -3.09,0.01 0,-0.16 0,-0.29 0,-0.42 0,-2.29 0.01,-4.57 -0.01,-6.86 0,-0.39 -0.05,-0.79 -0.13,-1.18 -0.34,-1.71 -2.18,-2.31 -3.51,-1.16 -0.63,0.55 -0.93,1.28 -1.07,2.07 -0.09,0.52 -0.14,1.04 -0.14,1.56 -0.02,1.88 -0.02,3.75 0,5.62 0,0.31 -0.09,0.39 -0.39,0.38 -0.85,-0.02 -1.69,-0.01 -2.54,-0.01 -0.11,0 -0.22,-0.01 -0.35,-0.01 0,-6.03 0,-12.03 0,-18.07zm30.14 14.71c0,0.87 0.01,1.7 0,2.53 -0.01,0.08 -0.09,0.18 -0.17,0.22 -0.92,0.47 -1.89,0.73 -2.92,0.84 -1.16,0.12 -2.3,0.09 -3.42,-0.22 -2.33,-0.64 -3.69,-2.18 -4.11,-4.55 -0.3,-1.71 -0.2,-3.4 0.54,-5 0.88,-1.91 2.38,-2.95 4.48,-3.13 0.93,-0.08 1.84,-0.01 2.73,0.25 1.53,0.44 2.55,1.45 3.13,2.91 0.53,1.37 0.68,2.81 0.63,4.31 -2.83,0 -5.65,0 -8.46,0 -0.13,0.92 0.56,2.12 1.48,2.61 0.97,0.53 1.99,0.57 3.05,0.38 0.99,-0.18 1.91,-0.55 2.79,-1.04 0.07,-0.03 0.14,-0.06 0.25,-0.11zm-7.59 -4.12l0 0c1.79,0 3.58,0 5.38,0 -0.17,-2.03 -1.26,-3.01 -3.13,-2.79 -1.23,0.15 -2.32,1.46 -2.25,2.79zm-58.82 7.49c-0.92,0 -1.8,0.01 -2.68,-0.01 -0.07,0 -0.19,-0.14 -0.2,-0.22 -0.06,-0.5 -0.09,-1 -0.13,-1.47 -0.4,0.38 -0.75,0.81 -1.19,1.13 -1.72,1.25 -4.29,1.09 -5.89,-0.3 -1.71,-1.48 -1.48,-4.85 0.86,-6.03 0.8,-0.4 1.65,-0.64 2.54,-0.69 1.16,-0.08 2.32,-0.11 3.48,-0.15 0.17,-1.5 -0.63,-2.4 -2.01,-2.54 -1.54,-0.15 -3.01,0.24 -4.52,1.29 -0.03,-0.29 -0.05,-0.55 -0.06,-0.82 -0.03,-0.58 -0.03,-1.16 -0.07,-1.74 -0.02,-0.22 0.1,-0.27 0.26,-0.33 1.18,-0.49 2.42,-0.76 3.7,-0.82 0.87,-0.05 1.74,0.02 2.6,0.23 1.87,0.46 2.81,1.69 3.01,3.44 0.15,1.36 0.11,2.74 0.15,4.1 0.05,1.59 0.1,3.17 0.15,4.76 0,0.04 0,0.08 0,0.17zm-3.19 -5.68l0 0c-0.76,0 -1.52,0 -2.28,0 -0.1,0 -0.2,0.02 -0.3,0.04 -0.63,0.08 -1.23,0.24 -1.72,0.66 -0.46,0.4 -0.64,0.93 -0.59,1.53 0.06,0.61 0.44,0.99 1,1.17 0.59,0.2 1.2,0.22 1.81,0.05 1.45,-0.4 2.23,-1.9 2.08,-3.45zm37.11 5.67c-0.97,0 -1.89,0 -2.88,0 -0.06,-0.58 -0.11,-1.16 -0.16,-1.69 -0.34,0.34 -0.68,0.75 -1.09,1.07 -1.79,1.4 -4.7,1.16 -6.23,-0.51 -0.7,-0.76 -0.93,-1.68 -0.84,-2.71 0.2,-2.37 1.89,-3.29 3.58,-3.6 0.93,-0.16 1.88,-0.19 2.82,-0.24 0.53,-0.04 1.07,-0.01 1.6,-0.01 0.28,-1.29 -0.7,-2.48 -2.03,-2.58 -1.61,-0.14 -3.05,0.28 -4.37,1.2 -0.04,0.03 -0.09,0.05 -0.23,0.12 0,-0.54 0.01,-1.03 0,-1.51 0,-0.33 -0.01,-0.67 -0.04,-0.99 -0.03,-0.25 0.07,-0.37 0.3,-0.46 1.18,-0.45 2.4,-0.73 3.67,-0.79 0.96,-0.04 1.9,0.04 2.83,0.31 1.57,0.46 2.43,1.56 2.72,3.13 0.1,0.55 0.13,1.11 0.14,1.66 0.05,1.92 0.07,3.84 0.11,5.75 0.01,0.6 0.07,1.21 0.1,1.85zm-3.17 -5.67l0 0c-0.85,0 -1.67,-0.04 -2.49,0.02 -0.63,0.04 -1.25,0.21 -1.77,0.62 -0.57,0.45 -0.75,1.06 -0.63,1.74 0.11,0.63 0.59,0.94 1.18,1.09 0.61,0.15 1.22,0.13 1.81,-0.09 1.41,-0.53 1.93,-1.89 1.9,-3.38zm41.73 5.67c-1.11,0 -2.15,0 -3.23,0 0,-4.13 0,-8.25 0,-12.4 1,0 2,0 3.04,0 0,0.52 0,1.04 0,1.5 0.24,-0.22 0.51,-0.44 0.76,-0.67 0.89,-0.78 1.95,-1.09 3.1,-1.13 1.26,-0.04 2.4,0.23 3.29,1.18 0.64,0.68 0.96,1.53 1.09,2.45 0.06,0.45 0.07,0.91 0.07,1.36 0.01,2.43 0,4.86 0,7.3 0,0.12 0,0.25 0,0.4 -1.07,0 -2.12,0 -3.22,0 -0.01,-0.14 -0.03,-0.28 -0.03,-0.42 0,-2.24 0.01,-4.48 0,-6.71 -0.01,-0.46 -0.04,-0.92 -0.13,-1.36 -0.33,-1.56 -1.94,-2.19 -3.28,-1.29 -0.75,0.5 -1.1,1.27 -1.28,2.1 -0.12,0.57 -0.17,1.15 -0.18,1.73 -0.02,1.82 0,3.65 0,5.48 0,0.14 0,0.29 0,0.48zm-54.97 -9.86c-2.03,0 -3.96,0 -5.93,0 0,-0.85 0,-1.67 0,-2.53 3.24,0 6.49,0 9.77,0 0.01,0.07 0.03,0.16 0.03,0.24 0,0.55 -0.05,1.11 0.01,1.65 0.07,0.61 -0.19,1.02 -0.56,1.45 -1.55,1.79 -3.08,3.61 -4.62,5.41 -0.29,0.34 -0.58,0.68 -0.91,1.07 2.12,0 4.19,0 6.29,0 0,0.87 0,1.7 0,2.55 -3.42,0 -6.84,0 -10.3,0 0,-0.12 -0.02,-0.24 -0.02,-0.36 0,-0.53 0.04,-1.07 -0.01,-1.61 -0.04,-0.5 0.16,-0.85 0.47,-1.21 1.74,-1.98 3.46,-3.98 5.18,-5.97 0.18,-0.21 0.36,-0.41 0.6,-0.69zm32.96 -8.2c1.07,0 2.12,0 3.2,0 0,6.02 0,12.02 0,18.05 -1.06,0 -2.12,0 -3.2,0 0,-6 0,-12.01 0,-18.05zm-48.01 5.66c0.95,0 1.9,0 2.87,0 0,0.85 0,1.68 0,2.52 0.37,-0.98 0.94,-1.78 1.81,-2.34 0.74,-0.49 1.56,-0.58 2.42,-0.43 0.07,0.01 0.18,0.12 0.18,0.18 0.02,1.03 0.01,2.05 0.01,3.06 -0.48,-0.06 -0.92,-0.15 -1.37,-0.16 -1.12,-0.02 -1.8,0.45 -2.23,1.5 -0.32,0.79 -0.42,1.62 -0.43,2.46 -0.03,1.72 -0.03,3.45 -0.04,5.17 0,0.13 0,0.27 0,0.43 -1.07,0 -2.13,0 -3.22,0 0,-4.12 0,-8.24 0,-12.39z"/>
   <path class="fil2" d="M243.96 202.95c-1.08,0 -2.14,0 -3.24,0 0,-0.45 0,-0.89 0,-1.4 -0.14,0.14 -0.25,0.23 -0.34,0.33 -0.8,0.84 -1.8,1.26 -2.93,1.39 -1.17,0.13 -2.29,0.01 -3.35,-0.52 -1.2,-0.61 -2.11,-1.52 -2.77,-2.69 -0.53,-0.95 -0.77,-1.97 -0.82,-3.05 -0.05,-1.19 0.13,-2.32 0.64,-3.4 0.29,-0.61 0.66,-1.17 1.13,-1.66 0.53,-0.56 1.11,-1.04 1.81,-1.38 0.85,-0.41 1.74,-0.59 2.68,-0.56 0.61,0.01 1.2,0.08 1.78,0.28 0.68,0.23 1.3,0.58 1.8,1.11 0.1,0.11 0.2,0.22 0.3,0.34 0.02,-0.01 0.04,-0.02 0.06,-0.03 0,-0.44 0,-0.89 0,-1.35 1.1,0 2.16,0 3.23,0 0.06,0.21 0.08,12.04 0.02,12.59zm-3.24 -6.34l0 0c0,-0.08 0,-0.22 -0.02,-0.36 -0.11,-1.11 -0.61,-1.99 -1.55,-2.59 -0.85,-0.55 -1.78,-0.66 -2.75,-0.44 -1.19,0.27 -1.99,1 -2.41,2.14 -0.25,0.69 -0.27,1.41 -0.13,2.13 0.18,0.9 0.65,1.6 1.39,2.11 0.65,0.46 1.39,0.62 2.17,0.59 1.08,-0.05 1.96,-0.49 2.61,-1.35 0.49,-0.64 0.69,-1.38 0.69,-2.23zm32.82 6.36c-0.11,0 -0.2,0 -0.29,0 -0.62,0 -1.25,0 -1.91,0 -0.01,-0.35 -0.01,-0.69 -0.01,-1.03 0,-0.33 0,-0.65 -0.05,-1 -0.12,0.16 -0.24,0.31 -0.37,0.46 -0.9,1.08 -2.06,1.67 -3.45,1.84 -1.22,0.15 -2.4,0.01 -3.53,-0.52 -0.94,-0.44 -1.72,-1.1 -2.36,-1.92 -0.91,-1.18 -1.35,-2.52 -1.36,-4.01 0,-0.85 0.07,-1.69 0.38,-2.48 0.94,-2.34 2.58,-3.85 5.13,-4.23 1.15,-0.17 2.28,-0.04 3.36,0.44 0.83,0.36 1.5,0.93 2.04,1.65 0.05,0.07 0.11,0.13 0.21,0.25 0,-0.72 0,-1.38 0,-2.06 0.75,0 1.47,0 2.19,0 0.06,0.2 0.08,12.11 0.02,12.61zm-2.2 -6.3l0 0c-0.02,-0.81 -0.18,-1.58 -0.59,-2.28 -1.21,-2.12 -3.71,-2.74 -5.7,-1.85 -1.77,0.8 -2.61,2.26 -2.63,4.18 -0.01,0.56 0.09,1.13 0.31,1.65 0.67,1.53 1.8,2.48 3.48,2.73 0.97,0.14 1.9,0.02 2.75,-0.45 1.56,-0.85 2.33,-2.21 2.38,-3.98zm-52.74 6.29c-1.23,0 -2.45,0 -3.71,0 -1.59,-4.18 -3.18,-8.37 -4.78,-12.6 1.22,0 2.4,0 3.61,0 1,2.89 2,5.78 3.03,8.75 1.03,-2.96 2.04,-5.85 3.05,-8.75 1.19,0 2.38,0 3.56,0 -0.01,0.22 -4.5,12.09 -4.76,12.6zm71.58 -0.01c-0.75,0 -1.46,0 -2.19,0 0,-5.86 0,-11.73 0,-17.6 0.04,-0.01 0.08,-0.02 0.12,-0.02 0.67,0 1.35,0 2.01,0 0.02,0.02 0.03,0.03 0.03,0.03 0.01,0.01 0.02,0.02 0.02,0.03 0,0.03 0.01,0.06 0.01,0.09 0,2.16 0.01,4.33 0.01,6.49 0,0.01 0,0.02 0.02,0.06 0.06,-0.06 0.11,-0.11 0.15,-0.17 0.86,-1.18 2.04,-1.74 3.48,-1.83 0.61,-0.03 1.21,-0.01 1.79,0.15 1.76,0.45 2.84,1.59 3.32,3.32 0.14,0.53 0.19,1.06 0.19,1.61 0,2.49 0,4.97 0,7.46 0,0.12 0,0.24 0,0.38 -0.73,0 -1.44,0 -2.19,0 0,-0.12 0,-0.23 0,-0.35 0,-2.35 0,-4.71 -0.01,-7.07 0,-0.54 -0.04,-1.08 -0.24,-1.59 -0.3,-0.78 -0.83,-1.33 -1.62,-1.6 -1.02,-0.33 -2.03,-0.29 -3,0.18 -1.03,0.5 -1.58,1.37 -1.77,2.47 -0.08,0.46 -0.12,0.94 -0.12,1.41 -0.02,2.05 -0.01,4.1 -0.01,6.16 0,0.12 0,0.24 0,0.39zm-31.59 -9.6c-0.61,0.35 -1.21,0.7 -1.83,1.05 -0.16,-0.24 -0.3,-0.49 -0.47,-0.71 -0.61,-0.75 -1.41,-1.22 -2.36,-1.41 -1.04,-0.2 -2.06,-0.1 -3.01,0.42 -1.22,0.66 -1.98,1.68 -2.23,3.05 -0.17,0.92 -0.13,1.85 0.27,2.72 0.7,1.5 1.86,2.4 3.52,2.59 1.36,0.16 2.57,-0.21 3.58,-1.15 0.21,-0.2 0.37,-0.45 0.55,-0.67 0.07,-0.1 0.13,-0.21 0.21,-0.34 0.63,0.36 1.25,0.72 1.88,1.09 -0.22,0.43 -0.47,0.8 -0.77,1.14 -0.98,1.09 -2.19,1.8 -3.64,2.04 -2.02,0.34 -3.9,0 -5.52,-1.33 -1.35,-1.11 -2.14,-2.53 -2.33,-4.28 -0.14,-1.23 -0.02,-2.43 0.44,-3.58 0.33,-0.8 0.82,-1.5 1.43,-2.11 0.8,-0.78 1.73,-1.34 2.82,-1.61 1.61,-0.4 3.19,-0.34 4.71,0.37 1.2,0.55 2.12,1.43 2.73,2.62 0.01,0.03 0.01,0.06 0.02,0.1zm17.21 6.96c0.63,-0.36 1.24,-0.71 1.86,-1.07 0.03,0.05 0.07,0.08 0.09,0.12 0.45,1.09 1.32,1.61 2.43,1.79 0.54,0.09 1.08,0.06 1.62,-0.06 0.33,-0.07 0.64,-0.21 0.93,-0.41 0.66,-0.45 0.82,-1.63 0.02,-2.2 -0.55,-0.38 -1.15,-0.62 -1.77,-0.82 -0.86,-0.28 -1.74,-0.5 -2.59,-0.81 -0.77,-0.28 -1.38,-0.78 -1.79,-1.5 -0.19,-0.34 -0.29,-0.7 -0.33,-1.09 -0.1,-0.87 0.03,-1.71 0.55,-2.44 0.5,-0.7 1.16,-1.2 1.97,-1.48 1.46,-0.5 2.91,-0.45 4.32,0.19 0.87,0.4 1.55,1.03 2.02,1.88 0.03,0.05 0.06,0.1 0.08,0.16 0.02,0.02 0.02,0.05 0.03,0.11 -0.6,0.33 -1.2,0.67 -1.82,1.02 -0.05,-0.09 -0.1,-0.16 -0.13,-0.22 -0.43,-0.79 -1.09,-1.22 -1.96,-1.34 -0.73,-0.11 -1.43,-0.05 -2.08,0.31 -0.66,0.37 -0.88,1.06 -0.72,1.6 0.11,0.36 0.36,0.6 0.67,0.79 0.55,0.33 1.14,0.55 1.75,0.73 0.7,0.21 1.4,0.41 2.11,0.62 0.69,0.21 1.27,0.59 1.75,1.13 0.44,0.52 0.66,1.13 0.71,1.79 0.05,0.67 -0.02,1.32 -0.32,1.94 -0.36,0.74 -0.93,1.25 -1.64,1.63 -0.73,0.39 -1.52,0.55 -2.34,0.6 -0.88,0.04 -1.73,-0.03 -2.56,-0.32 -1.16,-0.4 -2.08,-1.11 -2.68,-2.21 -0.05,-0.09 -0.1,-0.19 -0.15,-0.29 -0.01,-0.04 -0.01,-0.08 -0.03,-0.15zm-47.61 2.65c-1.08,0 -2.14,0 -3.21,0 -0.06,-0.22 -0.08,-12.08 -0.02,-12.6 1.07,0 2.14,0 3.21,0 0.06,0.22 0.08,12.06 0.02,12.6zm0.39 -16.07c0.07,0.88 -0.79,1.99 -2.03,1.98 -1.12,-0.01 -2.02,-1.05 -2,-2.07 0.03,-0.95 0.97,-2 2.07,-1.97 1.04,0.03 2.06,1.03 1.96,2.06z"/>
   <path class="fil2" d="M247.26 106.79c0,17.12 -0.02,34.24 0.01,51.36 0,2.73 -0.86,4.97 -2.86,6.9 -2.82,2.73 -8.6,2.32 -10.97,-0.05 -1.87,-1.86 -2.81,-3.96 -2.81,-6.59 0.02,-34.24 0.04,-68.49 -0.02,-102.73 -0.01,-4.51 2.85,-7.71 5.91,-8.64 5.15,-1.57 10.52,2.17 10.73,7.54 0.02,0.51 0.01,1.01 0.01,1.52 0,16.9 0,33.79 0,50.69zm30.65 2.86c0,9.77 -0.08,19.54 0.04,29.3 0.05,3.79 -2.73,8.21 -6.67,9.89 -4.17,1.79 -8.94,0.92 -12.05,-2.03 -2.51,-2.37 -3.7,-5.18 -3.69,-8.66 0.06,-19.03 0.09,-38.06 -0.01,-57.09 -0.03,-5.5 4.53,-10.4 9.29,-11.22 6.67,-1.16 13.08,4.08 13.09,10.85 0,9.65 0,19.31 0,28.96zm-55.58 8.86c0,13.53 0.01,27.05 0,40.58 -0.01,3.78 -2.73,7.09 -6.43,7.74 -6.59,1.17 -10.14,-3.95 -10.12,-8.33 0.1,-26.76 0.07,-53.53 0.02,-80.3 -0.01,-3.33 2.29,-7.45 6.67,-8.35 5.03,-1.03 9.85,2.79 9.86,7.92 0.01,13.58 0,27.16 0,40.74zm64 -14.4c0,-12.51 0.01,-25.03 0,-37.54 0,-3.51 1.67,-6.02 4.74,-7.48 3.1,-1.47 6.14,-1.09 8.82,1.12 1.85,1.54 2.86,3.55 2.94,5.99 0.01,0.17 0,0.34 0,0.51 0.01,24.91 -0.03,49.82 0.04,74.72 0.01,3.47 -2.45,7.6 -7.12,8.27 -5,0.73 -9.41,-3.03 -9.42,-8.06 0,-12.51 0,-25.02 0,-37.53z"/>
  </g>
 </g>
</svg>
