<?xml version="1.0" encoding="UTF-8"?>
<!DOCTYPE svg PUBLIC "-//W3C//DTD SVG 1.1//EN" "http://www.w3.org/Graphics/SVG/1.1/DTD/svg11.dtd">
<!-- Creator: CorelDRAW -->
<svg xmlns="http://www.w3.org/2000/svg" xml:space="preserve" width="50mm" height="35mm" style="shape-rendering:geometricPrecision; text-rendering:geometricPrecision; image-rendering:optimizeQuality; fill-rule:evenodd; clip-rule:evenodd"
viewBox="0 0 50 35"
 xmlns:xlink="http://www.w3.org/1999/xlink">
 <defs>
  <style type="text/css">
   <![CDATA[
    .str0 {stroke:black;stroke-width:0.0762}
    .fil3 {fill:black}
    .fil0 {fill:#FEFEFE;fill-rule:nonzero}
    .fil1 {fill:#00934C;fill-rule:nonzero}
    .fil2 {fill:#7F7679;fill-rule:nonzero}
   ]]>
  </style>
 </defs>
 <g id="Layer_x0020_1">
  <metadata id="CorelCorpID_0Corel-Layer"/>
  <path class="fil0 str0" d="M5.2445 3.3889l39.5111 0c0.7793,0 1.4111,0.6318 1.4111,1.4111l0 25.4c0,0.7793 -0.6318,1.4111 -1.4111,1.4111l-39.5111 0c-0.7793,0 -1.4112,-0.6318 -1.4112,-1.4111l0 -25.4c0,-0.7793 0.6319,-1.4111 1.4112,-1.4111z"/>
  <g id="_255794040">
   <path id="_255795552" class="fil1" d="M12.5457 20.2101l0 -1.6205 1.1291 0c0.1862,-0.001 0.352,-0.0322 0.4973,-0.0917 0.1453,-0.0604 0.2681,-0.1433 0.3695,-0.2486 0.1004,-0.1053 0.1775,-0.2262 0.2301,-0.3627 0.0527,-0.1375 0.079,-0.2828 0.079,-0.4378 0,-0.155 -0.0263,-0.3003 -0.078,-0.4378 -0.0526,-0.1365 -0.1287,-0.2574 -0.2291,-0.3627 -0.1005,-0.1053 -0.2233,-0.1882 -0.3686,-0.2486 -0.1462,-0.0595 -0.313,-0.0907 -0.5002,-0.0917l-1.4625 0 0 3.9021 0.3334 0zm1.094 -1.9247l-1.094 0 0 -1.6732 1.094 0c0.1745,0.001 0.3257,0.0371 0.4544,0.1073 0.1287,0.0712 0.2281,0.1687 0.2983,0.2935 0.0702,0.1257 0.1063,0.271 0.1073,0.4358 -0.001,0.1628 -0.0371,0.3071 -0.1073,0.4329 -0.0702,0.1248 -0.1696,0.2233 -0.2983,0.2945 -0.1287,0.0712 -0.2799,0.1082 -0.4544,0.1092zm4.6626 1.9247l-1.5971 -3.9021 -0.4153 0 -1.5971 3.9021 0.3861 0 0.3861 -0.9594 2.0651 0 0.3861 0.9594 0.3861 0zm-0.8834 -1.2636l-1.8428 0 0.9244 -2.2816 0.9184 2.2816zm2.5859 1.2636l0 -1.6673 1.5503 -2.2348 -0.4037 0 -1.3163 1.9189 -1.3163 -1.9189 -0.4036 0 1.5503 2.2348 0 1.6673 0.3393 0z"/>
   <path id="_255795624" class="fil2" d="M24.1467 20.2101l0 -2.0417c-0.001,-0.1433 -0.0254,-0.2682 -0.0731,-0.3754 -0.0488,-0.1073 -0.117,-0.196 -0.2038,-0.2672 -0.0878,-0.0702 -0.1902,-0.1238 -0.3081,-0.1589 -0.118,-0.0351 -0.2467,-0.0526 -0.3861,-0.0526 -0.157,0 -0.2965,0.0185 -0.4193,0.0546 -0.1229,0.036 -0.235,0.0897 -0.3354,0.1618 -0.1005,0.0722 -0.196,0.1619 -0.2867,0.2691l0.1346 0.117c0.0867,-0.1053 0.1774,-0.1901 0.2701,-0.2554 0.0926,-0.0663 0.192,-0.1141 0.2964,-0.1443 0.1043,-0.0303 0.2184,-0.0459 0.3403,-0.0449 0.1092,0 0.2115,0.0156 0.3071,0.0458 0.0955,0.0303 0.1804,0.0751 0.2535,0.1336 0.0731,0.0595 0.1297,0.1326 0.1716,0.2204 0.0419,0.0877 0.0624,0.1882 0.0634,0.3022l0 0.6377c-0.1307,-0.1424 -0.2769,-0.2477 -0.4378,-0.3149 -0.1609,-0.0673 -0.3413,-0.1014 -0.5392,-0.1005 -0.1268,0 -0.2496,0.0215 -0.3666,0.0624 -0.118,0.041 -0.2233,0.1024 -0.3159,0.1824 -0.0936,0.0809 -0.1677,0.1794 -0.2223,0.2954 -0.0546,0.117 -0.0829,0.2506 -0.0839,0.4017 0.001,0.1512 0.0293,0.2847 0.0848,0.4017 0.0546,0.1161 0.1297,0.2145 0.2233,0.2955 0.0936,0.0799 0.1989,0.1404 0.3159,0.1823 0.118,0.041 0.2389,0.0624 0.3647,0.0624 0.1979,0.001 0.3783,-0.0331 0.5392,-0.1004 0.1609,-0.0673 0.3071,-0.1726 0.4378,-0.315l0 0.3452 0.1755 0zm-1.1057 -0.0878c-0.1726,-0.0019 -0.3218,-0.037 -0.4475,-0.1053 -0.1258,-0.0692 -0.2224,-0.1628 -0.2906,-0.2808 -0.0692,-0.117 -0.1034,-0.2496 -0.1043,-0.3978 0.0009,-0.1482 0.0351,-0.2808 0.1043,-0.3988 0.0682,-0.117 0.1648,-0.2106 0.2906,-0.2798 0.1257,-0.0683 0.2749,-0.1043 0.4475,-0.1053 0.1238,0 0.2428,0.0166 0.3569,0.0487 0.114,0.0322 0.2203,0.08 0.3178,0.1443 0.0975,0.0644 0.1824,0.1444 0.2555,0.2399l0 0.702c-0.0731,0.0956 -0.158,0.1755 -0.2555,0.2399 -0.0975,0.0643 -0.2038,0.1121 -0.3178,0.1443 -0.1141,0.0322 -0.2331,0.0487 -0.3569,0.0487zm2.6267 0.158c0.0693,0 0.1307,-0.0078 0.1824,-0.0224 0.0526,-0.0146 0.0994,-0.0341 0.1404,-0.0605 0.0409,-0.0263 0.0799,-0.0575 0.116,-0.0926l-0.1053 -0.1346c-0.0361,0.042 -0.0829,0.078 -0.1404,0.1073 -0.0575,0.0283 -0.1219,0.0439 -0.1931,0.0448 -0.0702,-0.0009 -0.1277,-0.0185 -0.1725,-0.0526 -0.0449,-0.0351 -0.078,-0.0829 -0.0995,-0.1443 -0.0215,-0.0614 -0.0322,-0.1316 -0.0322,-0.2126l0 -2.1704 0.5733 0 0 -0.1579 -0.5733 0 0 -0.7723 -0.1755 0 0 0.7723 -0.468 0 0 0.1579 0.468 0 0 2.1704c0,0.118 0.0176,0.2184 0.0517,0.3033 0.0341,0.0848 0.0868,0.1491 0.158,0.195 0.0711,0.0458 0.1608,0.0682 0.27,0.0692zm2.2524 0c0.2633,-0.001 0.4924,-0.0331 0.6884,-0.0956 0.196,-0.0624 0.3578,-0.1501 0.4875,-0.2632 0.1297,-0.1121 0.2262,-0.2447 0.2906,-0.3968 0.0633,-0.1512 0.0955,-0.3169 0.0955,-0.4963 -0.001,-0.1814 -0.0331,-0.3355 -0.0965,-0.4642 -0.0624,-0.1287 -0.1472,-0.2359 -0.2535,-0.3227 -0.1063,-0.0868 -0.2262,-0.1589 -0.3588,-0.2155 -0.1326,-0.0565 -0.2701,-0.1043 -0.4115,-0.1423 -0.1414,-0.0381 -0.2789,-0.0722 -0.4115,-0.1024 -0.1326,-0.0312 -0.2525,-0.0634 -0.3588,-0.0985 -0.1063,-0.0341 -0.1911,-0.076 -0.2535,-0.1267 -0.0634,-0.0498 -0.0955,-0.1131 -0.0965,-0.1892 0,-0.079 0.0214,-0.1472 0.0643,-0.2057 0.0429,-0.0585 0.1063,-0.1044 0.1892,-0.1365 0.0819,-0.0332 0.1833,-0.0498 0.3023,-0.0498 0.1335,0 0.2671,0.0147 0.4007,0.0459 0.1336,0.0302 0.2633,0.077 0.3881,0.1404 0.1248,0.0633 0.2398,0.1433 0.3461,0.2408l0.4622 -0.6084c-0.1931,-0.1784 -0.4174,-0.314 -0.6728,-0.4056 -0.2545,-0.0917 -0.5373,-0.1385 -0.8483,-0.1385 -0.2301,0.001 -0.4368,0.0322 -0.6191,0.0946 -0.1824,0.0614 -0.3374,0.1462 -0.4651,0.2555 -0.1287,0.1092 -0.2262,0.2349 -0.2935,0.3783 -0.0673,0.1423 -0.1014,0.2954 -0.1024,0.4592 0.002,0.1823 0.0341,0.3374 0.0965,0.4661 0.0634,0.1277 0.1482,0.234 0.2545,0.3198 0.1073,0.0848 0.2272,0.155 0.3598,0.2106 0.1336,0.0546 0.2711,0.1004 0.4124,0.1375 0.1424,0.037 0.2799,0.0711 0.4125,0.1014 0.1336,0.0312 0.2535,0.0643 0.3598,0.1014 0.1072,0.037 0.1921,0.0829 0.2545,0.1375 0.0633,0.0555 0.0955,0.1257 0.0965,0.2106 0,0.075 -0.0244,0.1452 -0.0741,0.2106 -0.0497,0.0663 -0.1248,0.1189 -0.2253,0.1599 -0.1004,0.04 -0.2271,0.0614 -0.3792,0.0624 -0.1794,-0.001 -0.3462,-0.0254 -0.4993,-0.0731 -0.154,-0.0469 -0.2925,-0.1102 -0.4173,-0.1892 -0.1238,-0.08 -0.232,-0.1677 -0.3237,-0.2642l-0.4504 0.6318c0.1209,0.1238 0.2613,0.232 0.4221,0.3247 0.1609,0.0926 0.3442,0.1647 0.548,0.2164 0.2038,0.0517 0.43,0.078 0.6796,0.079zm3.785 -0.0702l0 -3.1708 1.135 0 0 -0.7313 -3.1123 0 0 0.7313 1.1407 0 0 3.1708 0.8366 0zm3.3756 0.0702c0.2974,-0.001 0.5694,-0.0517 0.818,-0.1502 0.2477,-0.0984 0.4632,-0.2379 0.6465,-0.4182 0.1823,-0.1804 0.3237,-0.393 0.4241,-0.6387 0.1004,-0.2457 0.1521,-0.5158 0.1531,-0.8112 -0.001,-0.2955 -0.0527,-0.5655 -0.1531,-0.8112 -0.1004,-0.2458 -0.2418,-0.4593 -0.4241,-0.6387 -0.1833,-0.1804 -0.3988,-0.3198 -0.6465,-0.4183 -0.2486,-0.0985 -0.5206,-0.1492 -0.818,-0.1501 -0.2955,0.0009 -0.5665,0.0516 -0.8142,0.1501 -0.2476,0.0985 -0.4621,0.2379 -0.6445,0.4183 -0.1823,0.1794 -0.3237,0.3929 -0.4241,0.6387 -0.1004,0.2457 -0.1511,0.5157 -0.1531,0.8112 0.002,0.2954 0.0527,0.5655 0.1531,0.8112 0.1004,0.2457 0.2418,0.4583 0.4241,0.6387 0.1824,0.1803 0.3969,0.3198 0.6445,0.4182 0.2477,0.0985 0.5187,0.1492 0.8142,0.1502zm0 -0.7371c-0.1804,-0.001 -0.3432,-0.0341 -0.4885,-0.0985 -0.1443,-0.0644 -0.2691,-0.1541 -0.3725,-0.2701 -0.1033,-0.116 -0.1823,-0.2515 -0.2369,-0.4066 -0.0556,-0.155 -0.0829,-0.3237 -0.0839,-0.506 0.001,-0.1843 0.0283,-0.353 0.0839,-0.509 0.0546,-0.155 0.1336,-0.2905 0.2369,-0.4056 0.1034,-0.116 0.2282,-0.2057 0.3725,-0.2691 0.1453,-0.0644 0.3081,-0.0965 0.4885,-0.0975 0.1804,0.001 0.3432,0.0331 0.4894,0.0975 0.1453,0.0634 0.2701,0.1531 0.3745,0.2691 0.1043,0.1151 0.1842,0.2506 0.2398,0.4056 0.0556,0.156 0.0839,0.3247 0.0839,0.509 0,0.1823 -0.0283,0.351 -0.0839,0.506 -0.0556,0.1551 -0.1355,0.2906 -0.2398,0.4066 -0.1044,0.116 -0.2292,0.2057 -0.3745,0.2701 -0.1462,0.0644 -0.309,0.0975 -0.4894,0.0985zm5.7858 0.6669l-0.8775 -1.486c0.1063,-0.0243 0.2106,-0.0663 0.311,-0.1257 0.1014,-0.0595 0.1921,-0.1365 0.274,-0.2321 0.0819,-0.0955 0.1463,-0.2096 0.195,-0.3422 0.0478,-0.1336 0.0731,-0.2857 0.0741,-0.4583 0,-0.1823 -0.0302,-0.35 -0.0907,-0.5031 -0.0594,-0.1521 -0.1462,-0.2847 -0.2593,-0.3978 -0.1141,-0.1131 -0.2506,-0.1999 -0.4125,-0.2623 -0.1618,-0.0624 -0.3441,-0.0936 -0.5479,-0.0946l-1.8253 0 0 3.9021 0.8307 0 0 -1.3865 0.6085 0 0.7663 1.3865 0.9536 0zm-1.4567 -2.1178l-0.8717 0 0 -1.053 0.8717 0c0.1122,0 0.2126,0.0214 0.3003,0.0634 0.0878,0.0419 0.157,0.1023 0.2077,0.1813 0.0507,0.078 0.0761,0.1716 0.077,0.2818 -0.0009,0.1092 -0.0263,0.2038 -0.077,0.2818 -0.0507,0.079 -0.1199,0.1394 -0.2077,0.1814 -0.0877,0.0419 -0.1881,0.0633 -0.3003,0.0633zm4.8206 2.1178l0 -0.7313 -1.9306 0 0 -0.8834 1.8897 0 0 -0.7312 -1.8897 0 0 -0.8249 1.9306 0 0 -0.7313 -2.7613 0 0 3.9021 2.7613 0z"/>
  </g>
  <polygon class="fil3" points="6.9843,20.21 8.2552,20.21 8.2552,16.0646 10.7364,16.0646 10.7364,20.21 10.7364,20.8153 8.2552,20.8153 6.9843,20.8153 6.4397,20.8153 6.4397,20.21 6.4397,14.945 5.9253,14.945 5.9253,11.0757 5.9253,10.7996 7.3172,10.7996 8.853,10.7996 10.2449,10.7996 11.7807,10.7996 13.1726,10.7996 14.7541,10.7996 16.146,10.7996 16.146,11.0757 16.146,14.945 14.7541,14.945 14.7541,11.0757 13.1726,11.0757 13.1726,14.945 11.7807,14.945 11.7807,11.0757 10.2449,11.0757 10.2449,14.945 8.853,14.945 8.853,11.0757 7.3172,11.0757 7.3172,14.945 6.9843,14.945 "/>
 </g>
</svg>
