<?xml version="1.0" encoding="UTF-8"?>
<!DOCTYPE svg PUBLIC "-//W3C//DTD SVG 1.1//EN" "http://www.w3.org/Graphics/SVG/1.1/DTD/svg11.dtd">
<!-- Creator: CorelDRAW -->
<svg xmlns="http://www.w3.org/2000/svg" xml:space="preserve" width="31.75mm" height="21.167mm" style="shape-rendering:geometricPrecision; text-rendering:geometricPrecision; image-rendering:optimizeQuality; fill-rule:evenodd; clip-rule:evenodd"
viewBox="0 0 31.75 21.167"
 xmlns:xlink="http://www.w3.org/1999/xlink">
 <defs>
  <style type="text/css">
   <![CDATA[
    .str0 {stroke:#C5C6C6;stroke-width:0.0762}
    .fil0 {fill:none}
    .fil6 {fill:#008DD2}
    .fil9 {fill:#EF7F1A}
    .fil8 {fill:#F39314}
    .fil4 {fill:#FFED00}
    .fil1 {fill:white}
    .fil7 {fill:#2B2A29}
    .fil2 {fill:#E31E24}
    .fil5 {fill:#FEFEFE}
    .fil3 {fill:#2B2A29;fill-rule:nonzero}
   ]]>
  </style>
 </defs>
 <g id="Layer_x0020_1">
  <metadata id="CorelCorpID_0Corel-Layer"/>
  <g>
   <path class="fil0 str0" d="M1.0583 0.0002l29.6334 0c0.5843,0 1.0582,0.4739 1.0582,1.0583l0.0001 19.05c-0.0001,0.5842 -0.474,1.0581 -1.0584,1.0581l-29.6333 0.0002c-0.5843,-0.0002 -1.0582,-0.4741 -1.0582,-1.0585l-0.0001 -19.0498c0.0001,-0.5844 0.474,-1.0583 1.0584,-1.0583z"/>
   <path id="1" class="fil1" d="M1.0583 0.0002l29.6334 0c0.5843,0 1.0582,0.4739 1.0582,1.0583l0.0001 19.05c-0.0001,0.5842 -0.474,1.0581 -1.0584,1.0581l-29.6333 0.0002c-0.5843,-0.0002 -1.0582,-0.4741 -1.0582,-1.0585l-0.0001 -19.0498c0.0001,-0.5844 0.474,-1.0583 1.0584,-1.0583z"/>
  </g>
  <g>
   <g id="_217577464">
    <path id="_382867272" class="fil2" d="M18.3411 8.3858c-0.0146,0.1246 -0.0541,0.7217 0.4307,1.3055 0.897,1.0799 -0.3174,2.2376 -1.6998,1.9571 0,0 -0.5549,0.1116 -1.1652,0.1116 -0.6107,0 -1.1688,-0.1116 -1.1688,-0.1116 -1.3825,0.2805 -2.6219,-0.8772 -1.725,-1.9571 0.4849,-0.5838 0.4452,-1.1809 0.4305,-1.3055l4.8976 0z"/>
    <g>
     <path id="_382866912" class="fil3" d="M18.8301 9.6439l-0.1166 0.0948 0 0 -0.0455 -0.0567 -0.0424 -0.0567 -0.0396 -0.0567 -0.0367 -0.0566 -0.0338 -0.0563 -0.0313 -0.0558 -0.0287 -0.0555 -0.0263 -0.055 -0.0238 -0.0542 -0.0217 -0.0535 -0.0195 -0.0527 -0.0175 -0.0518 -0.0155 -0.0508 -0.0136 -0.0496 -0.012 -0.0484 -0.0103 -0.0472 -0.0089 -0.0456 -0.0074 -0.0443 -0.006 -0.0427 -0.0049 -0.041 -0.0038 -0.0393 -0.0027 -0.0375 -0.0019 -0.0355 -0.001 -0.0333 -0.0004 -0.0314 0.0002 -0.0292 0.0006 -0.0268 0.0011 -0.0248 0.0013 -0.022 0.0015 -0.0195 0.0016 -0.0168 0.0016 -0.0143 0.1498 0.0172 -0.0012 0.0119 -0.0014 0.0146 -0.0013 0.0171 -0.0013 0.0196 -0.0009 0.0218 -0.0006 0.0242 -0.0002 0.0264 0.0004 0.0286 0.001 0.0305 0.0017 0.0325 0.0025 0.0343 0.0034 0.0359 0.0045 0.0376 0.0056 0.0393 0.0068 0.0405 0.0081 0.0422 0.0095 0.0434 0.011 0.0446 0.0126 0.0458 0.0143 0.0466 0.0161 0.0478 0.0179 0.0485 0.0201 0.0495 0.022 0.05 0.0243 0.0508 0.0265 0.0511 0.0289 0.0518 0.0314 0.0521 0.0339 0.0524 0.0366 0.0525 0.0396 0.0527 0.0423 0.0529 0 0zm-1.7431 2.0777l-0.03 -0.1464 0.0302 0 0.1244 0.0213 0.1232 0.0135 0.1214 0.0059 0.1193 -0.0013 0.117 -0.0085 0.1143 -0.0153 0.1111 -0.0217 0.1077 -0.0279 0.1039 -0.0338 0.0998 -0.0395 0.0952 -0.0448 0.0904 -0.0499 0.0853 -0.0546 0.0797 -0.0591 0.0738 -0.0632 0.0676 -0.067 0.0611 -0.0705 0.0542 -0.0738 0.0472 -0.0767 0.0399 -0.0794 0.0321 -0.0817 0.0242 -0.0839 0.016 -0.0859 0.0076 -0.0879 -0.0012 -0.0895 -0.0104 -0.0909 -0.0199 -0.0925 -0.0299 -0.0938 -0.0403 -0.0949 -0.0513 -0.0958 -0.0626 -0.0965 -0.0745 -0.0969 0.1166 -0.0948 0.0815 0.1059 0.0692 0.1067 0.0573 0.1072 0.0457 0.1075 0.0341 0.1072 0.0231 0.1065 0.012 0.1057 0.0014 0.1043 -0.0088 0.1023 -0.0186 0.1001 -0.0282 0.0975 -0.0371 0.0945 -0.0457 0.0912 -0.0538 0.0875 -0.0614 0.0834 -0.0687 0.0795 -0.0756 0.0748 -0.082 0.0702 -0.0881 0.0653 -0.0937 0.06 -0.099 0.0547 -0.104 0.049 -0.1086 0.0429 -0.1129 0.0368 -0.1167 0.0301 -0.1201 0.0235 -0.1233 0.0165 -0.1262 0.0091 -0.1285 0.0015 -0.1306 -0.0063 -0.1324 -0.0145 -0.1336 -0.0229 0.0302 0zm-0.03 -0.1464l0.0152 -0.0031 0.015 0.0031 -0.0302 0zm-1.1501 0.2595l0 -0.1494 0 0 0.0561 -0.0003 0.0558 -0.001 0.0554 -0.0015 0.0549 -0.0019 0.0541 -0.0025 0.0533 -0.003 0.0526 -0.0033 0.0516 -0.0037 0.0504 -0.004 0.0495 -0.0044 0.0483 -0.0045 0.0468 -0.0048 0.0455 -0.0049 0.0441 -0.0051 0.0424 -0.0051 0.0408 -0.0052 0.039 -0.0051 0.0371 -0.0052 0.0352 -0.005 0.033 -0.0049 0.0311 -0.0048 0.0287 -0.0045 0.0263 -0.0044 0.0242 -0.004 0.0215 -0.0037 0.0188 -0.0033 0.0162 -0.003 0.0136 -0.0024 0.0105 -0.002 0.0071 -0.0013 0.0044 -0.001 0.0018 -0.0003 0.03 0.1464 -0.0014 0.0003 -0.0052 0.001 -0.0085 0.0017 -0.0111 0.002 -0.0138 0.0026 -0.0168 0.003 -0.0196 0.0035 -0.0221 0.0037 -0.0246 0.0042 -0.0271 0.0044 -0.0295 0.0047 -0.0317 0.0048 -0.0338 0.0051 -0.036 0.0052 -0.0379 0.0052 -0.0398 0.0053 -0.0416 0.0052 -0.0434 0.0053 -0.0449 0.0051 -0.0465 0.0051 -0.048 0.0048 -0.0493 0.0047 -0.0505 0.0044 -0.0518 0.0042 -0.0528 0.0037 -0.0538 0.0035 -0.0547 0.003 -0.0555 0.0025 -0.0563 0.0021 -0.0568 0.0015 -0.0574 0.001 -0.0579 0.0003 0 0zm-1.1538 -0.1131l-0.0302 -0.1464 0.03 0 0.0019 0.0003 0.0043 0.0009 0.0071 0.0014 0.0107 0.0019 0.0136 0.0025 0.0164 0.003 0.0188 0.0033 0.0216 0.0037 0.0243 0.004 0.0266 0.0044 0.0288 0.0045 0.0311 0.0048 0.0333 0.0049 0.0353 0.005 0.0373 0.0052 0.0391 0.0051 0.041 0.0052 0.0426 0.0051 0.0442 0.0051 0.0456 0.0049 0.0471 0.0048 0.0484 0.0045 0.0497 0.0044 0.0506 0.004 0.0517 0.0037 0.0527 0.0033 0.0535 0.003 0.0542 0.0025 0.0549 0.0019 0.0555 0.0015 0.0559 0.001 0.0562 0.0003 0 0.1494 -0.058 -0.0003 -0.0575 -0.001 -0.0569 -0.0015 -0.0563 -0.0021 -0.0556 -0.0025 -0.0549 -0.003 -0.0539 -0.0035 -0.0529 -0.0037 -0.052 -0.0042 -0.0507 -0.0044 -0.0494 -0.0047 -0.0481 -0.0048 -0.0466 -0.0051 -0.0452 -0.0051 -0.0434 -0.0053 -0.0418 -0.0052 -0.0401 -0.0053 -0.0381 -0.0052 -0.0361 -0.0052 -0.0339 -0.0051 -0.0319 -0.0048 -0.0296 -0.0047 -0.0272 -0.0044 -0.0247 -0.0042 -0.0222 -0.0037 -0.0198 -0.0035 -0.0168 -0.003 -0.0138 -0.0025 -0.0111 -0.0021 -0.0087 -0.0016 -0.0053 -0.0011 -0.0013 -0.0003 0.03 0zm-0.0302 -0.1464l0.0149 -0.003 0.0151 0.003 -0.03 0zm-1.7682 -1.9313l0.1166 0.0948 0 0 -0.0744 0.0968 -0.0623 0.0964 -0.051 0.0957 -0.0398 0.0949 -0.0293 0.0937 -0.0193 0.0923 -0.0097 0.091 -0.0004 0.0894 0.0085 0.0876 0.0169 0.086 0.0252 0.0839 0.0331 0.0818 0.0409 0.0794 0.0483 0.0768 0.0553 0.0738 0.0623 0.0706 0.0689 0.0671 0.075 0.0633 0.0808 0.0591 0.0864 0.0547 0.0915 0.0498 0.0964 0.0449 0.1008 0.0395 0.1049 0.0339 0.1085 0.028 0.112 0.0217 0.1149 0.0152 0.1177 0.0085 0.1198 0.0014 0.1217 -0.0059 0.1234 -0.0135 0.1246 -0.0213 0.0302 0.1464 -0.1336 0.0229 -0.1326 0.0145 -0.1309 0.0063 -0.129 -0.0016 -0.1267 -0.0091 -0.1239 -0.0164 -0.121 -0.0235 -0.1175 -0.0302 -0.1137 -0.0367 -0.1094 -0.0429 -0.105 -0.0489 -0.1001 -0.0546 -0.0948 -0.0599 -0.0892 -0.0653 -0.0832 -0.0701 -0.0767 -0.0749 -0.0699 -0.0792 -0.0627 -0.0836 -0.0549 -0.0874 -0.0469 -0.091 -0.0383 -0.0944 -0.0292 -0.0975 -0.0197 -0.1002 -0.0099 -0.1024 0.0006 -0.1044 0.0113 -0.1056 0.0221 -0.1067 0.0337 -0.1073 0.0452 -0.1075 0.057 -0.1073 0.0691 -0.1068 0.0814 -0.106 0 0zm0.4888 -1.3328l0 0.1494 0.0749 -0.0834 0.0016 0.0144 0.0016 0.0168 0.0015 0.0195 0.0013 0.022 0.0011 0.0246 0.0007 0.0269 0.0002 0.0293 -0.0004 0.0314 -0.001 0.0333 -0.0019 0.0355 -0.0027 0.0375 -0.0038 0.0393 -0.0049 0.041 -0.006 0.0427 -0.0074 0.0442 -0.0088 0.0457 -0.0103 0.0472 -0.012 0.0484 -0.0136 0.0496 -0.0155 0.0508 -0.0175 0.0518 -0.0194 0.0526 -0.0217 0.0536 -0.0239 0.0542 -0.0262 0.055 -0.0287 0.0555 -0.0313 0.0559 -0.034 0.0562 -0.0366 0.0566 -0.0396 0.0567 -0.0424 0.0567 -0.0455 0.0567 -0.1166 -0.0948 0.0423 -0.0529 0.0396 -0.0527 0.0366 -0.0525 0.034 -0.0524 0.0314 -0.0522 0.0289 -0.0517 0.0265 -0.0511 0.0242 -0.0508 0.0221 -0.05 0.0199 -0.0494 0.018 -0.0486 0.0161 -0.0478 0.0143 -0.0466 0.0126 -0.0458 0.011 -0.0446 0.0095 -0.0434 0.008 -0.0421 0.0068 -0.0406 0.0056 -0.0393 0.0045 -0.0376 0.0034 -0.0359 0.0025 -0.0343 0.0017 -0.0325 0.001 -0.0305 0.0004 -0.0286 -0.0002 -0.0263 -0.0007 -0.0241 -0.0009 -0.022 -0.0013 -0.0196 -0.0013 -0.0171 -0.0014 -0.0146 -0.0012 -0.0118 0.0749 -0.0834zm-0.0749 0.0834l-0.0098 -0.0834 0.0847 0 -0.0749 0.0834zm4.9725 0.066l-4.8976 0 0 -0.1494 4.8976 0 0.0749 0.0833 -0.0749 0.0661zm0 -0.1494l0.0847 0 -0.0098 0.0833 -0.0749 -0.0833z"/>
    </g>
    <path class="fil2" d="M16.9673 11.4241c0,0 0.078,-0.2103 0.239,-0.3329 0.0786,-0.0599 0.2106,-0.0374 0.1442,0.0817 -0.018,0.0324 -0.2091,0.1585 -0.3375,0.3101 -0.0235,0.0277 -0.0457,-0.0589 -0.0457,-0.0589zm-1.8777 -0.1413l0 0c0,0 -0.0322,-0.2218 -0.164,-0.3749 -0.0644,-0.0748 -0.1982,-0.0799 -0.1583,0.0502 0.0109,0.0354 0.1714,0.1982 0.2651,0.373 0.0172,0.032 0.0572,-0.0483 0.0572,-0.0483zm-0.2469 0.1413l0 0c0,0 -0.078,-0.2103 -0.239,-0.3329 -0.0787,-0.0599 -0.2106,-0.0374 -0.1443,0.0817 0.0181,0.0324 0.2092,0.1585 0.3375,0.3101 0.0235,0.0277 0.0458,-0.0589 0.0458,-0.0589zm1.8777 -0.1413l0 0c0,0 0.0322,-0.2218 0.1639,-0.3749 0.0645,-0.0748 0.1982,-0.0799 0.1583,0.0502 -0.0108,0.0354 -0.1714,0.1982 -0.2651,0.373 -0.0171,0.032 -0.0571,-0.0483 -0.0571,-0.0483z"/>
    <path class="fil3" d="M16.9462 11.4158c0.0002,-0.0006 0.0799,-0.2159 0.2462,-0.3424 0.0355,-0.0271 0.0809,-0.0395 0.1181,-0.0363 0.0184,0.0016 0.0352,0.007 0.0488,0.0162 0.0149,0.0101 0.0255,0.0244 0.03,0.043l0 0c0.0054,0.0231 0.0007,0.0523 -0.0188,0.0874 -0.0089,0.016 -0.0423,0.0431 -0.0882,0.0804 -0.0708,0.0575 -0.1734,0.1408 -0.2519,0.2334 -0.0517,0.0612 -0.0851,-0.0675 -0.0852,-0.0679l-0.0018 -0.007 0.0028 -0.0068zm0.274 -0.3067c-0.1442,0.1097 -0.2198,0.293 -0.2304,0.32 0.0006,0.0159 0.0022,0.0436 0.0057,0.0394 0.0807,-0.0953 0.1856,-0.1804 0.2579,-0.2392 0.0419,-0.034 0.0724,-0.0587 0.0771,-0.0673 0.0136,-0.0243 0.0173,-0.0426 0.0144,-0.0553l-0.0001 0c-0.0016,-0.007 -0.0057,-0.0124 -0.0112,-0.0161 -0.0069,-0.0047 -0.0163,-0.0076 -0.027,-0.0085 -0.027,-0.0023 -0.0601,0.0069 -0.0864,0.027zm-2.1536 0.1743c-0.004,-0.0247 -0.0389,-0.2221 -0.1583,-0.3609 -0.0216,-0.025 -0.052,-0.0408 -0.0787,-0.0441 -0.0108,-0.0013 -0.0206,-0.0005 -0.0283,0.0026l0 0c-0.0063,0.0026 -0.0115,0.0071 -0.0145,0.0135l0 0.0001c-0.0056,0.0117 -0.0057,0.0304 0.0024,0.057l-0.0001 0.0001c0.0029,0.0092 0.0273,0.0395 0.061,0.0811 0.0585,0.0724 0.1435,0.1777 0.2025,0.2877 0.0027,0.0051 0.01,-0.0215 0.014,-0.0371zm-0.1237 -0.3902c0.1361,0.1582 0.1692,0.3858 0.1692,0.3864l0.001 0.0068 -0.0032 0.0064c-0.0002,0.0004 -0.0595,0.1199 -0.0976,0.0489 -0.0574,-0.1071 -0.1406,-0.21 -0.1978,-0.2808 -0.0368,-0.0456 -0.0635,-0.0787 -0.0689,-0.0962l-0.0001 0c-0.0117,-0.0383 -0.0102,-0.0679 0.0001,-0.0894l0 0c0.0082,-0.0174 0.0217,-0.0292 0.0382,-0.036l0.0001 0c0.0153,-0.0062 0.0329,-0.0079 0.0512,-0.0057 0.0371,0.0045 0.0788,0.026 0.1078,0.0596zm-0.1227 0.5358c-0.0108,-0.0275 -0.0865,-0.2104 -0.2304,-0.3199 -0.0263,-0.0201 -0.0595,-0.0293 -0.0864,-0.027 -0.0108,0.001 -0.0202,0.0038 -0.0271,0.0084 -0.0055,0.0038 -0.0096,0.0092 -0.0112,0.0161 -0.003,0.0127 0.0007,0.0311 0.0143,0.0554 0.0047,0.0086 0.0351,0.0332 0.0769,0.0671 0.0724,0.0588 0.1774,0.144 0.2581,0.2394 0.0034,0.0041 0.0051,-0.0237 0.0058,-0.0395zm-0.2026 -0.3556c0.1662,0.1265 0.246,0.3418 0.2462,0.3424l0.0027 0.0068 -0.0017 0.007c-0.0001,0.0004 -0.0336,0.129 -0.0854,0.0679 -0.0784,-0.0927 -0.1812,-0.1761 -0.252,-0.2336 -0.0457,-0.0371 -0.079,-0.0641 -0.0879,-0.0802 -0.0196,-0.035 -0.0243,-0.0643 -0.0188,-0.0873 0.0044,-0.0187 0.0151,-0.033 0.03,-0.0431 0.0135,-0.0092 0.0304,-0.0146 0.0487,-0.0162 0.0373,-0.0032 0.0826,0.0092 0.1182,0.0363zm2.0802 0.2062c0,-0.0006 0.0332,-0.2281 0.1692,-0.3863l0 -0.0001c0.0291,-0.0336 0.0708,-0.0551 0.1079,-0.0596 0.0182,-0.0023 0.0359,-0.0005 0.0511,0.0057 0.0167,0.0068 0.0302,0.0187 0.0384,0.0361 0.0102,0.0214 0.0117,0.051 0,0.0893 -0.0054,0.0175 -0.0321,0.0506 -0.069,0.0962 -0.0572,0.0708 -0.1403,0.1737 -0.1978,0.2808l0 -0.0001c-0.038,0.0709 -0.0974,-0.0484 -0.0976,-0.0488l-0.0032 -0.0064 0.001 -0.0068zm0.2038 -0.3571c-0.1194,0.1388 -0.1543,0.3363 -0.1583,0.3609 0.004,0.0156 0.0113,0.0422 0.014,0.0372l0 -0.0001c0.059,-0.11 0.144,-0.2153 0.2026,-0.2877 0.0337,-0.0416 0.0581,-0.0719 0.061,-0.0812 0.0081,-0.0266 0.0079,-0.0452 0.0023,-0.0571 -0.003,-0.0064 -0.0082,-0.0109 -0.0145,-0.0135 -0.0076,-0.0031 -0.0175,-0.0039 -0.0283,-0.0026 -0.0268,0.0033 -0.0572,0.0192 -0.0787,0.0441l-0.0001 0z"/>
    <path class="fil4" d="M16.5494 11.2559c0,0 0.4111,-1.3148 -0.2101,-2.0977 -0.0557,-0.0104 -0.1132,-0.0446 -0.1754,-0.0858 0,0 -0.0688,-0.1209 -0.2308,-0.1215 -0.1621,0.0006 -0.2851,0.1215 -0.2851,0.1215 -0.0724,0.048 -0.1407,0.0783 -0.2039,0.0856 -0.6211,0.783 -0.1972,2.1046 -0.1972,2.1046 0.6548,-0.2469 1.287,-0.0137 1.3025,-0.0067z"/>
    <path class="fil3" d="M16.5343 11.2266c0.0505,-0.1765 0.3519,-1.3333 -0.208,-2.0481 -0.0274,-0.0062 -0.0549,-0.0173 -0.0828,-0.0316 -0.0297,-0.0153 -0.0604,-0.0346 -0.0923,-0.0557l-0.0039 -0.0026 -0.0026 -0.004c-0.0001,-0.0003 -0.0629,-0.1106 -0.2115,-0.1112 -0.1526,0.0006 -0.2696,0.1154 -0.2699,0.1157l-0.0014 0.0012 -0.0013 0.0009c-0.0374,0.0248 -0.0738,0.0451 -0.1089,0.06 -0.0325,0.0138 -0.0643,0.0234 -0.0952,0.028 -0.5591,0.7151 -0.2467,1.8772 -0.1947,2.0538 0.2164,-0.078 0.4297,-0.1051 0.6188,-0.1061 0.3225,-0.0016 0.5758,0.0733 0.6537,0.0997zm-0.1771 -2.0824c0.6287,0.7923 0.2152,2.1144 0.2141,2.1182l-0.0076 0.0248 -0.0238 -0.0108c-0.0101,-0.0045 -0.2855,-0.1063 -0.6592,-0.1044 -0.1908,0.0009 -0.407,0.0292 -0.6256,0.1116l-0.0226 0.0085 -0.0073 -0.0228c-0.0012,-0.0038 -0.4276,-1.3329 0.201,-2.1252l0.0058 -0.0075 0.0095 -0.001c0.0293,-0.0033 0.0601,-0.0123 0.0921,-0.0259 0.0323,-0.0138 0.0658,-0.0324 0.1002,-0.055 0.0131,-0.0124 0.137,-0.1257 0.2994,-0.1263 0.1572,0.0006 0.2333,0.1061 0.2474,0.128 0.0289,0.0191 0.0569,0.0365 0.084,0.0504 0.0273,0.0141 0.0536,0.0245 0.0789,0.0292l0.0085 0.0016 0.0052 0.0066z"/>
    <path class="fil5" d="M16.3594 10.3395c0,-0.0614 0.05,-0.1111 0.1119,-0.1111 0.0619,0 0.112,0.0497 0.112,0.1111 0,0.0613 -0.0501,0.111 -0.112,0.111 -0.0619,0 -0.1119,-0.0497 -0.1119,-0.111z"/>
    <path class="fil3" d="M16.3365 10.3395c0,-0.0368 0.0152,-0.0703 0.0395,-0.0945 0.0244,-0.0242 0.0581,-0.0392 0.0952,-0.0392 0.0372,0 0.071,0.015 0.0954,0.0392 0.0244,0.0242 0.0395,0.0576 0.0395,0.0945 0,0.0369 -0.0151,0.0703 -0.0395,0.0945l-0.0001 0c-0.0244,0.0241 -0.0581,0.0392 -0.0953,0.0392l0 -0.0001c-0.0371,-0.0001 -0.0709,-0.0151 -0.0952,-0.0392 -0.0244,-0.0242 -0.0395,-0.0576 -0.0395,-0.0944zm0.0718 -0.0627c-0.0161,0.016 -0.0261,0.0382 -0.0261,0.0627 0,0.0245 0.01,0.0466 0.026,0.0626 0.0162,0.016 0.0385,0.0259 0.063,0.026l0 -0.0001c0.0247,0 0.0471,-0.0099 0.0631,-0.0259l0 0c0.0161,-0.016 0.0262,-0.0382 0.0262,-0.0626 0,-0.0245 -0.01,-0.0467 -0.0262,-0.0627 -0.016,-0.0159 -0.0384,-0.0258 -0.0631,-0.0258 -0.0246,0 -0.0469,0.0099 -0.0629,0.0258z"/>
    <path class="fil6" d="M13.7303 9.2478l0.7972 0c0.1263,0 0.2287,0.1016 0.2287,0.2269l0 0.5333c0,0.1253 -0.1024,0.2269 -0.2287,0.2269l-0.7972 0c-0.1264,0 -0.2287,-0.1016 -0.2287,-0.2269l0 -0.5333c0,-0.1253 0.1023,-0.2269 0.2287,-0.2269z"/>
    <path class="fil3" d="M13.7302 9.2252l0.7973 0c0.0694,0 0.1323,0.0279 0.1778,0.0731 0.0455,0.0452 0.0737,0.1075 0.0737,0.1764l0 0.5333c0,0.0688 -0.0282,0.1311 -0.0737,0.1763 -0.0455,0.0452 -0.1084,0.0732 -0.1778,0.0732l-0.7973 0c-0.0693,0 -0.1323,-0.028 -0.1778,-0.0732 -0.0455,-0.0452 -0.0737,-0.1076 -0.0737,-0.1763l0 -0.5333c0,-0.0688 0.0282,-0.1312 0.0737,-0.1763 0.0455,-0.0452 0.1085,-0.0731 0.1778,-0.0732l0 0zm0.7973 0.0452l-0.7973 0 0 -0.0001c-0.0568,0 -0.1083,0.0229 -0.1455,0.0599 -0.0372,0.0369 -0.0603,0.088 -0.0603,0.1445l0 0.5333c0,0.0564 0.0231,0.1076 0.0603,0.1445 0.0371,0.0369 0.0886,0.0598 0.1455,0.0598l0.7973 0c0.0569,0 0.1084,-0.0229 0.1455,-0.0598 0.0372,-0.0369 0.0603,-0.0881 0.0603,-0.1445l0 -0.5333c0,-0.0565 -0.023,-0.1076 -0.0603,-0.1446 -0.0371,-0.0369 -0.0886,-0.0597 -0.1455,-0.0597z"/>
    <path class="fil7" d="M13.8215 9.3758l0.6317 0c0.0951,0 0.1723,0.0765 0.1723,0.1709l0 0.3892c0,0.0944 -0.0772,0.171 -0.1723,0.171l-0.6317 0c-0.0952,0 -0.1723,-0.0765 -0.1723,-0.1709l0 -0.3893c0,-0.0944 0.0771,-0.1709 0.1723,-0.1709z"/>
    <path class="fil3" d="M13.8215 9.3532l0.6317 0c0.0538,0 0.1026,0.0217 0.1379,0.0567 0.0353,0.035 0.0572,0.0834 0.0572,0.1368l0 0.3892c0,0.0534 -0.0219,0.1018 -0.0572,0.1368 -0.0353,0.0351 -0.0841,0.0568 -0.1379,0.0568l-0.6317 0c-0.0539,0 -0.1027,-0.0217 -0.138,-0.0568 -0.0353,-0.035 -0.0572,-0.0834 -0.0572,-0.1368l0 -0.3892c0,-0.0534 0.0219,-0.1018 0.0572,-0.1368 0.0353,-0.035 0.0841,-0.0567 0.138,-0.0567zm0.6317 0.0452l-0.6317 0c-0.0414,0 -0.0788,0.0166 -0.1058,0.0433 -0.027,0.0268 -0.0437,0.064 -0.0437,0.105l0 0.3892c0,0.0411 0.0167,0.0782 0.0437,0.105 0.027,0.0268 0.0644,0.0434 0.1058,0.0434l0.6317 0c0.0413,0 0.0787,-0.0166 0.1057,-0.0434 0.027,-0.0268 0.0438,-0.0639 0.0438,-0.105l0 -0.3892c0,-0.041 -0.0168,-0.0782 -0.0438,-0.105 -0.027,-0.0267 -0.0644,-0.0433 -0.1057,-0.0433z"/>
    <path class="fil8" d="M14.6255 9.8384c-0.2851,-0.0282 -0.3845,-0.3595 -0.4086,-0.4626l0.2363 0c0.0951,0 0.1723,0.0766 0.1723,0.171l0 0.2916z"/>
    <path class="fil3" d="M14.6232 9.8609c-0.1511,-0.015 -0.2525,-0.1094 -0.3191,-0.2137 -0.0653,-0.102 -0.097,-0.2135 -0.1094,-0.2664l-0.0065 -0.0276 0.0287 0 0.2363 0c0.0538,0 0.1025,0.0217 0.1379,0.0568 0.0353,0.035 0.0572,0.0834 0.0572,0.1368l0 0.2916 0 0.0249 -0.0251 -0.0024zm-0.2806 -0.2377c0.0564,0.0882 0.1397,0.1687 0.2601,0.1894l0 -0.2658c0,-0.0411 -0.0168,-0.0782 -0.0438,-0.105 -0.027,-0.0268 -0.0644,-0.0434 -0.1057,-0.0434l-0.2071 0c0.015,0.0557 0.0446,0.1436 0.0965,0.2248z"/>
    <path class="fil8" d="M14.0614 9.3758c-0.0185,0.0943 -0.1083,0.4491 -0.4122,0.4641l0 -0.2932c0,-0.0943 0.0771,-0.1709 0.1723,-0.1709l0.2399 0z"/>
    <path class="fil3" d="M14.0838 9.38c-0.012,0.0609 -0.0528,0.2274 -0.1596,0.3476 -0.0647,0.0729 -0.1535,0.1289 -0.274,0.1348l-0.0239 0.0011 0 -0.0236 0 -0.2932c0,-0.0534 0.0219,-0.1018 0.0572,-0.1367 0.0354,-0.0351 0.0842,-0.0568 0.138,-0.0568l0.2399 0 0.0276 0 -0.0052 0.0268zm-0.1938 0.3177c0.0865,-0.0974 0.1268,-0.2291 0.1432,-0.2993l-0.2117 0c-0.0413,0 -0.0787,0.0166 -0.1057,0.0433 -0.0271,0.0268 -0.0438,0.064 -0.0438,0.105l0 0.2687c0.0939,-0.0109 0.1649,-0.0579 0.218,-0.1177z"/>
    <path class="fil6" d="M17.278 9.2478l0.7972 0c0.1263,0 0.2287,0.1016 0.2287,0.2269l0 0.5333c0,0.1253 -0.1024,0.2269 -0.2287,0.2269l-0.7972 0c-0.1263,0 -0.2287,-0.1016 -0.2287,-0.2269l0 -0.5333c0,-0.1253 0.1024,-0.2269 0.2287,-0.2269z"/>
    <path class="fil3" d="M17.278 9.2252l0.7972 0c0.0694,0 0.1323,0.0279 0.1778,0.0732 0.0456,0.0451 0.0737,0.1074 0.0737,0.1763l0 0.5333c0,0.0688 -0.0281,0.1311 -0.0737,0.1763 -0.0455,0.0452 -0.1084,0.0732 -0.1778,0.0732l-0.7972 0c-0.0694,0 -0.1324,-0.028 -0.1779,-0.0732 -0.0455,-0.0452 -0.0737,-0.1075 -0.0737,-0.1763l0 -0.5333c0,-0.0688 0.0282,-0.1312 0.0737,-0.1763 0.0455,-0.0452 0.1085,-0.0731 0.1779,-0.0732l0 0zm0.7972 0.0452l-0.7972 0 0 -0.0001c-0.0568,0 -0.1084,0.0229 -0.1457,0.0599 -0.0372,0.0369 -0.0602,0.088 -0.0602,0.1445l0 0.5333c0,0.0564 0.023,0.1076 0.0603,0.1445 0.0371,0.0369 0.0886,0.0598 0.1456,0.0598l0.7972 0c0.0569,0 0.1084,-0.0229 0.1456,-0.0598 0.0372,-0.0369 0.0603,-0.0881 0.0603,-0.1445l0 -0.5333c0,-0.0565 -0.0231,-0.1076 -0.0603,-0.1446 -0.0372,-0.0369 -0.0887,-0.0597 -0.1456,-0.0597z"/>
    <path class="fil7" d="M17.3692 9.3758l0.6317 0c0.0951,0 0.1723,0.0765 0.1723,0.1709l0 0.3892c0,0.0944 -0.0772,0.171 -0.1723,0.171l-0.6317 0c-0.0952,0 -0.1723,-0.0765 -0.1723,-0.1709l0 -0.3893c0,-0.0944 0.0771,-0.1709 0.1723,-0.1709z"/>
    <path class="fil3" d="M17.3691 9.3532l0.6318 0c0.0538,0 0.1027,0.0217 0.138,0.0568 0.0353,0.0349 0.0572,0.0833 0.0572,0.1367l0 0.3892c0,0.0534 -0.0219,0.1018 -0.0572,0.1368 -0.0353,0.0351 -0.0842,0.0568 -0.138,0.0568l-0.6318 0c-0.0537,0 -0.1026,-0.0217 -0.1379,-0.0568 -0.0353,-0.035 -0.0571,-0.0834 -0.0571,-0.1368l0 -0.3892c0,-0.0534 0.0218,-0.1017 0.0571,-0.1367 0.0353,-0.0351 0.0842,-0.0568 0.1379,-0.0568zm0.6318 0.0452l-0.6318 0c-0.0413,0 -0.0786,0.0166 -0.1056,0.0433 -0.027,0.0268 -0.0438,0.064 -0.0438,0.105l0 0.3892c0,0.0411 0.0168,0.0782 0.0438,0.105 0.027,0.0268 0.0643,0.0434 0.1056,0.0434l0.6318 0c0.0413,0 0.0787,-0.0166 0.1057,-0.0434 0.0271,-0.0268 0.0438,-0.064 0.0438,-0.105l0 -0.3892c0,-0.041 -0.0167,-0.0782 -0.0438,-0.105 -0.027,-0.0267 -0.0644,-0.0433 -0.1057,-0.0433z"/>
    <path class="fil8" d="M18.1732 9.8384c-0.2851,-0.0282 -0.3844,-0.3595 -0.4086,-0.4626l0.2363 0c0.0951,0 0.1723,0.0766 0.1723,0.171l0 0.2916z"/>
    <path class="fil3" d="M18.171 9.8609c-0.1512,-0.015 -0.2526,-0.1094 -0.3192,-0.2136l0 -0.0001c-0.0653,-0.102 -0.097,-0.2135 -0.1094,-0.2664l-0.0065 -0.0276 0.0287 0 0.2363 0c0.0538,0 0.1027,0.0217 0.138,0.0568 0.0353,0.035 0.0572,0.0834 0.0572,0.1368l0 0.2916 0 0.0249 -0.0251 -0.0024zm-0.2807 -0.2378l0 0c0.0565,0.0883 0.1398,0.1688 0.2601,0.1895l0 -0.2658c0,-0.0411 -0.0167,-0.0783 -0.0438,-0.1051 -0.027,-0.0267 -0.0644,-0.0433 -0.1057,-0.0433l-0.2071 0c0.015,0.0557 0.0446,0.1436 0.0965,0.2247z"/>
    <path class="fil8" d="M17.6091 9.3758c-0.0185,0.0943 -0.1083,0.4491 -0.4122,0.4641l0 -0.2932c0,-0.0943 0.0771,-0.1709 0.1723,-0.1709l0.2399 0z"/>
    <path class="fil3" d="M17.6315 9.38c-0.0119,0.0609 -0.0529,0.2275 -0.1596,0.3476 -0.0647,0.0729 -0.1534,0.1289 -0.2739,0.1348l-0.0239 0.0011 0 -0.0236 0 -0.2932c0,-0.0534 0.0218,-0.1018 0.0572,-0.1368 0.0353,-0.035 0.0841,-0.0567 0.1379,-0.0567l0.2399 0 0.0277 0 -0.0053 0.0268zm-0.1938 0.3178c0.0865,-0.0974 0.1269,-0.2292 0.1433,-0.2994l-0.2118 0c-0.0413,0 -0.0787,0.0166 -0.1057,0.0433 -0.027,0.0268 -0.0438,0.064 -0.0438,0.105l0 0.2687c0.094,-0.0109 0.1649,-0.0579 0.218,-0.1176z"/>
    <path class="fil9" d="M15.0944 11.1788c0,0 -0.2175,0.0283 -0.2975,0.159 -0.0801,0.1307 0.0123,0.2866 0.1082,0.3101 0.4069,0.0998 0.9739,0.0973 0.987,0.0904 0.0131,0.0068 0.6053,0.0241 0.9915,-0.0904 0.0946,-0.028 0.1883,-0.1794 0.1082,-0.3101 -0.08,-0.1307 -0.2975,-0.159 -0.2975,-0.159 -0.0198,-0.1218 -1.5803,-0.0711 -1.5999,0z"/>
    <path class="fil3" d="M15.0976 11.2012c-0.0006,0 -0.207,0.027 -0.2813,0.1482 -0.0104,0.0172 -0.0176,0.0348 -0.022,0.0524 -0.0106,0.0433 -0.0041,0.087 0.0125,0.1244 0.0165,0.0374 0.043,0.0684 0.0721,0.0863 0.0103,0.0063 0.021,0.0109 0.0316,0.0135 0.1436,0.0352 0.3073,0.0576 0.4592,0.0715 0.2736,0.0251 0.5045,0.0247 0.5119,0.0209l0.0106 -0.0055 0.0105 0.0054c0.0077,0.0039 0.2527,0.0105 0.5306,-0.0149 0.1507,-0.0137 0.3098,-0.0374 0.4437,-0.0771 0.0098,-0.0029 0.0197,-0.0074 0.0291,-0.0132 0.0308,-0.0188 0.059,-0.0514 0.0761,-0.0905l0 -0.0001c0.0171,-0.0389 0.0231,-0.0843 0.0099,-0.1291 -0.0044,-0.0148 -0.0109,-0.0296 -0.0197,-0.044 -0.0743,-0.1212 -0.2807,-0.1482 -0.2813,-0.1482l-0.0166 -0.0024 -0.0027 -0.0164c-0.0004,-0.0031 -0.0143,-0.0084 -0.0386,-0.0151l-0.0001 0c-0.1163,-0.0322 -0.4054,-0.0424 -0.7017,-0.0388 -0.2972,0.0036 -0.601,0.0213 -0.7457,0.0448 -0.0439,0.0071 -0.0694,0.0114 -0.0694,0.0115l-0.004 0.0143 -0.0147 0.0021zm-0.3202 0.1249c0.0774,-0.1264 0.2703,-0.1628 0.3075,-0.1687 0.0168,-0.0118 0.0491,-0.0214 0.0935,-0.0286 0.1466,-0.0238 0.4531,-0.0417 0.7524,-0.0453 0.3002,-0.0037 0.5941,0.007 0.7146,0.0404l0 0c0.031,0.0086 0.053,0.02 0.064,0.0345 0.0478,0.0082 0.2277,0.0467 0.3019,0.1677 0.011,0.018 0.019,0.0363 0.0245,0.0546 0.0165,0.0558 0.0092,0.112 -0.0118,0.1598l0 0c-0.0209,0.0476 -0.0557,0.0875 -0.094,0.1109 -0.013,0.008 -0.0265,0.0142 -0.0399,0.0182 -0.1368,0.0405 -0.2991,0.0647 -0.4527,0.0787 -0.2585,0.0235 -0.4966,0.0166 -0.5465,0.0116 -0.0531,0.004 -0.2753,0.0053 -0.5253,-0.0175 -0.1542,-0.0141 -0.3204,-0.0369 -0.466,-0.0726 -0.0151,-0.0037 -0.0302,-0.0102 -0.0446,-0.019 -0.0367,-0.0225 -0.0697,-0.0608 -0.0899,-0.1065 -0.0203,-0.0458 -0.0281,-0.0995 -0.015,-0.1531 0.0054,-0.0219 0.0143,-0.0438 0.0273,-0.0651z"/>
    <path class="fil3" d="M15.0841 11.1532c0.0019,-0.0003 0.6645,-0.1196 1.6228,0.0001l-0.0057 0.0447c-0.951,-0.1188 -1.6075,-0.0006 -1.6094,-0.0003l-0.0077 -0.0445z"/>
    <path class="fil2" d="M17.5318 6.857l-0.0005 -0.6441 0.7741 -0.0454 0.0322 1.0183c-0.4199,-0.2787 -0.4314,-0.1554 -0.8058,-0.3288z"/>
    <path class="fil3" d="M17.4739 6.8571l-0.0006 -0.6442 0 -0.0542 0.0546 -0.0032 0.7741 -0.0455 0.0596 -0.0035 0.0018 0.0592 0.0322 1.0183 0.0035 0.1119 -0.0938 -0.0623c-0.2393,-0.1588 -0.34,-0.182 -0.4565,-0.2089 -0.0871,-0.02 -0.1825,-0.042 -0.3415,-0.1156l-0.0334 -0.0155 0 -0.0365zm0.1155 -0.59l0.0005 0.553c0.1275,0.0562 0.2095,0.0752 0.2848,0.0925 0.1109,0.0255 0.2088,0.0481 0.4014,0.1657l-0.0268 -0.8499 -0.6599 0.0387z"/>
    <path class="fil3" d="M18.3988 8.3923c-0.0089,0.0759 -0.0273,0.3343 0.0795,0.6579 0.0619,0.1878 0.166,0.3971 0.3383,0.6046 0.2032,0.2447 0.3026,0.4944 0.3188,0.7323 0.0173,0.2539 -0.0602,0.4935 -0.2072,0.6991 -0.1453,0.2032 -0.3587,0.3728 -0.6154,0.4894 -0.3526,0.1601 -0.7878,0.2208 -1.2408,0.1314 -0.0834,0.016 -0.6009,0.1107 -1.1651,0.1107 -0.5648,0 -1.0854,-0.0948 -1.1689,-0.1107 -0.4561,0.09 -0.897,0.0279 -1.2544,-0.1348 -0.2585,-0.1176 -0.4739,-0.288 -0.6207,-0.4918 -0.1485,-0.2061 -0.2271,-0.4463 -0.2099,-0.7008 0.0159,-0.2356 0.1141,-0.4827 0.3152,-0.7248 0.1723,-0.2075 0.2764,-0.4168 0.3383,-0.6046 0.1067,-0.3236 0.0882,-0.582 0.0792,-0.6579l0.1156 -0.013c0.0096,0.0819 0.0298,0.3608 -0.0842,0.7065 -0.0657,0.1993 -0.1762,0.4216 -0.3593,0.642 -0.1844,0.2221 -0.2744,0.4468 -0.2888,0.6595 -0.0153,0.2267 0.0552,0.4415 0.1885,0.6265 0.1351,0.1874 0.3344,0.3447 0.5743,0.4539 0.3395,0.1545 0.7596,0.2126 1.1946,0.1244l0.0231 0c0.0016,0.0003 0.5516,0.1103 1.1574,0.1103 0.6049,0 1.1517,-0.11 1.1532,-0.1103l0.0235 0c0.4318,0.0876 0.8463,0.031 1.181,-0.121 0.2383,-0.1082 0.4356,-0.2646 0.569,-0.4512 0.1317,-0.1842 0.2012,-0.3985 0.1858,-0.6251 -0.0147,-0.2151 -0.1058,-0.4423 -0.2925,-0.667 -0.183,-0.2204 -0.2935,-0.4426 -0.3592,-0.642 -0.114,-0.3457 -0.094,-0.6246 -0.0844,-0.7065l0.1155 0.013z"/>
    <path class="fil9" d="M15.8864 6.0159c-0.0654,0 -0.2009,0.0427 -0.2009,0.0427 0,0 -1.8687,0.6446 -2.899,1.6668 -0.2907,0.2884 -0.1648,0.6604 0.2022,0.6604 0.2862,0 2.8979,0 2.8979,0 0,0 2.6113,0 2.8975,0 0.3641,0 0.4931,-0.3717 0.2022,-0.6604 -1.0301,-1.0222 -2.8989,-1.6668 -2.8989,-1.6668 0,0 -0.1355,-0.0426 -0.201,-0.0427z"/>
    <path class="fil3" d="M15.8864 6.0736c-0.0523,0 -0.1643,0.034 -0.1816,0.0393l0 0c-0.0053,0.0019 -1.8564,0.6403 -2.8771,1.653 -0.0715,0.071 -0.1149,0.1468 -0.1333,0.2191 -0.0159,0.0626 -0.0131,0.1224 0.0062,0.1737 0.0188,0.0501 0.0539,0.093 0.103,0.1229 0.0483,0.0294 0.1106,0.0465 0.1851,0.0465l2.8979 0 2.8975 0c0.0741,0 0.136,-0.0171 0.184,-0.0463 0.049,-0.0299 0.0842,-0.0729 0.1032,-0.1234 0.0195,-0.0515 0.0224,-0.1115 0.0065,-0.1742 -0.0183,-0.0721 -0.0614,-0.1475 -0.1327,-0.2183 -1.0205,-1.0127 -2.8718,-1.6511 -2.8771,-1.653l0 0c-0.0172,-0.0053 -0.1293,-0.0393 -0.1816,-0.0393zm-0.218 -0.0699c0.0004,-0.0001 0.1438,-0.0454 0.218,-0.0454 0.0742,0 0.2176,0.0453 0.218,0.0454l0.0023 0.0007c0.0054,0.0018 1.8811,0.6486 2.9208,1.6804 0.0869,0.0863 0.14,0.1803 0.1631,0.2715 0.0217,0.0855 0.0171,0.169 -0.0105,0.2422 -0.028,0.0742 -0.0796,0.1374 -0.1511,0.181 -0.0661,0.0404 -0.1488,0.0639 -0.2449,0.0639l-2.8975 0 -2.8979 0c-0.097,0 -0.18,-0.0234 -0.2461,-0.0637 -0.0715,-0.0435 -0.1229,-0.1066 -0.1508,-0.1809 -0.0274,-0.073 -0.0319,-0.1563 -0.0102,-0.2417 0.0232,-0.0915 0.0766,-0.1858 0.1637,-0.2723 1.0399,-1.0317 2.9154,-1.6786 2.9208,-1.6804l0.0023 -0.0007z"/>
    <path class="fil6" d="M16.2207 8.9118c0.1586,0.0853 0.3003,0.2117 0.3922,0.3444 0.1367,0.1973 0.4125,0.6927 0.2776,1.3286 0,0 0.1687,0.1656 0.4754,0.4699 0.1777,0.1762 -0.1034,0.4498 -0.2306,0.6224l-0.3407 0c0,0 0.1238,-0.1602 0.0422,-0.3094 -0.0573,-0.1049 -0.2588,-0.1383 -0.2588,-0.1383 0,0 0.0947,-0.2123 -0.0587,-0.2632 0,0 0.2948,-0.7651 -0.0316,-1.4608 -0.1046,-0.2228 -0.2701,-0.4338 -0.5333,-0.4738 -0.0631,-0.0051 -0.127,0.0029 -0.1922,0.0255 -0.235,0.0817 -0.3543,0.2505 -0.462,0.4781 -0.3204,0.6769 -0.0096,1.431 -0.0096,1.431 -0.1534,0.0509 -0.0587,0.2632 -0.0587,0.2632 0,0 -0.2015,0.0334 -0.2588,0.1383 -0.0816,0.1492 0.0422,0.3094 0.0422,0.3094l-0.3407 0c-0.0858,-0.1165 -0.3626,-0.443 -0.2725,-0.6501 0.1114,-0.2004 0.5174,-0.4422 0.5174,-0.4422 -0.124,-0.584 0.0985,-1.0495 0.2416,-1.2744 0.1101,-0.1732 0.303,-0.3337 0.5116,-0.4232 0.2129,-0.0913 0.3425,-0.0859 0.548,0.0246z"/>
    <path class="fil3" d="M16.2313 8.8917c0.08,0.043 0.1559,0.0964 0.2232,0.1555 0.0689,0.0605 0.1294,0.1275 0.1769,0.196 0.0692,0.1 0.1737,0.2755 0.2437,0.5061 0.0692,0.2282 0.1049,0.5106 0.0399,0.8279 0.0384,0.0377 0.2037,0.2004 0.4667,0.4613 0.1637,0.1624 -0.0177,0.388 -0.1583,0.5629 -0.0257,0.032 -0.0502,0.0624 -0.07,0.0892l-0.0068 0.0093 -0.0113 0 -0.3407 0 -0.0473 0 0.0297 -0.037c0.0003,-0.0004 0.1145,-0.1481 0.04,-0.2842 -0.0519,-0.0952 -0.2419,-0.1267 -0.2424,-0.1267l-0.0294 -0.0047 0.0122 -0.0272c0.0002,-0.0005 0.0845,-0.1892 -0.0451,-0.2322l-0.0227 -0.0076 0.0086 -0.0222c0.0008,-0.0022 0.2913,-0.7562 -0.031,-1.4429 -0.0512,-0.1092 -0.1172,-0.2155 -0.2023,-0.2989 -0.084,-0.0823 -0.187,-0.1427 -0.3133,-0.162 -0.0298,-0.0024 -0.0597,-0.0017 -0.0896,0.0022 -0.0303,0.004 -0.0612,0.0114 -0.0925,0.0222 -0.1136,0.0395 -0.1992,0.1 -0.2694,0.1781 -0.071,0.079 -0.1267,0.1763 -0.1796,0.2881 -0.3161,0.6678 -0.0098,1.4107 -0.0089,1.4128l0.009 0.0225 -0.023 0.0077c-0.1295,0.043 -0.0453,0.2317 -0.0451,0.2322l0.0122 0.0272 -0.0293 0.0047c-0.0006,0 -0.1904,0.0314 -0.2426,0.1267 -0.0744,0.1361 0.0398,0.2838 0.0401,0.2842l0.0296 0.037 -0.0472 0 -0.3407 0 -0.0113 0 -0.0068 -0.0093c-0.0085,-0.0115 -0.019,-0.0253 -0.0308,-0.0408 -0.1094,-0.1433 -0.3307,-0.4334 -0.2443,-0.632l0.0004 -0.0009 0.0006 -0.0011c0.1019,-0.1833 0.4391,-0.3975 0.5117,-0.4422 -0.0478,-0.2363 -0.0399,-0.4533 -0.004,-0.6428 0.0529,-0.2789 0.1665,-0.4983 0.2521,-0.6327 0.0564,-0.0889 0.1341,-0.1744 0.2242,-0.2489 0.0894,-0.074 0.1915,-0.1375 0.2975,-0.183 0.1095,-0.0469 0.1981,-0.069 0.2866,-0.0651 0.0883,0.0039 0.1751,0.0337 0.2808,0.0906zm0.1938 0.19c-0.065,-0.0571 -0.1381,-0.1085 -0.215,-0.1499 -0.0996,-0.0535 -0.1805,-0.0816 -0.2616,-0.0852 -0.081,-0.0036 -0.1637,0.0173 -0.2669,0.0615 -0.1019,0.0438 -0.2002,0.105 -0.2866,0.1765 -0.0866,0.0716 -0.1611,0.1535 -0.2149,0.2381 -0.0834,0.1311 -0.1942,0.345 -0.2457,0.6167 -0.0357,0.1884 -0.0429,0.4048 0.0072,0.6407l0.0033 0.0161 -0.0139 0.0082c-0.0012,0.0007 -0.3993,0.2378 -0.5086,0.4326 -0.0746,0.174 0.1352,0.449 0.2389,0.585l0.0245 0.0322 0.2881 0c-0.0337,-0.0593 -0.0844,-0.1809 -0.0206,-0.2975 0.0489,-0.0894 0.1888,-0.1304 0.2481,-0.1441 -0.0201,-0.0595 -0.0546,-0.2037 0.0601,-0.2591 -0.0474,-0.1274 -0.275,-0.8082 0.0184,-1.4282 0.0547,-0.1156 0.1126,-0.2165 0.1869,-0.2992 0.0751,-0.0836 0.1667,-0.1483 0.2881,-0.1906 0.0339,-0.0117 0.0677,-0.0197 0.1013,-0.0241l0.0001 0c0.0337,-0.0044 0.0671,-0.0052 0.0998,-0.0025l0.0016 0.0002c0.1367,0.0207 0.2481,0.0859 0.3386,0.1746 0.0895,0.0877 0.1585,0.1985 0.2117,0.312 0.299,0.6371 0.0844,1.3294 0.04,1.4575 0.1152,0.0553 0.0807,0.1998 0.0605,0.2594 0.0594,0.0137 0.1993,0.0548 0.2481,0.1441 0.0638,0.1166 0.0131,0.2382 -0.0206,0.2975l0.2881 0c0.0194,-0.0257 0.0413,-0.053 0.0643,-0.0816 0.1293,-0.1608 0.2962,-0.3683 0.1617,-0.5017 -0.3116,-0.3092 -0.4752,-0.4695 -0.4757,-0.47l-0.0086 -0.0086 0.0026 -0.0122c0.0665,-0.3136 0.0318,-0.5926 -0.0364,-0.8174 -0.0683,-0.2251 -0.1701,-0.3961 -0.2375,-0.4935 -0.0453,-0.0653 -0.1033,-0.1294 -0.1694,-0.1875z"/>
   </g>
   <g>
    <path class="fil2" d="M16.2798 12.8802l0 0c0.1196,0 0.2175,0.0979 0.2175,0.2175l0 1.804c0,0.1197 -0.0979,0.2175 -0.2175,0.2175l0 0c-0.1196,0 -0.2175,-0.0978 -0.2175,-0.2175l0 -1.804c0,-0.1196 0.0979,-0.2175 0.2175,-0.2175z"/>
    <path class="fil2" d="M19.1434 12.9522c0.1196,0.0199 0.2003,0.0912 0.1804,0.2107 -0.0199,0.1194 -0.133,0.2002 -0.2525,0.1803 -0.4393,-0.0748 -0.8289,-0.1082 -1.139,-0.0449 -0.277,0.0564 -0.4903,0.1743 -0.6165,0.4029 -0.0656,0.1189 -0.1107,0.2056 -0.1182,0.3029 -0.0065,0.0839 -0.0252,0.2006 0.0408,0.2932l0.0421 -0.031c0.0406,0.0569 0.0522,0.1418 0.1158,0.1911 0.0689,0.0534 0.1482,0.1013 0.2354,0.1429 0.4753,0.2274 1.1905,0.2916 1.7357,0.0869 0.1134,-0.0427 0.2398,0.0146 0.2825,0.1279 0.0427,0.1134 0.0063,0.198 -0.107,0.2407 -0.6542,0.2457 -1.4876,0.1811 -2.0583,-0.0918 -0.1162,-0.0556 -0.2222,-0.1196 -0.3143,-0.191 -0.0974,-0.0755 -0.1809,-0.1599 -0.247,-0.2526l-0.0002 -0.0003c-0.1321,-0.1852 -0.1776,-0.3649 -0.1635,-0.5487 0.0132,-0.1703 0.0781,-0.3331 0.1715,-0.5024 0.2267,-0.3329 0.5211,-0.4551 0.924,-0.5373 0.3698,-0.0754 0.801,-0.0624 1.2883,0.0205z"/>
    <path class="fil2" d="M18.3138 13.8694l-1.3451 0 0 0.3214 1.3451 0c0.0906,0 0.1647,-0.0723 0.1647,-0.1607l0.0001 0c0,-0.0884 -0.0742,-0.1607 -0.1648,-0.1607z"/>
    <path class="fil2" d="M20.3554 13.5398l0 1.3619c0,0.1196 -0.0979,0.2175 -0.2175,0.2175l0 0c-0.1196,0 -0.2026,-0.0978 -0.2026,-0.2175l0 -1.2259c-0.0598,-0.5174 0.4598,-1.1074 1.0512,-0.5553 0.0074,0.0069 0.0141,0.0142 0.0203,0.0218l0.0004 -0.0003 0.0002 0.0002c0.004,0.0051 0.0078,0.0102 0.0114,0.0155 0.3212,0.421 0.5523,0.8775 0.846,1.3162l0.0003 0.0004 0.0013 0.0022 0.0001 -0.0001 0.0003 0.0005 0.0027 0.0048c0.018,0.0299 0.0334,0.0577 0.0495,0.0869 0.1738,0.2574 0.4215,0.253 0.4294,-0.0667 0.0061,-0.2799 0.0057,-1.0496 -0.0182,-1.3744 -0.0087,-0.1193 0.0979,-0.2175 0.2175,-0.2175l0 0c0.1197,0 0.1878,0.098 0.1878,0.2175l0.0001 1.1425c0.0222,0.356 -0.0832,0.6514 -0.1697,0.7364 -0.1191,0.133 -0.2729,0.1711 -0.4379,0.1674 -0.0299,-0.0007 -0.0587,-0.0038 -0.086,-0.0096 -0.3327,-0.07 -0.9874,-1.2325 -1.1014,-1.3974 -0.0452,-0.0655 -0.0887,-0.1271 -0.1292,-0.1832 -0.0347,-0.048 -0.0727,-0.099 -0.1141,-0.1533 -0.192,-0.1681 -0.3415,-0.0321 -0.3419,0.1095zm1.5141 0.9419c0.0175,0.0313 0.0265,0.0652 0.0277,0.0989l-0.0277 -0.0989z"/>
    <path class="fil2" d="M12.8432 13.0253c-0.0474,-0.1114 -0.1762,-0.1634 -0.2877,-0.1159 -0.1114,0.0474 -0.1633,0.1762 -0.1159,0.2876 0.2209,0.5153 0.5556,1.044 0.92,1.4612 0.2412,0.2762 0.4651,0.4804 0.6982,0.5082 0.2394,0.0285 0.4441,-0.1166 0.7336,-0.3745 0.2628,-0.2341 0.4255,-0.4919 0.6001,-0.7848 0.1704,-0.2857 0.305,-0.5694 0.4059,-0.7947 0.0493,-0.1105 -0.0003,-0.2401 -0.1108,-0.2894 -0.1105,-0.0494 -0.2401,0.0002 -0.2894,0.1107 -0.0958,0.214 -0.2321,0.4828 -0.3905,0.7485 -0.1295,0.2171 -0.6135,0.9848 -0.9223,0.948 -0.3823,-0.0455 -1.039,-1.233 -1.2412,-1.7049z"/>
    <path class="fil2" d="M12.0097 12.8802l0 0c0.1197,0 0.2175,0.0979 0.2175,0.2175l0 1.804c0,0.1197 -0.0978,0.2175 -0.2175,0.2175l0 0c-0.1196,0 -0.2175,-0.0978 -0.2175,-0.2175l0 -1.804c0,-0.1196 0.0979,-0.2175 0.2175,-0.2175z"/>
    <path class="fil2" d="M2.7708 13.3996c-0.1166,0.0332 -0.2382,-0.0203 -0.2713,-0.1369 -0.0332,-0.1167 0.0345,-0.2382 0.1511,-0.2714 1.0082,-0.1914 1.6161,-0.0484 2.1116,0.1871 0.2033,0.1299 0.4007,0.2795 0.4981,0.4532 0.1024,0.1829 0.1459,0.3523 0.1276,0.5459 -0.0279,0.2965 -0.1987,0.5742 -0.5219,0.7622 -0.1584,0.0922 -0.3273,0.1513 -0.5008,0.1901 -0.1672,0.0373 -0.3342,0.055 -0.4985,0.0654 -0.1678,0.0105 -0.3098,0.0144 -0.4516,-0.0033 -0.1495,-0.0188 -0.2947,-0.0603 -0.4605,-0.1404 -0.0646,-0.0312 -0.1419,-0.0899 -0.1547,-0.1553l-0.0064 0.0171c0,-0.4082 0,-0.8335 0,-1.2417 0.0743,-0.2147 0.3756,-0.1509 0.3777,0l0.0286 1.0118c-0.0471,0.2065 0.5168,0.1338 0.6394,0.126 0.1476,-0.0093 0.2942,-0.0244 0.4315,-0.0551 0.131,-0.0292 0.2578,-0.0735 0.3755,-0.1419 0.1907,-0.1109 0.2905,-0.317 0.3055,-0.4761 0.0098,-0.1037 -0.0156,-0.2135 -0.0744,-0.3186 -0.064,-0.1142 -0.1661,-0.2215 -0.3047,-0.3101 -0.3799,-0.2145 -0.9299,-0.3402 -1.8018,-0.108z"/>
    <path class="fil2" d="M8.5926 13.0253c-0.0474,-0.1114 -0.1763,-0.1634 -0.2877,-0.1159 -0.1114,0.0474 -0.1634,0.1762 -0.1159,0.2876 0.2208,0.5153 0.5556,1.044 0.9199,1.4612 0.2413,0.2762 0.4652,0.4804 0.6982,0.5082 0.2394,0.0285 0.4441,-0.1166 0.7337,-0.3745 0.2628,-0.2341 0.4254,-0.4919 0.6001,-0.7848 0.1704,-0.2857 0.305,-0.5694 0.4059,-0.7947 0.0493,-0.1105 -0.0003,-0.2401 -0.1108,-0.2894 -0.1105,-0.0494 -0.2401,0.0002 -0.2894,0.1107 -0.0958,0.214 -0.2321,0.4828 -0.3906,0.7485 -0.1294,0.2171 -0.6135,0.9848 -0.9223,0.948 -0.3823,-0.0455 -1.0389,-1.233 -1.2411,-1.7049z"/>
    <path class="fil2" d="M8.2892 15.0364c0.0474,0.1114 0.1762,0.1634 0.2877,0.116 0.1114,-0.0475 0.1633,-0.1763 0.1159,-0.2877 -0.2209,-0.5153 -0.5556,-1.044 -0.92,-1.4612 -0.2412,-0.2762 -0.4651,-0.4804 -0.6982,-0.5082 -0.2394,-0.0286 -0.4441,0.1166 -0.7337,0.3745 -0.2627,0.2341 -0.4254,0.4919 -0.6,0.7848 -0.1705,0.2857 -0.305,0.5695 -0.4059,0.7948 -0.0493,0.1104 0.0003,0.2401 0.1108,0.2894 0.1104,0.0493 0.2401,-0.0003 0.2894,-0.1108 0.0958,-0.214 0.2321,-0.4828 0.3905,-0.7484 0.1295,-0.2172 0.6135,-0.9848 0.9223,-0.9481 0.3823,0.0455 1.0389,1.233 1.2412,1.7049z"/>
    <path class="fil2" d="M23.3245 13.3996c-0.1166,0.0332 -0.2382,-0.0203 -0.2713,-0.1369 -0.0332,-0.1167 0.0344,-0.2382 0.1511,-0.2714 1.0082,-0.1914 1.616,-0.0484 2.1116,0.1871 0.2033,0.1299 0.4007,0.2795 0.498,0.4532 0.1025,0.1829 0.1459,0.3523 0.1277,0.5459 -0.0279,0.2965 -0.1987,0.5742 -0.5219,0.7622 -0.1584,0.0922 -0.3273,0.1513 -0.5009,0.1901 -0.1671,0.0373 -0.3341,0.055 -0.4984,0.0654 -0.1678,0.0105 -0.3098,0.0144 -0.4516,-0.0033 -0.1495,-0.0188 -0.2947,-0.0603 -0.4605,-0.1404 -0.0646,-0.0312 -0.1419,-0.0899 -0.1548,-0.1553l-0.0063 0.0171c0,-0.4082 0,-0.8335 0,-1.2417 0.0743,-0.2147 0.3756,-0.1509 0.3777,0l0.0286 1.0118c-0.0471,0.2065 0.5168,0.1338 0.6394,0.126 0.1476,-0.0093 0.2942,-0.0244 0.4315,-0.0551 0.131,-0.0292 0.2578,-0.0735 0.3755,-0.1419 0.1907,-0.1109 0.2905,-0.317 0.3055,-0.4761 0.0097,-0.1037 -0.0156,-0.2135 -0.0745,-0.3186 -0.0639,-0.1142 -0.166,-0.2215 -0.3046,-0.3101 -0.3799,-0.2145 -0.9299,-0.3402 -1.8018,-0.108z"/>
    <path class="fil2" d="M26.2856 15.0364c-0.0474,0.1114 -0.1762,0.1634 -0.2876,0.116 -0.1115,-0.0475 -0.1634,-0.1763 -0.116,-0.2877 0.2209,-0.5153 0.5556,-1.044 0.92,-1.4612 0.2413,-0.2762 0.4652,-0.4804 0.6982,-0.5082 0.2394,-0.0286 0.4441,0.1166 0.7337,0.3745 0.2628,0.2341 0.4254,0.4919 0.6001,0.7848 0.1704,0.2857 0.305,0.5695 0.4058,0.7948 0.0494,0.1104 -0.0002,0.2401 -0.1107,0.2894 -0.1105,0.0493 -0.2401,-0.0003 -0.2895,-0.1108 -0.0957,-0.214 -0.2321,-0.4828 -0.3905,-0.7484 -0.1294,-0.2172 -0.6135,-0.9848 -0.9223,-0.9481 -0.3823,0.0455 -1.0389,1.233 -1.2412,1.7049z"/>
   </g>
  </g>
 </g>
</svg>
