<?xml version="1.0" encoding="UTF-8"?>
<!DOCTYPE svg PUBLIC "-//W3C//DTD SVG 1.1//EN" "http://www.w3.org/Graphics/SVG/1.1/DTD/svg11.dtd">
<!-- Creator: CorelDRAW -->
<svg xmlns="http://www.w3.org/2000/svg" xml:space="preserve" width="31.75mm" height="21.167mm" style="shape-rendering:geometricPrecision; text-rendering:geometricPrecision; image-rendering:optimizeQuality; fill-rule:evenodd; clip-rule:evenodd"
viewBox="0 0 31.75 21.167"
 xmlns:xlink="http://www.w3.org/1999/xlink">
 <defs>
  <style type="text/css">
   <![CDATA[
    .str0 {stroke:#C5C6C6;stroke-width:0.0762}
    .fil0 {fill:none}
    .fil1 {fill:white}
    .fil2 {fill:#E7140B;fill-rule:nonzero}
   ]]>
  </style>
 </defs>
 <g id="Layer_x0020_1">
  <metadata id="CorelCorpID_0Corel-Layer"/>
  <g>
   <path class="fil0 str0" d="M1.0583 0.0002l29.6334 0c0.5843,0 1.0582,0.4739 1.0582,1.0583l0.0001 19.05c-0.0001,0.5842 -0.474,1.0581 -1.0584,1.0581l-29.6333 0.0002c-0.5843,-0.0002 -1.0582,-0.4741 -1.0582,-1.0585l-0.0001 -19.0498c0.0001,-0.5844 0.474,-1.0583 1.0584,-1.0583z"/>
   <path id="1" class="fil1" d="M1.0583 0.0002l29.6334 0c0.5843,0 1.0582,0.4739 1.0582,1.0583l0.0001 19.05c-0.0001,0.5842 -0.474,1.0581 -1.0584,1.0581l-29.6333 0.0002c-0.5843,-0.0002 -1.0582,-0.4741 -1.0582,-1.0585l-0.0001 -19.0498c0.0001,-0.5844 0.474,-1.0583 1.0584,-1.0583z"/>
  </g>
  <path id="_403243408" class="fil2" d="M17.7807 12.687c0,0.3574 -0.2222,0.5884 -0.5656,0.5884 -0.3448,0 -0.5675,-0.231 -0.5675,-0.5884l0 -4.0501c0,-0.3565 0.2227,-0.5871 0.5675,-0.5871 0.3434,0 0.5656,0.2306 0.5656,0.5871l0 4.0501zm1.8791 -1.5266c-0.0032,-0.0031 -0.0476,-0.0498 -0.0913,-0.1246 -0.0437,-0.0753 -0.0865,-0.1783 -0.0865,-0.2943 0,-0.2786 0.1999,-0.4032 0.3975,-0.4032l0.5255 0c0.1873,0 0.3451,-0.0548 0.4571,-0.1595 0.1133,-0.1064 0.1735,-0.2594 0.1735,-0.4437 0,-0.1864 -0.0593,-0.3395 -0.1735,-0.442 -0.1103,-0.1 -0.2677,-0.1532 -0.4571,-0.1532l-1.5199 0c-0.0039,0 -0.1259,-0.0077 -0.2475,-0.0769 -0.1215,-0.0698 -0.2412,-0.2008 -0.2412,-0.4465 0,-0.4939 0.4816,-0.5246 0.4874,-0.5246l1.5212 0c0.5722,0 1.0155,0.1323 1.3204,0.3944 0.3228,0.2768 0.4864,0.6964 0.4864,1.2488 0,0.381 -0.1333,0.7001 -0.3967,0.9484 -0.2238,0.2112 -0.5316,0.3556 -0.8928,0.4213l2.2388 2.6234c0.4165,-0.965 0.6489,-2.0274 0.6489,-3.1454 0,-4.3812 -3.5521,-7.9348 -7.9353,-7.9348 -2.4918,0 -4.7154,1.1501 -6.1706,2.9472l1.3283 5.931 0.9015 -3.0338c0.0833,-0.2729 0.308,-0.4426 0.5865,-0.4426 0.2786,0 0.503,0.1697 0.5864,0.4426l0.8981 3.029 0.5864 -2.933c0.0748,-0.3626 0.2715,-0.5386 0.6025,-0.5386 0.3323,0 0.5382,0.2601 0.5382,0.5014 0,0.1025 -0.0083,0.1531 -0.0295,0.25l-0.9057 3.8932c-0.0667,0.2808 -0.295,0.581 -0.7363,0.581 -0.3459,0 -0.6418,-0.2193 -0.7364,-0.5438l-0.8037 -2.6752 -0.804 2.6761c-0.0951,0.3236 -0.3911,0.5429 -0.7372,0.5429 -0.4403,0 -0.669,-0.3002 -0.7357,-0.581l-1.3569 -5.8723c-0.6047,1.1197 -0.9467,2.3996 -0.9467,3.7607 0,4.3833 3.552,7.9362 7.9348,7.9362 2.8607,0 5.3651,-1.5126 6.7625,-3.7813l-2.9774 -3.5773z"/>
 </g>
</svg>
