<?xml version="1.0" encoding="UTF-8"?>
<!DOCTYPE svg PUBLIC "-//W3C//DTD SVG 1.1//EN" "http://www.w3.org/Graphics/SVG/1.1/DTD/svg11.dtd">
<!-- Creator: CorelDRAW -->
<svg xmlns="http://www.w3.org/2000/svg" xml:space="preserve" width="50mm" height="35mm" style="shape-rendering:geometricPrecision; text-rendering:geometricPrecision; image-rendering:optimizeQuality; fill-rule:evenodd; clip-rule:evenodd"
viewBox="0 0 50 35"
 xmlns:xlink="http://www.w3.org/1999/xlink">
 <defs>
  <style type="text/css">
   <![CDATA[
    .str0 {stroke:black;stroke-width:0.0762}
    .fil1 {fill:#0084C5}
    .fil4 {fill:#2B2A29}
    .fil3 {fill:#E41D2C}
    .fil2 {fill:#FEFEFE}
    .fil6 {fill:#0084C5;fill-rule:nonzero}
    .fil0 {fill:#FEFEFE;fill-rule:nonzero}
    .fil5 {fill:black;fill-rule:nonzero}
    .fil7 {fill:white;fill-rule:nonzero}
   ]]>
  </style>
 </defs>
 <g id="Layer_x0020_1">
  <metadata id="CorelCorpID_0Corel-Layer"/>
  <path class="fil0 str0" d="M5.2445 3.3889l39.5111 0c0.7793,0 1.4111,0.6318 1.4111,1.4111l0 25.4c0,0.7793 -0.6318,1.4111 -1.4111,1.4111l-39.5111 0c-0.7793,0 -1.4112,-0.6318 -1.4112,-1.4111l0 -25.4c0,-0.7793 0.6319,-1.4111 1.4112,-1.4111z"/>
  <g id="_301275712">
   <g>
    <polygon id="_495097168" class="fil1" points="13.6299,22.7515 13.6299,20.1408 18.2986,20.1408 18.2986,26.4284 9.3615,26.4284 9.2056,26.4213 9.0498,26.3966 8.9046,26.3576 8.7629,26.308 8.6318,26.2407 8.5043,26.1628 8.3839,26.0742 8.274,25.9715 8.1748,25.8652 8.0863,25.7448 8.0119,25.6172 7.9446,25.4826 7.895,25.3374 7.8561,25.1886 7.8313,25.0328 7.8242,24.8769 7.8242,10.396 7.8313,10.2365 7.849,10.0736 7.8808,9.9177 7.9269,9.7619 7.9836,9.6096 8.0509,9.4644 8.1359,9.3227 8.2351,9.1915 8.3484,9.0747 8.4724,8.9649 8.6141,8.8692 8.7664,8.7842 8.94,8.7205 9.1242,8.6709 9.3261,8.639 9.5386,8.6284 18.2986,8.6284 18.2986,19.1844 12.2839,19.1844 12.2839,22.3016 12.2945,22.3902 12.3228,22.4752 12.3654,22.5531 12.4185,22.6204 12.4893,22.6736 12.5673,22.7161 12.6558,22.7409 12.7479,22.7515 "/>
    <polygon id="_495097000" class="fil2" points="12.2839,15.7377 12.2839,12.8756 12.2945,12.7835 12.3228,12.6949 12.3654,12.6205 12.4185,12.5496 12.4893,12.493 12.5673,12.4505 12.6558,12.4221 12.7479,12.4115 13.6193,12.4221 13.6193,15.7377 "/>
    <polygon id="_495098296" class="fil3" points="18.249,20.1267 18.249,19.1844 15.5463,19.1844 15.5463,20.1267 "/>
    <polygon id="_495096448" class="fil3" points="18.249,8.6177 26.2971,8.6177 26.2971,15.7377 21.1218,15.7484 21.1218,12.4221 20.5268,12.4221 20.4559,12.4221 20.3886,12.4257 20.3213,12.4293 20.2505,12.4398 20.1831,12.4505 20.1194,12.4647 20.0556,12.4859 19.9989,12.5143 19.9423,12.5461 19.8927,12.5886 19.8501,12.6347 19.8112,12.6913 19.7829,12.7516 19.758,12.826 19.7439,12.911 19.7404,13.0066 19.7404,22.2769 19.7474,22.3619 19.7651,22.4362 19.79,22.5 19.8253,22.5567 19.8714,22.6028 19.921,22.6417 19.9777,22.6736 20.0379,22.6984 20.1016,22.7161 20.1654,22.7302 20.2292,22.7409 20.2965,22.7444 20.3567,22.748 20.4169,22.7515 20.4736,22.7515 20.5268,22.7515 21.1218,22.7657 21.1218,19.1738 26.2971,19.1738 26.2971,26.4284 18.249,26.4284 "/>
    <polygon id="_495097072" class="fil4" points="18.2986,26.4284 17.0943,26.4284 16.9349,26.4213 16.779,26.3966 16.6338,26.3576 16.4921,26.308 16.3575,26.2407 16.2264,26.1628 16.1095,26.0742 15.9997,25.975 15.9005,25.8688 15.812,25.7483 15.734,25.6208 15.6668,25.4861 15.6171,25.3445 15.5782,25.1992 15.5534,25.0434 15.5463,24.8911 15.5463,20.1267 18.2986,20.1267 "/>
    <polygon id="_495097864" class="fil4" points="18.288,19.1844 15.5463,19.1844 15.5463,10.1657 15.5534,10.0098 15.5782,9.854 15.6171,9.7052 15.6668,9.5636 15.734,9.4289 15.812,9.2979 15.9005,9.1809 15.9997,9.0711 16.1095,8.972 16.2264,8.8834 16.3575,8.8055 16.4921,8.7382 16.6338,8.6886 16.779,8.6496 16.9349,8.6248 17.0943,8.6177 18.2986,8.6177 "/>
   </g>
   <path id="_301688616" class="fil5" d="M38.3679 17.1217c0.8996,0 1.7608,0.0286 2.6191,-0.0089 0.6963,-0.0304 0.9774,0.4005 0.9735,0.983 -0.012,1.781 -0.0021,3.5621 -0.0014,5.3432 0.0002,0.7628 -0.2608,1.0291 -1.0126,1.0359 -1.7123,0.0152 -3.4247,0.0267 -5.1368,0.053 -0.1185,0.0018 -0.2997,0.0834 -0.3433,0.178 -0.6609,1.4332 -1.6528,2.6485 -2.5548,3.923 -0.0677,0.0957 -0.123,0.2076 -0.2109,0.2793 -0.0726,0.0594 -0.2008,0.1159 -0.2747,0.0898 -0.0712,-0.0252 -0.1492,-0.1591 -0.147,-0.2432 0.0134,-0.5179 0.0391,-1.0359 0.0789,-1.5525 0.0669,-0.8664 0.1473,-1.7321 0.2258,-2.6403 -0.1197,0 -0.2632,0.0069 -0.4058,-0.0014 -0.4459,-0.0255 -0.7573,-0.306 -0.7814,-0.7488 -0.0272,-0.4975 -0.0194,-0.9971 -0.0208,-1.4958 -0.0042,-1.3992 -0.0071,-2.7986 -0.0066,-4.1977 0.0002,-0.6338 0.301,-0.9279 0.9346,-0.9314 0.8806,-0.005 1.7613,-0.0164 2.6419,-0.0142 0.1987,0.0005 0.2981,-0.0722 0.3604,-0.2598 0.141,-0.424 0.3023,-0.8412 0.4744,-1.3136l0.8516 -2.3041c0.1068,-0.2662 0.2217,-0.5295 0.3194,-0.7991 0.7816,-2.1579 1.5334,-4.3269 2.3499,-6.4715 0.4379,-1.1503 1.5135,-1.3959 2.3832,-0.6935 0.4799,0.3876 0.5871,0.9722 0.4124,1.5465 -0.2496,0.8202 -0.557,1.6233 -0.8543,2.4283 -0.9278,2.511 -1.8626,5.0195 -2.7936,7.5294 -0.0299,0.0805 -0.0473,0.1656 -0.0811,0.2864zm-0.4388 -6.1388l0 0c-0.1601,0.4131 -0.3259,0.8295 -0.4827,1.249 -0.2633,0.7045 -0.5204,1.4114 -0.7813,2.1168 -0.2681,0.7245 -0.5406,1.4471 -0.8053,2.1728 -0.2326,0.6371 -0.452,1.279 -0.6864,1.9155 -0.2887,0.7836 -0.591,1.5622 -0.8728,2.3482 -0.0202,0.0562 0.0615,0.2014 0.1268,0.2275 0.587,0.2335 1.1811,0.4498 1.7792,0.6733 0.0896,-0.2121 0.1747,-0.3987 0.2481,-0.5898 0.2321,-0.6051 0.4634,-1.2107 0.6882,-1.8185 0.2761,-0.7462 0.548,-1.494 0.8164,-2.243 0.1546,-0.4314 0.2877,-0.8707 0.4508,-1.2987 0.213,-0.5591 0.4511,-1.1085 0.6691,-1.6658 0.2288,-0.585 0.4344,-1.1792 0.6728,-1.7602 0.2085,-0.5078 0.1746,-0.6145 -0.3457,-0.8032 -0.0091,-0.0034 -0.0186,-0.0059 -0.0279,-0.0092 -0.4783,-0.1699 -0.9567,-0.3398 -1.4493,-0.5147zm-2.2073 13.1765l0 0c0.113,0.0069 0.171,0.0142 0.229,0.0136 1.701,-0.0168 3.402,-0.0319 5.103,-0.0533 0.468,-0.0059 0.5872,-0.1332 0.5869,-0.6034 -0.0003,-1.0852 -0.0046,-2.1706 -0.009,-3.2559 -0.0004,-0.0945 -0.0134,-0.1889 -0.019,-0.2628 -1.4106,0 -2.7966,-0.0035 -4.1824,0.0089 -0.0786,0.0008 -0.194,0.1161 -0.228,0.2031 -0.2879,0.7358 -0.5616,1.4771 -0.8379,2.2173 -0.2109,0.5647 -0.4194,1.1302 -0.6426,1.7325zm4.364 -12.8236l0 0c0.0932,-0.2802 0.1704,-0.5392 0.265,-0.7918 0.2571,-0.6859 0.5224,-1.3686 0.7823,-2.0533 0.143,-0.3764 0.2893,-0.7517 0.42,-1.1324 0.0931,-0.2716 0.2348,-0.553 0.2281,-0.8269 -0.0148,-0.5959 -0.163,-0.9182 -0.8448,-1.1572 -0.3301,-0.1157 -0.8449,0.0973 -1.0973,0.485 -0.127,0.1948 -0.1738,0.4409 -0.2624,0.6616 -0.1818,0.453 -0.3747,0.9017 -0.5491,1.3575 -0.1781,0.4659 -0.3409,0.9377 -0.5079,1.4078 -0.1311,0.369 -0.2659,0.7371 -0.3808,1.1112 -0.02,0.0649 0.0307,0.2089 0.0831,0.2299 0.6043,0.2409 1.2151,0.4651 1.8638,0.7086zm-8.3954 8.7124l0 0c0,1.164 -0.0022,2.2852 0.0009,3.4064 0.0018,0.6388 0.2498,0.8495 0.8735,0.7365 0.0715,-0.0129 0.1616,-0.0967 0.1865,-0.1676 0.3202,-0.9088 0.6282,-1.8219 0.9433,-2.7326 0.1415,-0.4092 0.2921,-0.8152 0.4457,-1.2427 -0.8369,0 -1.6238,0 -2.4499,0zm3.655 4.09l0 0c-0.3107,-0.1192 -0.5488,-0.2229 -0.7946,-0.302 -0.3288,-0.1056 -0.6639,-0.1913 -0.9957,-0.2874 -0.2354,-0.0684 -0.2355,-0.0699 -0.2847,0.1614 -0.0373,0.1754 -0.0752,0.3506 -0.1095,0.5266 -0.1145,0.5862 -0.2569,1.1691 -0.3311,1.7605 -0.0519,0.4137 -0.01,0.8393 -0.01,1.2754 0.0156,0.0029 0.0902,-0.0063 0.1252,0.0265 0.2368,0.2222 0.3739,0.1234 0.5215,-0.1157 0.3281,-0.5313 0.6877,-1.043 1.0169,-1.5735 0.2941,-0.4738 0.5648,-0.962 0.862,-1.4718zm2.5848 -5.8855l0 0c1.2579,0 2.4638,0 3.6642,0 0.0743,-0.5487 -0.0337,-0.777 -0.3885,-0.7803 -0.9375,-0.009 -1.8752,0.0005 -2.8127,0.0133 -0.0799,0.0012 -0.199,0.0622 -0.2304,0.1283 -0.094,0.1986 -0.1536,0.4135 -0.2326,0.6387zm-6.2227 0.0453l0 0c0.0083,0.0049 0.0165,0.0139 0.0248,0.0139 0.9837,-0.0018 1.9674,-0.0026 2.9511,-0.0114 0.0481,-0.0005 0.1197,-0.0616 0.1391,-0.1109 0.0812,-0.2052 0.1464,-0.4167 0.2324,-0.6695 -0.1439,0 -0.2485,-0.0004 -0.353,0 -0.7805,0.0037 -1.5609,0.0076 -2.3414,0.0112 -0.5493,0.0025 -0.7186,0.2009 -0.653,0.7667zm2.3998 3.0588l0 0c-0.062,0.1444 -0.1255,0.238 -0.1397,0.3386 -0.0185,0.1294 -0.1411,0.2967 0.1438,0.3453 0.2406,0.041 0.4645,0.1782 0.6968,0.2698 0.3433,0.1354 0.6875,0.2681 1.0275,0.4005 0.0662,-0.1692 0.1183,-0.2971 0.1664,-0.4266 0.0501,-0.135 0.042,-0.2294 -0.1267,-0.288 -0.5978,-0.2067 -1.1902,-0.4292 -1.7681,-0.6396zm1.3423 2.3682l0 0c0.0774,-0.1854 0.1552,-0.3567 0.2162,-0.5337 0.0091,-0.0265 -0.0518,-0.101 -0.0943,-0.1178 -0.5549,-0.2178 -1.1115,-0.4318 -1.6706,-0.6386 -0.0493,-0.0184 -0.1558,-0.0001 -0.1737,0.0338 -0.0901,0.171 -0.1595,0.3527 -0.2398,0.5392 0.6579,0.2404 1.2816,0.4684 1.9622,0.7171z"/>
   <path id="_301688688" class="fil6" d="M29.2656 26.4581c-0.1323,0.2264 -0.2753,0.4473 -0.3945,0.6803 -0.1817,0.3556 -0.3403,0.7229 -0.5225,1.0782 -0.0703,0.1369 -0.1562,0.2848 -0.2754,0.3727 -0.152,0.112 -0.3554,0.2501 -0.5179,0.2294 -0.2467,-0.0314 -0.3921,-0.2708 -0.3721,-0.5255 0.031,-0.3953 0.0984,-0.7885 0.1652,-1.1801 0.0426,-0.2497 0.1209,-0.4933 0.1652,-0.7428 0.0171,-0.0967 -0.0153,-0.2022 -0.0251,-0.3036 -0.032,-0.0135 -0.0639,-0.0269 -0.096,-0.0403 -0.0952,0.1423 -0.2126,0.275 -0.2816,0.4291 -0.2265,0.5059 -0.4289,1.0227 -0.6541,1.5292 -0.0906,0.204 -0.2227,0.3889 -0.3241,0.5884 -0.127,0.25 -0.2987,0.415 -0.6003,0.338 -0.2061,-0.0526 -0.3777,-0.3511 -0.337,-0.6514 0.0614,-0.4513 0.1111,-0.9141 0.256,-1.3415 0.1642,-0.4842 0.4232,-0.937 0.6537,-1.3971 0.0301,-0.0599 0.136,-0.0819 0.2068,-0.1214 0.0016,0.0838 0.0348,0.1847 0,0.2488 -0.4222,0.7777 -0.7549,1.583 -0.8198,2.478 -0.0056,0.0776 -0.0283,0.162 -0.0063,0.2317 0.0289,0.0918 0.0942,0.1723 0.1439,0.2575 0.0859,-0.0511 0.2124,-0.0813 0.251,-0.1567 0.249,-0.485 0.4806,-0.979 0.714,-1.4719 0.1499,-0.3163 0.2759,-0.6455 0.4458,-0.9503 0.1049,-0.1883 0.2859,-0.3709 0.5272,-0.2479 0.2228,0.1136 0.2571,0.355 0.21,0.5872 -0.0989,0.4875 -0.2103,0.9722 -0.3161,1.4583 -0.0104,0.0478 -0.0334,0.1002 -0.023,0.1438 0.0428,0.179 0.0435,0.448 0.1572,0.5128 0.2128,0.1214 0.3423,-0.1203 0.4305,-0.2849 0.2896,-0.5407 0.5604,-1.0914 0.8405,-1.6374 0.0308,-0.0598 0.0689,-0.1177 0.1125,-0.1688 0.1129,-0.1327 0.2425,-0.3353 0.4231,-0.2119 0.1367,0.0933 0.2624,0.3101 0.264,0.4733 0.0045,0.457 -0.058,0.9146 -0.0937,1.3722 -0.0052,0.0681 -0.0258,0.142 -0.0068,0.2033 0.0253,0.082 0.0824,0.1541 0.1259,0.2304 0.0729,-0.0529 0.1806,-0.09 0.2133,-0.1615 0.1906,-0.4162 0.3612,-0.8416 0.5446,-1.2614 0.0461,-0.1056 0.091,-0.2383 0.1777,-0.2933 0.1274,-0.0804 0.3034,-0.1577 0.4369,-0.1303 0.1009,0.0206 0.212,0.1978 0.2386,0.3224 0.0355,0.1658 -0.0171,0.3484 -0.0131,0.5234 0.0063,0.2817 -0.0005,0.5684 0.0509,0.8432 0.0534,0.2849 0.2314,0.4813 0.5517,0.5221 0.07,0.009 0.1268,0.1218 0.1898,0.1867 -0.0897,0.0375 -0.1855,0.1173 -0.268,0.1053 -0.3647,-0.0528 -0.7156,-0.419 -0.7507,-0.8007 -0.0291,-0.3167 -0.001,-0.6383 -0.0176,-0.9567 -0.0079,-0.1494 -0.0614,-0.2964 -0.0942,-0.4443 -0.0965,0.1165 -0.2218,0.2196 -0.2843,0.3523 -0.1827,0.3873 -0.33,0.7912 -0.5119,1.179 -0.1028,0.219 -0.2647,0.4134 -0.5462,0.3357 -0.2581,-0.0711 -0.3267,-0.2971 -0.3125,-0.5349 0.029,-0.4868 0.079,-0.9722 0.112,-1.4589 0.0066,-0.0986 -0.0241,-0.1998 -0.0376,-0.2999 -0.0352,-0.0125 -0.0704,-0.0248 -0.1056,-0.0373z"/>
   <path id="_301688784" class="fil5" d="M25.235 30.0615c0,-0.146 0,-0.2389 0,-0.3596 5.5957,-0.0442 11.1754,-0.088 16.7751,-0.1321 0.0087,0.1204 0.0156,0.2135 0.0255,0.3513 -5.6114,0.047 -11.2004,0.0936 -16.8006,0.1404z"/>
   <path id="_301688760" class="fil7" d="M37.9291 10.9829c0.4926,0.1749 0.971,0.3448 1.4493,0.5147 0.0093,0.0033 0.0188,0.0058 0.0279,0.0092 0.5203,0.1887 0.5542,0.2954 0.3457,0.8032 -0.2384,0.581 -0.444,1.1752 -0.6728,1.7602 -0.218,0.5573 -0.4561,1.1067 -0.6691,1.6658 -0.1631,0.428 -0.2962,0.8673 -0.4508,1.2987 -0.2684,0.749 -0.5403,1.4968 -0.8164,2.243 -0.2248,0.6078 -0.4561,1.2134 -0.6882,1.8185 -0.0734,0.1911 -0.1585,0.3777 -0.2481,0.5898 -0.5981,-0.2235 -1.1922,-0.4398 -1.7792,-0.6733 -0.0653,-0.0261 -0.147,-0.1713 -0.1268,-0.2275 0.2818,-0.786 0.5841,-1.5646 0.8728,-2.3482 0.2344,-0.6365 0.4538,-1.2784 0.6864,-1.9155 0.2647,-0.7257 0.5372,-1.4483 0.8053,-2.1728 0.2609,-0.7054 0.518,-1.4123 0.7813,-2.1168 0.1568,-0.4195 0.3226,-0.8359 0.4827,-1.249z"/>
   <path id="_301688904" class="fil7" d="M35.7218 24.1594c0.2232,-0.6023 0.4317,-1.1678 0.6426,-1.7325 0.2763,-0.7402 0.55,-1.4815 0.8379,-2.2173 0.034,-0.087 0.1494,-0.2023 0.228,-0.2031 1.3858,-0.0124 2.7718,-0.0089 4.1824,-0.0089 0.0056,0.0739 0.0186,0.1683 0.019,0.2628 0.0044,1.0853 0.0087,2.1707 0.009,3.2559 0.0003,0.4702 -0.1189,0.5975 -0.5869,0.6034 -1.701,0.0214 -3.402,0.0365 -5.103,0.0533 -0.058,0.0006 -0.116,-0.0067 -0.229,-0.0136z"/>
   <path id="_301688976" class="fil7" d="M40.0858 11.3358c-0.6487,-0.2435 -1.2595,-0.4677 -1.8638,-0.7086 -0.0524,-0.021 -0.1031,-0.165 -0.0831,-0.2299 0.1149,-0.3741 0.2497,-0.7422 0.3808,-1.1112 0.167,-0.4701 0.3298,-0.9419 0.5079,-1.4078 0.1744,-0.4558 0.3673,-0.9045 0.5491,-1.3575 0.0886,-0.2207 0.1354,-0.4668 0.2624,-0.6616 0.2524,-0.3877 0.7672,-0.6007 1.0973,-0.485 0.6818,0.239 0.83,0.5613 0.8448,1.1572 0.0067,0.2739 -0.135,0.5553 -0.2281,0.8269 -0.1307,0.3807 -0.277,0.756 -0.42,1.1324 -0.2599,0.6847 -0.5252,1.3674 -0.7823,2.0533 -0.0946,0.2526 -0.1718,0.5116 -0.265,0.7918z"/>
   <path id="_301689048" class="fil7" d="M31.6904 20.0482c0.8261,0 1.613,0 2.4499,0 -0.1536,0.4275 -0.3042,0.8335 -0.4457,1.2427 -0.3151,0.9107 -0.6231,1.8238 -0.9433,2.7326 -0.0249,0.0709 -0.115,0.1547 -0.1865,0.1676 -0.6237,0.113 -0.8717,-0.0977 -0.8735,-0.7365 -0.0031,-1.1212 -0.0009,-2.2424 -0.0009,-3.4064z"/>
   <path id="_301689120" class="fil7" d="M35.3454 24.1382c-0.2972,0.5098 -0.5679,0.998 -0.862,1.4718 -0.3292,0.5305 -0.6888,1.0422 -1.0169,1.5735 -0.1476,0.2391 -0.2847,0.3379 -0.5215,0.1157 -0.035,-0.0328 -0.1096,-0.0236 -0.1252,-0.0265 0,-0.4361 -0.0419,-0.8617 0.01,-1.2754 0.0742,-0.5914 0.2166,-1.1743 0.3311,-1.7605 0.0343,-0.176 0.0722,-0.3512 0.1095,-0.5266 0.0492,-0.2313 0.0493,-0.2298 0.2847,-0.1614 0.3318,0.0961 0.6669,0.1818 0.9957,0.2874 0.2458,0.0791 0.4839,0.1828 0.7946,0.302z"/>
   <path id="_301689288" class="fil7" d="M37.9302 18.2527c0.079,-0.2252 0.1386,-0.4401 0.2326,-0.6387 0.0314,-0.0661 0.1505,-0.1271 0.2304,-0.1283 0.9375,-0.0128 1.8752,-0.0223 2.8127,-0.0133 0.3548,0.0033 0.4628,0.2316 0.3885,0.7803 -1.2004,0 -2.4063,0 -3.6642,0z"/>
   <path id="_301689264" class="fil7" d="M31.7075 18.298c-0.0656,-0.5658 0.1037,-0.7642 0.653,-0.7667 0.7805,-0.0036 1.5609,-0.0075 2.3414,-0.0112 0.1045,-0.0004 0.2091,0 0.353,0 -0.086,0.2528 -0.1512,0.4643 -0.2324,0.6695 -0.0194,0.0493 -0.091,0.1104 -0.1391,0.1109 -0.9837,0.0088 -1.9674,0.0096 -2.9511,0.0114 -0.0083,0 -0.0165,-0.009 -0.0248,-0.0139z"/>
   <path id="_301689408" class="fil7" d="M34.1073 21.3568c0.5779,0.2104 1.1703,0.4329 1.7681,0.6396 0.1687,0.0586 0.1768,0.153 0.1267,0.288 -0.0481,0.1295 -0.1002,0.2574 -0.1664,0.4266 -0.34,-0.1324 -0.6842,-0.2651 -1.0275,-0.4005 -0.2323,-0.0916 -0.4562,-0.2288 -0.6968,-0.2698 -0.2849,-0.0486 -0.1623,-0.2159 -0.1438,-0.3453 0.0142,-0.1006 0.0777,-0.1942 0.1397,-0.3386z"/>
   <path id="_301689552" class="fil7" d="M35.4496 23.725c-0.6806,-0.2487 -1.3043,-0.4767 -1.9622,-0.7171 0.0803,-0.1865 0.1497,-0.3682 0.2398,-0.5392 0.0179,-0.0339 0.1244,-0.0522 0.1737,-0.0338 0.5591,0.2068 1.1157,0.4208 1.6706,0.6386 0.0425,0.0168 0.1034,0.0913 0.0943,0.1178 -0.061,0.177 -0.1388,0.3483 -0.2162,0.5337z"/>
  </g>
 </g>
</svg>
