<?xml version="1.0" encoding="utf-8"?>
<!-- Generator: Adobe Illustrator 23.0.1, SVG Export Plug-In . SVG Version: 6.00 Build 0)  -->
<svg version="1.1" id="Ebene_1" xmlns="http://www.w3.org/2000/svg" xmlns:xlink="http://www.w3.org/1999/xlink" x="0px" y="0px"
	 viewBox="0 0 913 341.3" style="enable-background:new 0 0 913 341.3;" xml:space="preserve">
<style type="text/css">
	.st0{fill:#84CDEE;}
	.st1{fill:#0C71B4;}
	.st2{fill:none;}
</style>
<g>
	<path class="st0" d="M372.7,65h29.6l51.7,70.2V65h29.6v118.8H454l-51.7-70.2v70.2h-29.6V65z"/>
	<path class="st0" d="M592.5,157.3v26.5h-86.7V65h29.4v92.4H592.5z"/>
	<path class="st0" d="M608.6,65h29.6v118.8h-29.6V65z"/>
	<path class="st0" d="M661.2,65h29.6l51.7,70.2V65h29.6v118.8h-29.6l-51.7-70.2v70.2h-29.6V65z"/>
	<path class="st0" d="M824.4,91.4v18.5h58.1v26.5h-58.1v20.9h64v26.5h-93.6V65h93.6v26.5H824.4z"/>
	<path class="st1" d="M378.3,238.3c5.6-3.4,8.4-8.2,8.4-14.4c0-9.9-8.4-17.1-20-17.1h-32.8v66.7h34c12.7,0,21.6-7.6,21.6-18.5
		C389.4,248.2,385.4,242.2,378.3,238.3z M347.2,233.5v-14.9h16.6c5.4,0,9.2,3.1,9.2,7.5c0,4.3-3.9,7.4-9.2,7.4H347.2z M375.7,253.3
		c0,5-4.2,8.5-10.2,8.5h-18.3v-17.1h18.3C371.5,244.7,375.7,248.2,375.7,253.3z"/>
	<polygon class="st1" points="398.9,273.6 449.5,273.6 449.5,261.2 412.3,261.2 412.3,245.8 446,245.8 446,233.4 412.3,233.4 
		412.3,219.2 449.5,219.2 449.5,206.8 398.9,206.8 	"/>
	<path class="st1" d="M513.6,229.3c0-13-10.6-22.4-25.2-22.4h-29.1v66.7h13.4v-21.9h11.4l15.4,21.9h15.4l-16.6-23.5
		C507.8,246.7,513.6,238.8,513.6,229.3z M500,229.3c0,6-5.1,10-12.9,10h-14.4v-19.9h14.4C495,219.3,500,223.2,500,229.3z"/>
	<polygon class="st1" points="617.8,273.6 668.4,273.6 668.4,261.2 631.2,261.2 631.2,245.8 664.9,245.8 664.9,233.4 631.2,233.4 
		631.2,219.2 668.4,219.2 668.4,206.8 617.8,206.8 	"/>
	<polygon class="st1" points="766.3,273.6 816.9,273.6 816.9,261.2 779.7,261.2 779.7,245.8 813.4,245.8 813.4,233.4 779.7,233.4 
		779.7,219.2 816.9,219.2 816.9,206.8 766.3,206.8 	"/>
	<rect x="679.7" y="206.8" class="st1" width="13.3" height="66.7"/>
	<path class="st1" d="M731.9,233.9c-10.3-2.4-14.6-4.1-14.6-8.8c0-4.4,4.5-7.8,10.2-7.8c6.2,0,12.6,2.7,18.2,7.5l0.6,0.5l7.4-10
		l-0.5-0.5c-7.3-6.3-15.5-9.3-25.2-9.3c-14,0-24.2,8.6-24.2,20.5c0,13.4,11.1,17.1,23.5,20c10.7,2.5,14.5,4.3,14.5,8.9
		c0,3.9-3.5,7.9-11.5,7.9c-7.7,0-14.5-2.8-20.9-8.6l-0.6-0.5l-7.8,9.6l0.5,0.5c7.5,7,17.4,10.7,28.4,10.7c15.3,0,25.3-8.1,25.3-20.7
		C755.2,241.6,745.9,237,731.9,233.9z"/>
	<polygon class="st1" points="875.1,251.1 842,207.2 841.8,206.8 828.7,206.8 828.7,273.6 842.2,273.6 842.2,229.3 875.2,273.3 
		875.4,273.6 888.4,273.6 888.4,206.8 875.1,206.8 	"/>
	<polygon class="st1" points="592.2,207.2 577.8,250.7 571.4,229.8 579.1,207.2 564.7,207.2 550.3,250.7 537.2,207.2 522,207.2 
		543.2,274 556.2,274 563.6,252.5 570.7,274 583.8,274 606.6,207.2 	"/>
	<path class="st2" d="M290.8,89.7c-18.2,0-33.6,15.9-33.6,34.6c0,18.9,15.4,34.8,33.6,34.8c18.2,0,33.6-15.9,33.6-34.8
		C324.4,105.6,309,89.7,290.8,89.7z"/>
	<path class="st0" d="M354.8,121.2c0-0.3-0.1-0.7-0.1-1c0-0.7-0.1-1.3-0.2-2c0-0.4-0.1-0.8-0.2-1.2c-0.1-0.6-0.1-1.2-0.2-1.7
		c-0.1-0.4-0.2-0.9-0.2-1.3c-0.1-0.5-0.2-1.1-0.3-1.6c-0.1-0.4-0.2-0.9-0.3-1.3c-0.1-0.5-0.2-1-0.4-1.5c-0.1-0.5-0.3-0.9-0.4-1.4
		c-0.1-0.5-0.3-1-0.4-1.5c-0.1-0.5-0.3-0.9-0.5-1.4c-0.2-0.5-0.3-0.9-0.5-1.4c-0.2-0.5-0.4-0.9-0.6-1.4c-0.2-0.4-0.4-0.9-0.6-1.3
		c-0.2-0.5-0.4-0.9-0.6-1.4c-0.2-0.4-0.4-0.8-0.6-1.2c-0.2-0.5-0.5-0.9-0.7-1.4c-0.2-0.4-0.4-0.8-0.6-1.2c-0.3-0.5-0.5-1-0.8-1.4
		c-0.2-0.4-0.4-0.7-0.7-1.1c-0.3-0.5-0.6-1-0.9-1.4c-0.2-0.3-0.4-0.7-0.7-1c-0.3-0.5-0.7-1-1-1.5c-0.2-0.3-0.4-0.6-0.7-0.9
		c-0.4-0.5-0.8-1-1.1-1.5c-0.2-0.3-0.4-0.5-0.7-0.8c-0.4-0.5-0.8-1-1.3-1.5c-0.2-0.2-0.4-0.5-0.6-0.7c-0.5-0.5-0.9-1-1.4-1.5
		c-0.2-0.2-0.4-0.4-0.6-0.6c-0.5-0.5-1-1-1.6-1.5c-0.2-0.1-0.3-0.3-0.5-0.4c-0.6-0.5-1.2-1.1-1.8-1.6c-0.1-0.1-0.2-0.2-0.3-0.3
		c-0.7-0.6-1.3-1.1-2-1.6c0,0-0.1,0-0.1-0.1c-11-8.6-24.9-13.8-39.9-13.8c-3.9,0-7.8,0.4-11.5,1.1l0,0v0c-1.9,0.3-3.8,0.8-5.6,1.3
		c0,0,0,0,0,0c-11.1,3.1-21.1,9.1-29,17.1c0,0,0,0,0,0c-1.3,1.3-2.6,2.7-3.7,4.1c0,0,0,0,0,0c0,0,0,0,0,0c-2.7,3.3-5.1,6.8-7,10.5
		l0,0c0,0,0,0,0,0c-2.2,4.1-3.9,8.4-5,12.9c-0.1,0.2-0.1,0.5-0.2,0.7c-0.2,0.8-0.4,1.7-0.6,2.5c-0.1,0.3-0.1,0.6-0.2,1
		c-0.1,0.8-0.3,1.6-0.4,2.3c-0.1,0.4-0.1,0.7-0.1,1.1c-0.1,0.8-0.2,1.6-0.2,2.4c0,0.3-0.1,0.7-0.1,1c-0.1,1.1-0.1,2.2-0.1,3.4
		c0,0,0,0,0,0c0,33.4,29.2,61.6,63.8,61.6l0,0l0,0c2.2,0,4.3-0.1,6.4-0.3c3.2-0.3,6.3-0.9,9.4-1.7c2-0.5,4-1.1,6-1.8
		c1-0.4,1.9-0.7,2.9-1.1c13.4-5.5,24.5-15.4,31.5-27.6c0.5-0.9,1-1.8,1.4-2.7c0.9-1.8,1.7-3.6,2.5-5.5c2.6-6.6,3.9-13.6,3.9-20.9
		C354.8,123.3,354.8,122.3,354.8,121.2z M294.2,158.9c-1.1,0.1-2.2,0.2-3.4,0.2c-3.4,0-6.7-0.6-9.8-1.6c-2.1-0.7-4.1-1.6-6-2.7
		c-1.5-0.8-2.9-1.8-4.2-2.9c-1.2-1-2.4-2-3.5-3.1c-6.1-6.3-10-15-10-24.5c0-4.7,1-9.2,2.7-13.3c1.7-4.1,4.2-7.9,7.3-11
		c1.5-1.6,3.2-3,5-4.3c0.9-0.6,1.8-1.2,2.8-1.8c1.9-1.1,3.9-2,6-2.7c3.1-1,6.4-1.6,9.8-1.6c1.1,0,2.3,0.1,3.4,0.2
		c1.1,0.1,2.2,0.3,3.3,0.5c9.7,2.1,18.1,8.8,22.8,17.6c2.6,4.9,4.1,10.5,4.1,16.3c0,5.3-1.3,10.4-3.4,15
		c-4.6,9.6-13.2,16.8-23.5,19.1C296.4,158.6,295.3,158.8,294.2,158.9z"/>
	<path class="st1" d="M176.5,111.6c-32.6,0-59.2,26.6-59.2,59.2c0,32.6,26.6,59.2,59.2,59.2c1.7,0,3.4-0.1,5.2-0.2l0.8-0.1l-0.6-6.9
		l-0.8,0.1c-6,0.5-11.7,0-17.3-1.4l1.5-5.8l-0.8-0.2c-3.9-1-7.6-2.6-11.2-4.6l-0.7-0.4l-3,5.2c-7.4-4.4-13.6-10.6-18-18l5.2-3
		l-0.4-0.7c-4.1-7-6.2-15-6.2-23.1c0-6.8,1.5-13.4,4.3-19.6l0.3-0.7l-5.4-2.5c4.5-9.2,11.4-16.8,20.2-22l3,5.2l0.7-0.4
		c7-4.1,15-6.2,23.1-6.2c1.3,0,2.6,0.1,4,0.2l0.8,0.1l0.5-5.9c5.8,0.6,11.4,2.1,16.7,4.6l0.7,0.3l2.9-6.3l-0.7-0.3
		C193.6,113.5,185.2,111.6,176.5,111.6z"/>
	<path class="st1" d="M255,260.6c-21,17.6-47.7,27.4-75.2,27.4c-64.5,0-117-52.5-117-117c0-24.5,7.5-47.9,21.6-67.8
		c13.9-19.4,33-34,55.3-42.2l1.1-0.4l-4.6-12.6l-1.1,0.4c-24.9,9.1-46.2,25.3-61.7,47c-15.8,22.2-24.1,48.3-24.1,75.6
		c0,71.9,58.5,130.4,130.4,130.4c30.1,0,59.4-10.5,82.6-29.5c-3-3.3-5.5-7.2-7.2-11.5L255,260.6z"/>
	<path class="st1" d="M178.7,65.9c-57.8,0-104.8,47-104.8,104.8c0,31,13.6,60.3,37.4,80.3l0.8,0.7l8.1-9.7l-0.8-0.7
		c-20.9-17.6-32.9-43.3-32.9-70.6c0-50.8,41.3-92.2,92.2-92.2c16.8,0,33.2,4.6,47.4,13.2c2-3.7,4.4-7.2,7.1-10.5
		C216.8,71.3,198,65.9,178.7,65.9z"/>
	<path class="st1" d="M130.7,103.4c-21.9,15.4-34.9,40.5-34.9,67.1c0,45.2,36.8,82,82,82c19.2,0,38-6.8,52.7-19.2l1.4-1.2l-6.5-7.8
		l-1.4,1.2c-12.9,10.8-29.3,16.8-46.2,16.8c-39.6,0-71.8-32.2-71.8-71.8c0-23.4,11.4-45.4,30.6-58.8l1.5-1l-5.8-8.3L130.7,103.4z"/>
	<path class="st1" d="M169.3,144.8c14.1-5.8,30.6,0.2,37.6,13.7l0.9,1.8l7.9-4.1l-0.9-1.8c-9.1-17.6-30.7-25.4-49-17.8
		c-9.5,3.9-16.9,11.4-20.9,20.9c-3.9,9.5-4,20,0,29.5c2.6,6.3,6.8,11.7,12.2,15.8l1.6,1.2l5.5-7.1l-1.6-1.2
		c-4.1-3.2-7.3-7.4-9.3-12.2C147,168.4,154.2,151,169.3,144.8z"/>
	<path class="st1" d="M181.3,315.5c-29.4,0-57.6-8.8-81.3-24.9c-0.8-0.6-1.7-1.2-2.5-1.8c-1.1-0.7-2.1-1.5-3.1-2.3
		c-1.4-1-2.7-2.1-4-3.2c-0.4-0.4-0.9-0.7-1.3-1.1c-1.6-1.3-3.2-2.7-4.7-4.1c-0.1-0.1-0.2-0.2-0.3-0.3
		c-29.1-26.5-47.4-64.7-47.4-107.1c0-79.9,65-145,145-145c29.2,0,57.2,8.7,80.9,24.7c0.5,0.3,0.9,0.6,1.4,0.9c1.4,1,2.8,2,4.3,3.1
		c0.8,0.6,1.6,1.3,2.4,1.9c4.9-1.4,9.9-2.3,15.1-2.7c-27.7-24.7-64.1-39.8-104-39.8c-10.7,0-21.3,1.1-31.6,3.3c0,0-0.1,0-0.1,0
		c-2.3,0.5-4.6,1-6.8,1.6c-0.4,0.1-0.7,0.2-1.1,0.3c-2.1,0.5-4.2,1.1-6.2,1.8c-0.5,0.2-1,0.3-1.5,0.5c-2,0.6-4,1.3-5.9,2
		c-0.5,0.2-1,0.4-1.5,0.6c-2,0.7-3.9,1.5-5.9,2.3c-0.4,0.2-0.8,0.4-1.2,0.5c-2,0.9-4,1.8-6,2.7c-0.1,0.1-0.3,0.1-0.4,0.2
		c-8.8,4.3-17.3,9.4-25.2,15.3c-0.1,0.1-0.3,0.2-0.4,0.3c-1.6,1.2-3.1,2.4-4.6,3.6c-0.6,0.5-1.2,1-1.8,1.5c-1.3,1.1-2.5,2.2-3.8,3.3
		c-0.8,0.7-1.7,1.5-2.5,2.3c-1,1-2,1.9-3.1,2.9c-1.1,1-2.1,2.1-3.1,3.2c-0.8,0.8-1.5,1.6-2.3,2.4c-1.4,1.5-2.7,3-4.1,4.6
		c-0.3,0.4-0.6,0.7-0.9,1l0,0c-23,27.3-36.8,62.4-36.8,100.8c0,86.4,70.3,156.7,156.7,156.7c12.4,0,24.6-1.5,36.5-4.3
		c0.2-0.1,0.5-0.1,0.7-0.2c2.6-0.6,5.1-1.3,7.7-2.1c0.6-0.2,1.1-0.4,1.7-0.5c2.2-0.7,4.4-1.4,6.6-2.2c0.5-0.2,1.1-0.4,1.6-0.6
		c2.2-0.8,4.4-1.7,6.6-2.6c0.4-0.2,0.8-0.4,1.2-0.5c2.3-1,4.6-2.1,6.9-3.2c0.3-0.1,0.5-0.3,0.8-0.4c2.4-1.2,4.8-2.5,7.2-3.8
		c0.1-0.1,0.2-0.1,0.3-0.2c2.5-1.4,4.9-2.9,7.3-4.4c0,0,0.1,0,0.1-0.1c2.4-1.6,4.8-3.2,7.1-4.9c0,0,0.1-0.1,0.1-0.1
		c2.2-1.6,4.3-3.3,6.5-5c0.2-0.2,0.4-0.3,0.6-0.5c1.8-1.5,3.6-3,5.3-4.6c0.5-0.5,1-0.9,1.5-1.4c0.6-0.6,1.2-1.2,1.8-1.7
		c-5.2-0.2-10-1.3-14.3-3.2C249.7,302.4,217,315.5,181.3,315.5z"/>
	<g>
		<rect x="262.6" y="206.8" class="st1" width="13.4" height="13.4"/>
		<g>
			<rect x="308.3" y="206.8" class="st1" width="13.4" height="13.4"/>
			<path class="st1" d="M308.3,225.3v19.3c0,8.5-4.4,15-11.2,17.1c-1.6,0.5-3.3,0.7-5,0.7c-9.5,0-16.1-7.3-16.1-17.8v-19.3h-13.4
				V245c0,5.5,1.2,10.4,3.3,14.6c1.7,3.4,4.1,6.3,7,8.6c3.1,2.5,6.7,4.3,10.8,5.4c2.6,0.7,5.4,1.1,8.4,1.1c1.8,0,3.6-0.2,5.3-0.4
				c5.4-0.8,10.2-2.9,14-6c0.7-0.6,1.4-1.2,2.1-1.9c5.2-5.2,8.2-12.7,8.2-21.4v-19.7H308.3z"/>
		</g>
	</g>
</g>
</svg>
