<?xml version="1.0" encoding="utf-8"?>
<!-- Generator: Adobe Illustrator 23.0.1, SVG Export Plug-In . SVG Version: 6.00 Build 0)  -->
<svg version="1.1" id="Ebene_1" xmlns="http://www.w3.org/2000/svg" xmlns:xlink="http://www.w3.org/1999/xlink" x="0px" y="0px"
	 viewBox="0 0 141.7 99.2" width="142" height="100" style="enable-background:new 0 0 141.7 99.2;" xml:space="preserve">
<g id="Layer_x0020_1">
	<path style="fill:#FEFEFE;stroke:#000000;stroke-width:7.620000e-02;" d="M14.9,9.6h112c2.2,0,4,1.8,4,4v72c0,2.2-1.8,4-4,4h-112c-2.2,0-4-1.8-4-4v-72C10.9,11.4,12.7,9.6,14.9,9.6z"/>
	<path style="fill:#69696B;" d="M19.6,48.1c0-2.9,0-5.9,0-8.8c0-0.8,0.2-1.3,0.8-1.8c3.3-2.5,6.5-5,9.8-7.5c0.6-0.4,1-0.5,1.6-0.1
		c3.5,2.2,7,4.3,10.5,6.4c0.6,0.4,0.9,0.7,0.9,1.5c-0.1,1.7,0,3.3,0,5c0,0.6-0.1,0.9-0.8,0.9c-0.7,0-0.8-0.3-0.8-0.9
		c0-1.4,0-2.8,0-4.2c0-0.6-0.2-1-0.7-1.3c-3-1.8-6-3.6-9-5.5c-0.5-0.3-0.9-0.3-1.4,0.1c-2.8,2.2-5.7,4.4-8.6,6.6
		c-0.6,0.4-0.6,0.9-0.6,1.5c0,5.7,0,11.4,0,17.2c0,0.5,0.2,1.1-0.7,1.1c-0.8,0-0.9-0.3-0.9-1C19.6,54.1,19.6,51.1,19.6,48.1z"/>
	<g id="_254182616">
		<path id="_254186192" style="fill:#00934C;" d="M25.4,57.9v-5.2H29c0.6,0,1.1-0.1,1.6-0.3c0.5-0.2,0.9-0.5,1.2-0.8c0.3-0.3,0.6-0.7,0.7-1.2
			c0.2-0.4,0.3-0.9,0.3-1.4c0-0.5-0.1-1-0.2-1.4c-0.2-0.4-0.4-0.8-0.7-1.2c-0.3-0.3-0.7-0.6-1.2-0.8c-0.5-0.2-1-0.3-1.6-0.3h-4.7
			v12.4C24.3,57.9,25.4,57.9,25.4,57.9z M28.9,51.8h-3.5v-5.3h3.5c0.6,0,1,0.1,1.4,0.3c0.4,0.2,0.7,0.5,1,0.9
			c0.2,0.4,0.3,0.9,0.3,1.4c0,0.5-0.1,1-0.3,1.4c-0.2,0.4-0.5,0.7-1,0.9C29.9,51.7,29.4,51.8,28.9,51.8L28.9,51.8z M43.7,57.9
			l-5.1-12.4h-1.3l-5.1,12.4h1.2l1.2-3.1h6.6l1.2,3.1C42.5,57.9,43.7,57.9,43.7,57.9z M40.9,53.9H35l2.9-7.3
			C38,46.6,40.9,53.9,40.9,53.9z M49.2,57.9v-5.3l4.9-7.1h-1.3l-4.2,6.1l-4.2-6.1h-1.3l4.9,7.1v5.3C48.1,57.9,49.2,57.9,49.2,57.9z"
		/>
		<path id="_254185064" style="fill:#7F7679;" d="M62.4,57.9v-6.5c0-0.5-0.1-0.9-0.2-1.2c-0.2-0.3-0.4-0.6-0.6-0.9c-0.3-0.2-0.6-0.4-1-0.5
			c-0.4-0.1-0.8-0.2-1.2-0.2c-0.5,0-0.9,0.1-1.3,0.2c-0.4,0.1-0.7,0.3-1.1,0.5c-0.3,0.2-0.6,0.5-0.9,0.9l0.4,0.4
			c0.3-0.3,0.6-0.6,0.9-0.8c0.3-0.2,0.6-0.4,0.9-0.5c0.3-0.1,0.7-0.1,1.1-0.1c0.3,0,0.7,0,1,0.1c0.3,0.1,0.6,0.2,0.8,0.4
			c0.2,0.2,0.4,0.4,0.5,0.7c0.1,0.3,0.2,0.6,0.2,1v2c-0.4-0.5-0.9-0.8-1.4-1c-0.5-0.2-1.1-0.3-1.7-0.3c-0.4,0-0.8,0.1-1.2,0.2
			c-0.4,0.1-0.7,0.3-1,0.6c-0.3,0.3-0.5,0.6-0.7,0.9c-0.2,0.4-0.3,0.8-0.3,1.3c0,0.5,0.1,0.9,0.3,1.3c0.2,0.4,0.4,0.7,0.7,0.9
			c0.3,0.3,0.6,0.4,1,0.6c0.4,0.1,0.8,0.2,1.2,0.2c0.6,0,1.2-0.1,1.7-0.3c0.5-0.2,1-0.5,1.4-1v1.1C61.8,57.9,62.4,57.9,62.4,57.9z
			 M58.8,57.7c-0.5,0-1-0.1-1.4-0.3c-0.4-0.2-0.7-0.5-0.9-0.9c-0.2-0.4-0.3-0.8-0.3-1.3c0-0.5,0.1-0.9,0.3-1.3
			c0.2-0.4,0.5-0.7,0.9-0.9c0.4-0.2,0.9-0.3,1.4-0.3c0.4,0,0.8,0.1,1.1,0.2c0.4,0.1,0.7,0.3,1,0.5c0.3,0.2,0.6,0.5,0.8,0.8v2.2
			c-0.2,0.3-0.5,0.6-0.8,0.8c-0.3,0.2-0.6,0.4-1,0.5C59.6,57.6,59.2,57.7,58.8,57.7z M67.2,58.2c0.2,0,0.4,0,0.6-0.1
			c0.2,0,0.3-0.1,0.4-0.2c0.1-0.1,0.3-0.2,0.4-0.3l-0.3-0.4c-0.1,0.1-0.3,0.2-0.4,0.3c-0.2,0.1-0.4,0.1-0.6,0.1
			c-0.2,0-0.4-0.1-0.5-0.2c-0.1-0.1-0.2-0.3-0.3-0.5c-0.1-0.2-0.1-0.4-0.1-0.7v-6.9h1.8v-0.5h-1.8v-2.5h-0.6v2.5h-1.5v0.5h1.5v6.9
			c0,0.4,0.1,0.7,0.2,1c0.1,0.3,0.3,0.5,0.5,0.6C66.6,58.1,66.8,58.2,67.2,58.2z M81.1,57.9V45.5h-2.7v4.9h-5.9v-4.9H70v12.4h2.6
			v-5.2h5.9v5.2C78.5,57.9,81.1,57.9,81.1,57.9z M89.5,58.2c0.9,0,1.8-0.2,2.6-0.5c0.8-0.3,1.5-0.8,2.1-1.3c0.6-0.6,1-1.3,1.4-2
			c0.3-0.8,0.5-1.6,0.5-2.6c0-0.9-0.2-1.8-0.5-2.6c-0.3-0.8-0.8-1.5-1.4-2c-0.6-0.6-1.3-1-2.1-1.3c-0.8-0.3-1.7-0.5-2.6-0.5
			c-0.9,0-1.8,0.2-2.6,0.5c-0.8,0.3-1.5,0.8-2.1,1.3c-0.6,0.6-1,1.3-1.4,2c-0.3,0.8-0.5,1.6-0.5,2.6c0,0.9,0.2,1.8,0.5,2.6
			c0.3,0.8,0.8,1.5,1.4,2c0.6,0.6,1.3,1,2.1,1.3C87.7,58,88.5,58.2,89.5,58.2z M89.5,55.8c-0.6,0-1.1-0.1-1.6-0.3
			c-0.5-0.2-0.9-0.5-1.2-0.9s-0.6-0.8-0.8-1.3c-0.2-0.5-0.3-1-0.3-1.6c0-0.6,0.1-1.1,0.3-1.6c0.2-0.5,0.4-0.9,0.8-1.3
			c0.3-0.4,0.7-0.7,1.2-0.9c0.5-0.2,1-0.3,1.6-0.3c0.6,0,1.1,0.1,1.6,0.3c0.5,0.2,0.9,0.5,1.2,0.9c0.3,0.4,0.6,0.8,0.8,1.3
			c0.2,0.5,0.3,1,0.3,1.6c0,0.6-0.1,1.1-0.3,1.6c-0.2,0.5-0.4,0.9-0.8,1.3c-0.3,0.4-0.7,0.7-1.2,0.9C90.6,55.7,90,55.8,89.5,55.8z
			 M111.3,57.9V45.5h-3.7l-3,7.5l-3-7.5h-3.7v12.4h2.6v-8.7l3.5,8.7h1.2l3.5-8.7v8.7H111.3L111.3,57.9z M122.6,57.9v-2.3h-6.2v-2.8
			h6v-2.3h-6v-2.6h6.2v-2.3h-8.8v12.4L122.6,57.9L122.6,57.9z"/>
	</g>
</g>
</svg>
