<?xml version="1.0" standalone="no"?>
<!DOCTYPE svg PUBLIC "-//W3C//DTD SVG 20010904//EN"
 "http://www.w3.org/TR/2001/REC-SVG-20010904/DTD/svg10.dtd">
<svg version="1.0" xmlns="http://www.w3.org/2000/svg"
 width="263.000000pt" height="146.000000pt" viewBox="0 0 263.000000 146.000000"
 preserveAspectRatio="xMidYMid meet">
<metadata>
Created by potrace 1.15, written by Peter Selinger 2001-2017
</metadata>
<g transform="translate(0.000000,146.000000) scale(0.100000,-0.100000)"
fill="#000000" stroke="none">
<path d="M236 1443 c-94 -28 -180 -108 -213 -196 -16 -45 -16 -989 0 -1034 19
-52 72 -118 119 -151 94 -64 47 -62 1172 -62 1130 0 1084 -3 1178 65 58 42
101 104 122 175 24 80 24 900 0 980 -21 71 -64 133 -122 175 -94 68 -47 65
-1183 64 -886 0 -1031 -2 -1073 -16z m2170 -52 c60 -27 119 -84 148 -144 l26
-51 0 -466 0 -466 -26 -51 c-29 -60 -88 -117 -148 -144 -39 -18 -85 -19 -1092
-19 l-1050 0 -51 26 c-60 29 -117 88 -144 148 -17 38 -19 73 -19 507 l0 465
26 51 c29 60 88 117 148 144 39 18 85 19 1091 19 1006 0 1052 -1 1091 -19z"/>
<path d="M315 1261 c-72 -33 -135 -120 -135 -185 l0 -25 453 -3 c448 -3 452
-3 503 -26 61 -28 113 -79 147 -147 l26 -50 1 56 c0 31 3 84 7 119 l6 62 198
-3 c108 -2 200 -7 204 -11 4 -3 2 -64 -5 -133 -6 -70 -10 -129 -8 -131 2 -1
55 60 118 137 l114 139 238 0 c131 0 238 -2 238 -5 0 -2 -58 -64 -130 -137
-71 -73 -130 -138 -130 -144 0 -12 129 -182 225 -296 l57 -68 -254 0 -253 1
-110 160 c-60 88 -112 162 -116 165 -4 2 -10 -70 -14 -161 l-7 -165 -205 0
-204 0 6 122 6 123 -31 -55 c-43 -76 -84 -116 -160 -153 l-65 -32 -427 -3
-428 -3 0 -27 c1 -39 32 -102 70 -139 69 -67 14 -64 1075 -61 915 3 962 4 995
22 49 26 79 55 103 101 21 39 22 50 22 430 0 344 -2 394 -17 420 -24 45 -68
85 -113 106 -38 18 -90 19 -1000 19 -914 0 -962 -1 -1000 -19z"/>
<path d="M590 808 c0 -13 -3 -53 -7 -90 l-6 -68 75 0 c113 0 178 29 192 86 16
62 -42 94 -169 94 -81 0 -85 -1 -85 -22z"/>
</g>
</svg>
