<?xml version="1.0" encoding="UTF-8"?>
<!DOCTYPE svg PUBLIC "-//W3C//DTD SVG 1.1//EN" "http://www.w3.org/Graphics/SVG/1.1/DTD/svg11.dtd">
<!-- Creator: CorelDRAW -->
<svg xmlns="http://www.w3.org/2000/svg" xml:space="preserve" width="50mm" height="35mm" style="shape-rendering:geometricPrecision; text-rendering:geometricPrecision; image-rendering:optimizeQuality; fill-rule:evenodd; clip-rule:evenodd"
viewBox="0 0 50 35"
 xmlns:xlink="http://www.w3.org/1999/xlink">
 <defs>
  <style type="text/css">
   <![CDATA[
    .str0 {stroke:black;stroke-width:0.0762}
    .fil0 {fill:#FEFEFE;fill-rule:nonzero}
    .fil1 {fill:#826794;fill-rule:nonzero}
   ]]>
  </style>
 </defs>
 <g id="Layer_x0020_1">
  <metadata id="CorelCorpID_0Corel-Layer"/>
  <path class="fil0 str0" d="M5.2445 3.3889l39.5111 0c0.7793,0 1.4111,0.6318 1.4111,1.4111l0 25.4c0,0.7793 -0.6318,1.4111 -1.4111,1.4111l-39.5111 0c-0.7793,0 -1.4112,-0.6318 -1.4112,-1.4111l0 -25.4c0,-0.7793 0.6319,-1.4111 1.4112,-1.4111z"/>
  <path class="fil1" d="M19.5872 14.9814l0 1.8632 2.3301 -2.3299 -2.3301 -2.3299 0 1.8636 -10.753 0c-1.031,0 -1.9113,0.3633 -2.6376,1.0919 -0.7262,0.7285 -1.0897,1.6075 -1.0897,2.6354 0,1.0295 0.3635,1.9088 1.0919,2.6373 0.7284,0.7284 1.6078,1.0919 2.6354,1.0919l1.8116 0 0 -0.9331 -1.8097 0c-0.7729,0 -1.4315,-0.2728 -1.9773,-0.8188 -0.5461,-0.5459 -0.8189,-1.2037 -0.8189,-1.9773 0,-0.7717 0.2728,-1.4296 0.8189,-1.9756 0.5458,-0.5459 1.2036,-0.8187 1.9773,-0.8187l10.7511 0zm6.5335 2.4908l0 -6.5365 1.1403 0 0 2.3543c0.3519,-0.4397 0.7676,-0.6605 1.2496,-0.6605 0.5253,0 0.9589,0.2102 1.304,0.6271 0.3434,0.417 0.5154,1.0165 0.5154,1.7988 0,0.808 -0.1761,1.4322 -0.5267,1.869 -0.3505,0.4368 -0.7759,0.6542 -1.2757,0.6542 -0.247,0 -0.4893,-0.0668 -0.729,-0.2022 -0.2396,-0.1357 -0.4462,-0.335 -0.6193,-0.5998l0 0.6956 -1.0586 0zm1.1319 -2.47c0,0.49 0.0708,0.8523 0.2108,1.0881 0.1981,0.3332 0.4598,0.4991 0.7882,0.4991 0.2508,0 0.4656,-0.1187 0.6428,-0.3545 0.1775,-0.2358 0.266,-0.6087 0.266,-1.1171 0,-0.5402 -0.0899,-0.9313 -0.2686,-1.1702 -0.1773,-0.239 -0.4058,-0.3592 -0.6859,-0.3592 -0.273,0 -0.5001,0.1171 -0.6815,0.35 -0.1816,0.2343 -0.2718,0.5874 -0.2718,1.0638zm4.8465 -0.8203l-1.0349 -0.2056c0.1164,-0.458 0.3159,-0.7959 0.5998,-1.0164 0.2856,-0.2191 0.7069,-0.3304 1.2665,-0.3304 0.5101,0 0.8883,0.067 1.1374,0.1995 0.2481,0.1323 0.4242,0.2997 0.5253,0.5036 0.1013,0.2041 0.1526,0.5768 0.1526,1.1216l-0.0126 1.4627c0,0.4155 0.0179,0.7228 0.0554,0.9207 0.036,0.1963 0.1052,0.4094 0.2051,0.6346l-1.1294 0c-0.0291,-0.0837 -0.0665,-0.2071 -0.1093,-0.3698 -0.0182,-0.0747 -0.0317,-0.1234 -0.0402,-0.1478 -0.1954,0.2087 -0.4031,0.3637 -0.6249,0.4689 -0.2218,0.1036 -0.4585,0.1551 -0.7108,0.1551 -0.4433,0 -0.7939,-0.1323 -1.0488,-0.3957 -0.2564,-0.2648 -0.3839,-0.5995 -0.3839,-1.0044 0,-0.2662 0.0583,-0.5052 0.1747,-0.7153 0.1163,-0.2099 0.2798,-0.3698 0.489,-0.4808 0.2092,-0.111 0.5127,-0.2085 0.9076,-0.2921 0.532,-0.1096 0.9018,-0.2131 1.1071,-0.3074l0 -0.1248c0,-0.2421 -0.0541,-0.4126 -0.1622,-0.5161 -0.1079,-0.1018 -0.3118,-0.1536 -0.6124,-0.1536 -0.2036,0 -0.3615,0.044 -0.4752,0.1323 -0.1137,0.0868 -0.2051,0.2404 -0.2759,0.4612zm1.5257 1.0167c-0.1455,0.0532 -0.377,0.1171 -0.6943,0.1915 -0.3158,0.0748 -0.5221,0.1478 -0.6205,0.2177 -0.1485,0.1173 -0.2233,0.2634 -0.2233,0.4414 0,0.1765 0.0595,0.3272 0.1788,0.4551 0.1192,0.1277 0.2703,0.1918 0.4544,0.1918 0.2065,0 0.4017,-0.0747 0.5889,-0.2223 0.1385,-0.1127 0.2285,-0.251 0.2715,-0.4154 0.0305,-0.1067 0.0445,-0.3106 0.0445,-0.6102l0 -0.2496zm6.167 2.2736l-1.1403 0 0 -2.4168c0,-0.5112 -0.0249,-0.8416 -0.0737,-0.9922 -0.0484,-0.1493 -0.1287,-0.2663 -0.2383,-0.35 -0.1093,-0.0822 -0.2408,-0.1248 -0.3946,-0.1248 -0.1981,0 -0.3756,0.0593 -0.5321,0.178 -0.1567,0.1202 -0.2648,0.2769 -0.3229,0.4733 -0.058,0.1964 -0.0875,0.5584 -0.0875,1.0881l0 2.1444 -1.1403 0 0 -4.7346 1.0588 0 0 0.6956c0.3768,-0.5357 0.8508,-0.8037 1.4215,-0.8037 0.2508,0 0.4823,0.0503 0.69,0.1492 0.2078,0.1004 0.3659,0.2269 0.4723,0.3819 0.1069,0.1553 0.1817,0.3304 0.2233,0.5267 0.043,0.1962 0.0638,0.4762 0.0638,0.8416l0 2.9433zm1.1151 0l0 -6.5365 1.1418 0 0 3.4685 1.3342 -1.6666 1.4051 0 -1.4731 1.729 1.5783 3.0056 -1.229 0 -1.0849 -2.1261 -0.5306 0.6102 0 1.5159 -1.1418 0zm-28.2787 5.3035l0 -0.4754c-0.1052,0.1693 -0.2426,0.303 -0.4126,0.401 -0.1708,0.0969 -0.3507,0.1458 -0.54,0.1458 -0.1928,0 -0.3652,-0.0469 -0.5186,-0.1398 -0.1533,-0.0938 -0.264,-0.2254 -0.333,-0.3947 -0.0687,-0.1695 -0.1028,-0.4041 -0.1028,-0.703l0 -2.0078 0.7597 0 0 1.4578c0,0.447 0.014,0.7205 0.0425,0.8213 0.0278,0.1002 0.0786,0.1797 0.1522,0.2387 0.074,0.0593 0.168,0.0878 0.2817,0.0878 0.1301,0 0.2462,-0.0387 0.349,-0.1173 0.1023,-0.0795 0.1724,-0.1765 0.2104,-0.2928 0.0377,-0.1173 0.0571,-0.403 0.0571,-0.8569l0 -1.3386 0.7596 0 0 3.1739 -0.7052 0zm-1.5089 -3.7362l0 -0.7202 0.6515 0 0 0.7202 -0.6515 0zm1.1618 0l0 -0.7202 0.6544 0 0 0.7202 -0.6544 0zm1.8073 3.7362l0 -4.3819 0.7596 0 0 1.5783c0.2344,-0.2948 0.5113,-0.4428 0.8324,-0.4428 0.35,0 0.6388,0.1407 0.8687,0.4203 0.2288,0.2796 0.3432,0.6815 0.3432,1.206 0,0.5418 -0.1173,0.9602 -0.3507,1.2528 -0.2336,0.2929 -0.517,0.4387 -0.8503,0.4387 -0.1642,0 -0.3257,-0.0448 -0.4853,-0.1357 -0.1597,-0.0907 -0.2973,-0.2244 -0.4124,-0.4019l0 0.4662 -0.7052 0zm0.7538 -1.6558c0,0.3286 0.0472,0.5714 0.1403,0.7293 0.1323,0.2235 0.3067,0.3348 0.5253,0.3348 0.1671,0 0.31,-0.0796 0.4283,-0.2378 0.118,-0.1581 0.177,-0.408 0.177,-0.7487 0,-0.3623 -0.0597,-0.6245 -0.179,-0.7845 -0.118,-0.1604 -0.2703,-0.2409 -0.4566,-0.2409 -0.1818,0 -0.3332,0.0786 -0.4544,0.2346 -0.1209,0.1572 -0.1809,0.3939 -0.1809,0.7132zm4.3232 0.6459l0.7579 0.1396c-0.0979,0.3071 -0.2513,0.5407 -0.4617,0.7011 -0.2094,0.161 -0.4725,0.2406 -0.7879,0.2406 -0.4996,0 -0.8687,-0.1795 -1.1086,-0.5408 -0.1893,-0.2885 -0.2841,-0.6539 -0.2841,-1.0936 0,-0.5265 0.1243,-0.9386 0.3736,-1.2365 0.2481,-0.298 0.5628,-0.4469 0.9434,-0.4469 0.4271,0 0.7642,0.1562 1.0114,0.4684 0.2464,0.312 0.3647,0.7896 0.3543,1.4334l-1.904 0c0.0055,0.2489 0.0665,0.4428 0.1838,0.5804 0.117,0.1388 0.2638,0.2082 0.4382,0.2082 0.1192,0 0.2189,-0.0357 0.3001,-0.1071 0.0813,-0.0725 0.143,-0.1877 0.1836,-0.3468zm0.0433 -0.8489c-0.0053,-0.244 -0.0617,-0.4285 -0.1698,-0.555 -0.1079,-0.1265 -0.2399,-0.1898 -0.3949,-0.1898 -0.1662,0 -0.3028,0.0672 -0.4107,0.2009 -0.1078,0.1326 -0.1615,0.3142 -0.1598,0.5439l1.1352 0zm2.1018 1.8588l-0.7596 0 0 -3.1739 0.7052 0 0 0.4508c0.1207,-0.2131 0.2298,-0.3538 0.3258,-0.4213 0.0969,-0.0672 0.2058,-0.102 0.3286,-0.102 0.1734,0 0.3396,0.0532 0.5002,0.1591l-0.2354 0.7316c-0.1274,-0.0907 -0.2464,-0.1367 -0.3562,-0.1367 -0.1071,0 -0.1968,0.0317 -0.2704,0.097 -0.0749,0.0641 -0.132,0.1814 -0.1743,0.3509 -0.0426,0.1693 -0.0639,0.5243 -0.0639,1.0641l0 0.9804zm1.9633 0l-0.9091 -3.1739 0.7383 0 0.5381 2.0803 0.4946 -2.0803 0.733 0 0.4789 2.0803 0.5494 -2.0803 0.7483 0 -0.9221 3.1739 -0.7302 0 -0.4945 -2.0416 -0.4864 2.0416 -0.7383 0zm5.4344 -1.0099l0.7579 0.1396c-0.0979,0.3071 -0.251,0.5407 -0.4616,0.7011 -0.2095,0.161 -0.4726,0.2406 -0.788,0.2406 -0.4996,0 -0.8687,-0.1795 -1.1086,-0.5408 -0.1893,-0.2885 -0.2841,-0.6539 -0.2841,-1.0936 0,-0.5265 0.1243,-0.9386 0.3736,-1.2365 0.2484,-0.298 0.5628,-0.4469 0.9434,-0.4469 0.4271,0 0.7643,0.1562 1.0114,0.4684 0.2465,0.312 0.3647,0.7896 0.3543,1.4334l-1.904 0c0.0056,0.2489 0.0665,0.4428 0.1838,0.5804 0.1171,0.1388 0.2639,0.2082 0.4382,0.2082 0.1193,0 0.2189,-0.0357 0.3001,-0.1071 0.0813,-0.0725 0.143,-0.1877 0.1836,-0.3468zm0.0433 -0.8489c-0.0053,-0.244 -0.0617,-0.4285 -0.1698,-0.555 -0.1078,-0.1265 -0.2399,-0.1898 -0.3947,-0.1898 -0.1663,0 -0.3027,0.0672 -0.4109,0.2009 -0.1078,0.1326 -0.1615,0.3142 -0.1598,0.5439l1.1352 0zm1.3744 -1.7458l0 -0.7773 0.7596 0 0 0.7773 -0.7596 0zm0 3.6046l0 -3.1739 0.7596 0 0 3.1739 -0.7596 0zm1.2713 -0.9059l0.7621 -0.1287c0.0324,0.1633 0.0982,0.2878 0.1976,0.3725 0.0989,0.0846 0.2372,0.1274 0.4164,0.1274 0.1964,0 0.3442,-0.0396 0.4431,-0.1202 0.0672,-0.0551 0.1006,-0.1306 0.1006,-0.2234 0,-0.0644 -0.0186,-0.1173 -0.0544,-0.1592 -0.038,-0.0399 -0.1229,-0.0766 -0.254,-0.1102 -0.613,-0.149 -1.0014,-0.2857 -1.1659,-0.4092 -0.2268,-0.1713 -0.3403,-0.4102 -0.3403,-0.7152 0,-0.2744 0.0977,-0.5059 0.2944,-0.6926 0.1966,-0.1879 0.5011,-0.2817 0.9136,-0.2817 0.3933,0 0.6857,0.0715 0.877,0.2123 0.191,0.1417 0.3221,0.3509 0.3939,0.6283l-0.7163 0.1461c-0.0302,-0.1236 -0.0885,-0.2184 -0.1744,-0.2837 -0.0856,-0.0663 -0.2075,-0.0989 -0.3664,-0.0989 -0.2002,0 -0.3431,0.0305 -0.43,0.0928 -0.0573,0.0438 -0.0858,0.1009 -0.0858,0.1703 0,0.0602 0.0249,0.1103 0.0757,0.1521 0.0682,0.0561 0.3045,0.1347 0.7098,0.2365 0.4041,0.1011 0.6866,0.2257 0.8471,0.3734 0.1587,0.1502 0.2383,0.3582 0.2383,0.6245 0,0.2909 -0.1101,0.5417 -0.3304,0.7509 -0.2198,0.2092 -0.5446,0.3132 -0.9756,0.3132 -0.3915,0 -0.7006,-0.0876 -0.9294,-0.2631 -0.228,-0.1746 -0.3768,-0.4133 -0.4467,-0.7142zm5.2378 0.9059l0 -0.4754c-0.1052,0.1693 -0.2425,0.303 -0.4125,0.401 -0.1708,0.0969 -0.351,0.1458 -0.5401,0.1458 -0.1927,0 -0.3654,-0.0469 -0.5185,-0.1398 -0.1533,-0.0938 -0.2641,-0.2254 -0.3332,-0.3947 -0.0685,-0.1695 -0.1026,-0.4041 -0.1026,-0.703l0 -2.0078 0.7596 0 0 1.4578c0,0.447 0.0141,0.7205 0.0424,0.8213 0.0278,0.1002 0.0786,0.1797 0.1523,0.2387 0.074,0.0593 0.1681,0.0878 0.2815,0.0878 0.1301,0 0.2465,-0.0387 0.349,-0.1173 0.1026,-0.0795 0.1727,-0.1765 0.2104,-0.2928 0.038,-0.1173 0.0573,-0.403 0.0573,-0.8569l0 -1.3386 0.7594 0 0 3.1739 -0.705 0zm4.1043 0l-0.7596 0 0 -1.6201c0,-0.3429 -0.0167,-0.5642 -0.0488,-0.6653 -0.0324,-0.0998 -0.0859,-0.1784 -0.1587,-0.2345 -0.073,-0.0552 -0.1606,-0.0837 -0.2631,-0.0837 -0.1321,0 -0.2503,0.0396 -0.3543,0.1194 -0.1045,0.0806 -0.1766,0.1855 -0.2153,0.3173 -0.0389,0.1316 -0.058,0.3744 -0.058,0.7294l0 1.4375 -0.7596 0 0 -3.1739 0.705 0 0 0.4663c0.251,-0.3591 0.5668,-0.5388 0.947,-0.5388 0.1671,0 0.3212,0.0336 0.4595,0.1001 0.1386,0.0672 0.2438,0.1519 0.3149,0.2561 0.0711,0.104 0.1209,0.2213 0.1487,0.3528 0.0285,0.1316 0.0423,0.3195 0.0423,0.5643l0 1.9731zm0.7006 0.2092l0.8675 0.1164c0.0148,0.1122 0.0482,0.1886 0.0997,0.2304 0.072,0.0603 0.1864,0.0898 0.3405,0.0898 0.1983,0 0.3473,-0.0327 0.4467,-0.099 0.0665,-0.0437 0.1173,-0.1141 0.1514,-0.212 0.0232,-0.0695 0.035,-0.1981 0.035,-0.3858l0 -0.4631c-0.2268,0.3427 -0.5139,0.5141 -0.86,0.5141 -0.3859,0 -0.6914,-0.1806 -0.9165,-0.5407 -0.1763,-0.2856 -0.2649,-0.6397 -0.2649,-1.0641 0,-0.5326 0.1161,-0.9386 0.3478,-1.2201 0.2317,-0.2808 0.5197,-0.4215 0.8639,-0.4215 0.3545,0 0.6479,0.1724 0.8788,0.5173l0 -0.4448 0.7105 0 0 2.8484c0,0.3744 -0.0275,0.654 -0.0839,0.8397 -0.0554,0.1857 -0.1337,0.3306 -0.2343,0.4368 -0.1016,0.1049 -0.2363,0.1876 -0.4044,0.2478 -0.169,0.0593 -0.3821,0.0898 -0.6396,0.0898 -0.4874,0 -0.8327,-0.0929 -1.0356,-0.2765 -0.2039,-0.1847 -0.3055,-0.4183 -0.3055,-0.7008 0,-0.0285 0.001,-0.0624 0.0029,-0.1021zm0.6782 -1.8619c0,0.3366 0.059,0.5836 0.1772,0.7395 0.1181,0.1563 0.2632,0.2349 0.4368,0.2349 0.1855,0 0.3422,-0.0808 0.4706,-0.2409 0.1272,-0.1601 0.1921,-0.3978 0.1921,-0.7132 0,-0.3284 -0.062,-0.5724 -0.1848,-0.7316 -0.1219,-0.1601 -0.2769,-0.2396 -0.4641,-0.2396 -0.1828,0 -0.3325,0.0786 -0.4506,0.2346 -0.1182,0.1572 -0.1772,0.3949 -0.1772,0.7163z"/>
 </g>
</svg>
