<?xml version="1.0" encoding="UTF-8"?>
<!DOCTYPE svg PUBLIC "-//W3C//DTD SVG 1.1//EN" "http://www.w3.org/Graphics/SVG/1.1/DTD/svg11.dtd">
<!-- Creator: CorelDRAW -->
<svg xmlns="http://www.w3.org/2000/svg" xml:space="preserve" width="31.75mm" height="21.167mm" style="shape-rendering:geometricPrecision; text-rendering:geometricPrecision; image-rendering:optimizeQuality; fill-rule:evenodd; clip-rule:evenodd"
viewBox="0 0 31.75 21.167"
 xmlns:xlink="http://www.w3.org/1999/xlink">
 <defs>
  <style type="text/css">
   <![CDATA[
    .str0 {stroke:#C5C6C6;stroke-width:0.0762}
    .fil0 {fill:none}
    .fil2 {fill:#0994DC}
    .fil3 {fill:#0A1D3D}
    .fil1 {fill:white}
   ]]>
  </style>
 </defs>
 <g id="Layer_x0020_1">
  <metadata id="CorelCorpID_0Corel-Layer"/>
  <g>
   <path class="fil0 str0" d="M1.0583 0.0002l29.6334 0c0.5843,0 1.0582,0.4739 1.0582,1.0583l0.0001 19.05c-0.0001,0.5842 -0.474,1.0581 -1.0584,1.0581l-29.6333 0.0002c-0.5843,-0.0002 -1.0582,-0.4741 -1.0582,-1.0585l-0.0001 -19.0498c0.0001,-0.5844 0.474,-1.0583 1.0584,-1.0583z"/>
   <path id="1" class="fil1" d="M1.0583 0.0002l29.6334 0c0.5843,0 1.0582,0.4739 1.0582,1.0583l0.0001 19.05c-0.0001,0.5842 -0.474,1.0581 -1.0584,1.0581l-29.6333 0.0002c-0.5843,-0.0002 -1.0582,-0.4741 -1.0582,-1.0585l-0.0001 -19.0498c0.0001,-0.5844 0.474,-1.0583 1.0584,-1.0583z"/>
  </g>
  <g>
   <path class="fil2" d="M7.0316 10.0095l-2.139 -2.1801 -2.1401 2.1801 0.4972 0.5064 1.6429 -1.6726 1.1442 1.1662 -1.1442 1.1649 -0.488 -0.4965 -0.4983 0.5061 0.9863 1.0045 2.139 -2.179zm-4.2978 1.1481l2.1389 2.18 2.1403 -2.18 -0.4979 -0.5068 -1.6424 1.6721 -1.1441 -1.1653 1.1441 -1.1651 0.4882 0.4961 0.4972 -0.5069 -0.9854 -1.0032 -2.1389 2.1791z"/>
   <path class="fil2" d="M24.5911 10.4383c0.0392,-0.052 0.0975,-0.0723 0.179,-0.0723 0.1503,0 0.2228,0.0595 0.2451,0.2472l0.0065 0.0886 -0.4949 0c0.0049,-0.1274 0.0249,-0.2114 0.0643,-0.2635zm0.2015 0.8243c-0.1808,0 -0.2414,-0.0809 -0.26,-0.261l-0.0058 -0.0835 0.8531 0 0 -0.1479c0,-0.424 -0.2134,-0.6209 -0.6231,-0.6209 -0.3797,0 -0.602,0.1766 -0.602,0.6649 0,0.1932 0.0264,0.3598 0.1189,0.4782 0.0926,0.1184 0.2511,0.1885 0.5153,0.1885 0.1298,0 0.2611,-0.0126 0.4005,-0.0362l0.142 -0.0273 -0.0377 -0.2171c-0.1283,0.0295 -0.3825,0.0623 -0.5012,0.0623zm3.4342 -0.8228c0.0392,-0.052 0.0976,-0.072 0.1787,-0.072 0.151,0 0.2233,0.0596 0.2451,0.2468l0.0065 0.0881 -0.4944 0c0.0048,-0.1273 0.0249,-0.2111 0.0641,-0.2629zm0.2006 0.8245c-0.1799,0 -0.2404,-0.0818 -0.2591,-0.2616l-0.0056 -0.0834 0.8535 0 0 -0.147c0,-0.4251 -0.2138,-0.6221 -0.6233,-0.6221 -0.3802,0 -0.6013,0.1772 -0.6013,0.665 0,0.1932 0.0263,0.3599 0.1187,0.4783 0.0923,0.1183 0.2503,0.1883 0.5141,0.1883 0.1303,0 0.2621,-0.0125 0.4013,-0.0358l0.1421 -0.027 -0.0387 -0.2163c-0.1278,0.0277 -0.3813,0.0616 -0.5017,0.0616zm-7.4815 -0.0289c-0.1335,0.0277 -0.267,0.0412 -0.3396,0.0437 -0.1203,0.0062 -0.1916,-0.0164 -0.2329,-0.0854 -0.0415,-0.0691 -0.0528,-0.1846 -0.0528,-0.3641 0,-0.3594 0.0449,-0.463 0.2857,-0.4523 0.0726,0.0034 0.2259,0.0365 0.3396,0.0481l0.0334 -0.2098c-0.1117,-0.0203 -0.2595,-0.048 -0.3611,-0.052 -0.5352,-0.0239 -0.6653,0.2056 -0.6653,0.666 0,0.4609 0.1313,0.6868 0.6658,0.6651 0.1086,-0.004 0.2552,-0.0243 0.3691,-0.0467l-0.0419 -0.2126zm1.0918 0c-0.1336,0.0277 -0.2673,0.0412 -0.3392,0.0437 -0.1203,0.0062 -0.1918,-0.0164 -0.2334,-0.0854 -0.0414,-0.0691 -0.0527,-0.1846 -0.0527,-0.3641 0,-0.3594 0.0459,-0.463 0.2861,-0.4523 0.072,0.0034 0.2256,0.0365 0.3398,0.0481l0.0331 -0.2098c-0.1126,-0.0203 -0.2597,-0.048 -0.3604,-0.052 -0.5363,-0.0239 -0.6664,0.2056 -0.6664,0.666 0,0.4609 0.1313,0.6868 0.6664,0.6651 0.1081,-0.004 0.2543,-0.0243 0.369,-0.0467l-0.0423 -0.2126zm4.9952 -1.3454l0 0.3031 -0.2164 0 0 0.2175 0.2164 0 0 0.6358c0,0.3008 0.0533,0.4474 0.3643,0.4474 0.0428,0 0.122,-0.0011 0.2311,-0.0172l0.0864 -0.015 -0.0416 -0.2131c-0.0964,0.0089 -0.1514,0.0185 -0.2059,0.01 -0.0464,-0.0066 -0.0642,-0.0397 -0.0704,-0.1178l-0.0027 -0.0943 0 -0.6358 0.2801 0 0 -0.2175 -0.2801 0 0 -0.3031 -0.3612 0zm-1.5124 1.5783l0.3492 0 0 -1.0524c0.0643,-0.0171 0.1649,-0.0382 0.2579,-0.0382 0.1643,0 0.238,0.0807 0.254,0.3141l0.0032 0.1095 0 0.667 0.3561 0 0 -0.667c0,-0.2072 -0.0388,-0.3673 -0.1351,-0.4755 -0.096,-0.1082 -0.2494,-0.1647 -0.4782,-0.1647 -0.1869,0 -0.3548,0.0361 -0.5311,0.1005l-0.076 0.0294 0 1.1773zm-2.1637 -1.3072c-0.4523,0 -0.5872,0.2445 -0.5872,0.6391 0,0.4439 0.123,0.6936 0.7192,0.6936 0.0705,0 0.137,-0.0034 0.2111,-0.0092l0.2555 -0.0221 0 -1.7863 -0.3543 0 0 0.5004c-0.068,-0.009 -0.152,-0.0155 -0.2443,-0.0155zm0.143 1.1144c-0.023,0 -0.0453,-0.0011 -0.0624,-0.0016 -0.2639,-0.0133 -0.3004,-0.1527 -0.3004,-0.4694 0,-0.1505 0.0108,-0.2511 0.0439,-0.3171 0.0326,-0.0659 0.0877,-0.0974 0.1759,-0.1099 0.0687,-0.0088 0.1376,-0.0029 0.1935,0.0075l0.0508 0.0116 0 0.8732c-0.0298,0.0004 -0.0704,0.0057 -0.1013,0.0057zm-1.2562 -1.2825l0.3508 0 0 -0.2698 -0.3508 0 0 0.2698zm0 1.4768l0.3508 0 0 -1.2825 -0.3508 0 0 1.2825zm-3.2547 -1.8136c-0.5749,0 -0.8398,0.2499 -0.8398,0.8814 0,0.3361 0.0456,0.5741 0.1733,0.7282 0.1279,0.1542 0.3376,0.2243 0.6665,0.2243 0.6217,0 0.8027,-0.2841 0.8227,-0.8325l0.0021 -0.1133c0,-0.6241 -0.3004,-0.8881 -0.8248,-0.8881zm0 1.5824c-0.3963,0 -0.4746,-0.1688 -0.4746,-0.701 0,-0.5031 0.1317,-0.6323 0.4746,-0.6323 0.1417,0 0.257,0.0407 0.3365,0.1409 0.0798,0.1001 0.1241,0.2598 0.1241,0.4981 0,0.4636 -0.0606,0.6683 -0.3908,0.692l-0.0698 0.0023z"/>
   <path class="fil3" d="M7.8327 9.6751l0 1.7941 0.7601 0c0.3595,0 0.6423,-0.1295 0.6423,-0.5405 0,-0.2161 -0.1085,-0.3303 -0.2328,-0.3932 0.0511,-0.0352 0.0929,-0.0826 0.1219,-0.1451 0.029,-0.0625 0.0452,-0.1399 0.0452,-0.2358 0,-0.2964 -0.2043,-0.4585 -0.5508,-0.4775l-0.0711 -0.002 -0.7148 0zm0.9783 0.4795c0,0.177 -0.0464,0.2552 -0.1763,0.2721l-0.0609 0.0034 -0.385 0 0 -0.5036 0.3587 0c0.2035,0 0.2635,0.0472 0.2635,0.2281zm0.0647 0.7741c0,0.2071 -0.0704,0.2732 -0.2159,0.2865l-0.067 0.0027 -0.404 0 0 -0.5386 0.385 0c0.1281,0 0.3019,0.0015 0.3019,0.2494zm4.149 0.3067c-0.1334,0.0277 -0.267,0.0412 -0.3384,0.0437 -0.1209,0.0062 -0.1927,-0.0164 -0.2343,-0.0854 -0.0416,-0.0691 -0.0529,-0.1846 -0.0529,-0.3641 0,-0.3594 0.0465,-0.463 0.2872,-0.4523 0.0714,0.0034 0.2247,0.0365 0.3394,0.0481l0.0331 -0.2098c-0.1126,-0.0203 -0.26,-0.048 -0.3612,-0.052 -0.5353,-0.0239 -0.6653,0.2056 -0.6653,0.666 0,0.4609 0.1303,0.6868 0.6661,0.6651 0.1084,-0.004 0.2548,-0.0243 0.3693,-0.0467l-0.043 -0.2126z"/>
   <path class="fil3" d="M16.9545 11.2771c-0.1799,0 -0.2408,-0.0817 -0.2596,-0.2616l-0.0057 -0.0833 0.8535 0 0 -0.147c0,-0.4252 -0.214,-0.6221 -0.6234,-0.6221 -0.3791,0 -0.6022,0.1771 -0.6022,0.6648 0.0001,0.1934 0.0267,0.36 0.1191,0.4783 0.0925,0.1185 0.251,0.1885 0.5147,0.1885 0.1304,0 0.2621,-0.0125 0.4013,-0.0359l0.142 -0.027 -0.0386 -0.2164c-0.1271,0.0277 -0.3817,0.0617 -0.5011,0.0617zm-0.2009 -0.8244c0.0393,-0.052 0.0977,-0.0721 0.1787,-0.0721 0.1513,0 0.2237,0.0596 0.2456,0.2468l0.0065 0.0881 -0.4952 0c0.0047,-0.1274 0.0251,-0.2111 0.0644,-0.2628zm-1.1804 -0.2916c-0.4525,0 -0.5866,0.2445 -0.5866,0.6391 0,0.4439 0.1223,0.6936 0.7191,0.6936 0.1051,0 0.2046,-0.0047 0.3307,-0.0167l0.1358 -0.0146 0 -1.7863 -0.3543 0 0 0.5004c-0.068,-0.009 -0.1523,-0.0155 -0.2447,-0.0155zm0.0809 1.1128c-0.2639,-0.0154 -0.3006,-0.1527 -0.3006,-0.4694 0,-0.1505 0.0108,-0.251 0.0437,-0.3171 0.0329,-0.0659 0.0878,-0.0973 0.176,-0.1099 0.0684,-0.0088 0.1375,-0.0029 0.1935,0.0075l0.0512 0.0116 0 0.8732c0,0 -0.0577,0.0101 -0.1638,0.0041zm-1.4071 0.043c0.0965,-0.1155 0.1293,-0.2865 0.1293,-0.5092 0,-0.4186 -0.21,-0.6189 -0.5669,-0.6423l-0.0733 -0.0023c-0.4394,0 -0.6507,0.1876 -0.6507,0.6401 0,0.4797 0.1475,0.6891 0.6507,0.6891 0.2543,0 0.4144,-0.0599 0.5109,-0.1754zm-0.5109 -0.0403c-0.2386,0 -0.2875,-0.0996 -0.2875,-0.4734 0,-0.1747 0.0183,-0.2802 0.0635,-0.3422 0.0452,-0.062 0.117,-0.0805 0.224,-0.0805 0.1588,0 0.2633,0.0874 0.2757,0.3685l0.0013 0.0587c0,0.3501 -0.0421,0.4689 -0.277,0.4689zm-3.7764 -0.8916c0.1002,0 0.1476,0.0465 0.1578,0.1471l0.0022 0.0463 0 0.0494c0,0 -0.1777,0.0011 -0.3242,0.0187 -0.3359,0.0401 -0.4639,0.1955 -0.4639,0.4132 0,0.2405 0.1795,0.3927 0.471,0.4236 0.1778,0.0183 0.3459,0.0084 0.5093,-0.0084l0.1619 -0.0186 0 -0.8639c0,-0.1301 -0.0402,-0.2372 -0.1247,-0.3119 -0.0843,-0.0747 -0.2127,-0.1168 -0.3894,-0.1168 -0.1534,0 -0.2991,0.0305 -0.5097,0.073l0.0387 0.2174c0.2002,-0.0401 0.3492,-0.0691 0.471,-0.0691zm-0.1016 0.8772c-0.1295,-0.026 -0.16,-0.1088 -0.16,-0.2029 0,-0.0633 0.0171,-0.1103 0.0493,-0.1436 0.032,-0.0333 0.0792,-0.0526 0.1393,-0.0603 0.039,-0.005 0.0779,-0.0081 0.1124,-0.0101l0.1206 -0.0033 0 0.4202c-0.0979,0.011 -0.1808,0.0165 -0.2616,0z"/>
   <path class="fil3" d="M10.6629 11.4683l0.3497 0 0 -1.0523c0.0646,-0.0172 0.1654,-0.0383 0.258,-0.0383 0.1644,0 0.2379,0.0807 0.2538,0.3141l0.0034 0.1095 0 0.667 0.356 0 0 -0.667c0,-0.2072 -0.0388,-0.3673 -0.1349,-0.4755 -0.0962,-0.1082 -0.2495,-0.1647 -0.4783,-0.1647 -0.1878,0 -0.3554,0.0361 -0.5316,0.1005l-0.0761 0.0294 0 1.1773z"/>
  </g>
 </g>
</svg>
