<?xml version="1.0" encoding="UTF-8"?>
<!DOCTYPE svg PUBLIC "-//W3C//DTD SVG 1.1//EN" "http://www.w3.org/Graphics/SVG/1.1/DTD/svg11.dtd">
<!-- Creator: CorelDRAW -->
<svg xmlns="http://www.w3.org/2000/svg" xml:space="preserve" width="31.75mm" height="21.167mm" style="shape-rendering:geometricPrecision; text-rendering:geometricPrecision; image-rendering:optimizeQuality; fill-rule:evenodd; clip-rule:evenodd"
viewBox="0 0 31.75 21.167"
 xmlns:xlink="http://www.w3.org/1999/xlink">
 <defs>
  <style type="text/css">
   <![CDATA[
    .str0 {stroke:#C5C6C6;stroke-width:0.0762}
    .fil0 {fill:none}
    .fil2 {fill:#005E96}
    .fil3 {fill:#E77827}
    .fil1 {fill:white}
   ]]>
  </style>
 </defs>
 <g id="Layer_x0020_1">
  <metadata id="CorelCorpID_0Corel-Layer"/>
  <g>
   <path class="fil0 str0" d="M1.0583 0.0002l29.6334 0c0.5843,0 1.0582,0.4739 1.0582,1.0583l0.0001 19.05c-0.0001,0.5842 -0.474,1.0581 -1.0584,1.0581l-29.6333 0.0002c-0.5843,-0.0002 -1.0582,-0.4741 -1.0582,-1.0585l-0.0001 -19.0498c0.0001,-0.5844 0.474,-1.0583 1.0584,-1.0583z"/>
   <path id="1" class="fil1" d="M1.0583 0.0002l29.6334 0c0.5843,0 1.0582,0.4739 1.0582,1.0583l0.0001 19.05c-0.0001,0.5842 -0.474,1.0581 -1.0584,1.0581l-29.6333 0.0002c-0.5843,-0.0002 -1.0582,-0.4741 -1.0582,-1.0585l-0.0001 -19.0498c0.0001,-0.5844 0.474,-1.0583 1.0584,-1.0583z"/>
  </g>
  <g>
   <path class="fil2" d="M11.373 9.6999l-0.6007 1.4967 0.831 0 -0.2278 -1.5031 -0.0025 0.0064zm-3.1823 3.4359l2.4642 -5.0729 1.8626 0 1.0391 5.0729 -1.6357 0 -0.1202 -0.6761 -1.5869 0 -0.3651 0.6761 -1.658 0zm6.1401 0l0.7138 -5.0729 1.648 0 -0.7136 5.0729 -1.6482 0zm10.9605 -3.4423l-0.6032 1.5031 0.831 0 -0.2278 -1.5031zm-3.1848 3.4423l2.4642 -5.0729 1.8626 0 1.0391 5.0729 -1.6357 0 -0.1202 -0.6761 -1.5869 0 -0.365 0.6761 -1.6581 0z"/>
   <polygon class="fil2" points="18.4634,10.7638 20.5284,10.7638 21.9431,13.1073 19.8781,13.1073 "/>
   <polygon class="fil3" points="18.678,10.4038 20.8124,10.4038 22.666,8.0703 20.5317,8.0703 "/>
   <polygon class="fil3" points="16.5437,13.1216 18.678,13.1216 20.5317,10.7594 18.3974,10.7594 "/>
   <polygon class="fil2" points="17.3133,8.0417 19.3054,8.0417 20.6701,10.4038 18.678,10.4038 "/>
   <path class="fil2" d="M8.2396 8.2446l-0.1584 1.4919c-0.6075,-0.8379 -2.0152,-0.2597 -2.1259,0.7842 -0.1404,1.3249 1.2145,1.6339 1.9518,0.8536l-0.1589 1.4954c-0.22,0.1082 -0.4352,0.192 -0.6475,0.2489 -0.2112,0.0568 -0.423,0.087 -0.6331,0.0914 -0.2641,0.0055 -0.5033,-0.0221 -0.7189,-0.0828 -0.2157,-0.0595 -0.4107,-0.1544 -0.5833,-0.2824 -0.3329,-0.2434 -0.5736,-0.5528 -0.722,-0.9294 -0.1482,-0.3778 -0.197,-0.8042 -0.1464,-1.2805 0.0406,-0.3829 0.1372,-0.732 0.2908,-1.0486 0.1524,-0.3165 0.3635,-0.6039 0.6323,-0.8647 0.254,-0.2488 0.5307,-0.4363 0.8301,-0.5637 0.2982,-0.1263 0.6238,-0.1937 0.9756,-0.201 0.2101,-0.0045 0.4163,0.0168 0.6164,0.065 0.2012,0.0482 0.3995,0.1232 0.5974,0.2227z"/>
  </g>
 </g>
</svg>
