<svg height="301px" viewBox="0 0 480 301" width="480px" xmlns="http://www.w3.org/2000/svg"><g fill="none" fill-rule="evenodd"><path d="M444,3.03581628e-06 C420,5.30180998e-06 165.902344,-4.81179503e-06 24,3.03581628e-06 C12,3.6994511e-06 -6.11066753e-13,12.0056015 -1.42108547e-14,24.0112 C-1.42108547e-14,96.1913435 2.8991193e-06,240.111972 -1.42108547e-14,264.123169 C-1.38851962e-06,288.134366 12,300.139965 36,300.139965 C169.869629,300.139965 420,300.139967 444,300.139965 C468,300.139965 480,288.134366 480,264.123169 C479.999998,240.111972 479.999994,115.769809 480,36.0167984 C480,12.0056015 468,3.03581628e-06 444,3.03581628e-06 Z" fill="#FFF"/><path d="M209.256675,217.895692 C234.572379,194.964329 250.395527,161.823088 250.395527,124.989482 C250.395527,88.1592101 234.572379,55.0446534 209.256675,32.1099544 C187.106267,11.9503673 157.509084,-0.31749525 125.306362,-0.31749525 C56.0596823,-0.31749525 0.0306118426,55.7817925 0.0306118426,124.989482 C0.0306118426,194.223854 56.0596823,250.323142 125.306362,250.323142 C157.505752,250.326478 187.102935,238.031931 209.256675,217.895692" fill="#4186CD" transform="translate(31.000000, 25.000000)"/><path d="M209.256675,217.895692 C234.572379,194.964329 250.395527,161.823088 250.395527,124.989482 C250.395527,88.1592101 234.572379,55.0446534 209.256675,32.1099544 L209.256675,217.895692 Z" fill="#4487CA" transform="translate(31.000000, 25.000000)"/><path d="M293.393574,-0.314159779 C261.004266,-0.314159779 231.407083,11.9537028 209.256675,32.1132899 C204.78861,36.2359321 200.507131,40.6654377 196.598823,45.3984711 L221.914527,45.3984711 C225.452995,49.5978292 228.618291,54.0273347 231.410415,58.660304 L187.106267,58.660304 C184.500729,62.9096942 182.081776,67.3391997 179.846078,71.922137 L238.667273,71.922137 C240.713053,76.2248947 242.388994,80.6510647 243.878349,85.2073182 L174.631669,85.2073182 C173.142314,89.5100759 171.839545,93.9395815 170.909948,98.4691512 L247.603403,98.4691512 C249.46593,107.021299 250.395527,115.903658 250.395527,124.992817 C250.395527,138.911738 248.159829,152.303654 243.878349,164.801664 L174.635001,164.801664 C176.124356,169.354582 177.800297,173.784088 179.846078,178.08351 L238.667273,178.08351 C236.431574,182.669783 234.199207,187.095953 231.407083,191.348678 L187.102935,191.348678 C189.89506,195.981648 193.246941,200.411153 196.598823,204.613847 L221.914527,204.613847 C218.00622,209.343545 213.72474,213.77305 209.256675,217.895692 C231.407083,238.031931 261.004266,250.326478 293.393574,250.326478 C362.453668,250.326478 418.482739,194.22719 418.482739,124.992817 C418.482739,55.785128 362.450336,-0.314159779 293.393574,-0.314159779" fill="#CA4638" transform="translate(31.000000, 25.000000)"/><path d="M405.265129,194.607434 L405.824887,194.607434 C406.014804,194.607434 406.194726,194.634117 406.194726,194.554066 C406.384644,194.454002 406.567898,194.30057 406.567898,194.150474 C406.567898,193.993707 406.381312,193.843611 406.194726,193.766895 C406.194726,193.690179 405.824887,193.713527 405.824887,193.713527 L405.265129,193.713527 L405.265129,194.607434 L405.265129,194.607434 Z M405.265129,196.642071 L404.522117,196.642071 L404.522117,193.079788 L406.011473,193.079788 C406.381312,193.079788 406.567898,193.079788 406.94107,193.259903 C407.127656,193.463367 407.31091,193.793579 407.31091,194.153809 C407.31091,194.557401 407.124324,194.917632 406.751152,195.064393 L407.31091,196.645406 L406.381312,196.645406 L406.011473,195.22116 L405.261797,195.22116 L405.261797,196.642071 L405.265129,196.642071 L405.265129,196.642071 Z M405.824887,197.942905 C407.500828,197.942905 408.990183,196.568691 408.990183,194.860929 C408.990183,193.153168 407.500828,191.778954 405.824887,191.778954 C404.152278,191.778954 402.846177,193.153168 402.846177,194.860929 C402.846177,196.568691 404.152278,197.942905 405.824887,197.942905 L405.824887,197.942905 Z M401.729993,194.860929 C401.729993,192.619493 403.59252,190.815003 405.824887,190.815003 C408.060585,190.815003 409.91978,192.619493 409.91978,194.860929 C409.91978,197.102366 408.057253,198.906856 405.824887,198.906856 C403.59252,198.906856 401.729993,197.102366 401.729993,194.860929 L401.729993,194.860929 Z" fill="#231F20" transform="translate(31.000000, 25.000000)"/><path d="M105.758161,159.865167 L89.935013,159.865167 L99.2409831,111.017193 L77.8335867,159.865167 L64.802563,159.865167 L62.1970246,111.297373 L51.7748712,159.865167 L37.4410783,159.865167 L49.5391727,96.3344497 L74.2984509,96.3344497 L74.6682907,135.659653 L91.7942079,96.3344497 L118.039509,96.3344497 L105.758161,159.865167" fill="#231F20" transform="translate(31.000000, 25.000000)"/><path d="M279.802793,159.224757 C275.521313,160.398842 272.169431,160.905834 268.634296,160.905834 C260.631095,160.905834 256.346284,156.90994 256.346284,149.555226 C256.346284,148.104296 256.346284,146.553302 256.716123,144.918921 L257.645721,139.855676 L258.392064,135.783066 L265.652254,96.3277787 L281.10223,96.3277787 L278.869863,108.188714 L286.873064,108.188714 L284.640698,120.736756 L276.637497,120.736756 L272.542603,142.297241 C272.356017,143.261192 272.356017,143.951635 272.356017,144.435278 C272.356017,147.10699 273.845372,148.277741 277.567094,148.277741 C279.429621,148.277741 280.729058,148.127644 281.848573,147.794097 L279.802793,159.224757" fill="#231F20" transform="translate(31.000000, 25.000000)"/><path d="M218.00622,124.509174 C218.00622,131.050032 221.544687,135.532906 229.917728,138.915073 C236.24832,141.513405 237.361172,142.277228 237.361172,144.618729 C237.361172,147.854136 234.569047,149.298395 228.245119,149.298395 C223.590468,149.298395 219.122403,148.667991 214.097912,147.240409 L212.048799,159.174724 L212.608557,159.278124 L215.587267,159.811799 C216.516865,159.965231 217.822966,160.118663 219.682161,160.268759 C223.403882,160.548939 226.382592,160.705706 228.428373,160.705706 C244.997865,160.705706 252.631226,155.232198 252.631226,143.447978 C252.631226,136.370109 249.46593,132.197435 241.645983,129.062092 C234.945551,126.440411 234.202539,125.880052 234.202539,123.465171 C234.202539,120.663376 236.808078,119.239129 241.8359,119.239129 C244.997865,119.239129 249.279344,119.545993 253.187651,120.029636 L255.42335,108.065301 C251.328456,107.504942 245.18445,107.047983 241.645983,107.047983 C223.96364,107.047983 217.819634,114.989739 218.00622,124.509174" fill="#231F20" transform="translate(31.000000, 25.000000)"/><path d="M145.594244,136.853752 C143.921635,136.673637 143.175291,136.62694 142.055776,136.62694 C133.309563,136.62694 128.841498,139.271969 128.841498,144.488645 C128.841498,147.694033 131.073865,149.75869 134.425747,149.75869 C140.753007,149.762025 145.407658,144.491981 145.594244,136.853752 L145.594244,136.853752 L145.594244,136.853752 Z M156.202983,159.865167 L143.171959,159.865167 L143.545131,154.495059 C139.450238,158.744449 134.239161,160.755738 127.162225,160.755738 C118.599267,160.755738 112.828433,155.00205 112.828433,146.653366 C112.828433,134.055292 122.880746,126.723927 140.189917,126.723927 C142.052444,126.723927 144.284811,126.847339 146.520509,127.127519 C147.076935,125.423093 147.263521,124.685954 147.263521,123.768699 C147.263521,120.333164 144.471397,119.059014 137.211207,119.059014 C132.743142,119.059014 127.718651,119.619373 124.180183,120.509944 L122.131071,121.043619 L120.641716,121.373831 L122.874082,109.769727 C130.690697,107.781786 135.715188,107.021299 141.486023,107.021299 C154.886886,107.021299 161.963822,112.264659 161.963822,122.191021 C161.963822,124.735986 161.777236,126.670559 160.661052,132.424247 L157.495756,150.749325 L156.939331,154.031428 L156.566159,156.653108 L156.192987,158.460934 L156.192987,159.865167 L156.202983,159.865167 Z" fill="#231F20" transform="translate(31.000000, 25.000000)"/><path d="M199.764119,127.994741 C199.764119,126.92739 199.950705,126.036819 199.950705,125.373061 C199.950705,121.173703 197.158581,118.702119 192.50393,118.702119 C187.479439,118.702119 183.940971,122.010906 182.638202,127.964722 L199.764119,127.994741 L199.764119,127.994741 Z M207.394148,158.744449 C201.996486,160.17203 196.782077,160.855802 191.384415,160.829118 C173.888658,160.829118 164.952527,152.887362 164.952527,137.694291 C164.952527,119.95292 176.494196,106.894551 192.130758,106.894551 C204.971864,106.894551 213.164983,114.199233 213.164983,125.676589 C213.164983,129.499038 212.605225,133.184734 211.11587,138.428094 L180.215918,138.428094 C180.029332,139.215266 180.029332,139.575497 180.029332,140.055804 C180.029332,146.036304 184.683983,149.091595 193.803367,149.091595 C199.387616,149.091595 204.415438,148.100961 209.999687,145.83284 L207.394148,158.744449 L207.394148,158.744449 Z" fill="#231F20" transform="translate(31.000000, 25.000000)"/><path d="M357.799017,130.262861 C357.799017,124.866069 355.56665,119.749457 349.23939,119.749457 C341.236189,119.749457 336.398284,129.168827 336.398284,137.464143 C336.398284,144.465297 339.746834,149.174982 345.334415,149.068247 C348.682965,149.068247 355.943154,144.461962 357.245923,136.416805 C357.612431,134.562284 357.799017,132.504298 357.799017,130.262861 L357.799017,130.262861 Z M373.622165,136.443489 C371.386467,153.624501 359.288372,161.239381 343.28197,161.239381 C325.782881,161.239381 318.709278,150.549196 318.709278,137.440795 C318.709278,119.112382 330.624118,106.717771 349.23939,106.717771 C365.432378,106.717771 373.998669,116.924313 373.998669,130.036049 C373.995337,133.214753 373.995337,133.441565 373.622165,136.443489 L373.622165,136.443489 Z" fill="#231F20" transform="translate(31.000000, 25.000000)"/><path d="M378.833242,151.92341 L379.389667,151.92341 C379.389667,151.92341 379.579585,151.92341 379.762839,151.846695 C379.946093,151.769979 379.949425,151.593199 379.949425,151.439767 C379.949425,151.313019 379.949425,151.159588 379.762839,151.086207 C379.762839,151.009491 379.389667,151.009491 379.206414,151.009491 L378.833242,151.009491 L378.833242,151.92341 L378.833242,151.92341 Z M378.833242,153.934699 L378.086898,153.934699 L378.086898,150.372416 L379.576253,150.372416 C379.762839,150.372416 380.136011,150.3991 380.505851,150.579216 C380.692437,150.755996 380.875691,151.112891 380.875691,151.469786 C380.875691,151.85003 380.689105,152.233609 380.319265,152.383705 L380.875691,153.938035 L379.946093,153.938035 L379.386336,152.537137 L378.833242,152.537137 L378.833242,153.934699 L378.833242,153.934699 Z M379.389667,155.232198 C381.06894,155.232198 382.371709,153.857984 382.371709,152.150222 C382.371709,150.469145 381.06894,149.094931 379.389667,149.094931 C377.717058,149.094931 376.227703,150.469145 376.227703,152.150222 C376.227703,153.857984 377.717058,155.232198 379.389667,155.232198 L379.389667,155.232198 Z M375.298106,152.150222 C375.298106,149.93547 377.160633,148.13098 379.392999,148.13098 C381.628698,148.13098 383.487893,149.93547 383.487893,152.150222 C383.487893,154.391659 381.625366,156.196149 379.392999,156.196149 C377.157301,156.196149 375.298106,154.391659 375.298106,152.150222 L375.298106,152.150222 Z" fill="#FFF" transform="translate(31.000000, 25.000000)"/><path d="M109.666468,156.196149 L94.0299064,156.196149 L103.335877,107.351511 L81.9284801,156.196149 L67.7812731,156.196149 L65.1757347,107.658374 L55.8697646,156.196149 L41.7225576,156.196149 L53.8206519,92.6654315 L78.2034265,92.6654315 L79.3196099,132.017319 L96.6321129,92.6654315 L121.947817,92.6654315 L109.666468,156.196149" fill="#FFF" transform="translate(31.000000, 25.000000)"/><path d="M283.714432,155.589093 C279.432953,156.759843 276.081071,157.266835 272.542603,157.266835 C264.539402,157.266835 260.254591,153.247592 260.254591,145.919562 C260.254591,144.465297 260.441177,142.917639 260.627763,141.286593 L261.55736,136.216677 L262.300372,132.117383 L269.563893,92.6654315 L285.013869,92.6654315 L282.781503,104.526367 L290.784704,104.526367 L288.549005,117.101093 L280.545804,117.101093 L276.450911,138.658242 C276.264325,139.60218 276.264325,140.312636 276.264325,140.799614 C276.264325,143.474662 277.940266,144.618729 281.661987,144.618729 C283.337928,144.618729 284.644029,144.465297 285.756881,144.13175 L283.714432,155.589093" fill="#FFF" transform="translate(31.000000, 25.000000)"/><path d="M323.733769,119.365877 L323.363929,117.738167 L326.529225,109.642979 C325.779549,109.566263 325.40971,109.542915 325.40971,109.492883 C324.480112,109.312768 324.10694,109.212703 323.920355,109.212703 C323.550515,109.109304 322.990757,109.085956 322.434331,109.085956 C317.223255,109.085956 313.684787,111.35074 308.84355,117.461323 L310.522823,108.272101 L294.326503,108.272101 L284.830615,159.865167 L300.283923,159.865167 C302.329704,148.02758 303.262634,141.286593 304.565403,135.683002 C306.611183,126.393715 313.501533,122.167673 318.526024,123.108276 C319.08245,123.211675 319.455621,123.211675 320.198633,123.491855 L321.12823,123.845415 L323.733769,119.365877" fill="#231F20" transform="translate(31.000000, 25.000000)"/><path d="M329.131431,104.959978 C327.828662,104.449651 327.642076,104.449651 327.458822,104.399619 C326.709147,104.219503 326.152721,104.119439 326.152721,104.092755 C325.596296,104.01604 325.036538,103.966007 324.47678,103.966007 C319.452289,103.966007 315.730568,106.257476 310.889331,112.368059 L312.378686,104.526367 L298.231479,104.526367 L288.735591,156.196149 L304.372153,156.196149 C309.956402,124.609238 312.375354,119.062349 319.822129,119.062349 C320.381887,119.062349 320.938313,119.112382 321.684656,119.189097 L323.547183,119.569341 L329.131431,104.959978" fill="#FFF" transform="translate(31.000000, 25.000000)"/><path d="M221.911195,120.870175 C221.911195,127.38435 225.632917,131.890571 234.012622,135.276074 C240.339882,137.847722 241.272811,138.611545 241.272811,140.97973 C241.272811,144.185118 238.480687,145.636047 232.336681,145.636047 C227.495444,145.636047 223.213965,144.998972 218.189474,143.598075 L215.957107,155.512377 L216.700119,155.63579 L219.492243,156.142781 C220.42184,156.326232 221.914527,156.476328 223.773722,156.606412 C227.495444,156.886591 230.287568,157.036688 232.336681,157.036688 C249.086094,157.036688 256.719455,151.589863 256.719455,139.805644 C256.719455,132.704426 253.557491,128.5551 245.550958,125.423093 C239.037112,122.801413 238.287437,122.217705 238.287437,119.796153 C238.287437,117.021041 240.896307,115.596795 245.920798,115.596795 C249.082762,115.596795 253.180988,115.876975 257.275881,116.360618 L259.508248,104.399619 C255.413354,103.83926 249.27268,103.378965 245.550958,103.378965 C228.055201,103.3823 221.911195,111.324057 221.911195,120.870175" fill="#FFF" transform="translate(31.000000, 25.000000)"/><path d="M148.946125,133.188069 C147.270185,133.011289 146.523841,132.984606 145.407658,132.984606 C136.658113,132.984606 132.190048,135.629634 132.190048,140.846311 C132.190048,144.055034 134.239161,146.116355 137.774297,146.116355 C144.104889,146.119691 148.572954,140.822963 148.946125,133.188069 L148.946125,133.188069 L148.946125,133.188069 Z M160.297876,156.196149 L147.266853,156.196149 L147.640024,150.852724 C143.731717,155.098779 138.334054,157.08672 131.257119,157.08672 C122.880746,157.08672 117.109912,151.333032 117.109912,142.984348 C117.109912,130.406287 127.162225,123.054908 144.471397,123.054908 C146.147337,123.054908 148.379704,123.205005 150.798657,123.461836 C151.171828,121.754075 151.355082,121.043619 151.355082,120.103016 C151.355082,116.69083 148.562958,115.420015 141.302769,115.420015 C136.834704,115.420015 131.806881,115.95369 128.458331,116.844261 L126.225964,117.40462 L124.923195,117.738167 L126.972308,106.104044 C134.788923,104.119439 139.813414,103.3823 145.584248,103.3823 C158.985112,103.3823 166.062047,108.625661 166.062047,118.528674 C166.062047,121.073639 165.875461,123.008212 164.945864,128.758564 L161.593982,147.113661 L161.037556,150.395765 L160.664384,153.017445 L160.477798,154.795251 L160.297876,156.196149 L160.297876,156.196149 Z" fill="#FFF" transform="translate(31.000000, 25.000000)"/><path d="M203.112669,124.355742 L203.112669,121.707378 C203.112669,117.50802 200.507131,115.06312 195.85248,115.06312 C190.827989,115.06312 187.289521,118.345223 185.800166,124.329058 L203.112669,124.355742 L203.112669,124.355742 Z M211.305788,155.102114 C206.091379,156.503012 200.880303,157.190119 195.479308,157.190119 C177.983551,157.190119 168.860835,149.248363 168.860835,134.028608 C168.860835,116.313921 180.399172,103.255552 196.035734,103.255552 C208.880172,103.255552 217.069958,110.560234 217.069958,122.014241 C217.069958,125.833356 216.510201,129.54907 215.2041,134.789096 L184.307479,134.789096 C184.120893,135.579602 184.120893,135.936498 184.120893,136.416805 C184.120893,142.40064 188.772212,145.455932 197.708343,145.455932 C203.292591,145.455932 208.320414,144.435278 213.901331,142.170493 L211.305788,155.102114 L211.305788,155.102114 Z" fill="#FFF" transform="translate(31.000000, 25.000000)"/><path d="M361.520739,126.163567 C361.520739,120.766775 359.288372,115.653498 352.961112,115.653498 C344.957911,115.653498 340.120006,125.069533 340.120006,133.368185 C340.120006,140.392687 343.471888,145.105708 349.056136,144.998972 C352.408018,144.998972 359.664876,140.392687 360.967645,132.347531 C361.337485,130.46299 361.520739,128.405004 361.520739,126.163567 L361.520739,126.163567 Z M377.717058,132.784477 C375.294774,149.962153 363.379934,157.597047 347.376864,157.597047 C329.691189,157.597047 322.617585,146.880178 322.617585,133.771777 C322.617585,115.470047 334.71568,103.052088 353.334284,103.052088 C369.52394,103.052088 378.09023,113.25863 378.09023,126.367031 C378.09023,129.572419 378.09023,129.779218 377.717058,132.784477 L377.717058,132.784477 Z" fill="#FFF" transform="translate(31.000000, 25.000000)"/></g></svg>