<?xml version="1.0" encoding="utf-8"?>
<!-- Generator: Adobe Illustrator 25.2.0, SVG Export Plug-In . SVG Version: 6.00 Build 0)  -->
<svg version="1.1" id="Original" xmlns="http://www.w3.org/2000/svg" xmlns:xlink="http://www.w3.org/1999/xlink" x="0px" y="0px"
	 viewBox="0 0 195.5905 95.811" style="enable-background:new 0 0 195.5905 95.811;" xml:space="preserve">
<style type="text/css">
	.st0{fill:none;}
	.st1{fill:#1F3A6A;}
	.st2{fill:#5DC4E9;}
	.st3{fill:#004D86;}
	.st4{fill:#0D933A;}
</style>
<path class="st0" d="M193.0433,0H2.5472C1.1464,0,0,1.6034,0,3.5629v88.6853c0,1.9594,1.1464,3.5629,2.5472,3.5629h190.4961
	c1.4012,0,2.5472-1.6034,2.5472-3.5629V3.5629C195.5905,1.6034,194.4445,0,193.0433,0z"/>
<polygon class="st1" points="30.4789,17.9129 27.9849,17.9129 27.9849,18.5801 29.948,18.5801 34.8271,38.646 9.6407,38.646 
	14.5193,18.5801 16.4824,18.5801 16.4824,17.9129 13.988,17.9129 8.5039,39.5393 35.9634,39.5393 "/>
<path class="st2" d="M27.0388,9.1598h-9.6102c-0.5848,0-1.0611,0.4763-1.0611,1.0607v9.4256h0.8926v-9.4256
	c0-0.091,0.0771-0.1681,0.1685-0.1681h1.9324v6.8485h-1.7938l2.5708,2.7452h4.1916l2.5708-2.7452H25.106v-6.8485h1.9327
	c0.0921,0,0.1692,0.0771,0.1692,0.1681v9.4256h0.8911v-9.4256C28.0991,9.636,27.6236,9.1598,27.0388,9.1598z"/>
<g>
	<path class="st1" d="M20.2146,31.2898h4.0381c0.2688,0,0.4755-0.2194,0.4598-0.4875l-0.1546-2.646
		c-0.0154-0.2681-0.2479-0.4875-0.5167-0.4875h-3.615c-0.2685,0-0.501,0.2194-0.5167,0.4875l-0.1546,2.646
		C19.7391,31.0704,19.9462,31.2898,20.2146,31.2898z"/>
	<path class="st1" d="M18.1988,27.6688h-3.6476c-0.2685,0-0.5317,0.2153-0.5845,0.4789l-0.5362,2.6632
		c-0.0528,0.2632,0.1236,0.4789,0.392,0.4789h4.0666c0.2685,0,0.507-0.219,0.5298-0.4864l0.2265-2.6483
		C18.6683,27.8878,18.4672,27.6688,18.1988,27.6688z"/>
	<path class="st1" d="M20.3771,26.6167h3.7131c0.2145,0,0.3804-0.1756,0.3677-0.3898l-0.1236-2.117
		c-0.0127-0.2145-0.1988-0.3898-0.4134-0.3898h-3.3743c-0.2149,0-0.401,0.1752-0.4134,0.3898l-0.1239,2.117
		C19.9971,26.4411,20.1626,26.6167,20.3771,26.6167z"/>
	<path class="st1" d="M18.6522,23.7202h-3.4117c-0.2149,0-0.4253,0.1722-0.4676,0.3827l-0.4287,2.1308
		c-0.0423,0.2108,0.0985,0.383,0.3134,0.383h3.7464c0.2149,0,0.4059-0.1752,0.4242-0.389l0.1812-2.1185
		C19.0277,23.895,18.8667,23.7202,18.6522,23.7202z"/>
	<path class="st1" d="M29.8001,26.6167c0.2149,0,0.3557-0.1722,0.313-0.3827l-0.4306-2.1312
		c-0.0427-0.2104-0.2531-0.3827-0.468-0.3827h-3.399c-0.2149,0-0.3755,0.1749-0.3572,0.389l0.1808,2.1185
		c0.0183,0.2138,0.2093,0.389,0.4242,0.389H29.8001z"/>
	<path class="st1" d="M20.5392,22.7931h3.3889c0.188,0,0.3329-0.1535,0.322-0.3411l-0.0955-1.6343
		c-0.0112-0.1876-0.1737-0.3411-0.3621-0.3411h-3.1178c-0.188,0-0.3508,0.1535-0.3617,0.3411l-0.0959,1.6343
		C20.2064,22.6396,20.3513,22.7931,20.5392,22.7931z"/>
	<path class="st1" d="M29.0835,22.7931c0.188,0,0.3115-0.1509,0.2741-0.3351l-0.3329-1.6467
		c-0.0374-0.1842-0.2217-0.3347-0.4096-0.3347h-3.1436c-0.188,0-0.3287,0.1531-0.3126,0.3403l0.14,1.6358
		c0.0161,0.1872,0.1827,0.3403,0.3707,0.3403H29.0835z"/>
	<path class="st1" d="M18.9959,20.4766h-3.1593c-0.188,0-0.3718,0.1505-0.4089,0.3351l-0.3314,1.6463
		c-0.0371,0.1842,0.0865,0.3351,0.2744,0.3351h3.4271c0.188,0,0.3549-0.1531,0.3707-0.3403l0.14-1.6358
		C19.3246,20.6297,19.1838,20.4766,18.9959,20.4766z"/>
	<path class="st1" d="M30.6396,31.2898c0.2685,0,0.4448-0.2153,0.3913-0.4785l-0.5384-2.664
		c-0.0532-0.2632-0.3164-0.4785-0.5848-0.4785h-3.639c-0.2685,0-0.4695,0.219-0.4467,0.4864l0.2265,2.6483
		c0.0228,0.2673,0.2613,0.4864,0.5302,0.4864H30.6396z"/>
	<path class="st1" d="M24.2127,32.489h-3.958c-0.322,0-0.6013,0.2632-0.62,0.5852l-0.1962,3.3563
		c-0.0187,0.3216,0.2295,0.5848,0.5519,0.5848h4.4867c0.3224,0,0.5706-0.2632,0.5519-0.5848l-0.1962-3.3563
		C24.814,32.7523,24.535,32.489,24.2127,32.489z"/>
	<path class="st1" d="M17.6712,32.489h-3.9849c-0.322,0-0.6376,0.2587-0.7013,0.5747l-0.6796,3.3773
		c-0.0637,0.3156,0.1483,0.5744,0.4703,0.5744h4.508c0.3224,0,0.6084-0.2628,0.6361-0.5837l0.2872-3.3585
		C18.2343,32.7519,17.9932,32.489,17.6712,32.489z"/>
	<path class="st1" d="M31.4786,33.0634c-0.0637-0.3156-0.3797-0.5744-0.702-0.5744h-3.9801c-0.3224,0-0.5635,0.2628-0.5362,0.5841
		l0.2876,3.3585c0.0273,0.3209,0.3134,0.5837,0.6358,0.5837h4.508c0.3224,0,0.5335-0.2587,0.4699-0.5744L31.4786,33.0634z"/>
</g>
<g>
	<g>
		<path class="st1" d="M81.7436,17.9159H77.941v21.623h3.8026V17.9159z M69.387,28.8699c0,0.5429,0,2.6868-1.2502,4.642
			c-1.2932,2.0391-3.2338,3.0118-4.93,3.0118c-1.4546,0-2.9493-0.6298-3.967-1.5849c-1.5239-1.5093-1.9683-3.9299-1.9683-6.2412
			c0.0273-3.2631,0.9679-5.0992,2.5108-6.5119c0.5927-0.5961,1.8039-1.382,3.3874-1.382c1.0839,0,2.4547,0.4156,3.5869,1.3288
			C69.5109,24.4342,69.387,28.6606,69.387,28.8699 M71.3261,45.5918c1.6107-2.1278,1.7377-4.3358,1.8537-8.8666l-0.0483-18.8093
			h-3.6206v3.3406c-0.1239-0.1996-0.823-1.2917-1.7459-2.0376c-0.9585-0.8421-2.7415-1.765-5.1703-1.7264
			c-2.1713,0-3.8816,0.8312-4.724,1.385c-1.4044,0.9278-2.1405,1.8815-2.5416,2.479c-1.6942,2.3337-2.1439,5.1348-2.1439,7.5135
			c0,0.5961,0,2.6415,0.6414,4.5597c0.1659,0.5429,0.8922,2.962,3.0279,4.7611c1.1839,0.9649,2.9942,1.9283,5.7402,1.7976
			c1.5332-0.079,3.6367-0.5815,5.1703-1.8762c0.4879-0.4205,0.7762-0.7039,1.4557-1.6302l-0.0303,2.9669
			c-0.0854,0.963-0.1355,1.9264-0.5025,2.88c-0.1936,0.5927-0.5253,1.1352-0.9697,1.6396c-1.039,1.2015-2.3678,1.8264-4.9172,1.9166
			c-2.5045,0-4.5615-0.5927-5.5021-0.9181c-1.039-0.3785-1.6879-0.7908-2.1357-1.0405l-0.4025,3.7655
			c0.6088,0.2449,1.0562,0.4107,1.7055,0.6331c1.039,0.3302,3.3162,0.9132,6.0899,0.9132c2.9894,0,4.8899-0.6829,6.1816-1.3835
			C70.1647,47.0202,70.8412,46.2665,71.3261,45.5918 M77.6864,12.7718h4.1635V8.5034h-4.1635V12.7718z M95.8659,21.1262
			c1.0484,0,1.5834,0.185,2.6206,0.5167v-3.7977c-0.1917,0-1.3576-0.1805-2.3274-0.1805c-1.58,0-3.5611,0.3785-5.0928,2.2181
			c-0.24,0.2932-0.6122,0.8761-1.0566,1.6381l-0.1951-3.6049h-3.6367c0.1161,2.7108,0.2142,4.6001,0.2142,7.2705
			c0,3.1328-0.0595,5.3426-0.0595,8.4446v5.9046h3.9269V28.9523c0.1176-2.0503,0.2366-4.7645,2.3386-6.6085
			C94.0039,21.1262,95.3825,21.1262,95.8659,21.1262 M115.743,28.5191c0,2.3626-0.7346,5.8241-3.6371,7.4618
			c-0.5815,0.2917-1.58,0.7571-2.9991,0.7571c-0.3186,0-1.4928-0.0419-2.6172-0.5863c-0.243-0.1303-0.4849-0.2606-1.0596-0.6829
			c-0.5897-0.4429-1.4044-1.3352-2.0537-2.8411c-0.5639-1.3254-0.7556-2.7509-0.7185-4.1811
			c0.0693-2.9976,1.3176-5.1284,2.6206-6.2236c0.8537-0.7136,2.2196-1.5463,4.2474-1.5463c3.3469,0.0404,4.8304,2.339,5.5646,4.0961
			C115.3274,25.4054,115.743,26.8132,115.743,28.5191 M116.5884,37.1569c2.4996-2.5191,3.2181-5.945,3.1811-8.7105
			c-0.1176-5.3119-2.8991-8.4817-5.5328-9.8685c-0.9181-0.4527-2.4981-1.0356-4.7109-1.0356c-4.8498,0-7.9646,2.5127-9.4563,5.0962
			c-1.0596,1.844-1.446,3.9752-1.504,6.1528c-0.0404,4.3406,1.504,6.8968,3.3548,8.6959c0.4478,0.3737,0.8922,0.7181,1.3771,1.0064
			c1.2112,0.7941,2.9493,1.4546,5.8095,1.4546c2.1937,0,3.6386-0.4126,4.5694-0.8443
			C114.6475,38.6917,115.7041,38.0297,116.5884,37.1569"/>
	</g>
	<path class="st1" d="M123.1217,22.5127c0.1161,4.1796,0.1161,7.1514,0.1161,11.3516c0,5.2396-0.0872,10.4822-0.1161,15.7155h3.861
		V36.614c0.62,0.7518,0.7649,0.9548,1.2206,1.3752c1.0502,0.9166,2.7831,1.962,5.328,1.962c0.7458,0,4.1605-0.0453,6.8275-2.9635
		c3.2294-3.4679,2.962-8.1582,2.962-8.8587c-0.0513-1.5059-0.2464-3.1841-0.8664-4.7401c-1.039-2.6752-3.4986-5.9753-8.5963-5.9753
		c-0.5493,0-3.5222,0-5.7709,2.2274c-0.4107,0.3317-0.6893,0.7024-1.3367,1.5767l-0.1674-3.3016h-3.6386
		C123.0445,19.6409,123.0606,20.8038,123.1217,22.5127z M126.9149,28.5412c0-0.3864,0.0288-1.6879,0.4444-3.0133
		c1.0098-3.0556,3.2971-4.724,5.8484-4.724c2.0582,0,4.1152,1.1259,5.2587,3.5611c0.6328,1.3625,0.881,2.9216,0.7971,4.426
		c0,0.5414-0.0288,1.7991-0.562,3.3342c-1.4078,4.0168-4.6001,4.4099-5.6582,4.4099c-2.4562,0-4.7113-1.6493-5.6841-4.6372
		C127.195,31.2617,126.8666,30.0954,126.9149,28.5412z"/>
	<path class="st1" d="M183.1571,17.9137l-4.8221,11.7032l-2.1803,5.6679l-0.1501,0.3055c-0.5478-1.6224-1.303-3.6468-1.9923-5.5706
		l-4.4702-12.1061h-4.1493l8.685,21.6185l-4.2317,10.0475h3.8715l13.5356-31.6661H183.1571z"/>
	<path class="st1" d="M162.5524,20.7166c-1.1274-1.8874-4.0351-3.2166-7.4299-3.2166c-4.122,0-6.2094,1.4778-6.7807,1.8272v3.3982
		c0.8694-0.5167,3.366-2.0488,6.0529-2.0488c2.6236,0,4.684,1.5093,5.225,2.9216c0.3111,0.884,0.3902,1.9496,0.3902,2.8523
		c-1.0005-0.0494-2.0668-0.0902-3.1058-0.0902c-2.1319,0-5.1288,0.0902-7.2626,1.1356c-1.6575,0.7941-3.9269,2.3293-3.9269,5.7938
		c0,2.3693,1.1053,4.1066,2.1825,5.0198c1.2128,1.0278,2.84,1.4273,4.4923,1.5273c2.4659,0.0723,4.5825-0.6811,5.6518-1.437
		c0.92-0.7005,1.4823-1.3737,2.2907-2.2963v3.4319h3.3035V25.5777C163.6353,23.4173,163.1324,21.5897,162.5524,20.7166z
		 M160.1045,29.7959c0,1.4269-0.1269,2.2581-0.3284,2.922c-0.079,0.2876-0.3272,1.0064-0.9682,1.847
		c-1.2547,1.7077-3.3473,2.2903-4.8951,2.2903c-1.7781,0-4.1441-0.9256-4.1441-3.4641c0-2.5206,2.9418-3.8505,4.5728-4.1223
		c0.7298-0.1213,1.5175-0.1764,2.8576-0.1764c0.9679,0,1.9376,0.0288,2.9055,0.1108V29.7959z"/>
</g>
<g>
	<path class="st3" d="M151.9395,61.9973v2.3709h-3.103v-2.3709H151.9395z M144.5814,60.338v5.8328
		c-0.5524-0.5852-1.1078-0.9911-1.638-1.2243c-0.6693-0.2752-1.3634-0.4143-2.0874-0.4143c-1.4408,0-2.7202,0.5144-3.8275,1.5448
		c-1.2065,1.1182-1.8092,2.6451-1.8092,4.5794c0,1.6986,0.465,3.0756,1.3911,4.1305c1.0494,1.1916,2.4436,1.7915,4.1908,1.7915
		c0.9144,0,1.7292-0.1894,2.4305-0.5797c0.4517-0.2449,0.9027-0.6762,1.3498-1.285v1.4725h3.1064V60.338H144.5814z
		 M143.8466,72.9394c-0.5852,0.7635-1.3444,1.143-2.2856,1.143c-0.8266,0-1.5298-0.3015-2.1168-0.9045
		c-0.6197-0.6237-0.9314-1.4639-0.9314-2.5091c0-0.8268,0.2061-1.5503,0.6061-2.1771c0.5875-0.9038,1.4112-1.3562,2.4675-1.3562
		c0.8691,0,1.5822,0.333,2.1496,0.9987c0.5681,0.66,0.8454,1.4954,0.8454,2.5135
		C144.5814,71.5322,144.3365,72.2991,143.8466,72.9394z M151.9395,64.9254v11.2607h-3.103V64.9254H151.9395z M183.4948,67.4642
		v5.4015c0,0.2864,0.071,0.4741,0.2046,0.572c0.1515,0.1005,0.378,0.153,0.6798,0.153h2.0806v2.5912h-4.0237
		c-0.7193,0-1.2529-0.18-1.6041-0.5375c-0.2933-0.3077-0.4378-0.8439-0.4378-1.6126V60.8731h3.1007v3.9876h2.965v2.6035H183.4948z
		 M180.0977,64.9211h-3.5841l-3.1486,4.3164v-8.3241h-3.1066v7.72c-0.2217-0.7345-0.578-1.3983-1.0637-1.9891
		c-1.1695-1.4133-2.7476-2.1163-4.7457-2.1163c-1.1748,0-2.2251,0.261-3.1408,0.7846c-0.4411,0.2472-0.8204,0.5468-1.1644,0.894
		v-1.3244h-3.5351c-0.6537,0.0598-1.2437,0.2232-1.7633,0.4913c-0.4421,0.2215-0.8434,0.5507-1.2098,0.9891
		c-0.3801,0.4379-0.5631,1.0425-0.5631,1.8126v7.9932h3.1085v-7.6149c0.0534-0.1749,0.145-0.3387,0.2764-0.4875
		c0.1178-0.1199,0.2879-0.2289,0.4993-0.3338c0.2075-0.104,0.483-0.1546,0.8184-0.1546h1.4032
		c-0.4547,0.9077-0.6764,1.8936-0.6764,2.9545c0,1.6841,0.5065,3.0586,1.5167,4.1318c1.2068,1.2737,2.7462,1.9102,4.6177,1.9102
		c1.3954,0,2.6549-0.4316,3.7732-1.3043c0.6907-0.5412,1.252-1.2525,1.6976-2.1314l-2.8342-0.7845
		c-0.1915,0.3746-0.4613,0.6763-0.8004,0.9037c-0.5532,0.371-1.1479,0.5606-1.8009,0.5606c-0.9363,0-1.6954-0.3428-2.282-1.0239
		c-0.3445-0.3902-0.5628-0.8927-0.6697-1.5108h8.5386v4.8982h3.1066v-4.672l3.1413,4.672h3.5915l-3.8429-5.8624L180.0977,64.9211z
		 M161.7094,69.5116c0.1199-0.5963,0.3305-1.0697,0.6317-1.4282c0.5417-0.6254,1.2485-0.9385,2.1426-0.9385
		c0.9267,0,1.6688,0.313,2.2367,0.9385c0.3254,0.3585,0.5404,0.8319,0.6387,1.4282H161.7094z"/>
</g>
<g>
	<path class="st4" d="M116.4274,88.0283c-0.5533-1.7329,0.407-3.5945,2.1445-4.1452c1.7373-0.5513,3.5956,0.4025,4.147,2.1443
		c0.5535,1.7363-0.4077,3.596-2.1447,4.1456C118.8367,90.7322,116.9794,89.7703,116.4274,88.0283z"/>
	<path class="st4" d="M109.3584,88.1982c-0.3989-1.2557,0.2931-2.5885,1.5405-2.9841c1.2488-0.3965,2.5831,0.2949,2.9811,1.5408
		c0.3957,1.2448-0.2925,2.5813-1.5416,2.9841C111.0898,90.1336,109.7556,89.4423,109.3584,88.1982z"/>
	<path class="st4" d="M103.8944,85.3063c-0.3189-1.0012,0.2322-2.0762,1.2366-2.3911c1.0015-0.323,2.0736,0.2377,2.3926,1.2386
		c0.3184,0.9996-0.2352,2.068-1.2384,2.39C105.2846,86.8651,104.2135,86.3078,103.8944,85.3063z"/>
	<path class="st4" d="M130.9775,64.9309l-2.6296,6.6952l-2.2848-6.6952h-3.0524h-0.2417h-2.8634v1.4253
		c-0.451-0.5304-0.8864-0.9228-1.3074-1.1774c-0.697-0.4202-1.4912-0.6301-2.3796-0.6301c-1.0712,0-2.0331,0.2625-2.8901,0.7853
		c-0.848,0.5076-1.5036,1.1925-1.9629,2.0593c-0.1677,0.3086-0.3065,0.6327-0.4231,0.9591
		c-0.3961-1.1839-1.1385-2.1448-2.2295-2.8757c-0.9264-0.6268-1.9693-0.939-3.1277-0.939c-0.9744,0-1.8121,0.2107-2.5089,0.629
		c-0.4129,0.2469-0.8136,0.6303-1.2028,1.1546v-1.3904h-3.1023v15.7353h3.1023v-5.6999c0.9355,1.0775,2.1938,1.6176,3.7714,1.6176
		c1.3089,0,2.4394-0.3441,3.3905-1.0447c0.8916-0.65,1.5148-1.4973,1.8764-2.5388c0.2152,0.6162,0.5248,1.173,0.9292,1.6733
		c1.0475,1.2737,2.4302,1.9102,4.1513,1.9102c1.5861,0,2.8918-0.6425,3.9131-1.9364v1.5442h3.105V65.6006l3.7099,10.3349
		l-1.0925,3.1176c1.113-0.2388,2.2412,0.1571,2.9683,0.9708l5.6772-15.0929H130.9775z M107.3635,72.81
		c-0.5803,0.8486-1.4089,1.2724-2.4861,1.2724c-0.8733,0-1.59-0.3015-2.155-0.9045c-0.5617-0.6035-0.8442-1.4325-0.8442-2.4842
		c0-0.8875,0.2044-1.6364,0.6076-2.238c0.5952-0.88,1.4247-1.3202,2.4858-1.3202c0.8638,0,1.5826,0.3201,2.153,0.9642
		c0.5716,0.64,0.856,1.4978,0.856,2.5691C107.9806,71.4956,107.7752,72.2076,107.3635,72.81z M119.1577,72.9231
		c-0.6114,0.7754-1.3842,1.1649-2.3202,1.1649c-0.7767,0-1.4419-0.2831-1.9987-0.8446c-0.6581-0.6564-0.9859-1.5237-0.9859-2.5901
		c0-0.8987,0.2417-1.6843,0.726-2.3557c0.5461-0.7539,1.307-1.131,2.2828-1.131c1.0071,0,1.7992,0.37,2.3783,1.1176
		c0.4766,0.6189,0.7148,1.3762,0.7148,2.2706C119.9548,71.4501,119.6878,72.2413,119.1577,72.9231z M126.7151,84.8306
		c1.2574-0.3981,1.9539-1.7381,1.5545-2.9987c-0.4021-1.2611-1.7484-1.9564-3.0043-1.5507
		c-1.2563,0.3999-1.9507,1.7395-1.5523,3.0011C124.115,84.5426,125.459,85.2367,126.7151,84.8306z"/>
</g>
</svg>
