<?xml version="1.0" encoding="utf-8"?>
<!-- Generator: Adobe Illustrator 23.0.1, SVG Export Plug-In . SVG Version: 6.00 Build 0)  -->
<svg version="1.1" id="Ebene_1" xmlns="http://www.w3.org/2000/svg" xmlns:xlink="http://www.w3.org/1999/xlink" x="0px" y="0px"
	 viewBox="0 0 120 80" style="enable-background:new 0 0 120 80;" xml:space="preserve" width="120px" height="80px">
<style type="text/css">
	.st0{fill-rule:evenodd;clip-rule:evenodd;fill:#FFFFFF;}
	.st1{fill-rule:evenodd;clip-rule:evenodd;fill:#243588;}
</style>
<path class="st0" d="M4,0h112c2.2,0,4,1.8,4,4v72c0,2.2-1.8,4-4,4H4c-2.2,0-4-1.8-4-4V4C0,1.8,1.8,0,4,0z"/>
<title>Ideal Payment</title>
<desc>ideal Billing+</desc>
<g>
	<path class="st1" d="M39.6,16.5v5.8l41.5,21V16.5H39.6z"/>
	<path class="st1" d="M81.1,48.3v8.2L27.6,16.7L81.1,48.3z"/>
	<path class="st1" d="M93.6,69.8L25.8,19.4l54.8,50.4H93.6z"/>
	<path class="st1" d="M60.3,56.5L19.1,16.7l20.5,26.8v13H60.3z"/>
</g>
<title>Tabelle.4</title>
<desc>Keeping The Focus</desc>
</svg>
