<svg xmlns="http://www.w3.org/2000/svg" width="31.75mm" height="21.167mm" viewBox="0 0 31.75 21.167" shape-rendering="geometricPrecision" text-rendering="geometricPrecision" image-rendering="optimizeQuality" fill-rule="evenodd" clip-rule="evenodd"><defs><style>.fil2{fill:#0a3782;fill-rule:nonzero}</style></defs><g id="Layer_x0020_1"><path d="M1.0583 0.0002l29.6334 0c0.5843,0 1.0582,0.4739 1.0582,1.0583l0.0001 19.05c-0.0001,0.5842 -0.474,1.0581 -1.0584,1.0581l-29.6333 0.0002c-0.5843,-0.0002 -1.0582,-0.4741 -1.0582,-1.0585l-0.0001 -19.0498c0.0001,-0.5844 0.474,-1.0583 1.0584,-1.0583z" fill="none" stroke="#c5c6c6" stroke-width=".0762"/><path id="1" d="M1.0583 0.0002l29.6334 0c0.5843,0 1.0582,0.4739 1.0582,1.0583l0.0001 19.05c-0.0001,0.5842 -0.474,1.0581 -1.0584,1.0581l-29.6333 0.0002c-0.5843,-0.0002 -1.0582,-0.4741 -1.0582,-1.0585l-0.0001 -19.0498c0.0001,-0.5844 0.474,-1.0583 1.0584,-1.0583z" fill="#fefefe"/><g><path class="fil2" d="M26.7308 6.6391c0.2273,0 0.5399,-0.0568 0.7152,-0.1752l-0.199 -0.4832c-0.0852,0.0521 -0.2084,0.0948 -0.3268,0.0948 -0.1421,0 -0.2084,-0.0711 -0.2084,-0.2842l0 -0.8904 0.521 0 0.1611 -0.5494 -0.6821 0 0 -0.7342 -0.7151 0.2036 0 0.5306 -0.4216 0 0 0.5494 0.4216 0 0 1.0798c0,0.4074 0.2842,0.6584 0.7341,0.6584zm-2.0461 0c0.3268,0 0.6252,-0.0948 0.8147,-0.2321l-0.199 -0.4831c-0.1705,0.0947 -0.3221,0.1516 -0.5116,0.1516 -0.3361,0 -0.5588,-0.2084 -0.5588,-0.5968 0,-0.3457 0.2131,-0.6205 0.5873,-0.6205 0.2179,0 0.3884,0.0662 0.5542,0.1942l0 -0.5921c-0.1137,-0.0758 -0.3174,-0.1657 -0.6395,-0.1657 -0.6488,0 -1.2314,0.4642 -1.2314,1.1888 0,0.6631 0.4262,1.1557 1.1841,1.1557zm-2.2734 -1.0468l0 0.4168c-0.0521,0.0332 -0.1705,0.0806 -0.3268,0.0806 -0.1705,0 -0.2795,-0.0758 -0.2795,-0.2321 0,-0.0947 0.0331,-0.1516 0.0995,-0.1942 0.0616,-0.0379 0.1516,-0.0569 0.2653,-0.0616l0.2415 -0.0095zm0.1657 0.9994l0.5874 0c-0.0379,-0.1231 -0.0379,-0.3031 -0.0379,-0.4404l0 -1.0042c0,-0.5447 -0.2842,-0.8525 -0.9758,-0.8525 -0.3551,0 -0.6583,0.0852 -0.9235,0.2179l0.2226 0.4499c0.161,-0.0852 0.379,-0.1374 0.5683,-0.1374 0.2416,0 0.3932,0.0853 0.3932,0.2936l0 0.0238 -0.3552 0.0142c-0.2273,0.0095 -0.431,0.052 -0.5921,0.1373 -0.2321,0.1232 -0.3742,0.3079 -0.3742,0.611 0,0.431 0.3221,0.7342 0.7626,0.7342 0.2794,0 0.4736,-0.1042 0.6252,-0.2369l0.0994 0.1895zm-2.3539 0.0474c0.2274,0 0.5399,-0.0568 0.7152,-0.1752l-0.1989 -0.4832c-0.0852,0.0521 -0.2085,0.0948 -0.3269,0.0948 -0.1421,0 -0.2083,-0.0711 -0.2083,-0.2842l0 -0.8904 0.5209 0 0.1611 -0.5494 -0.682 0 0 -0.7342 -0.7152 0.2036 0 0.5306 -0.4216 0 0 0.5494 0.4216 0 0 1.0798c0,0.4074 0.2841,0.6584 0.7341,0.6584zm-3.5997 -0.0474l0.7153 0 0 -1.5156c0.1326,-0.1043 0.3078,-0.1658 0.4547,-0.1658 0.2652,0 0.303,0.199 0.303,0.431l0 1.2504 0.7152 0 0 -1.4635c0,-0.6915 -0.3931,-0.8336 -0.753,-0.8336 -0.2747,0 -0.5257,0.1088 -0.7532,0.2841l-0.0709 -0.2272 -0.6111 0 0 2.2402zm-1.5297 -0.5162c-0.3174,0 -0.45,-0.2653 -0.45,-0.6111 0,-0.3458 0.1326,-0.6062 0.45,-0.6062 0.3172,0 0.4499,0.2604 0.4499,0.6062 0,0.3458 -0.1327,0.6111 -0.4499,0.6111zm0 0.5636c0.6962,0 1.1793,-0.4926 1.1793,-1.1747 0,-0.682 -0.4831,-1.1698 -1.1793,-1.1698 -0.6963,0 -1.1794,0.4878 -1.1794,1.1698 0,0.6821 0.4831,1.1747 1.1794,1.1747zm-2.1646 0c0.3268,0 0.6252,-0.0948 0.8146,-0.2321l-0.1989 -0.4831c-0.1705,0.0947 -0.3221,0.1516 -0.5115,0.1516 -0.3363,0 -0.5589,-0.2084 -0.5589,-0.5968 0,-0.3457 0.2132,-0.6205 0.5873,-0.6205 0.2179,0 0.3884,0.0662 0.5542,0.1942l0 -0.5921c-0.1137,-0.0758 -0.3174,-0.1657 -0.6394,-0.1657 -0.6489,0 -1.2315,0.4642 -1.2315,1.1888 0,0.6631 0.4263,1.1557 1.1841,1.1557zm-3.7228 -0.0474l0.7152 0 0 -1.5156c0.1326,-0.1043 0.3079,-0.1658 0.4547,-0.1658 0.2652,0 0.3031,0.199 0.3031,0.431l0 1.2504 0.7152 0 0 -1.4635c0,-0.6915 -0.3931,-0.8336 -0.7531,-0.8336 -0.2746,0 -0.5257,0.1088 -0.7531,0.2841l-0.071 -0.2272 -0.611 0 0 2.2402zm-1.1698 -0.9994l0 0.4168c-0.0521,0.0332 -0.1705,0.0806 -0.3268,0.0806 -0.1705,0 -0.2795,-0.0758 -0.2795,-0.2321 0,-0.0947 0.0332,-0.1516 0.0995,-0.1942 0.0616,-0.0379 0.1516,-0.0569 0.2652,-0.0616l0.2416 -0.0095zm0.1658 0.9994l0.5873 0c-0.0379,-0.1231 -0.0379,-0.3031 -0.0379,-0.4404l0 -1.0042c0,-0.5447 -0.2842,-0.8525 -0.9757,-0.8525 -0.3552,0 -0.6584,0.0852 -0.9236,0.2179l0.2226 0.4499c0.161,-0.0852 0.3789,-0.1374 0.5684,-0.1374 0.2415,0 0.3931,0.0853 0.3931,0.2936l0 0.0238 -0.3552 0.0142c-0.2274,0.0095 -0.431,0.052 -0.5921,0.1373 -0.2321,0.1232 -0.3742,0.3079 -0.3742,0.611 0,0.431 0.3221,0.7342 0.7626,0.7342 0.2794,0 0.4736,-0.1042 0.6252,-0.2369l0.0995 0.1895zm-3.3154 -1.8709l0 -0.6583 0.1989 0c0.2699,0 0.3978,0.1516 0.3978,0.3363 0,0.1705 -0.1279,0.322 -0.3788,0.322l-0.2179 0zm0 1.2836l0 -0.6963 0.3647 0c0.2699,0 0.431,0.1184 0.431,0.3268 0,0.2511 -0.1517,0.3695 -0.4974,0.3695l-0.2983 0zm-0.7247 0.5873l1.1272 0c0.7484,0 1.1178,-0.4926 1.1178,-0.952 0,-0.3411 -0.1942,-0.6442 -0.573,-0.7484l0 -0.0094c0.2368,-0.1327 0.3551,-0.3836 0.3551,-0.6205 0,-0.3931 -0.3031,-0.791 -0.9804,-0.791l-1.0467 0 0 3.1213z"/><path class="fil2" d="M25.2952 17.65l0.703 0 0 -1.4897c0.1303,-0.1024 0.3025,-0.163 0.4469,-0.163 0.2606,0 0.298,0.1956 0.298,0.4237l0 1.229 0.7028 0 0 -1.4386c0,-0.6795 -0.3863,-0.8192 -0.7402,-0.8192 -0.2746,0 -0.526,0.121 -0.7075,0.2746l0 -1.3128 -0.703 0 0 3.296zm-2.2346 -0.1862c0.2096,0.1303 0.5308,0.2328 0.9125,0.2328 0.4888,0 0.9497,-0.1909 0.9497,-0.7077 0,-0.7821 -1.0382,-0.675 -1.0382,-0.9264 0,-0.0837 0.0698,-0.1303 0.2421,-0.1303 0.2421,0 0.4702,0.0698 0.6797,0.1536l0 -0.5819c-0.2002,-0.0698 -0.4422,-0.1117 -0.7076,-0.1117 -0.5447,0 -0.8985,0.2792 -0.8985,0.7028 0,0.7403 1.0382,0.6146 1.0382,0.9125 0,0.1118 -0.1304,0.149 -0.3305,0.149 -0.2049,0 -0.4424,-0.0698 -0.6331,-0.1956l-0.2143 0.5029zm-1.0101 -0.796l0 0.4096c-0.0511,0.0326 -0.1676,0.0791 -0.3212,0.0791 -0.1676,0 -0.2747,-0.0744 -0.2747,-0.2281 0,-0.0931 0.0326,-0.149 0.0978,-0.1909 0.0605,-0.0372 0.1489,-0.0558 0.2607,-0.0604l0.2374 -0.0093zm0.1629 0.9822l0.5773 0c-0.0373,-0.121 -0.0373,-0.298 -0.0373,-0.433l0 -0.9869c0,-0.5353 -0.2792,-0.8379 -0.959,-0.8379 -0.3491,0 -0.6471,0.0837 -0.9076,0.2141l0.2187 0.4423c0.1583,-0.0838 0.3724,-0.135 0.5586,-0.135 0.2374,0 0.3864,0.0837 0.3864,0.2885l0 0.0233 -0.3492 0.014c-0.2234,0.0094 -0.4236,0.0513 -0.5818,0.135 -0.2281,0.121 -0.3678,0.3027 -0.3678,0.6005 0,0.4236 0.3165,0.7217 0.7495,0.7217 0.2746,0 0.4655,-0.1025 0.6145,-0.2328l0.0977 0.1862zm-1.9133 -0.7728c-0.2281,0.135 -0.4515,0.2281 -0.7728,0.2281 -0.5772,0 -0.9403,-0.3957 -0.9403,-0.9683 0,-0.526 0.2885,-0.9962 0.9496,-0.9962 0.2887,0 0.5634,0.0698 0.8194,0.2048l0 -0.6518c-0.2142,-0.0885 -0.4934,-0.1442 -0.838,-0.1442 -1.0381,0 -1.6899,0.7168 -1.6899,1.5967 0,0.8986 0.5494,1.5503 1.6107,1.5503 0.3259,0 0.6798,-0.0559 1.0569,-0.2607l-0.1956 -0.5587zm-4.9207 0.7728l0.703 0 0 -1.513c0.1536,-0.1163 0.2514,-0.149 0.3817,-0.149 0.0559,0 0.1723,0.014 0.298,0.0931l0.2468 -0.5772c-0.1118,-0.0791 -0.2514,-0.1117 -0.3632,-0.1117 -0.2467,0 -0.4236,0.1257 -0.5959,0.2792l-0.0744 -0.2235 -0.596 0 0 2.2021zm-1.7457 -1.3547c0,-0.1956 0.1118,-0.3817 0.3445,-0.3817 0.2561,0 0.3538,0.1907 0.3584,0.3817l-0.7029 0zm1.4059 0.4655l0 -0.1629c0,-0.7495 -0.3863,-1.2057 -1.0474,-1.2057 -0.6936,0 -1.0521,0.5214 -1.0521,1.1825 0,0.5632 0.3166,1.1219 1.1917,1.1219 0.2887,0 0.568,-0.0559 0.8286,-0.2142l-0.2048 -0.4749c-0.1629,0.0932 -0.3351,0.149 -0.5678,0.149 -0.298,0 -0.5308,-0.1256 -0.5448,-0.3957l1.3966 0zm-2.9653 0.9358c0.2234,0 0.5306,-0.0559 0.7028,-0.1723l-0.1954 -0.4748c-0.0838,0.0512 -0.2049,0.093 -0.3213,0.093 -0.1396,0 -0.2047,-0.0697 -0.2047,-0.2793l0 -0.8752 0.512 0 0.1583 -0.5401 -0.6703 0 0 -0.7215 -0.703 0.2003 0 0.5212 -0.4143 0 0 0.5401 0.4143 0 0 1.0615c0,0.4004 0.2793,0.6471 0.7216,0.6471zm-3.1657 -0.2328c0.2095,0.1303 0.5307,0.2328 0.9125,0.2328 0.4888,0 0.9497,-0.1909 0.9497,-0.7077 0,-0.7821 -1.0382,-0.675 -1.0382,-0.9264 0,-0.0837 0.0698,-0.1303 0.2421,-0.1303 0.2421,0 0.4702,0.0698 0.6796,0.1536l0 -0.5819c-0.2001,-0.0698 -0.4422,-0.1117 -0.7075,-0.1117 -0.5447,0 -0.8985,0.2792 -0.8985,0.7028 0,0.7403 1.0381,0.6146 1.0381,0.9125 0,0.1118 -0.1303,0.149 -0.3305,0.149 -0.2049,0 -0.4423,-0.0698 -0.6332,-0.1956l-0.2141 0.5029zm-0.6331 -2.2765c0.2374,0 0.419,-0.1862 0.419,-0.405 0,-0.2281 -0.1816,-0.4004 -0.419,-0.4004 -0.2375,0 -0.4189,0.1816 -0.4189,0.4004 0,0.2281 0.1814,0.405 0.4189,0.405zm-0.3538 2.4627l0.703 0 0 -2.2021 -0.703 0 0 2.2021zm-3.7661 0l0.7123 0 0 -1.5875c0,-0.0837 0,-0.2048 -0.0047,-0.3072l0.0093 0c0.0652,0.1163 0.1396,0.2095 0.2049,0.2979l0.5679 0.7821 0.3119 0 0.4981 -0.7542c0.0512,-0.0791 0.1769,-0.2606 0.2049,-0.3258l0.0046 0c-0.0046,0.0931 -0.0046,0.2188 -0.0046,0.3305l0 1.5642 0.7122 0 0 -3.0679 -0.6471 0 -0.689 1.0475c-0.093,0.1443 -0.1676,0.2746 -0.2234,0.3864l-0.0093 0c-0.0699,-0.1211 -0.1444,-0.2328 -0.2374,-0.3631l-0.7682 -1.0708 -0.6424 0 0 3.0679z"/><polygon class="fil2" points="10.316,12.0155 14.6179,12.0155 16.9433,9.4624 21.3029,9.4624 17.6606,13.5024 4.1462,13.5024 4.1462,10.7964 11.3956,10.7964"/><polygon points="21.3029,9.4624 16.9434,9.4624 14.6178,12.0174 10.2893,12.0174 13.9534,7.9774 27.4459,7.9774 27.4459,10.6834 20.203,10.6834" fill="#fad103" fill-rule="nonzero"/><path class="fil2" d="M3.9517 1.3759c-0.102,0.0005 -2.5188,0.042 -2.5188,2.5188l0 13.3776c0.0006,0.102 0.0419,2.5187 2.5188,2.5187l23.8457 0c0.1029,-0.0005 2.5197,-0.0419 2.5197,-2.5187l0 -13.3776c-0.0005,-0.102 -0.0419,-2.5188 -2.5187,-2.5188l-23.8467 0zm23.8467 19.1182l-23.8467 0c-1.6623,0 -2.4543,-0.8861 -2.8259,-1.6295 -0.3914,-0.7828 -0.3959,-1.5597 -0.3959,-1.5923l0 -13.3776c0,-1.6623 0.886,-2.4542 1.6294,-2.8258 0.7828,-0.3914 1.5597,-0.396 1.5924,-0.396l23.8467 0c1.6622,0 2.4541,0.8861 2.8258,1.6294 0.3914,0.7828 0.3959,1.5597 0.3959,1.5924l0 13.3776c0,1.6623 -0.886,2.4542 -1.6294,2.8258 -0.7828,0.3914 -1.5597,0.396 -1.5923,0.396z"/></g></g></svg>