<svg id="b5faada0-a42a-4612-91fe-6cd61be03b00" data-name="Ebene 1" xmlns="http://www.w3.org/2000/svg" width="120" height="80" viewBox="0 0 120 80">
  <rect width="120" height="80" rx="4" style="fill: #fff"/>
  <path d="M60.4973,41.01l-3.1915,10.77H74.3769a.8754.8754,0,0,1,.8379,1.12L73.73,58.0138a1.1727,1.1727,0,0,1-1.1278.8464H46.5293l4.4083-14.89-4.8759,1.4844,1.076-3.48L52.0215,40.49,58.2109,19.575a1.1647,1.1647,0,0,1,1.1215-.8538h6.6052a.8763.8763,0,0,1,.8464,1.1135L61.5881,37.5216l4.8764-1.4844-1.0464,3.54L60.4973,41.01ZM60,9.3175A30.6825,30.6825,0,1,0,90.6825,40,30.6825,30.6825,0,0,0,60,9.3175Z" style="fill: #345d9d;fill-rule: evenodd"/>
</svg>
