<?xml version="1.0" encoding="UTF-8"?>
<!DOCTYPE svg PUBLIC "-//W3C//DTD SVG 1.1//EN" "http://www.w3.org/Graphics/SVG/1.1/DTD/svg11.dtd">
<!-- Creator: CorelDRAW -->
<svg xmlns="http://www.w3.org/2000/svg" xml:space="preserve" width="31.75mm" height="21.167mm" style="shape-rendering:geometricPrecision; text-rendering:geometricPrecision; image-rendering:optimizeQuality; fill-rule:evenodd; clip-rule:evenodd"
viewBox="0 0 31.75 21.167"
 xmlns:xlink="http://www.w3.org/1999/xlink">
 <defs>
  <style type="text/css">
   <![CDATA[
    .str0 {stroke:#C5C6C6;stroke-width:0.0762}
    .fil0 {fill:none}
    .fil2 {fill:#FF100C}
    .fil1 {fill:white}
   ]]>
  </style>
 </defs>
 <g id="Layer_x0020_1">
  <metadata id="CorelCorpID_0Corel-Layer"/>
  <g>
   <path class="fil0 str0" d="M1.0583 0.0002l29.6334 0c0.5843,0 1.0582,0.4739 1.0582,1.0583l0.0001 19.05c-0.0001,0.5842 -0.474,1.0581 -1.0584,1.0581l-29.6333 0.0002c-0.5843,-0.0002 -1.0582,-0.4741 -1.0582,-1.0585l-0.0001 -19.0498c0.0001,-0.5844 0.474,-1.0583 1.0584,-1.0583z"/>
   <path id="1" class="fil1" d="M1.0583 0.0002l29.6334 0c0.5843,0 1.0582,0.4739 1.0582,1.0583l0.0001 19.05c-0.0001,0.5842 -0.474,1.0581 -1.0584,1.0581l-29.6333 0.0002c-0.5843,-0.0002 -1.0582,-0.4741 -1.0582,-1.0585l-0.0001 -19.0498c0.0001,-0.5844 0.474,-1.0583 1.0584,-1.0583z"/>
  </g>
  <path class="fil2" d="M3.7592 10.5689c-0.1496,-0.2371 -0.182,-0.5527 -0.182,-0.7948 0,-0.8243 0.7363,-1.5202 1.5036,-1.5202l2.4043 0 -0.9331 0.9414 -1.4875 0c-0.5982,0 -1.3215,0.6063 -1.3053,1.3736zm0.9169 -0.6747c0.0618,-0.1983 0.2553,-0.4518 0.4374,-0.5852 -0.3481,0 -0.7398,0.166 -1.0389,0.5853l0.6015 -0.0001zm0.4812 -0.468c-0.1366,0.1204 -0.2861,0.3024 -0.3625,0.4681l0.7218 -0.0001c-0.0764,-0.1656 -0.226,-0.3476 -0.3593,-0.468zm-1.1428 0.59c-0.0894,0.161 -0.1333,0.3432 -0.1496,0.5251l0.6746 0c0,-0.182 0.0326,-0.3641 0.0926,-0.5251l-0.6176 0zm0.7347 0c-0.06,0.161 -0.0877,0.3432 -0.104,0.5251l1.0209 0c-0.0162,-0.182 -0.0439,-0.3641 -0.104,-0.5251l-0.8129 0zm1.4746 -0.122c-0.2862,-0.4192 -0.678,-0.5852 -1.021,-0.5852 0.1773,0.1334 0.3593,0.387 0.4357,0.5853l0.5853 -0.0001zm-0.5414 0.122c0.0618,0.161 0.0893,0.3432 0.0893,0.5251l0.6747 0c-0.0113,-0.182 -0.0569,-0.3641 -0.1495,-0.5251l-0.6145 0zm-1.6078 1.26c0.2991,0.4371 0.6908,0.5868 1.0389,0.5868 -0.1821,-0.1382 -0.3756,-0.3918 -0.4374,-0.5868l-0.6015 0zm1.0827 0.481c0.1333,-0.1202 0.2829,-0.3153 0.3593,-0.481l-0.7218 0c0.0764,0.1657 0.2259,0.3608 0.3625,0.481zm-0.5252 -0.5852c-0.06,-0.182 -0.0926,-0.3608 -0.0926,-0.5251l-0.6746 0c0.0163,0.1773 0.0602,0.3595 0.1496,0.5251l0.6176 0zm0.93 0c0.0601,-0.1656 0.0878,-0.3478 0.104,-0.5251l-1.0209 0c0.0163,0.1773 0.044,0.3595 0.104,0.5251l0.8129 0zm0.0764 0.1042c-0.0764,0.195 -0.2584,0.4486 -0.4357,0.5868 0.343,0 0.7348,-0.1496 1.021,-0.5868l-0.5853 0zm0.6584 -0.1042c0.0926,-0.1656 0.1382,-0.3478 0.1495,-0.5251l-0.6747 0c0,0.1642 -0.0275,0.3431 -0.0893,0.5251l0.6145 0zm0.2551 -0.5868c0.0164,0.7965 -0.7038,1.398 -1.3054,1.398l-1.4874 -0.0001 -0.9331 0.93 2.4044 0c0.7674,0 1.5037,-0.6908 1.5037,-1.5149 0,-0.2424 -0.0292,-0.5578 -0.1822,-0.7967l0 -0.0163zm7.029 1.2747c-0.6248,0 -1.0721,-0.3752 -1.0721,-0.9624 0,-0.5799 0.4635,-0.9656 1.0721,-0.9656 0.6086,-0.0001 1.0719,0.3832 1.0719,0.9656 0,0.5871 -0.451,0.9624 -1.0719,0.9624zm10.6817 -1.8833l0 1.8445 -0.6232 0 -0.0095 -0.186 -0.0135 0c-0.0692,0.0623 -0.2131,0.2267 -0.6149,0.2267 -0.4456,0 -0.8362,-0.3873 -0.8362,-0.9648 0,-0.5356 0.3463,-0.9633 0.8772,-0.9633 0.3611,0 0.5086,0.159 0.564,0.2099l0.0166 -0.0001 0.0063 -0.1669 0.6332 0zm-4.8105 0.0008l0 1.8447 -0.6234 0 -0.0093 -0.1862 -0.0135 0c-0.0692,0.0623 -0.213,0.2267 -0.6149,0.2267 -0.4456,0 -0.836,-0.3873 -0.836,-0.9644 0,-0.5359 0.3462,-0.9635 0.8771,-0.9635 0.3611,0 0.5087,0.1592 0.5639,0.2099l0.0166 0 0.0062 -0.1672 0.6333 0zm-3.0277 0.0015l0.643 0 0 1.8458 -0.643 0 0 -1.8458zm3.4416 1.8416l0 -2.6011 0.6404 0 0 0.8914 0.0069 0c0.0453,-0.0283 0.2527,-0.1769 0.557,-0.1769 0.4989,0 0.8653,0.4007 0.8653,0.9313 0,0.6627 -0.4063,0.9965 -0.8692,0.9965 -0.35,0 -0.5277,-0.1629 -0.5717,-0.2104l-0.0102 0 -0.0093 0.1692 -0.6092 0zm-6.2851 -0.4222c0.2606,0 0.4139,-0.2283 0.4139,-0.5008 0,-0.276 -0.146,-0.5045 -0.4139,-0.5045 -0.28,0 -0.414,0.2285 -0.414,0.5045 0,0.2725 0.1536,0.5008 0.414,0.5008zm2.5323 -0.079c-0.0314,0.0087 -0.1179,0.031 -0.1775,0.031 -0.1301,0 -0.2721,-0.0607 -0.2721,-0.2863l0 -0.6235 0.4034 0 0 -0.4638 -0.4034 0 0 -0.5939 -0.6417 0 0 0.5939 -0.2806 0 0 0.4638 0.2806 0 0 0.7296c0,0.401 0.1863,0.6889 0.6609,0.6889 0.1379,-0.0001 0.2643,-0.0186 0.3513,-0.035l0.0791 -0.5047zm-7.2965 0.4343c0.1793,0.0543 0.452,0.1043 0.7412,0.1043 0.5476,0 1.094,-0.194 1.094,-0.7952 0,-0.825 -1.1376,-0.7108 -1.1376,-1.0397 0,-0.1683 0.1748,-0.2046 0.3463,-0.2046 0.2375,0 0.5385,0.114 0.6053,0.1413l0.0517 -0.5684c-0.166,-0.0565 -0.418,-0.0885 -0.6548,-0.0885 -0.5406,0 -1.074,0.211 -1.074,0.7466 0,0.8105 1.1347,0.6414 1.1347,1.0669 0,0.1634 -0.1635,0.2257 -0.3719,0.2257 -0.2863,0 -0.5556,-0.1434 -0.6721,-0.1952l-0.0628 0.6068zm14.0279 -0.8736c0,0.3051 0.1703,0.4957 0.3908,0.4957 0.1998,0 0.3943,-0.1869 0.3943,-0.4704 0,-0.2859 -0.1724,-0.4814 -0.3943,-0.4814 -0.2295,0 -0.3908,0.2048 -0.3908,0.4561zm-4.8103 0.001c0,0.3049 0.1702,0.4956 0.3906,0.4956 0.1997,0 0.3943,-0.1869 0.3943,-0.4704 0,-0.2857 -0.1724,-0.4812 -0.3943,-0.4812 -0.2295,-0.0001 -0.3906,0.2047 -0.3906,0.456zm-5.6891 -0.8751c-0.048,-0.0134 -0.2241,-0.0739 -0.4576,-0.0739 -0.5781,-0.0001 -1.0114,0.3618 -1.0114,0.9642 0,0.5476 0.389,0.9644 0.9855,0.9644 0.2541,-0.0001 0.4409,-0.0678 0.4835,-0.0806l-0.0312 -0.5379c-0.0494,0.0224 -0.1775,0.0956 -0.3249,0.0956 -0.2589,0 -0.448,-0.1833 -0.448,-0.4415 0,-0.271 0.2024,-0.4454 0.4555,-0.4454 0.1427,0 0.2698,0.0665 0.3174,0.09l0.0312 -0.5349zm14.6513 1.8163l0.6398 0 0 -0.8538 0.007 0 0.5683 0.8538 0.7122 0 -0.6859 -0.9778 0.6685 -0.8643 -0.7113 0 -0.5518 0.7604 -0.007 0 0 -1.5188 -0.6398 0 0 2.6005zm-2.3189 -0.0001l0.6243 0 0 -0.953c0,-0.2233 0.1479,-0.3759 0.3373,-0.3759 0.216,-0.0001 0.3387,0.1404 0.3387,0.376l0 0.9529 0.6245 0 0 -1.1108c0,-0.4179 -0.2692,-0.7757 -0.7631,-0.7757 -0.3299,-0.0001 -0.5016,0.1792 -0.5798,0.2498l-0.013 0 -0.0064 -0.2043 -0.5625 0 0 1.841zm-7.9314 -2.7777c-0.1982,0 -0.3607,0.1626 -0.3607,0.3606 0,0.1976 0.1625,0.3602 0.3606,0.3602 0.1977,-0.0001 0.3602,-0.1626 0.3602,-0.3602 0,-0.198 -0.1625,-0.3605 -0.3601,-0.3606zm4.5252 1.8537c0,-0.2466 -0.1408,-0.4658 -0.3857,-0.4658 -0.2158,0 -0.3892,0.1842 -0.3892,0.4659 0,0.2731 0.1423,0.4672 0.3892,0.4672 0.223,0 0.3857,-0.1852 0.3857,-0.4673z"/>
 </g>
</svg>
