<?xml version="1.0" encoding="UTF-8"?>
<!DOCTYPE svg PUBLIC "-//W3C//DTD SVG 1.1//EN" "http://www.w3.org/Graphics/SVG/1.1/DTD/svg11.dtd">
<!-- Creator: CorelDRAW -->
<svg xmlns="http://www.w3.org/2000/svg" xml:space="preserve" width="31.75mm" height="21.167mm" style="shape-rendering:geometricPrecision; text-rendering:geometricPrecision; image-rendering:optimizeQuality; fill-rule:evenodd; clip-rule:evenodd"
viewBox="0 0 31.75 21.167"
 xmlns:xlink="http://www.w3.org/1999/xlink">
 <defs>
  <style type="text/css">
   <![CDATA[
    .str0 {stroke:#C5C6C6;stroke-width:0.0762}
    .fil0 {fill:none}
    .fil3 {fill:#009B3A}
    .fil2 {fill:#3660A5}
    .fil1 {fill:white}
   ]]>
  </style>
 </defs>
 <g id="Layer_x0020_1">
  <metadata id="CorelCorpID_0Corel-Layer"/>
  <g>
   <path class="fil0 str0" d="M1.0583 0.0002l29.6334 0c0.5843,0 1.0582,0.4739 1.0582,1.0583l0.0001 19.05c-0.0001,0.5842 -0.474,1.0581 -1.0584,1.0581l-29.6333 0.0002c-0.5843,-0.0002 -1.0582,-0.4741 -1.0582,-1.0585l-0.0001 -19.0498c0.0001,-0.5844 0.474,-1.0583 1.0584,-1.0583z"/>
   <path id="1" class="fil1" d="M1.0583 0.0002l29.6334 0c0.5843,0 1.0582,0.4739 1.0582,1.0583l0.0001 19.05c-0.0001,0.5842 -0.474,1.0581 -1.0584,1.0581l-29.6333 0.0002c-0.5843,-0.0002 -1.0582,-0.4741 -1.0582,-1.0585l-0.0001 -19.0498c0.0001,-0.5844 0.474,-1.0583 1.0584,-1.0583z"/>
  </g>
  <g>
   <path class="fil2" d="M1.8948 13.0335l4.3362 0c0.3373,0 0.6114,-0.276 0.6114,-0.6133l0.0001 -4.2867 -4.336 0c-0.3353,0 -0.6118,0.2761 -0.6118,0.6133l0.0001 4.2867zm1.1684 -0.7816l2.5734 -0.4497 0 -2.6903 -2.5734 0.4519 0 2.6881z"/>
   <path class="fil3" d="M19.9315 10.1199c0.4105,0 0.7417,0.3571 0.7417,0.9233 0,0.566 -0.3313,0.937 -0.7419,0.937 -0.2209,0 -0.4101,-0.0933 -0.5445,-0.2662 -0.1339,-0.1783 -0.1731,-0.3707 -0.1751,-0.5965 -0.0039,-0.2661 0.0193,-0.4884 0.1374,-0.6703 0.1405,-0.2069 0.3512,-0.3273 0.5824,-0.3273zm-0.6962 -1.2981l-0.0082 1.1897c0.3431,-0.3491 0.7262,-0.4338 1.2047,-0.3034 0.5393,0.1474 0.8471,0.6527 0.8545,1.347 0.0142,0.8874 -0.6051,1.4434 -1.3372,1.4494 -0.8026,0.0078 -1.3568,-0.5561 -1.3507,-1.3768l0.0002 -2.3059 0.6367 0zm-1.1779 0.7341l0.1857 0 0 0.6348 -0.1857 0 0 -0.002c-0.1377,0 -0.2641,0.0595 -0.3593,0.1522 -0.0907,0.0905 -0.1474,0.2168 -0.1474,0.3573l0.0023 0 0 1.7517 -0.637 0 0 -1.7517 0.0009 0c0,-0.3156 0.1286,-0.6001 0.3371,-0.809 0.2061,-0.2049 0.4877,-0.3293 0.8031,-0.3293l0.0003 -0.004zm-2.4954 1.8049l-0.9209 0c0.0079,0.0335 0.0177,0.0653 0.0316,0.0922 0.1107,0.2887 0.3551,0.4359 0.6368,0.4875l0 0 0.0022 0c0.0375,0.0059 0.0791,0.0119 0.1188,0.0159 0.0374,0.0039 0.0788,0.0059 0.1174,0.0059l0.0003 0c0.3004,0.0079 0.533,-0.0907 0.6784,-0.1663 0.0199,0.1226 0.006,0.3393 -0.0091,0.4208 -0.0534,0.2678 -0.535,0.2877 -0.7122,0.2877l0.0001 0.0019c-0.0552,0 -0.1106,-0.0019 -0.1681,-0.0079 -0.0574,-0.0039 -0.1125,-0.0111 -0.169,-0.0218l0.0001 0c-0.7402,-0.1315 -1.1405,-0.7709 -1.1107,-1.4766l0.0003 -0.002 0 -0.01c0.0192,-0.5937 0.3508,-1.1227 0.9242,-1.2979l0.0021 -0.0001 0.0101 -0.0039 0.0018 -0.0019c0.4598,-0.1364 0.8821,-0.0079 1.1658,0.2386 0.0527,0.0495 0.1041,0.1026 0.1474,0.1573 0.0439,0.0575 0.0853,0.1165 0.115,0.1819l0.0041 0.006c0.0649,0.1362 0.0948,0.2579 0.0948,0.3749 0,0.1434 -0.0478,0.2698 -0.1267,0.3764 -0.0732,0.0943 -0.166,0.1672 -0.2777,0.2208l0.0001 0.0019c-0.1659,0.0834 -0.3671,0.1188 -0.557,0.1187zm-0.9329 -0.4798l0.9607 0c0.2134,0 0.4597,-0.1084 0.3372,-0.3922l-0.0038 -0.006c-0.0138,-0.0296 -0.0299,-0.0594 -0.0497,-0.0883 -0.019,-0.0318 -0.0488,-0.0634 -0.0785,-0.0927 -0.1561,-0.1564 -0.3922,-0.2466 -0.6488,-0.1601l0.0003 -0.002 -0.008 0.0038c-0.043,0.0155 -0.0849,0.0333 -0.1226,0.0532 -0.0376,0.0198 -0.0734,0.0456 -0.1066,0.0734 -0.1356,0.1105 -0.2366,0.3392 -0.2802,0.6109zm-1.6565 -2.0333l0 0.7438 1.0375 0 -0.0236 0.2381c-0.024,0.2117 -0.1445,0.2722 -0.3831,0.2784l-0.6308 0 0 1.351c0.0019,0.0396 0.0039,0.1323 0.0118,0.168 0.0417,0.2106 0.163,0.2679 0.3611,0.2877 0.1932,0.0258 0.5082,-0.0119 0.6586,-0.077 0.024,0.2311 -0.0079,0.5392 -0.1403,0.5902 -0.1279,0.0488 -0.3908,0.0706 -0.5719,0.0647 -0.0844,-0.0021 -0.176,-0.0099 -0.2639,-0.027 -0.1486,-0.0278 -0.365,-0.1442 -0.4701,-0.2488 -0.1968,-0.2228 -0.2083,-0.4773 -0.2202,-0.7419l-0.0018 -0.0159 0 -2.6113 0.6367 0zm-2.4956 0.7082l0.2286 0 0 0.0039c0.3164,0 0.6024,0.1264 0.8068,0.3314 0.208,0.2069 0.3353,0.4914 0.3353,0.807l0.0002 0 0 1.7517 -0.6351 0 0 -1.7517 0.0023 0c-0.0023,-0.1405 -0.0598,-0.2668 -0.1497,-0.3592 -0.0925,-0.0908 -0.2235,-0.1503 -0.3598,-0.1503l0 0.002 -0.2286 0 0 -0.002c-0.1373,0 -0.264,0.0595 -0.3592,0.1522 -0.0898,0.0905 -0.1474,0.2168 -0.1474,0.3573l0.0025 0 0 1.7517 -0.6351 0 0 -1.7517c0,-0.3156 0.1273,-0.6001 0.335,-0.809 0.2069,-0.2049 0.4886,-0.3293 0.804,-0.3293l0.0002 -0.004zm-2.3489 -0.7639l0.6426 0 0 3.6579 -0.6426 0 0 -3.6579zm17.2788 0.7639l0.2248 0 0.0019 0 0 0.0039c0.3137,0 0.5995,0.1264 0.8087,0.3314 0.2029,0.2069 0.3339,0.4914 0.3339,0.807l0.0019 0 0 1.7517 -0.6389 0 0 -1.7517 0.0035 0c0,-0.1405 -0.0549,-0.2668 -0.1521,-0.3592 -0.0925,-0.0908 -0.2169,-0.1503 -0.3571,-0.1503l0.0001 0.002 -0.0019 0 -0.2248 0 -0.0019 0 0 -0.002c-0.1404,0 -0.2661,0.0595 -0.3568,0.1522 -0.095,0.0905 -0.1527,0.2168 -0.1527,0.3573l0.0023 0 0 1.7517 -0.637 0 0 -1.7517 0.0019 0c0,-0.3156 0.1303,-0.6001 0.3352,-0.809 0.2079,-0.2049 0.4934,-0.3293 0.8069,-0.3293l0.0002 -0.004 0.0019 0zm1.8857 -0.7639l0.643 0 0 3.6579 -0.643 0 0 -3.6579zm2.4298 0.8981l-0.6369 0 -1.1522 1.3041 1.2866 1.4516 0.6354 0 -1.2862 -1.4516 1.1533 -1.3041zm-6.4437 1.5065l0 -0.0135c-0.1483,0.0193 -0.2936,0.0095 -0.4186,0.0095 -0.2438,0.002 -0.3843,0.0218 -0.5202,0.0833 -0.1304,0.0574 -0.1997,0.1791 -0.2154,0.2857l0.0003 0 0 0.0198c-0.018,0.2267 0.0984,0.3948 0.3053,0.4245l0.0061 0 0 0.0019c0.2469,0.0338 0.4377,-0.0058 0.5822,-0.0713 0.1143,-0.0516 0.1948,-0.1831 0.2325,-0.3511 0.0278,-0.1066 0.0258,-0.2659 0.0278,-0.3888zm-0.7837 -1.611c0.3181,-0.0238 0.6924,0.004 0.9529,0.203 0.1007,0.0788 0.1918,0.172 0.2628,0.3115 0.0715,0.1461 0.0764,0.3271 0.0904,0.4834l0 0.8487c0,0.4176 -0.1336,0.79 -0.5582,0.9818 -0.1379,0.0595 -0.2936,0.0944 -0.4678,0.0984 -0.7177,0.0175 -1.2601,-0.3452 -1.2046,-1.0058 0.036,-0.4753 0.4441,-0.6805 0.9186,-0.7143 0.2257,-0.0158 0.6195,0.0338 0.7618,0.0019 0.0099,-0.1453 -0.0258,-0.3331 -0.0695,-0.4352 -0.0393,-0.0869 -0.1055,-0.1861 -0.2202,-0.2213 -0.1441,-0.0604 -0.3511,-0.0666 -0.5172,-0.0555 -0.2166,0.0159 -0.3821,0.0475 -0.6334,0.1918l0.0021 -0.2465c0,-0.0749 0.0098,-0.1661 0.0495,-0.229 0.0954,-0.1519 0.4324,-0.199 0.6328,-0.2129z"/>
  </g>
 </g>
</svg>
