<?xml version="1.0" encoding="UTF-8"?>
<!DOCTYPE svg PUBLIC "-//W3C//DTD SVG 1.1//EN" "http://www.w3.org/Graphics/SVG/1.1/DTD/svg11.dtd">
<!-- Creator: CorelDRAW -->
<svg xmlns="http://www.w3.org/2000/svg" xml:space="preserve" width="31.75mm" height="21.167mm" style="shape-rendering:geometricPrecision; text-rendering:geometricPrecision; image-rendering:optimizeQuality; fill-rule:evenodd; clip-rule:evenodd"
viewBox="0 0 31.75 21.167"
 xmlns:xlink="http://www.w3.org/1999/xlink">
 <defs>
  <style type="text/css">
   <![CDATA[
    .str0 {stroke:#C5C6C6;stroke-width:0.0762}
    .fil0 {fill:none}
    .fil1 {fill:white}
    .fil3 {fill:#7DB944;fill-rule:nonzero}
    .fil4 {fill:#E23329;fill-rule:nonzero}
    .fil2 {fill:#FEFEFE;fill-rule:nonzero}
    .fil5 {fill:#FFDD00;fill-rule:nonzero}
   ]]>
  </style>
 </defs>
 <g id="Layer_x0020_1">
  <metadata id="CorelCorpID_0Corel-Layer"/>
  <g>
   <path class="fil0 str0" d="M1.0583 0.0002l29.6334 0c0.5843,0 1.0582,0.4739 1.0582,1.0583l0.0001 19.05c-0.0001,0.5842 -0.474,1.0581 -1.0584,1.0581l-29.6333 0.0002c-0.5843,-0.0002 -1.0582,-0.4741 -1.0582,-1.0585l-0.0001 -19.0498c0.0001,-0.5844 0.474,-1.0583 1.0584,-1.0583z"/>
   <path id="1" class="fil1" d="M1.0583 0.0002l29.6334 0c0.5843,0 1.0582,0.4739 1.0582,1.0583l0.0001 19.05c-0.0001,0.5842 -0.474,1.0581 -1.0584,1.0581l-29.6333 0.0002c-0.5843,-0.0002 -1.0582,-0.4741 -1.0582,-1.0585l-0.0001 -19.0498c0.0001,-0.5844 0.474,-1.0583 1.0584,-1.0583z"/>
  </g>
  <g>
   <path class="fil2" d="M2.9327 7.4708l24.7818 0c0.6092,0 1.1029,0.4938 1.1029,1.1029l0 5.446c0,0.6091 -0.4937,1.1029 -1.1029,1.1029l-23.6896 0c-0.6092,0 -1.0922,-0.4938 -1.0922,-1.1029l0 -6.5489z"/>
   <path class="fil3" d="M2.9327 7.2114l24.7818 0c0.3762,0 0.7167,0.1526 0.9633,0.399 0.2465,0.2465 0.399,0.5872 0.399,0.9633l0 5.446c0,0.3761 -0.1525,0.7167 -0.399,0.9632 -0.2466,0.2466 -0.5871,0.3991 -0.9633,0.3991l-23.6896 0c-0.3754,0 -0.7126,-0.1523 -0.9564,-0.3986 -0.2448,-0.2472 -0.3951,-0.5882 -0.3951,-0.9637l0 -6.5489 0 -0.2594 0.2593 0zm24.7818 0.5188l-24.5224 0 0 6.2895c0,0.2351 0.0925,0.4468 0.2431,0.5989 0.1496,0.1512 0.3575,0.2446 0.5897,0.2446l23.6896 0c0.2331,0 0.444,-0.0944 0.5965,-0.247 0.1526,-0.1526 0.247,-0.3635 0.247,-0.5965l0 -5.446c0,-0.233 -0.0944,-0.444 -0.247,-0.5965 -0.1526,-0.1526 -0.3635,-0.247 -0.5965,-0.247z"/>
   <path class="fil4" d="M3.7651 8.2132l23.1903 0c0.5684,0 1.0289,0.3979 1.0289,0.8888l0 4.3893c0,0.4909 -0.4605,0.889 -1.0289,0.889l-22.1715 0c-0.5682,0 -1.0188,-0.3981 -1.0188,-0.889l0 -5.2781z"/>
   <path class="fil5" d="M5.2664 12.6921c0.02,0.1366 0.0593,0.2386 0.1179,0.3061 0.1072,0.1231 0.2909,0.1846 0.5512,0.1846 0.1558,0 0.2823,-0.0162 0.3796,-0.0487 0.1844,-0.0621 0.2766,-0.1777 0.2766,-0.3466 0,-0.0987 -0.0452,-0.175 -0.1355,-0.2291 -0.0904,-0.0528 -0.2337,-0.0994 -0.4299,-0.14l-0.3351 -0.0709c-0.3295,-0.0703 -0.5558,-0.1467 -0.679,-0.2291 -0.2086,-0.1379 -0.3129,-0.3535 -0.3129,-0.6468 0,-0.2676 0.102,-0.4899 0.3062,-0.6671 0.204,-0.177 0.5038,-0.2655 0.8994,-0.2655 0.3302,0 0.6119,0.0834 0.8451,0.2503 0.2332,0.1671 0.3555,0.4094 0.3668,0.7269l-0.6217 0c-0.0115,-0.1798 -0.0948,-0.3074 -0.2498,-0.3831 -0.1033,-0.0501 -0.2318,-0.0751 -0.3854,-0.0751 -0.1709,0 -0.3072,0.0325 -0.4091,0.0974 -0.102,0.0648 -0.1529,0.1553 -0.1529,0.2716 0,0.1068 0.0502,0.1866 0.1507,0.2392 0.0646,0.0353 0.2016,0.0764 0.4113,0.1237l0.5434 0.1237c0.2381,0.0541 0.4165,0.1264 0.5354,0.217 0.1845,0.1405 0.2768,0.3439 0.2768,0.6102 0,0.273 -0.1093,0.4997 -0.3279,0.6802 -0.2188,0.1805 -0.5277,0.2706 -0.9268,0.2706 -0.4076,0 -0.7281,-0.0887 -0.9617,-0.2666 -0.2335,-0.1776 -0.3503,-0.422 -0.3503,-0.7329l0.6176 0z"/>
   <path class="fil5" d="M7.6692 10.6262l0.6575 0 0 1.8354c0,0.2053 0.0251,0.3552 0.0753,0.4498 0.0781,0.1674 0.2483,0.2511 0.5106,0.2511 0.261,0 0.4305,-0.0837 0.5087,-0.2511 0.0501,-0.0946 0.0753,-0.2445 0.0753,-0.4498l0 -1.8354 0.6574 0 0 1.8368c0,0.3177 -0.051,0.565 -0.153,0.7421 -0.1902,0.3245 -0.553,0.4865 -1.0884,0.4865 -0.5354,0 -0.8988,-0.162 -1.0903,-0.4865 -0.1021,-0.1771 -0.1531,-0.4244 -0.1531,-0.7421l0 -1.8368z"/>
   <path class="fil5" d="M12.7597 10.7032c0.114,0.0474 0.2106,0.1169 0.2898,0.2089 0.0655,0.0757 0.1174,0.1594 0.1556,0.2513 0.0383,0.092 0.0574,0.1967 0.0574,0.3143 0,0.142 -0.037,0.2815 -0.1113,0.4187 -0.0742,0.1371 -0.1968,0.2342 -0.3675,0.2909 0.1428,0.0555 0.2439,0.1341 0.3035,0.2362 0.0595,0.1021 0.0893,0.2579 0.0893,0.4673l0 0.2008c0,0.1365 0.0056,0.2291 0.017,0.2777 0.0171,0.077 0.0569,0.1339 0.1195,0.1704l0 0.075 -0.7142 0c-0.0196,-0.0663 -0.0335,-0.1196 -0.042,-0.1602 -0.0168,-0.0838 -0.0259,-0.1696 -0.0273,-0.2575l-0.0041 -0.2778c-0.0027,-0.1906 -0.0368,-0.3176 -0.1024,-0.3811 -0.0656,-0.0636 -0.1885,-0.0954 -0.3686,-0.0954l-0.6318 0 0 1.172 -0.6322 0 0 -2.9885 1.4808 0c0.2116,0.004 0.3745,0.0298 0.4885,0.077zm-1.3371 0.442l0 0 0 0.8029 0.6962 0c0.1383,0 0.242,-0.0162 0.3112,-0.0487 0.1224,-0.0567 0.1835,-0.1689 0.1835,-0.3365 0,-0.1811 -0.0591,-0.3028 -0.1775,-0.365 -0.0665,-0.0351 -0.1662,-0.0527 -0.2992,-0.0527l-0.7142 0z"/>
   <polygon class="fil5" points="16.1317,10.6262 16.1317,11.1554 15.2054,11.1554 15.2054,13.6147 14.5543,13.6147 14.5543,11.1554 13.6239,11.1554 13.6239,10.6262 "/>
   <polygon class="fil5" points="17.1,13.6147 16.4573,13.6147 16.4573,10.6262 17.1,10.6262 "/>
   <polygon class="fil2" points="17.8586,9.0919 19.1144,9.0919 19.7027,12.129 19.7099,12.129 20.2981,9.0919 21.554,9.0919 21.554,13.696 20.7457,13.696 20.7457,10.2525 20.7384,10.2525 20.06,13.696 19.3527,13.696 18.6742,10.2525 18.6671,10.2525 18.6671,13.696 17.8586,13.696 "/>
   <path class="fil2" d="M22.3673 9.0919l1.0501 0 1.1078 4.6041 -0.9201 0 -0.1553 -0.7482 -1.1259 0 -0.1552 0.7482 -0.9202 0 1.1188 -4.6041zm0.5232 1.1606l0 0 -0.0072 0 -0.3574 1.741 0.7219 0 -0.3573 -1.741z"/>
   <polygon class="fil2" points="25.2091,11.3037 24.2096,9.0919 25.2309,9.0919 25.7036,10.3301 26.1764,9.0919 27.1975,9.0919 26.198,11.3037 27.3169,13.696 26.2522,13.696 25.7036,12.3032 25.155,13.696 24.0905,13.696 "/>
   <path class="fil3" d="M4.9331 8.984l0.3059 -2.5273c0.0449,-0.3711 0.3821,-0.6719 0.7531,-0.6719l9.6768 0 -0.3059 2.5276c-0.0449,0.371 -0.3623,0.6716 -0.7334,0.6716l-9.6965 0z"/>
   <path class="fil2" d="M6.7974 7.5495c0,0.0411 -0.0589,0.1197 -0.1767,0.2357 -0.0804,0.0786 -0.1607,0.1571 -0.241,0.2357 -0.0501,0.0643 -0.1269,0.1606 -0.2304,0.2892 -0.0232,-0.0018 -0.05,-0.0152 -0.0804,-0.0402 0.0054,-0.0178 0.0081,-0.0401 0.0081,-0.0669 0,-0.0322 -0.0032,-0.0813 -0.0094,-0.1473 -0.0062,-0.0661 -0.0094,-0.1152 -0.0094,-0.1474 0,-0.091 0.0107,-0.3776 0.0322,-0.8596 -0.0018,-0.0018 -0.0144,-0.0108 -0.0375,-0.0268 -0.0143,-0.0089 -0.0214,-0.0205 -0.0214,-0.0348 0,-0.0071 0.0039,-0.0161 0.012,-0.0268 0.008,-0.0107 0.0129,-0.0188 0.0147,-0.0241 0.0696,0 0.1732,-0.0062 0.3107,-0.0188 0.1374,-0.0125 0.2401,-0.0196 0.308,-0.0214 0.0124,0.0072 0.0259,0.0214 0.0402,0.0429l0 0.0722c0,0.0394 -0.1278,0.1741 -0.383,0.4045 -0.0143,0.0089 -0.0313,0.0259 -0.0509,0.0508l0.0054 0.0054c0.0999,-0.0321 0.1972,-0.0481 0.2919,-0.0481 0.0375,0 0.0678,0.0017 0.091,0.0052 0.0178,0.0037 0.0599,0.0188 0.1259,0.0456l0 0.075zm-0.1205 0.0109l0 0c0.0017,-0.0269 -0.0444,-0.0404 -0.1386,-0.0404 -0.0444,0 -0.1705,0.0287 -0.3783,0.0861 -0.0054,0.0377 -0.008,0.0789 -0.008,0.1238 0,0.0789 0.0106,0.2 0.032,0.3633 0.1136,-0.1166 0.278,-0.2942 0.4929,-0.5328zm-0.1018 -0.5733l0 0c-0.0642,0.0036 -0.1285,0.008 -0.1928,0.0133 -0.1054,0.009 -0.1598,0.0215 -0.1634,0.0375 -0.0018,0.0036 -0.0071,0.0411 -0.0161,0.1126 -0.0089,0.0714 -0.0223,0.1785 -0.0401,0.3213 0.0767,-0.0821 0.1535,-0.1634 0.2303,-0.2437 0.1107,-0.116 0.1714,-0.1964 0.1821,-0.241z"/>
   <path class="fil2" d="M6.8753 7.5495c0,0.0375 -0.0201,0.083 -0.0601,0.1364 -0.032,0.0426 -0.0788,0.0942 -0.1402,0.1546l-0.2365 0.2313c-0.0222,0.0286 -0.0535,0.0682 -0.0931,0.1179 -0.0303,0.038 -0.077,0.0961 -0.1356,0.169l-0.0257 0.032 -0.0406 -0.0031c-0.0218,-0.0016 -0.044,-0.0082 -0.0664,-0.0193l0 -0.0003c-0.0187,-0.0094 -0.0379,-0.0222 -0.0574,-0.0382l-0.04 -0.033 0.0148 -0.0491c0.0013,-0.0046 0.0025,-0.0104 0.0033,-0.017 0.0008,-0.0076 0.0013,-0.0169 0.0013,-0.0278 0,-0.0163 -0.0007,-0.0352 -0.002,-0.0564 -0.0017,-0.0258 -0.0039,-0.0537 -0.0068,-0.0835 -0.0033,-0.0358 -0.0057,-0.0652 -0.0072,-0.0882l0 -0.0003c-0.0017,-0.0284 -0.0026,-0.0505 -0.0026,-0.0661 0,-0.0416 0.0028,-0.1376 0.0084,-0.2879 0.0051,-0.137 0.0125,-0.3149 0.0221,-0.5333 -0.0168,-0.0107 -0.0303,-0.0241 -0.0402,-0.04 -0.0114,-0.0186 -0.0172,-0.0387 -0.0172,-0.0601 0,-0.0143 0.0034,-0.0288 0.01,-0.0436l0 -0.0003c0.0042,-0.0092 0.01,-0.019 0.0172,-0.0288l0.0009 -0.0009 0.0048 -0.0066 0.0175 -0.0486 0.0543 0c0.0355,0 0.0777,-0.0015 0.1262,-0.0044 0.0531,-0.0032 0.1123,-0.0078 0.1774,-0.0137 0.0736,-0.0067 0.1344,-0.0118 0.1816,-0.015 0.0501,-0.0035 0.0941,-0.0057 0.1316,-0.0067l0.022 -0.0005 0.0185 0.0106c0.0127,0.0073 0.0254,0.0176 0.0376,0.0307 0.01,0.0107 0.0196,0.0229 0.0287,0.0364l0.0131 0.0197 0 0.0235 0 0.0722c0,0.0402 -0.0392,0.1015 -0.1174,0.1841 -0.04,0.0421 -0.0917,0.093 -0.155,0.1525 0.0195,-0.0012 0.0388,-0.0018 0.0579,-0.0018 0.0175,0 0.0361,0.0006 0.0551,0.0016 0.0189,0.001 0.0347,0.0026 0.0475,0.0045l0.004 0.001c0.0127,0.0026 0.0316,0.0084 0.0562,0.0173 0.0239,0.0086 0.0518,0.0195 0.0833,0.0322l0.0487 0.0197 0 0.0523 0 0.075zm-0.8888 -0.6426l0 -0.0001 -0.0011 0.0032 0.0011 -0.0031zm0 -0.0001l0.0005 -0.0006 -0.0002 -0.0001 -0.0003 0.0007zm0.552 0.691l-0.0002 0c-0.017,0 -0.0541,0.0065 -0.1109,0.0194 -0.0512,0.0117 -0.1165,0.0283 -0.1957,0.0498l-0.0002 0.0032c-0.0011,0.0172 -0.0017,0.0372 -0.0017,0.0597 0,0.0375 0.0026,0.0854 0.0077,0.1434 0.0013,0.0153 0.0028,0.031 0.0044,0.0471 0.0298,-0.0316 0.0612,-0.0653 0.0943,-0.1011 0.0549,-0.0592 0.1222,-0.1329 0.2023,-0.2215zm-0.1116 -0.523l-0.0383 0.0031c-0.0432,0.0037 -0.0764,0.0079 -0.0996,0.0124 -0.0021,0.0157 -0.0051,0.0391 -0.0089,0.0695l-0.0108 0.0858 0.0675 -0.0709 0 0c0.0354,-0.0371 0.0655,-0.0704 0.0901,-0.0999z"/>
   <path class="fil2" d="M7.7588 7.271c0,0.1518 -0.0267,0.3365 -0.0803,0.5543 -0.0714,0.2857 -0.1589,0.4286 -0.2624,0.4286 -0.0947,0 -0.1715,-0.0589 -0.2303,-0.1768 -0.0482,-0.0965 -0.0724,-0.1919 -0.0724,-0.2866 0,-0.0196 0.0098,-0.0812 0.0295,-0.1848 0.1017,-0.5088 0.2187,-0.7633 0.3508,-0.7633 0.0322,0 0.0786,0.0385 0.1393,0.1152 0.0553,0.0715 0.0875,0.125 0.0964,0.1607 0.0196,0.0696 0.0294,0.1205 0.0294,0.1527zm-0.099 0.0669l0 0c0,-0.0607 -0.0143,-0.1285 -0.0429,-0.2035 -0.0375,-0.0965 -0.083,-0.1447 -0.1365,-0.1447 -0.0126,0 -0.0215,0.0019 -0.0268,0.0054 -0.0286,0.0125 -0.0706,0.1018 -0.1259,0.2678 -0.0428,0.1286 -0.0723,0.2295 -0.0884,0.3027 -0.0178,0.0839 -0.0268,0.1499 -0.0268,0.1982 0,0.0714 0.0152,0.1455 0.0456,0.2222 0.0392,0.1 0.0919,0.15 0.158,0.15 0.075,0 0.1375,-0.1169 0.1874,-0.3508 0.0375,-0.1768 0.0563,-0.3259 0.0563,-0.4473z"/>
   <path class="fil2" d="M7.8367 7.271c0,0.0791 -0.007,0.1671 -0.021,0.2639 -0.0137,0.0943 -0.0343,0.1974 -0.0618,0.309l0 0.0003c-0.0376,0.1503 -0.0804,0.2647 -0.1283,0.343 -0.0589,0.0963 -0.1288,0.1445 -0.2095,0.1445 -0.0647,0 -0.1233,-0.0201 -0.1757,-0.0603 -0.0477,-0.0367 -0.0891,-0.0899 -0.1239,-0.1595l-0.0003 0c-0.0265,-0.0531 -0.0466,-0.1065 -0.06,-0.1599 -0.0137,-0.0542 -0.0205,-0.108 -0.0205,-0.1614 0,-0.0127 0.0029,-0.0372 0.0086,-0.0731 0.0053,-0.0334 0.0128,-0.0754 0.0223,-0.1261l0 -0.0009c0.0519,-0.2596 0.1086,-0.4562 0.1698,-0.5894 0.0725,-0.1576 0.1582,-0.2365 0.2573,-0.2365 0.0347,0 0.0709,0.0156 0.1085,0.0468 0.0268,0.0221 0.0574,0.055 0.0916,0.0983l0.0006 0.0006c0.0295,0.038 0.0531,0.0718 0.0708,0.1012 0.0201,0.0335 0.0333,0.0629 0.0396,0.088 0.0101,0.036 0.0178,0.0676 0.023,0.0946 0.0059,0.0307 0.0089,0.0564 0.0089,0.0769zm-0.2547 0.067c0,-0.0257 -0.003,-0.0526 -0.0089,-0.0807 -0.0062,-0.0293 -0.0158,-0.0612 -0.0288,-0.0953l0.0001 -0.0001c-0.0149,-0.0383 -0.0304,-0.066 -0.0463,-0.0828 -0.0059,-0.0062 -0.011,-0.0099 -0.0151,-0.0111 -0.0017,0.004 -0.0019,0.0145 -0.0122,0.0365 -0.0198,0.0421 -0.043,0.1031 -0.0695,0.1827 -0.0207,0.0622 -0.0386,0.1187 -0.0534,0.1694 -0.0137,0.047 -0.0246,0.0888 -0.0326,0.1253l0 0c-0.0086,0.0407 -0.0151,0.0763 -0.0192,0.1065 -0.0038,0.0285 -0.0058,0.0537 -0.0058,0.0755 0,0.0312 0.0032,0.0625 0.0096,0.0936 0.0067,0.0328 0.0168,0.0662 0.0303,0.1001l0.0003 0.0003c0.0154,0.0392 0.0321,0.0673 0.05,0.0843 0.0111,0.0106 0.023,0.0159 0.0356,0.0159 0.0066,0 0.0182,-0.0155 0.0347,-0.0464 0.0277,-0.0516 0.0532,-0.1326 0.0767,-0.2427 0.0187,-0.0877 0.0325,-0.167 0.0413,-0.2376l0 -0.0003c0.0088,-0.0697 0.0132,-0.1341 0.0132,-0.1931z"/>
   <path class="fil2" d="M8.8649 6.9576c0,0.0232 -0.0429,0.1277 -0.1285,0.3134 -0.0715,0.1571 -0.1242,0.2678 -0.158,0.3321 -0.0626,0.1035 -0.125,0.2071 -0.1875,0.3106 -0.0786,0.1322 -0.1242,0.2384 -0.1366,0.3187 -0.0054,0.0018 -0.0125,0.0076 -0.0214,0.0175 -0.009,0.0097 -0.0224,0.0147 -0.0402,0.0147 -0.0233,0 -0.0429,-0.0197 -0.059,-0.0589 -0.0143,-0.0322 -0.0214,-0.0607 -0.0214,-0.0857 0,-0.0125 0.0045,-0.0241 0.0134,-0.0348 0.0072,-0.0411 0.0107,-0.0929 0.0107,-0.1554 0,-0.0303 -0.0013,-0.075 -0.004,-0.1339 -0.0026,-0.0589 -0.004,-0.1027 -0.004,-0.1312 0,-0.0715 0.004,-0.1777 0.0121,-0.3188 0.008,-0.141 0.012,-0.2463 0.012,-0.3159 -0.0196,-0.0233 -0.0331,-0.0536 -0.0402,-0.0911l0.0456 -0.0402c0.0624,0 0.1749,-0.0071 0.3374,-0.0214 0.0875,-0.0089 0.1348,-0.0134 0.1419,-0.0134 0.0732,0 0.1482,0.0107 0.225,0.0321 0.0018,0.0536 0.0027,0.0741 0.0027,0.0616zm-0.1205 0.0295l0 0c0,-0.0179 -0.0143,-0.0268 -0.0429,-0.0268 -0.1714,0 -0.3124,0.0161 -0.4231,0.0482 -0.0304,0.084 -0.0455,0.2428 -0.0455,0.4767 0,0.0447 0.0008,0.2116 0.0026,0.5008 0.1464,-0.2374 0.3017,-0.5383 0.466,-0.9026 0.0143,-0.032 0.0286,-0.0642 0.0429,-0.0963z"/>
   <path class="fil2" d="M8.9427 6.9577l0 0.001 0 0.0135 -0.1533 0.37c-0.0283,0.0617 -0.0535,0.116 -0.0758,0.1628l-0.0001 0c-0.0267,0.0561 -0.0489,0.1009 -0.0665,0.1342l-0.0021 0.0039 -0.1874 0.3107 -0.0003 -0.0001c-0.0369,0.0621 -0.0663,0.1186 -0.088,0.1692 -0.0204,0.0476 -0.0332,0.0881 -0.0384,0.1214l-0.0074 0.0478 -0.0336 0.0106 -0.0001 0.0001c-0.0127,0.0136 -0.0283,0.0239 -0.0466,0.0307l-0.0006 0.0003c-0.0156,0.0056 -0.0322,0.0086 -0.0498,0.0086 -0.0328,0 -0.0618,-0.0126 -0.0868,-0.0375l-0.0003 0c-0.0167,-0.0168 -0.0312,-0.0399 -0.0432,-0.069 -0.0089,-0.0202 -0.0156,-0.0391 -0.02,-0.0567 -0.0053,-0.0209 -0.0079,-0.0406 -0.0079,-0.0592 0,-0.0154 0.0029,-0.0305 0.0085,-0.0454l0.0003 -0.0007c0.0023,-0.0058 0.005,-0.0116 0.0082,-0.0172 0.002,-0.0143 0.0036,-0.0298 0.0048,-0.0465 0.0015,-0.0226 0.0023,-0.0495 0.0023,-0.0804 0,-0.0205 -0.0002,-0.0387 -0.0007,-0.0538 -0.0006,-0.0205 -0.0016,-0.0459 -0.003,-0.0767 -0.0012,-0.0277 -0.0022,-0.0537 -0.0029,-0.0783 -0.0009,-0.0289 -0.0014,-0.0483 -0.0014,-0.0563 0,-0.032 0.0011,-0.0776 0.0034,-0.1369 0.002,-0.0558 0.0051,-0.1179 0.009,-0.1862 0.0041,-0.0726 0.0072,-0.1339 0.009,-0.1832 0.0014,-0.0371 0.0023,-0.0716 0.0026,-0.1037 -0.0068,-0.0106 -0.0128,-0.0218 -0.0181,-0.0337 -0.0089,-0.0202 -0.0158,-0.0429 -0.0204,-0.0678l-0.0082 -0.0432 0.0331 -0.0291 0.0455 -0.0402 0.0224 -0.0198 0.029 0c0.0314,0 0.0736,-0.0017 0.1263,-0.005 0.0518,-0.0033 0.1201,-0.0087 0.2045,-0.0161l0 0.0002 0.1001 -0.01 0.0003 0c0.028,-0.0026 0.0441,-0.0039 0.0481,-0.0039 0.0396,0 0.0804,0.003 0.1222,0.0089 0.0402,0.0057 0.0814,0.0146 0.1235,0.0263l0.0547 0.0153 0.0021 0.0567 0.0019 0.055 0.0001 0 0.0004 0.0094 0.0006 0zm-0.3061 0.0812c-0.058,0.0015 -0.1116,0.005 -0.1607,0.0106 -0.0496,0.0057 -0.0948,0.0134 -0.1355,0.0229 -0.0078,0.0329 -0.0142,0.0747 -0.019,0.1255 -0.0071,0.075 -0.0107,0.1708 -0.0107,0.2873l-0.0003 0 0.0007 0.1584 0.0003 0.0567c0.0268,-0.0491 0.054,-0.1003 0.0815,-0.1535 0.0768,-0.1488 0.1561,-0.3139 0.2378,-0.4952l0.0002 0.0001 0.0057 -0.0128z"/>
   <path class="fil2" d="M9.9924 7.9405c-0.3036,0.1982 -0.4723,0.2973 -0.5062,0.2973 -0.0643,0 -0.1304,-0.1062 -0.1982,-0.3187 -0.0607,-0.1839 -0.0902,-0.3178 -0.0884,-0.4017l0 -0.6053 0.0809 0c0.0809,0 0.1879,0.0027 0.321,0.008 0.1653,0.0072 0.2732,0.0116 0.3236,0.0134 0.0126,-0.0054 0.0234,0.0036 0.0324,0.0268 0.0089,0.0232 0.0135,0.0411 0.0135,0.0536 -0.0643,0 -0.1626,0.0036 -0.2947,0.0107 -0.1321,0.0071 -0.2312,0.0107 -0.2973,0.0107 -0.0303,0 -0.0518,0.008 -0.0642,0.0241l-0.016 0.3454 0.016 0.0295c0.0374,-0.0017 0.0955,-0.0084 0.1741,-0.02 0.0785,-0.0117 0.1383,-0.0174 0.1794,-0.0174l0.0857 0 0 0.0615c-0.0464,0.0179 -0.1188,0.0371 -0.2169,0.0576 -0.0982,0.0205 -0.1705,0.0389 -0.217,0.055 0.0178,0.0928 0.0349,0.1847 0.051,0.2758 0.0267,0.1 0.0722,0.1848 0.1365,0.2544 0.1054,-0.0411 0.2366,-0.1152 0.3937,-0.2223l0.0911 0 0 0.0616z"/>
   <path class="fil2" d="M10.0349 8.0055c-0.1504,0.0982 -0.2694,0.1731 -0.357,0.2246 -0.097,0.057 -0.1611,0.0856 -0.1916,0.0856 -0.0609,0 -0.1156,-0.0389 -0.1638,-0.1165 -0.0361,-0.0579 -0.0722,-0.1433 -0.1082,-0.2558l-0.0002 0.0001c-0.0311,-0.0943 -0.0543,-0.1764 -0.0697,-0.2462 -0.0157,-0.0715 -0.0231,-0.1316 -0.0223,-0.1799l-0.0003 0 0 -0.6054 0 -0.0778 0.0778 0 0.0808 0c0.033,0 0.0808,0.0008 0.1428,0.0024 0.0557,0.0014 0.1162,0.0034 0.1814,0.0061l0.2023 0.0085 0.1092 0.0044c0.0261,-0.0051 0.0506,0.0012 0.0734,0.0188l0 0c0.016,0.0124 0.0288,0.0301 0.0383,0.0527l0.0003 0.0009 0.0013 0.0034 0.0004 0.0006c0.0056,0.0145 0.0101,0.028 0.0131,0.0399l0 0c0.004,0.0154 0.0059,0.0294 0.0059,0.042l0 0.0778 -0.0778 0c-0.0363,0 -0.0762,0.0008 -0.1192,0.0023 -0.0466,0.0017 -0.1038,0.0044 -0.1715,0.008 -0.0644,0.0034 -0.1226,0.0062 -0.1746,0.0081 -0.0489,0.0017 -0.0876,0.0028 -0.1157,0.003l-0.0111 0.2375c0.0274,-0.0031 0.0604,-0.0076 0.0986,-0.0132 0.0379,-0.0057 0.0738,-0.0101 0.1073,-0.0133 0.0345,-0.0034 0.0623,-0.005 0.0835,-0.005l0.0857 0 0.0778 0 0 0.0778 0 0.0615 0 0.0531 -0.0499 0.0193c-0.026,0.0101 -0.0585,0.0203 -0.0972,0.0306 -0.0373,0.0099 -0.0813,0.0201 -0.1318,0.0307 -0.0467,0.0097 -0.0883,0.0192 -0.1246,0.0284l-0.0188 0.0048 0.013 0.0702c0.0114,0.0623 0.0195,0.1061 0.0245,0.1345 0.0118,0.0431 0.0273,0.0827 0.0466,0.1186l0 0.0003c0.0109,0.0204 0.0232,0.0399 0.0369,0.0584 0.0362,-0.0165 0.0752,-0.0365 0.1168,-0.06 0.062,-0.035 0.1321,-0.0793 0.2101,-0.1326l0.0201 -0.0137 0.0237 0 0.0912 0 0.0778 0 0 0.0778 0 0.0616 0 0.042 -0.0353 0.0231z"/>
   <path class="fil2" d="M11.3019 7.7182c-0.0265,0.009 -0.1202,0.0251 -0.2812,0.0482l0 0.316c0.0089,0.0536 0.0214,0.1331 0.0375,0.2384 0.0285,0.0357 0.0428,0.0821 0.0428,0.1393 0,0.0321 -0.016,0.0615 -0.0482,0.0883l-0.0455 -0.0053c-0.0232,-0.0232 -0.0392,-0.0581 -0.0482,-0.1045 -0.0053,-0.0375 -0.0107,-0.075 -0.0161,-0.1124 -0.0285,-0.1482 -0.0472,-0.2803 -0.0562,-0.3964 -0.0893,0.1072 -0.1384,0.1652 -0.1473,0.1741 -0.0696,0.0696 -0.1357,0.1044 -0.1982,0.1044 -0.0821,0 -0.1473,-0.0464 -0.1955,-0.1392 -0.0393,-0.075 -0.0589,-0.1544 -0.0589,-0.2384 0,-0.1536 0.0357,-0.3196 0.1071,-0.4981 0.025,-0.0643 0.0946,-0.1616 0.2089,-0.2919 0.1232,-0.1447 0.2116,-0.217 0.2652,-0.217l0.0642 0 0.0697 0.0241c0,0.0768 -0.0081,0.1723 -0.0241,0.2866 -0.0143,0.0946 -0.0277,0.1901 -0.0402,0.2865 -0.0535,-0.0268 -0.0803,-0.1098 -0.0803,-0.249 0,-0.0197 0,-0.0518 0,-0.0965 0,-0.0446 0,-0.0785 0,-0.1018l0 -0.0267c-0.143,0.0857 -0.2586,0.2143 -0.3469,0.3857 -0.0812,0.1589 -0.1218,0.3205 -0.1218,0.4847 0,0.0554 0.0134,0.1125 0.0401,0.1714 0.0358,0.075 0.0804,0.1125 0.134,0.1125 0.041,0 0.099,-0.0437 0.1741,-0.1313 0.0535,-0.0624 0.099,-0.1249 0.1365,-0.1874 -0.0125,-0.0196 -0.0428,-0.0325 -0.091,-0.0389 -0.0483,-0.0062 -0.0768,-0.0147 -0.0857,-0.0254l0.0268 -0.0857 0.0696 0c0.0375,-0.0017 0.0901,-0.0009 0.158,0.0027 0.075,0.0035 0.1277,0.0053 0.158,0.0053 0.0536,0 0.1026,-0.0026 0.1473,-0.008 0.0268,0.0268 0.042,0.0554 0.0455,0.0857z"/>
   <path class="fil2" d="M11.3266 7.7918c-0.0175,0.0058 -0.0517,0.0132 -0.1022,0.0218 -0.0335,0.0058 -0.0755,0.0124 -0.1258,0.0199l0 0.2438 0.015 0.0947 0.0184 0.1186c0.014,0.021 0.0249,0.044 0.0325,0.069 0.0096,0.0311 0.0144,0.0646 0.0144,0.1004 0,0.0291 -0.0072,0.057 -0.0218,0.0837l-0.0001 -0.0001c-0.0127,0.0232 -0.031,0.0448 -0.0547,0.0644l-0.0258 0.0215 -0.0325 -0.0039 -0.0454 -0.0053 -0.0272 -0.0031 -0.019 -0.0191c-0.018,-0.018 -0.033,-0.0401 -0.045,-0.066l0 -0.0003c-0.0108,-0.0234 -0.019,-0.0496 -0.0246,-0.0786l-0.0006 -0.0036 -0.0052 -0.0364 -0.0107 -0.0747c-0.0142,-0.074 -0.0261,-0.1447 -0.0356,-0.2119l-0.0011 -0.0078c-0.0192,0.0225 -0.0309,0.0358 -0.0351,0.0401l-0.0002 -0.0002c-0.0404,0.0404 -0.0805,0.0712 -0.1204,0.0922 -0.0445,0.0234 -0.0888,0.0352 -0.1326,0.0352 -0.0573,0 -0.1092,-0.0165 -0.1554,-0.0494 -0.0428,-0.0304 -0.0792,-0.0745 -0.1091,-0.1321l0.0001 -0.0001c-0.0225,-0.0431 -0.0394,-0.0874 -0.0506,-0.1327 -0.0114,-0.0463 -0.0172,-0.0935 -0.0172,-0.1411 0,-0.1632 0.0377,-0.3389 0.1129,-0.527 0.0152,-0.0386 0.0419,-0.0847 0.0799,-0.1379l0.0002 0.0001c0.0359,-0.0502 0.0832,-0.1087 0.1419,-0.1756l0 -0.0001c0.0648,-0.0761 0.121,-0.1336 0.1684,-0.1724 0.0585,-0.0479 0.1105,-0.0719 0.1557,-0.0719l0.0642 0 0.012 0 0.0132 0.0046 0.0698 0.0242 0.0526 0.0183 0 0.0549c0,0.04 -0.0022,0.0852 -0.0064,0.1355 -0.0041,0.0478 -0.0103,0.1017 -0.0187,0.1616l0 0.0009c-0.0084,0.0554 -0.0153,0.1028 -0.0208,0.1417 -0.0077,0.0553 -0.0141,0.1024 -0.0193,0.1431l-0.0141 0.1084 -0.0975 -0.0489c-0.0463,-0.0231 -0.0794,-0.0658 -0.0995,-0.1279 -0.016,-0.0497 -0.024,-0.1133 -0.024,-0.1905l0 -0.0709c-0.0203,0.0183 -0.0397,0.0379 -0.0584,0.0587 -0.0535,0.0594 -0.1007,0.129 -0.1417,0.2085l-0.0001 0c-0.0376,0.0736 -0.066,0.1483 -0.0849,0.2238 -0.0187,0.0742 -0.028,0.1494 -0.028,0.2255 0,0.0219 0.0026,0.0441 0.0079,0.0666 0.0056,0.0239 0.0139,0.0478 0.0246,0.0716l0.0001 -0.0001c0.013,0.0275 0.0264,0.047 0.0398,0.0583 0.0076,0.0063 0.0156,0.0096 0.0238,0.0096 0.0033,0 0.0126,-0.0057 0.0276,-0.017 0.0247,-0.0187 0.0539,-0.0477 0.0875,-0.0869l0.0003 -0.0004c0.0261,-0.0303 0.0496,-0.0597 0.0704,-0.0882l0.0089 -0.0125c-0.0218,-0.0032 -0.04,-0.007 -0.0545,-0.0113l-0.0004 0c-0.0293,-0.0087 -0.0512,-0.0218 -0.0658,-0.0393l-0.0268 -0.0324 0.0126 -0.0403 0.0268 -0.0857 0.0172 -0.0547 0.057 0 0.0697 0 0 0.0002c0.0191,-0.0008 0.0425,-0.001 0.0699,-0.0005 0.0288,0.0005 0.0598,0.0016 0.0922,0.0034l0 0c0.039,0.0018 0.0704,0.0031 0.094,0.0039 0.02,0.0007 0.0398,0.0011 0.0598,0.0011 0.0279,0 0.0522,-0.0006 0.0728,-0.0017 0.0215,-0.0012 0.0434,-0.0032 0.0654,-0.0058l0.0374 -0.0045 0.0267 0.0267c0.0188,0.0188 0.0339,0.0389 0.0451,0.06l-0.0002 0.0001c0.0123,0.0232 0.0199,0.0472 0.0229,0.0715l0.0075 0.0626 -0.0601 0.0201zm-0.3837 -0.0504l0 -0.0289 -0.0304 -0.0014c0.0105,0.0086 0.0193,0.0184 0.0263,0.0294l0.0021 0.0033 0.002 -0.0024z"/>
   <path class="fil2" d="M12.3785 8.0878c0,0.0268 -0.0254,0.0661 -0.0761,0.1179 -0.0326,-0.0804 -0.0625,-0.1983 -0.0897,-0.3536l-0.0163 -0.0937 0 -0.3482c-0.0493,0.15 -0.0985,0.2991 -0.1479,0.4473 -0.0616,0.1696 -0.1277,0.3124 -0.1981,0.4285 -0.0264,0.0071 -0.0493,0.0169 -0.0687,0.0295 -0.0492,-0.0268 -0.0898,-0.1045 -0.1214,-0.2331 -0.0247,-0.1018 -0.037,-0.1909 -0.037,-0.2678 0,-0.2624 0.0508,-0.5641 0.1526,-0.9052l0.0697 0c0.0124,0.0535 0.0187,0.0759 0.0187,0.067 0,0.0196 0,0.0303 0,0.0321 -0.0175,0.0553 -0.0413,0.1322 -0.0711,0.2303 -0.0616,0.2232 -0.0923,0.4098 -0.0923,0.5597 0,0.0501 0.0098,0.117 0.0294,0.2009 0.0231,0.0911 0.0471,0.1545 0.072,0.1902 0.0641,-0.1125 0.129,-0.2571 0.1947,-0.4339 0.0534,-0.1464 0.1076,-0.2937 0.1628,-0.4419 0.0231,-0.0589 0.0462,-0.1366 0.0694,-0.233 0.032,-0.1268 0.0524,-0.2053 0.0613,-0.2357 0.0622,0.0143 0.0934,0.0509 0.0934,0.1098 0,0.0322 -0.0107,0.084 -0.0322,0.1553 -0.0214,0.0768 -0.0339,0.1313 -0.0375,0.1634 -0.016,0.175 -0.024,0.2821 -0.024,0.3214 0,0.1607 0.0097,0.275 0.0294,0.3428 0.0018,0.0125 0.0134,0.0375 0.0349,0.075 0.016,0.0304 0.024,0.0554 0.024,0.075z"/>
   <path class="fil2" d="M12.4564 8.0878c0,0.0284 -0.0105,0.059 -0.0315,0.0915 -0.0155,0.024 -0.0379,0.051 -0.0671,0.0808l-0.0828 0.0846 -0.0446 -0.1098c-0.0175,-0.0433 -0.0344,-0.0964 -0.0503,-0.159 -0.0154,-0.0611 -0.0301,-0.1312 -0.044,-0.2104l0 -0.0003 -0.0029 -0.0167 -0.0111 0.0334 -0.0006 0.0021c-0.0318,0.0873 -0.0645,0.1675 -0.0981,0.2402 -0.0337,0.073 -0.0693,0.1403 -0.1066,0.2019l-0.0163 0.027 -0.0302 0.008c-0.0089,0.0023 -0.0177,0.0054 -0.0261,0.009 -0.0074,0.0032 -0.0141,0.0067 -0.0198,0.0105l-0.0388 0.0254 -0.0409 -0.0224c-0.0383,-0.0209 -0.0715,-0.0578 -0.099,-0.1106l-0.0003 0c-0.0229,-0.0439 -0.0431,-0.1013 -0.0605,-0.172l0 -0.0003c-0.013,-0.0541 -0.0228,-0.1044 -0.0292,-0.1509 -0.0068,-0.049 -0.0102,-0.0941 -0.0102,-0.1353 0,-0.1347 0.0131,-0.2802 0.0394,-0.4361 0.0261,-0.1545 0.0649,-0.3183 0.1166,-0.4913l0.0166 -0.0556 0.0578 0 0.0257 0 0.1405 0.1448 0 0.0322 0 0.0113 -0.0037 0.0118 -0.032 0.1026 0 -0.0001 -0.0391 0.1275 0 0c-0.0296,0.1076 -0.0519,0.2067 -0.0668,0.297 -0.0145,0.0882 -0.0218,0.1682 -0.0218,0.2399 0,0.0219 0.0022,0.0476 0.0064,0.0768 0.0045,0.0309 0.0113,0.066 0.0204,0.1051l0.0001 -0.0001 0.0057 0.0219c0.0056,-0.0121 0.0113,-0.0245 0.0169,-0.037 0.0318,-0.0709 0.0638,-0.1496 0.0959,-0.2359l0 0 0.0807 -0.2206c0.0172,-0.0468 0.0422,-0.1142 0.0823,-0.2219l0.0003 -0.0012c0.0107,-0.0272 0.0216,-0.0594 0.0326,-0.0964 0.0121,-0.0405 0.0234,-0.0827 0.0339,-0.1263l0 -0.0009c0.0129,-0.0511 0.0257,-0.1013 0.0395,-0.1546 0.0108,-0.0417 0.0184,-0.0698 0.0226,-0.0841l0.0207 -0.0702 0.0711 0.0164c0.0477,0.0109 0.0849,0.0322 0.1117,0.0637 0.0281,0.033 0.0422,0.0736 0.0422,0.1217 0,0.0205 -0.0033,0.0469 -0.0099,0.0788l0 0.0003c-0.006,0.0288 -0.0145,0.0617 -0.0256,0.0984l-0.0001 0c-0.0099,0.0356 -0.0179,0.0669 -0.0241,0.0937 -0.0056,0.0243 -0.0091,0.043 -0.0105,0.0558l-0.0001 0c-0.0071,0.0784 -0.0131,0.148 -0.0177,0.2091 -0.0037,0.0506 -0.0057,0.0853 -0.0057,0.104 0,0.0786 0.0024,0.1452 0.007,0.1997 0.0045,0.053 0.0109,0.0937 0.019,0.1219l0.002 0.0069 0.0005 0.0028c0.0001,0.0012 0.0011,0.0011 0.0038,0.007l0 0.0003c0.0051,0.011 0.0123,0.0247 0.0216,0.041l0.0012 0.0021c0.01,0.0189 0.0178,0.037 0.0233,0.0539 0.0066,0.0207 0.01,0.0398 0.01,0.0572z"/>
   <path class="fil2" d="M12.8873 8.1601c-0.0242,0.0179 -0.0372,0.034 -0.039,0.0482 -0.0373,0 -0.0634,-0.0384 -0.0782,-0.1151 -0.0038,-0.05 -0.0084,-0.1009 -0.014,-0.1527l0 -0.0188c0,-0.0267 0,-0.0677 0,-0.1232 0,-0.0552 0,-0.0973 0,-0.1258 0,-0.2964 0.009,-0.5258 0.0268,-0.6883 0.0053,-0.0411 0.0258,-0.0696 0.0616,-0.0857 0.0285,0.0197 0.0428,0.0375 0.0428,0.0535 0,0.0214 -0.0026,0.0536 -0.008,0.0965 -0.0089,0.0518 -0.0143,0.0839 -0.0161,0.0964 -0.0125,0.1304 -0.0187,0.2661 -0.0187,0.4071 0,0.2303 0.0143,0.433 0.0428,0.6079z"/>
   <path class="fil2" d="M12.9336 8.2224c-0.0039,0.0029 -0.0072,0.0055 -0.0096,0.0077l-0.0071 0.056 -0.0686 0c-0.0458,0 -0.083,-0.0211 -0.1116,-0.0632 -0.0192,-0.0281 -0.0335,-0.0666 -0.0429,-0.1151l-0.001 -0.0046 -0.0003 -0.0043c-0.0023,-0.0321 -0.0044,-0.058 -0.0059,-0.0744 -0.0019,-0.0208 -0.0044,-0.0457 -0.0077,-0.0759l-0.0006 -0.0057 0 -0.0025 0 -0.0187 0 -0.1232 0 -0.1258c0,-0.1443 0.0024,-0.2767 0.007,-0.3971 0.0046,-0.1175 0.0114,-0.2174 0.0204,-0.2993l0.0003 -0.0016c0.0043,-0.0336 0.0154,-0.0628 0.0333,-0.0876l-0.0002 -0.0002c0.0183,-0.0255 0.0429,-0.0452 0.0735,-0.059l0.0399 -0.0179 0.0361 0.0249c0.0207,0.0143 0.0371,0.0288 0.0489,0.0436l-0.0001 0c0.0185,0.0232 0.0278,0.0476 0.0278,0.0737 0,0.0124 -0.0008,0.028 -0.0023,0.0468 -0.0012,0.0134 -0.0034,0.0332 -0.0067,0.0595l-0.0004 0.003 -0.0107 0.0629 -0.005 0.032 -0.0001 0c-0.0058,0.0624 -0.0103,0.1263 -0.0133,0.1916 -0.0029,0.063 -0.0043,0.1311 -0.0043,0.2042 0,0.1146 0.0034,0.2211 0.0104,0.3193l0 0.0003c0.0069,0.0994 0.0174,0.1913 0.0312,0.2758l0.0076 0.0466 -0.038 0.0282z"/>
   <path class="fil2" d="M13.9639 6.9174c-0.0178,0.0304 -0.0438,0.0455 -0.0777,0.0455 -0.0179,0 -0.0411,0.0021 -0.0696,0.0063 -0.0375,0.0084 -0.0616,0.0125 -0.0723,0.0125 -0.0375,0 -0.0955,0.008 -0.1741,0.0241 0,0.0518 -0.0062,0.1419 -0.0187,0.2705 -0.009,0.1161 -0.0135,0.2072 -0.0135,0.2732 0,0.0786 0.0108,0.1901 0.0322,0.3348 0.0036,0.0179 0.016,0.0705 0.0375,0.158 0.0178,0.0679 0.0268,0.1205 0.0268,0.158 0,0.0179 -0.009,0.0325 -0.0268,0.0441 -0.0178,0.0117 -0.0366,0.0166 -0.0562,0.0148 -0.0679,-0.2874 -0.1018,-0.4999 -0.1018,-0.6374 0,-0.0589 0.0036,-0.1535 0.0107,-0.2839 0.0089,-0.1232 0.0125,-0.2178 0.0107,-0.2839l0 -0.0455c-0.0393,-0.0036 -0.0964,-0.0089 -0.1714,-0.0161l-0.0401 -0.0027 -0.0135 0 -0.0026 0c0.0017,0.0019 0.0035,0.0019 0.0054,0 -0.009,-0.0375 -0.0037,-0.0687 0.016,-0.0937 0.0161,-0.0018 0.0634,-0.0027 0.1419,-0.0027 0.0322,0 0.0813,-0.0013 0.1473,-0.004 0.0661,-0.0026 0.1153,-0.004 0.1473,-0.004l0.1608 0c0.0606,0 0.0946,0.0107 0.1017,0.0321z"/>
   <path class="fil2" d="M14.0308 6.9566c-0.0157,0.0268 -0.0359,0.0475 -0.0604,0.0618 -0.0254,0.0149 -0.0535,0.0224 -0.0842,0.0224 -0.0089,0 -0.0171,0.0003 -0.0241,0.0009 -0.0075,0.0007 -0.0189,0.0022 -0.0342,0.0045 -0.0192,0.0042 -0.0339,0.0072 -0.044,0.0089 -0.0171,0.0029 -0.0304,0.0044 -0.0396,0.0044 -0.016,0 -0.0364,0.0017 -0.061,0.0052 -0.0117,0.0016 -0.0241,0.0035 -0.0373,0.0057 -0.0008,0.0144 -0.0017,0.0302 -0.003,0.0473 -0.0029,0.0426 -0.0076,0.0977 -0.0142,0.1647l0.0002 0c-0.0047,0.0604 -0.0081,0.111 -0.0101,0.152 -0.002,0.0414 -0.0031,0.0799 -0.0031,0.1151 0,0.0387 0.0026,0.0839 0.0075,0.1354 0.0049,0.0516 0.0129,0.1141 0.0237,0.187 0.0015,0.0072 0.0052,0.023 0.0109,0.0474 0.0103,0.0433 0.0179,0.0747 0.0252,0.1044l-0.0001 0c0.0095,0.0367 0.0167,0.0687 0.0214,0.0959 0.0053,0.0311 0.008,0.0581 0.008,0.0806 0,0.0233 -0.0062,0.045 -0.0184,0.065 -0.0106,0.0174 -0.0253,0.0322 -0.0437,0.0443l-0.0003 0c-0.016,0.0103 -0.0326,0.0179 -0.0499,0.0224 -0.0183,0.0049 -0.0366,0.0064 -0.055,0.0049l-0.0563 -0.0049 -0.013 -0.055c-0.0339,-0.1438 -0.0597,-0.2707 -0.0772,-0.3804 -0.0178,-0.1114 -0.0267,-0.203 -0.0267,-0.2746 0,-0.0256 0.001,-0.0651 0.003,-0.1185 0.0019,-0.0504 0.0046,-0.107 0.008,-0.1697l0 -0.0012c0.0045,-0.0637 0.0077,-0.1173 0.0094,-0.1606 0.0013,-0.0353 0.0019,-0.0662 0.0017,-0.0928l-0.036 -0.0033 -0.0003 0 -0.0629 -0.006 0 0.0001 -0.0336 -0.0022c-0.0049,0.0009 -0.0099,0.0013 -0.015,0.0013 -0.0224,0 -0.0414,-0.0079 -0.0577,-0.0242l-0.1328 -0.1328 0.1166 0c0.0059,-0.0234 0.0164,-0.0449 0.0315,-0.064l0.0201 -0.0255 0.0322 -0.0037c0.0091,-0.001 0.0276,-0.0018 0.0552,-0.0023 0.0348,-0.0007 0.0662,-0.001 0.0955,-0.001 0.0229,0 0.0426,-0.0003 0.0588,-0.0007 0.023,-0.0006 0.0516,-0.0017 0.0855,-0.003 0.0314,-0.0012 0.0607,-0.0023 0.0876,-0.003 0.0327,-0.0008 0.0538,-0.0013 0.0628,-0.0013l0.1606 0c0.038,0 0.0694,0.0039 0.0941,0.0117 0.0421,0.0132 0.0693,0.0379 0.0813,0.0739l0.0111 0.0332 -0.0178 0.0303z"/>
   <path class="fil2" d="M14.8021 8.0691c0,0.0161 -0.004,0.0299 -0.012,0.0415 -0.0081,0.0116 -0.0121,0.0192 -0.0121,0.0228l-0.0696 0.0107c-0.0197,-0.0375 -0.0473,-0.0563 -0.083,-0.0563 -0.2,0 -0.35,0.0063 -0.45,0.0188 -0.0143,0.0268 -0.0285,0.0535 -0.0428,0.0803 -0.0179,0.0339 -0.0402,0.0509 -0.067,0.0509 -0.0143,0 -0.0214,-0.009 -0.0214,-0.0268 0,-0.0071 0.0013,-0.0174 0.004,-0.0308 0.0027,-0.0134 0.0041,-0.0236 0.0041,-0.0308 0,-0.0321 -0.0241,-0.0491 -0.0723,-0.0509 -0.0019,-0.0071 -0.0028,-0.0133 -0.0028,-0.0187 0,-0.0232 0.0165,-0.0375 0.0496,-0.0428 0.033,-0.0054 0.0522,-0.017 0.0576,-0.0349 0.025,-0.0946 0.0643,-0.2347 0.1178,-0.4204 0.0714,-0.2375 0.1616,-0.4946 0.2706,-0.7714l0.0133 0c0.0303,0 0.0482,0.0188 0.0536,0.0563 0.0018,0.0303 0.0035,0.0749 0.0053,0.1338 0.0108,0.1768 0.0402,0.3741 0.0884,0.592 0.0035,0.0107 0.0258,0.0991 0.0669,0.2651 0.0054,0.0268 0.0152,0.066 0.0295,0.1178 0.0036,0.0107 0.0165,0.0255 0.0389,0.0442 0.0222,0.0188 0.0334,0.0353 0.0334,0.0496zm-0.158 -0.0536l0 0c-0.0357,-0.1232 -0.1,-0.4249 -0.1928,-0.9053 -0.1447,0.3536 -0.2357,0.6553 -0.2732,0.9053 0.0679,0.0054 0.1455,0.008 0.233,0.008 0.0911,0 0.1687,-0.0026 0.233,-0.008z"/>
   <path class="fil2" d="M14.8799 8.0691c0,0.0144 -0.0021,0.029 -0.0063,0.0436l0.0002 0.0001c-0.0039,0.0138 -0.0099,0.0268 -0.018,0.039l0 0.0483 -0.0662 0.0102 -0.0697 0.0107 -0.0544 0.0083 -0.0258 -0.0494c-0.0036,-0.0068 -0.0071,-0.0114 -0.0103,-0.0136 -0.0007,-0.0004 -0.0021,-0.0007 -0.0041,-0.0007 -0.1032,0 -0.1897,0.0015 -0.2594,0.0044 -0.053,0.0022 -0.1003,0.0053 -0.1415,0.0093l-0.0019 0.0035 0.0001 0.0001 -0.0213 0.0402c-0.0143,0.0272 -0.0317,0.0486 -0.052,0.064l-0.0001 -0.0001c-0.0251,0.0191 -0.0531,0.0287 -0.0835,0.0287 -0.032,0 -0.0577,-0.0121 -0.0769,-0.0362l0 -0.0001c-0.015,-0.0189 -0.0224,-0.0418 -0.0224,-0.0684 0,-0.0053 0.0007,-0.013 0.0019,-0.0228l0 -0.0005 0.0018 -0.012 -0.0512 -0.0021 -0.0143 -0.056c-0.0014,-0.0054 -0.0026,-0.0115 -0.0035,-0.0185 -0.001,-0.0077 -0.0016,-0.0142 -0.0016,-0.0193 0,-0.0351 0.0132,-0.0642 0.0394,-0.0868 0.0193,-0.0167 0.0445,-0.0276 0.0755,-0.0326l0 0 0.0008 -0.0002c0.0119,-0.0444 0.0262,-0.0962 0.0426,-0.1551 0.0221,-0.0789 0.0451,-0.1596 0.0696,-0.2447l0.0003 -0.0009c0.0353,-0.1175 0.0762,-0.2424 0.1224,-0.3743 0.0462,-0.1317 0.0964,-0.2661 0.1503,-0.4031l0.0195 -0.0495 0.0528 0 0.0134 0c0.0372,0 0.0681,0.0128 0.0924,0.0384 0.0203,0.0213 0.0331,0.0496 0.0381,0.0846l0.0005 0.0064c0.0008,0.013 0.0017,0.0323 0.0027,0.0577 0.0008,0.0202 0.0017,0.0456 0.0025,0.0762l0.0001 0c0.0052,0.0852 0.0152,0.1766 0.0297,0.2738 0.0142,0.0955 0.0333,0.1971 0.0569,0.3045 0.0033,0.0118 0.0099,0.0372 0.0197,0.076l0.047 0.1888 0.0006 0.003c0.0023,0.0114 0.0059,0.0269 0.0107,0.0461l0.0001 0c0.0051,0.0206 0.01,0.0393 0.0146,0.0564 0.0046,0.005 0.0101,0.0103 0.0166,0.0157l0.0001 -0.0001c0.017,0.0141 0.0302,0.0283 0.0397,0.0425l-0.0002 0.0001c0.0147,0.0217 0.022,0.0439 0.022,0.0664zm-0.3348 -0.1254c-0.0147,-0.0604 -0.0321,-0.1374 -0.052,-0.2309 -0.0194,-0.0913 -0.0416,-0.1992 -0.0663,-0.3235 -0.0291,0.081 -0.055,0.1592 -0.0777,0.2346 -0.0344,0.1141 -0.0611,0.2206 -0.0798,0.3193l0.0206 0.0008c0.0322,0.0011 0.0726,0.0017 0.1211,0.0017 0.0504,0 0.0917,-0.0006 0.124,-0.0017l0.0101 -0.0003z"/>
  </g>
 </g>
</svg>
